<?xml version="1.0" encoding="UTF-8" standalone="no"?>
<svg
   xmlns:dc="http://purl.org/dc/elements/1.1/"
   xmlns:cc="http://creativecommons.org/ns#"
   xmlns:rdf="http://www.w3.org/1999/02/22-rdf-syntax-ns#"
   xmlns:svg="http://www.w3.org/2000/svg"
   xmlns="http://www.w3.org/2000/svg"
   xmlns:sodipodi="http://sodipodi.sourceforge.net/DTD/sodipodi-0.dtd"
   xmlns:inkscape="http://www.inkscape.org/namespaces/inkscape"
   version="1.1"
   id="svg4157"
   viewBox="0 0 120 120"
   height="120"
   width="120"
   inkscape:version="0.91 r13725"
   sodipodi:docname="7days_a_week.svg">
  <sodipodi:namedview
     pagecolor="#ffffff"
     bordercolor="#666666"
     borderopacity="1"
     objecttolerance="10"
     gridtolerance="10"
     guidetolerance="10"
     inkscape:pageopacity="0"
     inkscape:pageshadow="2"
     inkscape:window-width="1237"
     inkscape:window-height="755"
     id="namedview15"
     showgrid="false"
     inkscape:zoom="1.9666667"
     inkscape:cx="60"
     inkscape:cy="-35.580226"
     inkscape:window-x="43"
     inkscape:window-y="1"
     inkscape:window-maximized="1"
     inkscape:current-layer="svg4157" />
  <defs
     id="defs4159" />
  <metadata
     id="metadata4162">
    <rdf:RDF>
      <cc:Work
         rdf:about="">
        <dc:format>image/svg+xml</dc:format>
        <dc:type
           rdf:resource="http://purl.org/dc/dcmitype/StillImage" />
        <dc:title></dc:title>
      </cc:Work>
    </rdf:RDF>
  </metadata>
  <g
     id="g4287">
    <rect
       ry="5.9030401e-05"
       y="-1.7382812e-05"
       x="-8.2519534e-07"
       height="120"
       width="120"
       id="rect9899-1-3-4"
       style="color:#000000;clip-rule:nonzero;display:inline;overflow:visible;visibility:visible;opacity:1;isolation:auto;mix-blend-mode:normal;color-interpolation:sRGB;color-interpolation-filters:linearRGB;solid-color:#000000;solid-opacity:1;fill:#e85c41;fill-opacity:0;fill-rule:nonzero;stroke:none;stroke-width:0;stroke-linecap:butt;stroke-linejoin:miter;stroke-miterlimit:4;stroke-dasharray:none;stroke-dashoffset:0;stroke-opacity:1;color-rendering:auto;image-rendering:auto;shape-rendering:auto;text-rendering:auto;enable-background:accumulate" />
    <circle
       r="50"
       cy="59.999981"
       cx="60"
       id="path4162-1-7-8-6-5-7-7-9"
       style="color:#000000;clip-rule:nonzero;display:inline;overflow:visible;visibility:visible;opacity:1;isolation:auto;mix-blend-mode:normal;color-interpolation:sRGB;color-interpolation-filters:linearRGB;solid-color:#000000;solid-opacity:1;fill:#c9c9c9;fill-opacity:1;fill-rule:nonzero;stroke:none;stroke-width:0;stroke-linecap:butt;stroke-linejoin:miter;stroke-miterlimit:4;stroke-dasharray:none;stroke-dashoffset:0;stroke-opacity:1;color-rendering:auto;image-rendering:auto;shape-rendering:auto;text-rendering:auto;enable-background:accumulate" />
    <rect
       style="color:#000000;clip-rule:nonzero;display:inline;overflow:visible;visibility:visible;opacity:1;isolation:auto;mix-blend-mode:normal;color-interpolation:sRGB;color-interpolation-filters:linearRGB;solid-color:#000000;solid-opacity:1;fill:#e85c41;fill-opacity:0;fill-rule:nonzero;stroke:none;stroke-width:0;stroke-linecap:butt;stroke-linejoin:miter;stroke-miterlimit:4;stroke-dasharray:none;stroke-dashoffset:0;stroke-opacity:1;color-rendering:auto;image-rendering:auto;shape-rendering:auto;text-rendering:auto;enable-background:accumulate"
       id="rect9899-1-3-2"
       width="120"
       height="120"
       x="-8.2519534e-07"
       y="-1.7382812e-05"
       ry="5.9030401e-05" />
    <circle
       style="color:#000000;clip-rule:nonzero;display:inline;overflow:visible;visibility:visible;opacity:1;isolation:auto;mix-blend-mode:normal;color-interpolation:sRGB;color-interpolation-filters:linearRGB;solid-color:#000000;solid-opacity:1;fill:#c9c9c9;fill-opacity:1;fill-rule:nonzero;stroke:none;stroke-width:0;stroke-linecap:butt;stroke-linejoin:miter;stroke-miterlimit:4;stroke-dasharray:none;stroke-dashoffset:0;stroke-opacity:1;color-rendering:auto;image-rendering:auto;shape-rendering:auto;text-rendering:auto;enable-background:accumulate"
       id="path4162-1-7-8-6-5-7-7-2"
       cx="60"
       cy="59.999981"
       r="50" />
    <path
       d="m 38.418867,51.267484 q -0.175,0.14 -0.385,0.28 -0.175,0.105 -0.385,0.245 0.91,0.315 1.925,0.665 1.015,0.35 2.065,0.665 1.05,0.315 2.03,0.63 1.015,0.28 1.89,0.49 0.49,0.14 0.56,0.315 0.105,0.175 -0.07,0.665 l -0.91,2.275 q -0.175,0.49 -0.42,0.56 -0.21,0.035 -0.595,-0.035 -2.45,-0.56 -5.355,-1.54 -2.87,-0.98 -5.6,-2.17 -2.73,1.33 -5.845,2.45 -3.08,1.12 -6.16,1.715 -0.525,0.105 -0.735,0.035 -0.175,-0.105 -0.35,-0.49 l -0.875,-2.31 q -0.28,-0.77 0.49,-0.98 2.275,-0.595 4.41,-1.33 2.135,-0.735 3.99,-1.505 1.855,-0.805 3.36,-1.54 1.505,-0.77 2.52,-1.435 0.525,-0.35 0.455,-0.56 -0.035,-0.21 -0.525,-0.21 l -11.41,0 q -0.385,0 -0.525,-0.105 -0.14,-0.14 -0.14,-0.56 l 0,-2.695 q 0,-0.385 0.14,-0.49 0.14,-0.14 0.525,-0.14 l 16.485,0 q 1.68,0 2.485,0.56 0.84,0.56 0.84,1.47 0,0.63 -0.315,1.295 -0.315,0.665 -0.84,1.33 -0.525,0.63 -1.26,1.26 -0.7,0.63 -1.47,1.19 z m 9.135,13.615 -12.6,0 0,10.955 q 0,0.7 -0.7,0.7 l -3.465,0 q -0.7,0 -0.7,-0.7 l 0,-10.955 -12.6,0 q -0.455,0 -0.595,-0.21 -0.105,-0.21 -0.105,-0.595 l 0,-2.415 q 0,-0.385 0.105,-0.56 0.14,-0.21 0.595,-0.21 l 30.065,0 q 0.735,0 0.735,0.77 l 0,2.415 q 0,0.805 -0.735,0.805 z"
       style="font-style:normal;font-variant:normal;font-weight:bold;font-stretch:normal;font-size:35px;line-height:125%;font-family:NanumGothic;-inkscape-font-specification:'NanumGothic Bold';letter-spacing:0px;word-spacing:0px;fill:#e85c41;fill-opacity:1;stroke:none;stroke-width:1px;stroke-linecap:butt;stroke-linejoin:miter;stroke-opacity:1"
       id="path4278"
       inkscape:connector-curvature="0" />
    <path
       d="m 67.624726,49.937484 q -1.155,3.115 -2.31,5.985 -1.12,2.835 -2.24,5.565 -1.12,2.73 -2.275,5.425 -1.12,2.695 -2.24,5.53 -0.175,0.49 -0.35,0.595 -0.14,0.105 -0.63,0.105 l -3.395,0 q -0.595,0 -0.735,-0.21 -0.14,-0.175 0.14,-0.84 l 8.54,-21.42 -10.255,0 q -0.455,0 -0.63,-0.14 -0.175,-0.175 -0.175,-0.7 l 0,-2.835 q 0,-0.56 0.14,-0.7 0.175,-0.14 0.665,-0.14 l 14.805,0 q 0.595,0 0.805,0.175 0.21,0.14 0.21,0.7 l 0,2.485 q 0,0.21 -0.07,0.42 z"
       style="font-style:normal;font-variant:normal;font-weight:bold;font-stretch:normal;font-size:35px;line-height:125%;font-family:NanumGothic;-inkscape-font-specification:'NanumGothic Bold';letter-spacing:0px;word-spacing:0px;fill:#e85c41;fill-opacity:1;stroke:none;stroke-width:1px;stroke-linecap:butt;stroke-linejoin:miter;stroke-opacity:1"
       id="path4280"
       inkscape:connector-curvature="0" />
    <path
       d="m 92.561133,70.307484 q -2.415,0.385 -5.04,0.63 -2.59,0.245 -5.285,0.35 -2.66,0.105 -5.32,0.105 -2.66,0.035 -5.11,-0.035 -0.42,0 -0.56,-0.175 -0.105,-0.175 -0.105,-0.56 l 0,-2.52 q 0,-0.385 0.14,-0.56 0.14,-0.175 0.525,-0.14 1.995,0.035 4.06,0.07 2.1,0.035 4.2,-0.035 l 0,-2.87 q -1.225,-0.245 -2.275,-0.735 -1.015,-0.49 -1.785,-1.19 -0.735,-0.735 -1.19,-1.61 -0.42,-0.91 -0.42,-1.995 0,-1.295 0.63,-2.345 0.665,-1.085 1.785,-1.855 1.12,-0.77 2.555,-1.155 1.47,-0.42 3.115,-0.42 1.61,0 3.045,0.42 1.47,0.385 2.555,1.155 1.085,0.77 1.715,1.855 0.665,1.05 0.665,2.345 0,1.085 -0.42,1.995 -0.42,0.91 -1.19,1.61 -0.77,0.7 -1.82,1.225 -1.015,0.49 -2.205,0.735 l 0,2.66 q 1.855,-0.105 3.605,-0.28 1.785,-0.175 3.535,-0.455 0.525,-0.07 0.665,0.035 0.175,0.07 0.245,0.49 l 0.28,2.52 q 0.07,0.49 -0.105,0.595 -0.14,0.07 -0.49,0.14 z m 5.985,6.475 -3.57,0 q -0.385,0 -0.525,-0.14 -0.14,-0.105 -0.14,-0.525 l 0,-32.235 q 0,-0.385 0.14,-0.525 0.14,-0.14 0.525,-0.14 l 3.57,0 q 0.385,0 0.525,0.14 0.14,0.14 0.14,0.525 l 0,32.235 q 0,0.42 -0.14,0.525 -0.14,0.14 -0.525,0.14 z m -7.28,-24.57 -17.99,0 q -0.77,0 -0.77,-0.735 l 0,-2.205 q 0,-0.735 0.77,-0.735 l 17.99,0 q 0.735,0 0.735,0.735 l 0,2.24 q 0,0.7 -0.735,0.7 z m -4.2,-4.97 -9.205,0 q -0.28,0 -0.525,-0.105 -0.21,-0.14 -0.21,-0.63 l 0,-2.24 q 0,-0.455 0.21,-0.595 0.245,-0.14 0.525,-0.14 l 9.205,0 q 0.77,0 0.77,0.77 l 0,2.17 q 0,0.77 -0.77,0.77 z m -4.585,9.66 q -1.61,0 -2.52,0.63 -0.91,0.63 -0.91,1.505 0,0.875 0.875,1.505 0.91,0.63 2.555,0.63 1.575,0 2.45,-0.63 0.91,-0.63 0.91,-1.505 0,-0.875 -0.91,-1.505 -0.875,-0.63 -2.45,-0.63 z"
       style="font-style:normal;font-variant:normal;font-weight:bold;font-stretch:normal;font-size:35px;line-height:125%;font-family:NanumGothic;-inkscape-font-specification:'NanumGothic Bold';letter-spacing:0px;word-spacing:0px;fill:#e85c41;fill-opacity:1;stroke:none;stroke-width:1px;stroke-linecap:butt;stroke-linejoin:miter;stroke-opacity:1"
       id="path4282"
       inkscape:connector-curvature="0" />
  </g>
</svg>
