<?xml version="1.0" encoding="UTF-8" standalone="no"?>
<svg
   xmlns:dc="http://purl.org/dc/elements/1.1/"
   xmlns:cc="http://creativecommons.org/ns#"
   xmlns:rdf="http://www.w3.org/1999/02/22-rdf-syntax-ns#"
   xmlns:svg="http://www.w3.org/2000/svg"
   xmlns="http://www.w3.org/2000/svg"
   width="120"
   height="120"
   viewBox="0 0 120 120"
   id="svg8872"
   version="1.1">
  <defs
     id="defs8874" />
  <metadata
     id="metadata8877">
    <rdf:RDF>
      <cc:Work
         rdf:about="">
        <dc:format>image/svg+xml</dc:format>
        <dc:type
           rdf:resource="http://purl.org/dc/dcmitype/StillImage" />
        <dc:title></dc:title>
      </cc:Work>
    </rdf:RDF>
  </metadata>
  <g
     id="g4160">
    <rect
       style="color:#000000;clip-rule:nonzero;display:inline;overflow:visible;visibility:visible;opacity:1;isolation:auto;mix-blend-mode:normal;color-interpolation:sRGB;color-interpolation-filters:linearRGB;solid-color:#000000;solid-opacity:1;fill:#e85c41;fill-opacity:0;fill-rule:nonzero;stroke:none;stroke-width:0;stroke-linecap:butt;stroke-linejoin:miter;stroke-miterlimit:4;stroke-dasharray:none;stroke-dashoffset:0;stroke-opacity:1;color-rendering:auto;image-rendering:auto;shape-rendering:auto;text-rendering:auto;enable-background:accumulate"
       id="rect9899"
       width="120"
       height="120"
       x="0"
       y="3.1347656e-06"
       ry="5.9030401e-05" />
    <circle
       style="color:#000000;clip-rule:nonzero;display:inline;overflow:visible;visibility:visible;opacity:1;isolation:auto;mix-blend-mode:normal;color-interpolation:sRGB;color-interpolation-filters:linearRGB;solid-color:#000000;solid-opacity:1;fill:#c9c9c9;fill-opacity:1;fill-rule:nonzero;stroke:none;stroke-width:0;stroke-linecap:butt;stroke-linejoin:miter;stroke-miterlimit:4;stroke-dasharray:none;stroke-dashoffset:0;stroke-opacity:1;color-rendering:auto;image-rendering:auto;shape-rendering:auto;text-rendering:auto;enable-background:accumulate"
       id="path4162-1-7-8-6-5"
       cx="60"
       cy="60.000004"
       r="50" />
    <g
       style="font-style:normal;font-weight:normal;font-size:28.85059738px;line-height:125%;font-family:sans-serif;letter-spacing:0px;word-spacing:0px;fill:#e85c41;fill-opacity:1;stroke:none;stroke-width:1px;stroke-linecap:butt;stroke-linejoin:miter;stroke-opacity:1"
       id="text4462-4-0-7-3-2">
      <path
         d="m 58.598793,51.062504 -23.6225,0 q -0.3575,0 -0.4675,-0.165 -0.0825,-0.165 -0.0825,-0.4125 l 0,-1.98 q 0,-0.3025 0.0825,-0.44 0.11,-0.1375 0.4675,-0.1375 l 9.9,0 0,-4.8125 -5.005,0 q -0.6325,0 -1.0175,-0.055 -0.385,-0.0825 -0.605,-0.275 -0.22,-0.22 -0.3025,-0.605 -0.0825,-0.385 -0.0825,-0.99 l 0,-8.6625 q 0,-0.605 0.0825,-0.9625 0.11,-0.3575 0.33,-0.55 0.2475,-0.1925 0.605,-0.2475 0.3575,-0.0825 0.8525,-0.0825 l 13.9425,0 q 0.5775,0 0.935,0.055 0.3575,0.055 0.55,0.2475 0.22,0.1925 0.3025,0.5775 0.0825,0.3575 0.0825,0.9625 l 0,8.6625 q 0,0.605 -0.0825,0.99 -0.0825,0.3575 -0.3025,0.5775 -0.1925,0.1925 -0.55,0.275 -0.3575,0.0825 -0.935,0.0825 l -4.9775,0 0,4.8125 9.9,0 q 0.5775,0 0.5775,0.5775 l 0,1.98 q 0,0.5775 -0.5775,0.5775 z m -6.82,-16.72 q 0,-0.3575 -0.0825,-0.44 -0.055,-0.11 -0.385,-0.11 l -9.13,0 q -0.3575,0 -0.4675,0.0825 -0.0825,0.0825 -0.0825,0.4675 l 0,5.115 q 0,0.385 0.0825,0.4675 0.11,0.0825 0.4675,0.0825 l 9.13,0 q 0.33,0 0.385,-0.11 0.0825,-0.11 0.0825,-0.44 l 0,-5.115 z"
         style="font-style:normal;font-variant:normal;font-weight:bold;font-stretch:normal;font-size:27.5px;font-family:NanumGothic;-inkscape-font-specification:'NanumGothic Bold';fill:#e85c41;fill-opacity:1"
         id="path4152" />
      <path
         d="m 80.831254,39.842504 -14.5475,0 q -1.21,0 -1.7325,-0.55 -0.495,-0.55 -0.495,-1.65 l 0,-5.775 q 0,-1.1825 0.4675,-1.54 0.495,-0.385 1.65,-0.385 l 14.52,0 q 0.5225,0 0.5225,0.5225 l 0,2.035 q 0,0.3025 -0.11,0.4125 -0.11,0.11 -0.4125,0.11 l -12.3475,0 q -0.44,0 -0.44,0.44 l 0,2.8875 q 0,0.44 0.44,0.44 l 12.485,0 q 0.605,0 0.605,0.4675 l 0,2.035 q 0,0.55 -0.605,0.55 z m 3.575,5.28 -23.595,0 q -0.385,0 -0.4675,-0.1375 -0.0825,-0.1375 -0.0825,-0.4675 l 0,-1.98 q 0,-0.3025 0.11,-0.4125 0.11,-0.1375 0.44,-0.1375 l 23.595,0 q 0.2475,0 0.4125,0.11 0.165,0.11 0.165,0.44 l 0,1.98 q 0,0.605 -0.5775,0.605 z m -2.97,9.845 -15.455,0 q -0.5775,0 -0.9625,-0.11 -0.3575,-0.0825 -0.5775,-0.3025 -0.1925,-0.22 -0.275,-0.605 -0.0825,-0.385 -0.0825,-0.9625 l 0,-5.61 q 0,-0.5775 0.55,-0.5775 l 2.695,0 q 0.5775,0 0.5775,0.5775 l 0,4.0425 q 0,0.4125 0.4125,0.4125 l 13.1175,0 q 0.22,0 0.385,0.0825 0.1925,0.11 0.1925,0.4125 l 0,2.145 q 0,0.385 -0.1925,0.44 -0.165,0.055 -0.385,0.055 z"
         style="font-style:normal;font-variant:normal;font-weight:bold;font-stretch:normal;font-size:27.5px;font-family:NanumGothic;-inkscape-font-specification:'NanumGothic Bold';fill:#e85c41;fill-opacity:1"
         id="path4154" />
      <path
         d="m 58.598793,85.4375 -23.6225,0 q -0.3575,0 -0.4675,-0.165 -0.0825,-0.165 -0.0825,-0.4125 l 0,-1.98 q 0,-0.3025 0.0825,-0.44 0.11,-0.1375 0.4675,-0.1375 l 4.895,0 0,-3.2725 q 0,-0.3025 0.11,-0.4125 0.11,-0.1375 0.44,-0.1375 l 2.695,0 q 0.3575,0 0.4675,0.1375 0.11,0.11 0.11,0.4125 l 0,3.2725 6.1875,0 0,-3.2725 q 0,-0.3025 0.11,-0.4125 0.11,-0.1375 0.4675,-0.1375 l 2.695,0 q 0.33,0 0.44,0.1375 0.11,0.11 0.11,0.4125 l 0,3.2725 4.895,0 q 0.5775,0 0.5775,0.5775 l 0,1.98 q 0,0.5775 -0.5775,0.5775 z M 46.801293,77.82 q -2.035,0 -3.7675,-0.4675 -1.7325,-0.495 -3.025,-1.375 -1.2925,-0.9075 -2.035,-2.145 -0.715,-1.2375 -0.715,-2.75 0,-1.485 0.715,-2.7225 0.7425,-1.2375 2.0075,-2.1175 1.2925,-0.88 3.025,-1.375 1.76,-0.495 3.795,-0.495 2.0625,0 3.795,0.495 1.7325,0.495 2.9975,1.375 1.2925,0.88 2.0075,2.1175 0.715,1.2375 0.715,2.7225 0,1.5125 -0.715,2.75 -0.715,1.2375 -2.0075,2.145 -1.265,0.88 -2.9975,1.375 -1.7325,0.4675 -3.795,0.4675 z m 0,-10.2575 q -1.32,0 -2.3925,0.3025 -1.0725,0.275 -1.8425,0.77 -0.7425,0.4675 -1.1825,1.1275 -0.4125,0.6325 -0.4125,1.32 0,0.715 0.4125,1.375 0.44,0.6325 1.1825,1.1275 0.77,0.495 1.8425,0.7975 1.0725,0.275 2.3925,0.275 1.2925,0 2.365,-0.275 1.0725,-0.3025 1.815,-0.7975 0.77,-0.495 1.1825,-1.1275 0.4125,-0.66 0.4125,-1.375 0,-0.6875 -0.4125,-1.32 -0.4125,-0.66 -1.1825,-1.1275 -0.7425,-0.495 -1.815,-0.77 -1.0725,-0.3025 -2.365,-0.3025 z"
         style="font-style:normal;font-variant:normal;font-weight:bold;font-stretch:normal;font-size:27.5px;font-family:NanumGothic;-inkscape-font-specification:'NanumGothic Bold';fill:#e85c41;fill-opacity:1"
         id="path4156" />
      <path
         d="m 81.766254,77.0775 -2.7775,0 q -0.5225,0 -0.5225,-0.55 l 0,-12.4575 q 0,-0.3025 0.11,-0.4125 0.11,-0.11 0.4125,-0.11 l 2.7775,0 q 0.3025,0 0.385,0.11 0.11,0.11 0.11,0.4125 l 0,12.485 q 0,0.5225 -0.495,0.5225 z m -13.31,-0.5775 q -1.485,0 -2.7225,-0.4675 -1.21,-0.495 -2.1175,-1.32 -0.88,-0.8525 -1.375,-1.9525 -0.4675,-1.1275 -0.4675,-2.42 0,-1.265 0.4675,-2.3925 0.495,-1.1275 1.375,-1.9525 0.9075,-0.8525 2.1175,-1.32 1.2375,-0.495 2.7225,-0.495 1.5125,0 2.75,0.495 1.2375,0.4675 2.1175,1.32 0.9075,0.825 1.375,1.9525 0.495,1.1275 0.495,2.3925 0,1.2925 -0.495,2.42 -0.4675,1.1 -1.375,1.9525 -0.88,0.825 -2.1175,1.32 -1.2375,0.4675 -2.75,0.4675 z m 13.9975,13.5575 -14.6575,0 q -0.605,0 -0.99,-0.11 -0.3575,-0.0825 -0.5775,-0.3025 -0.1925,-0.1925 -0.275,-0.55 -0.055,-0.33 -0.055,-0.825 l 0,-3.7125 q 0,-0.5225 0.055,-0.8525 0.0825,-0.33 0.275,-0.5225 0.22,-0.22 0.5775,-0.3025 0.3575,-0.0825 0.9625,-0.0825 l 10.505,0 q 0.275,0 0.275,-0.3025 l 0,-0.77 q 0,-0.33 -0.3025,-0.33 l -11.8525,0 q -0.3025,0 -0.44,-0.11 -0.11,-0.11 -0.11,-0.44 l 0,-1.8975 q 0,-0.5225 0.55,-0.5225 l 13.915,0 q 0.6325,0 1.0175,0.11 0.385,0.0825 0.605,0.3025 0.22,0.1925 0.275,0.5225 0.0825,0.33 0.0825,0.825 l 0,3.685 q 0,0.55 -0.0825,0.9075 -0.055,0.33 -0.275,0.5225 -0.1925,0.1925 -0.5775,0.2475 -0.3575,0.0825 -0.99,0.0825 l -10.395,0 q -0.3025,0 -0.3025,0.275 l 0,0.88 q 0,0.3025 0.33,0.3025 l 12.43,0 q 0.3025,0 0.4125,0.0825 0.1375,0.0825 0.1375,0.44 l 0,1.8975 q 0,0.55 -0.5225,0.55 z m -13.9975,-22.77 q -0.715,0 -1.2925,0.2475 -0.55,0.2475 -0.9625,0.66 -0.4125,0.4125 -0.6325,0.9625 -0.22,0.55 -0.22,1.1825 0,1.265 0.8525,2.145 0.8525,0.88 2.255,0.88 1.4575,0 2.31,-0.88 0.88,-0.88 0.88,-2.145 0,-1.265 -0.88,-2.145 -0.8525,-0.9075 -2.31,-0.9075 z"
         style="font-style:normal;font-variant:normal;font-weight:bold;font-stretch:normal;font-size:27.5px;font-family:NanumGothic;-inkscape-font-specification:'NanumGothic Bold';fill:#e85c41;fill-opacity:1"
         id="path4158" />
    </g>
  </g>
</svg>
