<?xml version="1.0" encoding="UTF-8" standalone="no"?>
<svg
   xmlns:dc="http://purl.org/dc/elements/1.1/"
   xmlns:cc="http://creativecommons.org/ns#"
   xmlns:rdf="http://www.w3.org/1999/02/22-rdf-syntax-ns#"
   xmlns:svg="http://www.w3.org/2000/svg"
   xmlns="http://www.w3.org/2000/svg"
   width="120"
   height="120"
   viewBox="0 0 120 120"
   id="svg5055"
   version="1.1">
  <defs
     id="defs5057" />
  <metadata
     id="metadata5060">
    <rdf:RDF>
      <cc:Work
         rdf:about="">
        <dc:format>image/svg+xml</dc:format>
        <dc:type
           rdf:resource="http://purl.org/dc/dcmitype/StillImage" />
        <dc:title></dc:title>
      </cc:Work>
    </rdf:RDF>
  </metadata>
  <g
     id="g4157">
    <rect
       ry="5.9030401e-05"
       y="1.1853031e-06"
       x="0"
       height="120"
       width="120"
       id="rect9899-1-2-6"
       style="color:#000000;clip-rule:nonzero;display:inline;overflow:visible;visibility:visible;opacity:1;isolation:auto;mix-blend-mode:normal;color-interpolation:sRGB;color-interpolation-filters:linearRGB;solid-color:#000000;solid-opacity:1;fill:#e85c41;fill-opacity:0;fill-rule:nonzero;stroke:none;stroke-width:0;stroke-linecap:butt;stroke-linejoin:miter;stroke-miterlimit:4;stroke-dasharray:none;stroke-dashoffset:0;stroke-opacity:1;color-rendering:auto;image-rendering:auto;shape-rendering:auto;text-rendering:auto;enable-background:accumulate" />
    <circle
       style="color:#000000;clip-rule:nonzero;display:inline;overflow:visible;visibility:visible;opacity:1;isolation:auto;mix-blend-mode:normal;color-interpolation:sRGB;color-interpolation-filters:linearRGB;solid-color:#000000;solid-opacity:1;fill:#c9c9c9;fill-opacity:1;fill-rule:nonzero;stroke:none;stroke-width:0;stroke-linecap:butt;stroke-linejoin:miter;stroke-miterlimit:4;stroke-dasharray:none;stroke-dashoffset:0;stroke-opacity:1;color-rendering:auto;image-rendering:auto;shape-rendering:auto;text-rendering:auto;enable-background:accumulate"
       id="path4162-1-7-8-6-5-7-1-4"
       cx="60"
       cy="60"
       r="50" />
    <g
       style="font-style:normal;font-weight:normal;font-size:28.85059738px;line-height:125%;font-family:sans-serif;letter-spacing:0px;word-spacing:0px;fill:#e85c41;fill-opacity:1;stroke:none;stroke-width:1px;stroke-linecap:butt;stroke-linejoin:miter;stroke-opacity:1"
       id="text4462-4-0-7-3-2-7-3-9">
      <path
         d="m 74.369999,87.239999 -28.44,0 q -1.5,0 -2.4,-0.18 -0.9,-0.18 -1.44,-0.72 -0.48,-0.48 -0.66,-1.32 -0.18,-0.84 -0.18,-2.16 l 0,-12.9 q 0,-2.64 0.9,-3.54 0.96,-0.9 3.42,-0.9 l 28.5,0 q 1.5,0 2.4,0.24 0.9,0.18 1.38,0.66 0.54,0.48 0.72,1.38 0.18,0.9 0.18,2.22 l 0,12.9 q 0,1.32 -0.24,2.16 -0.18,0.84 -0.72,1.32 -0.48,0.48 -1.32,0.66 -0.84,0.18 -2.1,0.18 z m 11.34,-27.36 -51.48,0 q -0.84,0 -1.02,-0.3 -0.18,-0.3 -0.18,-0.96 l 0,-4.32 q 0,-0.72 0.24,-0.96 0.24,-0.3 0.96,-0.3 l 35.88,0 q 0.24,-1.32 0.48,-3.12 0.24,-1.86 0.36,-3.6 0.18,-1.8 0.24,-3.18 0.12,-1.38 0.12,-1.92 0,-0.9 -0.24,-1.26 -0.24,-0.42 -1.38,-0.42 l -27.12,0 q -0.6,0 -0.96,-0.12 -0.3,-0.18 -0.3,-0.96 l 0,-4.68 q 0,-0.66 0.3,-0.84 0.36,-0.18 0.96,-0.18 l 32.7,0 q 2.16,0 3.18,0.96 1.02,0.9 1.02,3.18 0,3.18 -0.3,7.56 -0.3,4.32 -1.14,8.58 l 7.68,0 q 0.54,0 0.9,0.3 0.36,0.24 0.36,0.96 l 0,4.32 q 0,1.26 -1.26,1.26 z m -15.3,13.14 q 0,-0.72 -0.66,-0.72 l -19.5,0 q -0.72,0 -0.72,0.78 l 0,6.66 q 0,0.72 0.72,0.72 l 19.44,0 q 0.42,0 0.54,-0.12 0.18,-0.06 0.18,-0.66 l 0,-6.66 z"
         style="font-style:normal;font-variant:normal;font-weight:bold;font-stretch:normal;font-size:60px;font-family:NanumGothic;-inkscape-font-specification:'NanumGothic Bold';fill:#e85c41;fill-opacity:1"
         id="path4155" />
    </g>
  </g>
</svg>
