<?xml version="1.0" encoding="UTF-8" standalone="no"?>
<svg
   xmlns:dc="http://purl.org/dc/elements/1.1/"
   xmlns:cc="http://creativecommons.org/ns#"
   xmlns:rdf="http://www.w3.org/1999/02/22-rdf-syntax-ns#"
   xmlns:svg="http://www.w3.org/2000/svg"
   xmlns="http://www.w3.org/2000/svg"
   width="120"
   height="120"
   viewBox="0 0 120 120"
   id="svg7598"
   version="1.1">
  <defs
     id="defs7600" />
  <metadata
     id="metadata7603">
    <rdf:RDF>
      <cc:Work
         rdf:about="">
        <dc:format>image/svg+xml</dc:format>
        <dc:type
           rdf:resource="http://purl.org/dc/dcmitype/StillImage" />
        <dc:title></dc:title>
      </cc:Work>
    </rdf:RDF>
  </metadata>
  <g
     id="g4157">
    <rect
       style="color:#000000;clip-rule:nonzero;display:inline;overflow:visible;visibility:visible;opacity:1;isolation:auto;mix-blend-mode:normal;color-interpolation:sRGB;color-interpolation-filters:linearRGB;solid-color:#000000;solid-opacity:1;fill:#e85c41;fill-opacity:0;fill-rule:nonzero;stroke:none;stroke-width:0;stroke-linecap:butt;stroke-linejoin:miter;stroke-miterlimit:4;stroke-dasharray:none;stroke-dashoffset:0;stroke-opacity:1;color-rendering:auto;image-rendering:auto;shape-rendering:auto;text-rendering:auto;enable-background:accumulate"
       id="rect9899-1-3"
       width="120"
       height="120"
       x="0"
       y="5.0524249e-13"
       ry="5.9030401e-05" />
    <circle
       style="color:#000000;clip-rule:nonzero;display:inline;overflow:visible;visibility:visible;opacity:1;isolation:auto;mix-blend-mode:normal;color-interpolation:sRGB;color-interpolation-filters:linearRGB;solid-color:#000000;solid-opacity:1;fill:#c9c9c9;fill-opacity:1;fill-rule:nonzero;stroke:none;stroke-width:0;stroke-linecap:butt;stroke-linejoin:miter;stroke-miterlimit:4;stroke-dasharray:none;stroke-dashoffset:0;stroke-opacity:1;color-rendering:auto;image-rendering:auto;shape-rendering:auto;text-rendering:auto;enable-background:accumulate"
       id="path4162-1-7-8-6-5-7-7"
       cx="60"
       cy="60"
       r="50" />
    <g
       style="font-style:normal;font-weight:normal;font-size:28.85059738px;line-height:125%;font-family:sans-serif;letter-spacing:0px;word-spacing:0px;fill:#e85c41;fill-opacity:1;stroke:none;stroke-width:1px;stroke-linecap:butt;stroke-linejoin:miter;stroke-opacity:1"
       id="text4462-4-0-7-3-2-7-7">
      <path
         d="m 82.289993,88.979996 -33.24,0 q -1.32,0 -2.16,-0.24 -0.78,-0.18 -1.26,-0.66 -0.48,-0.48 -0.66,-1.26 -0.18,-0.72 -0.18,-1.86 l 0,-5.88 q 0,-1.14 0.18,-1.86 0.18,-0.78 0.6,-1.2 0.48,-0.48 1.26,-0.66 0.84,-0.24 2.16,-0.24 l 24.36,0 q 0.6,0 0.6,-0.66 l 0,-0.96 q 0,-0.72 -0.66,-0.72 l -27.42,0 q -0.66,0 -0.96,-0.24 -0.24,-0.24 -0.24,-0.96 l 0,-3.48 q 0,-1.2 1.2,-1.2 l 31.86,0 q 2.7,0 3.54,0.84 0.84,0.84 0.84,3.18 l 0,5.7 q 0,1.2 -0.18,1.98 -0.18,0.78 -0.66,1.2 -0.48,0.48 -1.32,0.66 -0.84,0.18 -2.22,0.18 l -24.06,0 q -0.66,0 -0.66,0.6 l 0,1.2 q 0,0.66 0.72,0.66 l 28.5,0 q 0.66,0 0.9,0.18 0.3,0.18 0.3,1.02 l 0,3.48 q 0,1.2 -1.14,1.2 z m -29.22,-40.14 q -3.06,0 -5.64,-0.66 -2.52,-0.66 -4.38,-1.86 -1.86,-1.2 -2.94,-2.82 -1.02,-1.68 -1.02,-3.72 0,-2.04 1.02,-3.72 1.08,-1.68 2.94,-2.88 1.86,-1.26 4.38,-1.92 2.58,-0.66 5.64,-0.66 3,0 5.52,0.66 2.58,0.66 4.44,1.92 1.86,1.2 2.88,2.88 1.08,1.68 1.08,3.72 0,2.04 -1.08,3.72 -1.02,1.62 -2.88,2.82 -1.86,1.2 -4.44,1.86 -2.52,0.66 -5.52,0.66 z m 27.96,15.6 -6.12,0 q -0.66,0 -0.9,-0.12 -0.24,-0.12 -0.24,-0.84 l 0,-0.54 -9,0 q -0.54,0 -0.9,-0.18 -0.3,-0.24 -0.3,-0.9 l 0,-3.72 q 0,-0.84 0.36,-0.96 0.36,-0.12 0.84,-0.12 l 9,0 0,-24.9 q 0,-0.66 0.24,-0.9 0.24,-0.24 0.9,-0.24 l 6.12,0 q 0.66,0 0.9,0.24 0.24,0.24 0.24,0.9 l 0,31.32 q 0,0.72 -0.24,0.84 -0.24,0.12 -0.9,0.12 z m -25.8,0 -5.7,0 q -1.26,0 -1.26,-1.2 l 0,-6.42 q -3.3,0.12 -6.54,0.18 -3.24,0 -6.3,-0.12 -0.72,0 -0.96,-0.3 -0.18,-0.3 -0.18,-0.96 l 0,-3.6 q 0,-0.66 0.24,-0.96 0.24,-0.3 0.9,-0.3 8.52,0.18 17.28,-0.18 8.82,-0.36 17.16,-1.44 0.9,-0.12 1.14,0.06 0.3,0.18 0.42,0.9 l 0.48,3.66 q 0.12,0.72 -0.18,0.96 -0.3,0.18 -0.9,0.3 -3.42,0.48 -7.02,0.84 -3.54,0.3 -7.32,0.54 l 0,6.84 q 0,1.2 -1.26,1.2 z m -2.16,-28.02 q -3.06,0 -4.68,1.02 -1.56,1.02 -1.56,2.34 0,1.32 1.56,2.34 1.62,1.02 4.68,1.02 3.06,0 4.62,-1.02 1.56,-1.02 1.56,-2.34 0,-1.32 -1.56,-2.34 -1.56,-1.02 -4.62,-1.02 z"
         style="font-style:normal;font-variant:normal;font-weight:bold;font-stretch:normal;font-size:60px;font-family:NanumGothic;-inkscape-font-specification:'NanumGothic Bold';fill:#e85c41;fill-opacity:1"
         id="path4155" />
    </g>
  </g>
</svg>
