<?xml version="1.0" encoding="UTF-8" standalone="no"?>
<svg
   xmlns:dc="http://purl.org/dc/elements/1.1/"
   xmlns:cc="http://creativecommons.org/ns#"
   xmlns:rdf="http://www.w3.org/1999/02/22-rdf-syntax-ns#"
   xmlns:svg="http://www.w3.org/2000/svg"
   xmlns="http://www.w3.org/2000/svg"
   version="1.1"
   id="svg5219"
   viewBox="0 0 120 120"
   height="120"
   width="120">
  <defs
     id="defs5221" />
  <metadata
     id="metadata5224">
    <rdf:RDF>
      <cc:Work
         rdf:about="">
        <dc:format>image/svg+xml</dc:format>
        <dc:type
           rdf:resource="http://purl.org/dc/dcmitype/StillImage" />
        <dc:title></dc:title>
      </cc:Work>
    </rdf:RDF>
  </metadata>
  <g
     transform="translate(-340,-1060.9336)"
     id="layer1">
    <g
       id="g5794">
      <rect
         style="color:#000000;clip-rule:nonzero;display:inline;overflow:visible;visibility:visible;opacity:1;isolation:auto;mix-blend-mode:normal;color-interpolation:sRGB;color-interpolation-filters:linearRGB;solid-color:#000000;solid-opacity:1;fill:#e85c41;fill-opacity:0;fill-rule:nonzero;stroke:none;stroke-width:0;stroke-linecap:butt;stroke-linejoin:miter;stroke-miterlimit:4;stroke-dasharray:none;stroke-dashoffset:0;stroke-opacity:1;color-rendering:auto;image-rendering:auto;shape-rendering:auto;text-rendering:auto;enable-background:accumulate"
         id="rect9899-1-3-4"
         width="120"
         height="120"
         x="340"
         y="1060.9336"
         ry="5.9030401e-05" />
      <circle
         style="color:#000000;clip-rule:nonzero;display:inline;overflow:visible;visibility:visible;opacity:1;isolation:auto;mix-blend-mode:normal;color-interpolation:sRGB;color-interpolation-filters:linearRGB;solid-color:#000000;solid-opacity:1;fill:#c9c9c9;fill-opacity:1;fill-rule:nonzero;stroke:none;stroke-width:0;stroke-linecap:butt;stroke-linejoin:miter;stroke-miterlimit:4;stroke-dasharray:none;stroke-dashoffset:0;stroke-opacity:1;color-rendering:auto;image-rendering:auto;shape-rendering:auto;text-rendering:auto;enable-background:accumulate"
         id="path4162-1-7-8-6-5-7-7-9"
         cx="400"
         cy="1120.9336"
         r="50" />
      <rect
         ry="5.9030401e-05"
         y="1060.9336"
         x="340"
         height="120"
         width="120"
         id="rect9899-1-3-2"
         style="color:#000000;clip-rule:nonzero;display:inline;overflow:visible;visibility:visible;opacity:1;isolation:auto;mix-blend-mode:normal;color-interpolation:sRGB;color-interpolation-filters:linearRGB;solid-color:#000000;solid-opacity:1;fill:#e85c41;fill-opacity:0;fill-rule:nonzero;stroke:none;stroke-width:0;stroke-linecap:butt;stroke-linejoin:miter;stroke-miterlimit:4;stroke-dasharray:none;stroke-dashoffset:0;stroke-opacity:1;color-rendering:auto;image-rendering:auto;shape-rendering:auto;text-rendering:auto;enable-background:accumulate" />
      <circle
         r="50"
         cy="1120.9336"
         cx="400"
         id="path4162-1-7-8-6-5-7-7-2"
         style="color:#000000;clip-rule:nonzero;display:inline;overflow:visible;visibility:visible;opacity:1;isolation:auto;mix-blend-mode:normal;color-interpolation:sRGB;color-interpolation-filters:linearRGB;solid-color:#000000;solid-opacity:1;fill:#c9c9c9;fill-opacity:1;fill-rule:nonzero;stroke:none;stroke-width:0;stroke-linecap:butt;stroke-linejoin:miter;stroke-miterlimit:4;stroke-dasharray:none;stroke-dashoffset:0;stroke-opacity:1;color-rendering:auto;image-rendering:auto;shape-rendering:auto;text-rendering:auto;enable-background:accumulate" />
      <g
         style="font-style:normal;font-weight:normal;font-size:12.8362751px;line-height:125%;font-family:sans-serif;letter-spacing:0px;word-spacing:0px;fill:#e85c41;fill-opacity:1;stroke:none;stroke-width:1px;stroke-linecap:butt;stroke-linejoin:miter;stroke-opacity:1"
         id="text4462-4-0-7-3-2-7-7-07-3">
        <path
           d="m 376.35628,1133.5872 -14.78922,0 q -0.58729,0 -0.96103,-0.1068 -0.34704,-0.08 -0.5606,-0.2936 -0.21356,-0.2136 -0.29365,-0.5606 -0.0801,-0.3204 -0.0801,-0.8276 l 0,-2.6161 q 0,-0.5072 0.0801,-0.8276 0.0801,-0.347 0.26695,-0.5339 0.21357,-0.2136 0.56061,-0.2936 0.37373,-0.1068 0.96103,-0.1068 l 10.83831,0 q 0.26695,0 0.26695,-0.2937 l 0,-0.4271 q 0,-0.3203 -0.29365,-0.3203 l -12.19977,0 q -0.29365,0 -0.42712,-0.1068 -0.10679,-0.1068 -0.10679,-0.4272 l 0,-1.5483 q 0,-0.5339 0.53391,-0.5339 l 14.17523,0 q 1.20129,0 1.57502,0.3737 0.37374,0.3738 0.37374,1.4149 l 0,2.5361 q 0,0.5339 -0.0801,0.8809 -0.0801,0.347 -0.29365,0.5339 -0.21356,0.2136 -0.5873,0.2937 -0.37373,0.08 -0.98772,0.08 l -10.70484,0 q -0.29364,0 -0.29364,0.267 l 0,0.5339 q 0,0.2937 0.32034,0.2937 l 12.68029,0 q 0.29365,0 0.40043,0.08 0.13347,0.08 0.13347,0.4539 l 0,1.5483 q 0,0.5339 -0.50721,0.5339 z m -13.00063,-17.8592 q -1.36146,0 -2.50936,-0.2936 -1.1212,-0.2937 -1.94876,-0.8276 -0.82756,-0.5339 -1.30807,-1.2547 -0.45382,-0.7474 -0.45382,-1.6551 0,-0.9076 0.45382,-1.6551 0.48051,-0.7475 1.30807,-1.2814 0.82756,-0.5606 1.94876,-0.8542 1.1479,-0.2937 2.50936,-0.2937 1.33477,0 2.45597,0.2937 1.1479,0.2936 1.97546,0.8542 0.82755,0.5339 1.28137,1.2814 0.48052,0.7475 0.48052,1.6551 0,0.9077 -0.48052,1.6551 -0.45382,0.7208 -1.28137,1.2547 -0.82756,0.5339 -1.97546,0.8276 -1.1212,0.2936 -2.45597,0.2936 z m 12.44003,6.9408 -2.72293,0 q -0.29364,0 -0.40043,-0.053 -0.10678,-0.053 -0.10678,-0.3737 l 0,-0.2403 -4.0043,0 q -0.24026,0 -0.40043,-0.08 -0.13347,-0.1067 -0.13347,-0.4004 l 0,-1.6551 q 0,-0.3737 0.16017,-0.4271 0.16017,-0.053 0.37373,-0.053 l 4.0043,0 0,-11.0786 q 0,-0.2936 0.10678,-0.4004 0.10679,-0.1068 0.40043,-0.1068 l 2.72293,0 q 0.29365,0 0.40043,0.1068 0.10678,0.1068 0.10678,0.4004 l 0,13.935 q 0,0.3203 -0.10678,0.3737 -0.10678,0.053 -0.40043,0.053 z m -11.479,0 -2.53605,0 q -0.56061,0 -0.56061,-0.5339 l 0,-2.8564 q -1.46824,0.053 -2.90979,0.08 -1.44155,0 -2.80301,-0.053 -0.32034,0 -0.42712,-0.1335 -0.0801,-0.1335 -0.0801,-0.4271 l 0,-1.6017 q 0,-0.2937 0.10678,-0.4272 0.10678,-0.1334 0.40043,-0.1334 3.79074,0.08 7.68826,-0.08 3.92421,-0.1602 7.63487,-0.6407 0.40043,-0.053 0.50721,0.027 0.13347,0.08 0.18687,0.4004 l 0.21356,1.6284 q 0.0534,0.3204 -0.0801,0.4272 -0.13347,0.08 -0.40043,0.1334 -1.52163,0.2136 -3.12335,0.3738 -1.57503,0.1334 -3.25683,0.2402 l 0,3.0433 q 0,0.5339 -0.56061,0.5339 z m -0.96103,-12.4667 q -1.36146,0 -2.08223,0.4538 -0.69408,0.4538 -0.69408,1.0411 0,0.5873 0.69408,1.0411 0.72077,0.4539 2.08223,0.4539 1.36146,0 2.05554,-0.4539 0.69408,-0.4538 0.69408,-1.0411 0,-0.5873 -0.69408,-1.0411 -0.69408,-0.4538 -2.05554,-0.4538 z"
           style="font-style:normal;font-variant:normal;font-weight:bold;font-stretch:normal;font-size:26.6953392px;font-family:NanumGothic;-inkscape-font-specification:'NanumGothic Bold';fill:#e85c41;fill-opacity:1"
           id="path5784" />
        <path
           d="m 384.08333,1133.8541 q -0.0801,0.2136 -0.26695,0.2937 -0.18687,0.1068 -0.37374,0.1068 l -2.61614,0 q -0.16017,0 -0.29365,-0.1068 -0.13348,-0.1068 -0.0801,-0.3203 l 1.22799,-4.912 q 0.0534,-0.1335 0.18687,-0.2936 0.13347,-0.1869 0.42712,-0.1869 l 3.28353,0 q 0.32034,0 0.37373,0.2136 0.0534,0.1868 0,0.347 l -1.86867,4.8585 z"
           style="font-style:normal;font-variant:normal;font-weight:bold;font-stretch:normal;font-size:26.6953392px;font-family:NanumGothic;-inkscape-font-specification:'NanumGothic Bold';fill:#e85c41;fill-opacity:1"
           id="path5786" />
        <path
           d="m 411.30548,1124.1637 -9.61032,0 0,8.5425 q 0,0.534 -0.53391,0.534 l -2.64283,0 q -0.53391,0 -0.53391,-0.534 l 0,-8.5425 -9.61032,0 q -0.34704,0 -0.45382,-0.1601 -0.0801,-0.1602 -0.0801,-0.4539 l 0,-1.8419 q 0,-0.2937 0.0801,-0.4272 0.10678,-0.1601 0.45382,-0.1601 l 22.93129,0 q 0.56061,0 0.56061,0.5873 l 0,1.8419 q 0,0.614 -0.56061,0.614 z m -19.94141,-4.6716 q -0.37374,0.1067 -0.50722,0.027 -0.0801,-0.053 -0.16017,-0.1602 -0.0534,-0.1335 -0.10678,-0.2136 l -0.98773,-1.9487 q -0.21356,-0.4539 0.34704,-0.6407 3.87083,-1.2814 5.81959,-3.3903 1.97545,-2.109 2.2958,-4.8853 0.0534,-0.3737 0.13347,-0.4538 0.10678,-0.08 0.48052,-0.053 l 2.42927,0.1068 q 0.614,0.027 0.5873,0.5606 -0.0267,0.347 -0.0534,0.6674 -0.0267,0.3203 -0.0801,0.6407 0.45383,1.0144 1.28138,1.9754 0.85425,0.9343 1.94876,1.7619 1.09451,0.8009 2.37589,1.4416 1.30807,0.6139 2.66953,1.0144 0.37373,0.1068 0.37373,0.2936 0.0267,0.1869 -0.10678,0.5072 l -0.88094,1.8687 q -0.0534,0.053 -0.10678,0.1602 -0.0267,0.1068 -0.0801,0.1602 -0.0534,0.027 -0.16017,0.053 -0.0801,0 -0.26696,-0.053 -1.1212,-0.2136 -2.34919,-0.7208 -1.20129,-0.5072 -2.34919,-1.228 -1.1479,-0.7208 -2.16232,-1.6017 -0.98773,-0.881 -1.7085,-1.842 -1.38816,2.1356 -3.65726,3.6306 -2.2691,1.4949 -5.01872,2.3225 z"
           style="font-style:normal;font-variant:normal;font-weight:bold;font-stretch:normal;font-size:26.6953392px;font-family:NanumGothic;-inkscape-font-specification:'NanumGothic Bold';fill:#e85c41;fill-opacity:1"
           id="path5788" />
        <path
           d="m 417.24395,1133.8541 q -0.0801,0.2136 -0.26696,0.2937 -0.18686,0.1068 -0.37373,0.1068 l -2.61614,0 q -0.16018,0 -0.29365,-0.1068 -0.13348,-0.1068 -0.0801,-0.3203 l 1.22799,-4.912 q 0.0534,-0.1335 0.18686,-0.2936 0.13348,-0.1869 0.42713,-0.1869 l 3.28353,0 q 0.32034,0 0.37373,0.2136 0.0534,0.1868 0,0.347 l -1.86867,4.8585 z"
           style="font-style:normal;font-variant:normal;font-weight:bold;font-stretch:normal;font-size:26.6953392px;font-family:NanumGothic;-inkscape-font-specification:'NanumGothic Bold';fill:#e85c41;fill-opacity:1"
           id="path5790" />
        <path
           d="m 439.39398,1132.7596 -12.65359,0 q -0.66738,0 -1.06781,-0.08 -0.40043,-0.08 -0.64069,-0.3204 -0.21356,-0.2136 -0.29365,-0.5873 -0.0801,-0.3737 -0.0801,-0.961 l 0,-5.7395 q 0,-1.1746 0.40043,-1.575 0.42712,-0.4005 1.52163,-0.4005 l 12.68029,0 q 0.66738,0 1.06781,0.1068 0.40043,0.08 0.61399,0.2937 0.24026,0.2135 0.32035,0.614 0.0801,0.4004 0.0801,0.9877 l 0,5.7395 q 0,0.5873 -0.10678,0.961 -0.0801,0.3737 -0.32034,0.5873 -0.21357,0.2136 -0.5873,0.2937 -0.37373,0.08 -0.93434,0.08 z m 5.04542,-12.173 -22.9046,0 q -0.37373,0 -0.45382,-0.1335 -0.0801,-0.1335 -0.0801,-0.4271 l 0,-1.9221 q 0,-0.3203 0.10679,-0.4271 0.10678,-0.1335 0.42712,-0.1335 l 15.96381,0 q 0.10679,-0.5873 0.21357,-1.3882 0.10678,-0.8275 0.16017,-1.6017 0.0801,-0.8008 0.10678,-1.4148 0.0534,-0.614 0.0534,-0.8543 0,-0.4004 -0.10678,-0.5606 -0.10678,-0.1869 -0.61399,-0.1869 l -12.0663,0 q -0.26695,0 -0.42712,-0.053 -0.13348,-0.08 -0.13348,-0.4272 l 0,-2.0822 q 0,-0.2937 0.13348,-0.3737 0.16017,-0.08 0.42712,-0.08 l 14.54896,0 q 0.96104,0 1.41486,0.4271 0.45382,0.4004 0.45382,1.4149 0,1.4148 -0.13348,3.3636 -0.13348,1.922 -0.50721,3.8174 l 3.417,0 q 0.24026,0 0.40043,0.1335 0.16017,0.1068 0.16017,0.4271 l 0,1.9221 q 0,0.5606 -0.5606,0.5606 z m -6.80731,5.8462 q 0,-0.3203 -0.29365,-0.3203 l -8.67598,0 q -0.32035,0 -0.32035,0.347 l 0,2.9632 q 0,0.3204 0.32035,0.3204 l 8.64929,0 q 0.18686,0 0.24025,-0.053 0.0801,-0.027 0.0801,-0.2937 l 0,-2.9632 z"
           style="font-style:normal;font-variant:normal;font-weight:bold;font-stretch:normal;font-size:26.6953392px;font-family:NanumGothic;-inkscape-font-specification:'NanumGothic Bold';fill:#e85c41;fill-opacity:1"
           id="path5792" />
      </g>
    </g>
  </g>
</svg>
