<?xml version="1.0" encoding="UTF-8" standalone="no"?>
<svg
   xmlns:dc="http://purl.org/dc/elements/1.1/"
   xmlns:cc="http://creativecommons.org/ns#"
   xmlns:rdf="http://www.w3.org/1999/02/22-rdf-syntax-ns#"
   xmlns:svg="http://www.w3.org/2000/svg"
   xmlns="http://www.w3.org/2000/svg"
   width="120"
   height="120"
   viewBox="0 0 120 120"
   id="svg4429"
   version="1.1">
  <defs
     id="defs4431" />
  <metadata
     id="metadata4434">
    <rdf:RDF>
      <cc:Work
         rdf:about="">
        <dc:format>image/svg+xml</dc:format>
        <dc:type
           rdf:resource="http://purl.org/dc/dcmitype/StillImage" />
        <dc:title></dc:title>
      </cc:Work>
    </rdf:RDF>
  </metadata>
  <g
     id="g4157">
    <rect
       ry="5.9030401e-05"
       y="5.0524249e-13"
       x="0"
       height="120"
       width="120"
       id="rect9899-1-2-6-8"
       style="color:#000000;clip-rule:nonzero;display:inline;overflow:visible;visibility:visible;opacity:1;isolation:auto;mix-blend-mode:normal;color-interpolation:sRGB;color-interpolation-filters:linearRGB;solid-color:#000000;solid-opacity:1;fill:#e85c41;fill-opacity:0;fill-rule:nonzero;stroke:none;stroke-width:0;stroke-linecap:butt;stroke-linejoin:miter;stroke-miterlimit:4;stroke-dasharray:none;stroke-dashoffset:0;stroke-opacity:1;color-rendering:auto;image-rendering:auto;shape-rendering:auto;text-rendering:auto;enable-background:accumulate" />
    <circle
       style="color:#000000;clip-rule:nonzero;display:inline;overflow:visible;visibility:visible;opacity:1;isolation:auto;mix-blend-mode:normal;color-interpolation:sRGB;color-interpolation-filters:linearRGB;solid-color:#000000;solid-opacity:1;fill:#c9c9c9;fill-opacity:1;fill-rule:nonzero;stroke:none;stroke-width:0;stroke-linecap:butt;stroke-linejoin:miter;stroke-miterlimit:4;stroke-dasharray:none;stroke-dashoffset:0;stroke-opacity:1;color-rendering:auto;image-rendering:auto;shape-rendering:auto;text-rendering:auto;enable-background:accumulate"
       id="path4162-1-7-8-6-5-7-1-4-5"
       cx="60"
       cy="60"
       r="50" />
    <g
       style="font-style:normal;font-weight:normal;font-size:28.85059738px;line-height:125%;font-family:sans-serif;letter-spacing:0px;word-spacing:0px;fill:#e85c41;fill-opacity:1;stroke:none;stroke-width:1px;stroke-linecap:butt;stroke-linejoin:miter;stroke-opacity:1"
       id="text4462-4-0-7-3-2-7-3-9-8">
      <path
         d="m 78.480001,67.770006 -14.34,0 0,8.04 21.6,0 q 1.26,0 1.26,1.26 l 0,4.2 q 0,1.26 -1.26,1.26 l -51.54,0 q -0.78,0 -1.02,-0.36 -0.18,-0.36 -0.18,-0.9 l 0,-4.2 q 0,-0.66 0.18,-0.96 0.24,-0.3 1.02,-0.3 l 21.6,0 0,-8.04 -10.5,0 q -2.64,0 -3.78,-1.2 -1.14,-1.2 -1.14,-3.6 l 0,-21.24 q 0,-2.58 1.08,-3.42 1.08,-0.84 3.6,-0.84 l 33.12,0 q 1.14,0 1.14,1.14 l 0,4.44 q 0,0.66 -0.24,0.9 -0.24,0.24 -0.9,0.24 l -28.44,0 q -1.02,0 -1.02,0.96 l 0,4.14 28.62,0 q 1.26,0 1.26,1.26 l 0,4.08 q 0,1.26 -1.26,1.26 l -28.62,0 0,4.26 q 0,0.96 1.02,0.96 l 28.74,0 q 1.38,0 1.38,1.02 l 0,4.44 q 0,1.2 -1.38,1.2 z"
         style="font-style:normal;font-variant:normal;font-weight:bold;font-stretch:normal;font-size:60px;font-family:NanumGothic;-inkscape-font-specification:'NanumGothic Bold';fill:#e85c41;fill-opacity:1"
         id="path4155" />
    </g>
  </g>
</svg>
