<?xml version="1.0" encoding="UTF-8" standalone="no"?>
<svg
   xmlns:dc="http://purl.org/dc/elements/1.1/"
   xmlns:cc="http://creativecommons.org/ns#"
   xmlns:rdf="http://www.w3.org/1999/02/22-rdf-syntax-ns#"
   xmlns:svg="http://www.w3.org/2000/svg"
   xmlns="http://www.w3.org/2000/svg"
   version="1.1"
   id="svg4157"
   viewBox="0 0 120 120"
   height="120"
   width="120">
  <defs
     id="defs4159" />
  <metadata
     id="metadata4162">
    <rdf:RDF>
      <cc:Work
         rdf:about="">
        <dc:format>image/svg+xml</dc:format>
        <dc:type
           rdf:resource="http://purl.org/dc/dcmitype/StillImage" />
        <dc:title></dc:title>
      </cc:Work>
    </rdf:RDF>
  </metadata>
  <g
     transform="translate(-165.71428,-1092.3622)"
     id="layer1">
    <g
       id="g4732">
      <rect
         style="color:#000000;clip-rule:nonzero;display:inline;overflow:visible;visibility:visible;opacity:1;isolation:auto;mix-blend-mode:normal;color-interpolation:sRGB;color-interpolation-filters:linearRGB;solid-color:#000000;solid-opacity:1;fill:#e85c41;fill-opacity:0;fill-rule:nonzero;stroke:none;stroke-width:0;stroke-linecap:butt;stroke-linejoin:miter;stroke-miterlimit:4;stroke-dasharray:none;stroke-dashoffset:0;stroke-opacity:1;color-rendering:auto;image-rendering:auto;shape-rendering:auto;text-rendering:auto;enable-background:accumulate"
         id="rect9899-1-3-4"
         width="120"
         height="120"
         x="165.71428"
         y="1092.3622"
         ry="5.9030401e-05" />
      <circle
         style="color:#000000;clip-rule:nonzero;display:inline;overflow:visible;visibility:visible;opacity:1;isolation:auto;mix-blend-mode:normal;color-interpolation:sRGB;color-interpolation-filters:linearRGB;solid-color:#000000;solid-opacity:1;fill:#c9c9c9;fill-opacity:1;fill-rule:nonzero;stroke:none;stroke-width:0;stroke-linecap:butt;stroke-linejoin:miter;stroke-miterlimit:4;stroke-dasharray:none;stroke-dashoffset:0;stroke-opacity:1;color-rendering:auto;image-rendering:auto;shape-rendering:auto;text-rendering:auto;enable-background:accumulate"
         id="path4162-1-7-8-6-5-7-7-9"
         cx="225.71428"
         cy="1152.3622"
         r="50" />
      <rect
         ry="5.9030401e-05"
         y="1092.3622"
         x="165.71428"
         height="120"
         width="120"
         id="rect9899-1-3-2"
         style="color:#000000;clip-rule:nonzero;display:inline;overflow:visible;visibility:visible;opacity:1;isolation:auto;mix-blend-mode:normal;color-interpolation:sRGB;color-interpolation-filters:linearRGB;solid-color:#000000;solid-opacity:1;fill:#e85c41;fill-opacity:0;fill-rule:nonzero;stroke:none;stroke-width:0;stroke-linecap:butt;stroke-linejoin:miter;stroke-miterlimit:4;stroke-dasharray:none;stroke-dashoffset:0;stroke-opacity:1;color-rendering:auto;image-rendering:auto;shape-rendering:auto;text-rendering:auto;enable-background:accumulate" />
      <circle
         r="50"
         cy="1152.3622"
         cx="225.71428"
         id="path4162-1-7-8-6-5-7-7-2"
         style="color:#000000;clip-rule:nonzero;display:inline;overflow:visible;visibility:visible;opacity:1;isolation:auto;mix-blend-mode:normal;color-interpolation:sRGB;color-interpolation-filters:linearRGB;solid-color:#000000;solid-opacity:1;fill:#c9c9c9;fill-opacity:1;fill-rule:nonzero;stroke:none;stroke-width:0;stroke-linecap:butt;stroke-linejoin:miter;stroke-miterlimit:4;stroke-dasharray:none;stroke-dashoffset:0;stroke-opacity:1;color-rendering:auto;image-rendering:auto;shape-rendering:auto;text-rendering:auto;enable-background:accumulate" />
      <g
         style="font-style:normal;font-weight:normal;font-size:17.92362785px;line-height:125%;font-family:sans-serif;letter-spacing:0px;word-spacing:0px;fill:#e85c41;fill-opacity:1;stroke:none;stroke-width:1px;stroke-linecap:butt;stroke-linejoin:miter;stroke-opacity:1"
         id="text4462-4-0-7-3-2-7-7-07-3">
        <path
           d="m 214.15542,1154.5242 -8.90883,0 0,4.9949 13.41915,0 q 0.78278,0 0.78278,0.7828 l 0,2.6093 q 0,0.7828 -0.78278,0.7828 l -32.01957,0 q -0.48458,0 -0.63368,-0.2237 -0.11183,-0.2236 -0.11183,-0.5591 l 0,-2.6093 q 0,-0.41 0.11183,-0.5964 0.1491,-0.1864 0.63368,-0.1864 l 13.41914,0 0,-4.9949 -6.52319,0 q -1.64012,0 -2.34835,-0.7455 -0.70823,-0.7455 -0.70823,-2.2365 l 0,-13.1955 q 0,-1.6028 0.67095,-2.1247 0.67096,-0.5218 2.23653,-0.5218 l 20.57602,0 q 0.70823,0 0.70823,0.7082 l 0,2.7584 q 0,0.41 -0.1491,0.5591 -0.1491,0.1491 -0.55913,0.1491 l -17.66854,0 q -0.63368,0 -0.63368,0.5964 l 0,2.572 17.78036,0 q 0.78279,0 0.78279,0.7828 l 0,2.5347 q 0,0.7828 -0.78279,0.7828 l -17.78036,0 0,2.6466 q 0,0.5964 0.63368,0.5964 l 17.85492,0 q 0.85733,0 0.85733,0.6336 l 0,2.7584 q 0,0.7455 -0.85733,0.7455 z"
           style="font-style:normal;font-variant:normal;font-weight:bold;font-stretch:normal;font-size:37.27540207px;font-family:NanumGothic;-inkscape-font-specification:'NanumGothic Bold';fill:#e85c41;fill-opacity:1"
           id="path4726" />
        <path
           d="m 226.95777,1170.2545 q -0.11183,0.2982 -0.37275,0.41 -0.26093,0.1491 -0.52186,0.1491 l -3.65299,0 q -0.22365,0 -0.41003,-0.1491 -0.18638,-0.1491 -0.11182,-0.4473 l 1.71466,-6.8587 q 0.0745,-0.1864 0.26093,-0.41 0.18638,-0.261 0.59641,-0.261 l 4.58487,0 q 0.44731,0 0.52186,0.2982 0.0746,0.261 0,0.4846 l -2.60928,6.7842 z"
           style="font-style:normal;font-variant:normal;font-weight:bold;font-stretch:normal;font-size:37.27540207px;font-family:NanumGothic;-inkscape-font-specification:'NanumGothic Bold';fill:#e85c41;fill-opacity:1"
           id="path4728" />
        <path
           d="m 261.35307,1152.2504 -3.76482,0 q -0.70823,0 -0.70823,-0.7455 l 0,-16.8857 q 0,-0.4101 0.1491,-0.5592 0.1491,-0.1491 0.55913,-0.1491 l 3.76482,0 q 0.41002,0 0.52185,0.1491 0.1491,0.1491 0.1491,0.5592 l 0,16.923 q 0,0.7082 -0.67095,0.7082 z m -18.0413,-0.7828 q -2.01287,0 -3.69026,-0.6336 -1.64012,-0.671 -2.87021,-1.7893 -1.19281,-1.1555 -1.86377,-2.6465 -0.63368,-1.5283 -0.63368,-3.2802 0,-1.7147 0.63368,-3.243 0.67096,-1.5283 1.86377,-2.6466 1.23009,-1.1555 2.87021,-1.7892 1.67739,-0.6709 3.69026,-0.6709 2.05015,0 3.72754,0.6709 1.67739,0.6337 2.87021,1.7892 1.23009,1.1183 1.86377,2.6466 0.67095,1.5283 0.67095,3.243 0,1.7519 -0.67095,3.2802 -0.63368,1.491 -1.86377,2.6465 -1.19282,1.1183 -2.87021,1.7893 -1.67739,0.6336 -3.72754,0.6336 z m 18.97318,18.3768 -19.86779,0 q -0.82006,0 -1.34191,-0.1491 -0.48458,-0.1118 -0.78279,-0.41 -0.26092,-0.2609 -0.37275,-0.7455 -0.0746,-0.4473 -0.0746,-1.1183 l 0,-5.0322 q 0,-0.7082 0.0746,-1.1555 0.11183,-0.4473 0.37275,-0.7082 0.29821,-0.2982 0.78279,-0.4101 0.48458,-0.1118 1.30464,-0.1118 l 14.2392,0 q 0.37275,0 0.37275,-0.41 l 0,-1.0437 q 0,-0.4473 -0.41003,-0.4473 l -16.06569,0 q -0.41003,0 -0.59641,-0.1491 -0.1491,-0.1491 -0.1491,-0.5964 l 0,-2.572 q 0,-0.7083 0.74551,-0.7083 l 18.86135,0 q 0.85733,0 1.37919,0.1491 0.52185,0.1119 0.82006,0.4101 0.2982,0.2609 0.37275,0.7082 0.11183,0.4473 0.11183,1.1183 l 0,4.9949 q 0,0.7455 -0.11183,1.23 -0.0746,0.4473 -0.37275,0.7083 -0.26093,0.2609 -0.78279,0.3355 -0.48458,0.1118 -1.34191,0.1118 l -14.0901,0 q -0.41003,0 -0.41003,0.3727 l 0,1.1928 q 0,0.4101 0.4473,0.4101 l 16.84848,0 q 0.41003,0 0.55914,0.1118 0.18637,0.1118 0.18637,0.5964 l 0,2.572 q 0,0.7455 -0.70823,0.7455 z m -18.97318,-30.864 q -0.96916,0 -1.75194,0.3355 -0.74551,0.3354 -1.30464,0.8946 -0.55913,0.5591 -0.85734,1.3046 -0.2982,0.7455 -0.2982,1.6029 0,1.7146 1.15554,2.9074 1.15554,1.1929 3.05658,1.1929 1.9756,0 3.13113,-1.1929 1.19282,-1.1928 1.19282,-2.9074 0,-1.7147 -1.19282,-2.9075 -1.15553,-1.2301 -3.13113,-1.2301 z"
           style="font-style:normal;font-variant:normal;font-weight:bold;font-stretch:normal;font-size:37.27540207px;font-family:NanumGothic;-inkscape-font-specification:'NanumGothic Bold';fill:#e85c41;fill-opacity:1"
           id="path4730" />
      </g>
    </g>
  </g>
</svg>
