<?xml version="1.0" encoding="UTF-8" standalone="no"?>
<svg
   xmlns:dc="http://purl.org/dc/elements/1.1/"
   xmlns:cc="http://creativecommons.org/ns#"
   xmlns:rdf="http://www.w3.org/1999/02/22-rdf-syntax-ns#"
   xmlns:svg="http://www.w3.org/2000/svg"
   xmlns="http://www.w3.org/2000/svg"
   width="120"
   height="120"
   viewBox="0 0 120 120"
   id="svg8237"
   version="1.1">
  <defs
     id="defs8239" />
  <metadata
     id="metadata8242">
    <rdf:RDF>
      <cc:Work
         rdf:about="">
        <dc:format>image/svg+xml</dc:format>
        <dc:type
           rdf:resource="http://purl.org/dc/dcmitype/StillImage" />
        <dc:title></dc:title>
      </cc:Work>
    </rdf:RDF>
  </metadata>
  <g
     id="g4157">
    <rect
       style="color:#000000;clip-rule:nonzero;display:inline;overflow:visible;visibility:visible;opacity:1;isolation:auto;mix-blend-mode:normal;color-interpolation:sRGB;color-interpolation-filters:linearRGB;solid-color:#000000;solid-opacity:1;fill:#e85c41;fill-opacity:0;fill-rule:nonzero;stroke:none;stroke-width:0;stroke-linecap:butt;stroke-linejoin:miter;stroke-miterlimit:4;stroke-dasharray:none;stroke-dashoffset:0;stroke-opacity:1;color-rendering:auto;image-rendering:auto;shape-rendering:auto;text-rendering:auto;enable-background:accumulate"
       id="rect9899-1"
       width="120"
       height="120"
       x="0"
       y="-3.5144043e-07"
       ry="5.9030401e-05" />
    <circle
       style="color:#000000;clip-rule:nonzero;display:inline;overflow:visible;visibility:visible;opacity:1;isolation:auto;mix-blend-mode:normal;color-interpolation:sRGB;color-interpolation-filters:linearRGB;solid-color:#000000;solid-opacity:1;fill:#c9c9c9;fill-opacity:1;fill-rule:nonzero;stroke:none;stroke-width:0;stroke-linecap:butt;stroke-linejoin:miter;stroke-miterlimit:4;stroke-dasharray:none;stroke-dashoffset:0;stroke-opacity:1;color-rendering:auto;image-rendering:auto;shape-rendering:auto;text-rendering:auto;enable-background:accumulate"
       id="path4162-1-7-8-6-5-7"
       cx="60"
       cy="60"
       r="50" />
    <g
       style="font-style:normal;font-weight:normal;font-size:28.85059738px;line-height:125%;font-family:sans-serif;letter-spacing:0px;word-spacing:0px;fill:#e85c41;fill-opacity:1;stroke:none;stroke-width:1px;stroke-linecap:butt;stroke-linejoin:miter;stroke-opacity:1"
       id="text4462-4-0-7-3-2-7">
      <path
         d="m 80.489993,60.599996 -6.06,0 q -1.14,0 -1.14,-1.2 l 0,-27.18 q 0,-0.66 0.24,-0.9 0.24,-0.24 0.9,-0.24 l 6.06,0 q 0.66,0 0.84,0.24 0.24,0.24 0.24,0.9 l 0,27.24 q 0,1.14 -1.08,1.14 z m -29.04,-1.26 q -3.24,0 -5.94,-1.02 -2.64,-1.08 -4.62,-2.88 -1.92,-1.86 -3,-4.26 -1.02,-2.46 -1.02,-5.28 0,-2.76 1.02,-5.22 1.08,-2.46 3,-4.26 1.98,-1.86 4.62,-2.88 2.7,-1.08 5.94,-1.08 3.3,0 6,1.08 2.7,1.02 4.62,2.88 1.98,1.8 3,4.26 1.08,2.46 1.08,5.22 0,2.82 -1.08,5.28 -1.02,2.4 -3,4.26 -1.92,1.8 -4.62,2.88 -2.7,1.02 -6,1.02 z m 30.54,29.58 -31.98,0 q -1.32,0 -2.16,-0.24 -0.78,-0.18 -1.26,-0.66 -0.42,-0.42 -0.6,-1.2 -0.12,-0.72 -0.12,-1.8 l 0,-8.1 q 0,-1.14 0.12,-1.86 0.18,-0.72 0.6,-1.14 0.48,-0.48 1.26,-0.66 0.78,-0.18 2.1,-0.18 l 22.92,0 q 0.6,0 0.6,-0.66 l 0,-1.68 q 0,-0.72 -0.66,-0.72 l -25.86,0 q -0.66,0 -0.96,-0.24 -0.24,-0.24 -0.24,-0.96 l 0,-4.14 q 0,-1.14 1.2,-1.14 l 30.36,0 q 1.38,0 2.22,0.24 0.84,0.18 1.32,0.66 0.48,0.42 0.6,1.14 0.18,0.72 0.18,1.8 l 0,8.04 q 0,1.2 -0.18,1.98 -0.12,0.72 -0.6,1.14 -0.42,0.42 -1.26,0.54 -0.78,0.18 -2.16,0.18 l -22.68,0 q -0.66,0 -0.66,0.6 l 0,1.92 q 0,0.66 0.72,0.66 l 27.12,0 q 0.66,0 0.9,0.18 0.3,0.18 0.3,0.96 l 0,4.14 q 0,1.2 -1.14,1.2 z m -30.54,-49.68 q -1.56,0 -2.82,0.54 -1.2,0.54 -2.1,1.44 -0.9,0.9 -1.38,2.1 -0.48,1.2 -0.48,2.58 0,2.76 1.86,4.68 1.86,1.92 4.92,1.92 3.18,0 5.04,-1.92 1.92,-1.92 1.92,-4.68 0,-2.76 -1.92,-4.68 -1.86,-1.98 -5.04,-1.98 z"
         style="font-style:normal;font-variant:normal;font-weight:bold;font-stretch:normal;font-size:60px;font-family:NanumGothic;-inkscape-font-specification:'NanumGothic Bold';fill:#e85c41;fill-opacity:1"
         id="path4155" />
    </g>
  </g>
</svg>
