<?xml version="1.0" encoding="UTF-8" standalone="no"?>
<svg
   xmlns:dc="http://purl.org/dc/elements/1.1/"
   xmlns:cc="http://creativecommons.org/ns#"
   xmlns:rdf="http://www.w3.org/1999/02/22-rdf-syntax-ns#"
   xmlns:svg="http://www.w3.org/2000/svg"
   xmlns="http://www.w3.org/2000/svg"
   width="120"
   height="120"
   viewBox="0 0 120 120"
   id="svg5683"
   version="1.1">
  <defs
     id="defs5685" />
  <metadata
     id="metadata5688">
    <rdf:RDF>
      <cc:Work
         rdf:about="">
        <dc:format>image/svg+xml</dc:format>
        <dc:type
           rdf:resource="http://purl.org/dc/dcmitype/StillImage" />
        <dc:title></dc:title>
      </cc:Work>
    </rdf:RDF>
  </metadata>
  <g
     id="g4158">
    <rect
       ry="5.9030401e-05"
       y="1.8530311e-07"
       x="0"
       height="120"
       width="120"
       id="rect9899-1-2"
       style="color:#000000;clip-rule:nonzero;display:inline;overflow:visible;visibility:visible;opacity:1;isolation:auto;mix-blend-mode:normal;color-interpolation:sRGB;color-interpolation-filters:linearRGB;solid-color:#000000;solid-opacity:1;fill:#e85c41;fill-opacity:0;fill-rule:nonzero;stroke:none;stroke-width:0;stroke-linecap:butt;stroke-linejoin:miter;stroke-miterlimit:4;stroke-dasharray:none;stroke-dashoffset:0;stroke-opacity:1;color-rendering:auto;image-rendering:auto;shape-rendering:auto;text-rendering:auto;enable-background:accumulate" />
    <circle
       style="color:#000000;clip-rule:nonzero;display:inline;overflow:visible;visibility:visible;opacity:1;isolation:auto;mix-blend-mode:normal;color-interpolation:sRGB;color-interpolation-filters:linearRGB;solid-color:#000000;solid-opacity:1;fill:#c9c9c9;fill-opacity:1;fill-rule:nonzero;stroke:none;stroke-width:0;stroke-linecap:butt;stroke-linejoin:miter;stroke-miterlimit:4;stroke-dasharray:none;stroke-dashoffset:0;stroke-opacity:1;color-rendering:auto;image-rendering:auto;shape-rendering:auto;text-rendering:auto;enable-background:accumulate"
       id="path4162-1-7-8-6-5-7-1"
       cx="60"
       cy="60"
       r="50" />
    <g
       style="font-style:normal;font-weight:normal;font-size:28.85059738px;line-height:125%;font-family:sans-serif;letter-spacing:0px;word-spacing:0px;fill:#e85c41;fill-opacity:1;stroke:none;stroke-width:1px;stroke-linecap:butt;stroke-linejoin:miter;stroke-opacity:1"
       id="text4462-4-0-7-3-2-7-3">
      <path
         d="m 85.709999,64.349997 -51.48,0 q -0.84,0 -1.02,-0.24 -0.18,-0.3 -0.18,-1.02 l 0,-4.32 q 0,-0.66 0.24,-0.9 0.24,-0.3 0.96,-0.3 l 21.6,0 0,-5.04 -10.14,0 q -1.38,0 -2.22,-0.12 -0.84,-0.18 -1.32,-0.6 -0.48,-0.48 -0.66,-1.32 -0.18,-0.84 -0.18,-2.16 l 0,-12.48 q 0,-1.26 0.18,-2.04 0.24,-0.78 0.72,-1.2 0.54,-0.42 1.32,-0.54 0.78,-0.18 1.86,-0.18 l 29.16,0 q 1.26,0 2.04,0.12 0.78,0.12 1.2,0.54 0.48,0.42 0.66,1.2 0.18,0.78 0.18,2.1 l 0,12.48 q 0,1.32 -0.18,2.16 -0.18,0.78 -0.66,1.26 -0.42,0.42 -1.2,0.6 -0.78,0.18 -2.04,0.18 l -10.38,0 0,5.04 21.54,0 q 0.54,0 0.9,0.24 0.36,0.24 0.36,0.96 l 0,4.32 q 0,1.26 -1.26,1.26 z m -8.1,23.76 -5.88,0 q -1.32,0 -1.32,-1.2 l 0,-11.16 q 0,-0.9 -0.84,-0.9 l -28.2,0 q -0.48,0 -0.84,-0.18 -0.36,-0.18 -0.36,-0.84 l 0,-4.68 q 0,-0.84 0.36,-0.96 0.36,-0.18 0.84,-0.18 l 33.18,0 q 1.32,0 2.1,0.24 0.84,0.18 1.26,0.72 0.48,0.54 0.66,1.44 0.18,0.84 0.18,2.1 l 0,14.4 q 0,1.2 -1.14,1.2 z m -7.26,-48.3 q 0,-0.78 -0.12,-0.96 -0.12,-0.24 -0.84,-0.24 l -18.66,0 q -0.78,0 -0.96,0.18 -0.18,0.18 -0.18,1.02 l 0,4.86 q 0,0.84 0.18,1.02 0.18,0.18 0.96,0.18 l 18.66,0 q 0.72,0 0.84,-0.18 0.12,-0.24 0.12,-1.02 l 0,-4.86 z"
         style="font-style:normal;font-variant:normal;font-weight:bold;font-stretch:normal;font-size:60px;font-family:NanumGothic;-inkscape-font-specification:'NanumGothic Bold';fill:#e85c41;fill-opacity:1"
         id="path4156" />
    </g>
  </g>
</svg>
