<?xml version="1.0" encoding="UTF-8" standalone="no"?>
<svg
   xmlns:dc="http://purl.org/dc/elements/1.1/"
   xmlns:cc="http://creativecommons.org/ns#"
   xmlns:rdf="http://www.w3.org/1999/02/22-rdf-syntax-ns#"
   xmlns:svg="http://www.w3.org/2000/svg"
   xmlns="http://www.w3.org/2000/svg"
   version="1.1"
   id="svg6955"
   viewBox="0 0 120 120.00001"
   height="120.00001"
   width="120">
  <defs
     id="defs6957" />
  <metadata
     id="metadata6960">
    <rdf:RDF>
      <cc:Work
         rdf:about="">
        <dc:format>image/svg+xml</dc:format>
        <dc:type
           rdf:resource="http://purl.org/dc/dcmitype/StillImage" />
        <dc:title></dc:title>
      </cc:Work>
    </rdf:RDF>
  </metadata>
  <rect
     style="color:#000000;clip-rule:nonzero;display:inline;overflow:visible;visibility:visible;opacity:1;isolation:auto;mix-blend-mode:normal;color-interpolation:sRGB;color-interpolation-filters:linearRGB;solid-color:#000000;solid-opacity:1;fill:#e85c41;fill-opacity:0;fill-rule:nonzero;stroke:none;stroke-width:0;stroke-linecap:butt;stroke-linejoin:miter;stroke-miterlimit:4;stroke-dasharray:none;stroke-dashoffset:0;stroke-opacity:1;color-rendering:auto;image-rendering:auto;shape-rendering:auto;text-rendering:auto;enable-background:accumulate"
     id="rect9899-1-3-4"
     width="120"
     height="120"
     x="4.020996e-07"
     y="4.2675783e-06"
     ry="5.9030401e-05" />
  <circle
     style="color:#000000;clip-rule:nonzero;display:inline;overflow:visible;visibility:visible;opacity:1;isolation:auto;mix-blend-mode:normal;color-interpolation:sRGB;color-interpolation-filters:linearRGB;solid-color:#000000;solid-opacity:1;fill:#c9c9c9;fill-opacity:1;fill-rule:nonzero;stroke:none;stroke-width:0;stroke-linecap:butt;stroke-linejoin:miter;stroke-miterlimit:4;stroke-dasharray:none;stroke-dashoffset:0;stroke-opacity:1;color-rendering:auto;image-rendering:auto;shape-rendering:auto;text-rendering:auto;enable-background:accumulate"
     id="path4162-1-7-8-6-5-7-7-9"
     cx="60"
     cy="60.000015"
     r="50" />
  <g
     style="font-style:normal;font-weight:normal;font-size:28.85059738px;line-height:125%;font-family:sans-serif;letter-spacing:0px;word-spacing:0px;fill:#e85c41;fill-opacity:1;stroke:none;stroke-width:1px;stroke-linecap:butt;stroke-linejoin:miter;stroke-opacity:1"
     id="text4462-4-0-7-3-2-7-7-07">
    <path
       d="m 68.849993,77.820012 q -8.28,1.44 -17.1,1.68 -8.76,0.3 -17.34,0.12 -0.72,0 -0.96,-0.3 -0.18,-0.3 -0.18,-0.96 l 0,-4.32 q 0,-0.66 0.24,-0.96 0.24,-0.3 0.9,-0.24 3.24,0.06 6.48,0.12 3.3,0 6.54,-0.06 l 0,-5.1 q -2.1,-0.42 -3.9,-1.26 -1.74,-0.9 -3.06,-2.1 -1.26,-1.2 -2.04,-2.76 -0.72,-1.56 -0.72,-3.42 0,-2.22 1.08,-4.02 1.14,-1.86 3,-3.18 1.92,-1.32 4.44,-1.98 2.52,-0.72 5.28,-0.72 2.76,0 5.22,0.72 2.52,0.66 4.38,1.98 1.92,1.32 3,3.18 1.08,1.8 1.08,4.02 0,1.86 -0.72,3.42 -0.72,1.5 -2.04,2.76 -1.26,1.2 -3.06,2.04 -1.74,0.84 -3.78,1.26 l 0,4.92 q 3.06,-0.18 6.12,-0.48 3.12,-0.3 6.18,-0.78 0.84,-0.18 1.14,0 0.3,0.12 0.42,0.84 l 0.48,4.32 q 0.12,0.84 -0.18,1.02 -0.3,0.12 -0.9,0.24 z m 18.42,-16.68 -7.14,0 0,26.34 q 0,0.72 -0.24,0.9 -0.24,0.24 -0.9,0.24 l -6.06,0 q -0.66,0 -0.9,-0.24 -0.24,-0.18 -0.24,-0.9 l 0,-55.26 q 0,-0.66 0.24,-0.9 0.24,-0.24 0.9,-0.24 l 6.06,0 q 0.66,0 0.9,0.24 0.24,0.24 0.24,0.9 l 0,22.08 7.14,0 q 0.48,0 0.78,0.24 0.36,0.18 0.36,0.9 l 0,4.56 q 0,0.72 -0.3,0.96 -0.3,0.18 -0.84,0.18 z m -20.94,-14.7 -30.54,0 q -1.32,0 -1.32,-1.26 l 0,-3.78 q 0,-1.26 1.32,-1.26 l 30.54,0 q 1.32,0 1.32,1.26 l 0,3.84 q 0,1.2 -1.32,1.2 z m -6.9,-8.52 -15.84,0 q -0.54,0 -0.9,-0.18 -0.36,-0.24 -0.36,-1.08 l 0,-3.9 q 0,-0.78 0.36,-1.02 0.36,-0.24 0.9,-0.24 l 15.84,0 q 1.26,0 1.26,1.32 l 0,3.78 q 0,1.32 -1.26,1.32 z m -7.92,16.68 q -2.7,0 -4.26,1.14 -1.56,1.14 -1.56,2.52 0,1.38 1.5,2.52 1.56,1.14 4.32,1.14 2.76,0 4.26,-1.14 1.56,-1.14 1.56,-2.52 0,-1.38 -1.56,-2.52 -1.5,-1.14 -4.26,-1.14 z"
       style="font-style:normal;font-variant:normal;font-weight:bold;font-stretch:normal;font-size:60px;font-family:NanumGothic;-inkscape-font-specification:'NanumGothic Bold';fill:#e85c41;fill-opacity:1"
       id="path4169" />
  </g>
</svg>
