<?xml version="1.0" encoding="UTF-8" standalone="no"?>
<svg
   xmlns:dc="http://purl.org/dc/elements/1.1/"
   xmlns:cc="http://creativecommons.org/ns#"
   xmlns:rdf="http://www.w3.org/1999/02/22-rdf-syntax-ns#"
   xmlns:svg="http://www.w3.org/2000/svg"
   xmlns="http://www.w3.org/2000/svg"
   version="1.1"
   id="svg4482"
   viewBox="0 0 120 120"
   height="120"
   width="120">
  <defs
     id="defs4484" />
  <metadata
     id="metadata4487">
    <rdf:RDF>
      <cc:Work
         rdf:about="">
        <dc:format>image/svg+xml</dc:format>
        <dc:type
           rdf:resource="http://purl.org/dc/dcmitype/StillImage" />
        <dc:title></dc:title>
      </cc:Work>
    </rdf:RDF>
  </metadata>
  <g
     transform="translate(-2.010498e-7,-932.36221)"
     id="layer1">
    <rect
       ry="5.9030401e-05"
       y="932.36218"
       x="2.010498e-07"
       height="120"
       width="120"
       id="rect9899-1-3-4"
       style="color:#000000;clip-rule:nonzero;display:inline;overflow:visible;visibility:visible;opacity:1;isolation:auto;mix-blend-mode:normal;color-interpolation:sRGB;color-interpolation-filters:linearRGB;solid-color:#000000;solid-opacity:1;fill:#e85c41;fill-opacity:0;fill-rule:nonzero;stroke:none;stroke-width:0;stroke-linecap:butt;stroke-linejoin:miter;stroke-miterlimit:4;stroke-dasharray:none;stroke-dashoffset:0;stroke-opacity:1;color-rendering:auto;image-rendering:auto;shape-rendering:auto;text-rendering:auto;enable-background:accumulate" />
    <circle
       r="50"
       cy="992.36218"
       cx="60"
       id="path4162-1-7-8-6-5-7-7-9"
       style="color:#000000;clip-rule:nonzero;display:inline;overflow:visible;visibility:visible;opacity:1;isolation:auto;mix-blend-mode:normal;color-interpolation:sRGB;color-interpolation-filters:linearRGB;solid-color:#000000;solid-opacity:1;fill:#c9c9c9;fill-opacity:1;fill-rule:nonzero;stroke:none;stroke-width:0;stroke-linecap:butt;stroke-linejoin:miter;stroke-miterlimit:4;stroke-dasharray:none;stroke-dashoffset:0;stroke-opacity:1;color-rendering:auto;image-rendering:auto;shape-rendering:auto;text-rendering:auto;enable-background:accumulate" />
    <rect
       style="color:#000000;clip-rule:nonzero;display:inline;overflow:visible;visibility:visible;opacity:1;isolation:auto;mix-blend-mode:normal;color-interpolation:sRGB;color-interpolation-filters:linearRGB;solid-color:#000000;solid-opacity:1;fill:#e85c41;fill-opacity:0;fill-rule:nonzero;stroke:none;stroke-width:0;stroke-linecap:butt;stroke-linejoin:miter;stroke-miterlimit:4;stroke-dasharray:none;stroke-dashoffset:0;stroke-opacity:1;color-rendering:auto;image-rendering:auto;shape-rendering:auto;text-rendering:auto;enable-background:accumulate"
       id="rect9899-1-3-2"
       width="120"
       height="120"
       x="2.010498e-07"
       y="932.36218"
       ry="5.9030401e-05" />
    <circle
       style="color:#000000;clip-rule:nonzero;display:inline;overflow:visible;visibility:visible;opacity:1;isolation:auto;mix-blend-mode:normal;color-interpolation:sRGB;color-interpolation-filters:linearRGB;solid-color:#000000;solid-opacity:1;fill:#c9c9c9;fill-opacity:1;fill-rule:nonzero;stroke:none;stroke-width:0;stroke-linecap:butt;stroke-linejoin:miter;stroke-miterlimit:4;stroke-dasharray:none;stroke-dashoffset:0;stroke-opacity:1;color-rendering:auto;image-rendering:auto;shape-rendering:auto;text-rendering:auto;enable-background:accumulate"
       id="path4162-1-7-8-6-5-7-7-2"
       cx="60"
       cy="992.36218"
       r="50" />
    <g
       id="text4462-4-0-7-3-2-7-7-07-3"
       style="font-style:normal;font-weight:normal;font-size:17.92362785px;line-height:125%;font-family:sans-serif;letter-spacing:0px;word-spacing:0px;fill:#e85c41;fill-opacity:1;stroke:none;stroke-width:1px;stroke-linecap:butt;stroke-linejoin:miter;stroke-opacity:1">
      <path
         id="path5127"
         style="font-style:normal;font-variant:normal;font-weight:bold;font-stretch:normal;font-size:37.27540207px;font-family:NanumGothic;-inkscape-font-specification:'NanumGothic Bold';fill:#e85c41;fill-opacity:1"
         d="m 42.104313,1002.9484 q -5.144006,0.8946 -10.62349,1.0437 -5.442209,0.1864 -10.772591,0.075 -0.447305,0 -0.596406,-0.1864 -0.111827,-0.1864 -0.111827,-0.5964 l 0,-2.6838 q 0,-0.4101 0.149102,-0.5964 0.149102,-0.18642 0.559131,-0.14915 2.012872,0.0373 4.025743,0.0745 2.050147,0 4.063019,-0.0373 l 0,-3.16841 q -1.304639,-0.26093 -2.422901,-0.78279 -1.080987,-0.55913 -1.901045,-1.30463 -0.782784,-0.74551 -1.267364,-1.71467 -0.447305,-0.96916 -0.447305,-2.1247 0,-1.37919 0.670957,-2.49745 0.708233,-1.15554 1.86377,-1.9756 1.192813,-0.82006 2.75838,-1.23009 1.565567,-0.4473 3.280236,-0.4473 1.714668,0 3.24296,0.4473 1.565566,0.41003 2.721104,1.23009 1.192813,0.82006 1.86377,1.9756 0.670957,1.11826 0.670957,2.49745 0,1.15554 -0.447305,2.1247 -0.447304,0.93188 -1.267363,1.71467 -0.782784,0.7455 -1.901046,1.26736 -1.080986,0.52186 -2.34835,0.78278 l 0,3.05659 q 1.901045,-0.11183 3.802091,-0.29821 1.938321,-0.18637 3.839366,-0.48458 0.521856,-0.11182 0.708233,0 0.186377,0.0746 0.260928,0.52186 l 0.298203,2.6838 q 0.07455,0.5219 -0.111826,0.6337 -0.186377,0.075 -0.559131,0.1491 z m 11.443548,-10.36255 -4.435773,0 0,16.36395 q 0,0.4473 -0.149101,0.5591 -0.149102,0.1491 -0.559131,0.1491 l -3.764816,0 q -0.410029,0 -0.559131,-0.1491 -0.149102,-0.1118 -0.149102,-0.5591 l 0,-34.3307 q 0,-0.41002 0.149102,-0.55913 0.149102,-0.1491 0.559131,-0.1491 l 3.764816,0 q 0.410029,0 0.559131,0.1491 0.149101,0.14911 0.149101,0.55913 l 0,13.71735 4.435773,0 q 0.298203,0 0.48458,0.1491 0.223653,0.11183 0.223653,0.55914 l 0,2.83293 q 0,0.4473 -0.186377,0.5964 -0.186377,0.11183 -0.521856,0.11183 z m -13.009115,-9.13247 -18.97318,0 q -0.820059,0 -0.820059,-0.78279 l 0,-2.34835 q 0,-0.78278 0.820059,-0.78278 l 18.97318,0 q 0.820059,0 0.820059,0.78278 l 0,2.38563 q 0,0.74551 -0.820059,0.74551 z m -4.286671,-5.29311 -9.840707,0 q -0.335478,0 -0.559131,-0.11183 -0.223652,-0.1491 -0.223652,-0.67096 l 0,-2.4229 q 0,-0.48458 0.223652,-0.63368 0.223653,-0.1491 0.559131,-0.1491 l 9.840707,0 q 0.782783,0 0.782783,0.82006 l 0,2.34835 q 0,0.82006 -0.782783,0.82006 z m -4.920353,10.36256 q -1.677394,0 -2.646554,0.70823 -0.96916,0.70824 -0.96916,1.56557 0,0.85733 0.931885,1.56557 0.96916,0.70823 2.683829,0.70823 1.714668,0 2.646553,-0.70823 0.969161,-0.70824 0.969161,-1.56557 0,-0.85733 -0.969161,-1.56557 -0.931885,-0.70823 -2.646553,-0.70823 z" />
      <path
         id="path5129"
         style="font-style:normal;font-variant:normal;font-weight:bold;font-stretch:normal;font-size:37.27540207px;font-family:NanumGothic;-inkscape-font-specification:'NanumGothic Bold';fill:#e85c41;fill-opacity:1"
         d="m 61.243485,1010.2544 q -0.111826,0.2982 -0.372754,0.41 -0.260928,0.1491 -0.521856,0.1491 l -3.652989,0 q -0.223652,0 -0.410029,-0.1491 -0.186377,-0.1491 -0.111827,-0.4473 l 1.714669,-6.8587 q 0.07455,-0.1863 0.260928,-0.41 0.186377,-0.2609 0.596406,-0.2609 l 4.584875,0 q 0.447304,0 0.521855,0.2982 0.07455,0.2609 0,0.4846 l -2.609278,6.7841 z" />
      <path
         id="path5131"
         style="font-style:normal;font-variant:normal;font-weight:bold;font-stretch:normal;font-size:37.27540207px;font-family:NanumGothic;-inkscape-font-specification:'NanumGothic Bold';fill:#e85c41;fill-opacity:1"
         d="m 99.217219,994.82237 -31.982295,0 q -0.521856,0 -0.633682,-0.1491 -0.111826,-0.18638 -0.111826,-0.63368 l 0,-2.68383 q 0,-0.41003 0.149101,-0.55913 0.149102,-0.18638 0.596407,-0.18638 l 13.419145,0 0,-3.13113 -6.299543,0 q -0.857335,0 -1.37919,-0.0745 -0.521856,-0.11183 -0.820059,-0.37276 -0.298203,-0.2982 -0.410029,-0.82006 -0.111827,-0.52185 -0.111827,-1.34191 l 0,-7.75328 q 0,-0.78279 0.111827,-1.26737 0.149101,-0.48458 0.447304,-0.7455 0.335479,-0.26093 0.820059,-0.33548 0.48458,-0.11183 1.155538,-0.11183 l 18.115845,0 q 0.782784,0 1.267364,0.0745 0.48458,0.0746 0.745508,0.33548 0.298203,0.26093 0.410029,0.74551 0.111826,0.48458 0.111826,1.30464 l 0,7.75328 q 0,0.82006 -0.111826,1.34191 -0.111826,0.48459 -0.410029,0.78279 -0.260928,0.26093 -0.745508,0.37275 -0.48458,0.11183 -1.267364,0.11183 l -6.448644,0 0,3.13113 13.381869,0 q 0.335479,0 0.559131,0.1491 Q 100,990.90846 100,991.35576 l 0,2.68383 q 0,0.78278 -0.782781,0.78278 z m -5.032179,14.76103 -3.65299,0 q -0.820059,0 -0.820059,-0.7455 l 0,-6.9332 q 0,-0.5591 -0.521855,-0.5591 l -17.519439,0 q -0.298203,0 -0.521856,-0.1119 -0.223652,-0.1118 -0.223652,-0.5218 l 0,-2.9075 q 0,-0.52185 0.223652,-0.5964 0.223653,-0.11183 0.521856,-0.11183 l 20.613297,0 q 0.820059,0 1.304639,0.1491 0.521856,0.11183 0.782784,0.44731 0.298203,0.33548 0.410029,0.89461 0.111826,0.52185 0.111826,1.30464 l 0,8.94607 q 0,0.7455 -0.708232,0.7455 z m -4.510324,-30.00667 q 0,-0.48458 -0.07455,-0.5964 -0.07455,-0.1491 -0.521855,-0.1491 l -11.592651,0 q -0.48458,0 -0.596406,0.11182 -0.111826,0.11183 -0.111826,0.63368 l 0,3.01931 q 0,0.52186 0.111826,0.63368 0.111826,0.11183 0.596406,0.11183 l 11.592651,0 q 0.447304,0 0.521855,-0.11183 0.07455,-0.1491 0.07455,-0.63368 l 0,-3.01931 z" />
    </g>
  </g>
</svg>
