<?xml version="1.0" encoding="UTF-8" standalone="no"?>
<svg
   xmlns:dc="http://purl.org/dc/elements/1.1/"
   xmlns:cc="http://creativecommons.org/ns#"
   xmlns:rdf="http://www.w3.org/1999/02/22-rdf-syntax-ns#"
   xmlns:svg="http://www.w3.org/2000/svg"
   xmlns="http://www.w3.org/2000/svg"
   version="1.1"
   id="svg6315"
   viewBox="0 0 120 120"
   height="120"
   width="120">
  <defs
     id="defs6317" />
  <metadata
     id="metadata6320">
    <rdf:RDF>
      <cc:Work
         rdf:about="">
        <dc:format>image/svg+xml</dc:format>
        <dc:type
           rdf:resource="http://purl.org/dc/dcmitype/StillImage" />
        <dc:title></dc:title>
      </cc:Work>
    </rdf:RDF>
  </metadata>
  <g
     id="g4174">
    <rect
       style="color:#000000;clip-rule:nonzero;display:inline;overflow:visible;visibility:visible;opacity:1;isolation:auto;mix-blend-mode:normal;color-interpolation:sRGB;color-interpolation-filters:linearRGB;solid-color:#000000;solid-opacity:1;fill:#e85c41;fill-opacity:0;fill-rule:nonzero;stroke:none;stroke-width:0;stroke-linecap:butt;stroke-linejoin:miter;stroke-miterlimit:4;stroke-dasharray:none;stroke-dashoffset:0;stroke-opacity:1;color-rendering:auto;image-rendering:auto;shape-rendering:auto;text-rendering:auto;enable-background:accumulate"
       id="rect9899-1-3-4-1"
       width="120"
       height="120"
       x="0"
       y="3.8146973e-06"
       ry="5.9030401e-05" />
    <circle
       style="color:#000000;clip-rule:nonzero;display:inline;overflow:visible;visibility:visible;opacity:1;isolation:auto;mix-blend-mode:normal;color-interpolation:sRGB;color-interpolation-filters:linearRGB;solid-color:#000000;solid-opacity:1;fill:#c9c9c9;fill-opacity:1;fill-rule:nonzero;stroke:none;stroke-width:0;stroke-linecap:butt;stroke-linejoin:miter;stroke-miterlimit:4;stroke-dasharray:none;stroke-dashoffset:0;stroke-opacity:1;color-rendering:auto;image-rendering:auto;shape-rendering:auto;text-rendering:auto;enable-background:accumulate"
       id="path4162-1-7-8-6-5-7-7-2-9"
       cx="60"
       cy="60.000004"
       r="50" />
    <g
       style="font-style:normal;font-weight:normal;font-size:28.85059738px;line-height:125%;font-family:sans-serif;letter-spacing:0px;word-spacing:0px;fill:#e85c41;fill-opacity:1;stroke:none;stroke-width:1px;stroke-linecap:butt;stroke-linejoin:miter;stroke-opacity:1"
       id="text4462-4-0-7-3-2-7-7-07-3">
      <path
         d="m 85.740001,68.227502 -21.6,0 0,19.2 q 0,1.2 -1.2,1.2 l -5.94,0 q -1.2,0 -1.2,-1.2 l 0,-19.2 -21.6,0 q -0.78,0 -1.02,-0.36 -0.18,-0.36 -0.18,-1.02 l 0,-4.14 q 0,-0.66 0.18,-0.96 0.24,-0.36 1.02,-0.36 l 51.54,0 q 1.26,0 1.26,1.32 l 0,4.14 q 0,1.38 -1.26,1.38 z m -44.82,-10.5 q -0.84,0.24 -1.14,0.06 -0.18,-0.12 -0.36,-0.36 -0.12,-0.3 -0.24,-0.48 l -2.22,-4.38 q -0.48,-1.02 0.78,-1.44 8.7,-2.88 13.08,-7.62 4.44,-4.74 5.16,-10.98 0.12,-0.84 0.3,-1.02 0.24,-0.18 1.08,-0.12 l 5.46,0.24 q 1.38,0.06 1.32,1.26 -0.06,0.78 -0.12,1.5 -0.06,0.72 -0.18,1.44 1.02,2.28 2.88,4.44 1.92,2.1 4.38,3.96 2.46,1.8 5.34,3.24 2.94,1.38 6,2.28 0.84,0.24 0.84,0.66 0.06,0.42 -0.24,1.14 l -1.98,4.2 q -0.12,0.12 -0.24,0.36 -0.06,0.24 -0.18,0.36 -0.12,0.06 -0.36,0.12 -0.18,0 -0.6,-0.12 -2.52,-0.48 -5.28,-1.62 -2.7,-1.14 -5.28,-2.76 -2.58,-1.62 -4.86,-3.6 -2.22,-1.98 -3.84,-4.14 -3.12,4.8 -8.22,8.16 -5.1,3.36 -11.28,5.22 z"
         style="font-style:normal;font-variant:normal;font-weight:bold;font-stretch:normal;font-size:60px;font-family:NanumGothic;-inkscape-font-specification:'NanumGothic Bold';fill:#e85c41;fill-opacity:1"
         id="path4172" />
    </g>
  </g>
</svg>
