<?xml version="1.0" encoding="UTF-8" standalone="no"?>
<svg
   xmlns:dc="http://purl.org/dc/elements/1.1/"
   xmlns:cc="http://creativecommons.org/ns#"
   xmlns:rdf="http://www.w3.org/1999/02/22-rdf-syntax-ns#"
   xmlns:svg="http://www.w3.org/2000/svg"
   xmlns="http://www.w3.org/2000/svg"
   width="120"
   height="120"
   viewBox="0 0 120 120"
   id="svg4936"
   version="1.1">
  <defs
     id="defs4938" />
  <metadata
     id="metadata4941">
    <rdf:RDF>
      <cc:Work
         rdf:about="">
        <dc:format>image/svg+xml</dc:format>
        <dc:type
           rdf:resource="http://purl.org/dc/dcmitype/StillImage" />
        <dc:title></dc:title>
      </cc:Work>
    </rdf:RDF>
  </metadata>
  <g
     id="g4156">
    <circle
       style="color:#000000;clip-rule:nonzero;display:inline;overflow:visible;visibility:visible;opacity:1;isolation:auto;mix-blend-mode:normal;color-interpolation:sRGB;color-interpolation-filters:linearRGB;solid-color:#000000;solid-opacity:1;fill:#e85c41;fill-opacity:1;fill-rule:nonzero;stroke:none;stroke-width:0;stroke-linecap:butt;stroke-linejoin:miter;stroke-miterlimit:4;stroke-dasharray:none;stroke-dashoffset:0;stroke-opacity:1;color-rendering:auto;image-rendering:auto;shape-rendering:auto;text-rendering:auto;enable-background:accumulate"
       id="path4162-1-7-8-6-5-1-5-6-3-4-0"
       cx="60.000031"
       cy="60.000004"
       r="50" />
    <rect
       ry="5.9030401e-05"
       y="3.1347656e-06"
       x="0"
       height="120"
       width="120"
       id="rect9899-1-2-6-8-0-9-9-3-4-8"
       style="color:#000000;clip-rule:nonzero;display:inline;overflow:visible;visibility:visible;opacity:1;isolation:auto;mix-blend-mode:normal;color-interpolation:sRGB;color-interpolation-filters:linearRGB;solid-color:#000000;solid-opacity:1;fill:#e85c41;fill-opacity:0;fill-rule:nonzero;stroke:none;stroke-width:0;stroke-linecap:butt;stroke-linejoin:miter;stroke-miterlimit:4;stroke-dasharray:none;stroke-dashoffset:0;stroke-opacity:1;color-rendering:auto;image-rendering:auto;shape-rendering:auto;text-rendering:auto;enable-background:accumulate" />
    <circle
       style="color:#000000;clip-rule:nonzero;display:inline;overflow:visible;visibility:visible;opacity:1;isolation:auto;mix-blend-mode:normal;color-interpolation:sRGB;color-interpolation-filters:linearRGB;solid-color:#000000;solid-opacity:1;fill:#ffffff;fill-opacity:1;fill-rule:nonzero;stroke:none;stroke-width:0;stroke-linecap:butt;stroke-linejoin:miter;stroke-miterlimit:4;stroke-dasharray:none;stroke-dashoffset:0;stroke-opacity:1;color-rendering:auto;image-rendering:auto;shape-rendering:auto;text-rendering:auto;enable-background:accumulate"
       id="path4162-1-7-8-6-5-1-9-4-0-7-5-5"
       cx="60.000031"
       cy="60.000004"
       r="40" />
    <g
       style="font-style:normal;font-weight:normal;font-size:28.85059738px;line-height:125%;font-family:sans-serif;letter-spacing:0px;word-spacing:0px;display:inline;fill:#e85c41;fill-opacity:1;stroke:none;stroke-width:1px;stroke-linecap:butt;stroke-linejoin:miter;stroke-opacity:1"
       id="text4462-4-0-7-3-2-5-4-9-4-2-2">
      <path
         d="m 59.192482,71.357483 -30.065,0 q -0.455,0 -0.595,-0.21 -0.105,-0.21 -0.105,-0.525 l 0,-2.52 q 0,-0.385 0.105,-0.56 0.14,-0.175 0.595,-0.175 l 12.6,0 0,-5.25 q -2.17,-0.28 -3.92,-1.015 -1.75,-0.77 -2.975,-1.89 -1.225,-1.155 -1.925,-2.625 -0.665,-1.47 -0.665,-3.185 0,-1.925 0.84,-3.535 0.875,-1.645 2.45,-2.8 1.575,-1.19 3.78,-1.82 2.205,-0.665 4.865,-0.665 2.695,0 4.865,0.665 2.205,0.63 3.745,1.82 1.575,1.155 2.415,2.8 0.875,1.61 0.875,3.535 0,1.75 -0.665,3.22 -0.665,1.47 -1.925,2.59 -1.225,1.12 -2.975,1.89 -1.75,0.735 -3.92,1.015 l 0,5.25 12.6,0 q 0.735,0 0.735,0.735 l 0,2.52 q 0,0.735 -0.735,0.735 z m -15.015,-22.715 q -1.645,0 -2.975,0.385 -1.295,0.385 -2.24,1.05 -0.91,0.63 -1.435,1.505 -0.49,0.84 -0.49,1.82 0,1.015 0.49,1.89 0.525,0.875 1.435,1.54 0.945,0.63 2.24,1.015 1.33,0.385 2.975,0.385 1.61,0 2.905,-0.385 1.33,-0.385 2.24,-1.015 0.945,-0.665 1.435,-1.54 0.49,-0.875 0.49,-1.89 0,-0.98 -0.49,-1.82 -0.49,-0.875 -1.435,-1.505 -0.91,-0.665 -2.24,-1.05 -1.295,-0.385 -2.905,-0.385 z"
         style="font-style:normal;font-variant:normal;font-weight:bold;font-stretch:normal;font-size:35px;font-family:NanumGothic;-inkscape-font-specification:'NanumGothic Bold';fill:#000000;fill-opacity:1"
         id="path4152" />
      <path
         d="m 77.023341,62.782483 q -2.17,0 -3.99,-0.49 -1.785,-0.525 -3.08,-1.4 -1.295,-0.875 -2.03,-2.03 -0.7,-1.19 -0.7,-2.555 0,-1.995 1.505,-3.605 l -4.235,0 q -0.77,0 -0.77,-0.77 l 0,-2.345 q 0,-0.735 0.805,-0.735 l 25.06,0 q 0.77,0 0.77,0.735 l 0,2.38 q 0,0.735 -0.77,0.735 l -4.27,0 q 1.54,1.645 1.54,3.605 0,1.365 -0.735,2.555 -0.735,1.155 -2.03,2.03 -1.295,0.875 -3.115,1.4 -1.82,0.49 -3.955,0.49 z m 15.05,5.25 -12.6,0 0,8.295 q 0,0.7 -0.7,0.7 l -3.465,0 q -0.7,0 -0.7,-0.7 l 0,-8.295 -12.6,0 q -0.455,0 -0.595,-0.175 -0.105,-0.21 -0.105,-0.595 l 0,-2.38 q 0,-0.385 0.105,-0.56 0.14,-0.21 0.595,-0.21 l 30.065,0 q 0.735,0 0.735,0.77 l 0,2.38 q 0,0.77 -0.735,0.77 z m -15.05,-15.155 q -1.155,0 -2.1,0.28 -0.91,0.245 -1.575,0.7 -0.63,0.42 -0.98,0.98 -0.315,0.56 -0.315,1.155 0,1.225 1.295,2.17 1.295,0.945 3.675,0.945 1.155,0 2.065,-0.245 0.945,-0.28 1.575,-0.7 0.665,-0.455 1.015,-1.015 0.35,-0.56 0.35,-1.155 0,-0.595 -0.35,-1.155 -0.35,-0.56 -1.015,-0.98 -0.63,-0.455 -1.575,-0.7 -0.91,-0.28 -2.065,-0.28 z m 5.495,-5.53 -10.955,0 q -0.28,0 -0.525,-0.105 -0.21,-0.14 -0.21,-0.595 l 0,-2.52 q 0,-0.455 0.21,-0.56 0.245,-0.14 0.525,-0.14 l 10.955,0 q 0.77,0 0.77,0.735 l 0,2.45 q 0,0.385 -0.14,0.56 -0.14,0.175 -0.63,0.175 z"
         style="font-style:normal;font-variant:normal;font-weight:bold;font-stretch:normal;font-size:35px;font-family:NanumGothic;-inkscape-font-specification:'NanumGothic Bold';fill:#000000;fill-opacity:1"
         id="path4154" />
    </g>
  </g>
</svg>
