<?xml version="1.0" encoding="UTF-8" standalone="no"?>
<svg
   xmlns:dc="http://purl.org/dc/elements/1.1/"
   xmlns:cc="http://creativecommons.org/ns#"
   xmlns:rdf="http://www.w3.org/1999/02/22-rdf-syntax-ns#"
   xmlns:svg="http://www.w3.org/2000/svg"
   xmlns="http://www.w3.org/2000/svg"
   width="120"
   height="120"
   viewBox="0 0 120 120"
   id="svg4351"
   version="1.1">
  <defs
     id="defs4353" />
  <metadata
     id="metadata4356">
    <rdf:RDF>
      <cc:Work
         rdf:about="">
        <dc:format>image/svg+xml</dc:format>
        <dc:type
           rdf:resource="http://purl.org/dc/dcmitype/StillImage" />
        <dc:title></dc:title>
      </cc:Work>
    </rdf:RDF>
  </metadata>
  <g
     id="g4160">
    <circle
       style="color:#000000;clip-rule:nonzero;display:inline;overflow:visible;visibility:visible;opacity:1;isolation:auto;mix-blend-mode:normal;color-interpolation:sRGB;color-interpolation-filters:linearRGB;solid-color:#000000;solid-opacity:1;fill:#c9c9c9;fill-opacity:1;fill-rule:nonzero;stroke:none;stroke-width:0;stroke-linecap:butt;stroke-linejoin:miter;stroke-miterlimit:4;stroke-dasharray:none;stroke-dashoffset:0;stroke-opacity:1;color-rendering:auto;image-rendering:auto;shape-rendering:auto;text-rendering:auto;enable-background:accumulate"
       id="path4162-1-7-8-6-5"
       cx="60"
       cy="60.000004"
       r="50" />
    <g
       style="font-style:normal;font-weight:normal;font-size:28.85059738px;line-height:125%;font-family:sans-serif;letter-spacing:0px;word-spacing:0px;fill:#e85c41;fill-opacity:1;stroke:none;stroke-width:1px;stroke-linecap:butt;stroke-linejoin:miter;stroke-opacity:1"
       id="text4462-4-0-7-3-2">
      <path
         d="m 58.598793,51.062504 -23.6225,0 q -0.3575,0 -0.4675,-0.165 -0.0825,-0.165 -0.0825,-0.4125 l 0,-1.98 q 0,-0.3025 0.0825,-0.44 0.11,-0.1375 0.4675,-0.1375 l 9.9,0 0,-4.8125 -5.005,0 q -0.6325,0 -1.0175,-0.055 -0.385,-0.0825 -0.605,-0.275 -0.22,-0.22 -0.3025,-0.605 -0.0825,-0.385 -0.0825,-0.99 l 0,-8.6625 q 0,-0.605 0.0825,-0.9625 0.11,-0.3575 0.33,-0.55 0.2475,-0.1925 0.605,-0.2475 0.3575,-0.0825 0.8525,-0.0825 l 13.9425,0 q 0.5775,0 0.935,0.055 0.3575,0.055 0.55,0.2475 0.22,0.1925 0.3025,0.5775 0.0825,0.3575 0.0825,0.9625 l 0,8.6625 q 0,0.605 -0.0825,0.99 -0.0825,0.3575 -0.3025,0.5775 -0.1925,0.1925 -0.55,0.275 -0.3575,0.0825 -0.935,0.0825 l -4.9775,0 0,4.8125 9.9,0 q 0.5775,0 0.5775,0.5775 l 0,1.98 q 0,0.5775 -0.5775,0.5775 z m -6.82,-16.72 q 0,-0.3575 -0.0825,-0.44 -0.055,-0.11 -0.385,-0.11 l -9.13,0 q -0.3575,0 -0.4675,0.0825 -0.0825,0.0825 -0.0825,0.4675 l 0,5.115 q 0,0.385 0.0825,0.4675 0.11,0.0825 0.4675,0.0825 l 9.13,0 q 0.33,0 0.385,-0.11 0.0825,-0.11 0.0825,-0.44 l 0,-5.115 z"
         style="font-style:normal;font-variant:normal;font-weight:bold;font-stretch:normal;font-size:27.5px;font-family:NanumGothic;-inkscape-font-specification:'NanumGothic Bold';fill:#e85c41;fill-opacity:1"
         id="path4152" />
      <path
         d="m 80.831254,39.842504 -14.5475,0 q -1.21,0 -1.7325,-0.55 -0.495,-0.55 -0.495,-1.65 l 0,-5.775 q 0,-1.1825 0.4675,-1.54 0.495,-0.385 1.65,-0.385 l 14.52,0 q 0.5225,0 0.5225,0.5225 l 0,2.035 q 0,0.3025 -0.11,0.4125 -0.11,0.11 -0.4125,0.11 l -12.3475,0 q -0.44,0 -0.44,0.44 l 0,2.8875 q 0,0.44 0.44,0.44 l 12.485,0 q 0.605,0 0.605,0.4675 l 0,2.035 q 0,0.55 -0.605,0.55 z m 3.575,5.28 -23.595,0 q -0.385,0 -0.4675,-0.1375 -0.0825,-0.1375 -0.0825,-0.4675 l 0,-1.98 q 0,-0.3025 0.11,-0.4125 0.11,-0.1375 0.44,-0.1375 l 23.595,0 q 0.2475,0 0.4125,0.11 0.165,0.11 0.165,0.44 l 0,1.98 q 0,0.605 -0.5775,0.605 z m -2.97,9.845 -15.455,0 q -0.5775,0 -0.9625,-0.11 -0.3575,-0.0825 -0.5775,-0.3025 -0.1925,-0.22 -0.275,-0.605 -0.0825,-0.385 -0.0825,-0.9625 l 0,-5.61 q 0,-0.5775 0.55,-0.5775 l 2.695,0 q 0.5775,0 0.5775,0.5775 l 0,4.0425 q 0,0.4125 0.4125,0.4125 l 13.1175,0 q 0.22,0 0.385,0.0825 0.1925,0.11 0.1925,0.4125 l 0,2.145 q 0,0.385 -0.1925,0.44 -0.165,0.055 -0.385,0.055 z"
         style="font-style:normal;font-variant:normal;font-weight:bold;font-stretch:normal;font-size:27.5px;font-family:NanumGothic;-inkscape-font-specification:'NanumGothic Bold';fill:#e85c41;fill-opacity:1"
         id="path4154" />
      <path
         d="m 49.028793,83.1 q -0.3575,0.44 -0.99,-0.055 -0.5225,-0.385 -1.1825,-1.0725 -0.66,-0.6875 -1.3475,-1.5125 -0.66,-0.8525 -1.2925,-1.815 -0.605,-0.9625 -1.045,-1.87 -0.495,1.0725 -1.1,2.1175 -0.605,1.0175 -1.2925,1.9525 -0.6875,0.935 -1.43,1.7325 -0.7425,0.7975 -1.485,1.375 -0.385,0.3025 -0.5775,0.33 -0.1925,0.0275 -0.4675,-0.2475 l -1.5125,-1.5675 q -0.22,-0.22 -0.22,-0.4125 0,-0.22 0.3575,-0.55 1.5675,-1.5125 2.86,-3.52 1.32,-2.035 2.035,-4.2075 0.5775,-1.76 0.8525,-3.8225 0.275,-2.0625 0.275,-4.4825 0,-0.3025 0.0825,-0.44 0.11,-0.165 0.495,-0.165 l 2.64,0.0825 q 0.385,0.0275 0.4675,0.1925 0.0825,0.1375 0.0825,0.4675 0,3.3825 -0.5225,6.16 0.3025,1.155 0.935,2.4475 0.6325,1.265 1.4025,2.4475 0.7975,1.155 1.6225,2.145 0.8525,0.99 1.5675,1.5675 0.385,0.3025 0.3575,0.55 0,0.22 -0.2475,0.5225 l -1.32,1.65 z m 7.1225,6.82 -2.75,0 q -0.3025,0 -0.4125,-0.11 -0.11,-0.0825 -0.11,-0.4125 l 0,-25.3275 q 0,-0.3025 0.11,-0.4125 0.11,-0.11 0.4125,-0.11 l 2.75,0 q 0.3025,0 0.4125,0.11 0.11,0.11 0.11,0.4125 l 0,25.3275 q 0,0.33 -0.11,0.4125 -0.11,0.11 -0.4125,0.11 z"
         style="font-style:normal;font-variant:normal;font-weight:bold;font-stretch:normal;font-size:27.5px;font-family:NanumGothic;-inkscape-font-specification:'NanumGothic Bold';fill:#e85c41;fill-opacity:1"
         id="path4156" />
      <path
         d="m 84.846254,74.52 -3.41,0 0,7.0125 q 0,0.3025 -0.11,0.4125 -0.0825,0.11 -0.385,0.11 l -2.7775,0 q -0.3025,0 -0.44,-0.11 -0.11,-0.11 -0.11,-0.4125 l 0,-17.4625 q 0,-0.5225 0.55,-0.5225 l 2.7775,0 q 0.495,0 0.495,0.5225 l 0,7.315 3.41,0 q 0.22,0 0.385,0.055 0.165,0.055 0.165,0.4125 l 0,2.1725 q 0,0.3025 -0.165,0.4125 -0.1375,0.0825 -0.385,0.0825 z m -22.11,5.5275 q -0.4675,0.1925 -0.605,0.1925 -0.11,-0.0275 -0.2475,-0.3025 l -1.045,-2.145 q -0.1375,-0.275 -0.11,-0.385 0.055,-0.1375 0.44,-0.3025 1.7325,-0.7425 3.1625,-1.705 1.4575,-0.99 2.5575,-2.0625 1.1275,-1.1 1.87,-2.255 0.7425,-1.1825 1.1,-2.3375 0.11,-0.3025 0.055,-0.44 -0.055,-0.165 -0.5225,-0.165 l -6.93,0 q -0.3575,0 -0.44,-0.165 -0.0825,-0.165 -0.0825,-0.4125 l 0,-1.98 q 0,-0.3025 0.11,-0.4125 0.11,-0.1375 0.44,-0.1375 l 9.4325,0 q 1.2375,0 1.6775,0.44 0.4675,0.4125 0.4675,1.4575 0,1.705 -0.77,3.575 -0.77,1.87 -2.2275,3.6575 -1.4575,1.76 -3.575,3.3 -2.09,1.54 -4.7575,2.585 z m 19.25,9.4325 -14.9875,0 q -0.5775,0 -0.9625,-0.11 -0.3575,-0.0825 -0.5775,-0.3025 -0.1925,-0.22 -0.275,-0.605 -0.0825,-0.385 -0.0825,-0.9625 l 0,-6.1325 q 0,-0.5775 0.55,-0.5775 l 2.695,0 q 0.5775,0 0.5775,0.5775 l 0,4.565 q 0,0.4125 0.4125,0.4125 l 12.65,0 q 0.22,0 0.385,0.0825 0.1925,0.11 0.1925,0.4125 l 0,2.145 q 0,0.385 -0.1925,0.44 -0.165,0.055 -0.385,0.055 z"
         style="font-style:normal;font-variant:normal;font-weight:bold;font-stretch:normal;font-size:27.5px;font-family:NanumGothic;-inkscape-font-specification:'NanumGothic Bold';fill:#e85c41;fill-opacity:1"
         id="path4158" />
    </g>
    <rect
       ry="5.9030401e-05"
       y="3.1347656e-06"
       x="0"
       height="120"
       width="120"
       id="rect9899-1-2-6-8"
       style="color:#000000;clip-rule:nonzero;display:inline;overflow:visible;visibility:visible;opacity:1;isolation:auto;mix-blend-mode:normal;color-interpolation:sRGB;color-interpolation-filters:linearRGB;solid-color:#000000;solid-opacity:1;fill:#e85c41;fill-opacity:0;fill-rule:nonzero;stroke:none;stroke-width:0;stroke-linecap:butt;stroke-linejoin:miter;stroke-miterlimit:4;stroke-dasharray:none;stroke-dashoffset:0;stroke-opacity:1;color-rendering:auto;image-rendering:auto;shape-rendering:auto;text-rendering:auto;enable-background:accumulate" />
  </g>
</svg>
