<?xml version="1.0" encoding="UTF-8" standalone="no"?>
<svg
   xmlns:dc="http://purl.org/dc/elements/1.1/"
   xmlns:cc="http://creativecommons.org/ns#"
   xmlns:rdf="http://www.w3.org/1999/02/22-rdf-syntax-ns#"
   xmlns:svg="http://www.w3.org/2000/svg"
   xmlns="http://www.w3.org/2000/svg"
   width="120"
   height="120"
   viewBox="0 0 120 120"
   id="svg5564"
   version="1.1">
  <defs
     id="defs5566" />
  <metadata
     id="metadata5569">
    <rdf:RDF>
      <cc:Work
         rdf:about="">
        <dc:format>image/svg+xml</dc:format>
        <dc:type
           rdf:resource="http://purl.org/dc/dcmitype/StillImage" />
        <dc:title></dc:title>
      </cc:Work>
    </rdf:RDF>
  </metadata>
  <g
     id="g4156">
    <circle
       style="color:#000000;clip-rule:nonzero;display:inline;overflow:visible;visibility:visible;opacity:1;isolation:auto;mix-blend-mode:normal;color-interpolation:sRGB;color-interpolation-filters:linearRGB;solid-color:#000000;solid-opacity:1;fill:#e85c41;fill-opacity:1;fill-rule:nonzero;stroke:none;stroke-width:0;stroke-linecap:butt;stroke-linejoin:miter;stroke-miterlimit:4;stroke-dasharray:none;stroke-dashoffset:0;stroke-opacity:1;color-rendering:auto;image-rendering:auto;shape-rendering:auto;text-rendering:auto;enable-background:accumulate"
       id="path4162-1-7-8-6-5-1-5-6-3-4-0-8"
       cx="60.000031"
       cy="60.000004"
       r="50" />
    <rect
       ry="5.9030401e-05"
       y="3.1347656e-06"
       x="0"
       height="120"
       width="120"
       id="rect9899-1-2-6-8-0-9-9-3-4-8-4"
       style="color:#000000;clip-rule:nonzero;display:inline;overflow:visible;visibility:visible;opacity:1;isolation:auto;mix-blend-mode:normal;color-interpolation:sRGB;color-interpolation-filters:linearRGB;solid-color:#000000;solid-opacity:1;fill:#e85c41;fill-opacity:0;fill-rule:nonzero;stroke:none;stroke-width:0;stroke-linecap:butt;stroke-linejoin:miter;stroke-miterlimit:4;stroke-dasharray:none;stroke-dashoffset:0;stroke-opacity:1;color-rendering:auto;image-rendering:auto;shape-rendering:auto;text-rendering:auto;enable-background:accumulate" />
    <circle
       style="color:#000000;clip-rule:nonzero;display:inline;overflow:visible;visibility:visible;opacity:1;isolation:auto;mix-blend-mode:normal;color-interpolation:sRGB;color-interpolation-filters:linearRGB;solid-color:#000000;solid-opacity:1;fill:#ffffff;fill-opacity:1;fill-rule:nonzero;stroke:none;stroke-width:0;stroke-linecap:butt;stroke-linejoin:miter;stroke-miterlimit:4;stroke-dasharray:none;stroke-dashoffset:0;stroke-opacity:1;color-rendering:auto;image-rendering:auto;shape-rendering:auto;text-rendering:auto;enable-background:accumulate"
       id="path4162-1-7-8-6-5-1-9-4-0-7-5-5-5"
       cx="60.000031"
       cy="60.000004"
       r="40" />
    <g
       style="font-style:normal;font-weight:normal;font-size:28.85059738px;line-height:125%;font-family:sans-serif;letter-spacing:0px;word-spacing:0px;display:inline;fill:#e85c41;fill-opacity:1;stroke:none;stroke-width:1px;stroke-linecap:butt;stroke-linejoin:miter;stroke-opacity:1"
       id="text4462-4-0-7-3-2-5-4-9-4-2-2-1">
      <path
         d="m 47.642482,67.787483 q -0.28,0.35 -0.63,0.245 -0.35,-0.105 -0.805,-0.42 -0.595,-0.42 -1.4,-1.12 -0.77,-0.7 -1.645,-1.54 -0.84,-0.875 -1.68,-1.82 -0.84,-0.945 -1.505,-1.855 -1.785,2.135 -3.92,4.06 -2.135,1.925 -4.55,3.5 -0.315,0.21 -0.525,0.175 -0.175,-0.035 -0.455,-0.385 l -1.645,-2.205 q -0.28,-0.385 -0.21,-0.595 0.105,-0.245 0.42,-0.455 2.03,-1.4 3.85,-3.115 1.82,-1.715 3.325,-3.605 1.54,-1.89 2.695,-3.885 1.155,-1.995 1.785,-3.99 0.21,-0.7 -0.525,-0.7 l -8.505,0 q -0.49,0 -0.595,-0.175 -0.07,-0.21 -0.07,-0.56 l 0,-2.52 q 0,-0.42 0.14,-0.56 0.175,-0.175 0.56,-0.175 l 11.55,0 q 1.365,0 2.135,0.595 0.805,0.595 0.805,1.75 0,0.49 -0.105,0.945 -0.07,0.455 -0.175,0.875 -0.91,3.64 -3.36,7.42 0.665,1.05 1.505,2.03 0.875,0.98 1.785,1.855 0.91,0.875 1.785,1.645 0.91,0.735 1.645,1.33 0.595,0.455 -0.035,1.19 l -1.645,2.065 z m 9.1,9.275 -3.57,0 q -0.385,0 -0.525,-0.14 -0.14,-0.105 -0.14,-0.525 l 0,-17.57 -5.46,0 q -0.35,0 -0.525,-0.105 -0.175,-0.14 -0.175,-0.525 l 0,-2.695 q 0,-0.385 0.175,-0.525 0.175,-0.14 0.525,-0.14 l 5.46,0 0,-10.675 q 0,-0.385 0.14,-0.525 0.14,-0.14 0.525,-0.14 l 3.57,0 q 0.385,0 0.49,0.14 0.14,0.14 0.14,0.525 l 0,32.235 q 0,0.42 -0.14,0.525 -0.105,0.14 -0.49,0.14 z"
         style="font-style:normal;font-variant:normal;font-weight:bold;font-stretch:normal;font-size:35px;font-family:NanumGothic;-inkscape-font-specification:'NanumGothic Bold';fill:#000000;fill-opacity:1"
         id="path4152" />
      <path
         d="m 77.723341,56.412483 q -0.315,0 -0.49,-0.105 -0.175,-0.14 -0.175,-0.525 l 0,-2.555 q 0,-0.42 0.175,-0.525 0.175,-0.14 0.49,-0.14 l 7.105,0 0,-2.205 -7.105,0 q -0.315,0 -0.49,-0.105 -0.175,-0.14 -0.175,-0.525 l 0,-2.52 q 0,-0.42 0.175,-0.56 0.175,-0.14 0.49,-0.14 l 7.105,0 0,-2.345 q 0,-0.455 0.175,-0.56 0.21,-0.105 0.525,-0.105 l 3.535,0 q 0.455,0 0.525,0.21 0.07,0.175 0.07,0.455 l 0,18.13 q 0,0.385 -0.14,0.525 -0.14,0.14 -0.525,0.14 l -3.5,0 q -0.385,0 -0.525,-0.07 -0.14,-0.105 -0.14,-0.49 l 0,-5.985 -7.105,0 z m 3.5,5.25 q -1.54,0.35 -3.43,0.595 -1.855,0.21 -3.78,0.35 -1.89,0.105 -3.675,0.105 -1.785,0 -3.15,-0.105 -1.47,-0.105 -2.065,-0.665 -0.595,-0.56 -0.595,-1.89 l 0,-14.385 q 0,-0.7 0.665,-0.7 l 3.465,0 q 0.735,0 0.735,0.7 l 0,12.355 q 0,0.35 0.105,0.49 0.105,0.105 0.525,0.14 2.45,0.07 5.25,-0.105 2.8,-0.175 5.32,-0.595 0.42,-0.07 0.56,0.035 0.14,0.105 0.175,0.28 l 0.455,2.73 q 0.07,0.56 -0.56,0.665 z m 7.77,15.33 -3.465,0 q -0.735,0 -0.735,-0.7 l 0,-6.93 q 0,-0.525 -0.525,-0.525 l -15.575,0 q -0.28,0 -0.49,-0.105 -0.21,-0.105 -0.21,-0.49 l 0,-2.73 q 0,-0.49 0.21,-0.56 0.21,-0.105 0.49,-0.105 l 18.48,0 q 0.77,0 1.26,0.14 0.49,0.105 0.735,0.42 0.28,0.315 0.385,0.84 0.105,0.49 0.105,1.225 l 0,8.82 q 0,0.7 -0.665,0.7 z"
         style="font-style:normal;font-variant:normal;font-weight:bold;font-stretch:normal;font-size:35px;font-family:NanumGothic;-inkscape-font-specification:'NanumGothic Bold';fill:#000000;fill-opacity:1"
         id="path4154" />
    </g>
  </g>
</svg>
