<?xml version="1.0" encoding="UTF-8" standalone="no"?>
<svg
   xmlns:dc="http://purl.org/dc/elements/1.1/"
   xmlns:cc="http://creativecommons.org/ns#"
   xmlns:rdf="http://www.w3.org/1999/02/22-rdf-syntax-ns#"
   xmlns:svg="http://www.w3.org/2000/svg"
   xmlns="http://www.w3.org/2000/svg"
   width="120"
   height="120"
   viewBox="0 0 120 120"
   id="svg4977"
   version="1.1">
  <defs
     id="defs4979" />
  <metadata
     id="metadata4982">
    <rdf:RDF>
      <cc:Work
         rdf:about="">
        <dc:format>image/svg+xml</dc:format>
        <dc:type
           rdf:resource="http://purl.org/dc/dcmitype/StillImage" />
        <dc:title></dc:title>
      </cc:Work>
    </rdf:RDF>
  </metadata>
  <g
     id="g4156">
    <circle
       style="color:#000000;clip-rule:nonzero;display:inline;overflow:visible;visibility:visible;opacity:1;isolation:auto;mix-blend-mode:normal;color-interpolation:sRGB;color-interpolation-filters:linearRGB;solid-color:#000000;solid-opacity:1;fill:#e85c41;fill-opacity:1;fill-rule:nonzero;stroke:none;stroke-width:0;stroke-linecap:butt;stroke-linejoin:miter;stroke-miterlimit:4;stroke-dasharray:none;stroke-dashoffset:0;stroke-opacity:1;color-rendering:auto;image-rendering:auto;shape-rendering:auto;text-rendering:auto;enable-background:accumulate"
       id="path4162-1-7-8-6-5-1-5-6-3"
       cx="60.000031"
       cy="60.000004"
       r="50" />
    <rect
       ry="5.9030401e-05"
       y="3.1347656e-06"
       x="0"
       height="120"
       width="120"
       id="rect9899-1-2-6-8-0-9-9-3"
       style="color:#000000;clip-rule:nonzero;display:inline;overflow:visible;visibility:visible;opacity:1;isolation:auto;mix-blend-mode:normal;color-interpolation:sRGB;color-interpolation-filters:linearRGB;solid-color:#000000;solid-opacity:1;fill:#e85c41;fill-opacity:0;fill-rule:nonzero;stroke:none;stroke-width:0;stroke-linecap:butt;stroke-linejoin:miter;stroke-miterlimit:4;stroke-dasharray:none;stroke-dashoffset:0;stroke-opacity:1;color-rendering:auto;image-rendering:auto;shape-rendering:auto;text-rendering:auto;enable-background:accumulate" />
    <circle
       style="color:#000000;clip-rule:nonzero;display:inline;overflow:visible;visibility:visible;opacity:1;isolation:auto;mix-blend-mode:normal;color-interpolation:sRGB;color-interpolation-filters:linearRGB;solid-color:#000000;solid-opacity:1;fill:#ffffff;fill-opacity:1;fill-rule:nonzero;stroke:none;stroke-width:0;stroke-linecap:butt;stroke-linejoin:miter;stroke-miterlimit:4;stroke-dasharray:none;stroke-dashoffset:0;stroke-opacity:1;color-rendering:auto;image-rendering:auto;shape-rendering:auto;text-rendering:auto;enable-background:accumulate"
       id="path4162-1-7-8-6-5-1-9-4-0-7"
       cx="60.000031"
       cy="60.000004"
       r="40" />
    <g
       style="font-style:normal;font-weight:normal;font-size:28.85059738px;line-height:125%;font-family:sans-serif;letter-spacing:0px;word-spacing:0px;display:inline;fill:#e85c41;fill-opacity:1;stroke:none;stroke-width:1px;stroke-linecap:butt;stroke-linejoin:miter;stroke-opacity:1"
       id="text4462-4-0-7-3-2-5-4-9-4">
      <path
         d="m 59.192482,71.357483 -30.065,0 q -0.455,0 -0.595,-0.21 -0.105,-0.21 -0.105,-0.525 l 0,-2.52 q 0,-0.385 0.105,-0.56 0.14,-0.175 0.595,-0.175 l 12.6,0 0,-5.25 q -2.17,-0.28 -3.92,-1.015 -1.75,-0.77 -2.975,-1.89 -1.225,-1.155 -1.925,-2.625 -0.665,-1.47 -0.665,-3.185 0,-1.925 0.84,-3.535 0.875,-1.645 2.45,-2.8 1.575,-1.19 3.78,-1.82 2.205,-0.665 4.865,-0.665 2.695,0 4.865,0.665 2.205,0.63 3.745,1.82 1.575,1.155 2.415,2.8 0.875,1.61 0.875,3.535 0,1.75 -0.665,3.22 -0.665,1.47 -1.925,2.59 -1.225,1.12 -2.975,1.89 -1.75,0.735 -3.92,1.015 l 0,5.25 12.6,0 q 0.735,0 0.735,0.735 l 0,2.52 q 0,0.735 -0.735,0.735 z m -15.015,-22.715 q -1.645,0 -2.975,0.385 -1.295,0.385 -2.24,1.05 -0.91,0.63 -1.435,1.505 -0.49,0.84 -0.49,1.82 0,1.015 0.49,1.89 0.525,0.875 1.435,1.54 0.945,0.63 2.24,1.015 1.33,0.385 2.975,0.385 1.61,0 2.905,-0.385 1.33,-0.385 2.24,-1.015 0.945,-0.665 1.435,-1.54 0.49,-0.875 0.49,-1.89 0,-0.98 -0.49,-1.82 -0.49,-0.875 -1.435,-1.505 -0.91,-0.665 -2.24,-1.05 -1.295,-0.385 -2.905,-0.385 z"
         style="font-style:normal;font-variant:normal;font-weight:bold;font-stretch:normal;font-size:35px;font-family:NanumGothic;-inkscape-font-specification:'NanumGothic Bold';fill:#000000;fill-opacity:1"
         id="path4152" />
      <path
         d="m 65.018341,64.532483 q -0.595,0.28 -0.84,0.175 -0.21,-0.105 -0.385,-0.385 l -1.505,-2.45 q -0.35,-0.525 0.455,-0.98 1.82,-1.05 3.465,-2.275 1.645,-1.225 2.975,-2.555 1.33,-1.33 2.31,-2.695 1.015,-1.365 1.575,-2.66 0.28,-0.665 0.14,-0.805 -0.105,-0.175 -0.63,-0.175 l -7.665,0 q -0.49,0 -0.595,-0.175 -0.07,-0.21 -0.07,-0.56 l 0,-2.52 q 0,-0.77 0.7,-0.77 l 11.55,0 q 2.1,0 2.555,1.015 0.455,1.015 -0.14,2.8 -0.525,1.435 -1.33,2.905 -0.77,1.47 -1.855,2.94 0.665,0.77 1.47,1.505 0.805,0.7 1.645,1.33 0.84,0.63 1.645,1.155 0.805,0.525 1.47,0.945 0.56,0.35 0.175,0.875 l -1.785,2.555 q -0.175,0.28 -0.385,0.315 -0.21,0 -0.595,-0.21 -0.525,-0.315 -1.295,-0.875 -0.77,-0.56 -1.645,-1.26 -0.84,-0.7 -1.75,-1.505 -0.875,-0.805 -1.645,-1.61 -1.715,1.785 -3.745,3.325 -1.995,1.505 -4.27,2.625 z m 15.015,-8.225 q -0.665,0 -0.665,-0.665 l 0,-2.625 q 0,-0.455 0.175,-0.56 0.21,-0.105 0.49,-0.105 l 4.795,0 0,-8.19 q 0,-0.665 0.63,-0.665 l 3.535,0 q 0.665,0 0.665,0.665 l 0,22.435 q 0,0.385 -0.14,0.525 -0.14,0.14 -0.525,0.14 l -3.535,0 q -0.385,0 -0.525,-0.14 -0.105,-0.14 -0.105,-0.525 l 0,-10.29 -4.795,0 z m 10.15,20.195 -18.865,0 q -0.735,0 -1.225,-0.14 -0.455,-0.105 -0.735,-0.385 -0.245,-0.28 -0.35,-0.77 -0.105,-0.49 -0.105,-1.225 l 0,-7.805 q 0,-0.735 0.7,-0.735 l 3.465,0 q 0.7,0 0.7,0.735 l 0,5.81 q 0,0.525 0.56,0.525 l 15.855,0 q 0.28,0 0.49,0.105 0.21,0.14 0.21,0.525 l 0,2.73 q 0,0.49 -0.21,0.56 -0.21,0.07 -0.49,0.07 z"
         style="font-style:normal;font-variant:normal;font-weight:bold;font-stretch:normal;font-size:35px;font-family:NanumGothic;-inkscape-font-specification:'NanumGothic Bold';fill:#000000;fill-opacity:1"
         id="path4154" />
    </g>
  </g>
</svg>
