<?xml version="1.0" encoding="UTF-8" standalone="no"?>
<svg
   xmlns:dc="http://purl.org/dc/elements/1.1/"
   xmlns:cc="http://creativecommons.org/ns#"
   xmlns:rdf="http://www.w3.org/1999/02/22-rdf-syntax-ns#"
   xmlns:svg="http://www.w3.org/2000/svg"
   xmlns="http://www.w3.org/2000/svg"
   version="1.1"
   id="svg7932"
   viewBox="0 0 120.0002 119.99999"
   height="33.866665mm"
   width="33.866722mm">
  <defs
     id="defs7934" />
  <metadata
     id="metadata7937">
    <rdf:RDF>
      <cc:Work
         rdf:about="">
        <dc:format>image/svg+xml</dc:format>
        <dc:type
           rdf:resource="http://purl.org/dc/dcmitype/StillImage" />
        <dc:title></dc:title>
      </cc:Work>
    </rdf:RDF>
  </metadata>
  <g
     transform="translate(571.42867,-438.07649)"
     id="layer1">
    <path
       id="rect5089-7-1"
       transform="translate(-571.42867,438.07649)"
       d="M 0 0 L 0 60 L 0.0078125 60 C -0.0272875 64.71944 0.57116063 69.465183 1.9003906 74.132812 C 7.8754306 100.26191 33.80418 119.30745 60 119.96875 L 60 120 L 120 120 L 120 60 L 120 0 L 60 0 L 0 0 z M 60 10 A 50 50 0 0 1 110 60 A 50 50 0 0 1 60 110 A 50 50 0 0 1 10 60 A 50 50 0 0 1 60 10 z "
       style="color:#000000;clip-rule:nonzero;display:inline;overflow:visible;visibility:visible;opacity:1;isolation:auto;mix-blend-mode:normal;color-interpolation:sRGB;color-interpolation-filters:linearRGB;solid-color:#000000;solid-opacity:1;fill:#e85c41;fill-opacity:1;fill-rule:nonzero;stroke:none;stroke-width:0;stroke-linecap:butt;stroke-linejoin:miter;stroke-miterlimit:4;stroke-dasharray:none;stroke-dashoffset:0;stroke-opacity:1;color-rendering:auto;image-rendering:auto;shape-rendering:auto;text-rendering:auto;enable-background:accumulate" />
  </g>
</svg>
