<?xml version="1.0" encoding="UTF-8" standalone="no"?>
<svg
   xmlns:dc="http://purl.org/dc/elements/1.1/"
   xmlns:cc="http://creativecommons.org/ns#"
   xmlns:rdf="http://www.w3.org/1999/02/22-rdf-syntax-ns#"
   xmlns:svg="http://www.w3.org/2000/svg"
   xmlns="http://www.w3.org/2000/svg"
   width="33.866669mm"
   height="33.866764mm"
   viewBox="0 0 120.00001 120.00034"
   id="svg5560"
   version="1.1">
  <defs
     id="defs5562" />
  <metadata
     id="metadata5565">
    <rdf:RDF>
      <cc:Work
         rdf:about="">
        <dc:format>image/svg+xml</dc:format>
        <dc:type
           rdf:resource="http://purl.org/dc/dcmitype/StillImage" />
        <dc:title></dc:title>
      </cc:Work>
    </rdf:RDF>
  </metadata>
  <path
     id="rect5089-9"
     d="M 61.382812 0.009765625 C 60.634752 -0.004934375 59.885646 -0.003428125 59.134766 0.013671875 C 27.678352 -0.42266812 0.2365725 29.22892 0.0078125 60 L 0 60 L 0 120 L 120 120 L 120 60 L 119.98047 60 C 120.12188 52.2497 118.67416 44.470795 115.33984 37.171875 C 106.22828 15.981645 84.572773 0.46497562 61.382812 0.009765625 z M 60 10 A 50 50 0 0 1 110 60 A 50 50 0 0 1 60 110 A 50 50 0 0 1 10 60 A 50 50 0 0 1 60 10 z "
     style="color:#000000;clip-rule:nonzero;display:inline;overflow:visible;visibility:visible;opacity:1;isolation:auto;mix-blend-mode:normal;color-interpolation:sRGB;color-interpolation-filters:linearRGB;solid-color:#000000;solid-opacity:1;fill:#e85c41;fill-opacity:1;fill-rule:nonzero;stroke:none;stroke-width:0;stroke-linecap:butt;stroke-linejoin:miter;stroke-miterlimit:4;stroke-dasharray:none;stroke-dashoffset:0;stroke-opacity:1;color-rendering:auto;image-rendering:auto;shape-rendering:auto;text-rendering:auto;enable-background:accumulate" />
</svg>
