<?xml version="1.0" encoding="UTF-8" standalone="no"?>
<svg
   xmlns:dc="http://purl.org/dc/elements/1.1/"
   xmlns:cc="http://creativecommons.org/ns#"
   xmlns:rdf="http://www.w3.org/1999/02/22-rdf-syntax-ns#"
   xmlns:svg="http://www.w3.org/2000/svg"
   xmlns="http://www.w3.org/2000/svg"
   version="1.1"
   id="svg4234"
   viewBox="0 0 120.00035 119.99999"
   height="33.866665mm"
   width="33.866764mm">
  <defs
     id="defs4236" />
  <metadata
     id="metadata4239">
    <rdf:RDF>
      <cc:Work
         rdf:about="">
        <dc:format>image/svg+xml</dc:format>
        <dc:type
           rdf:resource="http://purl.org/dc/dcmitype/StillImage" />
        <dc:title></dc:title>
      </cc:Work>
    </rdf:RDF>
  </metadata>
  <g
     transform="translate(357.85732,-472.3622)"
     id="layer1">
    <path
       transform="translate(-357.85732,472.3622)"
       id="rect5089-9-9"
       d="M 0 0 L 0 120 L 60 120 L 60 119.98047 C 67.7503 120.12188 75.529205 118.67416 82.828125 115.33984 C 104.01835 106.22828 119.53502 84.572771 119.99023 61.382812 C 120.00493 60.634753 120.00343 59.885646 119.98633 59.134766 C 120.42267 27.678357 90.771078 0.23657249 60 0.0078125 L 60 0 L 0 0 z M 60 10 A 49.999997 49.999997 0 0 1 110 60 A 49.999997 49.999997 0 0 1 60 110 A 49.999997 49.999997 0 0 1 10 60 A 49.999997 49.999997 0 0 1 60 10 z "
       style="color:#000000;clip-rule:nonzero;display:inline;overflow:visible;visibility:visible;opacity:1;isolation:auto;mix-blend-mode:normal;color-interpolation:sRGB;color-interpolation-filters:linearRGB;solid-color:#000000;solid-opacity:1;fill:#e85c41;fill-opacity:1;fill-rule:nonzero;stroke:none;stroke-width:0;stroke-linecap:butt;stroke-linejoin:miter;stroke-miterlimit:4;stroke-dasharray:none;stroke-dashoffset:0;stroke-opacity:1;color-rendering:auto;image-rendering:auto;shape-rendering:auto;text-rendering:auto;enable-background:accumulate" />
  </g>
</svg>
