<?xml version="1.0" encoding="UTF-8" standalone="no"?>
<svg
   xmlns:dc="http://purl.org/dc/elements/1.1/"
   xmlns:cc="http://creativecommons.org/ns#"
   xmlns:rdf="http://www.w3.org/1999/02/22-rdf-syntax-ns#"
   xmlns:svg="http://www.w3.org/2000/svg"
   xmlns="http://www.w3.org/2000/svg"
   version="1.1"
   id="svg6147"
   viewBox="0 0 119.99999 119.99999"
   height="33.866665mm"
   width="33.866665mm">
  <defs
     id="defs6149" />
  <metadata
     id="metadata6152">
    <rdf:RDF>
      <cc:Work
         rdf:about="">
        <dc:format>image/svg+xml</dc:format>
        <dc:type
           rdf:resource="http://purl.org/dc/dcmitype/StillImage" />
        <dc:title></dc:title>
      </cc:Work>
    </rdf:RDF>
  </metadata>
  <g
     transform="translate(-311.42857,24.780652)"
     id="layer1">
    <path
       id="rect5089-7-1-7"
       transform="translate(311.42857,-24.780652)"
       d="M 0 0 L 0 60 L 0 120 L 60 120 L 120 120 L 120 60 L 119.98047 60 C 120.12188 52.2497 118.67416 44.470785 115.33984 37.171875 C 106.04747 15.561165 83.70781 -0.13736125 60 0.01171875 L 60 0 L 0 0 z M 60 10 A 50 50 0 0 1 110 60 A 50 50 0 0 1 60 110 A 50 50 0 0 1 10 60 A 50 50 0 0 1 60 10 z "
       style="color:#000000;clip-rule:nonzero;display:inline;overflow:visible;visibility:visible;opacity:1;isolation:auto;mix-blend-mode:normal;color-interpolation:sRGB;color-interpolation-filters:linearRGB;solid-color:#000000;solid-opacity:1;fill:#e85c41;fill-opacity:1;fill-rule:nonzero;stroke:none;stroke-width:0;stroke-linecap:butt;stroke-linejoin:miter;stroke-miterlimit:4;stroke-dasharray:none;stroke-dashoffset:0;stroke-opacity:1;color-rendering:auto;image-rendering:auto;shape-rendering:auto;text-rendering:auto;enable-background:accumulate" />
  </g>
</svg>
