<?xml version="1.0" encoding="UTF-8" standalone="no"?>
<svg
   xmlns:dc="http://purl.org/dc/elements/1.1/"
   xmlns:cc="http://creativecommons.org/ns#"
   xmlns:rdf="http://www.w3.org/1999/02/22-rdf-syntax-ns#"
   xmlns:svg="http://www.w3.org/2000/svg"
   xmlns="http://www.w3.org/2000/svg"
   width="120"
   height="120"
   viewBox="0 0 120 120"
   id="svg8502"
   version="1.1">
  <defs
     id="defs8504" />
  <metadata
     id="metadata8507">
    <rdf:RDF>
      <cc:Work
         rdf:about="">
        <dc:format>image/svg+xml</dc:format>
        <dc:type
           rdf:resource="http://purl.org/dc/dcmitype/StillImage" />
        <dc:title></dc:title>
      </cc:Work>
    </rdf:RDF>
  </metadata>
  <g
     id="g4156">
    <circle
       style="color:#000000;clip-rule:nonzero;display:inline;overflow:visible;visibility:visible;opacity:1;isolation:auto;mix-blend-mode:normal;color-interpolation:sRGB;color-interpolation-filters:linearRGB;solid-color:#000000;solid-opacity:1;fill:#79599e;fill-opacity:1;fill-rule:nonzero;stroke:none;stroke-width:0;stroke-linecap:butt;stroke-linejoin:miter;stroke-miterlimit:4;stroke-dasharray:none;stroke-dashoffset:0;stroke-opacity:1;color-rendering:auto;image-rendering:auto;shape-rendering:auto;text-rendering:auto;enable-background:accumulate"
       id="path4162-1-7-8-6-5-1-5-6-32-5-1"
       cx="60.000031"
       cy="60.000004"
       r="50" />
    <rect
       ry="5.9030401e-05"
       y="3.3242798e-06"
       x="-9.5367432e-07"
       height="120"
       width="120"
       id="rect9899-1-2-6-8-0-9-9-9-9-9"
       style="color:#000000;clip-rule:nonzero;display:inline;overflow:visible;visibility:visible;opacity:1;isolation:auto;mix-blend-mode:normal;color-interpolation:sRGB;color-interpolation-filters:linearRGB;solid-color:#000000;solid-opacity:1;fill:#e85c41;fill-opacity:0;fill-rule:nonzero;stroke:none;stroke-width:0;stroke-linecap:butt;stroke-linejoin:miter;stroke-miterlimit:4;stroke-dasharray:none;stroke-dashoffset:0;stroke-opacity:1;color-rendering:auto;image-rendering:auto;shape-rendering:auto;text-rendering:auto;enable-background:accumulate" />
    <circle
       style="color:#000000;clip-rule:nonzero;display:inline;overflow:visible;visibility:visible;opacity:1;isolation:auto;mix-blend-mode:normal;color-interpolation:sRGB;color-interpolation-filters:linearRGB;solid-color:#000000;solid-opacity:1;fill:#ffffff;fill-opacity:1;fill-rule:nonzero;stroke:none;stroke-width:0;stroke-linecap:butt;stroke-linejoin:miter;stroke-miterlimit:4;stroke-dasharray:none;stroke-dashoffset:0;stroke-opacity:1;color-rendering:auto;image-rendering:auto;shape-rendering:auto;text-rendering:auto;enable-background:accumulate"
       id="path4162-1-7-8-6-5-1-9-4-0-5-4-0"
       cx="60.000031"
       cy="60.000004"
       r="40" />
    <g
       style="font-style:normal;font-weight:normal;font-size:28.85059738px;line-height:125%;font-family:sans-serif;letter-spacing:0px;word-spacing:0px;display:inline;fill:#e85c41;fill-opacity:1;stroke:none;stroke-width:1px;stroke-linecap:butt;stroke-linejoin:miter;stroke-opacity:1"
       id="text4462-4-0-7-3-2-5-4-9-0-0-2">
      <path
         d="m 59.717486,55.642498 -4.34,0 0,6.37 q 0,0.63 -0.63,0.63 l -3.535,0 q -0.7,0 -0.7,-0.665 l 0,-17.815 q 0,-0.385 0.14,-0.525 0.175,-0.14 0.56,-0.14 l 3.535,0 q 0.385,0 0.49,0.14 0.14,0.14 0.14,0.525 l 0,7.49 4.34,0 q 0.315,0 0.49,0.105 0.21,0.07 0.21,0.525 l 0,2.66 q 0,0.7 -0.7,0.7 z m -15.54,5.145 -10.57,0 q -0.84,0 -1.4,-0.105 -0.525,-0.105 -0.84,-0.35 -0.28,-0.28 -0.385,-0.77 -0.105,-0.49 -0.105,-1.26 l 0,-13.055 q 0,-0.665 0.63,-0.665 l 3.535,0 q 0.7,0 0.7,0.665 l 0,3.815 6.23,0 0,-3.85 q 0,-0.7 0.7,-0.7 l 3.5,0 q 0.665,0 0.665,0.7 l 0,13.195 q 0,1.33 -0.525,1.855 -0.525,0.525 -2.135,0.525 z m 0.84,16.555 q -2.275,0 -4.235,-0.525 -1.925,-0.525 -3.36,-1.47 -1.4,-0.91 -2.205,-2.17 -0.805,-1.26 -0.805,-2.765 0,-1.435 0.805,-2.66 0.805,-1.26 2.205,-2.17 1.435,-0.945 3.36,-1.47 1.96,-0.525 4.235,-0.525 2.135,0 4.06,0.525 1.96,0.49 3.43,1.435 1.47,0.91 2.345,2.17 0.875,1.225 0.875,2.695 0,1.505 -0.875,2.765 -0.875,1.26 -2.345,2.17 -1.47,0.945 -3.43,1.47 -1.925,0.525 -4.06,0.525 z m -3.045,-24.395 -6.23,0 0,3.43 q 0,0.49 0.525,0.49 l 5.18,0 q 0.525,0 0.525,-0.49 l 0,-3.43 z m 3.045,14.455 q -1.33,0 -2.38,0.28 -1.015,0.245 -1.75,0.7 -0.735,0.42 -1.12,0.98 -0.385,0.56 -0.385,1.155 0,1.19 1.505,2.065 1.505,0.91 4.13,0.91 1.225,0 2.275,-0.245 1.05,-0.245 1.785,-0.665 0.77,-0.385 1.19,-0.945 0.455,-0.525 0.455,-1.12 0,-0.595 -0.455,-1.155 -0.42,-0.56 -1.19,-0.98 -0.77,-0.455 -1.82,-0.7 -1.05,-0.28 -2.24,-0.28 z"
         style="font-style:normal;font-variant:normal;font-weight:bold;font-stretch:normal;font-size:35px;font-family:NanumGothic;-inkscape-font-specification:'NanumGothic Bold';fill:#000000;fill-opacity:1"
         id="path4152" />
      <path
         d="m 88.958345,77.062498 -3.5,0 q -0.385,0 -0.525,-0.14 -0.14,-0.105 -0.14,-0.525 l 0,-32.235 q 0,-0.385 0.14,-0.525 0.14,-0.14 0.525,-0.14 l 3.5,0 q 0.385,0 0.525,0.14 0.14,0.14 0.14,0.525 l 0,32.235 q 0,0.42 -0.14,0.525 -0.14,0.14 -0.525,0.14 z m -16.695,-8.225 q -2.03,0 -3.675,-0.84 -1.645,-0.84 -2.8,-2.345 -1.155,-1.54 -1.785,-3.64 -0.63,-2.1 -0.63,-4.62 0,-2.59 0.63,-4.725 0.63,-2.17 1.785,-3.71 1.155,-1.54 2.8,-2.38 1.645,-0.875 3.675,-0.875 2.065,0 3.71,0.84 1.68,0.84 2.835,2.38 1.155,1.505 1.785,3.675 0.63,2.135 0.63,4.725 0,2.59 -0.63,4.725 -0.63,2.1 -1.785,3.605 -1.155,1.505 -2.835,2.345 -1.645,0.84 -3.71,0.84 z m 0,-18.9 q -0.91,0 -1.68,0.56 -0.735,0.525 -1.295,1.505 -0.525,0.98 -0.84,2.345 -0.28,1.365 -0.28,2.975 0,1.54 0.28,2.87 0.315,1.33 0.84,2.31 0.56,0.98 1.295,1.54 0.77,0.56 1.68,0.56 0.945,0 1.68,-0.56 0.77,-0.56 1.295,-1.54 0.56,-0.98 0.84,-2.31 0.315,-1.33 0.315,-2.87 0,-1.61 -0.315,-2.975 -0.28,-1.365 -0.84,-2.345 -0.525,-0.98 -1.295,-1.505 -0.735,-0.56 -1.68,-0.56 z"
         style="font-style:normal;font-variant:normal;font-weight:bold;font-stretch:normal;font-size:35px;font-family:NanumGothic;-inkscape-font-specification:'NanumGothic Bold';fill:#000000;fill-opacity:1"
         id="path4154" />
    </g>
  </g>
</svg>
