<?xml version="1.0" encoding="UTF-8" standalone="no"?>
<svg
   xmlns:dc="http://purl.org/dc/elements/1.1/"
   xmlns:cc="http://creativecommons.org/ns#"
   xmlns:rdf="http://www.w3.org/1999/02/22-rdf-syntax-ns#"
   xmlns:svg="http://www.w3.org/2000/svg"
   xmlns="http://www.w3.org/2000/svg"
   width="120"
   height="120"
   viewBox="0 0 120 120"
   id="svg9099"
   version="1.1">
  <defs
     id="defs9101" />
  <metadata
     id="metadata9104">
    <rdf:RDF>
      <cc:Work
         rdf:about="">
        <dc:format>image/svg+xml</dc:format>
        <dc:type
           rdf:resource="http://purl.org/dc/dcmitype/StillImage" />
        <dc:title></dc:title>
      </cc:Work>
    </rdf:RDF>
  </metadata>
  <g
     id="g4156">
    <circle
       style="color:#000000;clip-rule:nonzero;display:inline;overflow:visible;visibility:visible;opacity:1;isolation:auto;mix-blend-mode:normal;color-interpolation:sRGB;color-interpolation-filters:linearRGB;solid-color:#000000;solid-opacity:1;fill:#76b258;fill-opacity:1;fill-rule:nonzero;stroke:none;stroke-width:0;stroke-linecap:butt;stroke-linejoin:miter;stroke-miterlimit:4;stroke-dasharray:none;stroke-dashoffset:0;stroke-opacity:1;color-rendering:auto;image-rendering:auto;shape-rendering:auto;text-rendering:auto;enable-background:accumulate"
       id="path4162-1-7-8-6-5-1-5-6-32-5"
       cx="60.000031"
       cy="60.000004"
       r="50" />
    <rect
       ry="5.9030401e-05"
       y="3.3242798e-06"
       x="-9.5367432e-07"
       height="120"
       width="120"
       id="rect9899-1-2-6-8-0-9-9-9-9"
       style="color:#000000;clip-rule:nonzero;display:inline;overflow:visible;visibility:visible;opacity:1;isolation:auto;mix-blend-mode:normal;color-interpolation:sRGB;color-interpolation-filters:linearRGB;solid-color:#000000;solid-opacity:1;fill:#e85c41;fill-opacity:0;fill-rule:nonzero;stroke:none;stroke-width:0;stroke-linecap:butt;stroke-linejoin:miter;stroke-miterlimit:4;stroke-dasharray:none;stroke-dashoffset:0;stroke-opacity:1;color-rendering:auto;image-rendering:auto;shape-rendering:auto;text-rendering:auto;enable-background:accumulate" />
    <circle
       style="color:#000000;clip-rule:nonzero;display:inline;overflow:visible;visibility:visible;opacity:1;isolation:auto;mix-blend-mode:normal;color-interpolation:sRGB;color-interpolation-filters:linearRGB;solid-color:#000000;solid-opacity:1;fill:#ffffff;fill-opacity:1;fill-rule:nonzero;stroke:none;stroke-width:0;stroke-linecap:butt;stroke-linejoin:miter;stroke-miterlimit:4;stroke-dasharray:none;stroke-dashoffset:0;stroke-opacity:1;color-rendering:auto;image-rendering:auto;shape-rendering:auto;text-rendering:auto;enable-background:accumulate"
       id="path4162-1-7-8-6-5-1-9-4-0-5-4"
       cx="60.000031"
       cy="60.000004"
       r="40" />
    <g
       style="font-style:normal;font-weight:normal;font-size:28.85059738px;line-height:125%;font-family:sans-serif;letter-spacing:0px;word-spacing:0px;display:inline;fill:#e85c41;fill-opacity:1;stroke:none;stroke-width:1px;stroke-linecap:butt;stroke-linejoin:miter;stroke-opacity:1"
       id="text4462-4-0-7-3-2-5-4-9-0-0">
      <path
         d="m 46.277486,77.342498 q -2.275,0 -4.2,-0.525 -1.925,-0.525 -3.36,-1.47 -1.4,-0.91 -2.205,-2.17 -0.805,-1.26 -0.805,-2.765 0,-1.435 0.805,-2.66 0.805,-1.26 2.205,-2.17 1.435,-0.945 3.36,-1.47 1.925,-0.525 4.2,-0.525 2.17,0 4.095,0.525 1.96,0.49 3.43,1.435 1.47,0.91 2.345,2.17 0.875,1.225 0.875,2.695 0,1.505 -0.875,2.765 -0.875,1.26 -2.345,2.17 -1.47,0.945 -3.43,1.47 -1.925,0.525 -4.095,0.525 z m -13.37,-14.525 q -0.665,0.385 -0.91,0.42 -0.21,0 -0.49,-0.385 l -1.715,-2.17 q -0.42,-0.56 -0.315,-0.735 0.14,-0.21 0.56,-0.525 1.89,-1.26 3.255,-2.905 1.365,-1.645 2.24,-3.5 0.91,-1.89 1.33,-3.92 0.42,-2.065 0.42,-4.13 0,-0.595 0.14,-0.7 0.175,-0.14 0.665,-0.105 l 3.325,0.14 q 0.385,0.035 0.525,0.175 0.14,0.105 0.14,0.49 0,3.115 -0.7,5.985 0.525,1.155 1.33,2.24 0.84,1.085 1.785,1.995 0.945,0.91 1.925,1.645 1.015,0.735 1.855,1.19 0.49,0.315 0.455,0.56 0,0.245 -0.28,0.665 l -1.33,2.17 q -0.28,0.42 -0.49,0.455 -0.21,0.035 -0.7,-0.21 -0.735,-0.385 -1.61,-0.945 -0.84,-0.595 -1.715,-1.33 -0.875,-0.735 -1.68,-1.61 -0.805,-0.91 -1.47,-1.89 -1.155,2.1 -2.8,3.85 -1.61,1.75 -3.745,3.08 z m 13.545,-9.1 q -0.315,0 -0.49,-0.14 -0.175,-0.14 -0.175,-0.525 l 0,-2.59 q 0,-0.49 0.175,-0.56 0.21,-0.105 0.49,-0.105 l 5.495,0 0,-5.635 q 0,-0.455 0.21,-0.56 0.21,-0.105 0.525,-0.105 l 3.465,0 q 0.455,0 0.525,0.21 0.105,0.175 0.105,0.455 l 0,17.885 q 0,0.665 -0.665,0.665 l -3.5,0 q -0.665,0 -0.665,-0.63 l 0,-8.365 -5.495,0 z m -0.175,13.685 q -2.625,0 -4.13,0.945 -1.47,0.945 -1.47,2.17 0,1.19 1.47,2.065 1.505,0.91 4.13,0.91 1.225,0 2.275,-0.245 1.05,-0.245 1.82,-0.665 0.77,-0.385 1.19,-0.945 0.455,-0.525 0.455,-1.12 0,-0.595 -0.455,-1.155 -0.42,-0.56 -1.19,-0.98 -0.77,-0.455 -1.82,-0.7 -1.05,-0.28 -2.275,-0.28 z"
         style="font-style:normal;font-variant:normal;font-weight:bold;font-stretch:normal;font-size:35px;font-family:NanumGothic;-inkscape-font-specification:'NanumGothic Bold';fill:#000000;fill-opacity:1"
         id="path4152" />
      <path
         d="m 92.073345,64.917498 -12.6,0 0,11.2 q 0,0.7 -0.7,0.7 l -3.465,0 q -0.7,0 -0.7,-0.7 l 0,-11.2 -12.6,0 q -0.455,0 -0.595,-0.21 -0.105,-0.21 -0.105,-0.595 l 0,-2.415 q 0,-0.385 0.105,-0.56 0.14,-0.21 0.595,-0.21 l 30.065,0 q 0.735,0 0.735,0.77 l 0,2.415 q 0,0.805 -0.735,0.805 z m -26.145,-6.125 q -0.49,0.14 -0.665,0.035 -0.105,-0.07 -0.21,-0.21 -0.07,-0.175 -0.14,-0.28 l -1.295,-2.555 q -0.28,-0.595 0.455,-0.84 5.075,-1.68 7.63,-4.445 2.59,-2.765 3.01,-6.405 0.07,-0.49 0.175,-0.595 0.14,-0.105 0.63,-0.07 l 3.185,0.14 q 0.805,0.035 0.77,0.735 -0.035,0.455 -0.07,0.875 -0.035,0.42 -0.105,0.84 0.595,1.33 1.68,2.59 1.12,1.225 2.555,2.31 1.435,1.05 3.115,1.89 1.715,0.805 3.5,1.33 0.49,0.14 0.49,0.385 0.035,0.245 -0.14,0.665 l -1.155,2.45 q -0.07,0.07 -0.14,0.21 -0.035,0.14 -0.105,0.21 -0.07,0.035 -0.21,0.07 -0.105,0 -0.35,-0.07 -1.47,-0.28 -3.08,-0.945 -1.575,-0.665 -3.08,-1.61 -1.505,-0.945 -2.835,-2.1 -1.295,-1.155 -2.24,-2.415 -1.82,2.8 -4.795,4.76 -2.975,1.96 -6.58,3.045 z"
         style="font-style:normal;font-variant:normal;font-weight:bold;font-stretch:normal;font-size:35px;font-family:NanumGothic;-inkscape-font-specification:'NanumGothic Bold';fill:#000000;fill-opacity:1"
         id="path4154" />
    </g>
  </g>
</svg>
