<?xml version="1.0" encoding="UTF-8" standalone="no"?>
<svg
   xmlns:dc="http://purl.org/dc/elements/1.1/"
   xmlns:cc="http://creativecommons.org/ns#"
   xmlns:rdf="http://www.w3.org/1999/02/22-rdf-syntax-ns#"
   xmlns:svg="http://www.w3.org/2000/svg"
   xmlns="http://www.w3.org/2000/svg"
   width="120"
   height="120"
   viewBox="0 0 120 120"
   id="svg6114"
   version="1.1">
  <defs
     id="defs6116" />
  <metadata
     id="metadata6119">
    <rdf:RDF>
      <cc:Work
         rdf:about="">
        <dc:format>image/svg+xml</dc:format>
        <dc:type
           rdf:resource="http://purl.org/dc/dcmitype/StillImage" />
        <dc:title></dc:title>
      </cc:Work>
    </rdf:RDF>
  </metadata>
  <g
     id="g4156">
    <circle
       style="color:#000000;clip-rule:nonzero;display:inline;overflow:visible;visibility:visible;opacity:1;isolation:auto;mix-blend-mode:normal;color-interpolation:sRGB;color-interpolation-filters:linearRGB;solid-color:#000000;solid-opacity:1;fill:#c64976;fill-opacity:1;fill-rule:nonzero;stroke:none;stroke-width:0;stroke-linecap:butt;stroke-linejoin:miter;stroke-miterlimit:4;stroke-dasharray:none;stroke-dashoffset:0;stroke-opacity:1;color-rendering:auto;image-rendering:auto;shape-rendering:auto;text-rendering:auto;enable-background:accumulate"
       id="path4162-1-7-8-6-5-1-5-6-32-5-1-9-9-3-0"
       cx="60.000031"
       cy="60.000004"
       r="50" />
    <rect
       ry="5.9030401e-05"
       y="3.3242798e-06"
       x="-9.5367432e-07"
       height="120"
       width="120"
       id="rect9899-1-2-6-8-0-9-9-9-9-9-9-0-2-7"
       style="color:#000000;clip-rule:nonzero;display:inline;overflow:visible;visibility:visible;opacity:1;isolation:auto;mix-blend-mode:normal;color-interpolation:sRGB;color-interpolation-filters:linearRGB;solid-color:#000000;solid-opacity:1;fill:#e85c41;fill-opacity:0;fill-rule:nonzero;stroke:none;stroke-width:0;stroke-linecap:butt;stroke-linejoin:miter;stroke-miterlimit:4;stroke-dasharray:none;stroke-dashoffset:0;stroke-opacity:1;color-rendering:auto;image-rendering:auto;shape-rendering:auto;text-rendering:auto;enable-background:accumulate" />
    <circle
       style="color:#000000;clip-rule:nonzero;display:inline;overflow:visible;visibility:visible;opacity:1;isolation:auto;mix-blend-mode:normal;color-interpolation:sRGB;color-interpolation-filters:linearRGB;solid-color:#000000;solid-opacity:1;fill:#ffffff;fill-opacity:1;fill-rule:nonzero;stroke:none;stroke-width:0;stroke-linecap:butt;stroke-linejoin:miter;stroke-miterlimit:4;stroke-dasharray:none;stroke-dashoffset:0;stroke-opacity:1;color-rendering:auto;image-rendering:auto;shape-rendering:auto;text-rendering:auto;enable-background:accumulate"
       id="path4162-1-7-8-6-5-1-9-4-0-5-4-0-6-6-5-8"
       cx="60.000031"
       cy="60.000004"
       r="40" />
    <g
       style="font-style:normal;font-weight:normal;font-size:28.85059738px;line-height:125%;font-family:sans-serif;letter-spacing:0px;word-spacing:0px;display:inline;fill:#e85c41;fill-opacity:1;stroke:none;stroke-width:1px;stroke-linecap:butt;stroke-linejoin:miter;stroke-opacity:1"
       id="text4462-4-0-7-3-2-5-4-9-0-0-2-1-8-3-6">
      <path
         d="m 44.142486,77.237498 q -2.66,0 -4.76,-0.49 -2.065,-0.49 -3.535,-1.365 -1.435,-0.84 -2.205,-1.995 -0.735,-1.12 -0.735,-2.45 0,-1.33 0.735,-2.485 0.77,-1.155 2.205,-1.995 1.47,-0.84 3.535,-1.33 2.1,-0.49 4.76,-0.49 2.66,0 4.725,0.49 2.1,0.49 3.535,1.33 1.435,0.84 2.205,1.995 0.77,1.155 0.77,2.485 0,1.33 -0.77,2.45 -0.77,1.155 -2.205,1.995 -1.435,0.875 -3.535,1.365 -2.065,0.49 -4.725,0.49 z m 15.015,-14.385 -30.03,0 q -0.49,0 -0.595,-0.14 -0.105,-0.175 -0.105,-0.595 l 0,-2.52 q 0,-0.385 0.14,-0.525 0.14,-0.175 0.56,-0.175 l 12.495,0 0,-3.64 q 0,-0.385 0.14,-0.525 0.14,-0.14 0.56,-0.14 l 3.43,0 q 0.42,0 0.56,0.14 0.14,0.14 0.14,0.525 l 0,3.64 12.705,0 q 0.315,0 0.525,0.14 0.21,0.14 0.21,0.56 l 0,2.52 q 0,0.735 -0.735,0.735 z m -25.935,-6.265 q -0.525,0.105 -0.735,-0.035 -0.175,-0.14 -0.35,-0.56 l -1.05,-2.275 q -0.105,-0.28 -0.035,-0.49 0.105,-0.245 0.49,-0.35 4.76,-1.365 7.28,-3.36 2.555,-2.03 2.94,-5.355 0.035,-0.49 0.175,-0.595 0.14,-0.105 0.63,-0.07 l 3.045,0.14 q 0.49,0.035 0.63,0.175 0.175,0.14 0.14,0.56 0,0.665 -0.105,1.295 0.63,1.26 1.785,2.345 1.155,1.085 2.555,1.96 1.435,0.875 3.01,1.54 1.61,0.63 3.15,1.015 0.49,0.105 0.49,0.385 0.035,0.245 -0.14,0.665 l -1.12,2.345 q -0.14,0.28 -0.28,0.385 -0.14,0.07 -0.63,0 -1.295,-0.21 -2.765,-0.735 -1.47,-0.56 -2.94,-1.33 -1.435,-0.77 -2.765,-1.785 -1.295,-1.015 -2.24,-2.17 -1.68,2.31 -4.585,3.92 -2.87,1.575 -6.58,2.38 z m 10.92,11.795 q -2.87,0 -4.585,0.77 -1.68,0.735 -1.68,1.82 0,0.49 0.42,0.945 0.455,0.455 1.26,0.805 0.84,0.385 1.995,0.595 1.155,0.245 2.59,0.245 1.435,0 2.59,-0.245 1.155,-0.21 1.96,-0.595 0.84,-0.35 1.26,-0.805 0.455,-0.455 0.455,-0.945 0,-1.085 -1.715,-1.82 -1.68,-0.77 -4.55,-0.77 z"
         style="font-style:normal;font-variant:normal;font-weight:bold;font-stretch:normal;font-size:35px;font-family:NanumGothic;-inkscape-font-specification:'NanumGothic Bold';fill:#000000;fill-opacity:1"
         id="path4152" />
      <path
         d="m 81.643345,66.562498 q -2.065,0.315 -4.41,0.56 -2.345,0.21 -4.9,0.35 -2.52,0.105 -5.145,0.14 -2.625,0 -5.18,-0.07 -0.49,0 -0.595,-0.175 -0.105,-0.175 -0.105,-0.56 l 0,-2.555 q 0,-0.385 0.14,-0.525 0.14,-0.14 0.56,-0.14 0.77,0.035 1.505,0.035 0.77,0 1.505,0 l 0,-13.475 -2.52,0 q -0.77,0 -0.77,-0.77 l 0,-2.45 q 0,-0.77 0.77,-0.77 l 17.99,0 q 0.735,0 0.735,0.77 l 0,2.485 q 0,0.735 -0.735,0.735 l -2.17,0 0,12.95 q 1.435,-0.105 2.8,-0.315 0.49,-0.14 0.63,0.385 l 0.385,2.555 q 0.07,0.49 -0.07,0.63 -0.105,0.14 -0.42,0.21 z m 10.955,-6.475 -4.34,0 0,16.31 q 0,0.42 -0.14,0.525 -0.105,0.14 -0.49,0.14 l -3.535,0 q -0.385,0 -0.56,-0.14 -0.14,-0.105 -0.14,-0.525 l 0,-32.235 q 0,-0.385 0.14,-0.525 0.175,-0.14 0.56,-0.14 l 3.535,0 q 0.385,0 0.49,0.14 0.14,0.14 0.14,0.525 l 0,11.935 4.34,0 q 0.315,0 0.49,0.105 0.21,0.07 0.21,0.56 l 0,2.66 q 0,0.42 -0.21,0.56 -0.175,0.105 -0.49,0.105 z m -19.005,3.36 0,-13.3 -3.85,0 0,13.44 q 0.98,-0.035 1.925,-0.035 0.98,-0.035 1.925,-0.105 z"
         style="font-style:normal;font-variant:normal;font-weight:bold;font-stretch:normal;font-size:35px;font-family:NanumGothic;-inkscape-font-specification:'NanumGothic Bold';fill:#000000;fill-opacity:1"
         id="path4154" />
    </g>
  </g>
</svg>
