<?xml version="1.0" encoding="UTF-8" standalone="no"?>
<svg
   xmlns:dc="http://purl.org/dc/elements/1.1/"
   xmlns:cc="http://creativecommons.org/ns#"
   xmlns:rdf="http://www.w3.org/1999/02/22-rdf-syntax-ns#"
   xmlns:svg="http://www.w3.org/2000/svg"
   xmlns="http://www.w3.org/2000/svg"
   width="120"
   height="120"
   viewBox="0 0 120 120"
   id="svg6537"
   version="1.1">
  <defs
     id="defs6539" />
  <metadata
     id="metadata6542">
    <rdf:RDF>
      <cc:Work
         rdf:about="">
        <dc:format>image/svg+xml</dc:format>
        <dc:type
           rdf:resource="http://purl.org/dc/dcmitype/StillImage" />
        <dc:title></dc:title>
      </cc:Work>
    </rdf:RDF>
  </metadata>
  <g
     id="g4159">
    <circle
       style="color:#000000;clip-rule:nonzero;display:inline;overflow:visible;visibility:visible;opacity:1;isolation:auto;mix-blend-mode:normal;color-interpolation:sRGB;color-interpolation-filters:linearRGB;solid-color:#000000;solid-opacity:1;fill:#e46f62;fill-opacity:1;fill-rule:nonzero;stroke:none;stroke-width:0;stroke-linecap:butt;stroke-linejoin:miter;stroke-miterlimit:4;stroke-dasharray:none;stroke-dashoffset:0;stroke-opacity:1;color-rendering:auto;image-rendering:auto;shape-rendering:auto;text-rendering:auto;enable-background:accumulate"
       id="path4162-1-7-8-6-5"
       cx="59.999981"
       cy="60.000034"
       r="50" />
    <g
       style="font-style:normal;font-weight:normal;font-size:28.85059738px;line-height:125%;font-family:sans-serif;letter-spacing:0px;word-spacing:0px;fill:#ffffff;fill-opacity:1;stroke:none;stroke-width:1px;stroke-linecap:butt;stroke-linejoin:miter;stroke-opacity:1"
       id="text4462-4-0-7-3-2">
      <path
         d="m 47.019956,73.949291 q -1.875289,0 -3.462071,-0.432759 -1.586783,-0.432759 -2.769658,-1.211725 -1.154024,-0.750116 -1.817587,-1.788737 -0.663564,-1.038622 -0.663564,-2.279198 0,-1.182874 0.663564,-2.192645 0.663563,-1.038621 1.817587,-1.788737 1.182875,-0.778966 2.769658,-1.211725 1.586782,-0.432759 3.462071,-0.432759 1.788737,0 3.37552,0.432759 1.615634,0.403908 2.827359,1.182874 1.211725,0.750116 1.904139,1.788737 0.721265,1.009771 0.721265,2.221496 0,1.240576 -0.721265,2.279198 -0.692414,1.038621 -1.904139,1.788737 -1.211725,0.778966 -2.827359,1.211725 -1.586783,0.432759 -3.37552,0.432759 z M 36.460638,61.918592 q -0.548162,0.317356 -0.750116,0.317356 -0.173103,0 -0.403908,-0.288506 l -1.44253,-1.788737 q -0.317357,-0.403908 -0.230805,-0.577012 0.08655,-0.201954 0.432759,-0.461609 1.557932,-1.038622 2.683106,-2.365749 1.125173,-1.355978 1.846438,-2.856209 0.750115,-1.529082 1.096323,-3.173566 0.375057,-1.673335 0.375057,-3.37552 0,-0.49046 0.115403,-0.577012 0.144253,-0.115402 0.548161,-0.08655 l 2.711956,0.115403 q 0.317357,0.02885 0.432759,0.144253 0.144253,0.08655 0.144253,0.403908 0,2.250347 -0.432759,4.241038 0.375058,0.98092 1.038622,1.904139 0.692414,0.923219 1.47138,1.731036 0.778966,0.778966 1.586783,1.44253 0.836667,0.634713 1.529082,1.038621 0.403908,0.230805 0.403908,0.46161 0,0.115402 -0.115402,0.288506 -0.08655,0.144253 -0.173104,0.259655 l -1.125173,1.788737 q -0.230805,0.346208 -0.403909,0.375058 -0.173103,0 -0.577012,-0.230805 -0.577011,-0.288506 -1.269426,-0.750115 -0.692414,-0.49046 -1.384828,-1.096323 -0.692415,-0.605862 -1.355979,-1.327127 -0.634713,-0.750116 -1.154023,-1.557933 -1.93299,3.664026 -5.597016,6.000925 z m 22.676569,-5.914373 -3.577474,0 0,5.30851 q 0,0.519311 -0.519311,0.519311 l -2.91391,0 q -0.577012,0 -0.577012,-0.548161 l 0,-14.684955 q 0,-0.317356 0.115402,-0.432759 0.144253,-0.115402 0.46161,-0.115402 l 2.91391,0 q 0.317357,0 0.403909,0.115402 0.115402,0.115403 0.115402,0.432759 l 0,6.116327 3.577474,0 q 0.259656,0 0.403909,0.08655 0.173103,0.0577 0.173103,0.432759 l 0,2.192645 q 0,0.577012 -0.577012,0.577012 z m -12.117251,9.751502 q -2.163795,0 -3.40437,0.778966 -1.211725,0.778966 -1.211725,1.788737 0,0.980921 1.211725,1.702186 1.240575,0.750115 3.40437,0.750115 1.009771,0 1.875289,-0.201954 0.865518,-0.201954 1.471381,-0.548161 0.634713,-0.317357 0.98092,-0.778967 0.375058,-0.432759 0.375058,-0.923219 0,-0.49046 -0.375058,-0.952069 -0.346207,-0.46161 -0.98092,-0.807817 -0.634714,-0.375058 -1.500231,-0.577012 -0.865518,-0.230805 -1.846439,-0.230805 z"
         style="font-style:normal;font-variant:normal;font-weight:bold;font-stretch:normal;font-family:sans-serif;-inkscape-font-specification:'sans-serif Bold';fill:#ffffff;fill-opacity:1"
         id="path4155" />
      <path
         d="m 80.153516,73.054922 -13.415528,0 q -0.692414,0 -1.125173,-0.08655 -0.432759,-0.08655 -0.692415,-0.317356 -0.230804,-0.201954 -0.346207,-0.605863 -0.08655,-0.403908 -0.08655,-1.067472 l 0,-8.914834 q 0,-0.519311 0.548162,-0.519311 l 2.856209,0 q 0.317356,0 0.461609,0.115402 0.144253,0.08655 0.144253,0.403909 l 0,2.308047 9.838054,0 0,-2.42345 q 0,-0.317356 0.144253,-0.432759 0.173104,-0.115402 0.432759,-0.115402 l 2.91391,0 q 0.259656,0 0.375058,0.115402 0.144253,0.115403 0.144253,0.432759 l 0,9.116789 q 0,1.125173 -0.432759,1.557932 -0.403908,0.432759 -1.759886,0.432759 z m 5.625866,-13.675183 -24.753812,0 q -0.403909,0 -0.490461,-0.144253 -0.08655,-0.144253 -0.08655,-0.461609 l 0,-2.019542 q 0,-0.346207 0.115402,-0.46161 0.115402,-0.144253 0.46161,-0.144253 l 17.252657,0 q 0.115402,-0.634713 0.201954,-1.44253 0.115402,-0.836667 0.201954,-1.586783 0.08655,-0.778966 0.115403,-1.384828 0.0577,-0.634713 0.0577,-0.894369 0,-0.432759 -0.115403,-0.605862 -0.115402,-0.201954 -0.663563,-0.201954 l -13.04047,0 q -0.288506,0 -0.46161,-0.0577 -0.144253,-0.08655 -0.144253,-0.461609 l 0,-2.250347 q 0,-0.317356 0.144253,-0.403908 0.173104,-0.08655 0.46161,-0.08655 l 15.723575,0 q 1.038622,0 1.529082,0.46161 0.49046,0.432759 0.49046,1.529081 0,1.529082 -0.144253,3.462072 -0.144253,1.904139 -0.548161,3.923681 l 3.692876,0 q 0.259656,0 0.432759,0.144253 0.173104,0.115403 0.173104,0.46161 l 0,2.019542 q 0,0.605862 -0.605863,0.605862 z m -7.443454,8.19357 -9.838054,0 0,1.96184 q 0,0.259656 0.259656,0.259656 l 9.318743,0 q 0.259655,0 0.259655,-0.259656 l 0,-1.96184 z"
         style="font-style:normal;font-variant:normal;font-weight:bold;font-stretch:normal;font-family:sans-serif;-inkscape-font-specification:'sans-serif Bold';fill:#ffffff;fill-opacity:1"
         id="path4157" />
    </g>
    <rect
       ry="5.9030401e-05"
       y="2.6171874e-06"
       x="-4.7412109e-06"
       height="120"
       width="120"
       id="rect9899-1-2-6-8-8"
       style="color:#000000;clip-rule:nonzero;display:inline;overflow:visible;visibility:visible;opacity:1;isolation:auto;mix-blend-mode:normal;color-interpolation:sRGB;color-interpolation-filters:linearRGB;solid-color:#000000;solid-opacity:1;fill:#e85c41;fill-opacity:0;fill-rule:nonzero;stroke:none;stroke-width:0;stroke-linecap:butt;stroke-linejoin:miter;stroke-miterlimit:4;stroke-dasharray:none;stroke-dashoffset:0;stroke-opacity:1;color-rendering:auto;image-rendering:auto;shape-rendering:auto;text-rendering:auto;enable-background:accumulate" />
  </g>
</svg>
