<?xml version="1.0" encoding="UTF-8" standalone="no"?>
<svg
   xmlns:dc="http://purl.org/dc/elements/1.1/"
   xmlns:cc="http://creativecommons.org/ns#"
   xmlns:rdf="http://www.w3.org/1999/02/22-rdf-syntax-ns#"
   xmlns:svg="http://www.w3.org/2000/svg"
   xmlns="http://www.w3.org/2000/svg"
   width="120"
   height="120"
   viewBox="0 0 120 120"
   id="svg5863"
   version="1.1">
  <defs
     id="defs5865" />
  <metadata
     id="metadata5868">
    <rdf:RDF>
      <cc:Work
         rdf:about="">
        <dc:format>image/svg+xml</dc:format>
        <dc:type
           rdf:resource="http://purl.org/dc/dcmitype/StillImage" />
        <dc:title></dc:title>
      </cc:Work>
    </rdf:RDF>
  </metadata>
  <g
     id="g4185">
    <rect
       ry="5.9030401e-05"
       y="-3.3786011e-06"
       x="-4.7412109e-06"
       height="120"
       width="120"
       id="rect9899-1-2-6-8"
       style="color:#000000;clip-rule:nonzero;display:inline;overflow:visible;visibility:visible;opacity:1;isolation:auto;mix-blend-mode:normal;color-interpolation:sRGB;color-interpolation-filters:linearRGB;solid-color:#000000;solid-opacity:1;fill:#e85c41;fill-opacity:0;fill-rule:nonzero;stroke:none;stroke-width:0;stroke-linecap:butt;stroke-linejoin:miter;stroke-miterlimit:4;stroke-dasharray:none;stroke-dashoffset:0;stroke-opacity:1;color-rendering:auto;image-rendering:auto;shape-rendering:auto;text-rendering:auto;enable-background:accumulate" />
    <circle
       style="color:#000000;clip-rule:nonzero;display:inline;overflow:visible;visibility:visible;opacity:1;isolation:auto;mix-blend-mode:normal;color-interpolation:sRGB;color-interpolation-filters:linearRGB;solid-color:#000000;solid-opacity:1;fill:#c9c9c9;fill-opacity:1;fill-rule:nonzero;stroke:none;stroke-width:0;stroke-linecap:butt;stroke-linejoin:miter;stroke-miterlimit:4;stroke-dasharray:none;stroke-dashoffset:0;stroke-opacity:1;color-rendering:auto;image-rendering:auto;shape-rendering:auto;text-rendering:auto;enable-background:accumulate"
       id="path4162-1-7-8-6-5-3"
       cx="59.999981"
       cy="60.000011"
       r="50" />
    <g
       style="font-style:normal;font-weight:normal;font-size:28.85059738px;line-height:125%;font-family:sans-serif;letter-spacing:0px;word-spacing:0px;fill:#e85c41;fill-opacity:1;stroke:none;stroke-width:1px;stroke-linecap:butt;stroke-linejoin:miter;stroke-opacity:1"
       id="text4462-4-0-7-3-2-8">
      <path
         d="m 58.598774,51.062511 -23.6225,0 q -0.3575,0 -0.4675,-0.165 -0.0825,-0.165 -0.0825,-0.4125 l 0,-1.98 q 0,-0.3025 0.0825,-0.44 0.11,-0.1375 0.4675,-0.1375 l 9.9,0 0,-4.8125 -5.005,0 q -0.6325,0 -1.0175,-0.055 -0.385,-0.0825 -0.605,-0.275 -0.22,-0.22 -0.3025,-0.605 -0.0825,-0.385 -0.0825,-0.99 l 0,-8.6625 q 0,-0.605 0.0825,-0.9625 0.11,-0.3575 0.33,-0.55 0.2475,-0.1925 0.605,-0.2475 0.3575,-0.0825 0.8525,-0.0825 l 13.9425,0 q 0.5775,0 0.935,0.055 0.3575,0.055 0.55,0.2475 0.22,0.1925 0.3025,0.5775 0.0825,0.3575 0.0825,0.9625 l 0,8.6625 q 0,0.605 -0.0825,0.99 -0.0825,0.3575 -0.3025,0.5775 -0.1925,0.1925 -0.55,0.275 -0.3575,0.0825 -0.935,0.0825 l -4.9775,0 0,4.8125 9.9,0 q 0.5775,0 0.5775,0.5775 l 0,1.98 q 0,0.5775 -0.5775,0.5775 z m -6.82,-16.72 q 0,-0.3575 -0.0825,-0.44 -0.055,-0.11 -0.385,-0.11 l -9.13,0 q -0.3575,0 -0.4675,0.0825 -0.0825,0.0825 -0.0825,0.4675 l 0,5.115 q 0,0.385 0.0825,0.4675 0.11,0.0825 0.4675,0.0825 l 9.13,0 q 0.33,0 0.385,-0.11 0.0825,-0.11 0.0825,-0.44 l 0,-5.115 z"
         style="font-style:normal;font-variant:normal;font-weight:bold;font-stretch:normal;font-size:27.5px;font-family:NanumGothic;-inkscape-font-specification:'NanumGothic Bold';fill:#e85c41;fill-opacity:1"
         id="path4177" />
      <path
         d="m 80.831235,39.842511 -14.5475,0 q -1.21,0 -1.7325,-0.55 -0.495,-0.55 -0.495,-1.65 l 0,-5.775 q 0,-1.1825 0.4675,-1.54 0.495,-0.385 1.65,-0.385 l 14.52,0 q 0.5225,0 0.5225,0.5225 l 0,2.035 q 0,0.3025 -0.11,0.4125 -0.11,0.11 -0.4125,0.11 l -12.3475,0 q -0.44,0 -0.44,0.44 l 0,2.8875 q 0,0.44 0.44,0.44 l 12.485,0 q 0.605,0 0.605,0.4675 l 0,2.035 q 0,0.55 -0.605,0.55 z m 3.575,5.28 -23.595,0 q -0.385,0 -0.4675,-0.1375 -0.0825,-0.1375 -0.0825,-0.4675 l 0,-1.98 q 0,-0.3025 0.11,-0.4125 0.11,-0.1375 0.44,-0.1375 l 23.595,0 q 0.2475,0 0.4125,0.11 0.165,0.11 0.165,0.44 l 0,1.98 q 0,0.605 -0.5775,0.605 z m -2.97,9.845 -15.455,0 q -0.5775,0 -0.9625,-0.11 -0.3575,-0.0825 -0.5775,-0.3025 -0.1925,-0.22 -0.275,-0.605 -0.0825,-0.385 -0.0825,-0.9625 l 0,-5.61 q 0,-0.5775 0.55,-0.5775 l 2.695,0 q 0.5775,0 0.5775,0.5775 l 0,4.0425 q 0,0.4125 0.4125,0.4125 l 13.1175,0 q 0.22,0 0.385,0.0825 0.1925,0.11 0.1925,0.4125 l 0,2.145 q 0,0.385 -0.1925,0.44 -0.165,0.055 -0.385,0.055 z"
         style="font-style:normal;font-variant:normal;font-weight:bold;font-stretch:normal;font-size:27.5px;font-family:NanumGothic;-inkscape-font-specification:'NanumGothic Bold';fill:#e85c41;fill-opacity:1"
         id="path4179" />
      <path
         d="m 46.526274,82.770015 q -0.9075,0.22 -1.98,0.385 -1.0725,0.165 -2.255,0.275 -1.155,0.0825 -2.3925,0.1375 -1.2375,0.055 -2.4475,0 -1.0725,-0.055 -1.5675,-0.495 -0.495,-0.4675 -0.495,-1.4575 l 0,-7.26 q 0,-0.88 0.385,-1.2375 0.385,-0.3575 1.265,-0.3575 l 3.795,0 q 0.2475,0 0.3025,-0.055 0.0825,-0.0825 0.0825,-0.33 l 0,-3.355 q 0,-0.2475 -0.0825,-0.3025 -0.055,-0.0825 -0.3025,-0.0825 l -4.73,0 q -0.55,0 -0.55,-0.5225 l 0,-2.09 q 0,-0.3025 0.11,-0.4125 0.1375,-0.11 0.44,-0.11 l 6.875,0 q 0.605,0 0.99,0.11 0.385,0.0825 0.5775,0.3025 0.1925,0.22 0.2475,0.5775 0.0825,0.3575 0.0825,0.9075 l 0,6.3525 q 0,1.155 -0.4675,1.5675 -0.44,0.385 -1.4575,0.385 l -3.52,0 q -0.3575,0 -0.3575,0.3575 l 0,4.015 q 0,0.3575 0.4125,0.3575 0.7975,0 1.5675,-0.0275 0.77,-0.0275 1.54,-0.0825 0.7975,-0.0825 1.65,-0.1925 0.8525,-0.11 1.8425,-0.275 0.3025,-0.055 0.3575,0.055 0.0825,0.0825 0.1375,0.3025 l 0.3575,1.9525 q 0.055,0.3025 -0.0275,0.44 -0.0825,0.11 -0.385,0.165 z m 10.835,7.205 -2.75,0 q -0.3025,0 -0.4125,-0.11 -0.11,-0.11 -0.11,-0.4125 l 0,-25.3825 q 0,-0.3025 0.11,-0.4125 0.1375,-0.11 0.44,-0.11 l 2.695,0 q 0.3025,0 0.4125,0.11 0.11,0.11 0.11,0.4125 l 0,25.3825 q 0,0.3025 -0.11,0.4125 -0.0825,0.11 -0.385,0.11 z m -5.61,-0.935 -2.53,0 q -0.3025,0 -0.44,-0.0825 -0.11,-0.0825 -0.11,-0.44 l 0,-12.65 -2.145,0 q -0.3025,0 -0.495,-0.11 -0.165,-0.1375 -0.165,-0.5225 l 0,-2.09 q 0,-0.44 0.1925,-0.495 0.22,-0.0825 0.4675,-0.0825 l 2.145,0 0,-8.03 q 0,-0.55 0.55,-0.55 l 2.53,0 q 0.3025,0 0.4125,0.1375 0.11,0.11 0.11,0.4125 l 0,23.98 q 0,0.33 -0.11,0.4125 -0.11,0.11 -0.4125,0.11 z"
         style="font-style:normal;font-variant:normal;font-weight:bold;font-stretch:normal;font-size:27.5px;font-family:NanumGothic;-inkscape-font-specification:'NanumGothic Bold';fill:#e85c41;fill-opacity:1"
         id="path4181" />
      <path
         d="m 70.326235,76.417515 -6.765,0 q -0.66,0 -1.1,-0.0825 -0.4125,-0.0825 -0.66,-0.275 -0.22,-0.22 -0.3025,-0.605 -0.0825,-0.385 -0.0825,-0.99 l 0,-9.4875 q 0,-0.5225 0.495,-0.5225 l 2.64,0 q 0.55,0 0.55,0.5225 l 0,2.7225 3.63,0 0,-2.75 q 0,-0.55 0.5225,-0.55 l 2.64,0 q 0.5225,0 0.5225,0.55 l 0,3.85 2.2,0 0,-4.29 q 0,-0.3025 0.11,-0.4125 0.1375,-0.11 0.44,-0.11 l 2.585,0 q 0.3025,0 0.4125,0.11 0.11,0.11 0.11,0.4125 l 0,11.88 q 0,0.33 -0.11,0.4125 -0.11,0.0825 -0.4125,0.0825 l -2.585,0 q -0.3025,0 -0.44,-0.0825 -0.11,-0.0825 -0.11,-0.4125 l 0,-4.4825 -2.2,0 0,2.64 q 0,1.045 -0.4125,1.4575 -0.4125,0.4125 -1.6775,0.4125 z m 13.53,13.64 -15.9225,0 q -0.605,0 -0.99,-0.11 -0.3575,-0.0825 -0.5775,-0.3025 -0.1925,-0.1925 -0.275,-0.55 -0.055,-0.33 -0.055,-0.825 l 0,-3.63 q 0,-0.5225 0.055,-0.8525 0.0825,-0.33 0.275,-0.5225 0.22,-0.22 0.5775,-0.3025 0.3575,-0.0825 0.9625,-0.0825 l 11.77,0 q 0.275,0 0.275,-0.3025 l 0,-0.715 q 0,-0.33 -0.3025,-0.33 l -13.1175,0 q -0.3025,0 -0.44,-0.11 -0.11,-0.11 -0.11,-0.44 l 0,-1.8975 q 0,-0.5225 0.55,-0.5225 l 15.18,0 q 0.6325,0 1.0175,0.11 0.385,0.0825 0.605,0.3025 0.22,0.1925 0.275,0.55 0.0825,0.33 0.0825,0.825 l 0,3.6025 q 0,0.55 -0.0825,0.9075 -0.055,0.33 -0.275,0.5225 -0.1925,0.1925 -0.5775,0.2475 -0.3575,0.0825 -0.99,0.0825 l -11.66,0 q -0.3025,0 -0.3025,0.275 l 0,0.7975 q 0,0.3025 0.33,0.3025 l 13.695,0 q 0.3025,0 0.4125,0.0825 0.1375,0.0825 0.1375,0.44 l 0,1.8975 q 0,0.55 -0.5225,0.55 z m -0.6875,-12.8425 -2.7225,0 q -0.3025,0 -0.4125,-0.11 -0.11,-0.11 -0.11,-0.4125 l 0,-12.6225 q 0,-0.3025 0.11,-0.4125 0.1375,-0.11 0.44,-0.11 l 2.695,0 q 0.3025,0 0.4125,0.11 0.11,0.11 0.11,0.4125 l 0,12.6225 q 0,0.5225 -0.5225,0.5225 z m -14.4375,-6.5175 -3.63,0 0,2.2825 q 0,0.4125 0.4125,0.4125 l 2.805,0 q 0.4125,0 0.4125,-0.4125 l 0,-2.2825 z"
         style="font-style:normal;font-variant:normal;font-weight:bold;font-stretch:normal;font-size:27.5px;font-family:NanumGothic;-inkscape-font-specification:'NanumGothic Bold';fill:#e85c41;fill-opacity:1"
         id="path4183" />
    </g>
  </g>
</svg>
