<?xml version="1.0" encoding="UTF-8" standalone="no"?>
<svg
   xmlns:dc="http://purl.org/dc/elements/1.1/"
   xmlns:cc="http://creativecommons.org/ns#"
   xmlns:rdf="http://www.w3.org/1999/02/22-rdf-syntax-ns#"
   xmlns:svg="http://www.w3.org/2000/svg"
   xmlns="http://www.w3.org/2000/svg"
   width="120"
   height="120"
   viewBox="0 0 120 120"
   id="svg9678"
   version="1.1">
  <defs
     id="defs9680" />
  <metadata
     id="metadata9683">
    <rdf:RDF>
      <cc:Work
         rdf:about="">
        <dc:format>image/svg+xml</dc:format>
        <dc:type
           rdf:resource="http://purl.org/dc/dcmitype/StillImage" />
        <dc:title></dc:title>
      </cc:Work>
    </rdf:RDF>
  </metadata>
  <g
     id="g4155">
    <circle
       style="color:#000000;clip-rule:nonzero;display:inline;overflow:visible;visibility:visible;opacity:1;isolation:auto;mix-blend-mode:normal;color-interpolation:sRGB;color-interpolation-filters:linearRGB;solid-color:#000000;solid-opacity:1;fill:#ffdd55;fill-opacity:1;fill-rule:nonzero;stroke:none;stroke-width:0;stroke-linecap:butt;stroke-linejoin:miter;stroke-miterlimit:4;stroke-dasharray:none;stroke-dashoffset:0;stroke-opacity:1;color-rendering:auto;image-rendering:auto;shape-rendering:auto;text-rendering:auto;enable-background:accumulate"
       id="path4162"
       cx="60.000031"
       cy="60.000034"
       r="50" />
    <g
       style="font-style:normal;font-weight:normal;font-size:28.85059738px;line-height:125%;font-family:sans-serif;letter-spacing:0px;word-spacing:0px;fill:#808000;fill-opacity:1;stroke:none;stroke-width:1px;stroke-linecap:butt;stroke-linejoin:miter;stroke-opacity:1"
       id="text4462">
      <path
         d="m 36.964183,61.745484 q -3.981383,0.663564 -8.135869,0.836667 -4.154486,0.144253 -8.280121,0.08655 -0.346207,-0.02885 -0.46161,-0.173103 -0.08655,-0.144253 -0.08655,-0.46161 l 0,-2.019542 q 0,-0.317356 0.115402,-0.461609 0.115402,-0.144253 0.432759,-0.115403 1.586783,0.02885 3.144715,0.0577 1.557932,0 3.115865,-0.02885 l 0,-1.990691 q -2.163795,-0.46161 -3.490923,-1.875289 -1.327127,-1.413679 -1.327127,-3.433221 0,-1.125173 0.49046,-2.077243 0.519311,-0.980921 1.413679,-1.702185 0.894369,-0.721265 2.106094,-1.125174 1.240575,-0.432759 2.711956,-0.432759 1.47138,0 2.711956,0.432759 1.240576,0.403909 2.134944,1.125174 0.923219,0.721264 1.41368,1.702185 0.51931,0.95207 0.51931,2.077243 0,1.990691 -1.327127,3.40437 -1.298277,1.41368 -3.433221,1.90414 l 0,1.846438 q 2.885059,-0.173104 5.770119,-0.605863 0.403909,-0.0577 0.548162,0 0.144253,0.0577 0.201954,0.403909 l 0.230805,2.019542 q 0.0577,0.346207 -0.08655,0.461609 -0.144253,0.08655 -0.432759,0.144253 z m -3.577474,12.117251 q -2.077243,0 -3.779429,-0.375058 -1.673334,-0.375057 -2.856209,-1.067472 -1.182874,-0.663564 -1.817587,-1.586783 -0.634713,-0.923219 -0.634713,-2.048392 0,-1.096323 0.634713,-2.019542 0.634713,-0.95207 1.817587,-1.615633 1.182875,-0.692415 2.856209,-1.067472 1.702186,-0.375058 3.779429,-0.375058 2.077243,0 3.750577,0.375058 1.702186,0.375057 2.88506,1.067472 1.182875,0.663563 1.817588,1.615633 0.634713,0.923219 0.634713,2.019542 0,1.125173 -0.634713,2.048392 -0.634713,0.923219 -1.817588,1.586783 -1.182874,0.692415 -2.88506,1.067472 -1.673334,0.375058 -3.750577,0.375058 z m 12.261504,-16.964151 -3.404371,0 0,5.597016 q 0,0.577012 -0.548161,0.577012 l -2.913911,0 q -0.548161,0 -0.548161,-0.577012 l 0,-15.810128 q 0,-0.317356 0.115402,-0.432759 0.115403,-0.115402 0.432759,-0.115402 l 2.913911,0 q 0.317356,0 0.432759,0.115402 0.115402,0.115403 0.115402,0.432759 l 0,6.924144 3.404371,0 q 0.259655,0 0.403908,0.08655 0.173104,0.0577 0.173104,0.432759 l 0,2.221496 q 0,0.548162 -0.577012,0.548162 z m -12.261504,9.866904 q -2.538853,0 -3.808279,0.634713 -1.240576,0.634713 -1.240576,1.41368 0,0.807816 1.240576,1.413679 1.269426,0.634713 3.808279,0.634713 2.538852,0 3.808279,-0.634713 1.269426,-0.605863 1.269426,-1.413679 0,-0.778967 -1.269426,-1.41368 -1.269427,-0.634713 -3.808279,-0.634713 z M 28.712912,50.032142 q -1.298277,0 -2.134944,0.634713 -0.836668,0.634713 -0.836668,1.557932 0,0.98092 0.836668,1.644484 0.836667,0.634713 2.134944,0.634713 1.298277,0 2.163795,-0.634713 0.865518,-0.663564 0.865518,-1.644484 0,-0.923219 -0.865518,-1.557932 -0.836668,-0.634713 -2.163795,-0.634713 z"
         style="font-style:normal;font-variant:normal;font-weight:bold;font-stretch:normal;font-family:sans-serif;-inkscape-font-specification:'sans-serif Bold';fill:#808000;fill-opacity:1"
         id="path4149" />
      <path
         d="m 50.479336,62.726404 q -0.49046,0.115403 -0.605863,0 -0.115402,-0.115402 -0.230804,-0.432759 l -0.807817,-2.134944 q -0.173104,-0.548161 0.461609,-0.721265 4.039084,-1.009771 6.981845,-2.221496 2.971612,-1.240575 4.702647,-2.336898 0.46161,-0.288506 0.375058,-0.49046 -0.0577,-0.201954 -0.548161,-0.201954 l -9.376444,0 q -0.317357,0 -0.432759,-0.115403 -0.115403,-0.115402 -0.115403,-0.461609 l 0,-2.163795 q 0,-0.317357 0.115403,-0.403908 0.115402,-0.115403 0.432759,-0.115403 l 13.963689,0 q 1.47138,0 2.019542,0.577012 0.577012,0.548161 0.51931,1.240576 -0.08655,1.038621 -1.009771,2.221496 -0.923219,1.154024 -2.625404,2.308048 1.355978,0.49046 3.115865,0.952069 1.788737,0.46161 3.577474,0.836668 0.403908,0.08655 0.51931,0.259655 0.115403,0.144253 -0.02885,0.548161 l -0.692414,2.019542 q -0.144253,0.403908 -0.375058,0.46161 -0.201954,0.0577 -0.519311,0 -1.096323,-0.201954 -2.279197,-0.49046 -1.182875,-0.317357 -2.42345,-0.692415 -1.240576,-0.375058 -2.481152,-0.778966 -1.211725,-0.432759 -2.336898,-0.894368 -2.077243,0.952069 -4.558395,1.788737 -2.4523,0.836667 -5.33736,1.442529 z m 21.839902,6.520235 -24.782663,0 q -0.375058,0 -0.49046,-0.173103 -0.08655,-0.173104 -0.08655,-0.432759 l 0,-2.077243 q 0,-0.317357 0.08655,-0.46161 0.115402,-0.144253 0.49046,-0.144253 l 10.443916,0 0,-3.519773 q 0,-0.317356 0.115403,-0.432758 0.115402,-0.144253 0.461609,-0.144253 l 2.827359,0 q 0.346207,0 0.461609,0.144253 0.115403,0.115402 0.115403,0.432758 l 0,3.519773 10.357364,0 q 0.605863,0 0.605863,0.605863 l 0,2.077243 q 0,0.605862 -0.605863,0.605862 z m -8.68403,-19.762659 -8.135868,0 q -0.230805,0 -0.432759,-0.08655 -0.173104,-0.115402 -0.173104,-0.51931 l 0,-2.019542 q 0,-0.403908 0.173104,-0.49046 0.201954,-0.115403 0.432759,-0.115403 l 8.135868,0 q 0.634714,0 0.634714,0.634713 l 0,1.961841 q 0,0.634713 -0.634714,0.634713 z"
         style="font-style:normal;font-variant:normal;font-weight:bold;font-stretch:normal;font-family:sans-serif;-inkscape-font-specification:'sans-serif Bold';fill:#808000;fill-opacity:1"
         id="path4151" />
      <path
         d="m 93.768306,73.14147 -13.415528,0 q -0.692414,0 -1.125173,-0.08655 -0.432759,-0.08655 -0.692415,-0.317356 -0.230805,-0.201954 -0.346207,-0.605863 -0.08655,-0.403908 -0.08655,-1.067472 l 0,-8.914834 q 0,-0.519311 0.548162,-0.519311 l 2.856209,0 q 0.317356,0 0.461609,0.115402 0.144253,0.08655 0.144253,0.403909 l 0,2.308047 9.838054,0 0,-2.42345 q 0,-0.317356 0.144253,-0.432759 0.173104,-0.115402 0.432759,-0.115402 l 2.91391,0 q 0.259656,0 0.375058,0.115402 0.144253,0.115403 0.144253,0.432759 l 0,9.116789 q 0,1.125173 -0.432759,1.557932 -0.403908,0.432759 -1.759886,0.432759 z m 5.625866,-13.675183 -24.753812,0 q -0.403909,0 -0.490461,-0.144253 -0.08655,-0.144253 -0.08655,-0.46161 l 0,-2.019541 q 0,-0.346208 0.115402,-0.46161 0.115402,-0.144253 0.46161,-0.144253 l 17.252657,0 q 0.115402,-0.634713 0.201954,-1.44253 0.115402,-0.836667 0.201954,-1.586783 0.08655,-0.778966 0.115403,-1.384828 0.0577,-0.634713 0.0577,-0.894369 0,-0.432759 -0.115403,-0.605862 -0.115402,-0.201955 -0.663563,-0.201955 l -13.04047,0 q -0.288506,0 -0.46161,-0.0577 -0.144253,-0.08655 -0.144253,-0.461609 l 0,-2.250347 q 0,-0.317357 0.144253,-0.403908 0.173104,-0.08655 0.46161,-0.08655 l 15.723575,0 q 1.038622,0 1.529082,0.461609 0.49046,0.432759 0.49046,1.529082 0,1.529082 -0.144253,3.462072 -0.144253,1.904139 -0.548161,3.923681 l 3.692876,0 q 0.259656,0 0.432759,0.144253 0.173099,0.115402 0.173099,0.46161 l 0,2.019541 q 0,0.605863 -0.605858,0.605863 z m -7.443454,8.19357 -9.838054,0 0,1.96184 q 0,0.259656 0.259656,0.259656 l 9.318743,0 q 0.259655,0 0.259655,-0.259656 l 0,-1.96184 z"
         style="font-style:normal;font-variant:normal;font-weight:bold;font-stretch:normal;font-family:sans-serif;-inkscape-font-specification:'sans-serif Bold';fill:#808000;fill-opacity:1"
         id="path4153" />
    </g>
    <rect
       ry="5.9030401e-05"
       y="2.6171874e-06"
       x="4.5258788e-05"
       height="120"
       width="120"
       id="rect9899-1-2-6-8-8-9-2-2-95"
       style="color:#000000;clip-rule:nonzero;display:inline;overflow:visible;visibility:visible;opacity:1;isolation:auto;mix-blend-mode:normal;color-interpolation:sRGB;color-interpolation-filters:linearRGB;solid-color:#000000;solid-opacity:1;fill:#e85c41;fill-opacity:0;fill-rule:nonzero;stroke:none;stroke-width:0;stroke-linecap:butt;stroke-linejoin:miter;stroke-miterlimit:4;stroke-dasharray:none;stroke-dashoffset:0;stroke-opacity:1;color-rendering:auto;image-rendering:auto;shape-rendering:auto;text-rendering:auto;enable-background:accumulate" />
  </g>
</svg>
