<?xml version="1.0" encoding="UTF-8" standalone="no"?>
<svg
   xmlns:dc="http://purl.org/dc/elements/1.1/"
   xmlns:cc="http://creativecommons.org/ns#"
   xmlns:rdf="http://www.w3.org/1999/02/22-rdf-syntax-ns#"
   xmlns:svg="http://www.w3.org/2000/svg"
   xmlns="http://www.w3.org/2000/svg"
   width="120"
   height="120"
   viewBox="0 0 120 120"
   id="svg9066"
   version="1.1">
  <defs
     id="defs9068" />
  <metadata
     id="metadata9071">
    <rdf:RDF>
      <cc:Work
         rdf:about="">
        <dc:format>image/svg+xml</dc:format>
        <dc:type
           rdf:resource="http://purl.org/dc/dcmitype/StillImage" />
        <dc:title></dc:title>
      </cc:Work>
    </rdf:RDF>
  </metadata>
  <g
     id="g4159">
    <circle
       style="color:#000000;clip-rule:nonzero;display:inline;overflow:visible;visibility:visible;opacity:1;isolation:auto;mix-blend-mode:normal;color-interpolation:sRGB;color-interpolation-filters:linearRGB;solid-color:#000000;solid-opacity:1;fill:#f2c760;fill-opacity:1;fill-rule:nonzero;stroke:none;stroke-width:0;stroke-linecap:butt;stroke-linejoin:miter;stroke-miterlimit:4;stroke-dasharray:none;stroke-dashoffset:0;stroke-opacity:1;color-rendering:auto;image-rendering:auto;shape-rendering:auto;text-rendering:auto;enable-background:accumulate"
       id="path4162-1"
       cx="60"
       cy="60.000042"
       r="50" />
    <g
       style="font-style:normal;font-weight:normal;font-size:28.85059738px;line-height:125%;font-family:sans-serif;letter-spacing:0px;word-spacing:0px;fill:#000000;fill-opacity:1;stroke:none;stroke-width:1px;stroke-linecap:butt;stroke-linejoin:miter;stroke-opacity:1"
       id="text4462-4">
      <path
         d="m 36.999544,63.029368 q -0.49046,0.115402 -0.605862,0 -0.115403,-0.115403 -0.230805,-0.432759 L 35.35506,60.461665 q -0.173103,-0.548162 0.46161,-0.721265 4.039083,-1.009771 6.981844,-2.221496 2.971612,-1.240576 4.702648,-2.336899 0.461609,-0.288506 0.375058,-0.49046 -0.0577,-0.201954 -0.548162,-0.201954 l -9.376444,0 q -0.317357,0 -0.432759,-0.115403 -0.115402,-0.115402 -0.115402,-0.461609 l 0,-2.163795 q 0,-0.317356 0.115402,-0.403908 0.115402,-0.115403 0.432759,-0.115403 l 13.963689,0 q 1.471381,0 2.019542,0.577012 0.577012,0.548162 0.519311,1.240576 -0.08655,1.038622 -1.009771,2.221496 -0.923219,1.154024 -2.625405,2.308048 1.355979,0.49046 3.115865,0.95207 1.788737,0.461609 3.577474,0.836667 0.403908,0.08655 0.519311,0.259655 0.115402,0.144253 -0.02885,0.548162 L 57.310365,62.1927 q -0.144253,0.403909 -0.375058,0.46161 -0.201954,0.0577 -0.519311,0 -1.096322,-0.201954 -2.279197,-0.49046 -1.182874,-0.317357 -2.42345,-0.692415 -1.240576,-0.375057 -2.481151,-0.778966 -1.211725,-0.432759 -2.336899,-0.894368 -2.077243,0.95207 -4.558394,1.788737 -2.452301,0.836667 -5.337361,1.44253 z m 21.839903,6.520235 -24.782664,0 q -0.375057,0 -0.49046,-0.173104 -0.08655,-0.173103 -0.08655,-0.432759 l 0,-2.077243 q 0,-0.317356 0.08655,-0.461609 0.115403,-0.144253 0.49046,-0.144253 l 10.443917,0 0,-3.519773 q 0,-0.317357 0.115402,-0.432759 0.115402,-0.144253 0.46161,-0.144253 l 2.827358,0 q 0.346207,0 0.46161,0.144253 0.115402,0.115402 0.115402,0.432759 l 0,3.519773 10.357365,0 q 0.605862,0 0.605862,0.605862 l 0,2.077243 q 0,0.605863 -0.605862,0.605863 z m -8.68403,-19.762659 -8.135869,0 q -0.230804,0 -0.432759,-0.08655 -0.173103,-0.115403 -0.173103,-0.519311 l 0,-2.019542 q 0,-0.403908 0.173103,-0.49046 0.201955,-0.115402 0.432759,-0.115402 l 8.135869,0 q 0.634713,0 0.634713,0.634713 l 0,1.96184 q 0,0.634714 -0.634713,0.634714 z"
         style="font-style:normal;font-variant:normal;font-weight:bold;font-stretch:normal;font-family:sans-serif;-inkscape-font-specification:'sans-serif Bold'"
         id="path4155" />
      <path
         d="m 80.288514,73.444433 -13.415528,0 q -0.692414,0 -1.125173,-0.08655 -0.432759,-0.08655 -0.692414,-0.317357 -0.230805,-0.201954 -0.346208,-0.605863 -0.08655,-0.403908 -0.08655,-1.067472 l 0,-8.914834 q 0,-0.519311 0.548161,-0.519311 l 2.856209,0 q 0.317357,0 0.46161,0.115402 0.144253,0.08655 0.144253,0.403909 l 0,2.308048 9.838053,0 0,-2.423451 q 0,-0.317356 0.144253,-0.432759 0.173104,-0.115402 0.432759,-0.115402 l 2.913911,0 q 0.259655,0 0.375057,0.115402 0.144253,0.115403 0.144253,0.432759 l 0,9.116789 q 0,1.125173 -0.432759,1.557932 -0.403908,0.432759 -1.759886,0.432759 z m 5.625867,-13.675183 -24.753813,0 q -0.403908,0 -0.49046,-0.144253 -0.08655,-0.144253 -0.08655,-0.461609 l 0,-2.019542 q 0,-0.346207 0.115402,-0.46161 0.115403,-0.144253 0.46161,-0.144253 l 17.252657,0 q 0.115403,-0.634713 0.201954,-1.44253 0.115403,-0.836667 0.201955,-1.586782 0.08655,-0.778967 0.115402,-1.384829 0.0577,-0.634713 0.0577,-0.894369 0,-0.432759 -0.115402,-0.605862 -0.115403,-0.201954 -0.663564,-0.201954 l -13.04047,0 q -0.288506,0 -0.46161,-0.0577 -0.144253,-0.08655 -0.144253,-0.461609 l 0,-2.250347 q 0,-0.317356 0.144253,-0.403908 0.173104,-0.08655 0.46161,-0.08655 l 15.723576,0 q 1.038621,0 1.529081,0.46161 0.49046,0.432759 0.49046,1.529081 0,1.529082 -0.144253,3.462072 -0.144253,1.904139 -0.548161,3.923681 l 3.692877,0 q 0.259655,0 0.432758,0.144253 0.173104,0.115403 0.173104,0.46161 l 0,2.019542 q 0,0.605862 -0.605862,0.605862 z m -7.443455,8.19357 -9.838053,0 0,1.96184 q 0,0.259656 0.259655,0.259656 l 9.318743,0 q 0.259655,0 0.259655,-0.259656 l 0,-1.96184 z"
         style="font-style:normal;font-variant:normal;font-weight:bold;font-stretch:normal;font-family:sans-serif;-inkscape-font-specification:'sans-serif Bold'"
         id="path4157" />
    </g>
    <rect
       ry="5.9030401e-05"
       y="2.6171874e-06"
       x="1.5258789e-05"
       height="120"
       width="120"
       id="rect9899-1-2-6-8-8-9-2-2-9"
       style="color:#000000;clip-rule:nonzero;display:inline;overflow:visible;visibility:visible;opacity:1;isolation:auto;mix-blend-mode:normal;color-interpolation:sRGB;color-interpolation-filters:linearRGB;solid-color:#000000;solid-opacity:1;fill:#e85c41;fill-opacity:0;fill-rule:nonzero;stroke:none;stroke-width:0;stroke-linecap:butt;stroke-linejoin:miter;stroke-miterlimit:4;stroke-dasharray:none;stroke-dashoffset:0;stroke-opacity:1;color-rendering:auto;image-rendering:auto;shape-rendering:auto;text-rendering:auto;enable-background:accumulate" />
  </g>
</svg>
