<?xml version="1.0" encoding="UTF-8" standalone="no"?>
<svg
   xmlns:dc="http://purl.org/dc/elements/1.1/"
   xmlns:cc="http://creativecommons.org/ns#"
   xmlns:rdf="http://www.w3.org/1999/02/22-rdf-syntax-ns#"
   xmlns:svg="http://www.w3.org/2000/svg"
   xmlns="http://www.w3.org/2000/svg"
   width="120"
   height="120"
   viewBox="0 0 120 120"
   id="svg7790"
   version="1.1">
  <defs
     id="defs7792" />
  <metadata
     id="metadata7795">
    <rdf:RDF>
      <cc:Work
         rdf:about="">
        <dc:format>image/svg+xml</dc:format>
        <dc:type
           rdf:resource="http://purl.org/dc/dcmitype/StillImage" />
        <dc:title></dc:title>
      </cc:Work>
    </rdf:RDF>
  </metadata>
  <g
     id="g4159">
    <circle
       style="color:#000000;clip-rule:nonzero;display:inline;overflow:visible;visibility:visible;opacity:1;isolation:auto;mix-blend-mode:normal;color-interpolation:sRGB;color-interpolation-filters:linearRGB;solid-color:#000000;solid-opacity:1;fill:#60b6f2;fill-opacity:1;fill-rule:nonzero;stroke:none;stroke-width:0;stroke-linecap:butt;stroke-linejoin:miter;stroke-miterlimit:4;stroke-dasharray:none;stroke-dashoffset:0;stroke-opacity:1;color-rendering:auto;image-rendering:auto;shape-rendering:auto;text-rendering:auto;enable-background:accumulate"
       id="path4162-1-7-8"
       cx="59.999981"
       cy="60.000034"
       r="50" />
    <g
       style="font-style:normal;font-weight:normal;font-size:28.85059738px;line-height:125%;font-family:sans-serif;letter-spacing:0px;word-spacing:0px;fill:#000000;fill-opacity:1;stroke:none;stroke-width:1px;stroke-linecap:butt;stroke-linejoin:miter;stroke-opacity:1"
       id="text4462-4-0-7">
      <path
         d="m 46.433671,73.603095 q -2.221496,0 -3.952532,-0.403908 -1.731036,-0.403908 -2.942761,-1.125173 -1.182875,-0.692415 -1.817588,-1.644484 -0.634713,-0.923219 -0.634713,-2.019542 0,-1.961841 1.904139,-3.346669 1.90414,-1.41368 5.452763,-1.759887 l 0,-1.875289 -10.386215,0 q -0.346207,0 -0.461609,-0.115402 -0.115403,-0.144253 -0.115403,-0.46161 l 0,-2.077243 q 0,-0.346207 0.08655,-0.461609 0.08655,-0.144253 0.49046,-0.144253 l 24.753813,0 q 0.605862,0 0.605862,0.605862 l 0,2.077243 q 0,0.346208 -0.173103,0.46161 -0.173104,0.115402 -0.432759,0.115402 l -10.357365,0 0,1.90414 q 3.519773,0.346207 5.423913,1.731036 1.904139,1.384828 1.904139,3.346669 0,1.096323 -0.634713,2.019542 -0.634713,0.952069 -1.846438,1.644484 -1.182875,0.721265 -2.913911,1.125173 -1.731035,0.403908 -3.952531,0.403908 z m 5.135406,-21.868752 q -0.144253,0.08655 -0.259655,0.173103 -0.08655,0.0577 -0.230805,0.144253 1.47138,0.432759 3.115864,0.865518 1.644484,0.403908 2.971612,0.634713 0.403908,0.0577 0.519311,0.230805 0.115402,0.144253 -0.02885,0.548161 l -0.634713,1.731036 q -0.144253,0.403909 -0.346207,0.49046 -0.173104,0.08655 -0.49046,0.02885 -2.019542,-0.346207 -4.442992,-1.009771 -2.423451,-0.663564 -4.731498,-1.44253 -2.279198,0.95207 -4.846901,1.673335 -2.567703,0.721265 -5.135406,1.182874 -0.432759,0.0577 -0.605863,0 -0.144253,-0.0577 -0.288506,-0.375057 l -0.663563,-1.846439 q -0.230805,-0.663563 0.403908,-0.807816 1.846438,-0.403909 3.606325,-0.865518 1.788737,-0.46161 3.346669,-0.95207 1.557932,-0.519311 2.827358,-1.038622 1.269427,-0.548161 2.134945,-1.067472 0.346207,-0.201954 0.230804,-0.317356 -0.08655,-0.115403 -0.375057,-0.115403 l -9.578399,0 q -0.317356,0 -0.432759,-0.115402 -0.115402,-0.115402 -0.115402,-0.432759 l 0,-2.134944 q 0,-0.317357 0.115402,-0.403909 0.115403,-0.115402 0.432759,-0.115402 l 13.905988,0 q 1.384829,0 1.961841,0.519311 0.605862,0.49046 0.605862,1.125173 0,0.95207 -0.836667,1.90414 -0.836667,0.923219 -2.134944,1.788737 z m -5.135406,14.569551 q -2.452301,0 -3.86598,0.634713 -1.41368,0.605863 -1.41368,1.500231 0,0.403909 0.375058,0.778967 0.375058,0.375057 1.067472,0.663563 0.692414,0.317357 1.644484,0.490461 0.980921,0.201954 2.192646,0.201954 1.211725,0 2.163794,-0.201954 0.980921,-0.173104 1.673335,-0.490461 0.692414,-0.288506 1.067472,-0.663563 0.375058,-0.375058 0.375058,-0.778967 0,-0.894368 -1.413679,-1.500231 -1.41368,-0.634713 -3.86598,-0.634713 z"
         style="font-style:normal;font-variant:normal;font-weight:bold;font-stretch:normal;font-family:sans-serif;-inkscape-font-specification:'sans-serif Bold';fill:#000000;fill-opacity:1"
         id="path4155" />
      <path
         d="m 80.288495,72.795279 -13.415528,0 q -0.692414,0 -1.125173,-0.08655 -0.432759,-0.08655 -0.692414,-0.317357 -0.230805,-0.201954 -0.346208,-0.605862 -0.08655,-0.403909 -0.08655,-1.067472 l 0,-8.914835 q 0,-0.519311 0.548161,-0.519311 l 2.856209,0 q 0.317357,0 0.46161,0.115403 0.144253,0.08655 0.144253,0.403908 l 0,2.308048 9.838053,0 0,-2.42345 q 0,-0.317357 0.144253,-0.432759 0.173104,-0.115403 0.432759,-0.115403 l 2.913911,0 q 0.259655,0 0.375057,0.115403 0.144253,0.115402 0.144253,0.432759 l 0,9.116788 q 0,1.125174 -0.432759,1.557933 -0.403908,0.432759 -1.759886,0.432759 z m 5.625866,-13.675183 -24.753812,0 q -0.403908,0 -0.49046,-0.144253 -0.08655,-0.144253 -0.08655,-0.46161 l 0,-2.019542 q 0,-0.346207 0.115402,-0.461609 0.115403,-0.144253 0.46161,-0.144253 l 17.252657,0 q 0.115403,-0.634714 0.201954,-1.44253 0.115403,-0.836668 0.201954,-1.586783 0.08655,-0.778966 0.115403,-1.384829 0.0577,-0.634713 0.0577,-0.894368 0,-0.432759 -0.115402,-0.605863 -0.115403,-0.201954 -0.663564,-0.201954 l -13.04047,0 q -0.288506,0 -0.46161,-0.0577 -0.144253,-0.08655 -0.144253,-0.46161 l 0,-2.250346 q 0,-0.317357 0.144253,-0.403909 0.173104,-0.08655 0.46161,-0.08655 l 15.723576,0 q 1.038621,0 1.529081,0.46161 0.49046,0.432759 0.49046,1.529082 0,1.529081 -0.144253,3.462071 -0.144253,1.90414 -0.548161,3.923682 l 3.692876,0 q 0.259656,0 0.432759,0.144253 0.173104,0.115402 0.173104,0.461609 l 0,2.019542 q 0,0.605863 -0.605863,0.605863 z m -7.443454,8.193569 -9.838053,0 0,1.961841 q 0,0.259655 0.259655,0.259655 l 9.318743,0 q 0.259655,0 0.259655,-0.259655 l 0,-1.961841 z"
         style="font-style:normal;font-variant:normal;font-weight:bold;font-stretch:normal;font-family:sans-serif;-inkscape-font-specification:'sans-serif Bold';fill:#000000;fill-opacity:1"
         id="path4157" />
    </g>
    <rect
       ry="5.9030401e-05"
       y="2.6171874e-06"
       x="-4.7412109e-06"
       height="120"
       width="120"
       id="rect9899-1-2-6-8-8-9-2"
       style="color:#000000;clip-rule:nonzero;display:inline;overflow:visible;visibility:visible;opacity:1;isolation:auto;mix-blend-mode:normal;color-interpolation:sRGB;color-interpolation-filters:linearRGB;solid-color:#000000;solid-opacity:1;fill:#e85c41;fill-opacity:0;fill-rule:nonzero;stroke:none;stroke-width:0;stroke-linecap:butt;stroke-linejoin:miter;stroke-miterlimit:4;stroke-dasharray:none;stroke-dashoffset:0;stroke-opacity:1;color-rendering:auto;image-rendering:auto;shape-rendering:auto;text-rendering:auto;enable-background:accumulate" />
  </g>
</svg>
