<?xml version="1.0" encoding="UTF-8" standalone="no"?>
<svg
   xmlns:dc="http://purl.org/dc/elements/1.1/"
   xmlns:cc="http://creativecommons.org/ns#"
   xmlns:rdf="http://www.w3.org/1999/02/22-rdf-syntax-ns#"
   xmlns:svg="http://www.w3.org/2000/svg"
   xmlns="http://www.w3.org/2000/svg"
   width="120"
   height="120"
   viewBox="0 0 120 120"
   id="svg7176"
   version="1.1">
  <defs
     id="defs7178" />
  <metadata
     id="metadata7181">
    <rdf:RDF>
      <cc:Work
         rdf:about="">
        <dc:format>image/svg+xml</dc:format>
        <dc:type
           rdf:resource="http://purl.org/dc/dcmitype/StillImage" />
        <dc:title></dc:title>
      </cc:Work>
    </rdf:RDF>
  </metadata>
  <g
     id="g4161">
    <circle
       style="color:#000000;clip-rule:nonzero;display:inline;overflow:visible;visibility:visible;opacity:1;isolation:auto;mix-blend-mode:normal;color-interpolation:sRGB;color-interpolation-filters:linearRGB;solid-color:#000000;solid-opacity:1;fill:#e46f62;fill-opacity:1;fill-rule:nonzero;stroke:none;stroke-width:0;stroke-linecap:butt;stroke-linejoin:miter;stroke-miterlimit:4;stroke-dasharray:none;stroke-dashoffset:0;stroke-opacity:1;color-rendering:auto;image-rendering:auto;shape-rendering:auto;text-rendering:auto;enable-background:accumulate"
       id="path4162-1-7-8-6"
       cx="59.999981"
       cy="60.000042"
       r="50" />
    <g
       style="font-style:normal;font-weight:normal;font-size:28.85059738px;line-height:125%;font-family:sans-serif;letter-spacing:0px;word-spacing:0px;fill:#ffffff;fill-opacity:1;stroke:none;stroke-width:1px;stroke-linecap:butt;stroke-linejoin:miter;stroke-opacity:1"
       id="text4462-4-0-7-3">
      <path
         d="m 32.881775,73.862754 q -2.221496,0 -3.952531,-0.403908 -1.731036,-0.403908 -2.942761,-1.125173 -1.182875,-0.692415 -1.817588,-1.644484 -0.634713,-0.92322 -0.634713,-2.019542 0,-1.961841 1.904139,-3.34667 1.90414,-1.413679 5.452763,-1.759886 l 0,-1.875289 -10.386215,0 q -0.346207,0 -0.461609,-0.115402 -0.115403,-0.144253 -0.115403,-0.46161 l 0,-2.077243 q 0,-0.346207 0.08655,-0.461609 0.08655,-0.144253 0.49046,-0.144253 l 24.753813,0 q 0.605862,0 0.605862,0.605862 l 0,2.077243 q 0,0.346207 -0.173103,0.46161 -0.173104,0.115402 -0.432759,0.115402 l -10.357365,0 0,1.90414 q 3.519773,0.346207 5.423913,1.731035 1.904139,1.384829 1.904139,3.34667 0,1.096322 -0.634713,2.019542 -0.634713,0.952069 -1.846438,1.644484 -1.182875,0.721265 -2.913911,1.125173 -1.731036,0.403908 -3.952532,0.403908 z m 5.135407,-21.868753 q -0.144253,0.08655 -0.259656,0.173104 -0.08655,0.0577 -0.230804,0.144253 1.47138,0.432759 3.115864,0.865518 1.644484,0.403908 2.971612,0.634713 0.403908,0.0577 0.51931,0.230805 0.115403,0.144253 -0.02885,0.548161 l -0.634713,1.731036 q -0.144253,0.403908 -0.346207,0.49046 -0.173104,0.08655 -0.490461,0.02885 -2.019541,-0.346207 -4.442992,-1.009771 -2.42345,-0.663564 -4.731498,-1.44253 -2.279197,0.95207 -4.8469,1.673335 -2.567703,0.721265 -5.135406,1.182874 -0.432759,0.0577 -0.605863,0 -0.144253,-0.0577 -0.288506,-0.375058 l -0.663564,-1.846438 q -0.230804,-0.663564 0.403909,-0.807817 1.846438,-0.403908 3.606324,-0.865517 1.788738,-0.46161 3.34667,-0.95207 1.557932,-0.519311 2.827358,-1.038622 1.269427,-0.548161 2.134945,-1.067472 0.346207,-0.201954 0.230804,-0.317356 -0.08655,-0.115403 -0.375057,-0.115403 l -9.578399,0 q -0.317356,0 -0.432759,-0.115402 -0.115402,-0.115403 -0.115402,-0.432759 l 0,-2.134944 q 0,-0.317357 0.115402,-0.403909 0.115403,-0.115402 0.432759,-0.115402 l 13.905988,0 q 1.384829,0 1.961841,0.519311 0.605862,0.49046 0.605862,1.125173 0,0.95207 -0.836667,1.904139 -0.836667,0.92322 -2.134944,1.788737 z m -5.135407,14.569552 q -2.4523,0 -3.86598,0.634713 -1.413679,0.605863 -1.413679,1.500231 0,0.403909 0.375058,0.778966 0.375058,0.375058 1.067472,0.663564 0.692414,0.317357 1.644484,0.49046 0.98092,0.201955 2.192645,0.201955 1.211726,0 2.163795,-0.201955 0.980921,-0.173103 1.673335,-0.49046 0.692414,-0.288506 1.067472,-0.663564 0.375058,-0.375057 0.375058,-0.778966 0,-0.894368 -1.413679,-1.500231 -1.41368,-0.634713 -3.865981,-0.634713 z"
         style="font-style:normal;font-variant:normal;font-weight:bold;font-stretch:normal;font-family:sans-serif;-inkscape-font-specification:'sans-serif Bold';fill:#ffffff;fill-opacity:1"
         id="path4155" />
      <path
         d="m 60.706825,73.949306 q -1.875289,0 -3.462072,-0.432759 -1.586783,-0.432759 -2.769657,-1.211725 -1.154024,-0.750116 -1.817588,-1.788737 -0.663563,-1.038622 -0.663563,-2.279197 0,-1.182875 0.663563,-2.192646 0.663564,-1.038621 1.817588,-1.788737 1.182874,-0.778966 2.769657,-1.211725 1.586783,-0.432759 3.462072,-0.432759 1.788737,0 3.37552,0.432759 1.615633,0.403909 2.827358,1.182875 1.211725,0.750115 1.90414,1.788737 0.721265,1.009771 0.721265,2.221496 0,1.240575 -0.721265,2.279197 -0.692415,1.038621 -1.90414,1.788737 -1.211725,0.778966 -2.827358,1.211725 -1.586783,0.432759 -3.37552,0.432759 z M 50.147506,61.918607 q -0.548161,0.317356 -0.750115,0.317356 -0.173104,0 -0.403909,-0.288505 L 47.550953,60.15872 q -0.317357,-0.403908 -0.230805,-0.577011 0.08655,-0.201955 0.432759,-0.46161 1.557932,-1.038622 2.683105,-2.365749 1.125174,-1.355978 1.846439,-2.856209 0.750115,-1.529082 1.096322,-3.173566 0.375058,-1.673335 0.375058,-3.37552 0,-0.49046 0.115402,-0.577012 0.144253,-0.115402 0.548162,-0.08655 l 2.711956,0.115402 q 0.317356,0.02885 0.432759,0.144253 0.144253,0.08655 0.144253,0.403908 0,2.250347 -0.432759,4.241038 0.375058,0.98092 1.038621,1.904139 0.692415,0.92322 1.471381,1.731036 0.778966,0.778966 1.586783,1.44253 0.836667,0.634713 1.529081,1.038622 0.403909,0.230804 0.403909,0.461609 0,0.115403 -0.115403,0.288506 -0.08655,0.144253 -0.173103,0.259656 l -1.125174,1.788737 q -0.230804,0.346207 -0.403908,0.375057 -0.173103,0 -0.577012,-0.230804 -0.577012,-0.288506 -1.269426,-0.750116 -0.692414,-0.49046 -1.384829,-1.096323 -0.692414,-0.605862 -1.355978,-1.327127 -0.634713,-0.750116 -1.154024,-1.557932 -1.93299,3.664026 -5.597016,6.000924 z m 22.67657,-5.914373 -3.577474,0 0,5.30851 q 0,0.519311 -0.519311,0.519311 l -2.91391,0 q -0.577012,0 -0.577012,-0.548161 l 0,-14.684954 q 0,-0.317357 0.115402,-0.432759 0.144253,-0.115403 0.46161,-0.115403 l 2.91391,0 q 0.317357,0 0.403908,0.115403 0.115403,0.115402 0.115403,0.432759 l 0,6.116326 3.577474,0 q 0.259655,0 0.403908,0.08655 0.173104,0.0577 0.173104,0.432759 l 0,2.192646 q 0,0.577011 -0.577012,0.577011 z m -12.117251,9.751502 q -2.163795,0 -3.404371,0.778967 -1.211725,0.778966 -1.211725,1.788737 0,0.98092 1.211725,1.702185 1.240576,0.750115 3.404371,0.750115 1.009771,0 1.875289,-0.201954 0.865518,-0.201954 1.47138,-0.548161 0.634713,-0.317357 0.980921,-0.778966 0.375057,-0.432759 0.375057,-0.923219 0,-0.490461 -0.375057,-0.95207 -0.346208,-0.46161 -0.980921,-0.807817 -0.634713,-0.375058 -1.500231,-0.577012 -0.865518,-0.230805 -1.846438,-0.230805 z"
         style="font-style:normal;font-variant:normal;font-weight:bold;font-stretch:normal;font-family:sans-serif;-inkscape-font-specification:'sans-serif Bold';fill:#ffffff;fill-opacity:1"
         id="path4157" />
      <path
         d="m 93.840384,73.054938 -13.415527,0 q -0.692415,0 -1.125174,-0.08655 -0.432759,-0.08655 -0.692414,-0.317357 -0.230805,-0.201954 -0.346207,-0.605862 -0.08655,-0.403909 -0.08655,-1.067472 l 0,-8.914835 q 0,-0.519311 0.548161,-0.519311 l 2.856209,0 q 0.317357,0 0.46161,0.115403 0.144253,0.08655 0.144253,0.403908 l 0,2.308048 9.838054,0 0,-2.42345 q 0,-0.317357 0.144253,-0.432759 0.173103,-0.115403 0.432759,-0.115403 l 2.91391,0 q 0.259655,0 0.375058,0.115403 0.144253,0.115402 0.144253,0.432759 l 0,9.116788 q 0,1.125174 -0.432759,1.557933 -0.403909,0.432759 -1.759887,0.432759 z m 5.625867,-13.675184 -24.753813,0 q -0.403908,0 -0.49046,-0.144253 -0.08655,-0.144253 -0.08655,-0.461609 l 0,-2.019542 q 0,-0.346207 0.115403,-0.46161 0.115402,-0.144253 0.461609,-0.144253 l 17.252658,0 q 0.115402,-0.634713 0.201954,-1.442529 0.115402,-0.836668 0.201954,-1.586783 0.08655,-0.778966 0.115402,-1.384829 0.0577,-0.634713 0.0577,-0.894368 0,-0.432759 -0.115402,-0.605863 -0.115402,-0.201954 -0.663564,-0.201954 l -13.04047,0 q -0.288506,0 -0.461609,-0.0577 -0.144253,-0.08655 -0.144253,-0.46161 l 0,-2.250347 q 0,-0.317356 0.144253,-0.403908 0.173103,-0.08655 0.461609,-0.08655 l 15.723576,0 q 1.038621,0 1.529082,0.46161 0.49046,0.432759 0.49046,1.529082 0,1.529081 -0.144253,3.462071 -0.144253,1.90414 -0.548162,3.923681 l 3.692877,0 q 0.259655,0 0.432759,0.144253 0.1731,0.115403 0.1731,0.46161 l 0,2.019542 q 0,0.605862 -0.605859,0.605862 z m -7.443454,8.19357 -9.838054,0 0,1.961841 q 0,0.259655 0.259655,0.259655 l 9.318743,0 q 0.259656,0 0.259656,-0.259655 l 0,-1.961841 z"
         style="font-style:normal;font-variant:normal;font-weight:bold;font-stretch:normal;font-family:sans-serif;-inkscape-font-specification:'sans-serif Bold';fill:#ffffff;fill-opacity:1"
         id="path4159" />
    </g>
    <rect
       ry="5.9030401e-05"
       y="2.6171874e-06"
       x="-4.7412109e-06"
       height="120"
       width="120"
       id="rect9899-1-2-6-8-8-9"
       style="color:#000000;clip-rule:nonzero;display:inline;overflow:visible;visibility:visible;opacity:1;isolation:auto;mix-blend-mode:normal;color-interpolation:sRGB;color-interpolation-filters:linearRGB;solid-color:#000000;solid-opacity:1;fill:#e85c41;fill-opacity:0;fill-rule:nonzero;stroke:none;stroke-width:0;stroke-linecap:butt;stroke-linejoin:miter;stroke-miterlimit:4;stroke-dasharray:none;stroke-dashoffset:0;stroke-opacity:1;color-rendering:auto;image-rendering:auto;shape-rendering:auto;text-rendering:auto;enable-background:accumulate" />
  </g>
</svg>
