<?xml version="1.0" encoding="UTF-8" standalone="no"?>
<svg
   xmlns:dc="http://purl.org/dc/elements/1.1/"
   xmlns:cc="http://creativecommons.org/ns#"
   xmlns:rdf="http://www.w3.org/1999/02/22-rdf-syntax-ns#"
   xmlns:svg="http://www.w3.org/2000/svg"
   xmlns="http://www.w3.org/2000/svg"
   id="svg4208"
   xml:space="preserve"
   enable-background="new 0 0 100 57.326"
   viewBox="0 0 100 57.326"
   y="0px"
   x="0px"
   version="1.1"><metadata
     id="metadata4218"><rdf:RDF><cc:Work
         rdf:about=""><dc:format>image/svg+xml</dc:format><dc:type
           rdf:resource="http://purl.org/dc/dcmitype/StillImage" /><dc:title></dc:title></cc:Work></rdf:RDF></metadata><defs
     id="defs4216" /><path
     style="fill:#e85c41;fill-opacity:1"
     id="path4210"
     d="M91.167,33.178c-14.536-14.537-29.36-21.468-44.049-20.612C24.88,13.864,9.951,32.445,9.802,32.634L0,24.888  C0.747,23.943,18.616,1.714,46.39,0.093C64.8-0.974,82.834,7.176,100,24.344L91.167,33.178z"
     fill="#010101" /><path
     style="fill:#e85c41;fill-opacity:1"
     id="path4212"
     d="M50.242,57.326c-11.307,0-20.506-9.199-20.506-20.506s9.199-20.506,20.506-20.506  s20.504,9.199,20.504,20.506S61.549,57.326,50.242,57.326z M50.242,28.808c-4.418,0-8.012,3.594-8.012,8.013  c0,4.418,3.594,8.012,8.012,8.012c4.417,0,8.011-3.594,8.011-8.012C58.253,32.401,54.659,28.808,50.242,28.808z"
     fill="#010101" /></svg>