<?xml version="1.0" encoding="UTF-8" standalone="no"?>
<svg
   xmlns:dc="http://purl.org/dc/elements/1.1/"
   xmlns:cc="http://creativecommons.org/ns#"
   xmlns:rdf="http://www.w3.org/1999/02/22-rdf-syntax-ns#"
   xmlns:svg="http://www.w3.org/2000/svg"
   xmlns="http://www.w3.org/2000/svg"
   xmlns:sodipodi="http://sodipodi.sourceforge.net/DTD/sodipodi-0.dtd"
   xmlns:inkscape="http://www.inkscape.org/namespaces/inkscape"
   version="1.1"
   id="svg4197"
   viewBox="0 0 560.00001 460.00001"
   height="460"
   width="560"
   inkscape:version="0.91 r13725"
   sodipodi:docname="new_class.svg">
  <sodipodi:namedview
     pagecolor="#ffffff"
     bordercolor="#666666"
     borderopacity="1"
     objecttolerance="10"
     gridtolerance="10"
     guidetolerance="10"
     inkscape:pageopacity="0"
     inkscape:pageshadow="2"
     inkscape:window-width="1119"
     inkscape:window-height="1077"
     id="namedview16"
     showgrid="false"
     inkscape:zoom="0.51"
     inkscape:cx="190.54124"
     inkscape:cy="230"
     inkscape:window-x="0"
     inkscape:window-y="0"
     inkscape:window-maximized="0"
     inkscape:current-layer="svg4197" />
  <defs
     id="defs4199" />
  <metadata
     id="metadata4202">
    <rdf:RDF>
      <cc:Work
         rdf:about="">
        <dc:format>image/svg+xml</dc:format>
        <dc:type
           rdf:resource="http://purl.org/dc/dcmitype/StillImage" />
        <dc:title />
      </cc:Work>
    </rdf:RDF>
  </metadata>
  <rect
     ry="5.9030401e-05"
     y="3.1347656e-06"
     x="-2.7832032e-06"
     height="460"
     width="560"
     id="rect4157-4-5"
     style="color:#000000;font-style:normal;font-weight:normal;font-size:medium;line-height:125%;font-family:sans-serif;letter-spacing:0px;word-spacing:0px;clip-rule:nonzero;display:inline;overflow:visible;visibility:visible;opacity:1;isolation:auto;mix-blend-mode:normal;color-interpolation:sRGB;color-interpolation-filters:linearRGB;solid-color:#000000;solid-opacity:1;fill:#f9f9f9;fill-opacity:1;fill-rule:nonzero;stroke:none;stroke-width:0;stroke-linecap:butt;stroke-linejoin:miter;stroke-miterlimit:4;stroke-dasharray:none;stroke-dashoffset:0;stroke-opacity:1;color-rendering:auto;image-rendering:auto;shape-rendering:auto;text-rendering:auto;enable-background:accumulate" />
  <path
     inkscape:connector-curvature="0"
     id="path3357"
     style="font-style:normal;font-variant:normal;font-weight:bold;font-stretch:normal;font-size:70px;line-height:125%;font-family:sans-serif;-inkscape-font-specification:'sans-serif Bold';text-align:center;letter-spacing:0px;word-spacing:0px;text-anchor:middle;fill:#b3b3b3;fill-opacity:1;stroke:none;stroke-width:1px;stroke-linecap:butt;stroke-linejoin:miter;stroke-opacity:1"
     d="m 100.24879,220.06001 -7.070002,0 q -0.77,0 -1.05,-0.28 -0.21,-0.21 -0.21,-0.98 l 0,-32.76 -5.39,0 0,30.17 q 0,0.91 -0.28,1.05 -0.21,0.21 -0.98,0.21 l -6.58,0 q -0.77,0 -1.05,-0.21 -0.28,-0.14 -0.28,-1.05 l 0,-60.76 q 0,-0.77 0.28,-0.98 0.28,-0.28 1.05,-0.28 l 6.58,0 q 0.77,0 0.98,0.28 0.28,0.21 0.28,0.98 l 0,22.68 5.39,0 0,-23.94 q 0,-0.77 0.28,-0.98 0.28,-0.28 1.05,-0.28 l 7.000002,0 q 0.77,0 0.98,0.28 0.28,0.21 0.28,0.98 l 0,64.61 q 0,0.77 -0.28,0.98 -0.21,0.28 -0.98,0.28 z m -51.940002,-16.24 q -0.77,0.77 -1.26,0.84 -0.42,0 -1.19,-0.77 l -3.78,-3.78 q -0.77,-0.77 -0.98,-1.12 -0.14,-0.42 0.77,-1.33 3.5,-3.64 5.95,-7.77 2.52,-4.13 4.13,-8.96 1.61,-4.83 2.38,-10.43 0.77,-5.67 0.77,-12.18 0,-0.98 0.28,-1.26 0.28,-0.35 1.12,-0.35 l 6.51,0.28 q 0.7,0.07 0.98,0.28 0.28,0.21 0.28,1.19 0,9.94 -1.47,17.92 0.91,3.15 2.24,6.09 1.33,2.87 2.87,5.39 1.61,2.52 3.22,4.62 1.68,2.03 3.22,3.5 0.7,0.7 0.7,1.12 0,0.42 -0.63,1.19 l -3.78,4.27 q -0.56,0.7 -1.05,0.7 -0.49,0 -1.26,-0.7 -1.05,-0.84 -2.38,-2.24 -1.26,-1.4 -2.59,-3.15 -1.26,-1.75 -2.52,-3.64 -1.19,-1.96 -2.1,-3.85 -3.71,7.98 -10.43,14.14 z" />
  <path
     inkscape:connector-curvature="0"
     id="path3359"
     style="font-style:normal;font-variant:normal;font-weight:bold;font-stretch:normal;font-size:70px;line-height:125%;font-family:sans-serif;-inkscape-font-specification:'sans-serif Bold';text-align:center;letter-spacing:0px;word-spacing:0px;text-anchor:middle;fill:#b3b3b3;fill-opacity:1;stroke:none;stroke-width:1px;stroke-linecap:butt;stroke-linejoin:miter;stroke-opacity:1"
     d="m 169.16051,208.86001 -60.13,0 q -0.91,0 -1.19,-0.42 -0.21,-0.42 -0.21,-1.05 l 0,-4.9 q 0,-0.77 0.21,-1.12 0.28,-0.35 1.19,-0.35 l 25.2,0 0,-8.82 -12.67,0 q -3.08,0 -4.13,-1.12 -0.98,-1.12 -0.98,-3.78 l 0,-12.53 q 0,-1.33 0.21,-2.17 0.21,-0.91 0.7,-1.4 0.56,-0.56 1.47,-0.77 0.98,-0.28 2.52,-0.28 l 29.75,0 q 0.91,0 0.91,-0.91 l 0,-4.27 q 0,-0.84 -0.91,-0.84 l -32.9,0 q -0.77,0 -1.12,-0.28 -0.28,-0.28 -0.28,-1.12 l 0,-5.11 q 0,-1.33 1.4,-1.33 l 38.15,0 q 1.54,0 2.52,0.21 1.05,0.21 1.54,0.77 0.56,0.49 0.77,1.4 0.21,0.91 0.21,2.31 l 0,11.97 q 0,1.47 -0.21,2.38 -0.21,0.91 -0.77,1.47 -0.49,0.49 -1.54,0.7 -0.98,0.21 -2.52,0.21 l -29.61,0 q -0.84,0 -0.84,0.77 l 0,5.04 q 0,0.84 0.91,0.84 l 34.72,0 q 0.77,0 1.12,0.21 0.35,0.14 0.35,1.12 l 0,5.11 q 0,1.4 -1.4,1.4 l -17.64,0 0,8.82 25.2,0 q 1.47,0 1.47,1.47 l 0,4.9 q 0,1.47 -1.47,1.47 z" />
  <path
     inkscape:connector-curvature="0"
     id="path3361"
     style="font-style:normal;font-variant:normal;font-weight:bold;font-stretch:normal;font-size:70px;line-height:125%;font-family:sans-serif;-inkscape-font-specification:'sans-serif Bold';text-align:center;letter-spacing:0px;word-spacing:0px;text-anchor:middle;fill:#b3b3b3;fill-opacity:1;stroke:none;stroke-width:1px;stroke-linecap:butt;stroke-linejoin:miter;stroke-opacity:1"
     d="m 205.03223,181.07001 q -4.76,0 -8.96,-0.91 -4.13,-0.91 -7.21,-2.59 -3.08,-1.75 -4.9,-4.27 -1.75,-2.52 -1.75,-5.74 0,-3.22 1.75,-5.67 1.82,-2.52 4.9,-4.27 3.08,-1.75 7.21,-2.66 4.2,-0.91 8.96,-0.91 4.76,0 8.89,0.91 4.2,0.91 7.28,2.66 3.15,1.75 4.9,4.27 1.82,2.45 1.82,5.67 0,3.22 -1.82,5.74 -1.75,2.52 -4.9,4.27 -3.08,1.68 -7.28,2.59 -4.13,0.91 -8.89,0.91 z m 29.89,11.69 -24.64,0 0,11.06 q 0,0.77 -0.35,1.05 -0.28,0.28 -1.12,0.28 l -6.86,0 q -0.84,0 -1.12,-0.28 -0.28,-0.28 -0.28,-1.05 l 0,-11.06 -25.76,0 q -0.91,0 -1.19,-0.42 -0.21,-0.42 -0.21,-1.12 l 0,-4.97 q 0,-0.77 0.21,-1.12 0.28,-0.35 1.19,-0.35 l 60.13,0 q 1.47,0 1.47,1.47 l 0,4.97 q 0,1.54 -1.47,1.54 z m -7.21,26.18 -40.46,0 q -1.47,0 -2.45,-0.28 -0.91,-0.21 -1.47,-0.77 -0.49,-0.56 -0.7,-1.54 -0.21,-0.98 -0.21,-2.45 l 0,-15.33 q 0,-1.47 1.4,-1.47 l 6.86,0 q 1.4,0 1.4,1.47 l 0,11.34 q 0,1.05 1.12,1.05 l 34.51,0 q 0.56,0 0.98,0.21 0.49,0.28 0.49,1.05 l 0,5.46 q 0,0.98 -0.49,1.12 -0.42,0.14 -0.98,0.14 z m -22.68,-57.12 q -6.16,0 -9.52,1.82 -3.29,1.75 -3.29,3.92 0,1.05 0.84,2.1 0.84,0.98 2.45,1.82 1.68,0.77 4.06,1.26 2.38,0.49 5.46,0.49 6.09,0 9.38,-1.75 3.36,-1.82 3.36,-3.92 0,-2.17 -3.29,-3.92 -3.29,-1.82 -9.45,-1.82 z" />
  <path
     inkscape:connector-curvature="0"
     id="path3363"
     style="font-style:normal;font-variant:normal;font-weight:bold;font-stretch:normal;font-size:70px;line-height:125%;font-family:sans-serif;-inkscape-font-specification:'sans-serif Bold';text-align:center;letter-spacing:0px;word-spacing:0px;text-anchor:middle;fill:#b3b3b3;fill-opacity:1;stroke:none;stroke-width:1px;stroke-linecap:butt;stroke-linejoin:miter;stroke-opacity:1"
     d="m 269.55473,173.58001 q -0.77,0 -1.05,-0.28 -0.21,-0.35 -0.21,-1.19 l 0,-4.69 q 0,-0.77 0.21,-1.05 0.28,-0.35 1.05,-0.35 4.48,0 9.03,0 4.55,0 8.96,0 4.48,0 8.61,-0.07 4.13,-0.07 7.77,-0.21 0.07,-0.77 0.07,-1.4 0.07,-0.7 0.07,-1.26 0,-1.05 -0.35,-1.47 -0.28,-0.49 -1.54,-0.49 l -32.69,0 q -0.7,0 -1.12,-0.14 -0.35,-0.21 -0.35,-1.12 l 0,-5.32 q 0,-0.77 0.35,-0.98 0.42,-0.21 1.12,-0.21 l 39.2,0 q 2.52,0 3.71,1.12 1.26,1.05 1.26,3.71 0,1.82 -0.14,4.27 -0.14,2.38 -0.42,5.11 -0.21,2.66 -0.63,5.46 -0.35,2.73 -0.77,5.18 l 8.47,0 q 1.47,0 1.47,1.54 l 0,4.76 q 0,0.84 -0.42,1.12 -0.42,0.28 -1.05,0.28 l -60.06,0 q -0.84,0 -1.12,-0.28 -0.28,-0.35 -0.28,-1.12 l 0,-4.76 q 0,-0.84 0.21,-1.19 0.21,-0.35 1.19,-0.35 l 42.35,0 q 0.14,-0.98 0.35,-2.24 0.21,-1.26 0.35,-2.66 -3.71,0.14 -7.84,0.21 -4.06,0.07 -8.4,0.07 -4.27,0 -8.68,0 -4.41,0 -8.68,0 z m 42.7,46.06 -39.06,0 q -1.54,0 -2.52,-0.28 -0.91,-0.21 -1.47,-0.77 -0.49,-0.49 -0.7,-1.4 -0.14,-0.84 -0.14,-2.1 l 0,-9.45 q 0,-1.33 0.14,-2.17 0.21,-0.84 0.7,-1.33 0.56,-0.56 1.47,-0.77 0.91,-0.21 2.45,-0.21 l 28.56,0 q 0.63,0 0.63,-0.77 l 0,-1.89 q 0,-0.84 -0.7,-0.84 l -31.99,0 q -0.77,0 -1.12,-0.28 -0.28,-0.28 -0.28,-1.12 l 0,-4.83 q 0,-1.33 1.4,-1.33 l 37.24,0 q 3.15,0 4.06,1.05 0.91,0.98 0.91,3.43 l 0,9.31 q 0,1.4 -0.21,2.31 -0.14,0.84 -0.63,1.33 -0.49,0.49 -1.47,0.7 -0.98,0.14 -2.52,0.14 l -28.35,0 q -0.7,0 -0.7,0.7 l 0,2.24 q 0,0.77 0.77,0.77 l 33.46,0 q 0.77,0 1.12,0.21 0.35,0.21 0.35,1.12 l 0,4.83 q 0,1.4 -1.4,1.4 z" />
  <path
     inkscape:connector-curvature="0"
     id="path3365"
     style="font-style:normal;font-variant:normal;font-weight:bold;font-stretch:normal;font-size:70px;line-height:125%;font-family:sans-serif;-inkscape-font-specification:'sans-serif Bold';text-align:center;letter-spacing:0px;word-spacing:0px;text-anchor:middle;fill:#b3b3b3;fill-opacity:1;stroke:none;stroke-width:1px;stroke-linecap:butt;stroke-linejoin:miter;stroke-opacity:1"
     d="m 382.84644,220.06001 -7.07,0 q -0.77,0 -1.05,-0.28 -0.21,-0.21 -0.21,-0.98 l 0,-32.76 -5.53,0 0,30.17 q 0,0.91 -0.28,1.05 -0.21,0.21 -0.98,0.21 l -6.58,0 q -0.77,0 -1.05,-0.21 -0.28,-0.14 -0.28,-1.05 l 0,-60.76 q 0,-0.77 0.28,-0.98 0.28,-0.28 1.05,-0.28 l 6.58,0 q 0.77,0 0.98,0.28 0.28,0.21 0.28,0.98 l 0,22.68 5.53,0 0,-23.94 q 0,-0.77 0.28,-0.98 0.28,-0.28 1.05,-0.28 l 7,0 q 0.77,0 0.98,0.28 0.28,0.21 0.28,0.98 l 0,64.61 q 0,0.77 -0.28,0.98 -0.21,0.28 -0.98,0.28 z m -27.23,-18.34 q -2.38,0.63 -5.46,1.05 -3.08,0.42 -6.3,0.7 -3.15,0.28 -6.23,0.35 -3.01,0 -5.39,-0.14 -3.08,-0.21 -4.2,-1.26 -1.05,-1.05 -1.05,-3.71 l 0,-18.27 q 0,-2.24 0.98,-3.15 0.98,-0.91 3.22,-0.91 l 11.76,0 q 0.63,0 0.77,-0.14 0.21,-0.21 0.21,-0.84 l 0,-8.54 q 0,-0.63 -0.21,-0.77 -0.14,-0.21 -0.77,-0.21 l -14.14,0 q -1.4,0 -1.4,-1.33 l 0,-5.32 q 0,-0.77 0.28,-1.05 0.35,-0.28 1.12,-0.28 l 19.67,0 q 1.54,0 2.45,0.28 0.98,0.21 1.47,0.77 0.49,0.56 0.63,1.47 0.21,0.91 0.21,2.31 l 0,16.17 q 0,2.94 -1.19,3.99 -1.12,0.98 -3.64,0.98 l -11.2,0 q -0.91,0 -0.91,0.91 l 0,10.01 q 0,0.91 1.05,0.91 3.43,0.14 7.56,-0.14 4.13,-0.35 9.59,-1.33 0.77,-0.14 0.91,0.14 0.21,0.21 0.35,0.77 l 0.91,5.18 q 0.14,0.77 -0.07,0.98 -0.21,0.21 -0.98,0.42 z" />
  <path
     inkscape:connector-curvature="0"
     id="path3367"
     style="font-style:normal;font-variant:normal;font-weight:bold;font-stretch:normal;font-size:70px;line-height:125%;font-family:sans-serif;-inkscape-font-specification:'sans-serif Bold';text-align:center;letter-spacing:0px;word-spacing:0px;text-anchor:middle;fill:#b3b3b3;fill-opacity:1;stroke:none;stroke-width:1px;stroke-linecap:butt;stroke-linejoin:miter;stroke-opacity:1"
     d="m 399.04816,189.96001 q -0.98,0.35 -1.33,0.21 -0.35,-0.14 -0.77,-0.84 l -2.73,-4.9 q -0.91,-1.61 0.35,-2.1 5.11,-1.89 8.96,-4.34 3.92,-2.45 6.65,-5.53 2.73,-3.08 4.27,-6.86 1.61,-3.78 2.1,-8.47 0.14,-0.77 0.42,-1.12 0.28,-0.35 1.26,-0.28 l 6.65,0.42 q 1.26,0.14 1.47,0.49 0.28,0.28 0.14,1.26 -0.14,1.96 -0.42,3.71 0.98,3.5 3.08,6.51 2.17,3.01 5.11,5.46 2.94,2.45 6.44,4.34 3.5,1.82 7.28,2.94 0.91,0.28 0.98,0.7 0.07,0.42 -0.35,1.19 l -2.52,5.18 q -0.28,0.42 -0.35,0.63 -0.14,0.28 -0.28,0.28 -0.28,0.21 -1.12,0 -3.08,-0.7 -6.3,-2.17 -3.15,-1.54 -6.16,-3.57 -3.01,-2.03 -5.6,-4.62 -2.59,-2.59 -4.48,-5.53 -3.64,5.95 -9.59,10.29 -5.95,4.27 -13.16,6.72 z m 52.71,18.2 -60.13,0 q -0.91,0 -1.19,-0.42 -0.21,-0.42 -0.21,-1.05 l 0,-5.04 q 0,-0.77 0.21,-1.12 0.28,-0.35 1.19,-0.35 l 60.13,0 q 1.47,0 1.47,1.47 l 0,5.04 q 0,1.47 -1.47,1.47 z" />
  <path
     inkscape:connector-curvature="0"
     id="path3369"
     style="font-style:normal;font-variant:normal;font-weight:bold;font-stretch:normal;font-size:70px;line-height:125%;font-family:sans-serif;-inkscape-font-specification:'sans-serif Bold';text-align:center;letter-spacing:0px;word-spacing:0px;text-anchor:middle;fill:#b3b3b3;fill-opacity:1;stroke:none;stroke-width:1px;stroke-linecap:butt;stroke-linejoin:miter;stroke-opacity:1"
     d="m 517.44988,189.68001 -60.06,0 q -0.98,0 -1.19,-0.35 -0.21,-0.35 -0.21,-1.12 l 0,-4.55 q 0,-0.77 0.28,-1.05 0.28,-0.35 1.12,-0.35 l 60.06,0 q 0.63,0 1.05,0.28 0.42,0.28 0.42,1.12 l 0,4.55 q 0,1.47 -1.47,1.47 z m -8.19,-10.57 -38.43,0 q -3.08,0 -4.13,-1.12 -0.98,-1.12 -0.98,-3.78 l 0,-7.21 q 0,-1.33 0.21,-2.17 0.21,-0.91 0.7,-1.4 0.56,-0.56 1.47,-0.77 0.98,-0.28 2.52,-0.28 l 28.49,0 q 0.63,0 0.63,-0.77 l 0,-1.26 q 0,-0.84 -0.7,-0.84 l -31.57,0 q -1.4,0 -1.4,-1.4 l 0,-4.34 q 0,-1.33 1.4,-1.33 l 36.75,0 q 1.54,0 2.52,0.21 1.05,0.21 1.54,0.77 0.56,0.49 0.77,1.4 0.21,0.84 0.21,2.24 l 0,7.35 q 0,1.4 -0.21,2.31 -0.21,0.91 -0.77,1.47 -0.49,0.49 -1.54,0.7 -0.98,0.21 -2.52,0.21 l -28.21,0 q -0.7,0 -0.7,0.7 l 0,1.47 q 0,0.77 0.77,0.77 l 33.11,0 q 0.77,0 1.12,0.21 0.35,0.21 0.35,1.12 l 0,4.34 q 0,1.4 -1.4,1.4 z m 0.28,40.95 -39.06,0 q -1.54,0 -2.52,-0.28 -0.91,-0.21 -1.47,-0.77 -0.49,-0.49 -0.7,-1.4 -0.14,-0.84 -0.14,-2.1 l 0,-7.98 q 0,-1.33 0.14,-2.17 0.21,-0.84 0.7,-1.33 0.56,-0.56 1.47,-0.77 0.91,-0.21 2.45,-0.21 l 28.56,0 q 0.63,0 0.63,-0.77 l 0,-1.19 q 0,-0.84 -0.7,-0.84 l -31.99,0 q -0.77,0 -1.12,-0.28 -0.28,-0.28 -0.28,-1.12 l 0,-4.41 q 0,-1.33 1.4,-1.33 l 37.24,0 q 3.15,0 4.06,1.05 0.91,0.98 0.91,3.5 l 0,7.7 q 0,1.4 -0.21,2.31 -0.14,0.84 -0.63,1.33 -0.49,0.49 -1.47,0.63 -0.98,0.21 -2.52,0.21 l -28.35,0 q -0.7,0 -0.7,0.7 l 0,1.61 q 0,0.77 0.77,0.77 l 33.46,0 q 0.77,0 1.12,0.21 0.35,0.21 0.35,1.12 l 0,4.41 q 0,1.4 -1.4,1.4 z" />
  <path
     inkscape:connector-curvature="0"
     id="path3371"
     style="font-style:normal;font-variant:normal;font-weight:bold;font-stretch:normal;font-size:70px;line-height:125%;font-family:sans-serif;-inkscape-font-specification:'sans-serif Bold';text-align:center;letter-spacing:0px;word-spacing:0px;text-anchor:middle;fill:#b3b3b3;fill-opacity:1;stroke:none;stroke-width:1px;stroke-linecap:butt;stroke-linejoin:miter;stroke-opacity:1"
     d="m 212.86676,268.36001 -8.68,0 0,17.85 q 0,0.77 -0.28,1.05 -0.21,0.28 -0.98,0.28 l -7.07,0 q -0.77,0 -1.12,-0.28 -0.28,-0.28 -0.28,-1.05 l 0,-44.45 q 0,-1.33 1.4,-1.33 l 7.07,0 q 1.26,0 1.26,1.33 l 0,18.62 8.68,0 q 0.56,0 0.98,0.14 0.42,0.14 0.42,1.05 l 0,5.53 q 0,0.77 -0.42,1.05 -0.35,0.21 -0.98,0.21 z m -30.59,8.54 -21.63,0 q -1.61,0 -2.66,-0.14 -0.98,-0.21 -1.54,-0.7 -0.56,-0.56 -0.77,-1.47 -0.21,-0.98 -0.21,-2.52 l 0,-22.75 q 0,-3.01 1.05,-3.85 1.12,-0.84 3.71,-0.84 l 22.05,0 q 1.47,0 2.38,0.14 0.91,0.14 1.4,0.63 0.56,0.49 0.77,1.47 0.21,0.91 0.21,2.45 l 0,22.75 q 0,1.54 -0.21,2.52 -0.21,0.91 -0.77,1.47 -0.49,0.49 -1.4,0.7 -0.91,0.14 -2.38,0.14 z m 23.31,29.54 -38.15,0 q -3.01,0 -3.99,-1.05 -0.91,-1.05 -0.91,-3.99 l 0,-15.61 q 0,-1.47 1.47,-1.47 l 6.86,0 q 1.4,0 1.4,1.47 l 0,11.62 q 0,1.05 1.12,1.05 l 32.2,0 q 0.56,0 0.98,0.21 0.49,0.28 0.49,1.05 l 0,5.46 q 0,0.98 -0.49,1.12 -0.42,0.14 -0.98,0.14 z m -28.07,-52.5 q 0,-0.91 -0.14,-1.12 -0.14,-0.28 -1.05,-0.28 l -9.94,0 q -0.91,0 -1.19,0.21 -0.21,0.21 -0.21,1.19 l 0,13.72 q 0,0.98 0.21,1.19 0.28,0.21 1.19,0.21 l 9.94,0 q 0.91,0 1.05,-0.28 0.14,-0.28 0.14,-1.12 l 0,-13.72 z" />
  <path
     inkscape:connector-curvature="0"
     id="path3373"
     style="font-style:normal;font-variant:normal;font-weight:bold;font-stretch:normal;font-size:70px;line-height:125%;font-family:sans-serif;-inkscape-font-specification:'sans-serif Bold';text-align:center;letter-spacing:0px;word-spacing:0px;text-anchor:middle;fill:#b3b3b3;fill-opacity:1;stroke:none;stroke-width:1px;stroke-linecap:butt;stroke-linejoin:miter;stroke-opacity:1"
     d="m 268.40848,264.86001 -37.03,0 q -3.08,0 -4.41,-1.4 -1.26,-1.47 -1.26,-4.2 l 0,-13.16 q 0,-3.01 1.19,-3.92 1.26,-0.98 4.2,-0.98 l 36.96,0 q 1.33,0 1.33,1.33 l 0,5.18 q 0,0.77 -0.28,1.05 -0.28,0.28 -1.05,0.28 l -31.43,0 q -1.12,0 -1.12,1.12 l 0,5.81 q 0,1.12 1.12,1.12 l 31.78,0 q 1.54,0 1.54,1.19 l 0,5.11 q 0,1.47 -1.54,1.47 z m 9.1,12.04 -60.06,0 q -0.98,0 -1.19,-0.35 -0.21,-0.35 -0.21,-1.12 l 0,-4.9 q 0,-0.77 0.28,-1.05 0.28,-0.35 1.12,-0.35 l 60.06,0 q 0.63,0 1.05,0.28 0.42,0.28 0.42,1.12 l 0,4.9 q 0,1.47 -1.47,1.47 z m -13.65,29.47 -32.55,0 q -1.68,0 -2.73,-0.21 -1.05,-0.21 -1.68,-0.77 -0.56,-0.49 -0.84,-1.47 -0.21,-0.98 -0.21,-2.59 l 0,-19.53 q 0,-1.26 1.33,-1.26 l 6.93,0 q 0.77,0 1.12,0.28 0.35,0.21 0.35,0.98 l 0,4.76 23.87,0 0,-4.76 q 0,-1.33 1.4,-1.33 l 7.07,0 q 0.63,0 0.91,0.28 0.35,0.28 0.35,1.05 l 0,19.74 q 0,2.73 -1.05,3.78 -0.98,1.05 -4.27,1.05 z m -4.41,-12.11 -23.87,0 0,3.57 q 0,0.63 0.63,0.63 l 22.61,0 q 0.63,0 0.63,-0.63 l 0,-3.57 z" />
  <path
     inkscape:connector-curvature="0"
     id="path3375"
     style="font-style:normal;font-variant:normal;font-weight:bold;font-stretch:normal;font-size:70px;line-height:125%;font-family:sans-serif;-inkscape-font-specification:'sans-serif Bold';text-align:center;letter-spacing:0px;word-spacing:0px;text-anchor:middle;fill:#b3b3b3;fill-opacity:1;stroke:none;stroke-width:1px;stroke-linecap:butt;stroke-linejoin:miter;stroke-opacity:1"
     d="m 337.11019,307.56001 -7,0 q -0.77,0 -1.05,-0.28 -0.28,-0.21 -0.28,-1.05 l 0,-64.47 q 0,-0.77 0.28,-1.05 0.28,-0.28 1.05,-0.28 l 7,0 q 0.77,0 1.05,0.28 0.28,0.28 0.28,1.05 l 0,64.47 q 0,0.84 -0.28,1.05 -0.28,0.28 -1.05,0.28 z m -12.88,-21.56 q -3.92,0.77 -8.4,1.26 -4.41,0.49 -8.68,0.77 -4.27,0.21 -7.98,0.28 -3.71,0 -6.16,-0.14 -2.94,-0.14 -4.13,-1.26 -1.19,-1.19 -1.19,-3.92 l 0,-36.89 q 0,-1.47 1.33,-1.47 l 6.93,0 q 1.47,0 1.47,1.47 l 0,32.55 q 0,0.7 0.21,0.98 0.21,0.21 1.05,0.28 2.17,0.14 5.25,0.07 3.15,-0.07 6.51,-0.35 3.43,-0.28 6.65,-0.63 3.29,-0.42 5.74,-0.91 0.84,-0.14 1.12,0.14 0.28,0.21 0.35,0.56 l 0.98,5.74 q 0.35,1.19 -1.05,1.47 z" />
  <path
     inkscape:connector-curvature="0"
     id="path3377"
     style="font-style:normal;font-variant:normal;font-weight:bold;font-stretch:normal;font-size:70px;line-height:125%;font-family:sans-serif;-inkscape-font-specification:'sans-serif Bold';text-align:center;letter-spacing:0px;word-spacing:0px;text-anchor:middle;fill:#b3b3b3;fill-opacity:1;stroke:none;stroke-width:1px;stroke-linecap:butt;stroke-linejoin:miter;stroke-opacity:1"
     d="m 410.15191,273.61001 -8.68,0 0,32.62 q 0,0.84 -0.28,1.05 -0.21,0.28 -0.98,0.28 l -7.07,0 q -0.77,0 -1.12,-0.28 -0.28,-0.21 -0.28,-1.05 l 0,-64.47 q 0,-0.77 0.28,-1.05 0.35,-0.28 1.12,-0.28 l 7.07,0 q 0.77,0 0.98,0.28 0.28,0.28 0.28,1.05 l 0,23.87 8.68,0 q 0.63,0 0.98,0.21 0.42,0.14 0.42,1.12 l 0,5.32 q 0,0.84 -0.42,1.12 -0.35,0.21 -0.98,0.21 z m -23.17,12.6 q -2.94,0.7 -6.86,1.26 -3.92,0.49 -8.12,0.84 -4.13,0.28 -8.12,0.35 -3.92,0.07 -6.93,-0.07 -2.52,-0.07 -3.78,-0.91 -1.19,-0.84 -1.19,-3.78 l 0,-33.74 q 0,-2.8 0.91,-3.64 0.98,-0.84 3.85,-0.84 l 25.27,0 q 0.77,0 1.05,0.28 0.35,0.21 0.35,0.98 l 0,5.53 q 0,0.77 -0.35,0.98 -0.28,0.21 -1.05,0.21 l -19.32,0 q -0.7,0 -0.84,0.28 -0.14,0.28 -0.14,0.7 l 0,24.71 q 0,1.12 1.12,1.12 2.52,0.07 5.39,0 2.87,-0.07 5.88,-0.28 3.01,-0.28 6.02,-0.63 3.01,-0.42 5.74,-0.91 0.77,-0.14 1.05,0.14 0.28,0.21 0.42,0.77 l 0.84,5.11 q 0.14,0.77 -0.14,1.05 -0.28,0.28 -1.05,0.49 z" />
</svg>
