<?xml version="1.0" encoding="UTF-8" standalone="no"?>
<svg
   xmlns:dc="http://purl.org/dc/elements/1.1/"
   xmlns:cc="http://creativecommons.org/ns#"
   xmlns:rdf="http://www.w3.org/1999/02/22-rdf-syntax-ns#"
   xmlns:svg="http://www.w3.org/2000/svg"
   xmlns="http://www.w3.org/2000/svg"
   version="1.1"
   id="svg2"
   viewBox="0 0 200.00002 259.99999"
   height="73.377777mm"
   width="56.44445mm">
  <defs
     id="defs4" />
  <metadata
     id="metadata7">
    <rdf:RDF>
      <cc:Work
         rdf:about="">
        <dc:format>image/svg+xml</dc:format>
        <dc:type
           rdf:resource="http://purl.org/dc/dcmitype/StillImage" />
        <dc:title></dc:title>
      </cc:Work>
    </rdf:RDF>
  </metadata>
  <g
     transform="translate(0,-752.36218)"
     id="layer1">
    <g
       id="g4328">
      <rect
         style="color:#000000;clip-rule:nonzero;display:inline;overflow:visible;visibility:visible;opacity:1;isolation:auto;mix-blend-mode:normal;color-interpolation:sRGB;color-interpolation-filters:linearRGB;solid-color:#000000;solid-opacity:1;fill:#3a3a3c;fill-opacity:1;fill-rule:nonzero;stroke:none;stroke-width:1;stroke-linecap:butt;stroke-linejoin:miter;stroke-miterlimit:4;stroke-dasharray:none;stroke-dashoffset:0;stroke-opacity:1;color-rendering:auto;image-rendering:auto;shape-rendering:auto;text-rendering:auto;enable-background:accumulate"
         id="rect4136"
         width="200"
         height="259.99997"
         x="0"
         y="752.36218"
         ry="4.5140889e-05" />
      <path
         style="color:#000000;clip-rule:nonzero;display:inline;overflow:visible;visibility:visible;opacity:1;isolation:auto;mix-blend-mode:normal;color-interpolation:sRGB;color-interpolation-filters:linearRGB;solid-color:#000000;solid-opacity:1;fill:#422d2c;fill-opacity:1;fill-rule:nonzero;stroke:none;stroke-width:1;stroke-linecap:butt;stroke-linejoin:miter;stroke-miterlimit:4;stroke-dasharray:none;stroke-dashoffset:0;stroke-opacity:1;color-rendering:auto;image-rendering:auto;shape-rendering:auto;text-rendering:auto;enable-background:accumulate"
         d="m 185.35544,947.00674 -30.00007,-5e-5 -8e-5,-30.00009 -20.00007,-7e-5 5e-5,30.00004 -30.00005,-3e-5 7e-5,20.00007 30.00008,7e-5 6e-5,30.00007 20.00001,10e-6 -5e-5,-30.00007 30.00005,6e-5 0,-20.00001 z"
         id="rect4144" />
      <path
         style="color:#000000;clip-rule:nonzero;display:inline;overflow:visible;visibility:visible;opacity:1;isolation:auto;mix-blend-mode:normal;color-interpolation:sRGB;color-interpolation-filters:linearRGB;solid-color:#000000;solid-opacity:1;fill:#f75540;fill-opacity:1;fill-rule:nonzero;stroke:none;stroke-width:1;stroke-linecap:butt;stroke-linejoin:miter;stroke-miterlimit:4;stroke-dasharray:none;stroke-dashoffset:0;stroke-opacity:1;color-rendering:auto;image-rendering:auto;shape-rendering:auto;text-rendering:auto;enable-background:accumulate"
         d="m 175.00022,937.36214 -30.00007,-5e-5 -8e-5,-30.00009 -20.00007,-7e-5 5e-5,30.00004 -30.00005,-3e-5 7e-5,20.00007 30.00008,7e-5 6e-5,30.0001 20.00001,0 -5e-5,-30.00009 30.00005,6e-5 0,-20.00001 z"
         id="rect4144-5" />
      <g
         id="g4315">
        <path
           d="m 45.358,801.36217 -3.03,0 q -0.33,0 -0.45,-0.12 -0.09,-0.09 -0.09,-0.42 l 0,-14.04 -2.31,0 0,12.93 q 0,0.39 -0.12,0.45 -0.09,0.09 -0.42,0.09 l -2.82,0 q -0.33,0 -0.45,-0.09 -0.12,-0.06 -0.12,-0.45 l 0,-26.04 q 0,-0.33 0.12,-0.42 0.12,-0.12 0.45,-0.12 l 2.82,0 q 0.33,0 0.42,0.12 0.12,0.09 0.12,0.42 l 0,9.72 2.31,0 0,-10.26 q 0,-0.33 0.12,-0.42 0.12,-0.12 0.45,-0.12 l 3,0 q 0.33,0 0.42,0.12 0.12,0.09 0.12,0.42 l 0,27.69 q 0,0.33 -0.12,0.42 -0.09,0.12 -0.42,0.12 z m -22.26,-6.96 q -0.33,0.33 -0.54,0.36 -0.18,0 -0.51,-0.33 l -1.62,-1.62 q -0.33,-0.33 -0.42,-0.48 -0.06,-0.18 0.33,-0.57 1.5,-1.56 2.55,-3.33 1.08,-1.77 1.77,-3.84 0.69,-2.07 1.02,-4.47 0.33,-2.43 0.33,-5.22 0,-0.42 0.12,-0.54 0.12,-0.15 0.48,-0.15 l 2.79,0.12 q 0.3,0.03 0.42,0.12 0.12,0.09 0.12,0.51 0,4.26 -0.63,7.68 0.39,1.35 0.96,2.61 0.57,1.23 1.23,2.31 0.69,1.08 1.38,1.98 0.72,0.87 1.38,1.5 0.3,0.3 0.3,0.48 0,0.18 -0.27,0.51 l -1.62,1.83 q -0.24,0.3 -0.45,0.3 -0.21,0 -0.54,-0.3 -0.45,-0.36 -1.02,-0.96 -0.54,-0.6 -1.11,-1.35 -0.54,-0.75 -1.08,-1.56 -0.51,-0.84 -0.9,-1.65 -1.59,3.42 -4.47,6.06 z"
           style="font-style:normal;font-variant:normal;font-weight:bold;font-stretch:normal;font-size:30px;line-height:125%;font-family:sans-serif;-inkscape-font-specification:'sans-serif Bold';letter-spacing:0px;word-spacing:0px;fill:#e7eddf;fill-opacity:1;stroke:none;stroke-width:1px;stroke-linecap:butt;stroke-linejoin:miter;stroke-opacity:1"
           id="path4282" />
        <path
           d="m 74.891593,796.56217 -25.77,0 q -0.39,0 -0.51,-0.18 -0.09,-0.18 -0.09,-0.45 l 0,-2.1 q 0,-0.33 0.09,-0.48 0.12,-0.15 0.51,-0.15 l 10.8,0 0,-3.78 -5.43,0 q -1.32,0 -1.77,-0.48 -0.42,-0.48 -0.42,-1.62 l 0,-5.37 q 0,-0.57 0.09,-0.93 0.09,-0.39 0.3,-0.6 0.24,-0.24 0.63,-0.33 0.42,-0.12 1.08,-0.12 l 12.75,0 q 0.39,0 0.39,-0.39 l 0,-1.83 q 0,-0.36 -0.39,-0.36 l -14.1,0 q -0.33,0 -0.48,-0.12 -0.12,-0.12 -0.12,-0.48 l 0,-2.19 q 0,-0.57 0.6,-0.57 l 16.35,0 q 0.66,0 1.08,0.09 0.45,0.09 0.66,0.33 0.24,0.21 0.33,0.6 0.09,0.39 0.09,0.99 l 0,5.13 q 0,0.63 -0.09,1.02 -0.09,0.39 -0.33,0.63 -0.21,0.21 -0.66,0.3 -0.42,0.09 -1.08,0.09 l -12.69,0 q -0.36,0 -0.36,0.33 l 0,2.16 q 0,0.36 0.39,0.36 l 14.88,0 q 0.33,0 0.48,0.09 0.15,0.06 0.15,0.48 l 0,2.19 q 0,0.6 -0.6,0.6 l -7.56,0 0,3.78 10.8,0 q 0.63,0 0.63,0.63 l 0,2.1 q 0,0.63 -0.63,0.63 z"
           style="font-style:normal;font-variant:normal;font-weight:bold;font-stretch:normal;font-size:30px;line-height:125%;font-family:sans-serif;-inkscape-font-specification:'sans-serif Bold';letter-spacing:0px;word-spacing:0px;fill:#e7eddf;fill-opacity:1;stroke:none;stroke-width:1px;stroke-linecap:butt;stroke-linejoin:miter;stroke-opacity:1"
           id="path4284" />
        <path
           d="m 90.265187,784.65217 q -2.04,0 -3.84,-0.39 -1.77,-0.39 -3.09,-1.11 -1.32,-0.75 -2.1,-1.83 -0.75,-1.08 -0.75,-2.46 0,-1.38 0.75,-2.43 0.78,-1.08 2.1,-1.83 1.32,-0.75 3.09,-1.14 1.8,-0.39 3.84,-0.39 2.04,0 3.81,0.39 1.8,0.39 3.12,1.14 1.35,0.75 2.1,1.83 0.780003,1.05 0.780003,2.43 0,1.38 -0.780003,2.46 -0.75,1.08 -2.1,1.83 -1.32,0.72 -3.12,1.11 -1.77,0.39 -3.81,0.39 z m 12.810003,5.01 -10.560003,0 0,4.74 q 0,0.33 -0.15,0.45 -0.12,0.12 -0.48,0.12 l -2.94,0 q -0.36,0 -0.48,-0.12 -0.12,-0.12 -0.12,-0.45 l 0,-4.74 -11.04,0 q -0.39,0 -0.51,-0.18 -0.09,-0.18 -0.09,-0.48 l 0,-2.13 q 0,-0.33 0.09,-0.48 0.12,-0.15 0.51,-0.15 l 25.770003,0 q 0.63,0 0.63,0.63 l 0,2.13 q 0,0.66 -0.63,0.66 z m -3.090003,11.22 -17.34,0 q -0.63,0 -1.05,-0.12 -0.39,-0.09 -0.63,-0.33 -0.21,-0.24 -0.3,-0.66 -0.09,-0.42 -0.09,-1.05 l 0,-6.57 q 0,-0.63 0.6,-0.63 l 2.94,0 q 0.6,0 0.6,0.63 l 0,4.86 q 0,0.45 0.48,0.45 l 14.79,0 q 0.240003,0 0.420003,0.09 0.21,0.12 0.21,0.45 l 0,2.34 q 0,0.42 -0.21,0.48 -0.18,0.06 -0.420003,0.06 z m -9.72,-24.48 q -2.64,0 -4.08,0.78 -1.41,0.75 -1.41,1.68 0,0.45 0.36,0.9 0.36,0.42 1.05,0.78 0.72,0.33 1.74,0.54 1.02,0.21 2.34,0.21 2.61,0 4.02,-0.75 1.44,-0.78 1.44,-1.68 0,-0.93 -1.41,-1.68 -1.41,-0.78 -4.05,-0.78 z"
           style="font-style:normal;font-variant:normal;font-weight:bold;font-stretch:normal;font-size:30px;line-height:125%;font-family:sans-serif;-inkscape-font-specification:'sans-serif Bold';letter-spacing:0px;word-spacing:0px;fill:#e7eddf;fill-opacity:1;stroke:none;stroke-width:1px;stroke-linecap:butt;stroke-linejoin:miter;stroke-opacity:1"
           id="path4286" />
        <path
           d="m 24.988,818.94217 q -0.33,0 -0.45,-0.12 -0.09,-0.15 -0.09,-0.51 l 0,-2.01 q 0,-0.33 0.09,-0.45 0.12,-0.15 0.45,-0.15 1.92,0 3.87,0 1.95,0 3.84,0 1.92,0 3.69,-0.03 1.77,-0.03 3.33,-0.09 0.03,-0.33 0.03,-0.6 0.03,-0.3 0.03,-0.54 0,-0.45 -0.15,-0.63 -0.12,-0.21 -0.66,-0.21 l -14.01,0 q -0.3,0 -0.48,-0.06 -0.15,-0.09 -0.15,-0.48 l 0,-2.28 q 0,-0.33 0.15,-0.42 0.18,-0.09 0.48,-0.09 l 16.8,0 q 1.08,0 1.59,0.48 0.54,0.45 0.54,1.59 0,0.78 -0.06,1.83 -0.06,1.02 -0.18,2.19 -0.09,1.14 -0.27,2.34 -0.15,1.17 -0.33,2.22 l 3.63,0 q 0.63,0 0.63,0.66 l 0,2.04 q 0,0.36 -0.18,0.48 -0.18,0.12 -0.45,0.12 l -25.74,0 q -0.36,0 -0.48,-0.12 -0.12,-0.15 -0.12,-0.48 l 0,-2.04 q 0,-0.36 0.09,-0.51 0.09,-0.15 0.51,-0.15 l 18.15,0 q 0.06,-0.42 0.15,-0.96 0.09,-0.54 0.15,-1.14 -1.59,0.06 -3.36,0.09 -1.74,0.03 -3.6,0.03 -1.83,0 -3.72,0 -1.89,0 -3.72,0 z m 18.3,19.74 -16.74,0 q -0.66,0 -1.08,-0.12 -0.39,-0.09 -0.63,-0.33 -0.21,-0.21 -0.3,-0.6 -0.06,-0.36 -0.06,-0.9 l 0,-4.05 q 0,-0.57 0.06,-0.93 0.09,-0.36 0.3,-0.57 0.24,-0.24 0.63,-0.33 0.39,-0.09 1.05,-0.09 l 12.24,0 q 0.27,0 0.27,-0.33 l 0,-0.81 q 0,-0.36 -0.3,-0.36 l -13.71,0 q -0.33,0 -0.48,-0.12 -0.12,-0.12 -0.12,-0.48 l 0,-2.07 q 0,-0.57 0.6,-0.57 l 15.96,0 q 1.35,0 1.74,0.45 0.39,0.42 0.39,1.47 l 0,3.99 q 0,0.6 -0.09,0.99 -0.06,0.36 -0.27,0.57 -0.21,0.21 -0.63,0.3 -0.42,0.06 -1.08,0.06 l -12.15,0 q -0.3,0 -0.3,0.3 l 0,0.96 q 0,0.33 0.33,0.33 l 14.34,0 q 0.33,0 0.48,0.09 0.15,0.09 0.15,0.48 l 0,2.07 q 0,0.6 -0.6,0.6 z"
           style="font-style:normal;font-variant:normal;font-weight:bold;font-stretch:normal;font-size:30px;line-height:125%;font-family:sans-serif;-inkscape-font-specification:'sans-serif Bold';letter-spacing:0px;word-spacing:0px;fill:#e7eddf;fill-opacity:1;stroke:none;stroke-width:1px;stroke-linecap:butt;stroke-linejoin:miter;stroke-opacity:1"
           id="path4288" />
        <path
           d="m 73.541593,838.86217 -3.03,0 q -0.33,0 -0.45,-0.12 -0.09,-0.09 -0.09,-0.42 l 0,-14.04 -2.37,0 0,12.93 q 0,0.39 -0.12,0.45 -0.09,0.09 -0.42,0.09 l -2.82,0 q -0.33,0 -0.45,-0.09 -0.12,-0.06 -0.12,-0.45 l 0,-26.04 q 0,-0.33 0.12,-0.42 0.12,-0.12 0.45,-0.12 l 2.82,0 q 0.33,0 0.42,0.12 0.12,0.09 0.12,0.42 l 0,9.72 2.37,0 0,-10.26 q 0,-0.33 0.12,-0.42 0.12,-0.12 0.45,-0.12 l 3,0 q 0.33,0 0.42,0.12 0.12,0.09 0.12,0.42 l 0,27.69 q 0,0.33 -0.12,0.42 -0.09,0.12 -0.42,0.12 z m -11.67,-7.86 q -1.02,0.27 -2.34,0.45 -1.32,0.18 -2.7,0.3 -1.35,0.12 -2.67,0.15 -1.29,0 -2.31,-0.06 -1.32,-0.09 -1.8,-0.54 -0.45,-0.45 -0.45,-1.59 l 0,-7.83 q 0,-0.96 0.42,-1.35 0.42,-0.39 1.38,-0.39 l 5.04,0 q 0.27,0 0.33,-0.06 0.09,-0.09 0.09,-0.36 l 0,-3.66 q 0,-0.27 -0.09,-0.33 -0.06,-0.09 -0.33,-0.09 l -6.06,0 q -0.6,0 -0.6,-0.57 l 0,-2.28 q 0,-0.33 0.12,-0.45 0.15,-0.12 0.48,-0.12 l 8.43,0 q 0.66,0 1.05,0.12 0.42,0.09 0.63,0.33 0.21,0.24 0.27,0.63 0.09,0.39 0.09,0.99 l 0,6.93 q 0,1.26 -0.51,1.71 -0.48,0.42 -1.56,0.42 l -4.8,0 q -0.39,0 -0.39,0.39 l 0,4.29 q 0,0.39 0.45,0.39 1.47,0.06 3.24,-0.06 1.77,-0.15 4.11,-0.57 0.33,-0.06 0.39,0.06 0.09,0.09 0.15,0.33 l 0.39,2.22 q 0.06,0.33 -0.03,0.42 -0.09,0.09 -0.42,0.18 z"
           style="font-style:normal;font-variant:normal;font-weight:bold;font-stretch:normal;font-size:30px;line-height:125%;font-family:sans-serif;-inkscape-font-specification:'sans-serif Bold';letter-spacing:0px;word-spacing:0px;fill:#e7eddf;fill-opacity:1;stroke:none;stroke-width:1px;stroke-linecap:butt;stroke-linejoin:miter;stroke-opacity:1"
           id="path4290" />
        <path
           d="m 80.485187,825.96217 q -0.42,0.15 -0.57,0.09 -0.15,-0.06 -0.33,-0.36 l -1.17,-2.1 q -0.39,-0.69 0.15,-0.9 2.19,-0.81 3.84,-1.86 1.68,-1.05 2.85,-2.37 1.17,-1.32 1.83,-2.94 0.69,-1.62 0.9,-3.63 0.06,-0.33 0.18,-0.48 0.12,-0.15 0.54,-0.12 l 2.85,0.18 q 0.54,0.06 0.63,0.21 0.12,0.12 0.06,0.54 -0.06,0.84 -0.18,1.59 0.42,1.5 1.32,2.79 0.93,1.29 2.19,2.34 1.26,1.05 2.76,1.86 1.5,0.78 3.120003,1.26 0.39,0.12 0.42,0.3 0.03,0.18 -0.15,0.51 l -1.08,2.22 q -0.12,0.18 -0.15,0.27 -0.06,0.12 -0.12,0.12 -0.12,0.09 -0.480003,0 -1.32,-0.3 -2.7,-0.93 -1.35,-0.66 -2.64,-1.53 -1.29,-0.87 -2.4,-1.98 -1.11,-1.11 -1.92,-2.37 -1.56,2.55 -4.11,4.41 -2.55,1.83 -5.64,2.88 z m 22.590003,7.8 -25.770003,0 q -0.39,0 -0.51,-0.18 -0.09,-0.18 -0.09,-0.45 l 0,-2.16 q 0,-0.33 0.09,-0.48 0.12,-0.15 0.51,-0.15 l 25.770003,0 q 0.63,0 0.63,0.63 l 0,2.16 q 0,0.63 -0.63,0.63 z"
           style="font-style:normal;font-variant:normal;font-weight:bold;font-stretch:normal;font-size:30px;line-height:125%;font-family:sans-serif;-inkscape-font-specification:'sans-serif Bold';letter-spacing:0px;word-spacing:0px;fill:#e7eddf;fill-opacity:1;stroke:none;stroke-width:1px;stroke-linecap:butt;stroke-linejoin:miter;stroke-opacity:1"
           id="path4292" />
        <path
           d="m 131.22878,825.84217 -25.74,0 q -0.42,0 -0.51,-0.15 -0.09,-0.15 -0.09,-0.48 l 0,-1.95 q 0,-0.33 0.12,-0.45 0.12,-0.15 0.48,-0.15 l 25.74,0 q 0.27,0 0.45,0.12 0.18,0.12 0.18,0.48 l 0,1.95 q 0,0.63 -0.63,0.63 z m -3.51,-4.53 -16.47,0 q -1.32,0 -1.77,-0.48 -0.42,-0.48 -0.42,-1.62 l 0,-3.09 q 0,-0.57 0.09,-0.93 0.09,-0.39 0.3,-0.6 0.24,-0.24 0.63,-0.33 0.42,-0.12 1.08,-0.12 l 12.21,0 q 0.27,0 0.27,-0.33 l 0,-0.54 q 0,-0.36 -0.3,-0.36 l -13.53,0 q -0.6,0 -0.6,-0.6 l 0,-1.86 q 0,-0.57 0.6,-0.57 l 15.75,0 q 0.66,0 1.08,0.09 0.45,0.09 0.66,0.33 0.24,0.21 0.33,0.6 0.09,0.36 0.09,0.96 l 0,3.15 q 0,0.6 -0.09,0.99 -0.09,0.39 -0.33,0.63 -0.21,0.21 -0.66,0.3 -0.42,0.09 -1.08,0.09 l -12.09,0 q -0.3,0 -0.3,0.3 l 0,0.63 q 0,0.33 0.33,0.33 l 14.19,0 q 0.33,0 0.48,0.09 0.15,0.09 0.15,0.48 l 0,1.86 q 0,0.6 -0.6,0.6 z m 0.12,17.55 -16.74,0 q -0.66,0 -1.08,-0.12 -0.39,-0.09 -0.63,-0.33 -0.21,-0.21 -0.3,-0.6 -0.06,-0.36 -0.06,-0.9 l 0,-3.42 q 0,-0.57 0.06,-0.93 0.09,-0.36 0.3,-0.57 0.24,-0.24 0.63,-0.33 0.39,-0.09 1.05,-0.09 l 12.24,0 q 0.27,0 0.27,-0.33 l 0,-0.51 q 0,-0.36 -0.3,-0.36 l -13.71,0 q -0.33,0 -0.48,-0.12 -0.12,-0.12 -0.12,-0.48 l 0,-1.89 q 0,-0.57 0.6,-0.57 l 15.96,0 q 1.35,0 1.74,0.45 0.39,0.42 0.39,1.5 l 0,3.3 q 0,0.6 -0.09,0.99 -0.06,0.36 -0.27,0.57 -0.21,0.21 -0.63,0.27 -0.42,0.09 -1.08,0.09 l -12.15,0 q -0.3,0 -0.3,0.3 l 0,0.69 q 0,0.33 0.33,0.33 l 14.34,0 q 0.33,0 0.48,0.09 0.15,0.09 0.15,0.48 l 0,1.89 q 0,0.6 -0.6,0.6 z"
           style="font-style:normal;font-variant:normal;font-weight:bold;font-stretch:normal;font-size:30px;line-height:125%;font-family:sans-serif;-inkscape-font-specification:'sans-serif Bold';letter-spacing:0px;word-spacing:0px;fill:#e7eddf;fill-opacity:1;stroke:none;stroke-width:1px;stroke-linecap:butt;stroke-linejoin:miter;stroke-opacity:1"
           id="path4294" />
        <path
           d="m 47.158,859.56217 -3.72,0 0,7.65 q 0,0.33 -0.12,0.45 -0.09,0.12 -0.42,0.12 l -3.03,0 q -0.33,0 -0.48,-0.12 -0.12,-0.12 -0.12,-0.45 l 0,-19.05 q 0,-0.57 0.6,-0.57 l 3.03,0 q 0.54,0 0.54,0.57 l 0,7.98 3.72,0 q 0.24,0 0.42,0.06 0.18,0.06 0.18,0.45 l 0,2.37 q 0,0.33 -0.18,0.45 -0.15,0.09 -0.42,0.09 z m -13.11,3.66 -9.27,0 q -0.69,0 -1.14,-0.06 -0.42,-0.09 -0.66,-0.3 -0.24,-0.24 -0.33,-0.63 -0.09,-0.42 -0.09,-1.08 l 0,-9.75 q 0,-1.29 0.45,-1.65 0.48,-0.36 1.59,-0.36 l 9.45,0 q 0.63,0 1.02,0.06 0.39,0.06 0.6,0.27 0.24,0.21 0.33,0.63 0.09,0.39 0.09,1.05 l 0,9.75 q 0,0.66 -0.09,1.08 -0.09,0.39 -0.33,0.63 -0.21,0.21 -0.6,0.3 -0.39,0.06 -1.02,0.06 z m 9.99,12.66 -16.35,0 q -1.29,0 -1.71,-0.45 -0.39,-0.45 -0.39,-1.71 l 0,-6.69 q 0,-0.63 0.63,-0.63 l 2.94,0 q 0.6,0 0.6,0.63 l 0,4.98 q 0,0.45 0.48,0.45 l 13.8,0 q 0.24,0 0.42,0.09 0.21,0.12 0.21,0.45 l 0,2.34 q 0,0.42 -0.21,0.48 -0.18,0.06 -0.42,0.06 z m -12.03,-22.5 q 0,-0.39 -0.06,-0.48 -0.06,-0.12 -0.45,-0.12 l -4.26,0 q -0.39,0 -0.51,0.09 -0.09,0.09 -0.09,0.51 l 0,5.88 q 0,0.42 0.09,0.51 0.12,0.09 0.51,0.09 l 4.26,0 q 0.39,0 0.45,-0.12 0.06,-0.12 0.06,-0.48 l 0,-5.88 z"
           style="font-style:normal;font-variant:normal;font-weight:bold;font-stretch:normal;font-size:30px;line-height:125%;font-family:sans-serif;-inkscape-font-specification:'sans-serif Bold';letter-spacing:0px;word-spacing:0px;fill:#e7eddf;fill-opacity:1;stroke:none;stroke-width:1px;stroke-linecap:butt;stroke-linejoin:miter;stroke-opacity:1"
           id="path4296" />
        <path
           d="m 70.961593,858.06217 -15.87,0 q -1.32,0 -1.89,-0.6 -0.54,-0.63 -0.54,-1.8 l 0,-5.64 q 0,-1.29 0.51,-1.68 0.54,-0.42 1.8,-0.42 l 15.84,0 q 0.57,0 0.57,0.57 l 0,2.22 q 0,0.33 -0.12,0.45 -0.12,0.12 -0.45,0.12 l -13.47,0 q -0.48,0 -0.48,0.48 l 0,2.49 q 0,0.48 0.48,0.48 l 13.62,0 q 0.66,0 0.66,0.51 l 0,2.19 q 0,0.63 -0.66,0.63 z m 3.9,5.16 -25.74,0 q -0.42,0 -0.51,-0.15 -0.09,-0.15 -0.09,-0.48 l 0,-2.1 q 0,-0.33 0.12,-0.45 0.12,-0.15 0.48,-0.15 l 25.74,0 q 0.27,0 0.45,0.12 0.18,0.12 0.18,0.48 l 0,2.1 q 0,0.63 -0.63,0.63 z m -5.85,12.63 -13.95,0 q -0.72,0 -1.17,-0.09 -0.45,-0.09 -0.72,-0.33 -0.24,-0.21 -0.36,-0.63 -0.09,-0.42 -0.09,-1.11 l 0,-8.37 q 0,-0.54 0.57,-0.54 l 2.97,0 q 0.33,0 0.48,0.12 0.15,0.09 0.15,0.42 l 0,2.04 10.23,0 0,-2.04 q 0,-0.57 0.6,-0.57 l 3.03,0 q 0.27,0 0.39,0.12 0.15,0.12 0.15,0.45 l 0,8.46 q 0,1.17 -0.45,1.62 -0.42,0.45 -1.83,0.45 z m -1.89,-5.19 -10.23,0 0,1.53 q 0,0.27 0.27,0.27 l 9.69,0 q 0.27,0 0.27,-0.27 l 0,-1.53 z"
           style="font-style:normal;font-variant:normal;font-weight:bold;font-stretch:normal;font-size:30px;line-height:125%;font-family:sans-serif;-inkscape-font-specification:'sans-serif Bold';letter-spacing:0px;word-spacing:0px;fill:#e7eddf;fill-opacity:1;stroke:none;stroke-width:1px;stroke-linecap:butt;stroke-linejoin:miter;stroke-opacity:1"
           id="path4298" />
        <path
           d="m 100.40519,876.36217 -3.000003,0 q -0.33,0 -0.45,-0.12 -0.12,-0.09 -0.12,-0.45 l 0,-27.63 q 0,-0.33 0.12,-0.45 0.12,-0.12 0.45,-0.12 l 3.000003,0 q 0.33,0 0.45,0.12 0.12,0.12 0.12,0.45 l 0,27.63 q 0,0.36 -0.12,0.45 -0.12,0.12 -0.45,0.12 z m -5.520003,-9.24 q -1.68,0.33 -3.6,0.54 -1.89,0.21 -3.72,0.33 -1.83,0.09 -3.42,0.12 -1.59,0 -2.64,-0.06 -1.26,-0.06 -1.77,-0.54 -0.51,-0.51 -0.51,-1.68 l 0,-15.81 q 0,-0.63 0.57,-0.63 l 2.97,0 q 0.63,0 0.63,0.63 l 0,13.95 q 0,0.3 0.09,0.42 0.09,0.09 0.45,0.12 0.93,0.06 2.25,0.03 1.35,-0.03 2.79,-0.15 1.47,-0.12 2.85,-0.27 1.41,-0.18 2.46,-0.39 0.36,-0.06 0.48,0.06 0.12,0.09 0.15,0.24 l 0.42,2.46 q 0.15,0.51 -0.45,0.63 z"
           style="font-style:normal;font-variant:normal;font-weight:bold;font-stretch:normal;font-size:30px;line-height:125%;font-family:sans-serif;-inkscape-font-specification:'sans-serif Bold';letter-spacing:0px;word-spacing:0px;fill:#e7eddf;fill-opacity:1;stroke:none;stroke-width:1px;stroke-linecap:butt;stroke-linejoin:miter;stroke-opacity:1"
           id="path4300" />
        <path
           d="m 131.70878,861.81217 -3.72,0 0,13.98 q 0,0.36 -0.12,0.45 -0.09,0.12 -0.42,0.12 l -3.03,0 q -0.33,0 -0.48,-0.12 -0.12,-0.09 -0.12,-0.45 l 0,-27.63 q 0,-0.33 0.12,-0.45 0.15,-0.12 0.48,-0.12 l 3.03,0 q 0.33,0 0.42,0.12 0.12,0.12 0.12,0.45 l 0,10.23 3.72,0 q 0.27,0 0.42,0.09 0.18,0.06 0.18,0.48 l 0,2.28 q 0,0.36 -0.18,0.48 -0.15,0.09 -0.42,0.09 z m -9.93,5.4 q -1.26,0.3 -2.94,0.54 -1.68,0.21 -3.48,0.36 -1.77,0.12 -3.48,0.15 -1.68,0.03 -2.97,-0.03 -1.08,-0.03 -1.62,-0.39 -0.51,-0.36 -0.51,-1.62 l 0,-14.46 q 0,-1.2 0.39,-1.56 0.42,-0.36 1.65,-0.36 l 10.83,0 q 0.33,0 0.45,0.12 0.15,0.09 0.15,0.42 l 0,2.37 q 0,0.33 -0.15,0.42 -0.12,0.09 -0.45,0.09 l -8.28,0 q -0.3,0 -0.36,0.12 -0.06,0.12 -0.06,0.3 l 0,10.59 q 0,0.48 0.48,0.48 1.08,0.03 2.31,0 1.23,-0.03 2.52,-0.12 1.29,-0.12 2.58,-0.27 1.29,-0.18 2.46,-0.39 0.33,-0.06 0.45,0.06 0.12,0.09 0.18,0.33 l 0.36,2.19 q 0.06,0.33 -0.06,0.45 -0.12,0.12 -0.45,0.21 z"
           style="font-style:normal;font-variant:normal;font-weight:bold;font-stretch:normal;font-size:30px;line-height:125%;font-family:sans-serif;-inkscape-font-specification:'sans-serif Bold';letter-spacing:0px;word-spacing:0px;fill:#e7eddf;fill-opacity:1;stroke:none;stroke-width:1px;stroke-linecap:butt;stroke-linejoin:miter;stroke-opacity:1"
           id="path4302" />
      </g>
    </g>
  </g>
</svg>
