<?xml version="1.0" encoding="UTF-8" standalone="no"?>
<!-- Created with Inkscape (http://www.inkscape.org/) -->

<svg
   xmlns:dc="http://purl.org/dc/elements/1.1/"
   xmlns:cc="http://creativecommons.org/ns#"
   xmlns:rdf="http://www.w3.org/1999/02/22-rdf-syntax-ns#"
   xmlns:svg="http://www.w3.org/2000/svg"
   xmlns="http://www.w3.org/2000/svg"
   xmlns:sodipodi="http://sodipodi.sourceforge.net/DTD/sodipodi-0.dtd"
   xmlns:inkscape="http://www.inkscape.org/namespaces/inkscape"
   width="56.444443mm"
   height="56.444443mm"
   viewBox="0 0 199.99999 199.99999"
   id="svg2"
   version="1.1"
   inkscape:version="0.91 r13725"
   sodipodi:docname="no_cover_image.svg">
  <defs
     id="defs4" />
  <sodipodi:namedview
     id="base"
     pagecolor="#ffffff"
     bordercolor="#666666"
     borderopacity="1.0"
     inkscape:pageopacity="0.0"
     inkscape:pageshadow="2"
     inkscape:zoom="1.4"
     inkscape:cx="-22.274439"
     inkscape:cy="55.339705"
     inkscape:document-units="px"
     inkscape:current-layer="layer1"
     showgrid="false"
     fit-margin-top="0"
     fit-margin-left="0"
     fit-margin-right="0"
     fit-margin-bottom="0"
     inkscape:window-width="1573"
     inkscape:window-height="935"
     inkscape:window-x="52"
     inkscape:window-y="15"
     inkscape:window-maximized="0" />
  <metadata
     id="metadata7">
    <rdf:RDF>
      <cc:Work
         rdf:about="">
        <dc:format>image/svg+xml</dc:format>
        <dc:type
           rdf:resource="http://purl.org/dc/dcmitype/StillImage" />
        <dc:title></dc:title>
      </cc:Work>
    </rdf:RDF>
  </metadata>
  <g
     inkscape:label="Layer 1"
     inkscape:groupmode="layer"
     id="layer1"
     transform="translate(0,-752.36218)">
    <g
       id="g4214">
      <rect
         ry="3.4723766e-05"
         y="752.36218"
         x="0"
         height="200"
         width="200"
         id="rect4136"
         style="color:#000000;clip-rule:nonzero;display:inline;overflow:visible;visibility:visible;opacity:1;isolation:auto;mix-blend-mode:normal;color-interpolation:sRGB;color-interpolation-filters:linearRGB;solid-color:#000000;solid-opacity:1;fill:#54a497;fill-opacity:1;fill-rule:nonzero;stroke:none;stroke-width:1;stroke-linecap:butt;stroke-linejoin:miter;stroke-miterlimit:4;stroke-dasharray:none;stroke-dashoffset:0;stroke-opacity:1;color-rendering:auto;image-rendering:auto;shape-rendering:auto;text-rendering:auto;enable-background:accumulate" />
      <path
         inkscape:connector-curvature="0"
         id="rect4144"
         d="m 180,922.36221 -15,-14.99999 15,-15.00002 -10,-10.00002 -15,14.99997 -15,-14.99997 -10,10.00002 15,15.00002 -15,14.99999 10,9.99997 15,-15 15,15 10,-9.99997 z"
         style="color:#000000;clip-rule:nonzero;display:inline;overflow:visible;visibility:visible;opacity:1;isolation:auto;mix-blend-mode:normal;color-interpolation:sRGB;color-interpolation-filters:linearRGB;solid-color:#000000;solid-opacity:1;fill:#f9be72;fill-opacity:1;fill-rule:nonzero;stroke:none;stroke-width:1;stroke-linecap:butt;stroke-linejoin:miter;stroke-miterlimit:4;stroke-dasharray:none;stroke-dashoffset:0;stroke-opacity:1;color-rendering:auto;image-rendering:auto;shape-rendering:auto;text-rendering:auto;enable-background:accumulate" />
      <g
         transform="translate(207.53476,-261.22002)"
         id="g4202">
        <path
           inkscape:connector-curvature="0"
           id="path4172"
           style="font-style:normal;font-variant:normal;font-weight:bold;font-stretch:normal;font-size:30px;line-height:125%;font-family:sans-serif;-inkscape-font-specification:'sans-serif Bold';letter-spacing:0px;word-spacing:0px;fill:#e7eddf;fill-opacity:1;stroke:none;stroke-width:1px;stroke-linecap:butt;stroke-linejoin:miter;stroke-opacity:1"
           d="m -184.85143,1056.4922 q -0.42,0.24 -0.66,0.24 -0.21,-0.03 -0.45,-0.36 l -1.41,-2.1 q -0.21,-0.27 -0.15,-0.54 0.09,-0.3 0.36,-0.45 2.64,-1.47 4.62,-3.33 1.98,-1.89 3.3,-4.05 -1.71,0.15 -3.54,0.21 -1.8,0.06 -3.39,0.06 -0.6,0 -0.6,-0.63 l 0,-2.22 q 0,-0.42 0.12,-0.51 0.12,-0.12 0.45,-0.12 1.02,0 2.16,0 1.17,-0.03 2.31,-0.06 1.14,-0.03 2.19,-0.09 1.05,-0.06 1.92,-0.12 0.39,-1.29 0.63,-2.67 0.09,-0.63 -0.48,-0.63 l -7.92,0 q -0.42,0 -0.51,-0.12 -0.09,-0.15 -0.09,-0.48 l 0,-2.25 q 0,-0.36 0.12,-0.45 0.15,-0.12 0.48,-0.12 l 10.47,0 q 1.5,0 1.98,0.63 0.51,0.6 0.42,1.92 -0.18,2.7 -1.08,5.31 -0.9,2.61 -2.49,4.98 -1.56,2.34 -3.78,4.38 -2.19,2.04 -4.98,3.57 z m 20.76,5.76 -3.06,0 q -0.33,0 -0.45,-0.12 -0.12,-0.09 -0.12,-0.45 l 0,-14.55 -4.71,0 q -0.27,0 -0.42,-0.09 -0.15,-0.12 -0.15,-0.45 l 0,-2.28 q 0,-0.36 0.15,-0.48 0.15,-0.12 0.42,-0.12 l 4.71,0 0,-9.66 q 0,-0.33 0.12,-0.45 0.12,-0.12 0.45,-0.12 l 3.06,0 q 0.33,0 0.42,0.12 0.12,0.12 0.12,0.45 l 0,27.63 q 0,0.36 -0.12,0.45 -0.09,0.12 -0.42,0.12 z" />
        <path
           inkscape:connector-curvature="0"
           id="path4174"
           style="font-style:normal;font-variant:normal;font-weight:bold;font-stretch:normal;font-size:30px;line-height:125%;font-family:sans-serif;-inkscape-font-specification:'sans-serif Bold';letter-spacing:0px;word-spacing:0px;fill:#e7eddf;fill-opacity:1;stroke:none;stroke-width:1px;stroke-linecap:butt;stroke-linejoin:miter;stroke-opacity:1"
           d="m -146.19783,1053.9122 -9.18,0 q -0.72,0 -1.2,-0.09 -0.45,-0.09 -0.72,-0.3 -0.24,-0.24 -0.33,-0.66 -0.09,-0.42 -0.09,-1.11 l 0,-16.11 q 0,-0.57 0.54,-0.57 l 3.03,0 q 0.6,0 0.6,0.57 l 0,6.03 5.49,0 0,-6.06 q 0,-0.6 0.57,-0.6 l 3,0 q 0.6,0 0.6,0.6 l 0,7.44 4.41,0 0,-9 q 0,-0.33 0.09,-0.45 0.12,-0.12 0.45,-0.12 l 3.03,0 q 0.33,0 0.45,0.12 0.12,0.12 0.12,0.45 l 0,27.63 q 0,0.36 -0.12,0.45 -0.12,0.12 -0.45,0.12 l -3.03,0 q -0.33,0 -0.45,-0.12 -0.09,-0.09 -0.09,-0.45 l 0,-15.21 -4.41,0 0,5.37 q 0,1.17 -0.48,1.62 -0.45,0.45 -1.83,0.45 z m -1.86,-8.85 -5.49,0 0,5.01 q 0,0.45 0.45,0.45 l 4.59,0 q 0.45,0 0.45,-0.45 l 0,-5.01 z" />
        <path
           inkscape:connector-curvature="0"
           id="path4176"
           style="font-style:normal;font-variant:normal;font-weight:bold;font-stretch:normal;font-size:30px;line-height:125%;font-family:sans-serif;-inkscape-font-specification:'sans-serif Bold';letter-spacing:0px;word-spacing:0px;fill:#e7eddf;fill-opacity:1;stroke:none;stroke-width:1px;stroke-linecap:butt;stroke-linejoin:miter;stroke-opacity:1"
           d="m -164.30143,1099.7522 -3,0 q -0.33,0 -0.45,-0.12 -0.12,-0.09 -0.12,-0.45 l 0,-27.63 q 0,-0.33 0.12,-0.45 0.12,-0.12 0.45,-0.12 l 3,0 q 0.33,0 0.45,0.12 0.12,0.12 0.12,0.45 l 0,27.63 q 0,0.36 -0.12,0.45 -0.12,0.12 -0.45,0.12 z m -14.31,-7.05 q -1.74,0 -3.15,-0.72 -1.41,-0.72 -2.4,-2.01 -0.99,-1.32 -1.53,-3.12 -0.54,-1.8 -0.54,-3.96 0,-2.22 0.54,-4.05 0.54,-1.86 1.53,-3.18 0.99,-1.32 2.4,-2.04 1.41,-0.75 3.15,-0.75 1.77,0 3.18,0.72 1.44,0.72 2.43,2.04 0.99,1.29 1.53,3.15 0.54,1.83 0.54,4.05 0,2.22 -0.54,4.05 -0.54,1.8 -1.53,3.09 -0.99,1.29 -2.43,2.01 -1.41,0.72 -3.18,0.72 z m 0,-16.2 q -0.78,0 -1.44,0.48 -0.63,0.45 -1.11,1.29 -0.45,0.84 -0.72,2.01 -0.24,1.17 -0.24,2.55 0,1.32 0.24,2.46 0.27,1.14 0.72,1.98 0.48,0.84 1.11,1.32 0.66,0.48 1.44,0.48 0.81,0 1.44,-0.48 0.66,-0.48 1.11,-1.32 0.48,-0.84 0.72,-1.98 0.27,-1.14 0.27,-2.46 0,-1.38 -0.27,-2.55 -0.24,-1.17 -0.72,-2.01 -0.45,-0.84 -1.11,-1.29 -0.63,-0.48 -1.44,-0.48 z" />
        <path
           inkscape:connector-curvature="0"
           id="path4178"
           style="font-style:normal;font-variant:normal;font-weight:bold;font-stretch:normal;font-size:30px;line-height:125%;font-family:sans-serif;-inkscape-font-specification:'sans-serif Bold';letter-spacing:0px;word-spacing:0px;fill:#e7eddf;fill-opacity:1;stroke:none;stroke-width:1px;stroke-linecap:butt;stroke-linejoin:miter;stroke-opacity:1"
           d="m -136.11783,1099.7522 -3,0 q -0.33,0 -0.45,-0.12 -0.12,-0.09 -0.12,-0.45 l 0,-27.63 q 0,-0.33 0.12,-0.45 0.12,-0.12 0.45,-0.12 l 3,0 q 0.33,0 0.45,0.12 0.12,0.12 0.12,0.45 l 0,27.63 q 0,0.36 -0.12,0.45 -0.12,0.12 -0.45,0.12 z m -9.45,-8.4 -9.93,0 q -0.69,0 -1.14,-0.06 -0.42,-0.09 -0.66,-0.3 -0.24,-0.24 -0.33,-0.63 -0.09,-0.42 -0.09,-1.11 l 0,-14.07 q 0,-1.29 0.45,-1.65 0.48,-0.36 1.62,-0.36 l 10.08,0 q 0.63,0 1.02,0.06 0.42,0.06 0.63,0.27 0.24,0.21 0.33,0.63 0.09,0.39 0.09,1.05 l 0,14.07 q 0,0.66 -0.09,1.08 -0.09,0.42 -0.33,0.66 -0.21,0.21 -0.63,0.3 -0.39,0.06 -1.02,0.06 z m -2.07,-14.19 q 0,-0.39 -0.09,-0.48 -0.06,-0.12 -0.42,-0.12 l -4.83,0 q -0.39,0 -0.51,0.09 -0.09,0.09 -0.09,0.51 l 0,10.2 q 0,0.42 0.09,0.51 0.12,0.09 0.51,0.09 l 4.83,0 q 0.36,0 0.42,-0.09 0.09,-0.12 0.09,-0.51 l 0,-10.2 z" />
        <path
           inkscape:connector-curvature="0"
           id="path4180"
           style="font-style:normal;font-variant:normal;font-weight:bold;font-stretch:normal;font-size:30px;line-height:125%;font-family:sans-serif;-inkscape-font-specification:'sans-serif Bold';letter-spacing:0px;word-spacing:0px;fill:#e7eddf;fill-opacity:1;stroke:none;stroke-width:1px;stroke-linecap:butt;stroke-linejoin:miter;stroke-opacity:1"
           d="m -114.80424,1091.5622 q -0.24,0.3 -0.54,0.21 -0.3,-0.09 -0.69,-0.36 -0.51,-0.36 -1.2,-0.96 -0.66,-0.6 -1.41,-1.32 -0.72,-0.75 -1.44,-1.56 -0.72,-0.84 -1.29,-1.62 -1.53,1.92 -3.42,3.66 -1.89,1.71 -4.05,3.09 -0.27,0.18 -0.45,0.15 -0.15,-0.03 -0.39,-0.33 l -1.41,-1.89 q -0.24,-0.33 -0.18,-0.51 0.09,-0.21 0.36,-0.39 1.74,-1.2 3.3,-2.67 1.56,-1.47 2.85,-3.09 1.32,-1.62 2.31,-3.33 0.99,-1.71 1.53,-3.42 0.18,-0.6 -0.45,-0.6 l -7.29,0 q -0.42,0 -0.51,-0.15 -0.06,-0.18 -0.06,-0.48 l 0,-2.16 q 0,-0.36 0.12,-0.48 0.15,-0.15 0.48,-0.15 l 9.9,0 q 1.17,0 1.83,0.51 0.69,0.51 0.69,1.5 0,0.42 -0.09,0.81 -0.06,0.39 -0.15,0.75 -0.36,1.47 -1.05,3 -0.69,1.53 -1.65,3.09 0.57,0.9 1.29,1.74 0.75,0.84 1.53,1.62 0.78,0.75 1.56,1.41 0.78,0.63 1.41,1.14 0.51,0.39 -0.03,1.02 l -1.41,1.77 z m 6.87,8.19 -3,0 q -0.33,0 -0.45,-0.12 -0.12,-0.09 -0.12,-0.45 l 0,-27.63 q 0,-0.33 0.12,-0.45 0.12,-0.12 0.45,-0.12 l 3,0 q 0.33,0 0.45,0.12 0.12,0.12 0.12,0.45 l 0,27.63 q 0,0.36 -0.12,0.45 -0.12,0.12 -0.45,0.12 z" />
        <path
           inkscape:connector-curvature="0"
           id="path4182"
           style="font-style:normal;font-variant:normal;font-weight:bold;font-stretch:normal;font-size:30px;line-height:125%;font-family:sans-serif;-inkscape-font-specification:'sans-serif Bold';letter-spacing:0px;word-spacing:0px;fill:#e7eddf;fill-opacity:1;stroke:none;stroke-width:1px;stroke-linecap:butt;stroke-linejoin:miter;stroke-opacity:1"
           d="m -76.630645,1085.2022 -3.72,0 0,13.98 q 0,0.36 -0.12,0.45 -0.09,0.12 -0.42,0.12 l -3.03,0 q -0.33,0 -0.48,-0.12 -0.12,-0.09 -0.12,-0.45 l 0,-27.63 q 0,-0.33 0.12,-0.45 0.15,-0.12 0.48,-0.12 l 3.03,0 q 0.33,0 0.42,0.12 0.12,0.12 0.12,0.45 l 0,10.23 3.72,0 q 0.27,0 0.42,0.09 0.18,0.06 0.18,0.48 l 0,2.28 q 0,0.36 -0.18,0.48 -0.15,0.09 -0.42,0.09 z m -23.640005,8.37 q -0.42,0.24 -0.66,0.24 -0.21,0 -0.45,-0.33 l -1.41,-2.1 q -0.21,-0.3 -0.15,-0.57 0.09,-0.27 0.36,-0.42 4.530005,-2.55 7.140005,-5.88 2.61,-3.33 3.15,-7.26 0.09,-0.63 -0.45,-0.63 l -8.370005,0 q -0.39,0 -0.48,-0.12 -0.09,-0.15 -0.09,-0.48 l 0,-2.25 q 0,-0.36 0.12,-0.45 0.12,-0.12 0.45,-0.12 l 10.920005,0 q 1.5,0 1.98,0.63 0.48,0.6 0.39,1.92 -0.18,2.7 -1.11,5.25 -0.9,2.55 -2.52,4.83 -1.59,2.28 -3.81,4.26 -2.22,1.95 -5.010005,3.48 z" />
        <path
           inkscape:connector-curvature="0"
           id="path4184"
           style="font-style:normal;font-variant:normal;font-weight:bold;font-stretch:normal;font-size:30px;line-height:125%;font-family:sans-serif;-inkscape-font-specification:'sans-serif Bold';letter-spacing:0px;word-spacing:0px;fill:#e7eddf;fill-opacity:1;stroke:none;stroke-width:1px;stroke-linecap:butt;stroke-linejoin:miter;stroke-opacity:1"
           d="m -179.24143,1123.0922 q -1.65,0 -3,-0.57 -1.32,-0.57 -2.28,-1.5 -0.96,-0.96 -1.5,-2.19 -0.51,-1.26 -0.51,-2.64 0,-1.38 0.51,-2.64 0.54,-1.26 1.5,-2.22 0.96,-0.96 2.28,-1.53 1.35,-0.57 3,-0.57 1.44,0 2.64,0.45 1.2,0.42 2.13,1.17 0.93,0.75 1.53,1.77 0.63,0.99 0.87,2.13 l 4.23,0 0,-5.7 q 0,-0.39 0.18,-0.48 0.18,-0.09 0.45,-0.09 l 2.94,0 q 0.42,0 0.48,0.18 0.09,0.15 0.09,0.39 l 0,14.01 q 0,0.57 -0.6,0.57 l -2.97,0 q -0.57,0 -0.57,-0.54 l 0,-4.92 -4.38,0 q -0.33,1.05 -0.96,1.95 -0.63,0.9 -1.53,1.56 -0.9,0.66 -2.04,1.05 -1.14,0.36 -2.49,0.36 z m 8.13,14.37 q -0.27,0.18 -0.42,0.09 -0.15,-0.06 -0.3,-0.24 l -1.53,-1.83 q 0,0.51 -0.09,0.84 -0.09,0.33 -0.33,0.51 -0.24,0.18 -0.66,0.24 -0.42,0.09 -1.08,0.09 l -5.67,0 q -0.72,0 -1.17,-0.09 -0.42,-0.06 -0.66,-0.3 -0.24,-0.21 -0.33,-0.63 -0.06,-0.39 -0.06,-1.02 l 0,-9.09 q 0,-0.54 0.6,-0.54 l 2.34,0 q 0.33,0 0.45,0.12 0.15,0.09 0.15,0.42 l 0,2.55 2.97,0 0,-2.52 q 0,-0.33 0.12,-0.45 0.15,-0.12 0.48,-0.12 l 2.37,0 q 0.27,0 0.42,0.12 0.15,0.12 0.15,0.45 l 0,8.79 q 0.03,-0.03 0.09,-0.06 2.34,-1.68 3.21,-3.9 0.87,-2.25 0.87,-5.19 0,-0.33 0.12,-0.39 0.12,-0.09 0.36,-0.09 l 2.7,0.03 q 0.36,0 0.45,0.09 0.09,0.09 0.09,0.42 0,0.63 -0.06,1.23 -0.03,0.6 -0.09,1.2 0.21,1.17 0.69,2.13 0.48,0.96 1.05,1.74 0.6,0.75 1.26,1.32 0.66,0.6 1.26,0.99 0.24,0.15 0.24,0.3 0,0.15 -0.24,0.48 l -1.23,1.83 q -0.15,0.18 -0.33,0.24 -0.15,0.06 -0.54,-0.15 -0.96,-0.54 -1.98,-1.56 -0.99,-1.02 -1.74,-2.34 -1.44,2.7 -3.93,4.29 z m -8.13,-24.75 q -0.75,0 -1.38,0.3 -0.6,0.27 -1.05,0.75 -0.45,0.48 -0.69,1.11 -0.24,0.63 -0.24,1.32 0,0.69 0.24,1.29 0.24,0.6 0.69,1.08 0.45,0.48 1.05,0.75 0.63,0.27 1.38,0.27 0.78,0 1.41,-0.27 0.63,-0.27 1.08,-0.75 0.45,-0.48 0.69,-1.08 0.24,-0.6 0.24,-1.29 0,-0.69 -0.27,-1.32 -0.24,-0.63 -0.69,-1.11 -0.45,-0.48 -1.08,-0.75 -0.63,-0.3 -1.38,-0.3 z m 2.34,18.87 -2.97,0 0,2.28 q 0,0.27 0.3,0.27 l 2.4,0 q 0.27,0 0.27,-0.27 l 0,-2.28 z" />
        <path
           inkscape:connector-curvature="0"
           id="path4186"
           style="font-style:normal;font-variant:normal;font-weight:bold;font-stretch:normal;font-size:30px;line-height:125%;font-family:sans-serif;-inkscape-font-specification:'sans-serif Bold';letter-spacing:0px;word-spacing:0px;fill:#e7eddf;fill-opacity:1;stroke:none;stroke-width:1px;stroke-linecap:butt;stroke-linejoin:miter;stroke-opacity:1"
           d="m -139.32783,1136.8322 -13.95,0 q -0.72,0 -1.17,-0.09 -0.45,-0.09 -0.72,-0.33 -0.24,-0.21 -0.36,-0.63 -0.09,-0.42 -0.09,-1.11 l 0,-8.46 q 0,-0.54 0.57,-0.54 l 2.97,0 q 0.33,0 0.48,0.12 0.15,0.09 0.15,0.42 l 0,2.01 10.23,0 0,-2.13 q 0,-0.57 0.6,-0.57 l 3.03,0 q 0.27,0 0.39,0.12 0.15,0.12 0.15,0.45 l 0,8.67 q 0,1.17 -0.45,1.62 -0.42,0.45 -1.83,0.45 z m -16.41,-17.61 q -0.51,0.09 -0.66,-0.03 -0.12,-0.12 -0.27,-0.48 l -0.78,-1.86 q -0.09,-0.24 -0.06,-0.42 0.06,-0.21 0.39,-0.3 4.08,-1.11 6.15,-2.76 2.1,-1.68 2.52,-4.41 0.06,-0.42 0.18,-0.51 0.12,-0.12 0.54,-0.09 l 2.64,0.12 q 0.69,0.03 0.66,0.63 -0.03,0.3 -0.06,0.57 -0.03,0.27 -0.09,0.51 0.54,1.08 1.5,2.01 0.99,0.9 2.19,1.62 1.23,0.69 2.58,1.23 1.38,0.51 2.73,0.81 0.42,0.09 0.45,0.33 0.03,0.21 -0.15,0.54 l -0.9,1.89 q -0.15,0.24 -0.27,0.33 -0.12,0.09 -0.54,0.03 -1.14,-0.18 -2.43,-0.6 -1.26,-0.42 -2.52,-1.05 -1.26,-0.63 -2.4,-1.47 -1.11,-0.84 -1.92,-1.89 -1.5,1.98 -3.96,3.3 -2.43,1.32 -5.52,1.95 z m 22.26,4.74 -25.74,0 q -0.42,0 -0.51,-0.15 -0.09,-0.15 -0.09,-0.48 l 0,-2.13 q 0,-0.33 0.12,-0.45 0.12,-0.15 0.48,-0.15 l 25.74,0 q 0.27,0 0.45,0.12 0.18,0.12 0.18,0.48 l 0,2.13 q 0,0.63 -0.63,0.63 z m -7.74,7.56 -10.23,0 0,1.65 q 0,0.27 0.27,0.27 l 9.69,0 q 0.27,0 0.27,-0.27 l 0,-1.65 z" />
        <path
           inkscape:connector-curvature="0"
           id="path4188"
           style="font-style:normal;font-variant:normal;font-weight:bold;font-stretch:normal;font-size:30px;line-height:125%;font-family:sans-serif;-inkscape-font-specification:'sans-serif Bold';letter-spacing:0px;word-spacing:0px;fill:#e7eddf;fill-opacity:1;stroke:none;stroke-width:1px;stroke-linecap:butt;stroke-linejoin:miter;stroke-opacity:1"
           d="m -107.93424,1137.2522 -3,0 q -0.33,0 -0.45,-0.12 -0.12,-0.09 -0.12,-0.45 l 0,-27.63 q 0,-0.33 0.12,-0.45 0.12,-0.12 0.45,-0.12 l 3,0 q 0.33,0 0.45,0.12 0.12,0.12 0.12,0.45 l 0,27.63 q 0,0.36 -0.12,0.45 -0.12,0.12 -0.45,0.12 z m -5.52,-9.24 q -1.68,0.33 -3.6,0.54 -1.89,0.21 -3.72,0.33 -1.83,0.09 -3.42,0.12 -1.59,0 -2.64,-0.06 -1.26,-0.06 -1.77,-0.54 -0.51,-0.51 -0.51,-1.68 l 0,-15.81 q 0,-0.63 0.57,-0.63 l 2.97,0 q 0.63,0 0.63,0.63 l 0,13.95 q 0,0.3 0.09,0.42 0.09,0.09 0.45,0.12 0.93,0.06 2.25,0.03 1.35,-0.03 2.79,-0.15 1.47,-0.12 2.85,-0.27 1.41,-0.18 2.46,-0.39 0.36,-0.06 0.48,0.06 0.12,0.09 0.15,0.24 l 0.42,2.46 q 0.15,0.51 -0.45,0.63 z" />
        <path
           inkscape:connector-curvature="0"
           id="path4190"
           style="font-style:normal;font-variant:normal;font-weight:bold;font-stretch:normal;font-size:30px;line-height:125%;font-family:sans-serif;-inkscape-font-specification:'sans-serif Bold';letter-spacing:0px;word-spacing:0px;fill:#e7eddf;fill-opacity:1;stroke:none;stroke-width:1px;stroke-linecap:butt;stroke-linejoin:miter;stroke-opacity:1"
           d="m -76.630645,1122.7022 -3.72,0 0,13.98 q 0,0.36 -0.12,0.45 -0.09,0.12 -0.42,0.12 l -3.03,0 q -0.33,0 -0.48,-0.12 -0.12,-0.09 -0.12,-0.45 l 0,-27.63 q 0,-0.33 0.12,-0.45 0.15,-0.12 0.48,-0.12 l 3.03,0 q 0.33,0 0.42,0.12 0.12,0.12 0.12,0.45 l 0,10.23 3.72,0 q 0.27,0 0.42,0.09 0.18,0.06 0.18,0.48 l 0,2.28 q 0,0.36 -0.18,0.48 -0.15,0.09 -0.42,0.09 z m -9.93,5.4 q -1.26,0.3 -2.94,0.54 -1.68,0.21 -3.48,0.36 -1.77,0.12 -3.48,0.15 -1.68,0.03 -2.97,-0.03 -1.080005,-0.03 -1.620005,-0.39 -0.51,-0.36 -0.51,-1.62 l 0,-14.46 q 0,-1.2 0.39,-1.56 0.42,-0.36 1.650005,-0.36 l 10.83,0 q 0.33,0 0.45,0.12 0.15,0.09 0.15,0.42 l 0,2.37 q 0,0.33 -0.15,0.42 -0.12,0.09 -0.45,0.09 l -8.28,0 q -0.3,0 -0.36,0.12 -0.06,0.12 -0.06,0.3 l 0,10.59 q 0,0.48 0.48,0.48 1.08,0.03 2.31,0 1.23,-0.03 2.52,-0.12 1.29,-0.12 2.58,-0.27 1.29,-0.18 2.46,-0.39 0.33,-0.06 0.45,0.06 0.12,0.09 0.18,0.33 l 0.36,2.19 q 0.06,0.33 -0.06,0.45 -0.12,0.12 -0.45,0.21 z" />
      </g>
    </g>
  </g>
</svg>
