<?xml version="1.0" encoding="UTF-8" standalone="no"?>
<!-- Created with Inkscape (http://www.inkscape.org/) -->

<svg
   xmlns:dc="http://purl.org/dc/elements/1.1/"
   xmlns:cc="http://creativecommons.org/ns#"
   xmlns:rdf="http://www.w3.org/1999/02/22-rdf-syntax-ns#"
   xmlns:svg="http://www.w3.org/2000/svg"
   xmlns="http://www.w3.org/2000/svg"
   xmlns:sodipodi="http://sodipodi.sourceforge.net/DTD/sodipodi-0.dtd"
   xmlns:inkscape="http://www.inkscape.org/namespaces/inkscape"
   width="56.44445mm"
   height="73.377777mm"
   viewBox="0 0 200.00002 259.99999"
   id="svg2"
   version="1.1"
   inkscape:version="0.91 r13725"
   sodipodi:docname="no_class.svg">
  <defs
     id="defs4" />
  <sodipodi:namedview
     id="base"
     pagecolor="#ffffff"
     bordercolor="#666666"
     borderopacity="1.0"
     inkscape:pageopacity="0.0"
     inkscape:pageshadow="2"
     inkscape:zoom="1.4"
     inkscape:cx="101.29699"
     inkscape:cy="115.3397"
     inkscape:document-units="px"
     inkscape:current-layer="layer1"
     showgrid="false"
     fit-margin-top="0"
     fit-margin-left="0"
     fit-margin-right="0"
     fit-margin-bottom="0"
     inkscape:window-width="1013"
     inkscape:window-height="652"
     inkscape:window-x="52"
     inkscape:window-y="15"
     inkscape:window-maximized="0" />
  <metadata
     id="metadata7">
    <rdf:RDF>
      <cc:Work
         rdf:about="">
        <dc:format>image/svg+xml</dc:format>
        <dc:type
           rdf:resource="http://purl.org/dc/dcmitype/StillImage" />
        <dc:title></dc:title>
      </cc:Work>
    </rdf:RDF>
  </metadata>
  <g
     inkscape:label="Layer 1"
     inkscape:groupmode="layer"
     id="layer1"
     transform="translate(0,-752.36218)">
    <rect
       style="color:#000000;clip-rule:nonzero;display:inline;overflow:visible;visibility:visible;opacity:1;isolation:auto;mix-blend-mode:normal;color-interpolation:sRGB;color-interpolation-filters:linearRGB;solid-color:#000000;solid-opacity:1;fill:#54a497;fill-opacity:1;fill-rule:nonzero;stroke:none;stroke-width:1;stroke-linecap:butt;stroke-linejoin:miter;stroke-miterlimit:4;stroke-dasharray:none;stroke-dashoffset:0;stroke-opacity:1;color-rendering:auto;image-rendering:auto;shape-rendering:auto;text-rendering:auto;enable-background:accumulate"
       id="rect4136"
       width="200"
       height="259.99997"
       x="0"
       y="752.36218"
       ry="4.5140889e-05" />
    <g
       id="g4225">
      <path
         d="m 26.199998,785.36216 q -0.44,0 -0.6,-0.16 -0.12,-0.2 -0.12,-0.68 l 0,-2.68 q 0,-0.44 0.12,-0.6 0.16,-0.2 0.6,-0.2 2.56,0 5.16,0 2.6,0 5.12,0 2.56,0 4.92,-0.04 2.36,-0.04 4.44,-0.12 0.04,-0.44 0.04,-0.8 0.04,-0.4 0.04,-0.72 0,-0.6 -0.2,-0.84 -0.16,-0.28 -0.88,-0.28 l -18.68,0 q -0.4,0 -0.64,-0.08 -0.2,-0.12 -0.2,-0.64 l 0,-3.04 q 0,-0.44 0.2,-0.56 0.24,-0.12 0.64,-0.12 l 22.4,0 q 1.44,0 2.12,0.64 0.72,0.6 0.72,2.12 0,1.04 -0.08,2.44 -0.08,1.36 -0.24,2.92 -0.12,1.52 -0.36,3.12 -0.2,1.56 -0.44,2.96 l 4.84,0 q 0.84,0 0.84,0.88 l 0,2.72 q 0,0.48 -0.24,0.64 -0.24,0.16 -0.6,0.16 l -34.32,0 q -0.48,0 -0.64,-0.16 -0.16,-0.2 -0.16,-0.64 l 0,-2.72 q 0,-0.48 0.12,-0.68 0.12,-0.2 0.68,-0.2 l 24.2,0 q 0.08,-0.56 0.2,-1.28 0.12,-0.72 0.2,-1.52 -2.12,0.08 -4.48,0.12 -2.32,0.04 -4.8,0.04 -2.44,0 -4.96,0 -2.52,0 -4.96,0 z m 24.4,26.32 -22.32,0 q -0.88,0 -1.44,-0.16 -0.52,-0.12 -0.84,-0.44 -0.28,-0.28 -0.4,-0.8 -0.08,-0.48 -0.08,-1.2 l 0,-5.4 q 0,-0.76 0.08,-1.24 0.12,-0.48 0.4,-0.76 0.32,-0.32 0.84,-0.44 0.52,-0.12 1.4,-0.12 l 16.32,0 q 0.36,0 0.36,-0.44 l 0,-1.08 q 0,-0.48 -0.4,-0.48 l -18.28,0 q -0.44,0 -0.64,-0.16 -0.16,-0.16 -0.16,-0.64 l 0,-2.76 q 0,-0.76 0.8,-0.76 l 21.28,0 q 1.8,0 2.32,0.6 0.52,0.56 0.52,1.96 l 0,5.32 q 0,0.8 -0.12,1.32 -0.08,0.48 -0.36,0.76 -0.28,0.28 -0.84,0.4 -0.56,0.08 -1.44,0.08 l -16.2,0 q -0.4,0 -0.4,0.4 l 0,1.28 q 0,0.44 0.44,0.44 l 19.12,0 q 0.44,0 0.64,0.12 0.2,0.12 0.2,0.64 l 0,2.76 q 0,0.8 -0.8,0.8 z"
         style="font-style:normal;font-variant:normal;font-weight:bold;font-stretch:normal;font-size:medium;line-height:125%;font-family:sans-serif;-inkscape-font-specification:'sans-serif Bold';letter-spacing:0px;word-spacing:0px;fill:#e7eddf;fill-opacity:1;stroke:none;stroke-width:1px;stroke-linecap:butt;stroke-linejoin:miter;stroke-opacity:1"
         id="path4201"
         inkscape:connector-curvature="0" />
      <path
         d="m 90.938123,811.92216 -4.04,0 q -0.44,0 -0.6,-0.16 -0.12,-0.12 -0.12,-0.56 l 0,-18.72 -3.16,0 0,17.24 q 0,0.52 -0.16,0.6 -0.12,0.12 -0.56,0.12 l -3.76,0 q -0.44,0 -0.6,-0.12 -0.16,-0.08 -0.16,-0.6 l 0,-34.72 q 0,-0.44 0.16,-0.56 0.16,-0.16 0.6,-0.16 l 3.76,0 q 0.44,0 0.56,0.16 0.16,0.12 0.16,0.56 l 0,12.96 3.16,0 0,-13.68 q 0,-0.44 0.16,-0.56 0.16,-0.16 0.6,-0.16 l 4,0 q 0.44,0 0.56,0.16 0.16,0.12 0.16,0.56 l 0,36.92 q 0,0.44 -0.16,0.56 -0.12,0.16 -0.56,0.16 z m -15.56,-10.48 q -1.36,0.36 -3.12,0.6 -1.76,0.24 -3.6,0.4 -1.8,0.16 -3.56,0.2 -1.72,0 -3.08,-0.08 -1.76,-0.12 -2.4,-0.72 -0.6,-0.6 -0.6,-2.12 l 0,-10.44 q 0,-1.28 0.56,-1.8 0.56,-0.52 1.84,-0.52 l 6.72,0 q 0.36,0 0.44,-0.08 0.12,-0.12 0.12,-0.48 l 0,-4.88 q 0,-0.36 -0.12,-0.44 -0.08,-0.12 -0.44,-0.12 l -8.08,0 q -0.8,0 -0.8,-0.76 l 0,-3.04 q 0,-0.44 0.16,-0.6 0.2,-0.16 0.64,-0.16 l 11.24,0 q 0.88,0 1.4,0.16 0.56,0.12 0.84,0.44 0.28,0.32 0.36,0.84 0.12,0.52 0.12,1.32 l 0,9.24 q 0,1.68 -0.68,2.28 -0.64,0.56 -2.08,0.56 l -6.4,0 q -0.52,0 -0.52,0.52 l 0,5.72 q 0,0.52 0.6,0.52 1.96,0.08 4.32,-0.08 2.36,-0.2 5.48,-0.76 0.44,-0.08 0.52,0.08 0.12,0.12 0.2,0.44 l 0.52,2.96 q 0.08,0.44 -0.04,0.56 -0.12,0.12 -0.56,0.24 z"
         style="font-style:normal;font-variant:normal;font-weight:bold;font-stretch:normal;font-size:medium;line-height:125%;font-family:sans-serif;-inkscape-font-specification:'sans-serif Bold';letter-spacing:0px;word-spacing:0px;fill:#e7eddf;fill-opacity:1;stroke:none;stroke-width:1px;stroke-linecap:butt;stroke-linejoin:miter;stroke-opacity:1"
         id="path4203"
         inkscape:connector-curvature="0" />
      <path
         d="m 100.19625,794.72216 q -0.560002,0.2 -0.760002,0.12 -0.2,-0.08 -0.44,-0.48 l -1.56,-2.8 q -0.52,-0.92 0.2,-1.2 2.920002,-1.08 5.120002,-2.48 2.24,-1.4 3.8,-3.16 1.56,-1.76 2.44,-3.92 0.92,-2.16 1.2,-4.84 0.08,-0.44 0.24,-0.64 0.16,-0.2 0.72,-0.16 l 3.8,0.24 q 0.72,0.08 0.84,0.28 0.16,0.16 0.08,0.72 -0.08,1.12 -0.24,2.12 0.56,2 1.76,3.72 1.24,1.72 2.92,3.12 1.68,1.4 3.68,2.48 2,1.04 4.16,1.68 0.52,0.16 0.56,0.4 0.04,0.24 -0.2,0.68 l -1.44,2.96 q -0.16,0.24 -0.2,0.36 -0.08,0.16 -0.16,0.16 -0.16,0.12 -0.64,0 -1.76,-0.4 -3.6,-1.24 -1.8,-0.88 -3.52,-2.04 -1.72,-1.16 -3.2,-2.64 -1.48,-1.48 -2.56,-3.16 -2.08,3.4 -5.48,5.88 -3.4,2.44 -7.52,3.84 z m 30.12,10.4 -34.360002,0 q -0.52,0 -0.68,-0.24 -0.12,-0.24 -0.12,-0.6 l 0,-2.88 q 0,-0.44 0.12,-0.64 0.16,-0.2 0.68,-0.2 l 34.360002,0 q 0.84,0 0.84,0.84 l 0,2.88 q 0,0.84 -0.84,0.84 z"
         style="font-style:normal;font-variant:normal;font-weight:bold;font-stretch:normal;font-size:medium;line-height:125%;font-family:sans-serif;-inkscape-font-specification:'sans-serif Bold';letter-spacing:0px;word-spacing:0px;fill:#e7eddf;fill-opacity:1;stroke:none;stroke-width:1px;stroke-linecap:butt;stroke-linejoin:miter;stroke-opacity:1"
         id="path4205"
         inkscape:connector-curvature="0" />
      <path
         d="m 168.49437,792.52216 -4.96,0 0,18.64 q 0,0.48 -0.16,0.6 -0.12,0.16 -0.56,0.16 l -4.04,0 q -0.44,0 -0.64,-0.16 -0.16,-0.12 -0.16,-0.6 l 0,-36.84 q 0,-0.44 0.16,-0.6 0.2,-0.16 0.64,-0.16 l 4.04,0 q 0.44,0 0.56,0.16 0.16,0.16 0.16,0.6 l 0,13.64 4.96,0 q 0.36,0 0.56,0.12 0.24,0.08 0.24,0.64 l 0,3.04 q 0,0.48 -0.24,0.64 -0.2,0.12 -0.56,0.12 z m -31.52,11.16 q -0.56,0.32 -0.88,0.32 -0.28,0 -0.6,-0.44 l -1.88,-2.8 q -0.28,-0.4 -0.2,-0.76 0.12,-0.36 0.48,-0.56 6.04,-3.4 9.52,-7.84 3.48,-4.44 4.2,-9.68 0.12,-0.84 -0.6,-0.84 l -11.16,0 q -0.52,0 -0.64,-0.16 -0.12,-0.2 -0.12,-0.64 l 0,-3 q 0,-0.48 0.16,-0.6 0.16,-0.16 0.6,-0.16 l 14.56,0 q 2,0 2.64,0.84 0.64,0.8 0.52,2.56 -0.24,3.6 -1.48,7 -1.2,3.4 -3.36,6.44 -2.12,3.04 -5.08,5.68 -2.96,2.6 -6.68,4.64 z"
         style="font-style:normal;font-variant:normal;font-weight:bold;font-stretch:normal;font-size:medium;line-height:125%;font-family:sans-serif;-inkscape-font-specification:'sans-serif Bold';letter-spacing:0px;word-spacing:0px;fill:#e7eddf;fill-opacity:1;stroke:none;stroke-width:1px;stroke-linecap:butt;stroke-linejoin:miter;stroke-opacity:1"
         id="path4207"
         inkscape:connector-curvature="0" />
      <path
         d="m 31.679998,843.04216 q -2.2,0 -4,-0.76 -1.76,-0.76 -3.04,-2 -1.28,-1.28 -2,-2.92 -0.68,-1.68 -0.68,-3.52 0,-1.84 0.68,-3.52 0.72,-1.68 2,-2.96 1.28,-1.28 3.04,-2.04 1.8,-0.76 4,-0.76 1.92,0 3.52,0.6 1.6,0.56 2.84,1.56 1.24,1 2.04,2.36 0.84,1.32 1.16,2.84 l 5.64,0 0,-7.6 q 0,-0.52 0.24,-0.64 0.24,-0.12 0.6,-0.12 l 3.92,0 q 0.56,0 0.64,0.24 0.12,0.2 0.12,0.52 l 0,18.68 q 0,0.76 -0.8,0.76 l -3.96,0 q -0.76,0 -0.76,-0.72 l 0,-6.56 -5.84,0 q -0.44,1.4 -1.28,2.6 -0.84,1.2 -2.04,2.08 -1.2,0.88 -2.72,1.4 -1.52,0.48 -3.32,0.48 z m 10.84,19.16 q -0.36,0.24 -0.56,0.12 -0.2,-0.08 -0.4,-0.32 l -2.04,-2.44 q 0,0.68 -0.12,1.12 -0.12,0.44 -0.44,0.68 -0.32,0.24 -0.88,0.32 -0.56,0.12 -1.44,0.12 l -7.56,0 q -0.96,0 -1.56,-0.12 -0.56,-0.08 -0.88,-0.4 -0.32,-0.28 -0.44,-0.84 -0.08,-0.52 -0.08,-1.36 l 0,-12.12 q 0,-0.72 0.8,-0.72 l 3.12,0 q 0.44,0 0.6,0.16 0.2,0.12 0.2,0.56 l 0,3.4 3.96,0 0,-3.36 q 0,-0.44 0.16,-0.6 0.2,-0.16 0.64,-0.16 l 3.16,0 q 0.36,0 0.56,0.16 0.2,0.16 0.2,0.6 l 0,11.72 q 0.04,-0.04 0.12,-0.08 3.12,-2.24 4.28,-5.2 1.16,-3 1.16,-6.92 0,-0.44 0.16,-0.52 0.16,-0.12 0.48,-0.12 l 3.6,0.04 q 0.48,0 0.6,0.12 0.12,0.12 0.12,0.56 0,0.84 -0.08,1.64 -0.04,0.8 -0.12,1.6 0.28,1.56 0.92,2.84 0.64,1.28 1.4,2.32 0.8,1 1.68,1.76 0.88,0.8 1.68,1.32 0.32,0.2 0.32,0.4 0,0.2 -0.32,0.64 l -1.64,2.44 q -0.2,0.24 -0.44,0.32 -0.2,0.08 -0.72,-0.2 -1.28,-0.72 -2.64,-2.08 -1.32,-1.36 -2.32,-3.12 -1.92,3.6 -5.24,5.72 z m -10.84,-33 q -1,0 -1.84,0.4 -0.8,0.36 -1.4,1 -0.6,0.64 -0.92,1.48 -0.32,0.84 -0.32,1.76 0,0.92 0.32,1.72 0.32,0.8 0.92,1.44 0.6,0.64 1.4,1 0.84,0.36 1.84,0.36 1.04,0 1.88,-0.36 0.84,-0.36 1.44,-1 0.6,-0.64 0.92,-1.44 0.32,-0.8 0.32,-1.72 0,-0.92 -0.36,-1.76 -0.32,-0.84 -0.92,-1.48 -0.6,-0.64 -1.44,-1 -0.84,-0.4 -1.84,-0.4 z m 3.12,25.16 -3.96,0 0,3.04 q 0,0.36 0.4,0.36 l 3.2,0 q 0.36,0 0.36,-0.36 l 0,-3.04 z"
         style="font-style:normal;font-variant:normal;font-weight:bold;font-stretch:normal;font-size:medium;line-height:125%;font-family:sans-serif;-inkscape-font-specification:'sans-serif Bold';letter-spacing:0px;word-spacing:0px;fill:#e7eddf;fill-opacity:1;stroke:none;stroke-width:1px;stroke-linecap:butt;stroke-linejoin:miter;stroke-opacity:1"
         id="path4209"
         inkscape:connector-curvature="0" />
      <path
         d="m 84.898123,861.36216 -18.6,0 q -0.96,0 -1.56,-0.12 -0.6,-0.12 -0.96,-0.44 -0.32,-0.28 -0.48,-0.84 -0.12,-0.56 -0.12,-1.48 l 0,-11.28 q 0,-0.72 0.76,-0.72 l 3.96,0 q 0.44,0 0.64,0.16 0.2,0.12 0.2,0.56 l 0,2.68 13.64,0 0,-2.84 q 0,-0.76 0.8,-0.76 l 4.04,0 q 0.36,0 0.52,0.16 0.2,0.16 0.2,0.6 l 0,11.56 q 0,1.56 -0.6,2.16 -0.56,0.6 -2.44,0.6 z m -21.88,-23.48 q -0.68,0.12 -0.88,-0.04 -0.16,-0.16 -0.36,-0.64 l -1.04,-2.48 q -0.12,-0.32 -0.08,-0.56 0.08,-0.28 0.52,-0.4 5.44,-1.48 8.2,-3.68 2.8,-2.24 3.36,-5.88 0.08,-0.56 0.24,-0.68 0.16,-0.16 0.72,-0.12 l 3.52,0.16 q 0.92,0.04 0.88,0.84 -0.04,0.4 -0.08,0.76 -0.04,0.36 -0.12,0.68 0.72,1.44 2,2.68 1.32,1.2 2.92,2.16 1.64,0.92 3.44,1.64 1.84,0.68 3.64,1.08 0.56,0.12 0.6,0.44 0.04,0.28 -0.2,0.72 l -1.2,2.52 q -0.2,0.32 -0.36,0.44 -0.16,0.12 -0.72,0.04 -1.52,-0.24 -3.24,-0.8 -1.68,-0.56 -3.36,-1.4 -1.68,-0.84 -3.2,-1.96 -1.48,-1.12 -2.56,-2.52 -2,2.64 -5.28,4.4 -3.24,1.76 -7.36,2.6 z m 29.68,6.32 -34.32,0 q -0.56,0 -0.68,-0.2 -0.12,-0.2 -0.12,-0.64 l 0,-2.84 q 0,-0.44 0.16,-0.6 0.16,-0.2 0.64,-0.2 l 34.32,0 q 0.36,0 0.6,0.16 0.24,0.16 0.24,0.64 l 0,2.84 q 0,0.84 -0.84,0.84 z m -10.32,10.08 -13.64,0 0,2.2 q 0,0.36 0.36,0.36 l 12.92,0 q 0.36,0 0.36,-0.36 l 0,-2.2 z"
         style="font-style:normal;font-variant:normal;font-weight:bold;font-stretch:normal;font-size:medium;line-height:125%;font-family:sans-serif;-inkscape-font-specification:'sans-serif Bold';letter-spacing:0px;word-spacing:0px;fill:#e7eddf;fill-opacity:1;stroke:none;stroke-width:1px;stroke-linecap:butt;stroke-linejoin:miter;stroke-opacity:1"
         id="path4211"
         inkscape:connector-curvature="0" />
      <path
         d="m 126.75625,861.92216 -4,0 q -0.44,0 -0.6,-0.16 -0.16,-0.12 -0.16,-0.6 l 0,-36.84 q 0,-0.44 0.16,-0.6 0.16,-0.16 0.6,-0.16 l 4,0 q 0.44,0 0.6,0.16 0.16,0.16 0.16,0.6 l 0,36.84 q 0,0.48 -0.16,0.6 -0.16,0.16 -0.6,0.16 z m -7.36,-12.32 q -2.24,0.44 -4.8,0.72 -2.52,0.28 -4.96,0.44 -2.44,0.12 -4.56,0.16 -2.12,0 -3.52,-0.08 -1.680002,-0.08 -2.360002,-0.72 -0.68,-0.68 -0.68,-2.24 l 0,-21.08 q 0,-0.84 0.76,-0.84 l 3.960002,0 q 0.84,0 0.84,0.84 l 0,18.6 q 0,0.4 0.12,0.56 0.12,0.12 0.6,0.16 1.24,0.08 3,0.04 1.8,-0.04 3.72,-0.2 1.96,-0.16 3.8,-0.36 1.88,-0.24 3.28,-0.52 0.48,-0.08 0.64,0.08 0.16,0.12 0.2,0.32 l 0.56,3.28 q 0.2,0.68 -0.6,0.84 z"
         style="font-style:normal;font-variant:normal;font-weight:bold;font-stretch:normal;font-size:medium;line-height:125%;font-family:sans-serif;-inkscape-font-specification:'sans-serif Bold';letter-spacing:0px;word-spacing:0px;fill:#e7eddf;fill-opacity:1;stroke:none;stroke-width:1px;stroke-linecap:butt;stroke-linejoin:miter;stroke-opacity:1"
         id="path4213"
         inkscape:connector-curvature="0" />
      <path
         d="m 168.49437,842.52216 -4.96,0 0,18.64 q 0,0.48 -0.16,0.6 -0.12,0.16 -0.56,0.16 l -4.04,0 q -0.44,0 -0.64,-0.16 -0.16,-0.12 -0.16,-0.6 l 0,-36.84 q 0,-0.44 0.16,-0.6 0.2,-0.16 0.64,-0.16 l 4.04,0 q 0.44,0 0.56,0.16 0.16,0.16 0.16,0.6 l 0,13.64 4.96,0 q 0.36,0 0.56,0.12 0.24,0.08 0.24,0.64 l 0,3.04 q 0,0.48 -0.24,0.64 -0.2,0.12 -0.56,0.12 z m -13.24,7.2 q -1.68,0.4 -3.92,0.72 -2.24,0.28 -4.64,0.48 -2.36,0.16 -4.64,0.2 -2.24,0.04 -3.96,-0.04 -1.44,-0.04 -2.16,-0.52 -0.68,-0.48 -0.68,-2.16 l 0,-19.28 q 0,-1.6 0.52,-2.08 0.56,-0.48 2.2,-0.48 l 14.44,0 q 0.44,0 0.6,0.16 0.2,0.12 0.2,0.56 l 0,3.16 q 0,0.44 -0.2,0.56 -0.16,0.12 -0.6,0.12 l -11.04,0 q -0.4,0 -0.48,0.16 -0.08,0.16 -0.08,0.4 l 0,14.12 q 0,0.64 0.64,0.64 1.44,0.04 3.08,0 1.64,-0.04 3.36,-0.16 1.72,-0.16 3.44,-0.36 1.72,-0.24 3.28,-0.52 0.44,-0.08 0.6,0.08 0.16,0.12 0.24,0.44 l 0.48,2.92 q 0.08,0.44 -0.08,0.6 -0.16,0.16 -0.6,0.28 z"
         style="font-style:normal;font-variant:normal;font-weight:bold;font-stretch:normal;font-size:medium;line-height:125%;font-family:sans-serif;-inkscape-font-specification:'sans-serif Bold';letter-spacing:0px;word-spacing:0px;fill:#e7eddf;fill-opacity:1;stroke:none;stroke-width:1px;stroke-linecap:butt;stroke-linejoin:miter;stroke-opacity:1"
         id="path4215"
         inkscape:connector-curvature="0" />
    </g>
    <path
       style="color:#000000;clip-rule:nonzero;display:inline;overflow:visible;visibility:visible;opacity:1;isolation:auto;mix-blend-mode:normal;color-interpolation:sRGB;color-interpolation-filters:linearRGB;solid-color:#000000;solid-opacity:1;fill:#f9be72;fill-opacity:1;fill-rule:nonzero;stroke:none;stroke-width:1;stroke-linecap:butt;stroke-linejoin:miter;stroke-miterlimit:4;stroke-dasharray:none;stroke-dashoffset:0;stroke-opacity:1;color-rendering:auto;image-rendering:auto;shape-rendering:auto;text-rendering:auto;enable-background:accumulate"
       d="m 180.71068,978.21999 -21.21321,-21.21329 21.21321,-21.21332 -14.14214,-14.14223 -21.2132,21.21326 -21.21321,-21.21326 -14.14214,14.14223 21.21321,21.21332 -21.21321,21.21329 14.14214,14.14215 21.21321,-21.21329 21.2132,21.21329 14.14214,-14.14215 z"
       id="rect4144"
       inkscape:connector-curvature="0" />
  </g>
</svg>
