<?xml version="1.0" encoding="UTF-8" standalone="no"?>
<svg
   xmlns:dc="http://purl.org/dc/elements/1.1/"
   xmlns:cc="http://creativecommons.org/ns#"
   xmlns:rdf="http://www.w3.org/1999/02/22-rdf-syntax-ns#"
   xmlns:svg="http://www.w3.org/2000/svg"
   xmlns="http://www.w3.org/2000/svg"
   width="560"
   height="460"
   viewBox="0 0 560.00001 460.00001"
   id="svg4197"
   version="1.1">
  <defs
     id="defs4199" />
  <metadata
     id="metadata4202">
    <rdf:RDF>
      <cc:Work
         rdf:about="">
        <dc:format>image/svg+xml</dc:format>
        <dc:type
           rdf:resource="http://purl.org/dc/dcmitype/StillImage" />
        <dc:title></dc:title>
      </cc:Work>
    </rdf:RDF>
  </metadata>
  <g
     id="g4181">
    <rect
       ry="5.9030401e-05"
       y="3.1347656e-06"
       x="-2.7832032e-06"
       height="460"
       width="560"
       id="rect4157-4-5"
       style="color:#000000;font-style:normal;font-weight:normal;font-size:medium;line-height:125%;font-family:sans-serif;letter-spacing:0px;word-spacing:0px;clip-rule:nonzero;display:inline;overflow:visible;visibility:visible;opacity:1;isolation:auto;mix-blend-mode:normal;color-interpolation:sRGB;color-interpolation-filters:linearRGB;solid-color:#000000;solid-opacity:1;fill:#f9f9f9;fill-opacity:1;fill-rule:nonzero;stroke:none;stroke-width:0;stroke-linecap:butt;stroke-linejoin:miter;stroke-miterlimit:4;stroke-dasharray:none;stroke-dashoffset:0;stroke-opacity:1;color-rendering:auto;image-rendering:auto;shape-rendering:auto;text-rendering:auto;enable-background:accumulate" />
    <path
       id="path4151"
       style="font-style:normal;font-variant:normal;font-weight:bold;font-stretch:normal;font-size:70px;line-height:125%;font-family:sans-serif;-inkscape-font-specification:'sans-serif Bold';text-align:center;letter-spacing:0px;word-spacing:0px;text-anchor:middle;fill:#b3b3b3;fill-opacity:1;stroke:none;stroke-width:1px;stroke-linecap:butt;stroke-linejoin:miter;stroke-opacity:1"
       d="m 129.86532,177.71875 -37.029997,0 q -3.08,0 -4.41,-1.4 -1.26,-1.47 -1.26,-4.2 l 0,-13.72 q 0,-3.01 1.19,-3.92 1.26,-0.98 4.2,-0.98 l 36.959997,0 q 1.33,0 1.33,1.33 l 0,5.18 q 0,0.77 -0.28,1.05 -0.28,0.28 -1.05,0.28 l -31.429997,0 q -1.12,0 -1.12,1.12 l 0,6.37 q 0,1.12 1.12,1.12 l 31.779997,0 q 1.54,0 1.54,1.19 l 0,5.11 q 0,1.47 -1.54,1.47 z m 9.1,12.67 -60.059997,0 q -0.98,0 -1.19,-0.28 -0.21,-0.35 -0.21,-1.19 l 0,-5.04 q 0,-0.77 0.28,-1.05 0.28,-0.35 1.12,-0.35 l 60.059997,0 q 0.63,0 1.05,0.28 0.42,0.28 0.42,1.12 l 0,5.04 q 0,1.47 -1.47,1.47 z m -30.03,29.54 q -5.32,0 -9.519997,-0.98 -4.13,-0.98 -7.07,-2.73 -2.87,-1.75 -4.41,-4.06 -1.47,-2.31 -1.47,-4.97 0,-2.66 1.47,-4.97 1.54,-2.38 4.41,-4.06 2.94,-1.75 7.07,-2.73 4.199997,-0.98 9.519997,-0.98 5.32,0 9.45,0.98 4.2,0.98 7.07,2.73 2.87,1.68 4.41,4.06 1.54,2.31 1.54,4.97 0,2.66 -1.54,4.97 -1.54,2.31 -4.41,4.06 -2.87,1.75 -7.07,2.73 -4.13,0.98 -9.45,0.98 z m 0,-17.99 q -5.74,0 -9.169997,1.61 -3.36,1.54 -3.36,3.71 0,0.98 0.84,1.96 0.91,0.98 2.52,1.68 1.679997,0.77 3.989997,1.19 2.31,0.49 5.18,0.49 2.87,0 5.18,-0.49 2.31,-0.42 3.92,-1.19 1.68,-0.7 2.52,-1.68 0.91,-0.98 0.91,-1.96 0,-2.17 -3.43,-3.71 -3.36,-1.61 -9.1,-1.61 z" />
    <path
       id="path4153"
       style="font-style:normal;font-variant:normal;font-weight:bold;font-stretch:normal;font-size:70px;line-height:125%;font-family:sans-serif;-inkscape-font-specification:'sans-serif Bold';text-align:center;letter-spacing:0px;word-spacing:0px;text-anchor:middle;fill:#b3b3b3;fill-opacity:1;stroke:none;stroke-width:1px;stroke-linecap:butt;stroke-linejoin:miter;stroke-opacity:1"
       d="m 204.72704,193.95875 -60.06,0 q -0.98,0 -1.19,-0.35 -0.21,-0.35 -0.21,-1.19 l 0,-4.76 q 0,-0.77 0.28,-1.05 0.28,-0.35 1.12,-0.35 l 25.2,0 0,-4.48 -11.76,0 q -3.08,0 -4.13,-1.12 -0.98,-1.12 -0.98,-3.78 l 0,-8.33 q 0,-1.33 0.21,-2.17 0.21,-0.91 0.7,-1.4 0.56,-0.56 1.47,-0.77 0.98,-0.28 2.52,-0.28 l 28.49,0 q 0.63,0 0.63,-0.77 l 0,-1.47 q 0,-0.84 -0.7,-0.84 l -31.57,0 q -1.4,0 -1.4,-1.4 l 0,-4.76 q 0,-1.33 1.4,-1.33 l 36.75,0 q 1.54,0 2.52,0.21 1.05,0.21 1.54,0.77 0.56,0.49 0.77,1.4 0.21,0.84 0.21,2.24 l 0,8.4 q 0,1.4 -0.21,2.31 -0.21,0.91 -0.77,1.47 -0.49,0.49 -1.54,0.7 -0.98,0.21 -2.52,0.21 l -28.21,0 q -0.7,0 -0.7,0.7 l 0,1.75 q 0,0.77 0.77,0.77 l 33.11,0 q 0.77,0 1.12,0.21 0.35,0.21 0.35,1.12 l 0,4.76 q 0,1.4 -1.4,1.4 l -16.94,0 0,4.48 25.13,0 q 0.63,0 1.05,0.28 0.42,0.28 0.42,1.12 l 0,4.76 q 0,1.54 -1.47,1.54 z m -9.45,26.11 -6.86,0 q -1.54,0 -1.54,-1.4 l 0,-12.04 q 0,-1.05 -0.98,-1.05 l -32.9,0 q -0.56,0 -0.98,-0.21 -0.42,-0.21 -0.42,-0.98 l 0,-5.32 q 0,-0.98 0.42,-1.12 0.42,-0.21 0.98,-0.21 l 38.71,0 q 1.54,0 2.45,0.28 0.98,0.21 1.47,0.84 0.56,0.63 0.77,1.68 0.21,0.98 0.21,2.45 l 0,15.68 q 0,1.4 -1.33,1.4 z" />
    <path
       id="path4155"
       style="font-style:normal;font-variant:normal;font-weight:bold;font-stretch:normal;font-size:70px;line-height:125%;font-family:sans-serif;-inkscape-font-specification:'sans-serif Bold';text-align:center;letter-spacing:0px;word-spacing:0px;text-anchor:middle;fill:#b3b3b3;fill-opacity:1;stroke:none;stroke-width:1px;stroke-linecap:butt;stroke-linejoin:miter;stroke-opacity:1"
       d="m 271.53876,183.52875 -8.47,0 0,18.69 q 0,0.77 -0.28,1.05 -0.21,0.28 -0.98,0.28 l -7.07,0 q -0.77,0 -1.12,-0.28 -0.28,-0.28 -0.28,-1.05 l 0,-48.51 q 0,-1.33 1.4,-1.33 l 7.07,0 q 1.26,0 1.26,1.33 l 0,21.84 8.47,0 q 0.56,0 0.98,0.14 0.42,0.14 0.42,1.12 l 0,5.46 q 0,0.77 -0.42,1.05 -0.35,0.21 -0.98,0.21 z m -31.99,-23.17 -18.2,0 q -0.56,0 -1.05,-0.21 -0.42,-0.28 -0.42,-1.26 l 0,-4.48 q 0,-0.98 0.42,-1.19 0.49,-0.28 1.05,-0.28 l 18.2,0 q 1.54,0 1.54,1.54 l 0,4.34 q 0,0.77 -0.28,1.19 -0.28,0.35 -1.26,0.35 z m 8.96,10.08 -36.68,0 q -1.47,0 -1.47,-1.54 l 0,-4.34 q 0,-1.47 1.54,-1.47 l 36.61,0 q 1.54,0 1.54,1.47 l 0,4.41 q 0,1.47 -1.54,1.47 z m -17.85,26.39 q -3.15,0 -5.95,-0.91 -2.8,-0.91 -4.9,-2.52 -2.1,-1.61 -3.36,-3.85 -1.19,-2.24 -1.19,-4.9 0,-2.59 1.19,-4.83 1.26,-2.24 3.36,-3.85 2.1,-1.61 4.9,-2.52 2.87,-0.91 6.02,-0.91 3.15,0 5.95,0.91 2.87,0.91 4.97,2.52 2.1,1.61 3.29,3.85 1.26,2.24 1.26,4.83 0,2.66 -1.26,4.9 -1.19,2.24 -3.29,3.85 -2.1,1.61 -4.97,2.52 -2.8,0.91 -6.02,0.91 z m 33.67,21.77 -38.15,0 q -1.47,0 -2.45,-0.28 -0.91,-0.21 -1.47,-0.77 -0.49,-0.56 -0.7,-1.54 -0.21,-0.98 -0.21,-2.45 l 0,-11.9 q 0,-1.4 1.4,-1.4 l 6.86,0 q 1.47,0 1.47,1.4 l 0,8.05 q 0,1.05 1.05,1.05 l 32.2,0 q 0.56,0 0.98,0.21 0.49,0.28 0.49,1.05 l 0,5.32 q 0,0.98 -0.49,1.12 -0.42,0.14 -0.98,0.14 z m -33.6,-39.06 q -3.01,0 -4.76,1.54 -1.68,1.54 -1.68,3.57 0,2.1 1.75,3.71 1.75,1.61 4.69,1.61 2.94,0 4.69,-1.61 1.75,-1.61 1.75,-3.71 0,-2.03 -1.75,-3.57 -1.68,-1.54 -4.69,-1.54 z" />
    <path
       id="path4157"
       style="font-style:normal;font-variant:normal;font-weight:bold;font-stretch:normal;font-size:70px;line-height:125%;font-family:sans-serif;-inkscape-font-specification:'sans-serif Bold';text-align:center;letter-spacing:0px;word-spacing:0px;text-anchor:middle;fill:#b3b3b3;fill-opacity:1;stroke:none;stroke-width:1px;stroke-linecap:butt;stroke-linejoin:miter;stroke-opacity:1"
       d="m 355.87126,195.21875 -25.2,0 0,22.4 q 0,1.4 -1.4,1.4 l -6.93,0 q -1.4,0 -1.4,-1.4 l 0,-22.4 -25.2,0 q -0.91,0 -1.19,-0.42 -0.21,-0.42 -0.21,-1.19 l 0,-4.83 q 0,-0.77 0.21,-1.12 0.28,-0.42 1.19,-0.42 l 60.13,0 q 1.47,0 1.47,1.54 l 0,4.83 q 0,1.61 -1.47,1.61 z m -52.29,-12.25 q -0.98,0.28 -1.33,0.07 -0.21,-0.14 -0.42,-0.42 -0.14,-0.35 -0.28,-0.56 l -2.59,-5.11 q -0.56,-1.19 0.91,-1.68 10.15,-3.36 15.26,-8.89 5.18,-5.53 6.02,-12.81 0.14,-0.98 0.35,-1.19 0.28,-0.21 1.26,-0.14 l 6.37,0.28 q 1.61,0.07 1.54,1.47 -0.07,0.91 -0.14,1.75 -0.07,0.84 -0.21,1.68 1.19,2.66 3.36,5.18 2.24,2.45 5.11,4.62 2.87,2.1 6.23,3.78 3.43,1.61 7,2.66 0.98,0.28 0.98,0.77 0.07,0.49 -0.28,1.33 l -2.31,4.9 q -0.14,0.14 -0.28,0.42 -0.07,0.28 -0.21,0.42 -0.14,0.07 -0.42,0.14 -0.21,0 -0.7,-0.14 -2.94,-0.56 -6.16,-1.89 -3.15,-1.33 -6.16,-3.22 -3.01,-1.89 -5.67,-4.2 -2.59,-2.31 -4.48,-4.83 -3.64,5.6 -9.59,9.52 -5.95,3.92 -13.16,6.09 z" />
    <path
       id="path4159"
       style="font-style:normal;font-variant:normal;font-weight:bold;font-stretch:normal;font-size:70px;line-height:125%;font-family:sans-serif;-inkscape-font-specification:'sans-serif Bold';text-align:center;letter-spacing:0px;word-spacing:0px;text-anchor:middle;fill:#b3b3b3;fill-opacity:1;stroke:none;stroke-width:1px;stroke-linecap:butt;stroke-linejoin:miter;stroke-opacity:1"
       d="m 380.54298,186.46875 q -3.85,0 -7,-1.33 -3.08,-1.33 -5.32,-3.5 -2.24,-2.24 -3.5,-5.11 -1.19,-2.94 -1.19,-6.16 0,-3.22 1.19,-6.16 1.26,-2.94 3.5,-5.18 2.24,-2.24 5.32,-3.57 3.15,-1.33 7,-1.33 3.36,0 6.16,0.98 2.8,0.98 4.97,2.73 2.17,1.75 3.57,4.06 1.47,2.31 2.03,4.97 l 9.87,0 0,-13.16 q 0,-0.91 0.42,-1.12 0.42,-0.21 1.05,-0.21 l 6.93,0 q 0.91,0 1.05,0.42 0.21,0.35 0.21,0.91 l 0,32.13 q 0,1.33 -1.33,1.33 l -7,0 q -1.33,0 -1.33,-1.26 l 0,-11.06 -10.08,0 q -0.77,2.45 -2.24,4.62 -1.47,2.1 -3.64,3.71 -2.1,1.54 -4.83,2.45 -2.66,0.84 -5.81,0.84 z m 30.87,31.85 -31.08,0 q -1.68,0 -2.73,-0.21 -1.05,-0.21 -1.68,-0.77 -0.56,-0.49 -0.84,-1.47 -0.21,-0.98 -0.21,-2.59 l 0,-20.72 q 0,-1.26 1.33,-1.26 l 7,0 q 0.77,0 1.05,0.28 0.35,0.21 0.35,0.98 l 0,5.11 22.47,0 0,-5.39 q 0,-0.77 0.35,-1.05 0.35,-0.28 0.98,-0.28 l 7.14,0 q 0.63,0 0.91,0.28 0.35,0.28 0.35,1.05 l 0,21.21 q 0,2.73 -1.05,3.78 -0.98,1.05 -4.34,1.05 z m -30.87,-56.07 q -1.75,0 -3.22,0.7 -1.4,0.63 -2.45,1.75 -1.05,1.12 -1.61,2.59 -0.56,1.47 -0.56,3.08 0,1.61 0.56,3.01 0.56,1.4 1.61,2.52 1.05,1.12 2.45,1.75 1.47,0.63 3.22,0.63 1.82,0 3.29,-0.63 1.47,-0.63 2.52,-1.75 1.05,-1.12 1.61,-2.52 0.56,-1.4 0.56,-3.01 0,-1.61 -0.63,-3.08 -0.56,-1.47 -1.61,-2.59 -1.05,-1.12 -2.52,-1.75 -1.47,-0.7 -3.22,-0.7 z m 26.53,43.19 -22.47,0 0,4.34 q 0,0.63 0.7,0.63 l 21.07,0 q 0.7,0 0.7,-0.63 l 0,-4.34 z" />
    <path
       id="path4161"
       style="font-style:normal;font-variant:normal;font-weight:bold;font-stretch:normal;font-size:70px;line-height:125%;font-family:sans-serif;-inkscape-font-specification:'sans-serif Bold';text-align:center;letter-spacing:0px;word-spacing:0px;text-anchor:middle;fill:#b3b3b3;fill-opacity:1;stroke:none;stroke-width:1px;stroke-linecap:butt;stroke-linejoin:miter;stroke-opacity:1"
       d="m 481.1647,219.50875 -7,0 q -0.77,0 -1.05,-0.28 -0.28,-0.21 -0.28,-1.05 l 0,-64.47 q 0,-0.77 0.28,-1.05 0.28,-0.28 1.05,-0.28 l 7,0 q 0.77,0 1.05,0.28 0.28,0.28 0.28,1.05 l 0,64.47 q 0,0.84 -0.28,1.05 -0.28,0.28 -1.05,0.28 z m -33.39,-16.45 q -4.06,0 -7.35,-1.68 -3.29,-1.68 -5.6,-4.69 -2.31,-3.08 -3.57,-7.28 -1.26,-4.2 -1.26,-9.24 0,-5.18 1.26,-9.45 1.26,-4.34 3.57,-7.42 2.31,-3.08 5.6,-4.76 3.29,-1.75 7.35,-1.75 4.13,0 7.42,1.68 3.36,1.68 5.67,4.76 2.31,3.01 3.57,7.35 1.26,4.27 1.26,9.45 0,5.18 -1.26,9.45 -1.26,4.2 -3.57,7.21 -2.31,3.01 -5.67,4.69 -3.29,1.68 -7.42,1.68 z m 0,-37.8 q -1.82,0 -3.36,1.12 -1.47,1.05 -2.59,3.01 -1.05,1.96 -1.68,4.69 -0.56,2.73 -0.56,5.95 0,3.08 0.56,5.74 0.63,2.66 1.68,4.62 1.12,1.96 2.59,3.08 1.54,1.12 3.36,1.12 1.89,0 3.36,-1.12 1.54,-1.12 2.59,-3.08 1.12,-1.96 1.68,-4.62 0.63,-2.66 0.63,-5.74 0,-3.22 -0.63,-5.95 -0.56,-2.73 -1.68,-4.69 -1.05,-1.96 -2.59,-3.01 -1.47,-1.12 -3.36,-1.12 z" />
    <path
       id="path4163"
       style="font-style:normal;font-variant:normal;font-weight:bold;font-stretch:normal;font-size:70px;line-height:125%;font-family:sans-serif;-inkscape-font-specification:'sans-serif Bold';text-align:center;letter-spacing:0px;word-spacing:0px;text-anchor:middle;fill:#b3b3b3;fill-opacity:1;stroke:none;stroke-width:1px;stroke-linecap:butt;stroke-linejoin:miter;stroke-opacity:1"
       d="m 173.48243,273.96875 q -3.85,0 -7,-1.33 -3.08,-1.33 -5.32,-3.5 -2.24,-2.24 -3.5,-5.11 -1.19,-2.94 -1.19,-6.16 0,-3.22 1.19,-6.16 1.26,-2.94 3.5,-5.18 2.24,-2.24 5.32,-3.57 3.15,-1.33 7,-1.33 3.36,0 6.16,1.05 2.8,0.98 4.97,2.73 2.17,1.75 3.57,4.13 1.47,2.31 2.03,4.97 l 9.87,0 0,-13.3 q 0,-0.91 0.42,-1.12 0.42,-0.21 1.05,-0.21 l 6.86,0 q 0.98,0 1.12,0.42 0.21,0.35 0.21,0.91 l 0,32.69 q 0,1.33 -1.4,1.33 l -6.93,0 q -1.33,0 -1.33,-1.26 l 0,-11.48 -10.22,0 q -0.77,2.45 -2.24,4.55 -1.47,2.1 -3.57,3.64 -2.1,1.54 -4.76,2.45 -2.66,0.84 -5.81,0.84 z m 18.97,33.53 q -0.63,0.42 -0.98,0.21 -0.35,-0.14 -0.7,-0.56 l -3.57,-4.27 q 0,1.19 -0.21,1.96 -0.21,0.77 -0.77,1.19 -0.56,0.42 -1.54,0.56 -0.98,0.21 -2.52,0.21 l -13.23,0 q -1.68,0 -2.73,-0.21 -0.98,-0.14 -1.54,-0.7 -0.56,-0.49 -0.77,-1.47 -0.14,-0.91 -0.14,-2.38 l 0,-21.21 q 0,-1.26 1.4,-1.26 l 5.46,0 q 0.77,0 1.05,0.28 0.35,0.21 0.35,0.98 l 0,5.95 6.93,0 0,-5.88 q 0,-0.77 0.28,-1.05 0.35,-0.28 1.12,-0.28 l 5.53,0 q 0.63,0 0.98,0.28 0.35,0.28 0.35,1.05 l 0,20.51 q 0.07,-0.07 0.21,-0.14 5.46,-3.92 7.49,-9.1 2.03,-5.25 2.03,-12.11 0,-0.77 0.28,-0.91 0.28,-0.21 0.84,-0.21 l 6.3,0.07 q 0.84,0 1.05,0.21 0.21,0.21 0.21,0.98 0,1.47 -0.14,2.87 -0.07,1.4 -0.21,2.8 0.49,2.73 1.61,4.97 1.12,2.24 2.45,4.06 1.4,1.75 2.94,3.08 1.54,1.4 2.94,2.31 0.56,0.35 0.56,0.7 0,0.35 -0.56,1.12 l -2.87,4.27 q -0.35,0.42 -0.77,0.56 -0.35,0.14 -1.26,-0.35 -2.24,-1.26 -4.62,-3.64 -2.31,-2.38 -4.06,-5.46 -3.36,6.3 -9.17,10.01 z m -18.97,-57.75 q -1.75,0 -3.22,0.7 -1.4,0.63 -2.45,1.75 -1.05,1.12 -1.61,2.59 -0.56,1.47 -0.56,3.08 0,1.61 0.56,3.01 0.56,1.4 1.61,2.52 1.05,1.12 2.45,1.75 1.47,0.63 3.22,0.63 1.82,0 3.29,-0.63 1.47,-0.63 2.52,-1.75 1.05,-1.12 1.61,-2.52 0.56,-1.4 0.56,-3.01 0,-1.61 -0.63,-3.08 -0.56,-1.47 -1.61,-2.59 -1.05,-1.12 -2.52,-1.75 -1.47,-0.7 -3.22,-0.7 z m 5.46,44.03 -6.93,0 0,5.32 q 0,0.63 0.7,0.63 l 5.6,0 q 0.63,0 0.63,-0.63 l 0,-5.32 z" />
    <path
       id="path4165"
       style="font-style:normal;font-variant:normal;font-weight:bold;font-stretch:normal;font-size:70px;line-height:125%;font-family:sans-serif;-inkscape-font-specification:'sans-serif Bold';text-align:center;letter-spacing:0px;word-spacing:0px;text-anchor:middle;fill:#b3b3b3;fill-opacity:1;stroke:none;stroke-width:1px;stroke-linecap:butt;stroke-linejoin:miter;stroke-opacity:1"
       d="m 266.61415,306.02875 -32.55,0 q -1.68,0 -2.73,-0.21 -1.05,-0.21 -1.68,-0.77 -0.56,-0.49 -0.84,-1.47 -0.21,-0.98 -0.21,-2.59 l 0,-19.74 q 0,-1.26 1.33,-1.26 l 6.93,0 q 0.77,0 1.12,0.28 0.35,0.21 0.35,0.98 l 0,4.69 23.87,0 0,-4.97 q 0,-1.33 1.4,-1.33 l 7.07,0 q 0.63,0 0.91,0.28 0.35,0.28 0.35,1.05 l 0,20.23 q 0,2.73 -1.05,3.78 -0.98,1.05 -4.27,1.05 z m -38.29,-41.09 q -1.19,0.21 -1.54,-0.07 -0.28,-0.28 -0.63,-1.12 l -1.82,-4.34 q -0.21,-0.56 -0.14,-0.98 0.14,-0.49 0.91,-0.7 9.52,-2.59 14.35,-6.44 4.9,-3.92 5.88,-10.29 0.14,-0.98 0.42,-1.19 0.28,-0.28 1.26,-0.21 l 6.16,0.28 q 1.61,0.07 1.54,1.47 -0.07,0.7 -0.14,1.33 -0.07,0.63 -0.21,1.19 1.26,2.52 3.5,4.69 2.31,2.1 5.11,3.78 2.87,1.61 6.02,2.87 3.22,1.19 6.37,1.89 0.98,0.21 1.05,0.77 0.07,0.49 -0.35,1.26 l -2.1,4.41 q -0.35,0.56 -0.63,0.77 -0.28,0.21 -1.26,0.07 -2.66,-0.42 -5.67,-1.4 -2.94,-0.98 -5.88,-2.45 -2.94,-1.47 -5.6,-3.43 -2.59,-1.96 -4.48,-4.41 -3.5,4.62 -9.24,7.7 -5.67,3.08 -12.88,4.55 z m 51.94,11.06 -60.06,0 q -0.98,0 -1.19,-0.35 -0.21,-0.35 -0.21,-1.12 l 0,-4.97 q 0,-0.77 0.28,-1.05 0.28,-0.35 1.12,-0.35 l 60.06,0 q 0.63,0 1.05,0.28 0.42,0.28 0.42,1.12 l 0,4.97 q 0,1.47 -1.47,1.47 z m -18.06,17.64 -23.87,0 0,3.85 q 0,0.63 0.63,0.63 l 22.61,0 q 0.63,0 0.63,-0.63 l 0,-3.85 z" />
    <path
       id="path4167"
       style="font-style:normal;font-variant:normal;font-weight:bold;font-stretch:normal;font-size:70px;line-height:125%;font-family:sans-serif;-inkscape-font-specification:'sans-serif Bold';text-align:center;letter-spacing:0px;word-spacing:0px;text-anchor:middle;fill:#b3b3b3;fill-opacity:1;stroke:none;stroke-width:1px;stroke-linecap:butt;stroke-linejoin:miter;stroke-opacity:1"
       d="m 339.86587,307.00875 -7,0 q -0.77,0 -1.05,-0.28 -0.28,-0.21 -0.28,-1.05 l 0,-64.47 q 0,-0.77 0.28,-1.05 0.28,-0.28 1.05,-0.28 l 7,0 q 0.77,0 1.05,0.28 0.28,0.28 0.28,1.05 l 0,64.47 q 0,0.84 -0.28,1.05 -0.28,0.28 -1.05,0.28 z m -12.88,-21.56 q -3.92,0.77 -8.4,1.26 -4.41,0.49 -8.68,0.77 -4.27,0.21 -7.98,0.28 -3.71,0 -6.16,-0.14 -2.94,-0.14 -4.13,-1.26 -1.19,-1.19 -1.19,-3.92 l 0,-36.89 q 0,-1.47 1.33,-1.47 l 6.93,0 q 1.47,0 1.47,1.47 l 0,32.55 q 0,0.7 0.21,0.98 0.21,0.21 1.05,0.28 2.17,0.14 5.25,0.07 3.15,-0.07 6.51,-0.35 3.43,-0.28 6.65,-0.63 3.29,-0.42 5.74,-0.91 0.84,-0.14 1.12,0.14 0.28,0.21 0.35,0.56 l 0.98,5.74 q 0.35,1.19 -1.05,1.47 z" />
    <path
       id="path4169"
       style="font-style:normal;font-variant:normal;font-weight:bold;font-stretch:normal;font-size:70px;line-height:125%;font-family:sans-serif;-inkscape-font-specification:'sans-serif Bold';text-align:center;letter-spacing:0px;word-spacing:0px;text-anchor:middle;fill:#b3b3b3;fill-opacity:1;stroke:none;stroke-width:1px;stroke-linecap:butt;stroke-linejoin:miter;stroke-opacity:1"
       d="m 412.90759,273.05875 -8.68,0 0,32.62 q 0,0.84 -0.28,1.05 -0.21,0.28 -0.98,0.28 l -7.07,0 q -0.77,0 -1.12,-0.28 -0.28,-0.21 -0.28,-1.05 l 0,-64.47 q 0,-0.77 0.28,-1.05 0.35,-0.28 1.12,-0.28 l 7.07,0 q 0.77,0 0.98,0.28 0.28,0.28 0.28,1.05 l 0,23.87 8.68,0 q 0.63,0 0.98,0.21 0.42,0.14 0.42,1.12 l 0,5.32 q 0,0.84 -0.42,1.12 -0.35,0.21 -0.98,0.21 z m -23.17,12.6 q -2.94,0.7 -6.86,1.26 -3.92,0.49 -8.12,0.84 -4.13,0.28 -8.12,0.35 -3.92,0.07 -6.93,-0.07 -2.52,-0.07 -3.78,-0.91 -1.19,-0.84 -1.19,-3.78 l 0,-33.74 q 0,-2.8 0.91,-3.64 0.98,-0.84 3.85,-0.84 l 25.27,0 q 0.77,0 1.05,0.28 0.35,0.21 0.35,0.98 l 0,5.53 q 0,0.77 -0.35,0.98 -0.28,0.21 -1.05,0.21 l -19.32,0 q -0.7,0 -0.84,0.28 -0.14,0.28 -0.14,0.7 l 0,24.71 q 0,1.12 1.12,1.12 2.52,0.07 5.39,0 2.87,-0.07 5.88,-0.28 3.01,-0.28 6.02,-0.63 3.01,-0.42 5.74,-0.91 0.77,-0.14 1.05,0.14 0.28,0.21 0.42,0.77 l 0.84,5.11 q 0.14,0.77 -0.14,1.05 -0.28,0.28 -1.05,0.49 z" />
  </g>
</svg>
