<?xml version="1.0" encoding="UTF-8" standalone="no"?>
<svg
   xmlns:dc="http://purl.org/dc/elements/1.1/"
   xmlns:cc="http://creativecommons.org/ns#"
   xmlns:rdf="http://www.w3.org/1999/02/22-rdf-syntax-ns#"
   xmlns:svg="http://www.w3.org/2000/svg"
   xmlns="http://www.w3.org/2000/svg"
   xmlns:sodipodi="http://sodipodi.sourceforge.net/DTD/sodipodi-0.dtd"
   xmlns:inkscape="http://www.inkscape.org/namespaces/inkscape"
   version="1.1"
   id="svg4197"
   viewBox="0 0 560.00001 460.00001"
   height="460"
   width="560"
   inkscape:version="0.91 r13725"
   sodipodi:docname="no_image.svg">
  <sodipodi:namedview
     pagecolor="#ffffff"
     bordercolor="#666666"
     borderopacity="1"
     objecttolerance="10"
     gridtolerance="10"
     guidetolerance="10"
     inkscape:pageopacity="0"
     inkscape:pageshadow="2"
     inkscape:window-width="1252"
     inkscape:window-height="866"
     id="namedview16"
     showgrid="false"
     inkscape:zoom="0.51304348"
     inkscape:cx="-57.203389"
     inkscape:cy="230"
     inkscape:window-x="27"
     inkscape:window-y="191"
     inkscape:window-maximized="0"
     inkscape:current-layer="layer1" />
  <defs
     id="defs4199" />
  <metadata
     id="metadata4202">
    <rdf:RDF>
      <cc:Work
         rdf:about="">
        <dc:format>image/svg+xml</dc:format>
        <dc:type
           rdf:resource="http://purl.org/dc/dcmitype/StillImage" />
        <dc:title />
      </cc:Work>
    </rdf:RDF>
  </metadata>
  <text
     xml:space="preserve"
     style="font-style:normal;font-weight:normal;font-size:40px;line-height:125%;font-family:sans-serif;letter-spacing:0px;word-spacing:0px;fill:#000000;fill-opacity:1;stroke:none;stroke-width:1px;stroke-linecap:butt;stroke-linejoin:miter;stroke-opacity:1"
     x="115"
     y="660.7627"
     id="text3344"
     sodipodi:linespacing="125%"><tspan
       sodipodi:role="line"
       id="tspan3346"
       x="115"
       y="660.7627" /></text>
  <g
     inkscape:groupmode="layer"
     id="layer1"
     inkscape:label="Layer 1">
    <g
       id="g3393"
       transform="translate(62.031506,-37.679147)" />
    <rect
       ry="5.9030401e-05"
       y="3.1347656e-06"
       x="-2.7832032e-06"
       height="460"
       width="560"
       id="rect4157-4-5"
       style="color:#000000;font-style:normal;font-weight:normal;font-size:medium;line-height:125%;font-family:sans-serif;letter-spacing:0px;word-spacing:0px;clip-rule:nonzero;display:inline;overflow:visible;visibility:visible;opacity:1;isolation:auto;mix-blend-mode:normal;color-interpolation:sRGB;color-interpolation-filters:linearRGB;solid-color:#000000;solid-opacity:1;fill:#f9f9f9;fill-opacity:1;fill-rule:nonzero;stroke:none;stroke-width:0;stroke-linecap:butt;stroke-linejoin:miter;stroke-miterlimit:4;stroke-dasharray:none;stroke-dashoffset:0;stroke-opacity:1;color-rendering:auto;image-rendering:auto;shape-rendering:auto;text-rendering:auto;enable-background:accumulate" />
    <path
       inkscape:connector-curvature="0"
       id="path3378"
       style="font-style:normal;font-variant:normal;font-weight:bold;font-stretch:normal;font-size:70px;line-height:125%;font-family:sans-serif;-inkscape-font-specification:'sans-serif Bold';text-align:center;letter-spacing:0px;word-spacing:0px;text-anchor:middle;fill:#b3b3b3;fill-opacity:1;stroke:none;stroke-width:1px;stroke-linecap:butt;stroke-linejoin:miter;stroke-opacity:1"
       d="m 120.99116,129.2 q -0.77,0 -1.05,-0.28 -0.21,-0.35 -0.21,-1.19 l 0,-4.69 q 0,-0.77 0.21,-1.05 0.28,-0.35 1.05,-0.35 4.48,0 9.03,0 4.55,0 8.96,0 4.48,0 8.61,-0.07 4.13,-0.07 7.77,-0.21 0.07,-0.77 0.07,-1.4 0.07,-0.7 0.07,-1.26 0,-1.05 -0.35,-1.47 -0.28,-0.49 -1.54,-0.49 l -32.69,0 q -0.7,0 -1.12,-0.14 -0.35,-0.21 -0.35,-1.12 l 0,-5.32 q 0,-0.77 0.35,-0.98 0.42,-0.21 1.12,-0.21 l 39.2,0 q 2.52,0 3.71,1.12 1.26,1.05 1.26,3.71 0,1.82 -0.14,4.27 -0.14,2.38 -0.42,5.11 -0.21,2.66 -0.63,5.46 -0.35,2.73 -0.77,5.18 l 8.47,0 q 1.47,0 1.47,1.54 l 0,4.76 q 0,0.84 -0.42,1.12 -0.42,0.28 -1.05,0.28 l -60.06,0 q -0.84,0 -1.12,-0.28 -0.28,-0.35 -0.28,-1.12 l 0,-4.76 q 0,-0.84 0.21,-1.19 0.21,-0.35 1.19,-0.35 l 42.35,0 q 0.14,-0.98 0.35,-2.24 0.21,-1.26 0.35,-2.66 -3.71,0.14 -7.84,0.21 -4.06,0.07 -8.4,0.07 -4.27,0 -8.68,0 -4.41,0 -8.68,0 z m 42.7,46.06 -39.06,0 q -1.54,0 -2.52,-0.28 -0.91,-0.21 -1.47,-0.77 -0.49,-0.49 -0.7,-1.4 -0.14,-0.84 -0.14,-2.1 l 0,-9.45 q 0,-1.33 0.14,-2.17 0.21,-0.84 0.7,-1.33 0.56,-0.56 1.47,-0.77 0.91,-0.21 2.45,-0.21 l 28.56,0 q 0.63,0 0.63,-0.77 l 0,-1.89 q 0,-0.84 -0.7,-0.84 l -31.99,0 q -0.77,0 -1.12,-0.28 -0.28,-0.28 -0.28,-1.12 l 0,-4.83 q 0,-1.33 1.4,-1.33 l 37.24,0 q 3.15,0 4.06,1.05 0.91,0.98 0.91,3.43 l 0,9.31 q 0,1.4 -0.21,2.31 -0.14,0.84 -0.63,1.33 -0.49,0.49 -1.47,0.7 -0.98,0.14 -2.52,0.14 l -28.35,0 q -0.7,0 -0.7,0.7 l 0,2.24 q 0,0.77 0.77,0.77 l 33.46,0 q 0.77,0 1.12,0.21 0.35,0.21 0.35,1.12 l 0,4.83 q 0,1.4 -1.4,1.4 z" />
    <path
       inkscape:connector-curvature="0"
       id="path3380"
       style="font-style:normal;font-variant:normal;font-weight:bold;font-stretch:normal;font-size:70px;line-height:125%;font-family:sans-serif;-inkscape-font-specification:'sans-serif Bold';text-align:center;letter-spacing:0px;word-spacing:0px;text-anchor:middle;fill:#b3b3b3;fill-opacity:1;stroke:none;stroke-width:1px;stroke-linecap:butt;stroke-linejoin:miter;stroke-opacity:1"
       d="m 234.28288,175.68 -7.07,0 q -0.77,0 -1.05,-0.28 -0.21,-0.21 -0.21,-0.98 l 0,-32.76 -5.53,0 0,30.17 q 0,0.91 -0.28,1.05 -0.21,0.21 -0.98,0.21 l -6.58,0 q -0.77,0 -1.05,-0.21 -0.28,-0.14 -0.28,-1.05 l 0,-60.76 q 0,-0.77 0.28,-0.98 0.28,-0.28 1.05,-0.28 l 6.58,0 q 0.77,0 0.98,0.28 0.28,0.21 0.28,0.98 l 0,22.68 5.53,0 0,-23.94 q 0,-0.77 0.28,-0.98 0.28,-0.28 1.05,-0.28 l 7,0 q 0.77,0 0.98,0.28 0.28,0.21 0.28,0.98 l 0,64.61 q 0,0.77 -0.28,0.98 -0.21,0.28 -0.98,0.28 z m -27.23,-18.34 q -2.38,0.63 -5.46,1.05 -3.08,0.42 -6.3,0.7 -3.15,0.28 -6.23,0.35 -3.01,0 -5.39,-0.14 -3.08,-0.21 -4.2,-1.26 -1.05,-1.05 -1.05,-3.71 l 0,-18.27 q 0,-2.24 0.98,-3.15 0.98,-0.91 3.22,-0.91 l 11.76,0 q 0.63,0 0.77,-0.14 0.21,-0.21 0.21,-0.84 l 0,-8.54 q 0,-0.63 -0.21,-0.77 -0.14,-0.21 -0.77,-0.21 l -14.14,0 q -1.4,0 -1.4,-1.33 l 0,-5.32 q 0,-0.77 0.28,-1.05 0.35,-0.28 1.12,-0.28 l 19.67,0 q 1.54,0 2.45,0.28 0.98,0.21 1.47,0.77 0.49,0.56 0.63,1.47 0.21,0.91 0.21,2.31 l 0,16.17 q 0,2.94 -1.19,3.99 -1.12,0.98 -3.64,0.98 l -11.2,0 q -0.91,0 -0.91,0.91 l 0,10.01 q 0,0.91 1.05,0.91 3.43,0.14 7.56,-0.14 4.13,-0.35 9.59,-1.33 0.77,-0.14 0.91,0.14 0.21,0.21 0.35,0.77 l 0.91,5.18 q 0.14,0.77 -0.07,0.98 -0.21,0.21 -0.98,0.42 z" />
    <path
       inkscape:connector-curvature="0"
       id="path3382"
       style="font-style:normal;font-variant:normal;font-weight:bold;font-stretch:normal;font-size:70px;line-height:125%;font-family:sans-serif;-inkscape-font-specification:'sans-serif Bold';text-align:center;letter-spacing:0px;word-spacing:0px;text-anchor:middle;fill:#b3b3b3;fill-opacity:1;stroke:none;stroke-width:1px;stroke-linecap:butt;stroke-linejoin:miter;stroke-opacity:1"
       d="m 250.48459,145.58 q -0.98,0.35 -1.33,0.21 -0.35,-0.14 -0.77,-0.84 l -2.73,-4.9 q -0.91,-1.61 0.35,-2.1 5.11,-1.89 8.96,-4.34 3.92,-2.45 6.65,-5.53 2.73,-3.08 4.27,-6.86 1.61,-3.78 2.1,-8.47 0.14,-0.77 0.42,-1.12 0.28,-0.35 1.26,-0.28 l 6.65,0.42 q 1.26,0.14 1.47,0.49 0.28,0.28 0.14,1.26 -0.14,1.96 -0.42,3.71 0.98,3.5 3.08,6.51 2.17,3.01 5.11,5.46 2.94,2.45 6.44,4.34 3.5,1.82 7.28,2.94 0.91,0.28 0.98,0.7 0.07,0.42 -0.35,1.19 l -2.52,5.18 q -0.28,0.42 -0.35,0.63 -0.14,0.28 -0.28,0.28 -0.28,0.21 -1.12,0 -3.08,-0.7 -6.3,-2.17 -3.15,-1.54 -6.16,-3.57 -3.01,-2.03 -5.6,-4.62 -2.59,-2.59 -4.48,-5.53 -3.64,5.95 -9.59,10.29 -5.95,4.27 -13.16,6.72 z m 52.71,18.2 -60.13,0 q -0.91,0 -1.19,-0.42 -0.21,-0.42 -0.21,-1.05 l 0,-5.04 q 0,-0.77 0.21,-1.12 0.28,-0.35 1.19,-0.35 l 60.13,0 q 1.47,0 1.47,1.47 l 0,5.04 q 0,1.47 -1.47,1.47 z" />
    <path
       inkscape:connector-curvature="0"
       id="path3384"
       style="font-style:normal;font-variant:normal;font-weight:bold;font-stretch:normal;font-size:70px;line-height:125%;font-family:sans-serif;-inkscape-font-specification:'sans-serif Bold';text-align:center;letter-spacing:0px;word-spacing:0px;text-anchor:middle;fill:#b3b3b3;fill-opacity:1;stroke:none;stroke-width:1px;stroke-linecap:butt;stroke-linejoin:miter;stroke-opacity:1"
       d="m 334.32709,162.24 q -0.98,0.56 -1.54,0.56 -0.49,-0.07 -1.05,-0.84 l -3.29,-4.9 q -0.49,-0.63 -0.35,-1.26 0.21,-0.7 0.84,-1.05 6.16,-3.43 10.78,-7.77 4.62,-4.41 7.7,-9.45 -3.99,0.35 -8.26,0.49 -4.2,0.14 -7.91,0.14 -1.4,0 -1.4,-1.47 l 0,-5.18 q 0,-0.98 0.28,-1.19 0.28,-0.28 1.05,-0.28 2.38,0 5.04,0 2.73,-0.07 5.39,-0.14 2.66,-0.07 5.11,-0.21 2.45,-0.14 4.48,-0.28 0.91,-3.01 1.47,-6.23 0.21,-1.47 -1.12,-1.47 l -18.48,0 q -0.98,0 -1.19,-0.28 -0.21,-0.35 -0.21,-1.12 l 0,-5.25 q 0,-0.84 0.28,-1.05 0.35,-0.28 1.12,-0.28 l 24.43,0 q 3.5,0 4.62,1.47 1.19,1.4 0.98,4.48 -0.42,6.3 -2.52,12.39 -2.1,6.09 -5.81,11.62 -3.64,5.46 -8.82,10.22 -5.11,4.76 -11.62,8.33 z m 48.44,13.44 -7.14,0 q -0.77,0 -1.05,-0.28 -0.28,-0.21 -0.28,-1.05 l 0,-33.95 -10.99,0 q -0.63,0 -0.98,-0.21 -0.35,-0.28 -0.35,-1.05 l 0,-5.32 q 0,-0.84 0.35,-1.12 0.35,-0.28 0.98,-0.28 l 10.99,0 0,-22.54 q 0,-0.77 0.28,-1.05 0.28,-0.28 1.05,-0.28 l 7.14,0 q 0.77,0 0.98,0.28 0.28,0.28 0.28,1.05 l 0,64.47 q 0,0.84 -0.28,1.05 -0.21,0.28 -0.98,0.28 z" />
    <path
       inkscape:connector-curvature="0"
       id="path3386"
       style="font-style:normal;font-variant:normal;font-weight:bold;font-stretch:normal;font-size:70px;line-height:125%;font-family:sans-serif;-inkscape-font-specification:'sans-serif Bold';text-align:center;letter-spacing:0px;word-spacing:0px;text-anchor:middle;fill:#b3b3b3;fill-opacity:1;stroke:none;stroke-width:1px;stroke-linecap:butt;stroke-linejoin:miter;stroke-opacity:1"
       d="m 424.51881,156.22 -21.42,0 q -1.68,0 -2.8,-0.21 -1.05,-0.21 -1.68,-0.7 -0.56,-0.56 -0.77,-1.54 -0.21,-0.98 -0.21,-2.59 l 0,-37.59 q 0,-1.33 1.26,-1.33 l 7.07,0 q 1.4,0 1.4,1.33 l 0,14.07 12.81,0 0,-14.14 q 0,-1.4 1.33,-1.4 l 7,0 q 1.4,0 1.4,1.4 l 0,17.36 10.29,0 0,-21 q 0,-0.77 0.21,-1.05 0.28,-0.28 1.05,-0.28 l 7.07,0 q 0.77,0 1.05,0.28 0.28,0.28 0.28,1.05 l 0,64.47 q 0,0.84 -0.28,1.05 -0.28,0.28 -1.05,0.28 l -7.07,0 q -0.77,0 -1.05,-0.28 -0.21,-0.21 -0.21,-1.05 l 0,-35.49 -10.29,0 0,12.53 q 0,2.73 -1.12,3.78 -1.05,1.05 -4.27,1.05 z m -4.34,-20.65 -12.81,0 0,11.69 q 0,1.05 1.05,1.05 l 10.71,0 q 1.05,0 1.05,-1.05 l 0,-11.69 z" />
    <path
       inkscape:connector-curvature="0"
       id="path3388"
       style="font-style:normal;font-variant:normal;font-weight:bold;font-stretch:normal;font-size:70px;line-height:125%;font-family:sans-serif;-inkscape-font-specification:'sans-serif Bold';text-align:center;letter-spacing:0px;word-spacing:0px;text-anchor:middle;fill:#b3b3b3;fill-opacity:1;stroke:none;stroke-width:1px;stroke-linecap:butt;stroke-linejoin:miter;stroke-opacity:1"
       d="m 208.09741,263.18 -7,0 q -0.77,0 -1.05,-0.28 -0.28,-0.21 -0.28,-1.05 l 0,-64.47 q 0,-0.77 0.28,-1.05 0.28,-0.28 1.05,-0.28 l 7,0 q 0.77,0 1.05,0.28 0.28,0.28 0.28,1.05 l 0,64.47 q 0,0.84 -0.28,1.05 -0.28,0.28 -1.05,0.28 z m -33.39,-16.45 q -4.06,0 -7.35,-1.68 -3.29,-1.68 -5.6,-4.69 -2.31,-3.08 -3.57,-7.28 -1.26,-4.2 -1.26,-9.24 0,-5.18 1.26,-9.45 1.26,-4.34 3.57,-7.42 2.31,-3.08 5.6,-4.76 3.29,-1.75 7.35,-1.75 4.13,0 7.42,1.68 3.36,1.68 5.67,4.76 2.31,3.01 3.57,7.35 1.26,4.27 1.26,9.45 0,5.18 -1.26,9.45 -1.26,4.2 -3.57,7.21 -2.31,3.01 -5.67,4.69 -3.29,1.68 -7.42,1.68 z m 0,-37.8 q -1.82,0 -3.36,1.12 -1.47,1.05 -2.59,3.01 -1.05,1.96 -1.68,4.69 -0.56,2.73 -0.56,5.95 0,3.08 0.56,5.74 0.63,2.66 1.68,4.62 1.12,1.96 2.59,3.08 1.54,1.12 3.36,1.12 1.89,0 3.36,-1.12 1.54,-1.12 2.59,-3.08 1.12,-1.96 1.68,-4.62 0.63,-2.66 0.63,-5.74 0,-3.22 -0.63,-5.95 -0.56,-2.73 -1.68,-4.69 -1.05,-1.96 -2.59,-3.01 -1.47,-1.12 -3.36,-1.12 z" />
    <path
       inkscape:connector-curvature="0"
       id="path3390"
       style="font-style:normal;font-variant:normal;font-weight:bold;font-stretch:normal;font-size:70px;line-height:125%;font-family:sans-serif;-inkscape-font-specification:'sans-serif Bold';text-align:center;letter-spacing:0px;word-spacing:0px;text-anchor:middle;fill:#b3b3b3;fill-opacity:1;stroke:none;stroke-width:1px;stroke-linecap:butt;stroke-linejoin:miter;stroke-opacity:1"
       d="m 273.85913,263.18 -7,0 q -0.77,0 -1.05,-0.28 -0.28,-0.21 -0.28,-1.05 l 0,-64.47 q 0,-0.77 0.28,-1.05 0.28,-0.28 1.05,-0.28 l 7,0 q 0.77,0 1.05,0.28 0.28,0.28 0.28,1.05 l 0,64.47 q 0,0.84 -0.28,1.05 -0.28,0.28 -1.05,0.28 z m -22.05,-19.6 -23.17,0 q -1.61,0 -2.66,-0.14 -0.98,-0.21 -1.54,-0.7 -0.56,-0.56 -0.77,-1.47 -0.21,-0.98 -0.21,-2.59 l 0,-32.83 q 0,-3.01 1.05,-3.85 1.12,-0.84 3.78,-0.84 l 23.52,0 q 1.47,0 2.38,0.14 0.98,0.14 1.47,0.63 0.56,0.49 0.77,1.47 0.21,0.91 0.21,2.45 l 0,32.83 q 0,1.54 -0.21,2.52 -0.21,0.98 -0.77,1.54 -0.49,0.49 -1.47,0.7 -0.91,0.14 -2.38,0.14 z m -4.83,-33.11 q 0,-0.91 -0.21,-1.12 -0.14,-0.28 -0.98,-0.28 l -11.27,0 q -0.91,0 -1.19,0.21 -0.21,0.21 -0.21,1.19 l 0,23.8 q 0,0.98 0.21,1.19 0.28,0.21 1.19,0.21 l 11.27,0 q 0.84,0 0.98,-0.21 0.21,-0.28 0.21,-1.19 l 0,-23.8 z" />
    <path
       inkscape:connector-curvature="0"
       id="path3392"
       style="font-style:normal;font-variant:normal;font-weight:bold;font-stretch:normal;font-size:70px;line-height:125%;font-family:sans-serif;-inkscape-font-specification:'sans-serif Bold';text-align:center;letter-spacing:0px;word-spacing:0px;text-anchor:middle;fill:#b3b3b3;fill-opacity:1;stroke:none;stroke-width:1px;stroke-linecap:butt;stroke-linejoin:miter;stroke-opacity:1"
       d="m 323.59084,244.07 q -0.56,0.7 -1.26,0.49 -0.7,-0.21 -1.61,-0.84 -1.19,-0.84 -2.8,-2.24 -1.54,-1.4 -3.29,-3.08 -1.68,-1.75 -3.36,-3.64 -1.68,-1.96 -3.01,-3.78 -3.57,4.48 -7.98,8.54 -4.41,3.99 -9.45,7.21 -0.63,0.42 -1.05,0.35 -0.35,-0.07 -0.91,-0.77 l -3.29,-4.41 q -0.56,-0.77 -0.42,-1.19 0.21,-0.49 0.84,-0.91 4.06,-2.8 7.7,-6.23 3.64,-3.43 6.65,-7.21 3.08,-3.78 5.39,-7.77 2.31,-3.99 3.57,-7.98 0.42,-1.4 -1.05,-1.4 l -17.01,0 q -0.98,0 -1.19,-0.35 -0.14,-0.42 -0.14,-1.12 l 0,-5.04 q 0,-0.84 0.28,-1.12 0.35,-0.35 1.12,-0.35 l 23.1,0 q 2.73,0 4.27,1.19 1.61,1.19 1.61,3.5 0,0.98 -0.21,1.89 -0.14,0.91 -0.35,1.75 -0.84,3.43 -2.45,7 -1.61,3.57 -3.85,7.21 1.33,2.1 3.01,4.06 1.75,1.96 3.57,3.78 1.82,1.75 3.64,3.29 1.82,1.47 3.29,2.66 1.19,0.91 -0.07,2.38 l -3.29,4.13 z m 16.03,19.11 -7,0 q -0.77,0 -1.05,-0.28 -0.28,-0.21 -0.28,-1.05 l 0,-64.47 q 0,-0.77 0.28,-1.05 0.28,-0.28 1.05,-0.28 l 7,0 q 0.77,0 1.05,0.28 0.28,0.28 0.28,1.05 l 0,64.47 q 0,0.84 -0.28,1.05 -0.28,0.28 -1.05,0.28 z" />
    <path
       inkscape:connector-curvature="0"
       id="path3394"
       style="font-style:normal;font-variant:normal;font-weight:bold;font-stretch:normal;font-size:70px;line-height:125%;font-family:sans-serif;-inkscape-font-specification:'sans-serif Bold';text-align:center;letter-spacing:0px;word-spacing:0px;text-anchor:middle;fill:#b3b3b3;fill-opacity:1;stroke:none;stroke-width:1px;stroke-linecap:butt;stroke-linejoin:miter;stroke-opacity:1"
       d="m 412.66256,229.23 -8.68,0 0,32.62 q 0,0.84 -0.28,1.05 -0.21,0.28 -0.98,0.28 l -7.07,0 q -0.77,0 -1.12,-0.28 -0.28,-0.21 -0.28,-1.05 l 0,-64.47 q 0,-0.77 0.28,-1.05 0.35,-0.28 1.12,-0.28 l 7.07,0 q 0.77,0 0.98,0.28 0.28,0.28 0.28,1.05 l 0,23.87 8.68,0 q 0.63,0 0.98,0.21 0.42,0.14 0.42,1.12 l 0,5.32 q 0,0.84 -0.42,1.12 -0.35,0.21 -0.98,0.21 z m -55.16,19.53 q -0.98,0.56 -1.54,0.56 -0.49,0 -1.05,-0.77 l -3.29,-4.9 q -0.49,-0.7 -0.35,-1.33 0.21,-0.63 0.84,-0.98 10.57,-5.95 16.66,-13.72 6.09,-7.77 7.35,-16.94 0.21,-1.47 -1.05,-1.47 l -19.53,0 q -0.91,0 -1.12,-0.28 -0.21,-0.35 -0.21,-1.12 l 0,-5.25 q 0,-0.84 0.28,-1.05 0.28,-0.28 1.05,-0.28 l 25.48,0 q 3.5,0 4.62,1.47 1.12,1.4 0.91,4.48 -0.42,6.3 -2.59,12.25 -2.1,5.95 -5.88,11.27 -3.71,5.32 -8.89,9.94 -5.18,4.55 -11.69,8.12 z" />
    <path
       inkscape:connector-curvature="0"
       id="path3396"
       style="font-style:normal;font-variant:normal;font-weight:bold;font-stretch:normal;font-size:70px;line-height:125%;font-family:sans-serif;-inkscape-font-specification:'sans-serif Bold';text-align:center;letter-spacing:0px;word-spacing:0px;text-anchor:middle;fill:#b3b3b3;fill-opacity:1;stroke:none;stroke-width:1px;stroke-linecap:butt;stroke-linejoin:miter;stroke-opacity:1"
       d="m 173.23741,317.64 q -3.85,0 -7,-1.33 -3.08,-1.33 -5.32,-3.5 -2.24,-2.24 -3.5,-5.11 -1.19,-2.94 -1.19,-6.16 0,-3.22 1.19,-6.16 1.26,-2.94 3.5,-5.18 2.24,-2.24 5.32,-3.57 3.15,-1.33 7,-1.33 3.36,0 6.16,1.05 2.8,0.98 4.97,2.73 2.17,1.75 3.57,4.13 1.47,2.31 2.03,4.97 l 9.87,0 0,-13.3 q 0,-0.91 0.42,-1.12 0.42,-0.21 1.05,-0.21 l 6.86,0 q 0.98,0 1.12,0.42 0.21,0.35 0.21,0.91 l 0,32.69 q 0,1.33 -1.4,1.33 l -6.93,0 q -1.33,0 -1.33,-1.26 l 0,-11.48 -10.22,0 q -0.77,2.45 -2.24,4.55 -1.47,2.1 -3.57,3.64 -2.1,1.54 -4.76,2.45 -2.66,0.84 -5.81,0.84 z m 18.97,33.53 q -0.63,0.42 -0.98,0.21 -0.35,-0.14 -0.7,-0.56 l -3.57,-4.27 q 0,1.19 -0.21,1.96 -0.21,0.77 -0.77,1.19 -0.56,0.42 -1.54,0.56 -0.98,0.21 -2.52,0.21 l -13.23,0 q -1.68,0 -2.73,-0.21 -0.98,-0.14 -1.54,-0.7 -0.56,-0.49 -0.77,-1.47 -0.14,-0.91 -0.14,-2.38 l 0,-21.21 q 0,-1.26 1.4,-1.26 l 5.46,0 q 0.77,0 1.05,0.28 0.35,0.21 0.35,0.98 l 0,5.95 6.93,0 0,-5.88 q 0,-0.77 0.28,-1.05 0.35,-0.28 1.12,-0.28 l 5.53,0 q 0.63,0 0.98,0.28 0.35,0.28 0.35,1.05 l 0,20.51 q 0.07,-0.07 0.21,-0.14 5.46,-3.92 7.49,-9.1 2.03,-5.25 2.03,-12.11 0,-0.77 0.28,-0.91 0.28,-0.21 0.84,-0.21 l 6.3,0.07 q 0.84,0 1.05,0.21 0.21,0.21 0.21,0.98 0,1.47 -0.14,2.87 -0.07,1.4 -0.21,2.8 0.49,2.73 1.61,4.97 1.12,2.24 2.45,4.06 1.4,1.75 2.94,3.08 1.54,1.4 2.94,2.31 0.56,0.35 0.56,0.7 0,0.35 -0.56,1.12 l -2.87,4.27 q -0.35,0.42 -0.77,0.56 -0.35,0.14 -1.26,-0.35 -2.24,-1.26 -4.62,-3.64 -2.31,-2.38 -4.06,-5.46 -3.36,6.3 -9.17,10.01 z m -18.97,-57.75 q -1.75,0 -3.22,0.7 -1.4,0.63 -2.45,1.75 -1.05,1.12 -1.61,2.59 -0.56,1.47 -0.56,3.08 0,1.61 0.56,3.01 0.56,1.4 1.61,2.52 1.05,1.12 2.45,1.75 1.47,0.63 3.22,0.63 1.82,0 3.29,-0.63 1.47,-0.63 2.52,-1.75 1.05,-1.12 1.61,-2.52 0.56,-1.4 0.56,-3.01 0,-1.61 -0.63,-3.08 -0.56,-1.47 -1.61,-2.59 -1.05,-1.12 -2.52,-1.75 -1.47,-0.7 -3.22,-0.7 z m 5.46,44.03 -6.93,0 0,5.32 q 0,0.63 0.7,0.63 l 5.6,0 q 0.63,0 0.63,-0.63 l 0,-5.32 z" />
    <path
       inkscape:connector-curvature="0"
       id="path3398"
       style="font-style:normal;font-variant:normal;font-weight:bold;font-stretch:normal;font-size:70px;line-height:125%;font-family:sans-serif;-inkscape-font-specification:'sans-serif Bold';text-align:center;letter-spacing:0px;word-spacing:0px;text-anchor:middle;fill:#b3b3b3;fill-opacity:1;stroke:none;stroke-width:1px;stroke-linecap:butt;stroke-linejoin:miter;stroke-opacity:1"
       d="m 266.36913,349.7 -32.55,0 q -1.68,0 -2.73,-0.21 -1.05,-0.21 -1.68,-0.77 -0.56,-0.49 -0.84,-1.47 -0.21,-0.98 -0.21,-2.59 l 0,-19.74 q 0,-1.26 1.33,-1.26 l 6.93,0 q 0.77,0 1.12,0.28 0.35,0.21 0.35,0.98 l 0,4.69 23.87,0 0,-4.97 q 0,-1.33 1.4,-1.33 l 7.07,0 q 0.63,0 0.91,0.28 0.35,0.28 0.35,1.05 l 0,20.23 q 0,2.73 -1.05,3.78 -0.98,1.05 -4.27,1.05 z m -38.29,-41.09 q -1.19,0.21 -1.54,-0.07 -0.28,-0.28 -0.63,-1.12 l -1.82,-4.34 q -0.21,-0.56 -0.14,-0.98 0.14,-0.49 0.91,-0.7 9.52,-2.59 14.35,-6.44 4.9,-3.92 5.88,-10.29 0.14,-0.98 0.42,-1.19 0.28,-0.28 1.26,-0.21 l 6.16,0.28 q 1.61,0.07 1.54,1.47 -0.07,0.7 -0.14,1.33 -0.07,0.63 -0.21,1.19 1.26,2.52 3.5,4.69 2.31,2.1 5.11,3.78 2.87,1.61 6.02,2.87 3.22,1.19 6.37,1.89 0.98,0.21 1.05,0.77 0.07,0.49 -0.35,1.26 l -2.1,4.41 q -0.35,0.56 -0.63,0.77 -0.28,0.21 -1.26,0.07 -2.66,-0.42 -5.67,-1.4 -2.94,-0.98 -5.88,-2.45 -2.94,-1.47 -5.6,-3.43 -2.59,-1.96 -4.48,-4.41 -3.5,4.62 -9.24,7.7 -5.67,3.08 -12.88,4.55 z m 51.94,11.06 -60.06,0 q -0.98,0 -1.19,-0.35 -0.21,-0.35 -0.21,-1.12 l 0,-4.97 q 0,-0.77 0.28,-1.05 0.28,-0.35 1.12,-0.35 l 60.06,0 q 0.63,0 1.05,0.28 0.42,0.28 0.42,1.12 l 0,4.97 q 0,1.47 -1.47,1.47 z m -18.06,17.64 -23.87,0 0,3.85 q 0,0.63 0.63,0.63 l 22.61,0 q 0.63,0 0.63,-0.63 l 0,-3.85 z" />
    <path
       inkscape:connector-curvature="0"
       id="path3400"
       style="font-style:normal;font-variant:normal;font-weight:bold;font-stretch:normal;font-size:70px;line-height:125%;font-family:sans-serif;-inkscape-font-specification:'sans-serif Bold';text-align:center;letter-spacing:0px;word-spacing:0px;text-anchor:middle;fill:#b3b3b3;fill-opacity:1;stroke:none;stroke-width:1px;stroke-linecap:butt;stroke-linejoin:miter;stroke-opacity:1"
       d="m 339.62084,350.68 -7,0 q -0.77,0 -1.05,-0.28 -0.28,-0.21 -0.28,-1.05 l 0,-64.47 q 0,-0.77 0.28,-1.05 0.28,-0.28 1.05,-0.28 l 7,0 q 0.77,0 1.05,0.28 0.28,0.28 0.28,1.05 l 0,64.47 q 0,0.84 -0.28,1.05 -0.28,0.28 -1.05,0.28 z m -12.88,-21.56 q -3.92,0.77 -8.4,1.26 -4.41,0.49 -8.68,0.77 -4.27,0.21 -7.98,0.28 -3.71,0 -6.16,-0.14 -2.94,-0.14 -4.13,-1.26 -1.19,-1.19 -1.19,-3.92 l 0,-36.89 q 0,-1.47 1.33,-1.47 l 6.93,0 q 1.47,0 1.47,1.47 l 0,32.55 q 0,0.7 0.21,0.98 0.21,0.21 1.05,0.28 2.17,0.14 5.25,0.07 3.15,-0.07 6.51,-0.35 3.43,-0.28 6.65,-0.63 3.29,-0.42 5.74,-0.91 0.84,-0.14 1.12,0.14 0.28,0.21 0.35,0.56 l 0.98,5.74 q 0.35,1.19 -1.05,1.47 z" />
    <path
       inkscape:connector-curvature="0"
       id="path3402"
       style="font-style:normal;font-variant:normal;font-weight:bold;font-stretch:normal;font-size:70px;line-height:125%;font-family:sans-serif;-inkscape-font-specification:'sans-serif Bold';text-align:center;letter-spacing:0px;word-spacing:0px;text-anchor:middle;fill:#b3b3b3;fill-opacity:1;stroke:none;stroke-width:1px;stroke-linecap:butt;stroke-linejoin:miter;stroke-opacity:1"
       d="m 412.66256,316.73 -8.68,0 0,32.62 q 0,0.84 -0.28,1.05 -0.21,0.28 -0.98,0.28 l -7.07,0 q -0.77,0 -1.12,-0.28 -0.28,-0.21 -0.28,-1.05 l 0,-64.47 q 0,-0.77 0.28,-1.05 0.35,-0.28 1.12,-0.28 l 7.07,0 q 0.77,0 0.98,0.28 0.28,0.28 0.28,1.05 l 0,23.87 8.68,0 q 0.63,0 0.98,0.21 0.42,0.14 0.42,1.12 l 0,5.32 q 0,0.84 -0.42,1.12 -0.35,0.21 -0.98,0.21 z m -23.17,12.6 q -2.94,0.7 -6.86,1.26 -3.92,0.49 -8.12,0.84 -4.13,0.28 -8.12,0.35 -3.92,0.07 -6.93,-0.07 -2.52,-0.07 -3.78,-0.91 -1.19,-0.84 -1.19,-3.78 l 0,-33.74 q 0,-2.8 0.91,-3.64 0.98,-0.84 3.85,-0.84 l 25.27,0 q 0.77,0 1.05,0.28 0.35,0.21 0.35,0.98 l 0,5.53 q 0,0.77 -0.35,0.98 -0.28,0.21 -1.05,0.21 l -19.32,0 q -0.7,0 -0.84,0.28 -0.14,0.28 -0.14,0.7 l 0,24.71 q 0,1.12 1.12,1.12 2.52,0.07 5.39,0 2.87,-0.07 5.88,-0.28 3.01,-0.28 6.02,-0.63 3.01,-0.42 5.74,-0.91 0.77,-0.14 1.05,0.14 0.28,0.21 0.42,0.77 l 0.84,5.11 q 0.14,0.77 -0.14,1.05 -0.28,0.28 -1.05,0.49 z" />
  </g>
</svg>
