<?xml version="1.0" encoding="UTF-8" standalone="no"?>
<svg
   xmlns:dc="http://purl.org/dc/elements/1.1/"
   xmlns:cc="http://creativecommons.org/ns#"
   xmlns:rdf="http://www.w3.org/1999/02/22-rdf-syntax-ns#"
   xmlns:svg="http://www.w3.org/2000/svg"
   xmlns="http://www.w3.org/2000/svg"
   version="1.1"
   id="svg10778"
   viewBox="0 0 100 100"
   height="100"
   width="100">
  <defs
     id="defs10780" />
  <metadata
     id="metadata10783">
    <rdf:RDF>
      <cc:Work
         rdf:about="">
        <dc:format>image/svg+xml</dc:format>
        <dc:type
           rdf:resource="http://purl.org/dc/dcmitype/StillImage" />
        <dc:title></dc:title>
      </cc:Work>
    </rdf:RDF>
  </metadata>
  <g
     transform="translate(-770,-679.50507)"
     id="layer1">
    <g
       id="text7403-1-0-4-2-4-0-4-4"
       style="font-style:normal;font-weight:normal;font-size:14.64888477px;line-height:125%;font-family:sans-serif;letter-spacing:0px;word-spacing:0px;fill:#e85c41;fill-opacity:1;stroke:none;stroke-width:1px;stroke-linecap:butt;stroke-linejoin:miter;stroke-opacity:1">
      <g
         id="g11360">
        <circle
           style="color:#000000;clip-rule:nonzero;display:inline;overflow:visible;visibility:visible;opacity:1;isolation:auto;mix-blend-mode:normal;color-interpolation:sRGB;color-interpolation-filters:linearRGB;solid-color:#000000;solid-opacity:1;fill:#000000;fill-opacity:1;fill-rule:nonzero;stroke:none;stroke-width:0;stroke-linecap:butt;stroke-linejoin:miter;stroke-miterlimit:4;stroke-dasharray:none;stroke-dashoffset:0;stroke-opacity:1;color-rendering:auto;image-rendering:auto;shape-rendering:auto;text-rendering:auto;enable-background:accumulate"
           id="path7401-3-8-6-0-9-3-0"
           cx="820"
           cy="729.50507"
           r="20" />
        <circle
           style="color:#000000;clip-rule:nonzero;display:inline;overflow:visible;visibility:visible;opacity:1;isolation:auto;mix-blend-mode:normal;color-interpolation:sRGB;color-interpolation-filters:linearRGB;solid-color:#000000;solid-opacity:1;fill:none;fill-opacity:1;fill-rule:nonzero;stroke:none;stroke-width:0;stroke-linecap:butt;stroke-linejoin:miter;stroke-miterlimit:4;stroke-dasharray:none;stroke-dashoffset:0;stroke-opacity:1;color-rendering:auto;image-rendering:auto;shape-rendering:auto;text-rendering:auto;enable-background:accumulate"
           id="path4833-22-9-7-8-2-8-0-4-1-3"
           cx="820"
           cy="729.50507"
           r="50" />
        <g
           style="font-style:normal;font-weight:normal;font-size:14.64888477px;line-height:125%;font-family:sans-serif;letter-spacing:0px;word-spacing:0px;fill:#ffffff;fill-opacity:1;stroke:none;stroke-width:1px;stroke-linecap:butt;stroke-linejoin:miter;stroke-opacity:1"
           id="text7403-1-0-9-7-5-5-5">
          <path
             d="m 813.37876,737.10355 q 0,0.44625 -0.16625,0.83125 -0.1575,0.385 -0.48125,0.665 -0.315,0.28875 -0.7875,0.44625 -0.46375,0.1575 -1.07625,0.1575 -0.3675,0 -0.7875,-0.07 -0.42,-0.0612 -0.735,-0.18375 -0.1225,-0.0437 -0.14875,-0.105 -0.0263,-0.0612 -0.009,-0.1575 l 0.0875,-0.7 q 0.0175,-0.1225 0.0613,-0.14875 0.0525,-0.0263 0.1925,0.0175 0.21,0.07 0.48125,0.14 0.27125,0.07 0.48125,0.0875 0.2975,0.0263 0.595,-0.009 0.2975,-0.035 0.53375,-0.14875 0.23625,-0.1225 0.37625,-0.3325 0.14875,-0.21 0.14875,-0.525 0,-0.18375 -0.0875,-0.35875 -0.0875,-0.18375 -0.27125,-0.32375 -0.175,-0.14 -0.44625,-0.2275 -0.2625,-0.0875 -0.62125,-0.0875 l -0.4725,0 q -0.11375,0 -0.14875,-0.035 -0.0263,-0.035 -0.0263,-0.14 l 0,-0.7175 q 0,-0.1225 0.0263,-0.14875 0.035,-0.035 0.14875,-0.035 l 0.455,0 q 0.18375,0 0.4025,-0.0525 0.2275,-0.0525 0.42,-0.16625 0.20125,-0.11375 0.3325,-0.28 0.14,-0.175 0.14,-0.41125 0,-0.3325 -0.23625,-0.56 -0.2275,-0.2275 -0.7,-0.2275 -0.30625,0 -0.65625,0.0875 -0.35,0.0875 -0.63,0.21 -0.1225,0.0525 -0.1925,0.0438 -0.07,-0.0175 -0.0875,-0.14 l -0.0875,-0.72625 q -0.0175,-0.0875 0.009,-0.13125 0.035,-0.0437 0.16625,-0.0962 0.3675,-0.14875 0.76125,-0.245 0.39375,-0.105 0.77,-0.105 0.385,0 0.77,0.105 0.385,0.105 0.69125,0.32375 0.30625,0.21 0.49,0.55125 0.1925,0.3325 0.1925,0.7875 0,0.25375 -0.0962,0.49 -0.0875,0.23625 -0.25375,0.44625 -0.1575,0.20125 -0.385,0.3675 -0.21875,0.1575 -0.48125,0.2625 0.665,0.25375 0.9975,0.69125 0.34125,0.4375 0.34125,0.88375 z"
             style="font-style:normal;font-variant:normal;font-weight:bold;font-stretch:normal;font-size:8.75px;font-family:NanumGothic;-inkscape-font-specification:'NanumGothic Bold'"
             id="path11343" />
          <path
             d="m 818.80786,737.80355 q -0.11375,0.14 -0.315,-0.0175 -0.16625,-0.1225 -0.37625,-0.34125 -0.21,-0.21875 -0.42875,-0.48125 -0.21,-0.27125 -0.41125,-0.5775 -0.1925,-0.30625 -0.3325,-0.595 -0.1575,0.34125 -0.35,0.67375 -0.1925,0.32375 -0.41125,0.62125 -0.21875,0.2975 -0.455,0.55125 -0.23625,0.25375 -0.4725,0.4375 -0.1225,0.0963 -0.18375,0.105 -0.0612,0.009 -0.14875,-0.0788 l -0.48125,-0.49875 q -0.07,-0.07 -0.07,-0.13125 0,-0.07 0.11375,-0.175 0.49875,-0.48125 0.91,-1.12 0.42,-0.6475 0.6475,-1.33875 0.18375,-0.56 0.27125,-1.21625 0.0875,-0.65625 0.0875,-1.42625 0,-0.0962 0.0263,-0.14 0.035,-0.0525 0.1575,-0.0525 l 0.84,0.0263 q 0.1225,0.009 0.14875,0.0612 0.0263,0.0438 0.0263,0.14875 0,1.07625 -0.16625,1.96 0.0962,0.3675 0.2975,0.77875 0.20125,0.4025 0.44625,0.77875 0.25375,0.3675 0.51625,0.6825 0.27125,0.315 0.49875,0.49875 0.1225,0.0962 0.11375,0.175 0,0.07 -0.0788,0.16625 l -0.42,0.525 z m 2.26625,2.17 -0.875,0 q -0.0963,0 -0.13125,-0.035 -0.035,-0.0263 -0.035,-0.13125 l 0,-8.05875 q 0,-0.0963 0.035,-0.13125 0.035,-0.035 0.13125,-0.035 l 0.875,0 q 0.0962,0 0.13125,0.035 0.035,0.035 0.035,0.13125 l 0,8.05875 q 0,0.105 -0.035,0.13125 -0.035,0.035 -0.13125,0.035 z"
             style="font-style:normal;font-variant:normal;font-weight:bold;font-stretch:normal;font-size:8.75px;font-family:NanumGothic;-inkscape-font-specification:'NanumGothic Bold'"
             id="path11345" />
          <path
             d="m 830.20433,735.07355 -1.085,0 0,2.23125 q 0,0.0963 -0.035,0.13125 -0.0263,0.035 -0.1225,0.035 l -0.88375,0 q -0.0963,0 -0.14,-0.035 -0.035,-0.035 -0.035,-0.13125 l 0,-5.55625 q 0,-0.16625 0.175,-0.16625 l 0.88375,0 q 0.1575,0 0.1575,0.16625 l 0,2.3275 1.085,0 q 0.07,0 0.1225,0.0175 0.0525,0.0175 0.0525,0.13125 l 0,0.69125 q 0,0.0962 -0.0525,0.13125 -0.0437,0.0263 -0.1225,0.0263 z m -7.035,1.75875 q -0.14875,0.0612 -0.1925,0.0612 -0.035,-0.009 -0.0787,-0.0963 l -0.3325,-0.6825 q -0.0437,-0.0875 -0.035,-0.1225 0.0175,-0.0438 0.14,-0.0963 0.55125,-0.23625 1.00625,-0.5425 0.46375,-0.315 0.81375,-0.65625 0.35875,-0.35 0.595,-0.7175 0.23625,-0.37625 0.35,-0.74375 0.035,-0.0962 0.0175,-0.14 -0.0175,-0.0525 -0.16625,-0.0525 l -2.205,0 q -0.11375,0 -0.14,-0.0525 -0.0263,-0.0525 -0.0263,-0.13125 l 0,-0.63 q 0,-0.0962 0.035,-0.13125 0.035,-0.0438 0.14,-0.0438 l 3.00125,0 q 0.39375,0 0.53375,0.14 0.14875,0.13125 0.14875,0.46375 0,0.5425 -0.245,1.1375 -0.245,0.595 -0.70875,1.16375 -0.46375,0.56 -1.1375,1.05 -0.665,0.49 -1.51375,0.8225 z m 6.125,3.00125 -4.76875,0 q -0.18375,0 -0.30625,-0.035 -0.11375,-0.0263 -0.18375,-0.0962 -0.0612,-0.07 -0.0875,-0.1925 -0.0263,-0.1225 -0.0263,-0.30625 l 0,-1.95125 q 0,-0.18375 0.175,-0.18375 l 0.8575,0 q 0.18375,0 0.18375,0.18375 l 0,1.4525 q 0,0.13125 0.13125,0.13125 l 4.025,0 q 0.07,0 0.1225,0.0263 0.0612,0.035 0.0612,0.13125 l 0,0.6825 q 0,0.1225 -0.0612,0.14 -0.0525,0.0175 -0.1225,0.0175 z"
             style="font-style:normal;font-variant:normal;font-weight:bold;font-stretch:normal;font-size:8.75px;font-family:NanumGothic;-inkscape-font-specification:'NanumGothic Bold'"
             id="path11347" />
        </g>
        <path
           d="m 819.83474,726.5473 -10.7375,0 q -0.1625,0 -0.2125,-0.075 -0.0375,-0.075 -0.0375,-0.1875 l 0,-0.9 q 0,-0.1375 0.0375,-0.2 0.05,-0.0625 0.2125,-0.0625 l 4.5,0 0,-1.875 q -0.775,-0.1 -1.4,-0.3625 -0.625,-0.275 -1.0625,-0.675 -0.4375,-0.4125 -0.6875,-0.9375 -0.2375,-0.525 -0.2375,-1.1375 0,-0.6875 0.3,-1.2625 0.3125,-0.5875 0.875,-1 0.5625,-0.425 1.35,-0.65 0.7875,-0.2375 1.7375,-0.2375 0.9625,0 1.7375,0.2375 0.7875,0.225 1.3375,0.65 0.5625,0.4125 0.8625,1 0.3125,0.575 0.3125,1.2625 0,0.625 -0.2375,1.15 -0.2375,0.525 -0.6875,0.925 -0.4375,0.4 -1.0625,0.675 -0.625,0.2625 -1.4,0.3625 l 0,1.875 4.5,0 q 0.2625,0 0.2625,0.2625 l 0,0.9 q 0,0.2625 -0.2625,0.2625 z m -5.3625,-8.1125 q -0.5875,0 -1.0625,0.1375 -0.4625,0.1375 -0.8,0.375 -0.325,0.225 -0.5125,0.5375 -0.175,0.3 -0.175,0.65 0,0.3625 0.175,0.675 0.1875,0.3125 0.5125,0.55 0.3375,0.225 0.8,0.3625 0.475,0.1375 1.0625,0.1375 0.575,0 1.0375,-0.1375 0.475,-0.1375 0.8,-0.3625 0.3375,-0.2375 0.5125,-0.55 0.175,-0.3125 0.175,-0.675 0,-0.35 -0.175,-0.65 -0.175,-0.3125 -0.5125,-0.5375 -0.325,-0.2375 -0.8,-0.375 -0.4625,-0.1375 -1.0375,-0.1375 z"
           style="font-style:normal;font-variant:normal;font-weight:bold;font-stretch:normal;font-size:12.5px;font-family:NanumGothic;-inkscape-font-specification:'NanumGothic Bold';fill:#e85c41;fill-opacity:1"
           id="path11350" />
        <path
           d="m 826.20291,723.4848 q -0.775,0 -1.425,-0.175 -0.6375,-0.1875 -1.1,-0.5 -0.4625,-0.3125 -0.725,-0.725 -0.25,-0.425 -0.25,-0.9125 0,-0.7125 0.5375,-1.2875 l -1.5125,0 q -0.275,0 -0.275,-0.275 l 0,-0.8375 q 0,-0.2625 0.2875,-0.2625 l 8.95,0 q 0.275,0 0.275,0.2625 l 0,0.85 q 0,0.2625 -0.275,0.2625 l -1.525,0 q 0.55,0.5875 0.55,1.2875 0,0.4875 -0.2625,0.9125 -0.2625,0.4125 -0.725,0.725 -0.4625,0.3125 -1.1125,0.5 -0.65,0.175 -1.4125,0.175 z m 5.375,1.875 -4.5,0 0,2.9625 q 0,0.25 -0.25,0.25 l -1.2375,0 q -0.25,0 -0.25,-0.25 l 0,-2.9625 -4.5,0 q -0.1625,0 -0.2125,-0.0625 -0.0375,-0.075 -0.0375,-0.2125 l 0,-0.85 q 0,-0.1375 0.0375,-0.2 0.05,-0.075 0.2125,-0.075 l 10.7375,0 q 0.2625,0 0.2625,0.275 l 0,0.85 q 0,0.275 -0.2625,0.275 z m -5.375,-5.4125 q -0.4125,0 -0.75,0.1 -0.325,0.0875 -0.5625,0.25 -0.225,0.15 -0.35,0.35 -0.1125,0.2 -0.1125,0.4125 0,0.4375 0.4625,0.775 0.4625,0.3375 1.3125,0.3375 0.4125,0 0.7375,-0.0875 0.3375,-0.1 0.5625,-0.25 0.2375,-0.1625 0.3625,-0.3625 0.125,-0.2 0.125,-0.4125 0,-0.2125 -0.125,-0.4125 -0.125,-0.2 -0.3625,-0.35 -0.225,-0.1625 -0.5625,-0.25 -0.325,-0.1 -0.7375,-0.1 z m 1.9625,-1.975 -3.9125,0 q -0.1,0 -0.1875,-0.0375 -0.075,-0.05 -0.075,-0.2125 l 0,-0.9 q 0,-0.1625 0.075,-0.2 0.0875,-0.05 0.1875,-0.05 l 3.9125,0 q 0.275,0 0.275,0.2625 l 0,0.875 q 0,0.1375 -0.05,0.2 -0.05,0.0625 -0.225,0.0625 z"
           style="font-style:normal;font-variant:normal;font-weight:bold;font-stretch:normal;font-size:12.5px;font-family:NanumGothic;-inkscape-font-specification:'NanumGothic Bold';fill:#e85c41;fill-opacity:1"
           id="path11352" />
      </g>
    </g>
  </g>
</svg>
