<?xml version="1.0" encoding="UTF-8" standalone="no"?>
<svg
   xmlns:dc="http://purl.org/dc/elements/1.1/"
   xmlns:cc="http://creativecommons.org/ns#"
   xmlns:rdf="http://www.w3.org/1999/02/22-rdf-syntax-ns#"
   xmlns:svg="http://www.w3.org/2000/svg"
   xmlns="http://www.w3.org/2000/svg"
   version="1.1"
   id="svg5438"
   viewBox="0 0 100 100"
   height="100"
   width="100">
  <defs
     id="defs5440" />
  <metadata
     id="metadata5443">
    <rdf:RDF>
      <cc:Work
         rdf:about="">
        <dc:format>image/svg+xml</dc:format>
        <dc:type
           rdf:resource="http://purl.org/dc/dcmitype/StillImage" />
        <dc:title></dc:title>
      </cc:Work>
    </rdf:RDF>
  </metadata>
  <g
     transform="translate(170,-608.07648)"
     id="layer1">
    <g
       id="text7403-1-0-4-2-1"
       style="font-style:normal;font-weight:normal;font-size:14.64888477px;line-height:125%;font-family:sans-serif;letter-spacing:0px;word-spacing:0px;fill:#e85c41;fill-opacity:1;stroke:none;stroke-width:1px;stroke-linecap:butt;stroke-linejoin:miter;stroke-opacity:1">
      <g
         id="g6017">
        <circle
           style="color:#000000;clip-rule:nonzero;display:inline;overflow:visible;visibility:visible;opacity:1;isolation:auto;mix-blend-mode:normal;color-interpolation:sRGB;color-interpolation-filters:linearRGB;solid-color:#000000;solid-opacity:1;fill:#000000;fill-opacity:1;fill-rule:nonzero;stroke:none;stroke-width:0;stroke-linecap:butt;stroke-linejoin:miter;stroke-miterlimit:4;stroke-dasharray:none;stroke-dashoffset:0;stroke-opacity:1;color-rendering:auto;image-rendering:auto;shape-rendering:auto;text-rendering:auto;enable-background:accumulate"
           id="path7401-3-8-6-7"
           cx="-120"
           cy="658.07648"
           r="20" />
        <circle
           style="color:#000000;clip-rule:nonzero;display:inline;overflow:visible;visibility:visible;opacity:1;isolation:auto;mix-blend-mode:normal;color-interpolation:sRGB;color-interpolation-filters:linearRGB;solid-color:#000000;solid-opacity:1;fill:none;fill-opacity:1;fill-rule:nonzero;stroke:none;stroke-width:0;stroke-linecap:butt;stroke-linejoin:miter;stroke-miterlimit:4;stroke-dasharray:none;stroke-dashoffset:0;stroke-opacity:1;color-rendering:auto;image-rendering:auto;shape-rendering:auto;text-rendering:auto;enable-background:accumulate"
           id="path4833-22-9-7-8-2-8-1"
           cx="-120"
           cy="658.07648"
           r="50" />
        <g
           style="font-style:normal;font-weight:normal;font-size:14.64888477px;line-height:125%;font-family:sans-serif;letter-spacing:0px;word-spacing:0px;fill:#ffffff;fill-opacity:1;stroke:none;stroke-width:1px;stroke-linecap:butt;stroke-linejoin:miter;stroke-opacity:1"
           id="text7403-1-0-9-3">
          <path
             d="m -124.29357,671.85627 q -0.1375,0 -0.1875,-0.0625 -0.05,-0.05 -0.05,-0.2 l 0,-7.125 -0.7625,0.725 q -0.2,0.1875 -0.3125,0.0375 l -0.7375,-0.8375 q -0.075,-0.0875 -0.05,-0.15 0.0375,-0.075 0.15,-0.175 l 1.925,-1.8 q 0.1375,-0.1125 0.3,-0.1125 l 0.825,0 q 0.275,0 0.325,0.0625 0.05,0.0625 0.05,0.375 l 0,9 q 0,0.1375 -0.05,0.2 -0.05,0.0625 -0.1875,0.0625 l -1.2375,0 z"
             style="font-style:normal;font-variant:normal;font-weight:bold;font-stretch:normal;font-size:12.5px;font-family:NanumGothic;-inkscape-font-specification:'NanumGothic Bold'"
             id="path6003" />
          <path
             d="m -114.98771,671.80627 q -0.1375,0 -0.2,-0.05 -0.05,-0.05 -0.05,-0.2 l 0,-3.975 q 0,-1.5875 -0.9375,-1.5875 -0.525,0 -0.8625,0.2125 -0.3375,0.2 -0.4875,0.5625 l 0,4.7875 q 0,0.15 -0.0625,0.2 -0.0625,0.05 -0.1875,0.05 l -1.15,0 q -0.1375,0 -0.1875,-0.05 -0.05,-0.05 -0.05,-0.2 l 0,-9.8125 q 0,-0.25 0.2375,-0.25 l 1.15,0 q 0.25,0 0.25,0.25 l 0,3.375 q 0.325,-0.275 0.7125,-0.4375 0.3875,-0.175 0.7375,-0.175 1.2625,0 1.8625,0.7375 0.6125,0.7375 0.6125,2.325 l 0,3.9875 q 0,0.15 -0.0625,0.2 -0.05,0.05 -0.175,0.05 l -1.15,0 z"
             style="font-style:normal;font-variant:normal;font-weight:bold;font-stretch:normal;font-size:12.5px;font-family:NanumGothic;-inkscape-font-specification:'NanumGothic Bold'"
             id="path6005" />
        </g>
        <path
           d="m -126.87581,652.06877 0,3.4875 q 0,0.175 -0.0625,0.2125 -0.05,0.05 -0.1875,0.05 l -1.2,0 q -0.125,0 -0.1875,-0.05 -0.0625,-0.0375 -0.0625,-0.2125 l 0,-9.1125 q 0,-0.15 0.0625,-0.2 0.075,-0.05 0.175,-0.05 l 2.5,0 q 0.6875,0 1.25,0.175 0.575,0.175 0.975,0.5375 0.4,0.3625 0.6125,0.9125 0.225,0.5375 0.225,1.2875 0,0.725 -0.25,1.275 -0.2375,0.55 -0.6625,0.925 -0.4125,0.375 -1,0.575 -0.575,0.1875 -1.25,0.1875 l -0.9375,0 z m 0,-4.325 0,2.775 0.825,0 q 0.75,0 1.15,-0.3375 0.4,-0.3375 0.4,-1.0875 0,-0.6625 -0.325,-1 -0.3125,-0.35 -0.8375,-0.35 l -1.2125,0 z"
           style="font-style:normal;font-variant:normal;font-weight:bold;font-stretch:normal;font-size:12.5px;font-family:NanumGothic;-inkscape-font-specification:'NanumGothic Bold';fill:#e85c41;fill-opacity:1"
           id="path6008" />
        <path
           d="m -112.88674,655.80627 q -0.1625,0 -0.2,-0.05 -0.0375,-0.0375 -0.0375,-0.1875 l 0,-6.275 -2.4375,6.2375 q -0.0625,0.1375 -0.1125,0.175 -0.05,0.0375 -0.1875,0.0375 l -1.0875,0 q -0.1375,0 -0.2,-0.0375 -0.05,-0.0375 -0.1,-0.175 l -2.4375,-6.2375 0,6.275 q 0,0.15 -0.0375,0.1875 -0.0375,0.05 -0.2,0.05 l -1.225,0 q -0.1625,0 -0.2,-0.05 -0.0375,-0.0375 -0.0375,-0.1875 l 0,-9.0125 q 0,-0.2625 0.05,-0.3125 0.0625,-0.0625 0.3125,-0.0625 l 1.4,0 q 0.1125,0 0.175,0.0375 0.0625,0.0375 0.1125,0.1625 l 2.925,7.2625 2.9375,-7.2625 q 0.075,-0.2 0.3125,-0.2 l 1.3625,0 q 0.2625,0 0.3125,0.0625 0.0625,0.05 0.0625,0.3125 l 0,9.0125 q 0,0.15 -0.05,0.1875 -0.0375,0.05 -0.1875,0.05 l -1.225,0 z"
           style="font-style:normal;font-variant:normal;font-weight:bold;font-stretch:normal;font-size:12.5px;font-family:NanumGothic;-inkscape-font-specification:'NanumGothic Bold';fill:#e85c41;fill-opacity:1"
           id="path6010" />
      </g>
    </g>
  </g>
</svg>
