<?xml version="1.0" encoding="UTF-8" standalone="no"?>
<svg
   xmlns:dc="http://purl.org/dc/elements/1.1/"
   xmlns:cc="http://creativecommons.org/ns#"
   xmlns:rdf="http://www.w3.org/1999/02/22-rdf-syntax-ns#"
   xmlns:svg="http://www.w3.org/2000/svg"
   xmlns="http://www.w3.org/2000/svg"
   version="1.1"
   id="svg9195"
   viewBox="0 0 100 100"
   height="100"
   width="100">
  <defs
     id="defs9197" />
  <metadata
     id="metadata9200">
    <rdf:RDF>
      <cc:Work
         rdf:about="">
        <dc:format>image/svg+xml</dc:format>
        <dc:type
           rdf:resource="http://purl.org/dc/dcmitype/StillImage" />
        <dc:title></dc:title>
      </cc:Work>
    </rdf:RDF>
  </metadata>
  <g
     transform="translate(-600,-1252.3622)"
     id="layer1">
    <g
       id="g9176"
       transform="translate(-284.28571,1170)">
      <circle
         style="color:#000000;clip-rule:nonzero;display:inline;overflow:visible;visibility:visible;opacity:1;isolation:auto;mix-blend-mode:normal;color-interpolation:sRGB;color-interpolation-filters:linearRGB;solid-color:#000000;solid-opacity:1;fill:#000000;fill-opacity:1;fill-rule:nonzero;stroke:none;stroke-width:0;stroke-linecap:butt;stroke-linejoin:miter;stroke-miterlimit:4;stroke-dasharray:none;stroke-dashoffset:0;stroke-opacity:1;color-rendering:auto;image-rendering:auto;shape-rendering:auto;text-rendering:auto;enable-background:accumulate"
         id="path7401-3-1-1"
         cx="934.28571"
         cy="132.3622"
         r="20" />
      <path
         d="m 932.71235,135.99595 q 0,0.97282 -0.36242,1.81211 -0.34334,0.83929 -1.04911,1.44968 -0.6867,0.62947 -1.71674,0.97282 -1.01096,0.34335 -2.3462,0.34335 -0.80114,0 -1.71673,-0.1526 -0.9156,-0.13353 -1.60229,-0.40057 -0.26705,-0.0954 -0.32427,-0.2289 -0.0572,-0.13352 -0.0191,-0.34335 l 0.19075,-1.52598 q 0.0381,-0.26705 0.13353,-0.32428 0.11445,-0.0572 0.41964,0.0382 0.4578,0.1526 1.04912,0.3052 0.59132,0.1526 1.04911,0.19075 0.64855,0.0572 1.29709,-0.0191 0.64854,-0.0763 1.16356,-0.32427 0.51502,-0.26704 0.82022,-0.72484 0.32427,-0.4578 0.32427,-1.14449 0,-0.40057 -0.19074,-0.78207 -0.19075,-0.40057 -0.59132,-0.70577 -0.3815,-0.30519 -0.97282,-0.49594 -0.57224,-0.19075 -1.35431,-0.19075 l -1.03004,0 q -0.24798,0 -0.32427,-0.0763 -0.0572,-0.0763 -0.0572,-0.3052 l 0,-1.56413 q 0,-0.26705 0.0572,-0.32427 0.0763,-0.0763 0.32427,-0.0763 l 0.99189,0 q 0.40057,0 0.87744,-0.11445 0.49595,-0.11445 0.91559,-0.36242 0.43872,-0.24798 0.72484,-0.6104 0.3052,-0.38149 0.3052,-0.89651 0,-0.72485 -0.51502,-1.22079 -0.49594,-0.49595 -1.52598,-0.49595 -0.66762,0 -1.43062,0.19075 -0.76299,0.19075 -1.37338,0.4578 -0.26705,0.11445 -0.41965,0.0954 -0.1526,-0.0382 -0.19075,-0.3052 l -0.19075,-1.58321 q -0.0381,-0.19075 0.0191,-0.28612 0.0763,-0.0954 0.36242,-0.20982 0.80114,-0.32427 1.65951,-0.5341 0.85837,-0.2289 1.67858,-0.2289 0.8393,0 1.67859,0.2289 0.83929,0.2289 1.50691,0.70577 0.66762,0.4578 1.06819,1.20171 0.41965,0.72485 0.41965,1.71674 0,0.55317 -0.20983,1.06819 -0.19075,0.51502 -0.55317,0.97281 -0.34334,0.43873 -0.83929,0.80115 -0.47687,0.34334 -1.04911,0.57224 1.44968,0.55317 2.17453,1.50691 0.74391,0.95374 0.74391,1.92656 z"
         style="font-style:normal;font-variant:normal;font-weight:bold;font-stretch:normal;font-size:19.07482147px;line-height:125%;font-family:NanumGothic;-inkscape-font-specification:'NanumGothic Bold';letter-spacing:0px;word-spacing:0px;fill:#ffffff;fill-opacity:1;stroke:none;stroke-width:1px;stroke-linecap:butt;stroke-linejoin:miter;stroke-opacity:1"
         id="path7853" />
      <path
         d="m 941.93443,140.19241 q -0.20982,0 -0.30519,-0.0763 -0.0763,-0.0763 -0.0763,-0.3052 l 0,-6.06579 q 0,-2.4225 -1.43061,-2.4225 -0.80115,0 -1.31617,0.32427 -0.51502,0.3052 -0.74391,0.85837 l 0,7.30565 q 0,0.2289 -0.0954,0.3052 -0.0954,0.0763 -0.28612,0.0763 l -1.75488,0 q -0.20983,0 -0.28613,-0.0763 -0.0763,-0.0763 -0.0763,-0.3052 l 0,-14.97373 q 0,-0.3815 0.36243,-0.3815 l 1.75488,0 q 0.3815,0 0.3815,0.3815 l 0,5.1502 q 0.49594,-0.41965 1.08726,-0.66762 0.59132,-0.26705 1.12541,-0.26705 1.92656,0 2.84215,1.12542 0.93467,1.12541 0.93467,3.54792 l 0,6.08486 q 0,0.2289 -0.0954,0.3052 -0.0763,0.0763 -0.26705,0.0763 l -1.75489,0 z"
         style="font-style:normal;font-variant:normal;font-weight:bold;font-stretch:normal;font-size:19.07482147px;line-height:125%;font-family:NanumGothic;-inkscape-font-specification:'NanumGothic Bold';letter-spacing:0px;word-spacing:0px;fill:#ffffff;fill-opacity:1;stroke:none;stroke-width:1px;stroke-linecap:butt;stroke-linejoin:miter;stroke-opacity:1"
         id="path7855" />
      <circle
         style="color:#000000;clip-rule:nonzero;display:inline;overflow:visible;visibility:visible;opacity:1;isolation:auto;mix-blend-mode:normal;color-interpolation:sRGB;color-interpolation-filters:linearRGB;solid-color:#000000;solid-opacity:1;fill:none;fill-opacity:1;fill-rule:nonzero;stroke:none;stroke-width:0;stroke-linecap:butt;stroke-linejoin:miter;stroke-miterlimit:4;stroke-dasharray:none;stroke-dashoffset:0;stroke-opacity:1;color-rendering:auto;image-rendering:auto;shape-rendering:auto;text-rendering:auto;enable-background:accumulate"
         id="path4833-22-9-7-8-6-6"
         cx="934.28571"
         cy="132.3622"
         r="50" />
    </g>
  </g>
</svg>
