<?xml version="1.0" encoding="UTF-8" standalone="no"?>
<svg
   xmlns:dc="http://purl.org/dc/elements/1.1/"
   xmlns:cc="http://creativecommons.org/ns#"
   xmlns:rdf="http://www.w3.org/1999/02/22-rdf-syntax-ns#"
   xmlns:svg="http://www.w3.org/2000/svg"
   xmlns="http://www.w3.org/2000/svg"
   version="1.1"
   id="svg12963"
   viewBox="0 0 100.00009 100.00001"
   height="100.00001"
   width="100.00009">
  <defs
     id="defs12965" />
  <metadata
     id="metadata12968">
    <rdf:RDF>
      <cc:Work
         rdf:about="">
        <dc:format>image/svg+xml</dc:format>
        <dc:type
           rdf:resource="http://purl.org/dc/dcmitype/StillImage" />
        <dc:title></dc:title>
      </cc:Work>
    </rdf:RDF>
  </metadata>
  <g
     transform="translate(-481.42851,-573.79077)"
     id="layer1">
    <g
       id="g13593">
      <path
         style="color:#000000;clip-rule:nonzero;display:inline;overflow:visible;visibility:visible;opacity:1;isolation:auto;mix-blend-mode:normal;color-interpolation:sRGB;color-interpolation-filters:linearRGB;solid-color:#000000;solid-opacity:1;fill:#e85c41;fill-opacity:1;fill-rule:nonzero;stroke:none;stroke-width:0;stroke-linecap:butt;stroke-linejoin:miter;stroke-miterlimit:4;stroke-dasharray:none;stroke-dashoffset:0;stroke-opacity:1;color-rendering:auto;image-rendering:auto;shape-rendering:auto;text-rendering:auto;enable-background:accumulate"
         d="m 531.42869,573.79095 0,50.00001 48.27539,12.93555 a 50,50 0 0 0 1.72461,-12.93555 50,50 0 0 0 -50,-50.00001 z"
         id="path12726-0" />
      <g
         id="g10-6-90-1-1"
         transform="matrix(-1.1610896,2.5915612e-8,1.5947132e-8,-1.161103,589.10346,682.65712)"
         style="fill:#ffffff;fill-opacity:1">
        <rect
           style="fill:#ffffff;fill-opacity:1"
           id="rect12-4-8-9-9"
           height="10.014"
           width="2.5"
           transform="matrix(0.8651,0.5016,-0.5016,0.8651,43.2277,-6.9119)"
           y="71.903999"
           x="33.214001" />
      </g>
      <g
         id="g30-7-4-7-3-2"
         transform="matrix(-1.1610896,2.5915612e-8,1.5947132e-8,-1.161103,589.10346,682.65712)"
         style="fill:#ffffff;fill-opacity:1">
        <rect
           style="fill:#ffffff;fill-opacity:1"
           id="rect32-6-1-5-5-3"
           height="10.018"
           width="2.5009999"
           transform="matrix(0.497,0.8678,-0.8678,0.497,68.6286,12.9693)"
           y="60.669998"
           x="21.878" />
      </g>
      <g
         id="g30-7-4-7-35-7"
         transform="matrix(-1.0055331,-0.58054478,0.58055152,-1.0055447,551.94344,703.60793)"
         style="fill:#ffffff;fill-opacity:1">
        <rect
           style="fill:#ffffff;fill-opacity:1"
           id="rect32-6-1-5-50-4"
           height="10.018"
           width="2.5009999"
           transform="matrix(0.497,0.8678,-0.8678,0.497,68.6286,12.9693)"
           y="60.669998"
           x="21.878" />
      </g>
      <circle
         style="color:#000000;clip-rule:nonzero;display:inline;overflow:visible;visibility:visible;opacity:1;isolation:auto;mix-blend-mode:normal;color-interpolation:sRGB;color-interpolation-filters:linearRGB;solid-color:#000000;solid-opacity:1;fill:none;fill-opacity:1;fill-rule:nonzero;stroke:none;stroke-width:0;stroke-linecap:butt;stroke-linejoin:miter;stroke-miterlimit:4;stroke-dasharray:none;stroke-dashoffset:0;stroke-opacity:1;color-rendering:auto;image-rendering:auto;shape-rendering:auto;text-rendering:auto;enable-background:accumulate"
         id="path4833-22-9-02"
         cx="464.992"
         cy="674.76965"
         r="50"
         transform="matrix(-0.25881905,0.96592583,0.96592583,0.25881905,0,0)" />
      <path
         style="fill:#ffffff;fill-opacity:1"
         d="m 531.42867,582.78903 1.45115,-3e-5 2e-5,11.62893 -1.45118,-10e-6 10e-6,-11.62889 z"
         id="rect28-7-1-6" />
    </g>
  </g>
</svg>
