<?xml version="1.0" encoding="UTF-8" standalone="no"?>
<svg
   xmlns:dc="http://purl.org/dc/elements/1.1/"
   xmlns:cc="http://creativecommons.org/ns#"
   xmlns:rdf="http://www.w3.org/1999/02/22-rdf-syntax-ns#"
   xmlns:svg="http://www.w3.org/2000/svg"
   xmlns="http://www.w3.org/2000/svg"
   version="1.1"
   id="svg8503"
   viewBox="0 0 100 100"
   height="100"
   width="100">
  <defs
     id="defs8505" />
  <metadata
     id="metadata8508">
    <rdf:RDF>
      <cc:Work
         rdf:about="">
        <dc:format>image/svg+xml</dc:format>
        <dc:type
           rdf:resource="http://purl.org/dc/dcmitype/StillImage" />
        <dc:title></dc:title>
      </cc:Work>
    </rdf:RDF>
  </metadata>
  <g
     transform="translate(-400,-1252.3622)"
     id="layer1">
    <g
       id="g9137">
      <circle
         style="color:#000000;clip-rule:nonzero;display:inline;overflow:visible;visibility:visible;opacity:1;isolation:auto;mix-blend-mode:normal;color-interpolation:sRGB;color-interpolation-filters:linearRGB;solid-color:#000000;solid-opacity:1;fill:#000000;fill-opacity:1;fill-rule:nonzero;stroke:none;stroke-width:0;stroke-linecap:butt;stroke-linejoin:miter;stroke-miterlimit:4;stroke-dasharray:none;stroke-dashoffset:0;stroke-opacity:1;color-rendering:auto;image-rendering:auto;shape-rendering:auto;text-rendering:auto;enable-background:accumulate"
         id="path7401-3-1"
         cx="450"
         cy="1302.3622"
         r="20" />
      <g
         transform="translate(-284.28571,1170)"
         style="font-style:normal;font-weight:normal;font-size:19.07482147px;line-height:125%;font-family:sans-serif;letter-spacing:0px;word-spacing:0px;fill:#ffffff;fill-opacity:1;stroke:none;stroke-width:1px;stroke-linecap:butt;stroke-linejoin:miter;stroke-opacity:1"
         id="text7403-4-9">
        <path
           d="m 723.99516,140.26871 q -0.26705,0 -0.3815,-0.0572 -0.11445,-0.0572 -0.11445,-0.32428 l 0,-1.35431 q 0,-0.20982 0.0954,-0.34335 0.0954,-0.15259 0.2289,-0.30519 l 2.78492,-3.35717 q 1.54506,-1.86933 2.23175,-3.05197 0.6867,-1.18264 0.6867,-1.88841 0,-0.78207 -0.41965,-1.23986 -0.40057,-0.4578 -1.16356,-0.5341 -0.72484,-0.0763 -1.46876,0.1526 -0.74392,0.2289 -1.65951,0.74392 -0.26705,0.1526 -0.3815,0.11445 -0.0954,-0.0572 -0.13352,-0.2289 l -0.34335,-1.67859 q -0.0381,-0.15259 0,-0.24797 0.0572,-0.0954 0.28612,-0.24797 0.36242,-0.24797 0.82022,-0.43872 0.4578,-0.20982 0.93467,-0.34335 0.49594,-0.1526 0.97281,-0.20982 0.47687,-0.0763 0.85837,-0.0763 0.91559,0 1.71673,0.26705 0.82022,0.26704 1.41154,0.80114 0.59132,0.51502 0.93467,1.29709 0.34334,0.78206 0.34334,1.81211 0,0.89651 -0.38149,1.79303 -0.3815,0.89652 -0.93467,1.75488 -0.55317,0.83929 -1.20171,1.62136 -0.62947,0.76299 -1.14449,1.39246 -0.32427,0.41965 -0.78207,0.9156 -0.43872,0.49594 -0.80114,0.91559 l 5.03575,0 q 0.28612,0 0.34335,0.0954 0.0763,0.0954 0.0763,0.36242 l 0,1.43061 q 0,0.28613 -0.0763,0.36243 -0.0763,0.0954 -0.34335,0.0954 l -8.0305,0 z"
           style="font-style:normal;font-variant:normal;font-weight:bold;font-stretch:normal;font-family:NanumGothic;-inkscape-font-specification:'NanumGothic Bold'"
           id="path7848" />
        <path
           d="m 741.93443,140.19241 q -0.20982,0 -0.30519,-0.0763 -0.0763,-0.0763 -0.0763,-0.3052 l 0,-6.06579 q 0,-2.4225 -1.43061,-2.4225 -0.80115,0 -1.31617,0.32427 -0.51502,0.3052 -0.74391,0.85837 l 0,7.30565 q 0,0.2289 -0.0954,0.3052 -0.0954,0.0763 -0.28612,0.0763 l -1.75488,0 q -0.20983,0 -0.28613,-0.0763 -0.0763,-0.0763 -0.0763,-0.3052 l 0,-14.97373 q 0,-0.3815 0.36243,-0.3815 l 1.75488,0 q 0.3815,0 0.3815,0.3815 l 0,5.1502 q 0.49594,-0.41965 1.08726,-0.66762 0.59132,-0.26705 1.12541,-0.26705 1.92656,0 2.84215,1.12542 0.93467,1.12541 0.93467,3.54792 l 0,6.08486 q 0,0.2289 -0.0954,0.3052 -0.0763,0.0763 -0.26705,0.0763 l -1.75489,0 z"
           style="font-style:normal;font-variant:normal;font-weight:bold;font-stretch:normal;font-family:NanumGothic;-inkscape-font-specification:'NanumGothic Bold'"
           id="path7850" />
      </g>
      <circle
         style="color:#000000;clip-rule:nonzero;display:inline;overflow:visible;visibility:visible;opacity:1;isolation:auto;mix-blend-mode:normal;color-interpolation:sRGB;color-interpolation-filters:linearRGB;solid-color:#000000;solid-opacity:1;fill:none;fill-opacity:1;fill-rule:nonzero;stroke:none;stroke-width:0;stroke-linecap:butt;stroke-linejoin:miter;stroke-miterlimit:4;stroke-dasharray:none;stroke-dashoffset:0;stroke-opacity:1;color-rendering:auto;image-rendering:auto;shape-rendering:auto;text-rendering:auto;enable-background:accumulate"
         id="path4833-22-9-7-8-6"
         cx="450"
         cy="1302.3622"
         r="50" />
    </g>
  </g>
</svg>
