<?xml version="1.0" encoding="UTF-8" standalone="no"?>
<svg
   xmlns:dc="http://purl.org/dc/elements/1.1/"
   xmlns:cc="http://creativecommons.org/ns#"
   xmlns:rdf="http://www.w3.org/1999/02/22-rdf-syntax-ns#"
   xmlns:svg="http://www.w3.org/2000/svg"
   xmlns="http://www.w3.org/2000/svg"
   version="1.1"
   id="svg6073"
   viewBox="0 0 100 100"
   height="100"
   width="100">
  <defs
     id="defs6075" />
  <metadata
     id="metadata6078">
    <rdf:RDF>
      <cc:Work
         rdf:about="">
        <dc:format>image/svg+xml</dc:format>
        <dc:type
           rdf:resource="http://purl.org/dc/dcmitype/StillImage" />
        <dc:title></dc:title>
      </cc:Work>
    </rdf:RDF>
  </metadata>
  <g
     transform="translate(-421.42856,-516.64795)"
     id="layer1">
    <g
       id="text7403-1-0-9-6"
       style="font-style:normal;font-weight:normal;font-size:14.64888477px;line-height:125%;font-family:sans-serif;letter-spacing:0px;word-spacing:0px;fill:#ffffff;fill-opacity:1;stroke:none;stroke-width:1px;stroke-linecap:butt;stroke-linejoin:miter;stroke-opacity:1" />
    <g
       id="g6649">
      <circle
         style="color:#000000;clip-rule:nonzero;display:inline;overflow:visible;visibility:visible;opacity:1;isolation:auto;mix-blend-mode:normal;color-interpolation:sRGB;color-interpolation-filters:linearRGB;solid-color:#000000;solid-opacity:1;fill:#000000;fill-opacity:1;fill-rule:nonzero;stroke:none;stroke-width:0;stroke-linecap:butt;stroke-linejoin:miter;stroke-miterlimit:4;stroke-dasharray:none;stroke-dashoffset:0;stroke-opacity:1;color-rendering:auto;image-rendering:auto;shape-rendering:auto;text-rendering:auto;enable-background:accumulate"
         id="path7401-3-8-6-9"
         cx="471.42856"
         cy="566.64795"
         r="20" />
      <circle
         style="color:#000000;clip-rule:nonzero;display:inline;overflow:visible;visibility:visible;opacity:1;isolation:auto;mix-blend-mode:normal;color-interpolation:sRGB;color-interpolation-filters:linearRGB;solid-color:#000000;solid-opacity:1;fill:none;fill-opacity:1;fill-rule:nonzero;stroke:none;stroke-width:0;stroke-linecap:butt;stroke-linejoin:miter;stroke-miterlimit:4;stroke-dasharray:none;stroke-dashoffset:0;stroke-opacity:1;color-rendering:auto;image-rendering:auto;shape-rendering:auto;text-rendering:auto;enable-background:accumulate"
         id="path4833-22-9-7-8-2-8-9"
         cx="471.42856"
         cy="566.64795"
         r="50" />
      <path
         d="m 464.68499,580.42769 q -0.175,0 -0.25,-0.0375 -0.075,-0.0375 -0.075,-0.2125 l 0,-0.8875 q 0,-0.1375 0.0625,-0.225 0.0625,-0.1 0.15,-0.2 l 1.825,-2.2 q 1.0125,-1.225 1.4625,-2 0.45,-0.775 0.45,-1.2375 0,-0.5125 -0.275,-0.8125 -0.2625,-0.3 -0.7625,-0.35 -0.475,-0.05 -0.9625,0.1 -0.4875,0.15 -1.0875,0.4875 -0.175,0.1 -0.25,0.075 -0.0625,-0.0375 -0.0875,-0.15 l -0.225,-1.1 q -0.025,-0.1 0,-0.1625 0.0375,-0.0625 0.1875,-0.1625 0.2375,-0.1625 0.5375,-0.2875 0.3,-0.1375 0.6125,-0.225 0.325,-0.1 0.6375,-0.1375 0.3125,-0.05 0.5625,-0.05 0.6,0 1.125,0.175 0.5375,0.175 0.925,0.525 0.3875,0.3375 0.6125,0.85 0.225,0.5125 0.225,1.1875 0,0.5875 -0.25,1.175 -0.25,0.5875 -0.6125,1.15 -0.3625,0.55 -0.7875,1.0625 -0.4125,0.5 -0.75,0.9125 -0.2125,0.275 -0.5125,0.6 -0.2875,0.325 -0.525,0.6 l 3.3,0 q 0.1875,0 0.225,0.0625 0.05,0.0625 0.05,0.2375 l 0,0.9375 q 0,0.1875 -0.05,0.2375 -0.05,0.0625 -0.225,0.0625 l -5.2625,0 z"
         style="font-style:normal;font-weight:bold;font-size:12.5px;line-height:125%;font-family:NanumGothic;letter-spacing:0px;word-spacing:0px;fill:#ffffff;fill-opacity:1;stroke:none;stroke-width:1px;stroke-linecap:butt;stroke-linejoin:miter;stroke-opacity:1;font-variant:normal;font-stretch:normal;-inkscape-font-specification:'NanumGothic Bold'"
         id="path6638" />
      <path
         d="m 476.44085,580.37769 q -0.1375,0 -0.2,-0.05 -0.05,-0.05 -0.05,-0.2 l 0,-3.975 q 0,-1.5875 -0.9375,-1.5875 -0.525,0 -0.8625,0.2125 -0.3375,0.2 -0.4875,0.5625 l 0,4.7875 q 0,0.15 -0.0625,0.2 -0.0625,0.05 -0.1875,0.05 l -1.15,0 q -0.1375,0 -0.1875,-0.05 -0.05,-0.05 -0.05,-0.2 l 0,-9.8125 q 0,-0.25 0.2375,-0.25 l 1.15,0 q 0.25,0 0.25,0.25 l 0,3.375 q 0.325,-0.275 0.7125,-0.4375 0.3875,-0.175 0.7375,-0.175 1.2625,0 1.8625,0.7375 0.6125,0.7375 0.6125,2.325 l 0,3.9875 q 0,0.15 -0.0625,0.2 -0.05,0.05 -0.175,0.05 l -1.15,0 z"
         style="font-style:normal;font-weight:bold;font-size:12.5px;line-height:125%;font-family:NanumGothic;letter-spacing:0px;word-spacing:0px;fill:#ffffff;fill-opacity:1;stroke:none;stroke-width:1px;stroke-linecap:butt;stroke-linejoin:miter;stroke-opacity:1;font-variant:normal;font-stretch:normal;-inkscape-font-specification:'NanumGothic Bold'"
         id="path6640" />
      <g
         style="font-style:normal;font-weight:normal;font-size:14.64888477px;line-height:125%;font-family:sans-serif;letter-spacing:0px;word-spacing:0px;fill:#ffffff;fill-opacity:1;stroke:none;stroke-width:1px;stroke-linecap:butt;stroke-linejoin:miter;stroke-opacity:1"
         id="text7403-1-0-4-2-0">
        <path
           d="m 469.05175,564.37769 q -0.1375,0 -0.2125,-0.0375 -0.075,-0.025 -0.1375,-0.175 l -0.7875,-2.0625 -3.8875,0 -0.7875,2.0625 q -0.0625,0.15 -0.1375,0.175 -0.0625,0.0375 -0.2,0.0375 l -1.2125,0 q -0.2,0 -0.2625,-0.075 -0.0625,-0.0625 0.0125,-0.2375 l 3.6375,-9.1 q 0.0875,-0.2125 0.3,-0.2125 l 1.2125,0 q 0.1625,0 0.2125,0.05 0.05,0.0375 0.1125,0.175 l 3.6125,9.0875 q 0.075,0.1875 0.0125,0.25 -0.05,0.0625 -0.2625,0.0625 l -1.225,0 z m -4.4375,-3.8125 2.7125,0 -1.35,-3.5375 -1.3625,3.5375 z"
           style="font-style:normal;font-variant:normal;font-weight:bold;font-stretch:normal;font-size:12.5px;font-family:NanumGothic;-inkscape-font-specification:'NanumGothic Bold'"
           id="path6643" />
        <path
           d="m 479.99628,564.37769 q -0.1625,0 -0.2,-0.05 -0.0375,-0.0375 -0.0375,-0.1875 l 0,-6.275 -2.4375,6.2375 q -0.0625,0.1375 -0.1125,0.175 -0.05,0.0375 -0.1875,0.0375 l -1.0875,0 q -0.1375,0 -0.2,-0.0375 -0.05,-0.0375 -0.1,-0.175 l -2.4375,-6.2375 0,6.275 q 0,0.15 -0.0375,0.1875 -0.0375,0.05 -0.2,0.05 l -1.225,0 q -0.1625,0 -0.2,-0.05 -0.0375,-0.0375 -0.0375,-0.1875 l 0,-9.0125 q 0,-0.2625 0.05,-0.3125 0.0625,-0.0625 0.3125,-0.0625 l 1.4,0 q 0.1125,0 0.175,0.0375 0.0625,0.0375 0.1125,0.1625 l 2.925,7.2625 2.9375,-7.2625 q 0.075,-0.2 0.3125,-0.2 l 1.3625,0 q 0.2625,0 0.3125,0.0625 0.0625,0.05 0.0625,0.3125 l 0,9.0125 q 0,0.15 -0.05,0.1875 -0.0375,0.05 -0.1875,0.05 l -1.225,0 z"
           style="font-style:normal;font-variant:normal;font-weight:bold;font-stretch:normal;font-size:12.5px;font-family:NanumGothic;-inkscape-font-specification:'NanumGothic Bold'"
           id="path6645" />
      </g>
    </g>
  </g>
</svg>
