<?xml version="1.0" encoding="UTF-8" standalone="no"?>
<svg
   xmlns:dc="http://purl.org/dc/elements/1.1/"
   xmlns:cc="http://creativecommons.org/ns#"
   xmlns:rdf="http://www.w3.org/1999/02/22-rdf-syntax-ns#"
   xmlns:svg="http://www.w3.org/2000/svg"
   xmlns="http://www.w3.org/2000/svg"
   version="1.1"
   id="svg7870"
   viewBox="0 0 100 100"
   height="100"
   width="100">
  <defs
     id="defs7872" />
  <metadata
     id="metadata7875">
    <rdf:RDF>
      <cc:Work
         rdf:about="">
        <dc:format>image/svg+xml</dc:format>
        <dc:type
           rdf:resource="http://purl.org/dc/dcmitype/StillImage" />
        <dc:title></dc:title>
      </cc:Work>
    </rdf:RDF>
  </metadata>
  <g
     transform="translate(684.28571,-802.36218)"
     id="layer1">
    <g
       id="g8464">
      <circle
         style="color:#000000;clip-rule:nonzero;display:inline;overflow:visible;visibility:visible;opacity:1;isolation:auto;mix-blend-mode:normal;color-interpolation:sRGB;color-interpolation-filters:linearRGB;solid-color:#000000;solid-opacity:1;fill:#000000;fill-opacity:1;fill-rule:nonzero;stroke:none;stroke-width:0;stroke-linecap:butt;stroke-linejoin:miter;stroke-miterlimit:4;stroke-dasharray:none;stroke-dashoffset:0;stroke-opacity:1;color-rendering:auto;image-rendering:auto;shape-rendering:auto;text-rendering:auto;enable-background:accumulate"
         id="path7401-3"
         cx="-634.28571"
         cy="852.36218"
         r="20" />
      <g
         transform="translate(-1168.5714,720.00001)"
         style="font-style:normal;font-weight:normal;font-size:19.07482147px;line-height:125%;font-family:sans-serif;letter-spacing:0px;word-spacing:0px;fill:#ffffff;fill-opacity:1;stroke:none;stroke-width:1px;stroke-linecap:butt;stroke-linejoin:miter;stroke-opacity:1"
         id="text7403-4">
        <path
           d="m 527.73383,140.26871 q -0.20983,0 -0.28613,-0.0954 -0.0763,-0.0763 -0.0763,-0.3052 l 0,-10.87265 -1.16356,1.10634 q -0.3052,0.28612 -0.47687,0.0572 l -1.12542,-1.27801 q -0.11444,-0.13352 -0.0763,-0.2289 0.0572,-0.11445 0.22889,-0.26704 l 2.93753,-2.74678 q 0.20982,-0.17167 0.45779,-0.17167 l 1.25894,0 q 0.41965,0 0.49594,0.0954 0.0763,0.0954 0.0763,0.57225 l 0,13.73387 q 0,0.20982 -0.0763,0.3052 -0.0763,0.0954 -0.28612,0.0954 l -1.8884,0 z"
           style="font-style:normal;font-variant:normal;font-weight:bold;font-stretch:normal;font-family:NanumGothic;-inkscape-font-specification:'NanumGothic Bold'"
           id="path7843" />
        <path
           d="m 541.93443,140.19241 q -0.20982,0 -0.30519,-0.0763 -0.0763,-0.0763 -0.0763,-0.3052 l 0,-6.06579 q 0,-2.4225 -1.43061,-2.4225 -0.80115,0 -1.31617,0.32427 -0.51502,0.3052 -0.74391,0.85837 l 0,7.30565 q 0,0.2289 -0.0954,0.3052 -0.0954,0.0763 -0.28612,0.0763 l -1.75488,0 q -0.20983,0 -0.28613,-0.0763 -0.0763,-0.0763 -0.0763,-0.3052 l 0,-14.97373 q 0,-0.3815 0.36243,-0.3815 l 1.75488,0 q 0.3815,0 0.3815,0.3815 l 0,5.1502 q 0.49594,-0.41965 1.08726,-0.66762 0.59132,-0.26705 1.12541,-0.26705 1.92656,0 2.84215,1.12542 0.93467,1.12541 0.93467,3.54792 l 0,6.08486 q 0,0.2289 -0.0954,0.3052 -0.0763,0.0763 -0.26705,0.0763 l -1.75489,0 z"
           style="font-style:normal;font-variant:normal;font-weight:bold;font-stretch:normal;font-family:NanumGothic;-inkscape-font-specification:'NanumGothic Bold'"
           id="path7845" />
      </g>
      <circle
         style="color:#000000;clip-rule:nonzero;display:inline;overflow:visible;visibility:visible;opacity:1;isolation:auto;mix-blend-mode:normal;color-interpolation:sRGB;color-interpolation-filters:linearRGB;solid-color:#000000;solid-opacity:1;fill:none;fill-opacity:1;fill-rule:nonzero;stroke:none;stroke-width:0;stroke-linecap:butt;stroke-linejoin:miter;stroke-miterlimit:4;stroke-dasharray:none;stroke-dashoffset:0;stroke-opacity:1;color-rendering:auto;image-rendering:auto;shape-rendering:auto;text-rendering:auto;enable-background:accumulate"
         id="path4833-22-9-7-8"
         cx="-634.28571"
         cy="852.36218"
         r="50" />
    </g>
  </g>
</svg>
