<?xml version="1.0" encoding="UTF-8" standalone="no"?>
<svg
   xmlns:dc="http://purl.org/dc/elements/1.1/"
   xmlns:cc="http://creativecommons.org/ns#"
   xmlns:rdf="http://www.w3.org/1999/02/22-rdf-syntax-ns#"
   xmlns:svg="http://www.w3.org/2000/svg"
   xmlns="http://www.w3.org/2000/svg"
   version="1.1"
   id="svg7968"
   viewBox="0 0 100 100"
   height="100"
   width="100">
  <defs
     id="defs7970" />
  <metadata
     id="metadata7973">
    <rdf:RDF>
      <cc:Work
         rdf:about="">
        <dc:format>image/svg+xml</dc:format>
        <dc:type
           rdf:resource="http://purl.org/dc/dcmitype/StillImage" />
        <dc:title></dc:title>
      </cc:Work>
    </rdf:RDF>
  </metadata>
  <g
     transform="translate(-664.28571,-962.36218)"
     id="layer1">
    <g
       id="text7403-1-0-9-3-3-7"
       style="font-style:normal;font-weight:normal;font-size:14.64888477px;line-height:125%;font-family:sans-serif;letter-spacing:0px;word-spacing:0px;fill:#ffffff;fill-opacity:1;stroke:none;stroke-width:1px;stroke-linecap:butt;stroke-linejoin:miter;stroke-opacity:1" />
    <g
       id="g8544">
      <circle
         style="color:#000000;clip-rule:nonzero;display:inline;overflow:visible;visibility:visible;opacity:1;isolation:auto;mix-blend-mode:normal;color-interpolation:sRGB;color-interpolation-filters:linearRGB;solid-color:#000000;solid-opacity:1;fill:#000000;fill-opacity:1;fill-rule:nonzero;stroke:none;stroke-width:0;stroke-linecap:butt;stroke-linejoin:miter;stroke-miterlimit:4;stroke-dasharray:none;stroke-dashoffset:0;stroke-opacity:1;color-rendering:auto;image-rendering:auto;shape-rendering:auto;text-rendering:auto;enable-background:accumulate"
         id="path7401-3-8-6-7-8-8"
         cx="714.28571"
         cy="1012.3622"
         r="20" />
      <circle
         style="color:#000000;clip-rule:nonzero;display:inline;overflow:visible;visibility:visible;opacity:1;isolation:auto;mix-blend-mode:normal;color-interpolation:sRGB;color-interpolation-filters:linearRGB;solid-color:#000000;solid-opacity:1;fill:none;fill-opacity:1;fill-rule:nonzero;stroke:none;stroke-width:0;stroke-linecap:butt;stroke-linejoin:miter;stroke-miterlimit:4;stroke-dasharray:none;stroke-dashoffset:0;stroke-opacity:1;color-rendering:auto;image-rendering:auto;shape-rendering:auto;text-rendering:auto;enable-background:accumulate"
         id="path4833-22-9-7-8-2-8-1-4-1"
         cx="714.28571"
         cy="1012.3622"
         r="50" />
      <path
         d="m 713.2547,1023.3419 q 0,0.6375 -0.2375,1.1875 -0.225,0.55 -0.6875,0.95 -0.45,0.4125 -1.125,0.6375 -0.6625,0.225 -1.5375,0.225 -0.525,0 -1.125,-0.1 -0.6,-0.088 -1.05,-0.2625 -0.175,-0.062 -0.2125,-0.15 -0.0375,-0.088 -0.0125,-0.225 l 0.125,-1 q 0.025,-0.175 0.0875,-0.2125 0.075,-0.038 0.275,0.025 0.3,0.1 0.6875,0.2 0.3875,0.1 0.6875,0.125 0.425,0.037 0.85,-0.013 0.425,-0.05 0.7625,-0.2125 0.3375,-0.175 0.5375,-0.475 0.2125,-0.3 0.2125,-0.75 0,-0.2625 -0.125,-0.5125 -0.125,-0.2625 -0.3875,-0.4625 -0.25,-0.2 -0.6375,-0.325 -0.375,-0.125 -0.8875,-0.125 l -0.675,0 q -0.1625,0 -0.2125,-0.05 -0.0375,-0.05 -0.0375,-0.2 l 0,-1.025 q 0,-0.175 0.0375,-0.2125 0.05,-0.05 0.2125,-0.05 l 0.65,0 q 0.2625,0 0.575,-0.075 0.325,-0.075 0.6,-0.2375 0.2875,-0.1625 0.475,-0.4 0.2,-0.25 0.2,-0.5875 0,-0.475 -0.3375,-0.8 -0.325,-0.325 -1,-0.325 -0.4375,0 -0.9375,0.125 -0.5,0.125 -0.9,0.3 -0.175,0.075 -0.275,0.062 -0.1,-0.025 -0.125,-0.2 l -0.125,-1.0375 q -0.025,-0.125 0.0125,-0.1875 0.05,-0.062 0.2375,-0.1375 0.525,-0.2125 1.0875,-0.35 0.5625,-0.15 1.1,-0.15 0.55,0 1.1,0.15 0.55,0.15 0.9875,0.4625 0.4375,0.3 0.7,0.7875 0.275,0.475 0.275,1.125 0,0.3625 -0.1375,0.7 -0.125,0.3375 -0.3625,0.6375 -0.225,0.2875 -0.55,0.525 -0.3125,0.225 -0.6875,0.375 0.95,0.3625 1.425,0.9875 0.4875,0.625 0.4875,1.2625 z"
         style="font-style:normal;font-weight:bold;font-size:12.5px;line-height:125%;font-family:NanumGothic;letter-spacing:0px;word-spacing:0px;fill:#ffffff;fill-opacity:1;stroke:none;stroke-width:1px;stroke-linecap:butt;stroke-linejoin:miter;stroke-opacity:1;font-variant:normal;font-stretch:normal;-inkscape-font-specification:'NanumGothic Bold'"
         id="path8533" />
      <path
         d="m 719.29806,1026.0919 q -0.1375,0 -0.2,-0.05 -0.05,-0.05 -0.05,-0.2 l 0,-3.975 q 0,-1.5875 -0.9375,-1.5875 -0.525,0 -0.8625,0.2125 -0.3375,0.2 -0.4875,0.5625 l 0,4.7875 q 0,0.15 -0.0625,0.2 -0.0625,0.05 -0.1875,0.05 l -1.15,0 q -0.1375,0 -0.1875,-0.05 -0.05,-0.05 -0.05,-0.2 l 0,-9.8125 q 0,-0.25 0.2375,-0.25 l 1.15,0 q 0.25,0 0.25,0.25 l 0,3.375 q 0.325,-0.275 0.7125,-0.4375 0.3875,-0.175 0.7375,-0.175 1.2625,0 1.8625,0.7375 0.6125,0.7375 0.6125,2.325 l 0,3.9875 q 0,0.15 -0.0625,0.2 -0.05,0.05 -0.175,0.05 l -1.15,0 z"
         style="font-style:normal;font-weight:bold;font-size:12.5px;line-height:125%;font-family:NanumGothic;letter-spacing:0px;word-spacing:0px;fill:#ffffff;fill-opacity:1;stroke:none;stroke-width:1px;stroke-linecap:butt;stroke-linejoin:miter;stroke-opacity:1;font-variant:normal;font-stretch:normal;-inkscape-font-specification:'NanumGothic Bold'"
         id="path8535" />
      <g
         style="font-style:normal;font-weight:normal;font-size:14.64888477px;line-height:125%;font-family:sans-serif;letter-spacing:0px;word-spacing:0px;fill:#e85c41;fill-opacity:1;stroke:none;stroke-width:1px;stroke-linecap:butt;stroke-linejoin:miter;stroke-opacity:1"
         id="text7403-1-0-4-2-1-9-1">
        <path
           d="m 707.41002,1006.3545 0,3.4875 q 0,0.175 -0.0625,0.2125 -0.05,0.05 -0.1875,0.05 l -1.2,0 q -0.125,0 -0.1875,-0.05 -0.0625,-0.037 -0.0625,-0.2125 l 0,-9.1125 q 0,-0.15 0.0625,-0.2 0.075,-0.05 0.175,-0.05 l 2.5,0 q 0.6875,0 1.25,0.175 0.575,0.175 0.975,0.5375 0.4,0.3625 0.6125,0.9125 0.225,0.5375 0.225,1.2875 0,0.725 -0.25,1.275 -0.2375,0.55 -0.6625,0.925 -0.4125,0.375 -1,0.575 -0.575,0.1875 -1.25,0.1875 l -0.9375,0 z m 0,-4.325 0,2.775 0.825,0 q 0.75,0 1.15,-0.3375 0.4,-0.3375 0.4,-1.0875 0,-0.6625 -0.325,-1 -0.3125,-0.35 -0.8375,-0.35 l -1.2125,0 z"
           style="font-style:normal;font-variant:normal;font-weight:bold;font-stretch:normal;font-size:12.5px;font-family:NanumGothic;-inkscape-font-specification:'NanumGothic Bold';fill:#e85c41;fill-opacity:1"
           id="path8538" />
        <path
           d="m 721.39908,1010.092 q -0.1625,0 -0.2,-0.05 -0.0375,-0.038 -0.0375,-0.1875 l 0,-6.275 -2.4375,6.2375 q -0.0625,0.1375 -0.1125,0.175 -0.05,0.038 -0.1875,0.038 l -1.0875,0 q -0.1375,0 -0.2,-0.038 -0.05,-0.037 -0.1,-0.175 l -2.4375,-6.2375 0,6.275 q 0,0.15 -0.0375,0.1875 -0.0375,0.05 -0.2,0.05 l -1.225,0 q -0.1625,0 -0.2,-0.05 -0.0375,-0.038 -0.0375,-0.1875 l 0,-9.0125 q 0,-0.2625 0.05,-0.3125 0.0625,-0.062 0.3125,-0.062 l 1.4,0 q 0.1125,0 0.175,0.038 0.0625,0.038 0.1125,0.1625 l 2.925,7.2625 2.9375,-7.2625 q 0.075,-0.2 0.3125,-0.2 l 1.3625,0 q 0.2625,0 0.3125,0.062 0.0625,0.05 0.0625,0.3125 l 0,9.0125 q 0,0.15 -0.05,0.1875 -0.0375,0.05 -0.1875,0.05 l -1.225,0 z"
           style="font-style:normal;font-variant:normal;font-weight:bold;font-stretch:normal;font-size:12.5px;font-family:NanumGothic;-inkscape-font-specification:'NanumGothic Bold';fill:#e85c41;fill-opacity:1"
           id="path8540" />
      </g>
    </g>
  </g>
</svg>
