<?xml version="1.0" encoding="UTF-8" standalone="no"?>
<svg
   xmlns:dc="http://purl.org/dc/elements/1.1/"
   xmlns:cc="http://creativecommons.org/ns#"
   xmlns:rdf="http://www.w3.org/1999/02/22-rdf-syntax-ns#"
   xmlns:svg="http://www.w3.org/2000/svg"
   xmlns="http://www.w3.org/2000/svg"
   version="1.1"
   id="svg4443"
   viewBox="0 0 560.00001 460.00001"
   height="460"
   width="560">
  <defs
     id="defs4445" />
  <metadata
     id="metadata4448">
    <rdf:RDF>
      <cc:Work
         rdf:about="">
        <dc:format>image/svg+xml</dc:format>
        <dc:type
           rdf:resource="http://purl.org/dc/dcmitype/StillImage" />
        <dc:title></dc:title>
      </cc:Work>
    </rdf:RDF>
  </metadata>
  <g
     transform="translate(608.57141,77.637794)"
     id="layer1">
    <rect
       ry="5.9030401e-05"
       y="-77.637794"
       x="-608.57141"
       height="460"
       width="560"
       id="rect4157-4-8"
       style="color:#000000;clip-rule:nonzero;display:inline;overflow:visible;visibility:visible;opacity:1;isolation:auto;mix-blend-mode:normal;color-interpolation:sRGB;color-interpolation-filters:linearRGB;solid-color:#000000;solid-opacity:1;fill:#e85c41;fill-opacity:1;fill-rule:nonzero;stroke:none;stroke-width:0;stroke-linecap:butt;stroke-linejoin:miter;stroke-miterlimit:4;stroke-dasharray:none;stroke-dashoffset:0;stroke-opacity:1;color-rendering:auto;image-rendering:auto;shape-rendering:auto;text-rendering:auto;enable-background:accumulate" />
    <g
       id="text4159-8-4-8-3"
       style="font-style:normal;font-weight:normal;font-size:100.426651px;line-height:125%;font-family:sans-serif;letter-spacing:0px;word-spacing:0px;display:inline;fill:#ffffff;fill-opacity:1;stroke:none;stroke-width:1px;stroke-linecap:butt;stroke-linejoin:miter;stroke-opacity:1"
       transform="matrix(0.99877581,0,0,1.0012257,-608.57142,-77.637784)">
      <path
         id="path4417"
         style="font-style:normal;font-variant:normal;font-weight:normal;font-stretch:normal;font-size:80.00386047px;line-height:125%;font-family:Gotham;-inkscape-font-specification:Gotham;text-align:center;writing-mode:lr-tb;text-anchor:middle;fill:#ffffff;fill-opacity:1"
         d="m 181.88656,415.56473 42.64206,0 0,-10.96053 -30.40147,0 0,-11.76057 26.40128,0 0,-10.96053 -26.40128,0 0,-11.36055 30.00145,0 0,-10.96052 -42.24204,0 0,56.0027 z" />
      <path
         id="path4419"
         style="font-style:normal;font-variant:normal;font-weight:normal;font-stretch:normal;font-size:80.00386047px;line-height:125%;font-family:Gotham;-inkscape-font-specification:Gotham;text-align:center;writing-mode:lr-tb;text-anchor:middle;fill:#ffffff;fill-opacity:1"
         d="m 234.20284,415.56473 12.16058,0 0,-15.84077 c 0,-10.24049 4.96024,-15.12073 13.04063,-15.12073 l 0.64003,0 0,-12.72061 c -7.20034,-0.32002 -11.20054,3.52017 -13.68066,9.44046 l 0,-8.64042 -12.16058,0 0,42.88207 z" />
      <path
         id="path4421"
         style="font-style:normal;font-variant:normal;font-weight:normal;font-stretch:normal;font-size:80.00386047px;line-height:125%;font-family:Gotham;-inkscape-font-specification:Gotham;text-align:center;writing-mode:lr-tb;text-anchor:middle;fill:#ffffff;fill-opacity:1"
         d="m 267.64195,415.56473 12.16058,0 0,-15.84077 c 0,-10.24049 4.96024,-15.12073 13.04063,-15.12073 l 0.64003,0 0,-12.72061 c -7.20034,-0.32002 -11.20054,3.52017 -13.68066,9.44046 l 0,-8.64042 -12.16058,0 0,42.88207 z" />
      <path
         id="path4423"
         style="font-style:normal;font-variant:normal;font-weight:normal;font-stretch:normal;font-size:80.00386047px;line-height:125%;font-family:Gotham;-inkscape-font-specification:Gotham;text-align:center;writing-mode:lr-tb;text-anchor:middle;fill:#ffffff;fill-opacity:1"
         d="m 320.87202,416.52477 c 13.36064,0 23.28112,-10.00048 23.28112,-22.32107 l 0,-0.16001 c 0,-12.3206 -9.84047,-22.16107 -23.12111,-22.16107 -13.36065,0 -23.28113,10.00048 -23.28113,22.32108 l 0,0.16 c 0,12.3206 9.84048,22.16107 23.12112,22.16107 z m 0.16001,-10.4805 c -6.72033,0 -11.28055,-5.52027 -11.28055,-11.84057 l 0,-0.16001 c 0,-6.32031 4.1602,-11.68056 11.12054,-11.68056 6.72032,0 11.28054,5.52026 11.28054,11.84057 l 0,0.16 c 0,6.32031 -4.1602,11.68057 -11.12053,11.68057 z" />
      <path
         id="path4425"
         style="font-style:normal;font-variant:normal;font-weight:normal;font-stretch:normal;font-size:80.00386047px;line-height:125%;font-family:Gotham;-inkscape-font-specification:Gotham;text-align:center;writing-mode:lr-tb;text-anchor:middle;fill:#ffffff;fill-opacity:1"
         d="m 352.95857,415.56473 12.16058,0 0,-15.84077 c 0,-10.24049 4.96024,-15.12073 13.04063,-15.12073 l 0.64003,0 0,-12.72061 c -7.20034,-0.32002 -11.20054,3.52017 -13.68066,9.44046 l 0,-8.64042 -12.16058,0 0,42.88207 z" />
    </g>
    <path
       id="path4250-7"
       d="m -328.73112,-26.056302 a 26.667954,26.667954 0 0 0 -22.83617,12.960695 l -0.0417,0 -123.01462,213.064097 0.0816,0.14584 a 26.667954,26.667954 0 0 0 -3.91166,13.84095 26.667954,26.667954 0 0 0 26.66795,26.66795 l 246.42858,0 a 26.667954,26.667954 0 0 0 26.66795,-26.66795 26.667954,26.667954 0 0 0 -5.25026,-15.83931 l 0.0156,-0.0295 -122.0111,-211.33138 -0.0399,0 a 26.667954,26.667954 0 0 0 -22.75453,-12.811392 l -0.002,0 z m 0.15973,53.335907 a 17.778636,17.778636 0 0 1 17.77864,17.77864 l 0,88.893175 a 17.778636,17.778636 0 0 1 -17.77864,17.77863 17.778636,17.778636 0 0 1 -17.77864,-17.77863 l 0,-88.893175 a 17.778636,17.778636 0 0 1 17.77864,-17.77864 z m 0,142.229085 a 22.223295,22.223295 0 0 1 22.2233,22.22329 22.223295,22.223295 0 0 1 -22.2233,22.2233 22.223295,22.223295 0 0 1 -22.2233,-22.2233 22.223295,22.223295 0 0 1 22.2233,-22.22329 z"
       style="color:#000000;clip-rule:nonzero;display:inline;overflow:visible;visibility:visible;opacity:1;isolation:auto;mix-blend-mode:normal;color-interpolation:sRGB;color-interpolation-filters:linearRGB;solid-color:#000000;solid-opacity:1;fill:#ffffff;fill-opacity:1;fill-rule:nonzero;stroke:none;stroke-width:0;stroke-linecap:butt;stroke-linejoin:miter;stroke-miterlimit:4;stroke-dasharray:none;stroke-dashoffset:0;stroke-opacity:1;color-rendering:auto;image-rendering:auto;shape-rendering:auto;text-rendering:auto;enable-background:accumulate" />
  </g>
</svg>
