<?xml version="1.0" encoding="UTF-8" standalone="no"?>
<svg
   xmlns:dc="http://purl.org/dc/elements/1.1/"
   xmlns:cc="http://creativecommons.org/ns#"
   xmlns:rdf="http://www.w3.org/1999/02/22-rdf-syntax-ns#"
   xmlns:svg="http://www.w3.org/2000/svg"
   xmlns="http://www.w3.org/2000/svg"
   version="1.1"
   id="svg4197"
   viewBox="0 0 560.00001 460.00001"
   height="460"
   width="560">
  <defs
     id="defs4199" />
  <metadata
     id="metadata4202">
    <rdf:RDF>
      <cc:Work
         rdf:about="">
        <dc:format>image/svg+xml</dc:format>
        <dc:type
           rdf:resource="http://purl.org/dc/dcmitype/StillImage" />
        <dc:title></dc:title>
      </cc:Work>
    </rdf:RDF>
  </metadata>
  <g
     transform="translate(282.14285,-302.36221)"
     id="layer1">
    <g
       id="g4239">
      <rect
         style="color:#000000;clip-rule:nonzero;display:inline;overflow:visible;visibility:visible;opacity:1;isolation:auto;mix-blend-mode:normal;color-interpolation:sRGB;color-interpolation-filters:linearRGB;solid-color:#000000;solid-opacity:1;fill:#e85c41;fill-opacity:1;fill-rule:nonzero;stroke:none;stroke-width:0;stroke-linecap:butt;stroke-linejoin:miter;stroke-miterlimit:4;stroke-dasharray:none;stroke-dashoffset:0;stroke-opacity:1;color-rendering:auto;image-rendering:auto;shape-rendering:auto;text-rendering:auto;enable-background:accumulate"
         id="rect4157-4-5"
         width="560"
         height="460"
         x="-282.14285"
         y="302.36221"
         ry="5.9030401e-05" />
      <g
         transform="scale(0.99877581,1.0012257)"
         style="font-style:normal;font-weight:normal;font-size:112.97452545px;line-height:125%;font-family:sans-serif;letter-spacing:0px;word-spacing:0px;display:inline;fill:#ffffff;fill-opacity:1;stroke:none;stroke-width:1px;stroke-linecap:butt;stroke-linejoin:miter;stroke-opacity:1"
         id="text4159-8-4-8-7">
        <path
           d="m -222.81018,626.72357 13.68,0 0,-40.05 30.51,40.05 11.79,0 0,-63 -13.68,0 0,38.79 -29.52,-38.79 -12.78,0 0,63 z"
           style="font-style:normal;font-variant:normal;font-weight:normal;font-stretch:normal;font-size:90px;line-height:125%;font-family:Gotham;-inkscape-font-specification:Gotham;text-align:center;writing-mode:lr-tb;text-anchor:middle;fill:#ffffff;fill-opacity:1"
           id="path4220" />
        <path
           d="m -130.19877,627.80357 c 8.73,0 15.21,-3.42 19.71,-9 l -7.83,-6.93 c -3.78,3.51 -7.11,4.95 -11.7,4.95 -6.12,0 -10.44,-3.24 -11.79,-9.45 l 33.57,0 c 0.09,-1.26 0.18,-2.52 0.18,-3.6 0,-13.68 -7.38,-26.19 -23.49,-26.19 -14.04,0 -23.85,11.34 -23.85,25.11 l 0,0.18 c 0,14.76 10.71,24.93 25.2,24.93 z m -11.79,-28.98 c 1.08,-6.21 4.77,-10.26 10.44,-10.26 5.76,0 9.36,4.14 10.17,10.26 l -20.61,0 z"
           style="font-style:normal;font-variant:normal;font-weight:normal;font-stretch:normal;font-size:90px;line-height:125%;font-family:Gotham;-inkscape-font-specification:Gotham;text-align:center;writing-mode:lr-tb;text-anchor:middle;fill:#ffffff;fill-opacity:1"
           id="path4222" />
        <path
           d="m -89.434397,627.08357 12.24,0 9.45,-29.61 9.27,29.61 12.33,0 15.03,-48.6 -13.59,0 -7.92,29.34 -9.18,-29.52 -11.79,0 -9.09,29.43 -7.74,-29.25 -13.860003,0 14.850003,48.6 z"
           style="font-style:normal;font-variant:normal;font-weight:normal;font-stretch:normal;font-size:90px;line-height:125%;font-family:Gotham;-inkscape-font-specification:Gotham;text-align:center;writing-mode:lr-tb;text-anchor:middle;fill:#ffffff;fill-opacity:1"
           id="path4224" />
        <path
           d="m 35.225446,627.80357 c 12.15,0 19.35,-4.32 25.83,-11.25 l -8.82,-8.91 c -4.95,4.5 -9.36,7.38 -16.56,7.38 -10.8,0 -18.27,-9 -18.27,-19.8 l 0,-0.18 c 0,-10.8 7.65,-19.62 18.27,-19.62 6.3,0 11.25,2.7 16.11,7.11 l 8.82,-10.17 c -5.85,-5.76 -12.96,-9.72 -24.84,-9.72 -19.35,0 -32.8499996,14.67 -32.8499996,32.58 l 0,0.18 c 0,18.09 13.7699996,32.4 32.3099996,32.4 z"
           style="font-style:normal;font-variant:normal;font-weight:normal;font-stretch:normal;font-size:90px;line-height:125%;font-family:Gotham;-inkscape-font-specification:Gotham;text-align:center;writing-mode:lr-tb;text-anchor:middle;fill:#ffffff;fill-opacity:1"
           id="path4226" />
        <path
           d="m 71.164978,626.72357 13.68,0 0,-65.7 -13.68,0 0,65.7 z"
           style="font-style:normal;font-variant:normal;font-weight:normal;font-stretch:normal;font-size:90px;line-height:125%;font-family:Gotham;-inkscape-font-specification:Gotham;text-align:center;writing-mode:lr-tb;text-anchor:middle;fill:#ffffff;fill-opacity:1"
           id="path4228" />
        <path
           d="m 111.28529,627.62357 c 6.66,0 11.25,-2.43 14.58,-6.12 l 0,5.22 13.23,0 0,-27.99 c 0,-6.48 -1.62,-11.79 -5.22,-15.39 -3.42,-3.42 -8.82,-5.4 -16.29,-5.4 -8.19,0 -13.41,1.53 -18.72,3.87 l 3.42,10.44 c 4.41,-1.62 8.1,-2.61 13.32,-2.61 6.84,0 10.35,3.15 10.35,8.82 l 0,0.81 c -3.42,-1.17 -6.93,-1.98 -11.79,-1.98 -11.43,0 -19.44,4.86 -19.44,15.39 l 0,0.18 c 0,9.54 7.47,14.76 16.56,14.76 z m 4.14,-9.45 c -4.41,0 -7.47,-2.16 -7.47,-5.85 l 0,-0.18 c 0,-4.32 3.6,-6.66 9.45,-6.66 3.33,0 6.39,0.72 8.73,1.8 l 0,2.43 c 0,4.95 -4.32,8.46 -10.71,8.46 z"
           style="font-style:normal;font-variant:normal;font-weight:normal;font-stretch:normal;font-size:90px;line-height:125%;font-family:Gotham;-inkscape-font-specification:Gotham;text-align:center;writing-mode:lr-tb;text-anchor:middle;fill:#ffffff;fill-opacity:1"
           id="path4230" />
        <path
           d="m 167.78701,627.62357 c 10.44,0 18.45,-4.86 18.45,-15.57 l 0,-0.18 c 0,-8.82 -7.83,-12.06 -14.58,-14.31 -5.22,-1.8 -9.81,-3.06 -9.81,-5.76 l 0,-0.18 c 0,-1.89 1.71,-3.33 5.04,-3.33 3.51,0 8.28,1.71 13.05,4.5 l 5.22,-9.45 c -5.22,-3.51 -11.88,-5.58 -18,-5.58 -9.72,0 -17.64,5.49 -17.64,15.3 l 0,0.18 c 0,9.36 7.65,12.51 14.4,14.49 5.31,1.62 9.99,2.61 9.99,5.58 l 0,0.18 c 0,2.16 -1.8,3.6 -5.76,3.6 -4.5,0 -9.99,-1.98 -15.21,-5.76 l -5.85,9 c 6.39,5.04 13.95,7.29 20.7,7.29 z"
           style="font-style:normal;font-variant:normal;font-weight:normal;font-stretch:normal;font-size:90px;line-height:125%;font-family:Gotham;-inkscape-font-specification:Gotham;text-align:center;writing-mode:lr-tb;text-anchor:middle;fill:#ffffff;fill-opacity:1"
           id="path4232" />
        <path
           d="m 212.08388,627.62357 c 10.44,0 18.45,-4.86 18.45,-15.57 l 0,-0.18 c 0,-8.82 -7.83,-12.06 -14.58,-14.31 -5.22,-1.8 -9.81,-3.06 -9.81,-5.76 l 0,-0.18 c 0,-1.89 1.71,-3.33 5.04,-3.33 3.51,0 8.28,1.71 13.05,4.5 l 5.22,-9.45 c -5.22,-3.51 -11.88,-5.58 -18,-5.58 -9.72,0 -17.64,5.49 -17.64,15.3 l 0,0.18 c 0,9.36 7.65,12.51 14.4,14.49 5.31,1.62 9.99,2.61 9.99,5.58 l 0,0.18 c 0,2.16 -1.8,3.6 -5.76,3.6 -4.5,0 -9.99,-1.98 -15.21,-5.76 l -5.85,9 c 6.39,5.04 13.95,7.29 20.7,7.29 z"
           style="font-style:normal;font-variant:normal;font-weight:normal;font-stretch:normal;font-size:90px;line-height:125%;font-family:Gotham;-inkscape-font-specification:Gotham;text-align:center;writing-mode:lr-tb;text-anchor:middle;fill:#ffffff;fill-opacity:1"
           id="path4234" />
      </g>
      <g
         transform="scale(0.99402976,1.0060061)"
         style="font-style:normal;font-weight:normal;font-size:199.60437012px;line-height:125%;font-family:sans-serif;letter-spacing:0px;word-spacing:0px;fill:#ffffff;fill-opacity:1;stroke:none;stroke-width:1px;stroke-linecap:butt;stroke-linejoin:miter;stroke-opacity:1"
         id="text3380">
        <path
           d="m -16.327641,515.79445 28.343821,0 0,-35.92879 36.128391,0 0,-27.5454 -36.128391,0 0,-35.92879 -28.343821,0 0,35.92879 -36.128391,0 0,27.5454 36.128391,0 0,35.92879 z"
           style="font-style:normal;font-variant:normal;font-weight:normal;font-stretch:normal;font-family:Gotham;-inkscape-font-specification:Gotham;fill:#ffffff;fill-opacity:1"
           id="path4237" />
      </g>
    </g>
  </g>
</svg>
