<?xml version="1.0" encoding="UTF-8" standalone="no"?>
<svg
   xmlns:dc="http://purl.org/dc/elements/1.1/"
   xmlns:cc="http://creativecommons.org/ns#"
   xmlns:rdf="http://www.w3.org/1999/02/22-rdf-syntax-ns#"
   xmlns:svg="http://www.w3.org/2000/svg"
   xmlns="http://www.w3.org/2000/svg"
   version="1.1"
   id="svg3499"
   viewBox="0 0 560.00001 460.00001"
   height="460"
   width="560">
  <defs
     id="defs3501" />
  <metadata
     id="metadata3504">
    <rdf:RDF>
      <cc:Work
         rdf:about="">
        <dc:format>image/svg+xml</dc:format>
        <dc:type
           rdf:resource="http://purl.org/dc/dcmitype/StillImage" />
        <dc:title></dc:title>
      </cc:Work>
    </rdf:RDF>
  </metadata>
  <g
     transform="translate(-894.28571,-608.07648)"
     id="layer1">
    <g
       id="g3546">
      <rect
         style="color:#000000;clip-rule:nonzero;display:inline;overflow:visible;visibility:visible;opacity:1;isolation:auto;mix-blend-mode:normal;color-interpolation:sRGB;color-interpolation-filters:linearRGB;solid-color:#000000;solid-opacity:1;fill:#e85c41;fill-opacity:1;fill-rule:nonzero;stroke:none;stroke-width:0;stroke-linecap:butt;stroke-linejoin:miter;stroke-miterlimit:4;stroke-dasharray:none;stroke-dashoffset:0;stroke-opacity:1;color-rendering:auto;image-rendering:auto;shape-rendering:auto;text-rendering:auto;enable-background:accumulate"
         id="rect4157-4"
         width="560"
         height="460"
         x="894.28571"
         y="608.07648"
         ry="5.9030401e-05" />
      <g
         transform="scale(0.99877581,1.0012257)"
         style="font-style:normal;font-weight:normal;font-size:112.97452545px;line-height:125%;font-family:sans-serif;letter-spacing:0px;word-spacing:0px;display:inline;fill:#ffffff;fill-opacity:1;stroke:none;stroke-width:1px;stroke-linecap:butt;stroke-linejoin:miter;stroke-opacity:1"
         id="text4159-8-4-8">
        <path
           d="m 1071.3947,813.11051 c 13.59,0 23.13,-7.02 23.13,-19.53 l 0,-0.18 c 0,-10.98 -7.2,-15.57 -19.98,-18.9 -10.89,-2.79 -13.59,-4.14 -13.59,-8.28 l 0,-0.18 c 0,-3.06 2.79,-5.49 8.1,-5.49 5.31,0 10.8,2.34 16.38,6.21 l 7.2,-10.44 c -6.39,-5.13 -14.22,-8.01 -23.4,-8.01 -12.87,0 -22.05,7.56 -22.05,18.99 l 0,0.18 c 0,12.51 8.19,16.02 20.88,19.26 10.53,2.7 12.69,4.5 12.69,8.01 l 0,0.18 c 0,3.69 -3.42,5.94 -9.09,5.94 -7.2,0 -13.14,-2.97 -18.81,-7.65 l -8.19,9.81 c 7.56,6.75 17.19,10.08 26.73,10.08 z"
           style="font-style:normal;font-variant:normal;font-weight:normal;font-stretch:normal;font-size:90px;line-height:125%;font-family:Gotham;-inkscape-font-specification:Gotham;text-align:center;writing-mode:lr-tb;text-anchor:middle;fill:#ffffff;fill-opacity:1"
           id="path3520" />
        <path
           d="m 1128.8709,813.29051 c 15.03,0 26.19,-11.25 26.19,-25.11 l 0,-0.18 c 0,-13.86 -11.07,-24.93 -26.01,-24.93 -15.03,0 -26.19,11.25 -26.19,25.11 l 0,0.18 c 0,13.86 11.07,24.93 26.01,24.93 z m 0.18,-11.79 c -7.56,0 -12.69,-6.21 -12.69,-13.32 l 0,-0.18 c 0,-7.11 4.68,-13.14 12.51,-13.14 7.56,0 12.69,6.21 12.69,13.32 l 0,0.18 c 0,7.11 -4.68,13.14 -12.51,13.14 z"
           style="font-style:normal;font-variant:normal;font-weight:normal;font-stretch:normal;font-size:90px;line-height:125%;font-family:Gotham;-inkscape-font-specification:Gotham;text-align:center;writing-mode:lr-tb;text-anchor:middle;fill:#ffffff;fill-opacity:1"
           id="path3522" />
        <path
           d="m 1164.9666,812.21051 13.68,0 0,-17.82 c 0,-11.52 5.58,-17.01 14.67,-17.01 l 0.72,0 0,-14.31 c -8.1,-0.36 -12.6,3.96 -15.39,10.62 l 0,-9.72 -13.68,0 0,48.24 z"
           style="font-style:normal;font-variant:normal;font-weight:normal;font-stretch:normal;font-size:90px;line-height:125%;font-family:Gotham;-inkscape-font-specification:Gotham;text-align:center;writing-mode:lr-tb;text-anchor:middle;fill:#ffffff;fill-opacity:1"
           id="path3524" />
        <path
           d="m 1202.5837,812.21051 13.68,0 0,-17.82 c 0,-11.52 5.58,-17.01 14.67,-17.01 l 0.72,0 0,-14.31 c -8.1,-0.36 -12.6,3.96 -15.39,10.62 l 0,-9.72 -13.68,0 0,48.24 z"
           style="font-style:normal;font-variant:normal;font-weight:normal;font-stretch:normal;font-size:90px;line-height:125%;font-family:Gotham;-inkscape-font-specification:Gotham;text-align:center;writing-mode:lr-tb;text-anchor:middle;fill:#ffffff;fill-opacity:1"
           id="path3526" />
        <path
           d="m 1251.7209,826.88051 c 8.19,0 12.15,-3.69 15.84,-13.5 l 18.54,-49.41 -14.22,0 -10.53,32.85 -10.98,-32.85 -14.49,0 18.9,48.42 c -1.17,2.43 -2.43,3.15 -4.77,3.15 -1.8,0 -4.05,-0.81 -5.85,-1.89 l -4.59,9.9 c 3.51,2.07 7.2,3.33 12.15,3.33 z"
           style="font-style:normal;font-variant:normal;font-weight:normal;font-stretch:normal;font-size:90px;line-height:125%;font-family:Gotham;-inkscape-font-specification:Gotham;text-align:center;writing-mode:lr-tb;text-anchor:middle;fill:#ffffff;fill-opacity:1"
           id="path3528" />
        <path
           d="m 1283.8214,826.79051 c 10.71,-0.18 16.65,-4.95 16.65,-16.83 l 0,-12.15 -14.58,0 0,14.4 5.58,0 c 0.45,5.13 -2.61,8.28 -8.82,8.91 l 1.17,5.67 z"
           style="font-style:normal;font-variant:normal;font-weight:normal;font-stretch:normal;font-size:90px;line-height:125%;font-family:Gotham;-inkscape-font-specification:Gotham;text-align:center;writing-mode:lr-tb;text-anchor:middle;fill:#ffffff;fill-opacity:1"
           id="path3530" />
        <path
           d="m 984.29718,924.71051 13.68,0 0,-40.05 30.51002,40.05 11.79,0 0,-63 -13.68,0 0,38.79 -29.52002,-38.79 -12.78,0 0,63 z"
           style="font-style:normal;font-variant:normal;font-weight:normal;font-stretch:normal;font-size:90px;line-height:125%;font-family:Gotham;-inkscape-font-specification:Gotham;text-align:center;writing-mode:lr-tb;text-anchor:middle;fill:#ffffff;fill-opacity:1"
           id="path3532" />
        <path
           d="m 1077.7186,925.79051 c 15.03,0 26.19,-11.25 26.19,-25.11 l 0,-0.18 c 0,-13.86 -11.07,-24.93 -26.01,-24.93 -15.03,0 -26.19,11.25 -26.19,25.11 l 0,0.18 c 0,13.86 11.07,24.93 26.01,24.93 z m 0.18,-11.79 c -7.56,0 -12.69,-6.21 -12.69,-13.32 l 0,-0.18 c 0,-7.11 4.68,-13.14 12.51,-13.14 7.56,0 12.69,6.21 12.69,13.32 l 0,0.18 c 0,7.11 -4.68,13.14 -12.51,13.14 z"
           style="font-style:normal;font-variant:normal;font-weight:normal;font-stretch:normal;font-size:90px;line-height:125%;font-family:Gotham;-inkscape-font-specification:Gotham;text-align:center;writing-mode:lr-tb;text-anchor:middle;fill:#ffffff;fill-opacity:1"
           id="path3534" />
        <path
           d="m 1171.8445,925.79051 c 12.15,0 19.35,-4.32 25.83,-11.25 l -8.82,-8.91 c -4.95,4.5 -9.36,7.38 -16.56,7.38 -10.8,0 -18.27,-9 -18.27,-19.8 l 0,-0.18 c 0,-10.8 7.65,-19.62 18.27,-19.62 6.3,0 11.25,2.7 16.11,7.11 l 8.82,-10.17 c -5.85,-5.76 -12.96,-9.72 -24.84,-9.72 -19.35,0 -32.85,14.67 -32.85,32.58 l 0,0.18 c 0,18.09 13.77,32.4 32.31,32.4 z"
           style="font-style:normal;font-variant:normal;font-weight:normal;font-stretch:normal;font-size:90px;line-height:125%;font-family:Gotham;-inkscape-font-specification:Gotham;text-align:center;writing-mode:lr-tb;text-anchor:middle;fill:#ffffff;fill-opacity:1"
           id="path3536" />
        <path
           d="m 1207.7841,924.71051 13.68,0 0,-65.7 -13.68,0 0,65.7 z"
           style="font-style:normal;font-variant:normal;font-weight:normal;font-stretch:normal;font-size:90px;line-height:125%;font-family:Gotham;-inkscape-font-specification:Gotham;text-align:center;writing-mode:lr-tb;text-anchor:middle;fill:#ffffff;fill-opacity:1"
           id="path3538" />
        <path
           d="m 1247.9044,925.61051 c 6.66,0 11.25,-2.43 14.58,-6.12 l 0,5.22 13.23,0 0,-27.99 c 0,-6.48 -1.62,-11.79 -5.22,-15.39 -3.42,-3.42 -8.82,-5.4 -16.29,-5.4 -8.19,0 -13.41,1.53 -18.72,3.87 l 3.42,10.44 c 4.41,-1.62 8.1,-2.61 13.32,-2.61 6.84,0 10.35,3.15 10.35,8.82 l 0,0.81 c -3.42,-1.17 -6.93,-1.98 -11.79,-1.98 -11.43,0 -19.44,4.86 -19.44,15.39 l 0,0.18 c 0,9.54 7.47,14.76 16.56,14.76 z m 4.14,-9.45 c -4.41,0 -7.47,-2.16 -7.47,-5.85 l 0,-0.18 c 0,-4.32 3.6,-6.66 9.45,-6.66 3.33,0 6.39,0.72 8.73,1.8 l 0,2.43 c 0,4.95 -4.32,8.46 -10.71,8.46 z"
           style="font-style:normal;font-variant:normal;font-weight:normal;font-stretch:normal;font-size:90px;line-height:125%;font-family:Gotham;-inkscape-font-specification:Gotham;text-align:center;writing-mode:lr-tb;text-anchor:middle;fill:#ffffff;fill-opacity:1"
           id="path3540" />
        <path
           d="m 1304.4061,925.61051 c 10.44,0 18.45,-4.86 18.45,-15.57 l 0,-0.18 c 0,-8.82 -7.83,-12.06 -14.58,-14.31 -5.22,-1.8 -9.81,-3.06 -9.81,-5.76 l 0,-0.18 c 0,-1.89 1.71,-3.33 5.04,-3.33 3.51,0 8.28,1.71 13.05,4.5 l 5.22,-9.45 c -5.22,-3.51 -11.88,-5.58 -18,-5.58 -9.72,0 -17.64,5.49 -17.64,15.3 l 0,0.18 c 0,9.36 7.65,12.51 14.4,14.49 5.31,1.62 9.99,2.61 9.99,5.58 l 0,0.18 c 0,2.16 -1.8,3.6 -5.76,3.6 -4.5,0 -9.99,-1.98 -15.21,-5.76 l -5.85,9 c 6.39,5.04 13.95,7.29 20.7,7.29 z"
           style="font-style:normal;font-variant:normal;font-weight:normal;font-stretch:normal;font-size:90px;line-height:125%;font-family:Gotham;-inkscape-font-specification:Gotham;text-align:center;writing-mode:lr-tb;text-anchor:middle;fill:#ffffff;fill-opacity:1"
           id="path3542" />
        <path
           d="m 1348.703,925.61051 c 10.44,0 18.45,-4.86 18.45,-15.57 l 0,-0.18 c 0,-8.82 -7.83,-12.06 -14.58,-14.31 -5.22,-1.8 -9.81,-3.06 -9.81,-5.76 l 0,-0.18 c 0,-1.89 1.71,-3.33 5.04,-3.33 3.51,0 8.28,1.71 13.05,4.5 l 5.22,-9.45 c -5.22,-3.51 -11.88,-5.58 -18,-5.58 -9.72,0 -17.64,5.49 -17.64,15.3 l 0,0.18 c 0,9.36 7.65,12.51 14.4,14.49 5.31,1.62 9.99,2.61 9.99,5.58 l 0,0.18 c 0,2.16 -1.8,3.6 -5.76,3.6 -4.5,0 -9.99,-1.98 -15.21,-5.76 l -5.85,9 c 6.39,5.04 13.95,7.29 20.7,7.29 z"
           style="font-style:normal;font-variant:normal;font-weight:normal;font-stretch:normal;font-size:90px;line-height:125%;font-family:Gotham;-inkscape-font-specification:Gotham;text-align:center;writing-mode:lr-tb;text-anchor:middle;fill:#ffffff;fill-opacity:1"
           id="path3544" />
      </g>
    </g>
  </g>
</svg>
