<?xml version="1.0" encoding="UTF-8" standalone="no"?>
<svg
   xmlns:dc="http://purl.org/dc/elements/1.1/"
   xmlns:cc="http://creativecommons.org/ns#"
   xmlns:rdf="http://www.w3.org/1999/02/22-rdf-syntax-ns#"
   xmlns:svg="http://www.w3.org/2000/svg"
   xmlns="http://www.w3.org/2000/svg"
   version="1.1"
   id="svg3594"
   viewBox="0 0 560.00001 460.00001"
   height="460"
   width="560">
  <defs
     id="defs3596" />
  <metadata
     id="metadata3599">
    <rdf:RDF>
      <cc:Work
         rdf:about="">
        <dc:format>image/svg+xml</dc:format>
        <dc:type
           rdf:resource="http://purl.org/dc/dcmitype/StillImage" />
        <dc:title></dc:title>
      </cc:Work>
    </rdf:RDF>
  </metadata>
  <g
     transform="translate(-1442.8572,-276.64792)"
     id="layer1">
    <g
       id="g3641">
      <rect
         style="color:#000000;clip-rule:nonzero;display:inline;overflow:visible;visibility:visible;opacity:1;isolation:auto;mix-blend-mode:normal;color-interpolation:sRGB;color-interpolation-filters:linearRGB;solid-color:#000000;solid-opacity:1;fill:#e85c41;fill-opacity:1;fill-rule:nonzero;stroke:none;stroke-width:0;stroke-linecap:butt;stroke-linejoin:miter;stroke-miterlimit:4;stroke-dasharray:none;stroke-dashoffset:0;stroke-opacity:1;color-rendering:auto;image-rendering:auto;shape-rendering:auto;text-rendering:auto;enable-background:accumulate"
         id="rect4157"
         width="560"
         height="460"
         x="1442.8572"
         y="276.64792"
         ry="5.9030401e-05" />
      <g
         transform="scale(0.99877581,1.0012257)"
         style="font-style:normal;font-weight:normal;font-size:112.97452545px;line-height:125%;font-family:sans-serif;letter-spacing:0px;word-spacing:0px;display:inline;fill:#ffffff;fill-opacity:1;stroke:none;stroke-width:1px;stroke-linecap:butt;stroke-linejoin:miter;stroke-opacity:1"
         id="text4159-8-4">
        <path
           d="m 1620.7454,475.33768 c 13.59,0 23.13,-7.02 23.13,-19.53 l 0,-0.18 c 0,-10.98 -7.2,-15.57 -19.98,-18.9 -10.89,-2.79 -13.59,-4.14 -13.59,-8.28 l 0,-0.18 c 0,-3.06 2.79,-5.49 8.1,-5.49 5.31,0 10.8,2.34 16.38,6.21 l 7.2,-10.44 c -6.39,-5.13 -14.22,-8.01 -23.4,-8.01 -12.87,0 -22.05,7.56 -22.05,18.99 l 0,0.18 c 0,12.51 8.19,16.02 20.88,19.26 10.53,2.7 12.69,4.5 12.69,8.01 l 0,0.18 c 0,3.69 -3.42,5.94 -9.09,5.94 -7.2,0 -13.14,-2.97 -18.81,-7.65 l -8.19,9.81 c 7.56,6.75 17.19,10.08 26.73,10.08 z"
           style="font-style:normal;font-variant:normal;font-weight:normal;font-stretch:normal;font-size:90px;line-height:125%;font-family:Gotham;-inkscape-font-specification:Gotham;text-align:center;writing-mode:lr-tb;text-anchor:middle;fill:#ffffff;fill-opacity:1"
           id="path3615" />
        <path
           d="m 1678.2216,475.51768 c 15.03,0 26.19,-11.25 26.19,-25.11 l 0,-0.18 c 0,-13.86 -11.07,-24.93 -26.01,-24.93 -15.03,0 -26.19,11.25 -26.19,25.11 l 0,0.18 c 0,13.86 11.07,24.93 26.01,24.93 z m 0.18,-11.79 c -7.56,0 -12.69,-6.21 -12.69,-13.32 l 0,-0.18 c 0,-7.11 4.68,-13.14 12.51,-13.14 7.56,0 12.69,6.21 12.69,13.32 l 0,0.18 c 0,7.11 -4.68,13.14 -12.51,13.14 z"
           style="font-style:normal;font-variant:normal;font-weight:normal;font-stretch:normal;font-size:90px;line-height:125%;font-family:Gotham;-inkscape-font-specification:Gotham;text-align:center;writing-mode:lr-tb;text-anchor:middle;fill:#ffffff;fill-opacity:1"
           id="path3617" />
        <path
           d="m 1714.3173,474.43768 13.68,0 0,-17.82 c 0,-11.52 5.58,-17.01 14.67,-17.01 l 0.72,0 0,-14.31 c -8.1,-0.36 -12.6,3.96 -15.39,10.62 l 0,-9.72 -13.68,0 0,48.24 z"
           style="font-style:normal;font-variant:normal;font-weight:normal;font-stretch:normal;font-size:90px;line-height:125%;font-family:Gotham;-inkscape-font-specification:Gotham;text-align:center;writing-mode:lr-tb;text-anchor:middle;fill:#ffffff;fill-opacity:1"
           id="path3619" />
        <path
           d="m 1751.9345,474.43768 13.68,0 0,-17.82 c 0,-11.52 5.58,-17.01 14.67,-17.01 l 0.72,0 0,-14.31 c -8.1,-0.36 -12.6,3.96 -15.39,10.62 l 0,-9.72 -13.68,0 0,48.24 z"
           style="font-style:normal;font-variant:normal;font-weight:normal;font-stretch:normal;font-size:90px;line-height:125%;font-family:Gotham;-inkscape-font-specification:Gotham;text-align:center;writing-mode:lr-tb;text-anchor:middle;fill:#ffffff;fill-opacity:1"
           id="path3621" />
        <path
           d="m 1801.0716,489.10768 c 8.19,0 12.15,-3.69 15.84,-13.5 l 18.54,-49.41 -14.22,0 -10.53,32.85 -10.98,-32.85 -14.49,0 18.9,48.42 c -1.17,2.43 -2.43,3.15 -4.77,3.15 -1.8,0 -4.05,-0.81 -5.85,-1.89 l -4.59,9.9 c 3.51,2.07 7.2,3.33 12.15,3.33 z"
           style="font-style:normal;font-variant:normal;font-weight:normal;font-stretch:normal;font-size:90px;line-height:125%;font-family:Gotham;-inkscape-font-specification:Gotham;text-align:center;writing-mode:lr-tb;text-anchor:middle;fill:#ffffff;fill-opacity:1"
           id="path3623" />
        <path
           d="m 1833.1721,489.01768 c 10.71,-0.18 16.65,-4.95 16.65,-16.83 l 0,-12.15 -14.58,0 0,14.4 5.58,0 c 0.45,5.13 -2.61,8.28 -8.82,8.91 l 1.17,5.67 z"
           style="font-style:normal;font-variant:normal;font-weight:normal;font-stretch:normal;font-size:90px;line-height:125%;font-family:Gotham;-inkscape-font-specification:Gotham;text-align:center;writing-mode:lr-tb;text-anchor:middle;fill:#ffffff;fill-opacity:1"
           id="path3625" />
        <path
           d="m 1509.1264,586.93768 13.68,0 0,-40.05 30.51,40.05 11.79,0 0,-63 -13.68,0 0,38.79 -29.52,-38.79 -12.78,0 0,63 z"
           style="font-style:normal;font-variant:normal;font-weight:normal;font-stretch:normal;font-size:90px;line-height:125%;font-family:Gotham;-inkscape-font-specification:Gotham;text-align:center;writing-mode:lr-tb;text-anchor:middle;fill:#ffffff;fill-opacity:1"
           id="path3627" />
        <path
           d="m 1602.5478,588.01768 c 15.03,0 26.19,-11.25 26.19,-25.11 l 0,-0.18 c 0,-13.86 -11.07,-24.93 -26.01,-24.93 -15.03,0 -26.19,11.25 -26.19,25.11 l 0,0.18 c 0,13.86 11.07,24.93 26.01,24.93 z m 0.18,-11.79 c -7.56,0 -12.69,-6.21 -12.69,-13.32 l 0,-0.18 c 0,-7.11 4.68,-13.14 12.51,-13.14 7.56,0 12.69,6.21 12.69,13.32 l 0,0.18 c 0,7.11 -4.68,13.14 -12.51,13.14 z"
           style="font-style:normal;font-variant:normal;font-weight:normal;font-stretch:normal;font-size:90px;line-height:125%;font-family:Gotham;-inkscape-font-specification:Gotham;text-align:center;writing-mode:lr-tb;text-anchor:middle;fill:#ffffff;fill-opacity:1"
           id="path3629" />
        <path
           d="m 1667.7838,586.93768 13.86,0 0,-63 -13.86,0 0,63 z"
           style="font-style:normal;font-variant:normal;font-weight:normal;font-stretch:normal;font-size:90px;line-height:125%;font-family:Gotham;-inkscape-font-specification:Gotham;text-align:center;writing-mode:lr-tb;text-anchor:middle;fill:#ffffff;fill-opacity:1"
           id="path3631" />
        <path
           d="m 1696.1239,586.93768 13.68,0 0,-26.91 c 0,-6.48 3.15,-9.81 8.28,-9.81 5.13,0 8.01,3.33 8.01,9.81 l 0,26.91 13.68,0 0,-26.91 c 0,-6.48 3.15,-9.81 8.28,-9.81 5.13,0 8.01,3.33 8.01,9.81 l 0,26.91 13.68,0 0,-31.41 c 0,-11.61 -6.12,-17.73 -16.29,-17.73 -6.57,0 -11.61,2.7 -15.84,7.65 -2.52,-4.86 -7.29,-7.65 -13.59,-7.65 -6.93,0 -11.07,3.69 -14.22,7.74 l 0,-6.84 -13.68,0 0,48.24 z"
           style="font-style:normal;font-variant:normal;font-weight:normal;font-stretch:normal;font-size:90px;line-height:125%;font-family:Gotham;-inkscape-font-specification:Gotham;text-align:center;writing-mode:lr-tb;text-anchor:middle;fill:#ffffff;fill-opacity:1"
           id="path3633" />
        <path
           d="m 1795.4094,587.83768 c 6.66,0 11.25,-2.43 14.58,-6.12 l 0,5.22 13.23,0 0,-27.99 c 0,-6.48 -1.62,-11.79 -5.22,-15.39 -3.42,-3.42 -8.82,-5.4 -16.29,-5.4 -8.19,0 -13.41,1.53 -18.72,3.87 l 3.42,10.44 c 4.41,-1.62 8.1,-2.61 13.32,-2.61 6.84,0 10.35,3.15 10.35,8.82 l 0,0.81 c -3.42,-1.17 -6.93,-1.98 -11.79,-1.98 -11.43,0 -19.44,4.86 -19.44,15.39 l 0,0.18 c 0,9.54 7.47,14.76 16.56,14.76 z m 4.14,-9.45 c -4.41,0 -7.47,-2.16 -7.47,-5.85 l 0,-0.18 c 0,-4.32 3.6,-6.66 9.45,-6.66 3.33,0 6.39,0.72 8.73,1.8 l 0,2.43 c 0,4.95 -4.32,8.46 -10.71,8.46 z"
           style="font-style:normal;font-variant:normal;font-weight:normal;font-stretch:normal;font-size:90px;line-height:125%;font-family:Gotham;-inkscape-font-specification:Gotham;text-align:center;writing-mode:lr-tb;text-anchor:middle;fill:#ffffff;fill-opacity:1"
           id="path3635" />
        <path
           d="m 1856.5911,601.51768 c 9.36,0 16.29,-1.98 20.79,-6.48 4.05,-4.05 6.12,-10.35 6.12,-18.99 l 0,-37.35 -13.68,0 0,6.3 c -3.69,-4.05 -8.1,-7.2 -15.57,-7.2 -11.07,0 -21.42,8.1 -21.42,22.5 l 0,0.18 c 0,14.31 10.17,22.5 21.42,22.5 7.29,0 11.7,-2.97 15.75,-7.83 l 0,2.34 c 0,8.64 -4.41,13.14 -13.77,13.14 -6.39,0 -11.34,-1.62 -16.29,-4.41 l -4.68,10.26 c 6.12,3.24 13.5,5.04 21.33,5.04 z m 1.62,-29.88 c -6.66,0 -11.7,-4.5 -11.7,-11.16 l 0,-0.18 c 0,-6.57 5.04,-11.16 11.7,-11.16 6.66,0 11.79,4.59 11.79,11.16 l 0,0.18 c 0,6.57 -5.13,11.16 -11.79,11.16 z"
           style="font-style:normal;font-variant:normal;font-weight:normal;font-stretch:normal;font-size:90px;line-height:125%;font-family:Gotham;-inkscape-font-specification:Gotham;text-align:center;writing-mode:lr-tb;text-anchor:middle;fill:#ffffff;fill-opacity:1"
           id="path3637" />
        <path
           d="m 1918.6714,588.01768 c 8.73,0 15.21,-3.42 19.71,-9 l -7.83,-6.93 c -3.78,3.51 -7.11,4.95 -11.7,4.95 -6.12,0 -10.44,-3.24 -11.79,-9.45 l 33.57,0 c 0.09,-1.26 0.18,-2.52 0.18,-3.6 0,-13.68 -7.38,-26.19 -23.49,-26.19 -14.04,0 -23.85,11.34 -23.85,25.11 l 0,0.18 c 0,14.76 10.71,24.93 25.2,24.93 z m -11.79,-28.98 c 1.08,-6.21 4.77,-10.26 10.44,-10.26 5.76,0 9.36,4.14 10.17,10.26 l -20.61,0 z"
           style="font-style:normal;font-variant:normal;font-weight:normal;font-stretch:normal;font-size:90px;line-height:125%;font-family:Gotham;-inkscape-font-specification:Gotham;text-align:center;writing-mode:lr-tb;text-anchor:middle;fill:#ffffff;fill-opacity:1"
           id="path3639" />
      </g>
    </g>
  </g>
</svg>
