<?xml version="1.0" encoding="UTF-8" standalone="no"?>
<svg
   xmlns:dc="http://purl.org/dc/elements/1.1/"
   xmlns:cc="http://creativecommons.org/ns#"
   xmlns:rdf="http://www.w3.org/1999/02/22-rdf-syntax-ns#"
   xmlns:svg="http://www.w3.org/2000/svg"
   xmlns="http://www.w3.org/2000/svg"
   width="120"
   height="120"
   viewBox="0 0 120 120"
   id="svg4234"
   version="1.1">
  <defs
     id="defs4236" />
  <metadata
     id="metadata4239">
    <rdf:RDF>
      <cc:Work
         rdf:about="">
        <dc:format>image/svg+xml</dc:format>
        <dc:type
           rdf:resource="http://purl.org/dc/dcmitype/StillImage" />
        <dc:title></dc:title>
      </cc:Work>
    </rdf:RDF>
  </metadata>
  <g
     id="g4277">
    <circle
       style="color:#000000;clip-rule:nonzero;display:inline;overflow:visible;visibility:visible;opacity:1;isolation:auto;mix-blend-mode:normal;color-interpolation:sRGB;color-interpolation-filters:linearRGB;solid-color:#000000;solid-opacity:1;fill:#c9c9c9;fill-opacity:1;fill-rule:nonzero;stroke:none;stroke-width:0;stroke-linecap:butt;stroke-linejoin:miter;stroke-miterlimit:4;stroke-dasharray:none;stroke-dashoffset:0;stroke-opacity:1;color-rendering:auto;image-rendering:auto;shape-rendering:auto;text-rendering:auto;enable-background:accumulate"
       id="path4162-1-7-8-6-5"
       cx="60.000034"
       cy="59.999981"
       r="50" />
    <g
       style="font-style:normal;font-weight:normal;font-size:28.85059738px;line-height:125%;font-family:sans-serif;letter-spacing:0px;word-spacing:0px;fill:#e85c41;fill-opacity:1;stroke:none;stroke-width:1px;stroke-linecap:butt;stroke-linejoin:miter;stroke-opacity:1"
       id="text4462-4-0-7-3-2">
      <path
         d="m 58.598812,51.062481 -23.6225,0 q -0.3575,0 -0.4675,-0.165 -0.0825,-0.165 -0.0825,-0.4125 l 0,-1.98 q 0,-0.3025 0.0825,-0.44 0.11,-0.1375 0.4675,-0.1375 l 9.9,0 0,-4.8125 -5.005,0 q -0.6325,0 -1.0175,-0.055 -0.385,-0.0825 -0.605,-0.275 -0.22,-0.22 -0.3025,-0.605 -0.0825,-0.385 -0.0825,-0.99 l 0,-8.6625 q 0,-0.605 0.0825,-0.9625 0.11,-0.3575 0.33,-0.55 0.2475,-0.1925 0.605,-0.2475 0.3575,-0.0825 0.8525,-0.0825 l 13.9425,0 q 0.5775,0 0.935,0.055 0.3575,0.055 0.55,0.2475 0.22,0.1925 0.3025,0.5775 0.0825,0.3575 0.0825,0.9625 l 0,8.6625 q 0,0.605 -0.0825,0.99 -0.0825,0.3575 -0.3025,0.5775 -0.1925,0.1925 -0.55,0.275 -0.3575,0.0825 -0.935,0.0825 l -4.9775,0 0,4.8125 9.9,0 q 0.5775,0 0.5775,0.5775 l 0,1.98 q 0,0.5775 -0.5775,0.5775 z m -6.82,-16.72 q 0,-0.3575 -0.0825,-0.44 -0.055,-0.11 -0.385,-0.11 l -9.13,0 q -0.3575,0 -0.4675,0.0825 -0.0825,0.0825 -0.0825,0.4675 l 0,5.115 q 0,0.385 0.0825,0.4675 0.11,0.0825 0.4675,0.0825 l 9.13,0 q 0.33,0 0.385,-0.11 0.0825,-0.11 0.0825,-0.44 l 0,-5.115 z"
         style="font-style:normal;font-variant:normal;font-weight:bold;font-stretch:normal;font-size:27.5px;font-family:NanumGothic;-inkscape-font-specification:'NanumGothic Bold';fill:#e85c41;fill-opacity:1"
         id="path4269" />
      <path
         d="m 80.831273,39.842481 -14.5475,0 q -1.21,0 -1.7325,-0.55 -0.495,-0.55 -0.495,-1.65 l 0,-5.775 q 0,-1.1825 0.4675,-1.54 0.495,-0.385 1.65,-0.385 l 14.52,0 q 0.5225,0 0.5225,0.5225 l 0,2.035 q 0,0.3025 -0.11,0.4125 -0.11,0.11 -0.4125,0.11 l -12.3475,0 q -0.44,0 -0.44,0.44 l 0,2.8875 q 0,0.44 0.44,0.44 l 12.485,0 q 0.605,0 0.605,0.4675 l 0,2.035 q 0,0.55 -0.605,0.55 z m 3.575,5.28 -23.595,0 q -0.385,0 -0.4675,-0.1375 -0.0825,-0.1375 -0.0825,-0.4675 l 0,-1.98 q 0,-0.3025 0.11,-0.4125 0.11,-0.1375 0.44,-0.1375 l 23.595,0 q 0.2475,0 0.4125,0.11 0.165,0.11 0.165,0.44 l 0,1.98 q 0,0.605 -0.5775,0.605 z m -2.97,9.845 -15.455,0 q -0.5775,0 -0.9625,-0.11 -0.3575,-0.0825 -0.5775,-0.3025 -0.1925,-0.22 -0.275,-0.605 -0.0825,-0.385 -0.0825,-0.9625 l 0,-5.61 q 0,-0.5775 0.55,-0.5775 l 2.695,0 q 0.5775,0 0.5775,0.5775 l 0,4.0425 q 0,0.4125 0.4125,0.4125 l 13.1175,0 q 0.22,0 0.385,0.0825 0.1925,0.11 0.1925,0.4125 l 0,2.145 q 0,0.385 -0.1925,0.44 -0.165,0.055 -0.385,0.055 z"
         style="font-style:normal;font-variant:normal;font-weight:bold;font-stretch:normal;font-size:27.5px;font-family:NanumGothic;-inkscape-font-specification:'NanumGothic Bold';fill:#e85c41;fill-opacity:1"
         id="path4271" />
      <path
         d="m 47.461312,90.139985 q -1.7875,0 -3.3,-0.4125 -1.5125,-0.4125 -2.64,-1.155 -1.1,-0.715 -1.7325,-1.705 -0.6325,-0.99 -0.6325,-2.1725 0,-1.1275 0.6325,-2.09 0.6325,-0.99 1.7325,-1.705 1.1275,-0.7425 2.64,-1.155 1.5125,-0.4125 3.3,-0.4125 1.705,0 3.2175,0.4125 1.54,0.385 2.695,1.1275 1.155,0.715 1.815,1.705 0.6875,0.9625 0.6875,2.1175 0,1.1825 -0.6875,2.1725 -0.66,0.99 -1.815,1.705 -1.155,0.7425 -2.695,1.155 -1.5125,0.4125 -3.2175,0.4125 z m -10.3675,-11.165 q -0.4675,0.22 -0.66,0.1375 -0.165,-0.0825 -0.3025,-0.33 l -1.045,-1.8975 q -0.275,-0.495 0.3575,-0.77 1.4025,-0.66 2.695,-1.54 1.2925,-0.88 2.3375,-1.815 1.0725,-0.935 1.8425,-1.8975 0.7975,-0.9625 1.21,-1.7875 0.22,-0.4675 0.1925,-0.66 -0.0275,-0.1925 -0.495,-0.1925 l -6.27,0 q -0.3575,0 -0.44,-0.1375 -0.055,-0.165 -0.055,-0.44 l 0,-2.0075 q 0,-0.5775 0.5225,-0.5775 l 9.295,0 q 1.6225,0 1.98,0.825 0.385,0.7975 -0.11,2.1725 -0.715,1.98 -2.1175,3.8775 1.1,0.935 2.31,1.6775 1.21,0.715 2.1725,1.1825 0.4675,0.2475 0.1925,0.6875 l -1.32,2.09 q -0.2475,0.4125 -0.7425,0.1375 -0.4125,-0.1925 -0.99,-0.5225 -0.55,-0.3575 -1.1825,-0.77 -0.6325,-0.44 -1.32,-0.935 -0.6875,-0.5225 -1.2925,-1.0725 -1.4025,1.375 -3.1075,2.5575 -1.705,1.155 -3.6575,2.0075 z m 21.9175,-5.9675 -3.41,0 0,5.0875 q 0,0.495 -0.495,0.495 l -2.7775,0 q -0.55,0 -0.55,-0.5225 l 0,-13.9975 q 0,-0.3025 0.11,-0.4125 0.1375,-0.11 0.44,-0.11 l 2.7775,0 q 0.3025,0 0.385,0.11 0.11,0.11 0.11,0.4125 l 0,5.8025 3.41,0 q 0.2475,0 0.385,0.0825 0.165,0.055 0.165,0.4125 l 0,2.09 q 0,0.55 -0.55,0.55 z m -11.55,9.3225 q -2.0625,0 -3.245,0.7425 -1.155,0.7425 -1.155,1.705 0,0.935 1.155,1.6225 1.1825,0.715 3.245,0.715 0.9625,0 1.7875,-0.1925 0.825,-0.1925 1.4025,-0.5225 0.605,-0.3025 0.935,-0.7425 0.3575,-0.4125 0.3575,-0.88 0,-0.4675 -0.3575,-0.9075 -0.33,-0.44 -0.935,-0.77 -0.605,-0.3575 -1.43,-0.55 -0.825,-0.22 -1.76,-0.22 z"
         style="font-style:normal;font-variant:normal;font-weight:bold;font-stretch:normal;font-size:27.5px;font-family:NanumGothic;-inkscape-font-specification:'NanumGothic Bold';fill:#e85c41;fill-opacity:1"
         id="path4273" />
      <path
         d="m 63.726273,77.902485 q -0.385,0.1375 -0.5225,0.0825 -0.1375,-0.055 -0.3025,-0.33 l -1.0725,-1.925 q -0.3575,-0.6325 0.1375,-0.825 2.0075,-0.7425 3.52,-1.705 1.54,-0.9625 2.6125,-2.1725 1.0725,-1.21 1.6775,-2.695 0.6325,-1.485 0.825,-3.3275 0.055,-0.3025 0.165,-0.44 0.11,-0.1375 0.495,-0.11 l 2.6125,0.165 q 0.495,0.055 0.5775,0.1925 0.11,0.11 0.055,0.495 -0.055,0.77 -0.165,1.4575 0.385,1.375 1.21,2.5575 0.8525,1.1825 2.0075,2.145 1.155,0.9625 2.53,1.705 1.375,0.715 2.86,1.155 0.3575,0.11 0.385,0.275 0.0275,0.1375 -0.1375,0.4675 l -0.99,2.035 q -0.11,0.165 -0.1375,0.2475 -0.0275,0.0825 -0.11,0.11 -0.11,0.0825 -0.44,0 -1.21,-0.275 -2.475,-0.8525 -1.2375,-0.605 -2.42,-1.4025 -1.1825,-0.7975 -2.2,-1.815 -1.0175,-1.0175 -1.76,-2.1725 -1.43,2.3375 -3.7675,4.0425 -2.3375,1.6775 -5.17,2.64 z m 20.7075,7.535 -23.6225,0 q -0.3575,0 -0.4675,-0.165 -0.0825,-0.165 -0.0825,-0.4125 l 0,-1.98 q 0,-0.3025 0.0825,-0.44 0.11,-0.1375 0.4675,-0.1375 l 9.8725,0 0,-5.39 q 0,-0.3025 0.11,-0.4125 0.11,-0.11 0.44,-0.11 l 2.695,0 q 0.33,0 0.44,0.11 0.11,0.11 0.11,0.4125 l 0,5.39 9.955,0 q 0.5775,0 0.5775,0.5775 l 0,1.98 q 0,0.5775 -0.5775,0.5775 z"
         style="font-style:normal;font-variant:normal;font-weight:bold;font-stretch:normal;font-size:27.5px;font-family:NanumGothic;-inkscape-font-specification:'NanumGothic Bold';fill:#e85c41;fill-opacity:1"
         id="path4275" />
    </g>
    <rect
       ry="5.9030401e-05"
       y="1.3134766e-05"
       x="-1.0825195e-05"
       height="120"
       width="120"
       id="rect9899-1-2-6-8"
       style="color:#000000;clip-rule:nonzero;display:inline;overflow:visible;visibility:visible;opacity:1;isolation:auto;mix-blend-mode:normal;color-interpolation:sRGB;color-interpolation-filters:linearRGB;solid-color:#000000;solid-opacity:1;fill:#e85c41;fill-opacity:0;fill-rule:nonzero;stroke:none;stroke-width:0;stroke-linecap:butt;stroke-linejoin:miter;stroke-miterlimit:4;stroke-dasharray:none;stroke-dashoffset:0;stroke-opacity:1;color-rendering:auto;image-rendering:auto;shape-rendering:auto;text-rendering:auto;enable-background:accumulate" />
  </g>
</svg>
