<?xml version="1.0" encoding="UTF-8" standalone="no"?>
<svg
   xmlns:dc="http://purl.org/dc/elements/1.1/"
   xmlns:cc="http://creativecommons.org/ns#"
   xmlns:rdf="http://www.w3.org/1999/02/22-rdf-syntax-ns#"
   xmlns:svg="http://www.w3.org/2000/svg"
   xmlns="http://www.w3.org/2000/svg"
   version="1.1"
   id="svg4234"
   viewBox="0 0 120 120"
   height="120"
   width="120">
  <defs
     id="defs4236" />
  <metadata
     id="metadata4239">
    <rdf:RDF>
      <cc:Work
         rdf:about="">
        <dc:format>image/svg+xml</dc:format>
        <dc:type
           rdf:resource="http://purl.org/dc/dcmitype/StillImage" />
        <dc:title></dc:title>
      </cc:Work>
    </rdf:RDF>
  </metadata>
  <g
     id="g4162">
    <circle
       r="50"
       cy="60.000011"
       cx="59.999989"
       id="path4162-1-7-8-6-5"
       style="color:#000000;clip-rule:nonzero;display:inline;overflow:visible;visibility:visible;opacity:1;isolation:auto;mix-blend-mode:normal;color-interpolation:sRGB;color-interpolation-filters:linearRGB;solid-color:#000000;solid-opacity:1;fill:#c9c9c9;fill-opacity:1;fill-rule:nonzero;stroke:none;stroke-width:0;stroke-linecap:butt;stroke-linejoin:miter;stroke-miterlimit:4;stroke-dasharray:none;stroke-dashoffset:0;stroke-opacity:1;color-rendering:auto;image-rendering:auto;shape-rendering:auto;text-rendering:auto;enable-background:accumulate" />
    <rect
       style="color:#000000;clip-rule:nonzero;display:inline;overflow:visible;visibility:visible;opacity:1;isolation:auto;mix-blend-mode:normal;color-interpolation:sRGB;color-interpolation-filters:linearRGB;solid-color:#000000;solid-opacity:1;fill:#e85c41;fill-opacity:0;fill-rule:nonzero;stroke:none;stroke-width:0;stroke-linecap:butt;stroke-linejoin:miter;stroke-miterlimit:4;stroke-dasharray:none;stroke-dashoffset:0;stroke-opacity:1;color-rendering:auto;image-rendering:auto;shape-rendering:auto;text-rendering:auto;enable-background:accumulate"
       id="rect9899-1-2-6-8"
       width="120"
       height="120"
       x="-1.0825195e-05"
       y="1.3134766e-05"
       ry="5.9030401e-05" />
    <path
       id="path4153"
       style="font-style:normal;font-variant:normal;font-weight:bold;font-stretch:normal;font-size:30px;line-height:125%;font-family:sans-serif;-inkscape-font-specification:'sans-serif Bold';letter-spacing:0px;word-spacing:0px;fill:#e85c41;fill-opacity:1;stroke:none;stroke-width:1px;stroke-linecap:butt;stroke-linejoin:miter;stroke-opacity:1"
       d="m 46.036395,69.525017 -25.77,0 q -0.39,0 -0.51,-0.18 -0.09,-0.18 -0.09,-0.45 l 0,-2.16 q 0,-0.33 0.09,-0.48 0.12,-0.15 0.51,-0.15 l 10.8,0 0,-5.25 -5.46,0 q -0.69,0 -1.11,-0.06 -0.42,-0.09 -0.66,-0.3 -0.24,-0.24 -0.33,-0.66 -0.09,-0.42 -0.09,-1.08 l 0,-9.45 q 0,-0.66 0.09,-1.05 0.12,-0.39 0.36,-0.6 0.27,-0.21 0.66,-0.27 0.39,-0.09 0.93,-0.09 l 15.21,0 q 0.63,0 1.02,0.06 0.39,0.06 0.6,0.27 0.24,0.21 0.33,0.63 0.09,0.39 0.09,1.05 l 0,9.45 q 0,0.66 -0.09,1.08 -0.09,0.39 -0.33,0.63 -0.21,0.21 -0.6,0.3 -0.39,0.09 -1.02,0.09 l -5.43,0 0,5.25 10.8,0 q 0.63,0 0.63,0.63 l 0,2.16 q 0,0.63 -0.63,0.63 z m -7.44,-18.24 q 0,-0.39 -0.09,-0.48 -0.06,-0.12 -0.42,-0.12 l -9.96,0 q -0.39,0 -0.51,0.09 -0.09,0.09 -0.09,0.51 l 0,5.58 q 0,0.42 0.09,0.51 0.12,0.09 0.51,0.09 l 9.96,0 q 0.36,0 0.42,-0.12 0.09,-0.12 0.09,-0.48 l 0,-5.58 z" />
    <path
       id="path4155"
       style="font-style:normal;font-variant:normal;font-weight:bold;font-stretch:normal;font-size:30px;line-height:125%;font-family:sans-serif;-inkscape-font-specification:'sans-serif Bold';letter-spacing:0px;word-spacing:0px;fill:#e85c41;fill-opacity:1;stroke:none;stroke-width:1px;stroke-linecap:butt;stroke-linejoin:miter;stroke-opacity:1"
       d="m 70.289989,57.285017 -15.87,0 q -1.32,0 -1.89,-0.6 -0.54,-0.6 -0.54,-1.8 l 0,-6.3 q 0,-1.29 0.51,-1.68 0.54,-0.42 1.8,-0.42 l 15.84,0 q 0.57,0 0.57,0.57 l 0,2.22 q 0,0.33 -0.12,0.45 -0.12,0.12 -0.45,0.12 l -13.47,0 q -0.48,0 -0.48,0.48 l 0,3.15 q 0,0.48 0.48,0.48 l 13.62,0 q 0.66,0 0.66,0.51 l 0,2.22 q 0,0.6 -0.66,0.6 z m 3.9,5.76 -25.74,0 q -0.42,0 -0.51,-0.15 -0.09,-0.15 -0.09,-0.51 l 0,-2.16 q 0,-0.33 0.12,-0.45 0.12,-0.15 0.48,-0.15 l 25.74,0 q 0.27,0 0.45,0.12 0.18,0.12 0.18,0.48 l 0,2.16 q 0,0.66 -0.63,0.66 z m -3.24,10.74 -16.86,0 q -0.63,0 -1.05,-0.12 -0.39,-0.09 -0.63,-0.33 -0.21,-0.24 -0.3,-0.66 -0.09,-0.42 -0.09,-1.05 l 0,-6.12 q 0,-0.63 0.6,-0.63 l 2.94,0 q 0.63,0 0.63,0.63 l 0,4.41 q 0,0.45 0.45,0.45 l 14.31,0 q 0.24,0 0.42,0.09 0.21,0.12 0.21,0.45 l 0,2.34 q 0,0.42 -0.21,0.48 -0.18,0.06 -0.42,0.06 z" />
    <path
       id="path4157"
       style="font-style:normal;font-variant:normal;font-weight:bold;font-stretch:normal;font-size:30px;line-height:125%;font-family:sans-serif;-inkscape-font-specification:'sans-serif Bold';letter-spacing:0px;word-spacing:0px;fill:#e85c41;fill-opacity:1;stroke:none;stroke-width:1px;stroke-linecap:butt;stroke-linejoin:miter;stroke-opacity:1"
       d="m 84.793583,60.705017 q -1.65,0 -3.03,-0.57 -1.35,-0.57 -2.31,-1.53 -0.96,-0.96 -1.5,-2.25 -0.54,-1.29 -0.54,-2.7 0,-1.44 0.54,-2.7 0.54,-1.29 1.5,-2.25 0.96,-0.99 2.31,-1.56 1.38,-0.57 3.03,-0.57 1.83,0 3.27,0.69 1.47,0.66 2.46,1.77 l 5.67,0 0,-2.82 q 0,-0.33 0.12,-0.45 0.12,-0.12 0.45,-0.12 l 3,0 q 0.329997,0 0.449997,0.12 0.12,0.12 0.12,0.45 l 0,15.27 q 0,0.36 -0.12,0.45 -0.12,0.09 -0.449997,0.09 l -3,0 q -0.33,0 -0.45,-0.09 -0.12,-0.09 -0.12,-0.45 l 0,-2.67 -6.24,0 q -0.96,0.87 -2.28,1.38 -1.29,0.51 -2.88,0.51 z m 14.97,13.65 -2.97,0 q -0.63,0 -0.63,-0.6 l 0,-6.24 q 0,-0.45 -0.45,-0.45 l -13.35,0 q -0.24,0 -0.42,-0.09 -0.15,-0.09 -0.15,-0.42 l 0,-2.34 q 0,-0.42 0.15,-0.48 0.18,-0.09 0.42,-0.09 l 15.84,0 q 0.66,0 1.08,0.12 0.42,0.09 0.63,0.36 0.239997,0.27 0.329997,0.72 0.09,0.42 0.09,1.05 l 0,7.86 q 0,0.6 -0.569997,0.6 z m -14.97,-24.21 q -0.78,0 -1.41,0.27 -0.6,0.27 -1.05,0.75 -0.45,0.48 -0.69,1.14 -0.24,0.63 -0.24,1.35 0,1.47 0.9,2.49 0.93,0.99 2.49,0.99 0.78,0 1.41,-0.27 0.66,-0.27 1.11,-0.75 0.45,-0.48 0.69,-1.11 0.27,-0.63 0.27,-1.35 0,-1.47 -0.96,-2.49 -0.93,-1.02 -2.52,-1.02 z m 11.4,2.22 -4.05,0 q 0.06,0.33 0.09,0.66 0.03,0.3 0.03,0.63 0,0.93 -0.24,1.83 l 4.17,0 0,-3.12 z" />
  </g>
</svg>
