<?xml version="1.0" encoding="UTF-8" standalone="no"?>
<svg
   xmlns:dc="http://purl.org/dc/elements/1.1/"
   xmlns:cc="http://creativecommons.org/ns#"
   xmlns:rdf="http://www.w3.org/1999/02/22-rdf-syntax-ns#"
   xmlns:svg="http://www.w3.org/2000/svg"
   xmlns="http://www.w3.org/2000/svg"
   width="120"
   height="120"
   viewBox="0 0 120 120"
   id="svg7905"
   version="1.1">
  <defs
     id="defs7907" />
  <metadata
     id="metadata7910">
    <rdf:RDF>
      <cc:Work
         rdf:about="">
        <dc:format>image/svg+xml</dc:format>
        <dc:type
           rdf:resource="http://purl.org/dc/dcmitype/StillImage" />
        <dc:title></dc:title>
      </cc:Work>
    </rdf:RDF>
  </metadata>
  <g
     id="g4156">
    <circle
       style="color:#000000;clip-rule:nonzero;display:inline;overflow:visible;visibility:visible;opacity:1;isolation:auto;mix-blend-mode:normal;color-interpolation:sRGB;color-interpolation-filters:linearRGB;solid-color:#000000;solid-opacity:1;fill:#79599e;fill-opacity:1;fill-rule:nonzero;stroke:none;stroke-width:0;stroke-linecap:butt;stroke-linejoin:miter;stroke-miterlimit:4;stroke-dasharray:none;stroke-dashoffset:0;stroke-opacity:1;color-rendering:auto;image-rendering:auto;shape-rendering:auto;text-rendering:auto;enable-background:accumulate"
       id="path4162-1-7-8-6-5-1-5-6-32-5-1-9"
       cx="60.000031"
       cy="59.999992"
       r="50" />
    <rect
       ry="5.9030401e-05"
       y="-6.6757202e-06"
       x="-9.5367432e-07"
       height="120"
       width="120"
       id="rect9899-1-2-6-8-0-9-9-9-9-9-9"
       style="color:#000000;clip-rule:nonzero;display:inline;overflow:visible;visibility:visible;opacity:1;isolation:auto;mix-blend-mode:normal;color-interpolation:sRGB;color-interpolation-filters:linearRGB;solid-color:#000000;solid-opacity:1;fill:#e85c41;fill-opacity:0;fill-rule:nonzero;stroke:none;stroke-width:0;stroke-linecap:butt;stroke-linejoin:miter;stroke-miterlimit:4;stroke-dasharray:none;stroke-dashoffset:0;stroke-opacity:1;color-rendering:auto;image-rendering:auto;shape-rendering:auto;text-rendering:auto;enable-background:accumulate" />
    <circle
       style="color:#000000;clip-rule:nonzero;display:inline;overflow:visible;visibility:visible;opacity:1;isolation:auto;mix-blend-mode:normal;color-interpolation:sRGB;color-interpolation-filters:linearRGB;solid-color:#000000;solid-opacity:1;fill:#ffffff;fill-opacity:1;fill-rule:nonzero;stroke:none;stroke-width:0;stroke-linecap:butt;stroke-linejoin:miter;stroke-miterlimit:4;stroke-dasharray:none;stroke-dashoffset:0;stroke-opacity:1;color-rendering:auto;image-rendering:auto;shape-rendering:auto;text-rendering:auto;enable-background:accumulate"
       id="path4162-1-7-8-6-5-1-9-4-0-5-4-0-6"
       cx="60.000031"
       cy="59.999992"
       r="40" />
    <g
       style="font-style:normal;font-weight:normal;font-size:28.85059738px;line-height:125%;font-family:sans-serif;letter-spacing:0px;word-spacing:0px;display:inline;fill:#e85c41;fill-opacity:1;stroke:none;stroke-width:1px;stroke-linecap:butt;stroke-linejoin:miter;stroke-opacity:1"
       id="text4462-4-0-7-3-2-5-4-9-0-0-2-1">
      <path
         d="m 57.617486,77.062491 -3.535,0 q -0.385,0 -0.525,-0.14 -0.105,-0.105 -0.105,-0.49 l 0,-16.38 -2.765,0 0,15.085 q 0,0.455 -0.14,0.525 -0.105,0.105 -0.49,0.105 l -3.29,0 q -0.385,0 -0.525,-0.105 -0.14,-0.07 -0.14,-0.525 l 0,-30.38 q 0,-0.385 0.14,-0.49 0.14,-0.14 0.525,-0.14 l 3.29,0 q 0.385,0 0.49,0.14 0.14,0.105 0.14,0.49 l 0,11.34 2.765,0 0,-11.97 q 0,-0.385 0.14,-0.49 0.14,-0.14 0.525,-0.14 l 3.5,0 q 0.385,0 0.49,0.14 0.14,0.105 0.14,0.49 l 0,32.305 q 0,0.385 -0.14,0.49 -0.105,0.14 -0.49,0.14 z m -25.865,-7.91 q -0.42,0.28 -0.63,0.245 -0.21,-0.07 -0.455,-0.385 l -1.61,-2.24 q -0.28,-0.385 -0.315,-0.595 0,-0.245 0.385,-0.49 2.24,-1.47 3.99,-3.255 1.785,-1.785 3.045,-3.71 1.295,-1.925 2.03,-3.885 0.77,-1.995 0.945,-3.78 0.105,-0.91 -0.7,-0.91 l -7.175,0 q -0.7,0 -0.7,-0.665 l 0,-2.59 q 0,-0.7 0.7,-0.7 l 10.08,0 q 1.645,0 2.17,0.63 0.525,0.595 0.525,2.17 0,2.94 -0.84,5.775 -0.84,2.835 -2.45,5.425 -1.575,2.59 -3.85,4.865 -2.275,2.275 -5.145,4.095 z"
         style="font-style:normal;font-variant:normal;font-weight:bold;font-stretch:normal;font-size:35px;font-family:NanumGothic;-inkscape-font-specification:'NanumGothic Bold';fill:#000000;fill-opacity:1"
         id="path4152" />
      <path
         d="m 92.038345,63.832491 -30.03,0 q -0.49,0 -0.595,-0.175 -0.105,-0.175 -0.105,-0.595 l 0,-2.38 q 0,-0.385 0.14,-0.525 0.14,-0.175 0.56,-0.175 l 12.6,0 0,-2.065 -5.88,0 q -1.54,0 -2.065,-0.56 -0.49,-0.56 -0.49,-1.89 l 0,-4.13 q 0,-0.665 0.105,-1.085 0.105,-0.455 0.35,-0.7 0.28,-0.28 0.735,-0.385 0.49,-0.14 1.26,-0.14 l 14.245,0 q 0.315,0 0.315,-0.385 l 0,-0.7 q 0,-0.42 -0.35,-0.42 l -15.785,0 q -0.7,0 -0.7,-0.7 l 0,-2.38 q 0,-0.665 0.7,-0.665 l 18.375,0 q 0.77,0 1.26,0.105 0.525,0.105 0.77,0.385 0.28,0.245 0.385,0.7 0.105,0.42 0.105,1.12 l 0,4.165 q 0,0.7 -0.105,1.155 -0.105,0.455 -0.385,0.735 -0.245,0.245 -0.77,0.35 -0.49,0.105 -1.26,0.105 l -14.105,0 q -0.35,0 -0.35,0.35 l 0,0.84 q 0,0.385 0.385,0.385 l 16.555,0 q 0.385,0 0.56,0.105 0.175,0.105 0.175,0.56 l 0,2.38 q 0,0.7 -0.7,0.7 l -8.47,0 0,2.065 12.565,0 q 0.315,0 0.525,0.14 0.21,0.14 0.21,0.56 l 0,2.38 q 0,0.77 -0.735,0.77 z m -15.015,13.58 q -2.695,0 -4.795,-0.49 -2.1,-0.455 -3.535,-1.26 -1.435,-0.805 -2.17,-1.925 -0.735,-1.12 -0.735,-2.38 0,-1.26 0.735,-2.345 0.735,-1.12 2.17,-1.925 1.435,-0.805 3.535,-1.26 2.1,-0.455 4.795,-0.455 2.695,0 4.795,0.455 2.1,0.455 3.535,1.26 1.435,0.805 2.17,1.925 0.735,1.085 0.735,2.345 0,1.26 -0.735,2.38 -0.735,1.12 -2.17,1.925 -1.435,0.805 -3.535,1.26 -2.1,0.49 -4.795,0.49 z m 0,-8.4 q -3.255,0 -4.865,0.7 -1.575,0.7 -1.575,1.68 0,0.91 1.575,1.645 1.61,0.735 4.865,0.735 3.255,0 4.83,-0.735 1.61,-0.735 1.61,-1.645 0,-0.98 -1.61,-1.68 -1.575,-0.7 -4.83,-0.7 z"
         style="font-style:normal;font-variant:normal;font-weight:bold;font-stretch:normal;font-size:35px;font-family:NanumGothic;-inkscape-font-specification:'NanumGothic Bold';fill:#000000;fill-opacity:1"
         id="path4154" />
    </g>
  </g>
</svg>
