<?xml version="1.0" encoding="UTF-8" standalone="no"?>
<svg
   xmlns:dc="http://purl.org/dc/elements/1.1/"
   xmlns:cc="http://creativecommons.org/ns#"
   xmlns:rdf="http://www.w3.org/1999/02/22-rdf-syntax-ns#"
   xmlns:svg="http://www.w3.org/2000/svg"
   xmlns="http://www.w3.org/2000/svg"
   width="120"
   height="120"
   viewBox="0 0 120 120"
   id="svg11487"
   version="1.1">
  <defs
     id="defs11489" />
  <metadata
     id="metadata11492">
    <rdf:RDF>
      <cc:Work
         rdf:about="">
        <dc:format>image/svg+xml</dc:format>
        <dc:type
           rdf:resource="http://purl.org/dc/dcmitype/StillImage" />
        <dc:title></dc:title>
      </cc:Work>
    </rdf:RDF>
  </metadata>
  <circle
     r="50"
     cy="60.000004"
     cx="60.000031"
     id="path4162-1-7-8-6-5-1-5-6-3"
     style="color:#000000;clip-rule:nonzero;display:inline;overflow:visible;visibility:visible;opacity:1;isolation:auto;mix-blend-mode:normal;color-interpolation:sRGB;color-interpolation-filters:linearRGB;solid-color:#000000;solid-opacity:1;fill:#76b258;fill-opacity:1;fill-rule:nonzero;stroke:none;stroke-width:0;stroke-linecap:butt;stroke-linejoin:miter;stroke-miterlimit:4;stroke-dasharray:none;stroke-dashoffset:0;stroke-opacity:1;color-rendering:auto;image-rendering:auto;shape-rendering:auto;text-rendering:auto;enable-background:accumulate" />
  <rect
     style="color:#000000;clip-rule:nonzero;display:inline;overflow:visible;visibility:visible;opacity:1;isolation:auto;mix-blend-mode:normal;color-interpolation:sRGB;color-interpolation-filters:linearRGB;solid-color:#000000;solid-opacity:1;fill:#e85c41;fill-opacity:0;fill-rule:nonzero;stroke:none;stroke-width:0;stroke-linecap:butt;stroke-linejoin:miter;stroke-miterlimit:4;stroke-dasharray:none;stroke-dashoffset:0;stroke-opacity:1;color-rendering:auto;image-rendering:auto;shape-rendering:auto;text-rendering:auto;enable-background:accumulate"
     id="rect9899-1-2-6-8-0-9-9-3"
     width="120"
     height="120"
     x="-9.5367432e-07"
     y="3.3242798e-06"
     ry="5.9030401e-05" />
  <circle
     r="40"
     cy="60.000004"
     cx="60.000031"
     id="path4162-1-7-8-6-5-1-9-4-0-7"
     style="color:#000000;clip-rule:nonzero;display:inline;overflow:visible;visibility:visible;opacity:1;isolation:auto;mix-blend-mode:normal;color-interpolation:sRGB;color-interpolation-filters:linearRGB;solid-color:#000000;solid-opacity:1;fill:#ffffff;fill-opacity:1;fill-rule:nonzero;stroke:none;stroke-width:0;stroke-linecap:butt;stroke-linejoin:miter;stroke-miterlimit:4;stroke-dasharray:none;stroke-dashoffset:0;stroke-opacity:1;color-rendering:auto;image-rendering:auto;shape-rendering:auto;text-rendering:auto;enable-background:accumulate" />
  <g
     id="text4462-4-0-7-3-2-5-4-9-4"
     style="font-style:normal;font-weight:normal;font-size:28.85059738px;line-height:125%;font-family:sans-serif;letter-spacing:0px;word-spacing:0px;display:inline;fill:#e85c41;fill-opacity:1;stroke:none;stroke-width:1px;stroke-linecap:butt;stroke-linejoin:miter;stroke-opacity:1">
    <path
       id="path4874"
       style="font-style:normal;font-variant:normal;font-weight:bold;font-stretch:normal;font-size:35px;font-family:NanumGothic;-inkscape-font-specification:'NanumGothic Bold';fill:#000000;fill-opacity:1"
       d="m 52.892486,76.537498 -15.785,0 q -0.875,0 -1.4,-0.105 -0.525,-0.105 -0.84,-0.42 -0.28,-0.28 -0.385,-0.77 -0.105,-0.49 -0.105,-1.26 l 0,-7.28 q 0,-1.54 0.525,-2.065 0.525,-0.525 1.995,-0.525 l 15.82,0 q 0.875,0 1.4,0.14 0.525,0.105 0.805,0.42 0.315,0.28 0.42,0.805 0.105,0.49 0.105,1.26 l 0,7.28 q 0,0.77 -0.14,1.26 -0.105,0.49 -0.42,0.77 -0.28,0.28 -0.77,0.385 -0.49,0.105 -1.225,0.105 z m -21.07,-14.175 q -0.595,0.28 -0.84,0.175 -0.21,-0.105 -0.385,-0.42 l -1.33,-2.415 q -0.35,-0.595 0.455,-1.015 1.785,-0.84 3.43,-1.925 1.645,-1.085 2.975,-2.24 1.365,-1.19 2.345,-2.38 1.015,-1.19 1.54,-2.24 0.28,-0.595 0.245,-0.84 -0.035,-0.245 -0.63,-0.245 l -7.98,0 q -0.455,0 -0.56,-0.175 -0.07,-0.21 -0.07,-0.56 l 0,-2.555 q 0,-0.735 0.665,-0.735 l 11.83,0 q 2.065,0 2.52,1.05 0.49,1.015 -0.14,2.765 -0.91,2.59 -2.835,5.11 1.4,1.225 2.975,2.205 1.61,0.945 2.87,1.54 0.595,0.315 0.245,0.875 l -1.68,2.66 q -0.315,0.49 -0.945,0.21 -0.525,-0.245 -1.295,-0.7 -0.735,-0.455 -1.61,-1.015 -0.84,-0.595 -1.715,-1.26 -0.875,-0.7 -1.68,-1.4 -1.785,1.68 -3.885,3.08 -2.1,1.4 -4.515,2.45 z m 27.895,-7.21 -4.34,0 0,6.405 q 0,0.385 -0.14,0.525 -0.105,0.14 -0.49,0.14 l -3.535,0 q -0.7,0 -0.7,-0.7 l 0,-17.36 q 0,-0.665 0.7,-0.665 l 3.535,0 q 0.63,0 0.63,0.665 l 0,7 4.34,0 q 0.315,0 0.49,0.105 0.21,0.07 0.21,0.525 l 0,2.66 q 0,0.42 -0.21,0.56 -0.175,0.14 -0.49,0.14 z m -9.135,13.335 q 0,-0.42 -0.385,-0.42 l -10.57,0 q -0.42,0 -0.42,0.455 l 0,3.64 q 0,0.42 0.42,0.42 l 10.535,0 q 0.245,0 0.315,-0.07 0.105,-0.035 0.105,-0.385 l 0,-3.64 z" />
    <path
       id="path4876"
       style="font-style:normal;font-variant:normal;font-weight:bold;font-stretch:normal;font-size:35px;font-family:NanumGothic;-inkscape-font-specification:'NanumGothic Bold';fill:#000000;fill-opacity:1"
       d="m 89.553345,77.237498 -18.585,0 q -0.77,0 -1.26,-0.14 -0.455,-0.105 -0.735,-0.385 -0.245,-0.245 -0.35,-0.7 -0.07,-0.42 -0.07,-1.05 l 0,-4.585 q 0,-0.665 0.07,-1.085 0.105,-0.42 0.35,-0.665 0.28,-0.28 0.735,-0.385 0.455,-0.105 1.225,-0.105 l 13.3,0 q 0.35,0 0.35,-0.385 l 0,-0.84 q 0,-0.42 -0.385,-0.42 l -15.015,0 q -0.385,0 -0.56,-0.14 -0.14,-0.14 -0.14,-0.56 l 0,-2.415 q 0,-0.665 0.7,-0.665 l 17.64,0 q 0.805,0 1.295,0.14 0.49,0.105 0.77,0.385 0.28,0.245 0.35,0.665 0.105,0.42 0.105,1.05 l 0,4.55 q 0,0.7 -0.105,1.155 -0.07,0.42 -0.35,0.665 -0.245,0.245 -0.735,0.315 -0.455,0.105 -1.26,0.105 l -13.16,0 q -0.385,0 -0.385,0.35 l 0,0.98 q 0,0.385 0.42,0.385 l 15.75,0 q 0.385,0 0.525,0.105 0.175,0.105 0.175,0.56 l 0,2.415 q 0,0.7 -0.665,0.7 z m -24.045,-16.345 q -0.7,0.385 -0.945,0.42 -0.21,0 -0.455,-0.385 l -1.61,-2.17 q -0.385,-0.525 -0.315,-0.735 0.07,-0.21 0.56,-0.525 3.64,-2.38 5.46,-5.46 1.855,-3.115 1.855,-7.455 0,-0.595 0.14,-0.7 0.175,-0.14 0.665,-0.105 l 3.29,0.14 q 0.385,0.035 0.525,0.175 0.14,0.105 0.14,0.49 0,2.31 -0.49,4.48 0.525,1.19 1.33,2.275 0.84,1.085 1.82,2.03 0.98,0.945 1.96,1.715 1.015,0.735 1.89,1.225 0.49,0.28 0.455,0.56 0,0.245 -0.28,0.665 l -1.295,2.1 q -0.28,0.42 -0.49,0.455 -0.21,0.035 -0.7,-0.245 -0.735,-0.35 -1.61,-0.945 -0.875,-0.595 -1.785,-1.33 -0.875,-0.77 -1.715,-1.645 -0.805,-0.91 -1.47,-1.89 -1.225,2.1 -2.975,3.815 -1.75,1.715 -3.955,3.045 z m 23.17,0.105 -3.535,0 q -0.665,0 -0.665,-0.7 l 0,-16.135 q 0,-0.385 0.14,-0.525 0.14,-0.14 0.525,-0.14 l 3.535,0 q 0.385,0 0.49,0.14 0.14,0.14 0.14,0.525 l 0,16.17 q 0,0.665 -0.63,0.665 z" />
  </g>
</svg>
