<?xml version="1.0" encoding="UTF-8" standalone="no"?>
<svg
   xmlns:dc="http://purl.org/dc/elements/1.1/"
   xmlns:cc="http://creativecommons.org/ns#"
   xmlns:rdf="http://www.w3.org/1999/02/22-rdf-syntax-ns#"
   xmlns:svg="http://www.w3.org/2000/svg"
   xmlns="http://www.w3.org/2000/svg"
   xmlns:sodipodi="http://sodipodi.sourceforge.net/DTD/sodipodi-0.dtd"
   xmlns:inkscape="http://www.inkscape.org/namespaces/inkscape"
   width="120"
   height="120"
   viewBox="0 0 120 120"
   id="svg7308"
   version="1.1"
   inkscape:version="0.91 r13725"
   sodipodi:docname="line5_ogeum.svg">
  <sodipodi:namedview
     pagecolor="#ffffff"
     bordercolor="#666666"
     borderopacity="1"
     objecttolerance="10"
     gridtolerance="10"
     guidetolerance="10"
     inkscape:pageopacity="0"
     inkscape:pageshadow="2"
     inkscape:window-width="976"
     inkscape:window-height="649"
     id="namedview12"
     showgrid="false"
     inkscape:zoom="1.9666667"
     inkscape:cx="60"
     inkscape:cy="60"
     inkscape:window-x="758"
     inkscape:window-y="374"
     inkscape:window-maximized="0"
     inkscape:current-layer="svg7308" />
  <defs
     id="defs7310" />
  <metadata
     id="metadata7313">
    <rdf:RDF>
      <cc:Work
         rdf:about="">
        <dc:format>image/svg+xml</dc:format>
        <dc:type
           rdf:resource="http://purl.org/dc/dcmitype/StillImage" />
        <dc:title />
      </cc:Work>
    </rdf:RDF>
  </metadata>
  <circle
     r="50"
     cy="59.999992"
     cx="60.000031"
     id="path4162-1-7-8-6-5-1-5-6-32-5-1-9-9"
     style="color:#000000;clip-rule:nonzero;display:inline;overflow:visible;visibility:visible;opacity:1;isolation:auto;mix-blend-mode:normal;color-interpolation:sRGB;color-interpolation-filters:linearRGB;solid-color:#000000;solid-opacity:1;fill:#92508d;fill-opacity:1;fill-rule:nonzero;stroke:none;stroke-width:0;stroke-linecap:butt;stroke-linejoin:miter;stroke-miterlimit:4;stroke-dasharray:none;stroke-dashoffset:0;stroke-opacity:1;color-rendering:auto;image-rendering:auto;shape-rendering:auto;text-rendering:auto;enable-background:accumulate" />
  <rect
     style="color:#000000;clip-rule:nonzero;display:inline;overflow:visible;visibility:visible;opacity:1;isolation:auto;mix-blend-mode:normal;color-interpolation:sRGB;color-interpolation-filters:linearRGB;solid-color:#000000;solid-opacity:1;fill:#e85c41;fill-opacity:0;fill-rule:nonzero;stroke:none;stroke-width:0;stroke-linecap:butt;stroke-linejoin:miter;stroke-miterlimit:4;stroke-dasharray:none;stroke-dashoffset:0;stroke-opacity:1;color-rendering:auto;image-rendering:auto;shape-rendering:auto;text-rendering:auto;enable-background:accumulate"
     id="rect9899-1-2-6-8-0-9-9-9-9-9-9-0"
     width="120"
     height="120"
     x="-9.5367432e-07"
     y="-6.6757202e-06"
     ry="5.9030401e-05" />
  <circle
     r="40"
     cy="59.999992"
     cx="60.000031"
     id="path4162-1-7-8-6-5-1-9-4-0-5-4-0-6-6"
     style="color:#000000;clip-rule:nonzero;display:inline;overflow:visible;visibility:visible;opacity:1;isolation:auto;mix-blend-mode:normal;color-interpolation:sRGB;color-interpolation-filters:linearRGB;solid-color:#000000;solid-opacity:1;fill:#ffffff;fill-opacity:1;fill-rule:nonzero;stroke:none;stroke-width:0;stroke-linecap:butt;stroke-linejoin:miter;stroke-miterlimit:4;stroke-dasharray:none;stroke-dashoffset:0;stroke-opacity:1;color-rendering:auto;image-rendering:auto;shape-rendering:auto;text-rendering:auto;enable-background:accumulate" />
  <g
     id="text4462-4-0-7-3-2-5-4-9-0-0-2-1-8"
     style="font-style:normal;font-weight:normal;font-size:28.85059738px;line-height:125%;font-family:sans-serif;letter-spacing:0px;word-spacing:0px;display:inline;fill:#e85c41;fill-opacity:1;stroke:none;stroke-width:1px;stroke-linecap:butt;stroke-linejoin:miter;stroke-opacity:1">
    <path
       inkscape:connector-curvature="0"
       id="path4152"
       style="font-style:normal;font-variant:normal;font-weight:bold;font-stretch:normal;font-size:35px;font-family:NanumGothic;-inkscape-font-specification:'NanumGothic Bold';fill:#000000;fill-opacity:1"
       d="m 59.192486,71.357491 -30.065,0 q -0.455,0 -0.595,-0.21 -0.105,-0.21 -0.105,-0.525 l 0,-2.52 q 0,-0.385 0.105,-0.56 0.14,-0.175 0.595,-0.175 l 12.6,0 0,-5.25 q -2.17,-0.28 -3.92,-1.015 -1.75,-0.77 -2.975,-1.89 -1.225,-1.155 -1.925,-2.625 -0.665,-1.47 -0.665,-3.185 0,-1.925 0.84,-3.535 0.875,-1.645 2.45,-2.8 1.575,-1.19 3.78,-1.82 2.205,-0.665 4.865,-0.665 2.695,0 4.865,0.665 2.205,0.63 3.745,1.82 1.575,1.155 2.415,2.8 0.875,1.61 0.875,3.535 0,1.75 -0.665,3.22 -0.665,1.47 -1.925,2.59 -1.225,1.12 -2.975,1.89 -1.75,0.735 -3.92,1.015 l 0,5.25 12.6,0 q 0.735,0 0.735,0.735 l 0,2.52 q 0,0.735 -0.735,0.735 z m -15.015,-22.715 q -1.645,0 -2.975,0.385 -1.295,0.385 -2.24,1.05 -0.91,0.63 -1.435,1.505 -0.49,0.84 -0.49,1.82 0,1.015 0.49,1.89 0.525,0.875 1.435,1.54 0.945,0.63 2.24,1.015 1.33,0.385 2.975,0.385 1.61,0 2.905,-0.385 1.33,-0.385 2.24,-1.015 0.945,-0.665 1.435,-1.54 0.49,-0.875 0.49,-1.89 0,-0.98 -0.49,-1.82 -0.49,-0.875 -1.435,-1.505 -0.91,-0.665 -2.24,-1.05 -1.295,-0.385 -2.905,-0.385 z" />
    <path
       inkscape:connector-curvature="0"
       id="path4154"
       style="font-style:normal;font-variant:normal;font-weight:bold;font-stretch:normal;font-size:35px;font-family:NanumGothic;-inkscape-font-specification:'NanumGothic Bold';fill:#000000;fill-opacity:1"
       d="m 85.423345,76.187491 -16.59,0 q -0.875,0 -1.4,-0.105 -0.525,-0.105 -0.84,-0.42 -0.28,-0.28 -0.385,-0.77 -0.105,-0.49 -0.105,-1.26 l 0,-7.525 q 0,-1.54 0.525,-2.065 0.56,-0.525 1.995,-0.525 l 16.625,0 q 0.875,0 1.4,0.14 0.525,0.105 0.805,0.385 0.315,0.28 0.42,0.805 0.105,0.525 0.105,1.295 l 0,7.525 q 0,0.77 -0.14,1.26 -0.105,0.49 -0.42,0.77 -0.28,0.28 -0.77,0.385 -0.49,0.105 -1.225,0.105 z m 6.615,-15.96 -30.03,0 q -0.49,0 -0.595,-0.175 -0.105,-0.175 -0.105,-0.56 l 0,-2.52 q 0,-0.42 0.14,-0.56 0.14,-0.175 0.56,-0.175 l 20.93,0 q 0.14,-0.77 0.28,-1.82 0.14,-1.085 0.21,-2.1 0.105,-1.05 0.14,-1.855 0.07,-0.805 0.07,-1.12 0,-0.525 -0.14,-0.735 -0.14,-0.245 -0.805,-0.245 l -15.82,0 q -0.35,0 -0.56,-0.07 -0.175,-0.105 -0.175,-0.56 l 0,-2.73 q 0,-0.385 0.175,-0.49 0.21,-0.105 0.56,-0.105 l 19.075,0 q 1.26,0 1.855,0.56 0.595,0.525 0.595,1.855 0,1.855 -0.175,4.41 -0.175,2.52 -0.665,5.005 l 4.48,0 q 0.315,0 0.525,0.175 0.21,0.14 0.21,0.56 l 0,2.52 q 0,0.735 -0.735,0.735 z m -8.925,7.665 q 0,-0.42 -0.385,-0.42 l -11.375,0 q -0.42,0 -0.42,0.455 l 0,3.885 q 0,0.42 0.42,0.42 l 11.34,0 q 0.245,0 0.315,-0.07 0.105,-0.035 0.105,-0.385 l 0,-3.885 z" />
  </g>
</svg>
