<?xml version="1.0" encoding="UTF-8" standalone="no"?>
<svg
   xmlns:dc="http://purl.org/dc/elements/1.1/"
   xmlns:cc="http://creativecommons.org/ns#"
   xmlns:rdf="http://www.w3.org/1999/02/22-rdf-syntax-ns#"
   xmlns:svg="http://www.w3.org/2000/svg"
   xmlns="http://www.w3.org/2000/svg"
   xmlns:sodipodi="http://sodipodi.sourceforge.net/DTD/sodipodi-0.dtd"
   xmlns:inkscape="http://www.inkscape.org/namespaces/inkscape"
   width="120"
   height="120"
   viewBox="0 0 120 120"
   id="svg9696"
   version="1.1"
   inkscape:version="0.91 r13725"
   sodipodi:docname="line2_samseong.svg">
  <sodipodi:namedview
     pagecolor="#ffffff"
     bordercolor="#666666"
     borderopacity="1"
     objecttolerance="10"
     gridtolerance="10"
     guidetolerance="10"
     inkscape:pageopacity="0"
     inkscape:pageshadow="2"
     inkscape:window-width="1291"
     inkscape:window-height="744"
     id="namedview12"
     showgrid="false"
     inkscape:zoom="1.9666667"
     inkscape:cx="60"
     inkscape:cy="60"
     inkscape:window-x="593"
     inkscape:window-y="303"
     inkscape:window-maximized="0"
     inkscape:current-layer="svg9696" />
  <defs
     id="defs9698" />
  <metadata
     id="metadata9701">
    <rdf:RDF>
      <cc:Work
         rdf:about="">
        <dc:format>image/svg+xml</dc:format>
        <dc:type
           rdf:resource="http://purl.org/dc/dcmitype/StillImage" />
        <dc:title />
      </cc:Work>
    </rdf:RDF>
  </metadata>
  <circle
     style="color:#000000;font-style:normal;font-weight:normal;font-size:medium;line-height:125%;font-family:sans-serif;letter-spacing:0px;word-spacing:0px;clip-rule:nonzero;display:inline;overflow:visible;visibility:visible;opacity:1;isolation:auto;mix-blend-mode:normal;color-interpolation:sRGB;color-interpolation-filters:linearRGB;solid-color:#000000;solid-opacity:1;fill:#00a353;fill-opacity:1;fill-rule:nonzero;stroke:none;stroke-width:0;stroke-linecap:butt;stroke-linejoin:miter;stroke-miterlimit:4;stroke-dasharray:none;stroke-dashoffset:0;stroke-opacity:1;color-rendering:auto;image-rendering:auto;shape-rendering:auto;text-rendering:auto;enable-background:accumulate"
     id="path4162-1-7-8-6-5-1-5-6-32"
     cx="60.000031"
     cy="59.999992"
     r="50" />
  <rect
     ry="5.9030401e-05"
     y="-6.6757202e-06"
     x="-9.5367432e-07"
     height="120"
     width="120"
     id="rect9899-1-2-6-8-0-9-9-9"
     style="color:#000000;font-style:normal;font-weight:normal;font-size:medium;line-height:125%;font-family:sans-serif;letter-spacing:0px;word-spacing:0px;clip-rule:nonzero;display:inline;overflow:visible;visibility:visible;opacity:1;isolation:auto;mix-blend-mode:normal;color-interpolation:sRGB;color-interpolation-filters:linearRGB;solid-color:#000000;solid-opacity:1;fill:#e85c41;fill-opacity:0;fill-rule:nonzero;stroke:none;stroke-width:0;stroke-linecap:butt;stroke-linejoin:miter;stroke-miterlimit:4;stroke-dasharray:none;stroke-dashoffset:0;stroke-opacity:1;color-rendering:auto;image-rendering:auto;shape-rendering:auto;text-rendering:auto;enable-background:accumulate" />
  <circle
     style="color:#000000;font-style:normal;font-weight:normal;font-size:medium;line-height:125%;font-family:sans-serif;letter-spacing:0px;word-spacing:0px;clip-rule:nonzero;display:inline;overflow:visible;visibility:visible;opacity:1;isolation:auto;mix-blend-mode:normal;color-interpolation:sRGB;color-interpolation-filters:linearRGB;solid-color:#000000;solid-opacity:1;fill:#ffffff;fill-opacity:1;fill-rule:nonzero;stroke:none;stroke-width:0;stroke-linecap:butt;stroke-linejoin:miter;stroke-miterlimit:4;stroke-dasharray:none;stroke-dashoffset:0;stroke-opacity:1;color-rendering:auto;image-rendering:auto;shape-rendering:auto;text-rendering:auto;enable-background:accumulate"
     id="path4162-1-7-8-6-5-1-9-4-0-5"
     cx="60.000031"
     cy="59.999992"
     r="40" />
  <path
     d="m 52.892486,76.537491 -15.785,0 q -0.875,0 -1.4,-0.105 -0.525,-0.105 -0.84,-0.42 -0.28,-0.28 -0.385,-0.77 -0.105,-0.49 -0.105,-1.26 l 0,-7.455 q 0,-1.54 0.525,-2.065 0.525,-0.525 1.995,-0.525 l 15.82,0 q 0.875,0 1.4,0.14 0.525,0.105 0.805,0.42 0.315,0.28 0.42,0.805 0.105,0.49 0.105,1.26 l 0,7.455 q 0,0.77 -0.14,1.26 -0.105,0.49 -0.42,0.77 -0.28,0.28 -0.77,0.385 -0.49,0.105 -1.225,0.105 z m -20.685,-14.245 q -0.665,0.385 -0.91,0.385 -0.21,0 -0.49,-0.35 l -1.75,-2.17 q -0.385,-0.49 -0.28,-0.7 0.105,-0.245 0.525,-0.56 3.78,-2.555 5.53,-6.16 1.75,-3.64 1.75,-7.805 0,-0.595 0.14,-0.7 0.175,-0.14 0.665,-0.105 l 3.29,0.14 q 0.385,0.035 0.525,0.175 0.175,0.105 0.175,0.49 0,1.435 -0.14,2.765 -0.14,1.33 -0.42,2.555 0.455,1.19 1.26,2.345 0.84,1.12 1.785,2.1 0.945,0.945 1.96,1.715 1.015,0.77 1.855,1.26 0.49,0.28 0.49,0.56 0,0.14 -0.14,0.35 -0.105,0.175 -0.175,0.315 l -1.365,2.205 q -0.28,0.42 -0.49,0.455 -0.21,0 -0.7,-0.245 -0.735,-0.35 -1.61,-0.945 -0.84,-0.63 -1.715,-1.4 -0.84,-0.77 -1.645,-1.68 -0.805,-0.91 -1.435,-1.925 -2.31,4.13 -6.685,6.93 z m 27.51,-7 -4.34,0 0,6.09 q 0,0.385 -0.14,0.525 -0.105,0.14 -0.49,0.14 l -3.535,0 q -0.7,0 -0.7,-0.7 l 0,-17.185 q 0,-0.665 0.7,-0.665 l 3.535,0 q 0.63,0 0.63,0.665 l 0,7.14 4.34,0 q 0.315,0 0.49,0.105 0.21,0.07 0.21,0.525 l 0,2.66 q 0,0.42 -0.21,0.56 -0.175,0.14 -0.49,0.14 z m -9.135,13.02 q 0,-0.42 -0.385,-0.42 l -10.57,0 q -0.42,0 -0.42,0.455 l 0,3.815 q 0,0.42 0.42,0.42 l 10.535,0 q 0.245,0 0.315,-0.07 0.105,-0.035 0.105,-0.385 l 0,-3.815 z"
     style="font-style:normal;font-variant:normal;font-weight:bold;font-stretch:normal;font-size:35px;line-height:125%;font-family:NanumGothic;-inkscape-font-specification:'NanumGothic Bold';letter-spacing:0px;word-spacing:0px;fill:#000000;fill-opacity:1;stroke:none;stroke-width:1px;stroke-linecap:butt;stroke-linejoin:miter;stroke-opacity:1"
     id="path4152"
     inkscape:connector-curvature="0" />
  <path
     d="m 79.158345,77.342491 q -2.275,0 -4.2,-0.525 -1.925,-0.525 -3.36,-1.47 -1.4,-0.91 -2.205,-2.17 -0.805,-1.26 -0.805,-2.765 0,-1.435 0.805,-2.66 0.805,-1.26 2.205,-2.17 1.435,-0.945 3.36,-1.47 1.925,-0.525 4.2,-0.525 2.17,0 4.095,0.525 1.96,0.49 3.43,1.435 1.47,0.91 2.345,2.17 0.875,1.225 0.875,2.695 0,1.505 -0.875,2.765 -0.875,1.26 -2.345,2.17 -1.47,0.945 -3.43,1.47 -1.925,0.525 -4.095,0.525 z m -13.37,-14.525 q -0.665,0.385 -0.91,0.42 -0.21,0 -0.49,-0.385 l -1.715,-2.17 q -0.42,-0.56 -0.315,-0.735 0.14,-0.21 0.56,-0.525 1.89,-1.26 3.255,-2.905 1.365,-1.645 2.24,-3.5 0.91,-1.89 1.33,-3.92 0.42,-2.065 0.42,-4.13 0,-0.595 0.14,-0.7 0.175,-0.14 0.665,-0.105 l 3.325,0.14 q 0.385,0.035 0.525,0.175 0.14,0.105 0.14,0.49 0,3.115 -0.7,5.985 0.525,1.155 1.33,2.24 0.84,1.085 1.785,1.995 0.945,0.91 1.925,1.645 1.015,0.735 1.855,1.19 0.49,0.315 0.455,0.56 0,0.245 -0.28,0.665 l -1.33,2.17 q -0.28,0.42 -0.49,0.455 -0.21,0.035 -0.7,-0.21 -0.735,-0.385 -1.61,-0.945 -0.84,-0.595 -1.715,-1.33 -0.875,-0.735 -1.68,-1.61 -0.805,-0.91 -1.47,-1.89 -1.155,2.1 -2.8,3.85 -1.61,1.75 -3.745,3.08 z m 13.545,-9.1 q -0.315,0 -0.49,-0.14 -0.175,-0.14 -0.175,-0.525 l 0,-2.59 q 0,-0.49 0.175,-0.56 0.21,-0.105 0.49,-0.105 l 5.495,0 0,-5.635 q 0,-0.455 0.21,-0.56 0.21,-0.105 0.525,-0.105 l 3.465,0 q 0.455,0 0.525,0.21 0.105,0.175 0.105,0.455 l 0,17.885 q 0,0.665 -0.665,0.665 l -3.5,0 q -0.665,0 -0.665,-0.63 l 0,-8.365 -5.495,0 z m -0.175,13.685 q -2.625,0 -4.13,0.945 -1.47,0.945 -1.47,2.17 0,1.19 1.47,2.065 1.505,0.91 4.13,0.91 1.225,0 2.275,-0.245 1.05,-0.245 1.82,-0.665 0.77,-0.385 1.19,-0.945 0.455,-0.525 0.455,-1.12 0,-0.595 -0.455,-1.155 -0.42,-0.56 -1.19,-0.98 -0.77,-0.455 -1.82,-0.7 -1.05,-0.28 -2.275,-0.28 z"
     style="font-style:normal;font-variant:normal;font-weight:bold;font-stretch:normal;font-size:35px;line-height:125%;font-family:NanumGothic;-inkscape-font-specification:'NanumGothic Bold';letter-spacing:0px;word-spacing:0px;fill:#000000;fill-opacity:1;stroke:none;stroke-width:1px;stroke-linecap:butt;stroke-linejoin:miter;stroke-opacity:1"
     id="path4154"
     inkscape:connector-curvature="0" />
</svg>
