<?xml version="1.0" encoding="UTF-8" standalone="no"?>
<svg
   xmlns:dc="http://purl.org/dc/elements/1.1/"
   xmlns:cc="http://creativecommons.org/ns#"
   xmlns:rdf="http://www.w3.org/1999/02/22-rdf-syntax-ns#"
   xmlns:svg="http://www.w3.org/2000/svg"
   xmlns="http://www.w3.org/2000/svg"
   xmlns:sodipodi="http://sodipodi.sourceforge.net/DTD/sodipodi-0.dtd"
   xmlns:inkscape="http://www.inkscape.org/namespaces/inkscape"
   width="120"
   height="120"
   viewBox="0 0 120 120"
   id="svg11487"
   version="1.1"
   inkscape:version="0.91 r13725"
   sodipodi:docname="line1_seoul_.svg">
  <sodipodi:namedview
     pagecolor="#ffffff"
     bordercolor="#666666"
     borderopacity="1"
     objecttolerance="10"
     gridtolerance="10"
     guidetolerance="10"
     inkscape:pageopacity="0"
     inkscape:pageshadow="2"
     inkscape:window-width="974"
     inkscape:window-height="612"
     id="namedview11"
     showgrid="false"
     inkscape:zoom="1.9666667"
     inkscape:cx="60"
     inkscape:cy="60"
     inkscape:window-x="251"
     inkscape:window-y="120"
     inkscape:window-maximized="0"
     inkscape:current-layer="svg11487" />
  <defs
     id="defs11489" />
  <metadata
     id="metadata11492">
    <rdf:RDF>
      <cc:Work
         rdf:about="">
        <dc:format>image/svg+xml</dc:format>
        <dc:type
           rdf:resource="http://purl.org/dc/dcmitype/StillImage" />
        <dc:title></dc:title>
      </cc:Work>
    </rdf:RDF>
  </metadata>
  <g
     id="g4173">
    <circle
       style="color:#000000;clip-rule:nonzero;display:inline;overflow:visible;visibility:visible;opacity:1;isolation:auto;mix-blend-mode:normal;color-interpolation:sRGB;color-interpolation-filters:linearRGB;solid-color:#000000;solid-opacity:1;fill:#253a7f;fill-opacity:1;fill-rule:nonzero;stroke:none;stroke-width:0;stroke-linecap:butt;stroke-linejoin:miter;stroke-miterlimit:4;stroke-dasharray:none;stroke-dashoffset:0;stroke-opacity:1;color-rendering:auto;image-rendering:auto;shape-rendering:auto;text-rendering:auto;enable-background:accumulate"
       id="path4162-1-7-8-6-5-1-5-6-3"
       cx="60"
       cy="60.000004"
       r="50" />
    <rect
       ry="5.9030401e-05"
       y="3.3242798e-06"
       x="-9.5367432e-07"
       height="120"
       width="120"
       id="rect9899-1-2-6-8-0-9-9-3"
       style="color:#000000;clip-rule:nonzero;display:inline;overflow:visible;visibility:visible;opacity:1;isolation:auto;mix-blend-mode:normal;color-interpolation:sRGB;color-interpolation-filters:linearRGB;solid-color:#000000;solid-opacity:1;fill:#e85c41;fill-opacity:0;fill-rule:nonzero;stroke:none;stroke-width:0;stroke-linecap:butt;stroke-linejoin:miter;stroke-miterlimit:4;stroke-dasharray:none;stroke-dashoffset:0;stroke-opacity:1;color-rendering:auto;image-rendering:auto;shape-rendering:auto;text-rendering:auto;enable-background:accumulate" />
    <circle
       style="color:#000000;clip-rule:nonzero;display:inline;overflow:visible;visibility:visible;opacity:1;isolation:auto;mix-blend-mode:normal;color-interpolation:sRGB;color-interpolation-filters:linearRGB;solid-color:#000000;solid-opacity:1;fill:#ffffff;fill-opacity:1;fill-rule:nonzero;stroke:none;stroke-width:0;stroke-linecap:butt;stroke-linejoin:miter;stroke-miterlimit:4;stroke-dasharray:none;stroke-dashoffset:0;stroke-opacity:1;color-rendering:auto;image-rendering:auto;shape-rendering:auto;text-rendering:auto;enable-background:accumulate"
       id="path4162-1-7-8-6-5-1-9-4-0-7"
       cx="60"
       cy="60.000004"
       r="40" />
    <g
       transform="translate(35.964612,-73.189277)"
       id="g4169">
      <path
         inkscape:connector-curvature="0"
         id="path4163"
         style="font-style:normal;font-variant:normal;font-weight:bold;font-stretch:normal;font-size:35px;line-height:125%;font-family:sans-serif;-inkscape-font-specification:'sans-serif Bold';letter-spacing:0px;word-spacing:0px;fill:#000000;fill-opacity:1;stroke:none;stroke-width:1px;stroke-linecap:butt;stroke-linejoin:miter;stroke-opacity:1"
         d="m 19.757458,150.11178 -3.57,0 q -0.385,0 -0.525,-0.14 -0.14,-0.105 -0.14,-0.525 l 0,-18.095 -6.3700001,0 q -0.315,0 -0.49,-0.105 -0.175,-0.14 -0.175,-0.525 l 0,-2.695 q 0,-0.385 0.175,-0.525 0.175,-0.14 0.49,-0.14 l 6.3700001,0 0,-10.15 q 0,-0.385 0.14,-0.525 0.14,-0.14 0.525,-0.14 l 3.57,0 q 0.385,0 0.49,0.14 0.14,0.14 0.14,0.525 l 0,32.235 q 0,0.42 -0.14,0.525 -0.105,0.14 -0.49,0.14 z m -10.2900001,-8.12 q -0.455,0.56 -1.26,-0.07 -0.665,-0.455 -1.47,-1.295 -0.805,-0.84 -1.645,-1.89 -0.84,-1.05 -1.645,-2.205 -0.77,-1.19 -1.33,-2.345 -1.22500001,2.52 -2.94000001,4.725 -1.71499999,2.205 -3.42999999,3.605 -0.49,0.385 -0.735,0.42 -0.245,0.035 -0.595,-0.315 l -1.925,-1.995 q -0.28,-0.28 -0.28,-0.525 0,-0.28 0.455,-0.7 1.995,-1.925 3.64,-4.48 1.68,-2.59 2.59,-5.355 0.73499999,-2.24 1.08499999,-4.865 0.35,-2.625 0.35,-5.705 0,-0.385 0.105,-0.56 0.14,-0.21 0.63000001,-0.21 l 3.36,0.105 q 0.49,0.035 0.595,0.245 0.105,0.175 0.105,0.595 0,2.59 -0.245,4.83 -0.21,2.205 -0.7,4.305 0.455,1.435 1.26,2.975 0.84,1.505 1.785,2.905 0.98,1.365 1.96,2.52 0.9800001,1.12 1.8200001,1.82 0.49,0.385 0.455,0.7 0,0.28 -0.315,0.665 l -1.6800001,2.1 z" />
      <path
         inkscape:connector-curvature="0"
         id="path4165"
         style="font-style:normal;font-variant:normal;font-weight:bold;font-stretch:normal;font-size:35px;line-height:125%;font-family:sans-serif;-inkscape-font-specification:'sans-serif Bold';letter-spacing:0px;word-spacing:0px;fill:#000000;fill-opacity:1;stroke:none;stroke-width:1px;stroke-linecap:butt;stroke-linejoin:miter;stroke-opacity:1"
         d="m 51.168317,149.97178 -19.565,0 q -0.77,0 -1.26,-0.105 -0.455,-0.105 -0.7,-0.385 -0.245,-0.245 -0.35,-0.7 -0.07,-0.42 -0.07,-1.05 l 0,-4.62 q 0,-0.665 0.07,-1.085 0.105,-0.42 0.35,-0.665 0.245,-0.245 0.7,-0.35 0.455,-0.105 1.225,-0.105 l 14.315,0 q 0.315,0 0.315,-0.385 l 0,-0.875 q 0,-0.42 -0.35,-0.42 l -15.995,0 q -0.385,0 -0.56,-0.14 -0.14,-0.14 -0.14,-0.56 l 0,-2.345 q 0,-0.665 0.7,-0.665 l 7.84,0 0,-1.925 -12.6,0 q -0.42,0 -0.56,-0.14 -0.14,-0.175 -0.14,-0.56 l 0,-2.38 q 0,-0.42 0.105,-0.595 0.105,-0.175 0.595,-0.175 l 30.03,0 q 0.735,0 0.735,0.77 l 0,2.38 q 0,0.42 -0.21,0.56 -0.21,0.14 -0.525,0.14 l -12.565,0 0,1.925 5.985,0 q 0.77,0 1.26,0.105 0.49,0.105 0.735,0.385 0.245,0.245 0.315,0.665 0.105,0.42 0.105,1.05 l 0,4.48 q 0,0.7 -0.105,1.155 -0.07,0.42 -0.315,0.665 -0.245,0.245 -0.735,0.35 -0.49,0.07 -1.26,0.07 l -14.175,0 q -0.35,0 -0.35,0.35 l 0,1.085 q 0,0.385 0.385,0.385 l 16.73,0 q 0.385,0 0.56,0.105 0.175,0.105 0.175,0.56 l 0,2.345 q 0,0.7 -0.7,0.7 z m -11.06,-21.63 q -2.695,0 -4.76,-0.455 -2.065,-0.455 -3.5,-1.26 -1.4,-0.84 -2.135,-1.925 -0.735,-1.12 -0.735,-2.415 0,-1.295 0.735,-2.38 0.735,-1.12 2.135,-1.925 1.435,-0.805 3.5,-1.26 2.065,-0.455 4.76,-0.455 2.59,0 4.655,0.455 2.065,0.455 3.5,1.26 1.435,0.805 2.205,1.925 0.77,1.085 0.77,2.38 0,1.295 -0.77,2.415 -0.77,1.085 -2.205,1.925 -1.435,0.805 -3.5,1.26 -2.065,0.455 -4.655,0.455 z m 0,-8.4 q -1.575,0 -2.765,0.21 -1.155,0.21 -1.96,0.56 -0.77,0.35 -1.155,0.77 -0.385,0.385 -0.385,0.805 0,0.84 1.54,1.61 1.575,0.735 4.725,0.735 3.15,0 4.69,-0.735 1.575,-0.77 1.575,-1.61 0,-0.42 -0.385,-0.805 -0.385,-0.42 -1.19,-0.77 -0.77,-0.35 -1.96,-0.56 -1.155,-0.21 -2.73,-0.21 z" />
    </g>
  </g>
</svg>
