<?xml version="1.0" encoding="UTF-8" standalone="no"?>
<svg
   xmlns:dc="http://purl.org/dc/elements/1.1/"
   xmlns:cc="http://creativecommons.org/ns#"
   xmlns:rdf="http://www.w3.org/1999/02/22-rdf-syntax-ns#"
   xmlns:svg="http://www.w3.org/2000/svg"
   xmlns="http://www.w3.org/2000/svg"
   xmlns:sodipodi="http://sodipodi.sourceforge.net/DTD/sodipodi-0.dtd"
   xmlns:inkscape="http://www.inkscape.org/namespaces/inkscape"
   width="120"
   height="120"
   viewBox="0 0 120 120"
   id="svg6711"
   version="1.1"
   inkscape:version="0.91 r13725"
   sodipodi:docname="line8_seokchon.svg">
  <sodipodi:namedview
     pagecolor="#ffffff"
     bordercolor="#666666"
     borderopacity="1"
     objecttolerance="10"
     gridtolerance="10"
     guidetolerance="10"
     inkscape:pageopacity="0"
     inkscape:pageshadow="2"
     inkscape:window-width="1003"
     inkscape:window-height="667"
     id="namedview12"
     showgrid="false"
     inkscape:zoom="1.9666667"
     inkscape:cx="60"
     inkscape:cy="60"
     inkscape:window-x="768"
     inkscape:window-y="409"
     inkscape:window-maximized="0"
     inkscape:current-layer="svg6711" />
  <defs
     id="defs6713" />
  <metadata
     id="metadata6716">
    <rdf:RDF>
      <cc:Work
         rdf:about="">
        <dc:format>image/svg+xml</dc:format>
        <dc:type
           rdf:resource="http://purl.org/dc/dcmitype/StillImage" />
        <dc:title />
      </cc:Work>
    </rdf:RDF>
  </metadata>
  <circle
     r="50"
     cy="60.000004"
     cx="60.000031"
     id="path4162-1-7-8-6-5-1-5-6-32-5-1-9-9-3"
     style="color:#000000;clip-rule:nonzero;display:inline;overflow:visible;visibility:visible;opacity:1;isolation:auto;mix-blend-mode:normal;color-interpolation:sRGB;color-interpolation-filters:linearRGB;solid-color:#000000;solid-opacity:1;fill:#de556e;fill-opacity:1;fill-rule:nonzero;stroke:none;stroke-width:0;stroke-linecap:butt;stroke-linejoin:miter;stroke-miterlimit:4;stroke-dasharray:none;stroke-dashoffset:0;stroke-opacity:1;color-rendering:auto;image-rendering:auto;shape-rendering:auto;text-rendering:auto;enable-background:accumulate" />
  <rect
     style="color:#000000;clip-rule:nonzero;display:inline;overflow:visible;visibility:visible;opacity:1;isolation:auto;mix-blend-mode:normal;color-interpolation:sRGB;color-interpolation-filters:linearRGB;solid-color:#000000;solid-opacity:1;fill:#e85c41;fill-opacity:0;fill-rule:nonzero;stroke:none;stroke-width:0;stroke-linecap:butt;stroke-linejoin:miter;stroke-miterlimit:4;stroke-dasharray:none;stroke-dashoffset:0;stroke-opacity:1;color-rendering:auto;image-rendering:auto;shape-rendering:auto;text-rendering:auto;enable-background:accumulate"
     id="rect9899-1-2-6-8-0-9-9-9-9-9-9-0-2"
     width="120"
     height="120"
     x="-9.5367432e-07"
     y="3.3242798e-06"
     ry="5.9030401e-05" />
  <circle
     r="40"
     cy="60.000004"
     cx="60.000031"
     id="path4162-1-7-8-6-5-1-9-4-0-5-4-0-6-6-5"
     style="color:#000000;clip-rule:nonzero;display:inline;overflow:visible;visibility:visible;opacity:1;isolation:auto;mix-blend-mode:normal;color-interpolation:sRGB;color-interpolation-filters:linearRGB;solid-color:#000000;solid-opacity:1;fill:#ffffff;fill-opacity:1;fill-rule:nonzero;stroke:none;stroke-width:0;stroke-linecap:butt;stroke-linejoin:miter;stroke-miterlimit:4;stroke-dasharray:none;stroke-dashoffset:0;stroke-opacity:1;color-rendering:auto;image-rendering:auto;shape-rendering:auto;text-rendering:auto;enable-background:accumulate" />
  <g
     id="text4462-4-0-7-3-2-5-4-9-0-0-2-1-8-3"
     style="font-style:normal;font-weight:normal;font-size:28.85059738px;line-height:125%;font-family:sans-serif;letter-spacing:0px;word-spacing:0px;display:inline;fill:#e85c41;fill-opacity:1;stroke:none;stroke-width:1px;stroke-linecap:butt;stroke-linejoin:miter;stroke-opacity:1">
    <path
       inkscape:connector-curvature="0"
       id="path4152"
       style="font-style:normal;font-variant:normal;font-weight:bold;font-stretch:normal;font-size:35px;font-family:NanumGothic;-inkscape-font-specification:'NanumGothic Bold';fill:#000000;fill-opacity:1"
       d="m 32.907486,62.817498 q -0.665,0.385 -0.91,0.42 -0.21,0 -0.49,-0.385 l -1.715,-2.17 q -0.385,-0.49 -0.28,-0.7 0.105,-0.245 0.525,-0.56 1.89,-1.26 3.255,-2.87 1.365,-1.645 2.24,-3.5 0.91,-1.855 1.33,-3.85 0.42,-2.03 0.42,-4.095 0,-0.595 0.14,-0.7 0.175,-0.14 0.665,-0.105 l 3.325,0.14 q 0.385,0.035 0.525,0.175 0.14,0.105 0.14,0.49 0,3.255 -0.735,6.09 0.525,1.155 1.33,2.24 0.84,1.085 1.785,2.03 0.98,0.91 1.96,1.645 1.015,0.735 1.855,1.225 0.49,0.315 0.455,0.56 0,0.245 -0.28,0.665 l -1.33,2.17 q -0.28,0.42 -0.49,0.455 -0.21,0.035 -0.7,-0.21 -0.735,-0.385 -1.61,-0.98 -0.875,-0.595 -1.75,-1.33 -0.875,-0.77 -1.715,-1.68 -0.805,-0.91 -1.47,-1.925 -2.275,4.13 -6.475,6.755 z m 23.205,14.175 -3.465,0 q -0.735,0 -0.735,-0.7 l 0,-7.28 q 0,-0.525 -0.525,-0.525 l -15.575,0 q -0.28,0 -0.49,-0.105 -0.175,-0.105 -0.175,-0.49 l 0,-2.73 q 0,-0.49 0.175,-0.56 0.21,-0.105 0.49,-0.105 l 18.48,0 q 0.77,0 1.26,0.14 0.49,0.105 0.735,0.42 0.28,0.315 0.385,0.84 0.105,0.49 0.105,1.225 l 0,9.17 q 0,0.7 -0.665,0.7 z m -9.66,-22.96 q -0.665,0 -0.665,-0.7 l 0,-2.59 q 0,-0.49 0.175,-0.56 0.21,-0.105 0.49,-0.105 l 5.495,0 0,-5.915 q 0,-0.455 0.175,-0.56 0.21,-0.105 0.525,-0.105 l 3.535,0 q 0.455,0 0.525,0.21 0.07,0.175 0.07,0.455 l 0,17.78 q 0,0.385 -0.14,0.525 -0.14,0.14 -0.525,0.14 l -3.5,0 q -0.385,0 -0.525,-0.105 -0.14,-0.14 -0.14,-0.525 l 0,-7.945 -5.495,0 z" />
    <path
       inkscape:connector-curvature="0"
       id="path4154"
       style="font-style:normal;font-variant:normal;font-weight:bold;font-stretch:normal;font-size:35px;font-family:NanumGothic;-inkscape-font-specification:'NanumGothic Bold';fill:#000000;fill-opacity:1"
       d="m 83.008345,54.277498 q -0.175,0.105 -0.35,0.21 -0.175,0.105 -0.35,0.21 1.715,0.385 3.64,0.77 1.925,0.35 3.605,0.595 0.49,0.035 0.595,0.245 0.14,0.175 0,0.63 l -0.56,1.995 q -0.175,0.49 -0.385,0.595 -0.175,0.105 -0.595,0.035 -1.225,-0.175 -2.66,-0.42 -1.435,-0.28 -2.94,-0.595 -1.505,-0.35 -3.045,-0.735 -1.505,-0.385 -2.94,-0.805 -2.555,0.91 -5.46,1.68 -2.905,0.735 -5.635,1.12 -0.595,0.07 -0.77,0 -0.175,-0.07 -0.315,-0.455 l -0.665,-2.24 q -0.105,-0.385 -0.035,-0.595 0.105,-0.21 0.595,-0.28 2.345,-0.42 4.165,-0.84 1.82,-0.42 3.29,-0.875 1.47,-0.455 2.66,-0.945 1.225,-0.49 2.38,-0.98 0.35,-0.175 0.35,-0.315 0.035,-0.175 -0.35,-0.175 l -9.94,0 q -0.385,0 -0.525,-0.105 -0.14,-0.14 -0.14,-0.56 l 0,-2.275 q 0,-0.385 0.14,-0.49 0.14,-0.14 0.525,-0.14 l 15.785,0 q 1.68,0 2.415,0.525 0.735,0.525 0.735,1.26 0,1.05 -0.735,1.96 -0.7,0.875 -2.485,1.995 z m 9.03,11.69 -30.03,0 q -0.49,0 -0.595,-0.175 -0.105,-0.175 -0.105,-0.56 l 0,-2.45 q 0,-0.385 0.14,-0.525 0.14,-0.175 0.56,-0.175 l 12.635,0 0,-2.765 q 0,-0.385 0.105,-0.49 0.14,-0.105 0.595,-0.105 l 3.43,0 q 0.455,0 0.56,0.105 0.14,0.105 0.14,0.49 l 0,2.765 12.565,0 q 0.315,0 0.525,0.175 0.21,0.14 0.21,0.525 l 0,2.45 q 0,0.735 -0.735,0.735 z m -3.78,10.675 -19.67,0 q -0.735,0 -1.225,-0.14 -0.455,-0.105 -0.735,-0.385 -0.245,-0.28 -0.35,-0.77 -0.105,-0.49 -0.105,-1.225 l 0,-5.845 q 0,-0.7 0.7,-0.7 l 3.43,0 q 0.735,0 0.735,0.7 l 0,3.92 q 0,0.525 0.525,0.525 l 16.695,0 q 0.28,0 0.49,0.105 0.245,0.14 0.245,0.525 l 0,2.66 q 0,0.49 -0.245,0.56 -0.21,0.07 -0.49,0.07 z m -7,-29.4 -9.345,0 q -0.28,0 -0.525,-0.105 -0.21,-0.14 -0.21,-0.63 l 0,-2.275 q 0,-0.49 0.21,-0.595 0.245,-0.14 0.525,-0.14 l 9.345,0 q 0.805,0 0.805,0.77 l 0,2.205 q 0,0.77 -0.805,0.77 z" />
  </g>
</svg>
