<?xml version="1.0" encoding="UTF-8" standalone="no"?>
<svg
   xmlns:dc="http://purl.org/dc/elements/1.1/"
   xmlns:cc="http://creativecommons.org/ns#"
   xmlns:rdf="http://www.w3.org/1999/02/22-rdf-syntax-ns#"
   xmlns:svg="http://www.w3.org/2000/svg"
   xmlns="http://www.w3.org/2000/svg"
   xmlns:sodipodi="http://sodipodi.sourceforge.net/DTD/sodipodi-0.dtd"
   xmlns:inkscape="http://www.inkscape.org/namespaces/inkscape"
   width="120"
   height="120"
   viewBox="0 0 120 120"
   id="svg10876"
   version="1.1"
   inkscape:version="0.91 r13725"
   sodipodi:docname="line2_sincheon.svg">
  <sodipodi:namedview
     pagecolor="#ffffff"
     bordercolor="#666666"
     borderopacity="1"
     objecttolerance="10"
     gridtolerance="10"
     guidetolerance="10"
     inkscape:pageopacity="0"
     inkscape:pageshadow="2"
     inkscape:window-width="1149"
     inkscape:window-height="721"
     id="namedview11"
     showgrid="false"
     inkscape:zoom="1.9666667"
     inkscape:cx="60"
     inkscape:cy="60"
     inkscape:window-x="680"
     inkscape:window-y="388"
     inkscape:window-maximized="0"
     inkscape:current-layer="svg10876" />
  <defs
     id="defs10878" />
  <metadata
     id="metadata10881">
    <rdf:RDF>
      <cc:Work
         rdf:about="">
        <dc:format>image/svg+xml</dc:format>
        <dc:type
           rdf:resource="http://purl.org/dc/dcmitype/StillImage" />
        <dc:title />
      </cc:Work>
    </rdf:RDF>
  </metadata>
  <circle
     r="50"
     cy="60.000004"
     cx="60.000031"
     id="path4162-1-7-8-6-5-1-5"
     style="color:#000000;clip-rule:nonzero;display:inline;overflow:visible;visibility:visible;opacity:1;isolation:auto;mix-blend-mode:normal;color-interpolation:sRGB;color-interpolation-filters:linearRGB;solid-color:#000000;solid-opacity:1;fill:#00a353;fill-opacity:1;fill-rule:nonzero;stroke:none;stroke-width:0;stroke-linecap:butt;stroke-linejoin:miter;stroke-miterlimit:4;stroke-dasharray:none;stroke-dashoffset:0;stroke-opacity:1;color-rendering:auto;image-rendering:auto;shape-rendering:auto;text-rendering:auto;enable-background:accumulate" />
  <rect
     style="color:#000000;clip-rule:nonzero;display:inline;overflow:visible;visibility:visible;opacity:1;isolation:auto;mix-blend-mode:normal;color-interpolation:sRGB;color-interpolation-filters:linearRGB;solid-color:#000000;solid-opacity:1;fill:#e85c41;fill-opacity:0;fill-rule:nonzero;stroke:none;stroke-width:0;stroke-linecap:butt;stroke-linejoin:miter;stroke-miterlimit:4;stroke-dasharray:none;stroke-dashoffset:0;stroke-opacity:1;color-rendering:auto;image-rendering:auto;shape-rendering:auto;text-rendering:auto;enable-background:accumulate"
     id="rect9899-1-2-6-8-0-9"
     width="120"
     height="120"
     x="-9.5367432e-07"
     y="3.3242798e-06"
     ry="5.9030401e-05" />
  <circle
     r="40"
     cy="60.000004"
     cx="60.000031"
     id="path4162-1-7-8-6-5-1-9-4"
     style="color:#000000;clip-rule:nonzero;display:inline;overflow:visible;visibility:visible;opacity:1;isolation:auto;mix-blend-mode:normal;color-interpolation:sRGB;color-interpolation-filters:linearRGB;solid-color:#000000;solid-opacity:1;fill:#ffffff;fill-opacity:1;fill-rule:nonzero;stroke:none;stroke-width:0;stroke-linecap:butt;stroke-linejoin:miter;stroke-miterlimit:4;stroke-dasharray:none;stroke-dashoffset:0;stroke-opacity:1;color-rendering:auto;image-rendering:auto;shape-rendering:auto;text-rendering:auto;enable-background:accumulate" />
  <g
     id="text4462-4-0-7-3-2-5-4"
     style="font-style:normal;font-weight:normal;font-size:28.85059738px;line-height:125%;font-family:sans-serif;letter-spacing:0px;word-spacing:0px;display:inline;fill:#e85c41;fill-opacity:1;stroke:none;stroke-width:1px;stroke-linecap:butt;stroke-linejoin:miter;stroke-opacity:1">
    <path
       id="path4152"
       style="font-style:normal;font-variant:normal;font-weight:bold;font-stretch:normal;font-size:35px;font-family:NanumGothic;-inkscape-font-specification:'NanumGothic Bold';fill:#000000;fill-opacity:1"
       d="m 32.557486,63.762498 q -0.665,0.42 -0.91,0.42 -0.21,0 -0.49,-0.385 l -1.715,-2.24 q -0.385,-0.49 -0.315,-0.7 0.105,-0.21 0.56,-0.56 1.855,-1.365 3.255,-3.045 1.4,-1.715 2.345,-3.64 0.945,-1.925 1.4,-3.99 0.49,-2.065 0.49,-4.165 0,-0.595 0.14,-0.7 0.175,-0.14 0.665,-0.105 l 3.43,0.14 q 0.385,0.035 0.525,0.175 0.14,0.105 0.14,0.49 0,1.435 -0.175,2.8 -0.175,1.33 -0.455,2.66 0.42,1.26 1.225,2.485 0.805,1.225 1.75,2.31 0.98,1.05 1.995,1.925 1.05,0.84 1.96,1.4 0.28,0.175 0.35,0.315 0.105,0.14 0.105,0.245 0,0.14 -0.105,0.28 -0.07,0.07 -0.14,0.175 -0.035,0.105 -0.105,0.21 l -1.4,2.205 q -0.245,0.385 -0.49,0.42 -0.21,0 -0.7,-0.245 -0.77,-0.385 -1.645,-1.05 -0.875,-0.665 -1.75,-1.505 -0.84,-0.84 -1.645,-1.785 -0.805,-0.98 -1.435,-2.03 -1.225,2.275 -2.94,4.165 -1.715,1.89 -3.92,3.325 z m 24.22,12.74 -18.375,0 q -0.77,0 -1.26,-0.14 -0.455,-0.105 -0.735,-0.42 -0.28,-0.315 -0.385,-0.805 -0.105,-0.49 -0.105,-1.225 l 0,-7.91 q 0,-0.735 0.7,-0.735 l 3.465,0 q 0.7,0 0.7,0.735 l 0,5.95 q 0,0.525 0.56,0.525 l 15.435,0 q 0.28,0 0.49,0.105 0.21,0.14 0.21,0.525 l 0,2.765 q 0,0.49 -0.21,0.56 -0.21,0.07 -0.49,0.07 z m -0.98,-9.24 -3.535,0 q -0.385,0 -0.525,-0.14 -0.14,-0.175 -0.14,-0.56 l 0,-22.4 q 0,-0.665 0.665,-0.665 l 3.535,0 q 0.63,0 0.63,0.665 l 0,22.435 q 0,0.385 -0.14,0.525 -0.105,0.14 -0.49,0.14 z" />
    <path
       id="path4154"
       style="font-style:normal;font-variant:normal;font-weight:bold;font-stretch:normal;font-size:35px;font-family:NanumGothic;-inkscape-font-specification:'NanumGothic Bold';fill:#000000;fill-opacity:1"
       d="m 65.193345,65.477498 q -0.595,0.21 -0.84,0.175 -0.21,-0.07 -0.385,-0.385 l -1.225,-2.415 q -0.35,-0.665 0.385,-0.98 1.61,-0.735 3.185,-1.68 1.61,-0.98 2.975,-1.995 1.365,-1.05 2.45,-2.1 1.12,-1.05 1.75,-2.03 0.35,-0.49 0.28,-0.7 -0.035,-0.21 -0.49,-0.21 l -8.26,0 q -0.665,0 -0.665,-0.735 l 0,-2.345 q 0,-0.735 0.7,-0.735 l 12.075,0 q 2.135,0 2.625,1.015 0.49,1.015 -0.21,2.8 -0.455,1.12 -1.26,2.275 -0.77,1.155 -1.785,2.275 1.365,1.05 2.87,1.89 1.54,0.805 2.59,1.295 0.385,0.175 0.385,0.42 0.035,0.245 -0.14,0.56 l -1.295,2.45 q -0.175,0.28 -0.42,0.315 -0.21,0.035 -0.595,-0.14 -0.595,-0.245 -1.365,-0.63 -0.77,-0.385 -1.645,-0.91 -0.84,-0.525 -1.75,-1.12 -0.875,-0.63 -1.68,-1.295 -1.925,1.575 -4.06,2.87 -2.1,1.26 -4.2,2.065 z m 15.645,-7 q -0.35,0 -0.525,-0.14 -0.175,-0.14 -0.175,-0.525 l 0,-2.555 q 0,-0.455 0.175,-0.56 0.21,-0.105 0.525,-0.105 l 3.99,0 0,-10.43 q 0,-0.665 0.63,-0.665 l 3.535,0 q 0.665,0 0.665,0.665 l 0,23.135 q 0,0.385 -0.14,0.525 -0.14,0.14 -0.525,0.14 l -3.535,0 q -0.385,0 -0.525,-0.14 -0.105,-0.14 -0.105,-0.525 l 0,-8.82 -3.99,0 z m 9.345,18.025 -18.865,0 q -0.735,0 -1.225,-0.14 -0.455,-0.105 -0.735,-0.385 -0.245,-0.28 -0.35,-0.77 -0.105,-0.49 -0.105,-1.225 l 0,-7.105 q 0,-0.735 0.7,-0.735 l 3.465,0 q 0.7,0 0.7,0.735 l 0,5.11 q 0,0.525 0.56,0.525 l 15.855,0 q 0.28,0 0.49,0.105 0.21,0.14 0.21,0.525 l 0,2.73 q 0,0.49 -0.21,0.56 -0.21,0.07 -0.49,0.07 z m -13.825,-28.7 -8.47,0 q -0.28,0 -0.525,-0.14 -0.21,-0.14 -0.21,-0.595 l 0,-2.17 q 0,-0.455 0.21,-0.595 0.245,-0.14 0.525,-0.14 l 8.47,0 q 0.77,0 0.77,0.77 l 0,2.1 q 0,0.77 -0.77,0.77 z" />
  </g>
</svg>
