<?xml version="1.0" encoding="UTF-8" standalone="no"?>
<svg
   xmlns:dc="http://purl.org/dc/elements/1.1/"
   xmlns:cc="http://creativecommons.org/ns#"
   xmlns:rdf="http://www.w3.org/1999/02/22-rdf-syntax-ns#"
   xmlns:svg="http://www.w3.org/2000/svg"
   xmlns="http://www.w3.org/2000/svg"
   width="120"
   height="120"
   viewBox="0 0 120 120"
   id="svg10293"
   version="1.1">
  <defs
     id="defs10295" />
  <metadata
     id="metadata10298">
    <rdf:RDF>
      <cc:Work
         rdf:about="">
        <dc:format>image/svg+xml</dc:format>
        <dc:type
           rdf:resource="http://purl.org/dc/dcmitype/StillImage" />
        <dc:title></dc:title>
      </cc:Work>
    </rdf:RDF>
  </metadata>
  <g
     id="g4156">
    <circle
       style="color:#000000;clip-rule:nonzero;display:inline;overflow:visible;visibility:visible;opacity:1;isolation:auto;mix-blend-mode:normal;color-interpolation:sRGB;color-interpolation-filters:linearRGB;solid-color:#000000;solid-opacity:1;fill:#76b258;fill-opacity:1;fill-rule:nonzero;stroke:none;stroke-width:0;stroke-linecap:butt;stroke-linejoin:miter;stroke-miterlimit:4;stroke-dasharray:none;stroke-dashoffset:0;stroke-opacity:1;color-rendering:auto;image-rendering:auto;shape-rendering:auto;text-rendering:auto;enable-background:accumulate"
       id="path4162-1-7-8-6-5-1-5-6"
       cx="60.000031"
       cy="60.000004"
       r="50" />
    <rect
       ry="5.9030401e-05"
       y="3.3242798e-06"
       x="-9.5367432e-07"
       height="120"
       width="120"
       id="rect9899-1-2-6-8-0-9-9"
       style="color:#000000;clip-rule:nonzero;display:inline;overflow:visible;visibility:visible;opacity:1;isolation:auto;mix-blend-mode:normal;color-interpolation:sRGB;color-interpolation-filters:linearRGB;solid-color:#000000;solid-opacity:1;fill:#e85c41;fill-opacity:0;fill-rule:nonzero;stroke:none;stroke-width:0;stroke-linecap:butt;stroke-linejoin:miter;stroke-miterlimit:4;stroke-dasharray:none;stroke-dashoffset:0;stroke-opacity:1;color-rendering:auto;image-rendering:auto;shape-rendering:auto;text-rendering:auto;enable-background:accumulate" />
    <circle
       style="color:#000000;clip-rule:nonzero;display:inline;overflow:visible;visibility:visible;opacity:1;isolation:auto;mix-blend-mode:normal;color-interpolation:sRGB;color-interpolation-filters:linearRGB;solid-color:#000000;solid-opacity:1;fill:#ffffff;fill-opacity:1;fill-rule:nonzero;stroke:none;stroke-width:0;stroke-linecap:butt;stroke-linejoin:miter;stroke-miterlimit:4;stroke-dasharray:none;stroke-dashoffset:0;stroke-opacity:1;color-rendering:auto;image-rendering:auto;shape-rendering:auto;text-rendering:auto;enable-background:accumulate"
       id="path4162-1-7-8-6-5-1-9-4-0"
       cx="60.000031"
       cy="60.000004"
       r="40" />
    <g
       style="font-style:normal;font-weight:normal;font-size:28.85059738px;line-height:125%;font-family:sans-serif;letter-spacing:0px;word-spacing:0px;display:inline;fill:#e85c41;fill-opacity:1;stroke:none;stroke-width:1px;stroke-linecap:butt;stroke-linejoin:miter;stroke-opacity:1"
       id="text4462-4-0-7-3-2-5-4-9">
      <path
         d="m 32.732486,63.832498 q -0.665,0.42 -0.91,0.42 -0.21,0 -0.49,-0.385 l -1.75,-2.205 q -0.385,-0.49 -0.315,-0.7 0.105,-0.21 0.56,-0.56 1.855,-1.365 3.22,-3.08 1.4,-1.75 2.31,-3.71 0.945,-1.995 1.4,-4.095 0.455,-2.1 0.455,-4.165 0,-0.595 0.14,-0.7 0.175,-0.14 0.665,-0.105 l 3.43,0.14 q 0.385,0.035 0.525,0.175 0.14,0.105 0.14,0.49 0,3.325 -0.84,6.37 0.49,1.225 1.295,2.415 0.805,1.155 1.75,2.205 0.98,1.015 1.995,1.855 1.015,0.84 1.925,1.365 0.455,0.28 0.455,0.525 0,0.175 -0.14,0.35 -0.105,0.175 -0.175,0.315 l -1.365,2.17 q -0.28,0.42 -0.49,0.455 -0.21,0 -0.7,-0.245 -0.77,-0.385 -1.68,-1.015 -0.875,-0.63 -1.785,-1.435 -0.875,-0.84 -1.715,-1.785 -0.805,-0.98 -1.435,-2.03 -2.415,4.305 -6.475,6.965 z m 13.72,-9.135 q -0.665,0 -0.665,-0.7 l 0,-2.59 q 0,-0.49 0.175,-0.56 0.21,-0.105 0.49,-0.105 l 5.495,0 0,-6.58 q 0,-0.665 0.63,-0.665 l 3.535,0 q 0.665,0 0.665,0.665 l 0,22.33 q 0,0.385 -0.14,0.525 -0.14,0.14 -0.525,0.14 l -3.535,0 q -0.385,0 -0.525,-0.14 -0.105,-0.14 -0.105,-0.525 l 0,-11.795 -5.495,0 z m 10.85,21.805 -18.865,0 q -0.735,0 -1.225,-0.14 -0.455,-0.105 -0.735,-0.385 -0.245,-0.28 -0.35,-0.77 -0.105,-0.49 -0.105,-1.225 l 0,-7.805 q 0,-0.735 0.7,-0.735 l 3.465,0 q 0.7,0 0.7,0.735 l 0,5.81 q 0,0.525 0.56,0.525 l 15.855,0 q 0.28,0 0.49,0.105 0.21,0.14 0.21,0.525 l 0,2.73 q 0,0.49 -0.21,0.56 -0.21,0.07 -0.49,0.07 z"
         style="font-style:normal;font-variant:normal;font-weight:bold;font-stretch:normal;font-size:35px;font-family:NanumGothic;-inkscape-font-specification:'NanumGothic Bold';fill:#000000;fill-opacity:1"
         id="path4152" />
      <path
         d="m 87.943345,57.917498 -19.215,0 q -1.54,0 -2.065,-0.56 -0.49,-0.56 -0.49,-1.89 l 0,-4.13 q 0,-0.665 0.105,-1.085 0.105,-0.455 0.35,-0.7 0.28,-0.28 0.735,-0.385 0.49,-0.14 1.26,-0.14 l 14.245,0 q 0.315,0 0.315,-0.385 l 0,-0.7 q 0,-0.42 -0.35,-0.42 l -15.785,0 q -0.7,0 -0.7,-0.7 l 0,-2.38 q 0,-0.665 0.7,-0.665 l 18.375,0 q 0.77,0 1.26,0.105 0.525,0.105 0.77,0.385 0.28,0.245 0.385,0.7 0.105,0.42 0.105,1.12 l 0,4.165 q 0,0.7 -0.105,1.155 -0.105,0.455 -0.385,0.735 -0.245,0.245 -0.77,0.35 -0.49,0.105 -1.26,0.105 l -14.105,0 q -0.35,0 -0.35,0.35 l 0,0.84 q 0,0.385 0.385,0.385 l 16.555,0 q 0.385,0 0.56,0.105 0.175,0.105 0.175,0.56 l 0,2.38 q 0,0.7 -0.7,0.7 z m 4.095,5.705 -30.03,0 q -0.49,0 -0.595,-0.175 -0.105,-0.175 -0.105,-0.595 l 0,-2.38 q 0,-0.385 0.14,-0.525 0.14,-0.175 0.56,-0.175 l 30.03,0 q 0.315,0 0.525,0.14 0.21,0.14 0.21,0.56 l 0,2.38 q 0,0.77 -0.735,0.77 z m -15.015,13.79 q -2.695,0 -4.795,-0.49 -2.1,-0.455 -3.535,-1.26 -1.435,-0.805 -2.17,-1.925 -0.735,-1.12 -0.735,-2.38 0,-1.26 0.735,-2.345 0.735,-1.12 2.17,-1.925 1.435,-0.805 3.535,-1.26 2.1,-0.455 4.795,-0.455 2.695,0 4.795,0.455 2.1,0.455 3.535,1.26 1.435,0.805 2.17,1.925 0.735,1.085 0.735,2.345 0,1.26 -0.735,2.38 -0.735,1.12 -2.17,1.925 -1.435,0.805 -3.535,1.26 -2.1,0.49 -4.795,0.49 z m 0,-8.4 q -3.255,0 -4.865,0.7 -1.575,0.7 -1.575,1.68 0,0.91 1.575,1.645 1.61,0.735 4.865,0.735 3.255,0 4.83,-0.735 1.61,-0.735 1.61,-1.645 0,-0.98 -1.61,-1.68 -1.575,-0.7 -4.83,-0.7 z"
         style="font-style:normal;font-variant:normal;font-weight:bold;font-stretch:normal;font-size:35px;font-family:NanumGothic;-inkscape-font-specification:'NanumGothic Bold';fill:#000000;fill-opacity:1"
         id="path4154" />
    </g>
  </g>
</svg>
