<?xml version="1.0" encoding="UTF-8" standalone="no"?>
<svg
   xmlns:dc="http://purl.org/dc/elements/1.1/"
   xmlns:cc="http://creativecommons.org/ns#"
   xmlns:rdf="http://www.w3.org/1999/02/22-rdf-syntax-ns#"
   xmlns:svg="http://www.w3.org/2000/svg"
   xmlns="http://www.w3.org/2000/svg"
   version="1.1"
   id="svg4921"
   viewBox="0 0 119.99999 119.99999"
   height="33.866665mm"
   width="33.866665mm">
  <defs
     id="defs4923" />
  <metadata
     id="metadata4926">
    <rdf:RDF>
      <cc:Work
         rdf:about="">
        <dc:format>image/svg+xml</dc:format>
        <dc:type
           rdf:resource="http://purl.org/dc/dcmitype/StillImage" />
        <dc:title></dc:title>
      </cc:Work>
    </rdf:RDF>
  </metadata>
  <g
     transform="translate(3.4683228e-6,-932.36218)"
     id="layer1">
    <g
       id="g5485">
      <circle
         style="color:#000000;font-style:normal;font-weight:normal;font-size:medium;line-height:125%;font-family:sans-serif;letter-spacing:0px;word-spacing:0px;clip-rule:nonzero;display:inline;overflow:visible;visibility:visible;opacity:1;isolation:auto;mix-blend-mode:normal;color-interpolation:sRGB;color-interpolation-filters:linearRGB;solid-color:#000000;solid-opacity:1;fill:#c9c9c9;fill-opacity:1;fill-rule:nonzero;stroke:none;stroke-width:0;stroke-linecap:butt;stroke-linejoin:miter;stroke-miterlimit:4;stroke-dasharray:none;stroke-dashoffset:0;stroke-opacity:1;color-rendering:auto;image-rendering:auto;shape-rendering:auto;text-rendering:auto;enable-background:accumulate"
         id="path4162-1-7-8-6-5-1-5-6-3-3-1"
         cx="59.999996"
         cy="992.36218"
         r="50" />
      <rect
         ry="5.9030401e-05"
         y="932.36218"
         x="-3.4683228e-06"
         height="120"
         width="120"
         id="rect9899-1-2-6-8-0-9-9-3-2-5"
         style="color:#000000;font-style:normal;font-weight:normal;font-size:medium;line-height:125%;font-family:sans-serif;letter-spacing:0px;word-spacing:0px;clip-rule:nonzero;display:inline;overflow:visible;visibility:visible;opacity:1;isolation:auto;mix-blend-mode:normal;color-interpolation:sRGB;color-interpolation-filters:linearRGB;solid-color:#000000;solid-opacity:1;fill:#e85c41;fill-opacity:0;fill-rule:nonzero;stroke:none;stroke-width:0;stroke-linecap:butt;stroke-linejoin:miter;stroke-miterlimit:4;stroke-dasharray:none;stroke-dashoffset:0;stroke-opacity:1;color-rendering:auto;image-rendering:auto;shape-rendering:auto;text-rendering:auto;enable-background:accumulate" />
      <path
         id="path4895"
         style="font-style:normal;font-variant:normal;font-weight:bold;font-stretch:normal;font-size:30px;line-height:125%;font-family:sans-serif;-inkscape-font-specification:'sans-serif Bold';letter-spacing:0px;word-spacing:0px;fill:#e85c41;fill-opacity:1;stroke:none;stroke-width:1px;stroke-linecap:butt;stroke-linejoin:miter;stroke-opacity:1"
         d="m 58.793199,982.9272 -25.77,0 q -0.39,0 -0.51,-0.18 -0.09,-0.18 -0.09,-0.45 l 0,-2.16 q 0,-0.33 0.09,-0.48 0.12,-0.15 0.51,-0.15 l 10.8,0 0,-5.25 -5.46,0 q -0.69,0 -1.11,-0.06 -0.42,-0.09 -0.66,-0.3 -0.24,-0.24 -0.33,-0.66 -0.09,-0.42 -0.09,-1.08 l 0,-9.45 q 0,-0.66 0.09,-1.05 0.12,-0.39 0.36,-0.6 0.27,-0.21 0.66,-0.27 0.39,-0.09 0.93,-0.09 l 15.21,0 q 0.63,0 1.02,0.06 0.39,0.06 0.6,0.27 0.24,0.21 0.33,0.63 0.09,0.39 0.09,1.05 l 0,9.45 q 0,0.66 -0.09,1.08 -0.09,0.39 -0.33,0.63 -0.21,0.21 -0.6,0.3 -0.39,0.09 -1.02,0.09 l -5.43,0 0,5.25 10.8,0 q 0.63,0 0.63,0.63 l 0,2.16 q 0,0.63 -0.63,0.63 z m -7.44,-18.24 q 0,-0.39 -0.09,-0.48 -0.06,-0.12 -0.42,-0.12 l -9.96,0 q -0.39,0 -0.51,0.09 -0.09,0.09 -0.09,0.51 l 0,5.58 q 0,0.42 0.09,0.51 0.12,0.09 0.51,0.09 l 9.96,0 q 0.36,0 0.42,-0.12 0.09,-0.12 0.09,-0.48 l 0,-5.58 z" />
      <path
         id="path4897"
         style="font-style:normal;font-variant:normal;font-weight:bold;font-stretch:normal;font-size:30px;line-height:125%;font-family:sans-serif;-inkscape-font-specification:'sans-serif Bold';letter-spacing:0px;word-spacing:0px;fill:#e85c41;fill-opacity:1;stroke:none;stroke-width:1px;stroke-linecap:butt;stroke-linejoin:miter;stroke-opacity:1"
         d="m 83.046793,970.6872 -15.87,0 q -1.32,0 -1.89,-0.6 -0.54,-0.6 -0.54,-1.8 l 0,-6.3 q 0,-1.29 0.51,-1.68 0.54,-0.42 1.8,-0.42 l 15.84,0 q 0.57,0 0.57,0.57 l 0,2.22 q 0,0.33 -0.12,0.45 -0.12,0.12 -0.45,0.12 l -13.47,0 q -0.48,0 -0.48,0.48 l 0,3.15 q 0,0.48 0.48,0.48 l 13.62,0 q 0.66,0 0.66,0.51 l 0,2.22 q 0,0.6 -0.66,0.6 z m 3.9,5.76 -25.74,0 q -0.42,0 -0.51,-0.15 -0.09,-0.15 -0.09,-0.51 l 0,-2.16 q 0,-0.33 0.12,-0.45 0.12,-0.15 0.48,-0.15 l 25.74,0 q 0.27,0 0.45,0.12 0.18,0.12 0.18,0.48 l 0,2.16 q 0,0.66 -0.63,0.66 z m -3.24,10.74 -16.86,0 q -0.63,0 -1.05,-0.12 -0.39,-0.09 -0.63,-0.33 -0.21,-0.24 -0.3,-0.66 -0.09,-0.42 -0.09,-1.05 l 0,-6.12 q 0,-0.63 0.6,-0.63 l 2.94,0 q 0.63,0 0.63,0.63 l 0,4.41 q 0,0.45 0.45,0.45 l 14.31,0 q 0.24,0 0.42,0.09 0.21,0.12 0.21,0.45 l 0,2.34 q 0,0.42 -0.21,0.48 -0.18,0.06 -0.42,0.06 z" />
      <path
         id="path4899"
         style="font-style:normal;font-variant:normal;font-weight:bold;font-stretch:normal;font-size:30px;line-height:125%;font-family:sans-serif;-inkscape-font-specification:'sans-serif Bold';letter-spacing:0px;word-spacing:0px;fill:#e85c41;fill-opacity:1;stroke:none;stroke-width:1px;stroke-linecap:butt;stroke-linejoin:miter;stroke-opacity:1"
         d="m 58.793199,1020.4272 -25.77,0 q -0.39,0 -0.51,-0.18 -0.09,-0.18 -0.09,-0.45 l 0,-2.16 q 0,-0.33 0.09,-0.48 0.12,-0.15 0.51,-0.15 l 10.8,0 0,-5.55 -4.8,0 q -1.53,0 -2.13,-0.54 -0.6,-0.57 -0.6,-2.07 l 0,-10.14 q 0,-0.27 0.12,-0.42 0.12,-0.18 0.45,-0.18 l 2.97,0 q 0.63,0 0.63,0.6 l 0,8.64 q 0,0.42 0.18,0.57 0.18,0.12 0.54,0.12 l 14.37,0 q 0.24,0 0.42,0.09 0.21,0.09 0.21,0.42 l 0,2.34 q 0,0.42 -0.21,0.51 -0.18,0.06 -0.42,0.06 l -7.56,0 0,5.55 10.8,0 q 0.63,0 0.63,0.63 l 0,2.16 q 0,0.63 -0.63,0.63 z" />
      <path
         id="path4901"
         style="font-style:normal;font-variant:normal;font-weight:bold;font-stretch:normal;font-size:30px;line-height:125%;font-family:sans-serif;-inkscape-font-specification:'sans-serif Bold';letter-spacing:0px;word-spacing:0px;fill:#e85c41;fill-opacity:1;stroke:none;stroke-width:1px;stroke-linecap:butt;stroke-linejoin:miter;stroke-opacity:1"
         d="m 64.296793,1013.9772 q -0.57,0.36 -0.78,0.36 -0.18,0 -0.42,-0.33 l -1.5,-1.89 q -0.33,-0.42 -0.27,-0.6 0.09,-0.18 0.48,-0.48 1.59,-1.17 2.76,-2.64 1.2,-1.5 1.98,-3.18 0.81,-1.71 1.2,-3.51 0.39,-1.8 0.39,-3.57 0,-0.51 0.12,-0.6 0.15,-0.12 0.57,-0.09 l 2.94,0.12 q 0.33,0.03 0.45,0.15 0.12,0.09 0.12,0.42 0,2.85 -0.72,5.46 0.42,1.05 1.11,2.07 0.69,0.99 1.5,1.89 0.84,0.87 1.71,1.59 0.87,0.72 1.65,1.17 0.39,0.24 0.39,0.45 0,0.15 -0.12,0.3 -0.09,0.15 -0.15,0.27 l -1.17,1.86 q -0.24,0.36 -0.42,0.39 -0.18,0 -0.6,-0.21 -0.66,-0.33 -1.44,-0.87 -0.75,-0.54 -1.53,-1.23 -0.75,-0.72 -1.47,-1.53 -0.69,-0.84 -1.23,-1.74 -2.07,3.69 -5.55,5.97 z m 11.76,-7.83 q -0.57,0 -0.57,-0.6 l 0,-2.22 q 0,-0.42 0.15,-0.48 0.18,-0.09 0.42,-0.09 l 4.71,0 0,-5.64 q 0,-0.57 0.54,-0.57 l 3.03,0 q 0.57,0 0.57,0.57 l 0,19.14 q 0,0.33 -0.12,0.45 -0.12,0.12 -0.45,0.12 l -3.03,0 q -0.33,0 -0.45,-0.12 -0.09,-0.12 -0.09,-0.45 l 0,-10.11 -4.71,0 z m 9.3,18.69 -16.17,0 q -0.63,0 -1.05,-0.12 -0.39,-0.09 -0.63,-0.33 -0.21,-0.24 -0.3,-0.66 -0.09,-0.42 -0.09,-1.05 l 0,-6.69 q 0,-0.63 0.6,-0.63 l 2.97,0 q 0.6,0 0.6,0.63 l 0,4.98 q 0,0.45 0.48,0.45 l 13.59,0 q 0.24,0 0.42,0.09 0.18,0.12 0.18,0.45 l 0,2.34 q 0,0.42 -0.18,0.48 -0.18,0.06 -0.42,0.06 z" />
    </g>
  </g>
</svg>
