<?xml version="1.0" encoding="UTF-8" standalone="no"?>
<svg
   xmlns:dc="http://purl.org/dc/elements/1.1/"
   xmlns:cc="http://creativecommons.org/ns#"
   xmlns:rdf="http://www.w3.org/1999/02/22-rdf-syntax-ns#"
   xmlns:svg="http://www.w3.org/2000/svg"
   xmlns="http://www.w3.org/2000/svg"
   version="1.1"
   id="svg8895"
   viewBox="0 0 119.99999 119.99999"
   height="33.866665mm"
   width="33.866665mm">
  <defs
     id="defs8897" />
  <metadata
     id="metadata8900">
    <rdf:RDF>
      <cc:Work
         rdf:about="">
        <dc:format>image/svg+xml</dc:format>
        <dc:type
           rdf:resource="http://purl.org/dc/dcmitype/StillImage" />
        <dc:title></dc:title>
      </cc:Work>
    </rdf:RDF>
  </metadata>
  <g
     transform="translate(9.5367432e-7,-932.36218)"
     id="layer1">
    <g
       id="g9461">
      <circle
         r="50"
         cy="992.36218"
         cx="60"
         id="path4162-1-7-8-6-5-1-5-6-3"
         style="color:#000000;font-style:normal;font-weight:normal;font-size:40px;line-height:125%;font-family:sans-serif;letter-spacing:0px;word-spacing:0px;clip-rule:nonzero;display:inline;overflow:visible;visibility:visible;opacity:1;isolation:auto;mix-blend-mode:normal;color-interpolation:sRGB;color-interpolation-filters:linearRGB;solid-color:#000000;solid-opacity:1;fill:#de556e;fill-opacity:1;fill-rule:nonzero;stroke:none;stroke-width:0;stroke-linecap:butt;stroke-linejoin:miter;stroke-miterlimit:4;stroke-dasharray:none;stroke-dashoffset:0;stroke-opacity:1;color-rendering:auto;image-rendering:auto;shape-rendering:auto;text-rendering:auto;enable-background:accumulate" />
      <rect
         style="color:#000000;font-style:normal;font-weight:normal;font-size:40px;line-height:125%;font-family:sans-serif;letter-spacing:0px;word-spacing:0px;clip-rule:nonzero;display:inline;overflow:visible;visibility:visible;opacity:1;isolation:auto;mix-blend-mode:normal;color-interpolation:sRGB;color-interpolation-filters:linearRGB;solid-color:#000000;solid-opacity:1;fill:#e85c41;fill-opacity:0;fill-rule:nonzero;stroke:none;stroke-width:0;stroke-linecap:butt;stroke-linejoin:miter;stroke-miterlimit:4;stroke-dasharray:none;stroke-dashoffset:0;stroke-opacity:1;color-rendering:auto;image-rendering:auto;shape-rendering:auto;text-rendering:auto;enable-background:accumulate"
         id="rect9899-1-2-6-8-0-9-9-3"
         width="120"
         height="120"
         x="-9.5367432e-07"
         y="932.36218"
         ry="5.9030401e-05" />
      <circle
         r="40"
         cy="992.36218"
         cx="60"
         id="path4162-1-7-8-6-5-1-9-4-0-7"
         style="color:#000000;font-style:normal;font-weight:normal;font-size:40px;line-height:125%;font-family:sans-serif;letter-spacing:0px;word-spacing:0px;clip-rule:nonzero;display:inline;overflow:visible;visibility:visible;opacity:1;isolation:auto;mix-blend-mode:normal;color-interpolation:sRGB;color-interpolation-filters:linearRGB;solid-color:#000000;solid-opacity:1;fill:#ffffff;fill-opacity:1;fill-rule:nonzero;stroke:none;stroke-width:0;stroke-linecap:butt;stroke-linejoin:miter;stroke-miterlimit:4;stroke-dasharray:none;stroke-dashoffset:0;stroke-opacity:1;color-rendering:auto;image-rendering:auto;shape-rendering:auto;text-rendering:auto;enable-background:accumulate" />
      <g
         style="font-style:normal;font-weight:normal;font-size:40px;line-height:125%;font-family:sans-serif;letter-spacing:0px;word-spacing:0px;fill:#000000;fill-opacity:1;stroke:none;stroke-width:1px;stroke-linecap:butt;stroke-linejoin:miter;stroke-opacity:1"
         id="g8875"
         transform="translate(6.790173,846.93848)">
        <path
           d="m 25.655998,157.64872 q -1.35,0 -2.76,-0.42 -1.41,-0.42 -2.58,-1.29 -1.17,-0.87 -1.92,-2.16 -0.72,-1.29 -0.72,-3.06 0,-1.11 0.39,-1.98 0.39,-0.9 0.99,-1.62 0.63,-0.72 1.41,-1.26 0.78,-0.57 1.56,-1.02 -0.75,-0.51 -1.41,-1.11 -0.66,-0.6 -1.17,-1.26 -0.51,-0.69 -0.81,-1.44 -0.3,-0.75 -0.3,-1.62 0,-1.38 0.6,-2.52 0.6,-1.17 1.59,-1.98 1.02,-0.81 2.34,-1.26 1.35,-0.45 2.79,-0.45 1.5,0 2.82,0.42 1.32,0.39 2.31,1.17 0.99,0.78 1.56,1.92 0.57,1.14 0.57,2.61 0,1.59 -1.05,2.91 -1.02,1.29 -2.67,2.58 0.9,0.57 1.71,1.17 0.81,0.6 1.41,1.29 0.63,0.69 0.99,1.56 0.36,0.84 0.36,1.89 0,1.77 -0.72,3.06 -0.69,1.29 -1.83,2.16 -1.14,0.87 -2.58,1.29 -1.41,0.42 -2.88,0.42 z m 0,-20.76 q -0.6,0 -1.17,0.21 -0.54,0.18 -0.99,0.54 -0.42,0.36 -0.69,0.87 -0.27,0.48 -0.27,1.08 0,0.51 0.33,1.05 0.36,0.54 0.84,1.02 0.48,0.45 1.02,0.84 0.54,0.36 0.96,0.54 0.45,-0.18 0.96,-0.6 0.54,-0.42 0.99,-0.93 0.48,-0.54 0.78,-1.05 0.33,-0.54 0.33,-0.96 0,-0.51 -0.24,-0.99 -0.21,-0.48 -0.63,-0.84 -0.42,-0.36 -0.99,-0.57 -0.57,-0.21 -1.23,-0.21 z m 0.03,10.05 q -0.63,0.21 -1.32,0.54 -0.66,0.3 -1.2,0.78 -0.54,0.45 -0.9,1.08 -0.36,0.63 -0.36,1.44 0,0.66 0.33,1.23 0.33,0.57 0.84,0.99 0.54,0.39 1.2,0.63 0.69,0.24 1.38,0.24 0.75,0 1.44,-0.21 0.69,-0.24 1.2,-0.63 0.51,-0.42 0.81,-0.99 0.33,-0.57 0.33,-1.26 0,-0.48 -0.33,-1.02 -0.3,-0.57 -0.81,-1.08 -0.51,-0.54 -1.2,-0.99 -0.66,-0.48 -1.41,-0.75 z"
           style="font-style:normal;font-variant:normal;font-weight:bold;font-stretch:normal;font-size:30px;line-height:125%;font-family:sans-serif;-inkscape-font-specification:'sans-serif Bold';letter-spacing:0px;word-spacing:0px;fill:#000000;fill-opacity:1;stroke:none;stroke-width:1px;stroke-linecap:butt;stroke-linejoin:miter;stroke-opacity:1"
           id="path8866" />
        <path
           d="m 61.58006,155.24872 -25.77,0 q -0.39,0 -0.51,-0.18 -0.09,-0.18 -0.09,-0.45 l 0,-2.1 q 0,-0.33 0.09,-0.48 0.12,-0.15 0.51,-0.15 l 10.8,0 0,-2.61 q -1.47,-0.24 -2.67,-0.78 -1.2,-0.57 -2.04,-1.35 -0.84,-0.78 -1.32,-1.77 -0.45,-0.99 -0.45,-2.13 0,-2.13 1.56,-3.69 l -3.75,0 q -0.66,0 -0.66,-0.69 l 0,-2.01 q 0,-0.63 0.69,-0.63 l 21.48,0 q 0.66,0 0.66,0.63 l 0,2.04 q 0,0.66 -0.66,0.66 l -3.78,0 q 1.59,1.59 1.59,3.69 0,1.11 -0.48,2.1 -0.45,0.99 -1.32,1.8 -0.84,0.78 -2.04,1.35 -1.17,0.54 -2.64,0.78 l 0,2.61 10.8,0 q 0.63,0 0.63,0.63 l 0,2.1 q 0,0.63 -0.63,0.63 z m -12.9,-15.45 q -1.05,0 -1.89,0.27 -0.84,0.27 -1.41,0.72 -0.57,0.42 -0.87,0.99 -0.3,0.57 -0.3,1.17 0,0.63 0.3,1.2 0.3,0.54 0.87,0.99 0.57,0.42 1.41,0.69 0.84,0.24 1.89,0.24 1.02,0 1.86,-0.24 0.84,-0.27 1.41,-0.69 0.6,-0.45 0.9,-0.99 0.33,-0.57 0.33,-1.2 0,-0.6 -0.33,-1.17 -0.3,-0.57 -0.9,-0.99 -0.57,-0.45 -1.41,-0.72 -0.84,-0.27 -1.86,-0.27 z m 4.71,-4.95 -9.39,0 q -0.24,0 -0.45,-0.09 -0.18,-0.12 -0.18,-0.51 l 0,-2.16 q 0,-0.39 0.18,-0.48 0.21,-0.12 0.45,-0.12 l 9.39,0 q 0.66,0 0.66,0.63 l 0,2.1 q 0,0.33 -0.12,0.48 -0.12,0.15 -0.54,0.15 z"
           style="font-style:normal;font-variant:normal;font-weight:bold;font-stretch:normal;font-size:30px;line-height:125%;font-family:sans-serif;-inkscape-font-specification:'sans-serif Bold';letter-spacing:0px;word-spacing:0px;fill:#000000;fill-opacity:1;stroke:none;stroke-width:1px;stroke-linecap:butt;stroke-linejoin:miter;stroke-opacity:1"
           id="path8868" />
        <path
           d="m 67.083654,148.70872 q -0.57,0.36 -0.78,0.36 -0.18,0 -0.42,-0.33 l -1.5,-1.89 q -0.33,-0.42 -0.27,-0.6 0.09,-0.18 0.48,-0.48 1.59,-1.17 2.76,-2.64 1.2,-1.5 1.98,-3.18 0.81,-1.71 1.2,-3.51 0.39,-1.8 0.39,-3.57 0,-0.51 0.12,-0.6 0.15,-0.12 0.57,-0.09 l 2.94,0.12 q 0.33,0.03 0.45,0.15 0.12,0.09 0.12,0.42 0,2.85 -0.72,5.46 0.42,1.05 1.11,2.07 0.69,0.99 1.5,1.89 0.84,0.87 1.71,1.59 0.87,0.72 1.65,1.17 0.39,0.24 0.39,0.45 0,0.15 -0.12,0.3 -0.09,0.15 -0.15,0.27 l -1.17,1.86 q -0.24,0.36 -0.42,0.39 -0.18,0 -0.6,-0.21 -0.66,-0.33 -1.44,-0.87 -0.75,-0.54 -1.53,-1.23 -0.75,-0.72 -1.47,-1.53 -0.69,-0.84 -1.23,-1.74 -2.07,3.69 -5.55,5.97 z m 11.76,-7.83 q -0.57,0 -0.57,-0.6 l 0,-2.22 q 0,-0.42 0.15,-0.48 0.18,-0.09 0.42,-0.09 l 4.71,0 0,-5.64 q 0,-0.57 0.54,-0.57 l 3.03,0 q 0.57,0 0.57,0.57 l 0,19.14 q 0,0.33 -0.12,0.45 -0.12,0.12 -0.45,0.12 l -3.03,0 q -0.33,0 -0.45,-0.12 -0.09,-0.12 -0.09,-0.45 l 0,-10.11 -4.71,0 z m 9.3,18.69 -16.17,0 q -0.63,0 -1.05,-0.12 -0.39,-0.09 -0.63,-0.33 -0.21,-0.24 -0.3,-0.66 -0.09,-0.42 -0.09,-1.05 l 0,-6.69 q 0,-0.63 0.6,-0.63 l 2.97,0 q 0.6,0 0.6,0.63 l 0,4.98 q 0,0.45 0.48,0.45 l 13.59,0 q 0.24,0 0.42,0.09 0.18,0.12 0.18,0.45 l 0,2.34 q 0,0.42 -0.18,0.48 -0.18,0.06 -0.42,0.06 z"
           style="font-style:normal;font-variant:normal;font-weight:bold;font-stretch:normal;font-size:30px;line-height:125%;font-family:sans-serif;-inkscape-font-specification:'sans-serif Bold';letter-spacing:0px;word-spacing:0px;fill:#000000;fill-opacity:1;stroke:none;stroke-width:1px;stroke-linecap:butt;stroke-linejoin:miter;stroke-opacity:1"
           id="path8870" />
      </g>
    </g>
  </g>
</svg>
