<?xml version="1.0" encoding="UTF-8" standalone="no"?>
<svg
   xmlns:dc="http://purl.org/dc/elements/1.1/"
   xmlns:cc="http://creativecommons.org/ns#"
   xmlns:rdf="http://www.w3.org/1999/02/22-rdf-syntax-ns#"
   xmlns:svg="http://www.w3.org/2000/svg"
   xmlns="http://www.w3.org/2000/svg"
   version="1.1"
   id="svg8248"
   viewBox="0 0 119.99999 119.99999"
   height="33.866665mm"
   width="33.866665mm">
  <defs
     id="defs8250" />
  <metadata
     id="metadata8253">
    <rdf:RDF>
      <cc:Work
         rdf:about="">
        <dc:format>image/svg+xml</dc:format>
        <dc:type
           rdf:resource="http://purl.org/dc/dcmitype/StillImage" />
        <dc:title></dc:title>
      </cc:Work>
    </rdf:RDF>
  </metadata>
  <g
     transform="translate(9.5367432e-7,-932.36218)"
     id="layer1">
    <circle
       style="color:#000000;font-style:normal;font-weight:normal;font-size:40px;line-height:125%;font-family:sans-serif;letter-spacing:0px;word-spacing:0px;clip-rule:nonzero;display:inline;overflow:visible;visibility:visible;opacity:1;isolation:auto;mix-blend-mode:normal;color-interpolation:sRGB;color-interpolation-filters:linearRGB;solid-color:#000000;solid-opacity:1;fill:#636d41;fill-opacity:1;fill-rule:nonzero;stroke:none;stroke-width:0;stroke-linecap:butt;stroke-linejoin:miter;stroke-miterlimit:4;stroke-dasharray:none;stroke-dashoffset:0;stroke-opacity:1;color-rendering:auto;image-rendering:auto;shape-rendering:auto;text-rendering:auto;enable-background:accumulate"
       id="path4162-1-7-8-6-5-1-5-6-3"
       cx="60"
       cy="992.36218"
       r="50" />
    <rect
       ry="5.9030401e-05"
       y="932.36218"
       x="-9.5367432e-07"
       height="120"
       width="120"
       id="rect9899-1-2-6-8-0-9-9-3"
       style="color:#000000;font-style:normal;font-weight:normal;font-size:40px;line-height:125%;font-family:sans-serif;letter-spacing:0px;word-spacing:0px;clip-rule:nonzero;display:inline;overflow:visible;visibility:visible;opacity:1;isolation:auto;mix-blend-mode:normal;color-interpolation:sRGB;color-interpolation-filters:linearRGB;solid-color:#000000;solid-opacity:1;fill:#e85c41;fill-opacity:0;fill-rule:nonzero;stroke:none;stroke-width:0;stroke-linecap:butt;stroke-linejoin:miter;stroke-miterlimit:4;stroke-dasharray:none;stroke-dashoffset:0;stroke-opacity:1;color-rendering:auto;image-rendering:auto;shape-rendering:auto;text-rendering:auto;enable-background:accumulate" />
    <circle
       style="color:#000000;font-style:normal;font-weight:normal;font-size:40px;line-height:125%;font-family:sans-serif;letter-spacing:0px;word-spacing:0px;clip-rule:nonzero;display:inline;overflow:visible;visibility:visible;opacity:1;isolation:auto;mix-blend-mode:normal;color-interpolation:sRGB;color-interpolation-filters:linearRGB;solid-color:#000000;solid-opacity:1;fill:#ffffff;fill-opacity:1;fill-rule:nonzero;stroke:none;stroke-width:0;stroke-linecap:butt;stroke-linejoin:miter;stroke-miterlimit:4;stroke-dasharray:none;stroke-dashoffset:0;stroke-opacity:1;color-rendering:auto;image-rendering:auto;shape-rendering:auto;text-rendering:auto;enable-background:accumulate"
       id="path4162-1-7-8-6-5-1-9-4-0-7"
       cx="60"
       cy="992.36218"
       r="40" />
    <g
       transform="translate(33.962796,839.31134)"
       id="g8228"
       style="font-style:normal;font-weight:normal;font-size:40px;line-height:125%;font-family:sans-serif;letter-spacing:0px;word-spacing:0px;fill:#000000;fill-opacity:1;stroke:none;stroke-width:1px;stroke-linecap:butt;stroke-linejoin:miter;stroke-opacity:1">
      <path
         id="path8219"
         style="font-style:normal;font-variant:normal;font-weight:bold;font-stretch:normal;font-size:30px;line-height:125%;font-family:sans-serif;-inkscape-font-specification:'sans-serif Bold';letter-spacing:0px;word-spacing:0px;fill:#000000;fill-opacity:1;stroke:none;stroke-width:1px;stroke-linecap:butt;stroke-linejoin:miter;stroke-opacity:1"
         d="m 4.9783744,144.66586 q -0.99,2.67 -1.98,5.13 -0.96,2.43 -1.92,4.77 -0.95999996,2.34 -1.94999996,4.65 -0.96000004,2.31 -1.92000004,4.74 -0.15,0.42 -0.3,0.51 -0.12,0.09 -0.54,0.09 l -2.91,0 q -0.51,0 -0.63,-0.18 -0.12,-0.15 0.12,-0.72 l 7.32000004,-18.36 -8.79000004,0 q -0.39,0 -0.54,-0.12 -0.15,-0.15 -0.15,-0.6 l 0,-2.43 q 0,-0.48 0.12,-0.6 0.15,-0.12 0.57,-0.12 l 12.69,0 q 0.51,0 0.69,0.15 0.18,0.12 0.18,0.6 l 0,2.13 q 0,0.18 -0.06,0.36 z" />
      <path
         id="path8221"
         style="font-style:normal;font-variant:normal;font-weight:bold;font-stretch:normal;font-size:30px;line-height:125%;font-family:sans-serif;-inkscape-font-specification:'sans-serif Bold';letter-spacing:0px;word-spacing:0px;fill:#000000;fill-opacity:1;stroke:none;stroke-width:1px;stroke-linecap:butt;stroke-linejoin:miter;stroke-opacity:1"
         d="m 34.122437,162.87586 -25.7700001,0 q -0.39,0 -0.51,-0.18 -0.09,-0.18 -0.09,-0.45 l 0,-2.1 q 0,-0.33 0.09,-0.48 0.12,-0.15 0.51,-0.15 l 10.8000001,0 0,-2.61 q -1.47,-0.24 -2.67,-0.78 -1.2,-0.57 -2.04,-1.35 -0.84,-0.78 -1.32,-1.77 -0.45,-0.99 -0.45,-2.13 0,-2.13 1.56,-3.69 l -3.75,0 q -0.6600001,0 -0.6600001,-0.69 l 0,-2.01 q 0,-0.63 0.6900001,-0.63 l 21.48,0 q 0.66,0 0.66,0.63 l 0,2.04 q 0,0.66 -0.66,0.66 l -3.78,0 q 1.59,1.59 1.59,3.69 0,1.11 -0.48,2.1 -0.45,0.99 -1.32,1.8 -0.84,0.78 -2.04,1.35 -1.17,0.54 -2.64,0.78 l 0,2.61 10.8,0 q 0.63,0 0.63,0.63 l 0,2.1 q 0,0.63 -0.63,0.63 z m -12.9,-15.45 q -1.05,0 -1.89,0.27 -0.84,0.27 -1.41,0.72 -0.57,0.42 -0.87,0.99 -0.3,0.57 -0.3,1.17 0,0.63 0.3,1.2 0.3,0.54 0.87,0.99 0.57,0.42 1.41,0.69 0.84,0.24 1.89,0.24 1.02,0 1.86,-0.24 0.84,-0.27 1.41,-0.69 0.6,-0.45 0.9,-0.99 0.33,-0.57 0.33,-1.2 0,-0.6 -0.33,-1.17 -0.3,-0.57 -0.9,-0.99 -0.57,-0.45 -1.41,-0.72 -0.84,-0.27 -1.86,-0.27 z m 4.71,-4.95 -9.39,0 q -0.24,0 -0.45,-0.09 -0.18,-0.12 -0.18,-0.51 l 0,-2.16 q 0,-0.39 0.18,-0.48 0.21,-0.12 0.45,-0.12 l 9.39,0 q 0.66,0 0.66,0.63 l 0,2.1 q 0,0.33 -0.12,0.48 -0.12,0.15 -0.54,0.15 z" />
      <path
         id="path8223"
         style="font-style:normal;font-variant:normal;font-weight:bold;font-stretch:normal;font-size:30px;line-height:125%;font-family:sans-serif;-inkscape-font-specification:'sans-serif Bold';letter-spacing:0px;word-spacing:0px;fill:#000000;fill-opacity:1;stroke:none;stroke-width:1px;stroke-linecap:butt;stroke-linejoin:miter;stroke-opacity:1"
         d="m 39.626031,156.33586 q -0.57,0.36 -0.78,0.36 -0.18,0 -0.42,-0.33 l -1.5,-1.89 q -0.33,-0.42 -0.27,-0.6 0.09,-0.18 0.48,-0.48 1.59,-1.17 2.76,-2.64 1.2,-1.5 1.98,-3.18 0.81,-1.71 1.2,-3.51 0.39,-1.8 0.39,-3.57 0,-0.51 0.12,-0.6 0.15,-0.12 0.57,-0.09 l 2.94,0.12 q 0.33,0.03 0.45,0.15 0.12,0.09 0.12,0.42 0,2.85 -0.72,5.46 0.42,1.05 1.11,2.07 0.69,0.99 1.5,1.89 0.84,0.87 1.71,1.59 0.87,0.72 1.65,1.17 0.39,0.24 0.39,0.45 0,0.15 -0.12,0.3 -0.09,0.15 -0.15,0.27 l -1.17,1.86 q -0.24,0.36 -0.42,0.39 -0.18,0 -0.6,-0.21 -0.66,-0.33 -1.44,-0.87 -0.75,-0.54 -1.53,-1.23 -0.75,-0.72 -1.47,-1.53 -0.69,-0.84 -1.23,-1.74 -2.07,3.69 -5.55,5.97 z m 11.76,-7.83 q -0.57,0 -0.57,-0.6 l 0,-2.22 q 0,-0.42 0.15,-0.48 0.18,-0.09 0.42,-0.09 l 4.71,0 0,-5.64 q 0,-0.57 0.54,-0.57 l 3.03,0 q 0.57,0 0.57,0.57 l 0,19.14 q 0,0.33 -0.12,0.45 -0.12,0.12 -0.45,0.12 l -3.03,0 q -0.33,0 -0.45,-0.12 -0.09,-0.12 -0.09,-0.45 l 0,-10.11 -4.71,0 z m 9.3,18.69 -16.17,0 q -0.63,0 -1.05,-0.12 -0.39,-0.09 -0.63,-0.33 -0.21,-0.24 -0.3,-0.66 -0.09,-0.42 -0.09,-1.05 l 0,-6.69 q 0,-0.63 0.6,-0.63 l 2.97,0 q 0.6,0 0.6,0.63 l 0,4.98 q 0,0.45 0.48,0.45 l 13.59,0 q 0.24,0 0.42,0.09 0.18,0.12 0.18,0.45 l 0,2.34 q 0,0.42 -0.18,0.48 -0.18,0.06 -0.42,0.06 z" />
    </g>
  </g>
</svg>
