<?xml version="1.0" encoding="UTF-8" standalone="no"?>
<svg
   xmlns:dc="http://purl.org/dc/elements/1.1/"
   xmlns:cc="http://creativecommons.org/ns#"
   xmlns:rdf="http://www.w3.org/1999/02/22-rdf-syntax-ns#"
   xmlns:svg="http://www.w3.org/2000/svg"
   xmlns="http://www.w3.org/2000/svg"
   xmlns:sodipodi="http://sodipodi.sourceforge.net/DTD/sodipodi-0.dtd"
   xmlns:inkscape="http://www.inkscape.org/namespaces/inkscape"
   xml:space="preserve"
   enable-background="new 0 0 1342.712 595.28"
   viewBox="0 0 500.63 84.683512"
   height="84.683517"
   width="500.63"
   y="0px"
   x="0px"
   id="Layer_1"
   version="1.1"
   inkscape:version="0.91 r13725"
   sodipodi:docname="Cafeclass_Logo_text_only.svg"><sodipodi:namedview
     pagecolor="#ffffff"
     bordercolor="#666666"
     borderopacity="1"
     objecttolerance="10"
     gridtolerance="10"
     guidetolerance="10"
     inkscape:pageopacity="0"
     inkscape:pageshadow="2"
     inkscape:window-width="1859"
     inkscape:window-height="1155"
     id="namedview3489"
     showgrid="false"
     inkscape:zoom="0.72147733"
     inkscape:cx="807.80033"
     inkscape:cy="194.0749"
     inkscape:window-x="114"
     inkscape:window-y="0"
     inkscape:window-maximized="0"
     inkscape:current-layer="Layer_1"
     fit-margin-top="0"
     fit-margin-left="0"
     fit-margin-right="0"
     fit-margin-bottom="0" /><metadata
     id="metadata3546"><rdf:RDF><cc:Work
         rdf:about=""><dc:format>image/svg+xml</dc:format><dc:type
           rdf:resource="http://purl.org/dc/dcmitype/StillImage" /><dc:title></dc:title></cc:Work></rdf:RDF></metadata><defs
     id="defs3544" /><g
     id="g3500"
     transform="matrix(0.52030644,0,0,0.52030644,-100.82214,-122.81012)"><path
       style="fill:#f7400d"
       id="path3524"
       d="m 233.18254,275.44621 c 5.371,-5.374 11.654,-9.617 18.848,-12.731 7.187,-3.11 14.892,-4.671 23.122,-4.671 6.296,0 12.281,0.931 17.953,2.782 5.671,1.854 10.948,4.447 15.84,7.784 2.817,1.927 5.891,2.889 9.229,2.889 2.595,0 4.893,-0.464 6.891,-1.393 2.005,-0.926 3.856,-2.238 5.562,-3.944 l 4.112,-4.112 c -3.709,-4.006 -7.803,-7.614 -12.284,-10.842 -4.485,-3.226 -9.248,-5.944 -14.284,-8.168 -5.043,-2.223 -10.34,-3.947 -15.901,-5.168 -5.557,-1.225 -11.266,-1.838 -17.117,-1.838 -7.488,0 -14.692,0.966 -21.624,2.891 -6.929,1.927 -13.416,4.671 -19.457,8.229 -6.036,3.554 -11.523,7.799 -16.45,12.727 -4.932,4.93 -9.173,10.417 -12.731,16.455 -3.556,6.04 -6.298,12.526 -8.226,19.453 -1.928,6.932 -2.891,14.14 -2.891,21.623 0,11.269 2.127,21.83 6.391,31.686 4.262,9.855 10.079,18.472 17.457,25.845 7.373,7.379 15.986,13.193 25.847,17.455 9.854,4.264 20.42,6.391 31.685,6.391 5.852,0 11.561,-0.61 17.117,-1.834 5.562,-1.22 10.858,-2.943 15.901,-5.168 5.036,-2.225 9.799,-4.945 14.284,-8.168 4.481,-3.227 8.575,-6.838 12.284,-10.844 l -4.112,-4.112 c -1.705,-1.704 -3.54,-3 -5.505,-3.891 -1.962,-0.888 -4.279,-1.336 -6.947,-1.336 -3.409,0 -6.487,0.928 -9.229,2.778 -4.892,3.339 -10.154,5.934 -15.784,7.784 -5.632,1.856 -11.638,2.782 -18.009,2.782 -8.23,0 -15.936,-1.559 -23.122,-4.668 -7.193,-3.116 -13.477,-7.359 -18.848,-12.732 -5.374,-5.373 -9.616,-11.653 -12.73,-18.847 -3.11,-7.187 -4.665,-14.894 -4.665,-23.121 0,-8.224 1.555,-15.933 4.665,-23.126 3.112,-7.185 7.354,-13.468 12.728,-18.84 z"
       inkscape:connector-curvature="0" /><path
       style="fill:#f7400d"
       id="path3526"
       d="m 438.97954,309.79721 c -1.223,-4.486 -2.89,-8.61 -5.004,-12.398 -2.112,-3.776 -4.855,-7.056 -8.223,-9.834 -3.373,-2.783 -7.434,-4.949 -12.177,-6.507 -4.743,-1.557 -10.299,-2.33 -16.673,-2.33 -6.302,0 -12.007,0.757 -17.124,2.275 -5.112,1.522 -9.896,3.691 -14.34,6.507 -1.779,1.187 -3.337,2.353 -4.669,3.497 -1.333,1.154 -2.444,2.21 -3.336,3.171 -1.037,1.112 -1.928,2.221 -2.665,3.337 l 6.336,4.555 c 1.703,1.261 3.424,2.222 5.168,2.895 1.738,0.664 3.609,0.999 5.614,0.999 2.591,0 4.67,-0.316 6.224,-0.944 1.56,-0.631 3.133,-1.337 4.728,-2.114 1.592,-0.778 3.429,-1.479 5.502,-2.111 2.073,-0.628 4.927,-0.945 8.563,-0.945 2.964,0 5.817,0.389 8.558,1.167 2.743,0.78 5.185,2.186 7.336,4.225 2.152,2.038 3.91,4.834 5.284,8.392 1.37,3.559 2.203,8.079 2.499,13.566 -0.296,-0.071 -1.057,-0.188 -2.275,-0.336 -1.226,-0.147 -2.761,-0.293 -4.616,-0.444 -1.854,-0.147 -3.947,-0.293 -6.281,-0.443 -2.335,-0.15 -4.763,-0.227 -7.28,-0.227 -9.117,0 -17.027,0.893 -23.736,2.669 -6.71,1.782 -12.264,4.319 -16.678,7.62 -4.406,3.297 -7.688,7.264 -9.839,11.895 -2.146,4.63 -3.224,9.835 -3.224,15.617 0,5.336 0.949,10.177 2.835,14.511 1.89,4.335 4.559,8.043 8.008,11.116 3.44,3.076 7.591,5.444 12.45,7.115 4.853,1.666 10.209,2.498 16.063,2.498 2.595,0 5.484,-0.354 8.671,-1.055 3.187,-0.704 6.354,-1.668 9.506,-2.89 3.15,-1.223 6.186,-2.688 9.114,-4.39 2.931,-1.706 5.431,-3.594 7.504,-5.671 0.208,2.135 0.842,4.306 1.808,5.749 1.082,1.624 3.046,3.303 5.041,4.288 1.721,0.847 4.469,1.507 6.053,1.764 4.118,0.673 8.445,0.537 8.445,0.537 l 0,-58.252 c 0,-5.036 -0.221,-10.024 -0.668,-14.951 -0.444,-4.933 -1.279,-9.637 -2.502,-14.123 z m -18.066,57.199 c -2.74,1.631 -5.614,3.092 -8.614,4.39 -3.003,1.299 -6.023,2.411 -9.059,3.339 -3.041,0.925 -6.045,1.643 -9.008,2.167 -2.966,0.521 -5.744,0.776 -8.337,0.776 -2.522,0 -4.895,-0.256 -7.117,-0.776 -2.222,-0.524 -4.148,-1.338 -5.78,-2.448 -1.631,-1.112 -2.911,-2.557 -3.836,-4.334 -0.925,-1.78 -1.39,-3.966 -1.39,-6.562 0,-3.038 0.837,-5.612 2.5,-7.725 1.668,-2.112 3.966,-3.836 6.893,-5.168 2.931,-1.339 6.376,-2.303 10.34,-2.895 3.967,-0.592 8.246,-0.886 12.841,-0.886 2.446,0 4.838,0.018 7.17,0.056 2.338,0.034 4.447,0.09 6.338,0.166 1.891,0.072 3.482,0.13 4.78,0.166 1.298,0.037 2.056,0.095 2.279,0.167 l 0,19.567 z"
       inkscape:connector-curvature="0" /><path
       style="fill:#f7400d"
       id="path3528"
       d="m 969.72454,309.79721 c -1.225,-4.486 -2.894,-8.61 -5.006,-12.398 -2.112,-3.776 -4.857,-7.056 -8.222,-9.834 -3.378,-2.783 -7.436,-4.949 -12.179,-6.507 -4.742,-1.557 -10.299,-2.33 -16.674,-2.33 -6.301,0 -12.009,0.757 -17.12,2.275 -5.116,1.522 -9.896,3.691 -14.342,6.507 -1.78,1.187 -3.338,2.353 -4.671,3.497 -1.329,1.154 -2.445,2.21 -3.336,3.171 -1.038,1.112 -1.927,2.221 -2.664,3.337 l 6.335,4.555 c 1.702,1.261 3.425,2.222 5.169,2.895 1.74,0.664 3.613,0.999 5.617,0.999 2.587,0 4.668,-0.316 6.225,-0.944 1.555,-0.631 3.129,-1.337 4.725,-2.114 1.593,-0.778 3.427,-1.479 5.502,-2.111 2.076,-0.628 4.93,-0.945 8.561,-0.945 2.964,0 5.819,0.389 8.559,1.167 2.745,0.78 5.188,2.186 7.337,4.225 2.151,2.038 3.908,4.834 5.283,8.392 1.369,3.559 2.202,8.079 2.501,13.566 -0.299,-0.071 -1.058,-0.188 -2.279,-0.336 -1.224,-0.147 -2.759,-0.293 -4.613,-0.444 -1.855,-0.147 -3.948,-0.293 -6.281,-0.443 -2.336,-0.15 -4.762,-0.227 -7.281,-0.227 -9.116,0 -17.03,0.893 -23.737,2.669 -6.708,1.782 -12.264,4.319 -16.675,7.62 -4.409,3.297 -7.688,7.264 -9.839,11.895 -2.148,4.63 -3.225,9.835 -3.225,15.617 0,5.336 0.947,10.177 2.836,14.511 1.891,4.335 4.559,8.043 8.006,11.116 3.441,3.076 7.594,5.444 12.449,7.115 4.853,1.666 10.209,2.498 16.063,2.498 2.593,0 5.486,-0.354 8.672,-1.055 3.187,-0.704 6.354,-1.668 9.51,-2.89 3.146,-1.223 6.184,-2.688 9.112,-4.39 2.927,-1.706 5.43,-3.594 7.502,-5.671 0.207,2.135 0.843,4.306 1.805,5.749 1.086,1.624 3.05,3.303 5.043,4.288 1.724,0.847 4.473,1.507 6.055,1.764 4.118,0.673 8.444,0.537 8.444,0.537 l 0,-58.252 c 0,-5.036 -0.223,-10.024 -0.664,-14.951 -0.45,-4.933 -1.283,-9.637 -2.503,-14.123 z m -18.069,57.199 c -2.741,1.631 -5.61,3.092 -8.613,4.39 -3.003,1.299 -6.024,2.411 -9.059,3.339 -3.04,0.925 -6.046,1.643 -9.004,2.167 -2.971,0.521 -5.747,0.776 -8.343,0.776 -2.52,0 -4.89,-0.256 -7.116,-0.776 -2.22,-0.524 -4.147,-1.338 -5.781,-2.448 -1.63,-1.112 -2.908,-2.557 -3.833,-4.334 -0.926,-1.78 -1.391,-3.966 -1.391,-6.562 0,-3.038 0.837,-5.612 2.504,-7.725 1.668,-2.112 3.959,-3.836 6.891,-5.168 2.927,-1.339 6.373,-2.303 10.339,-2.895 3.966,-0.592 8.242,-0.886 12.841,-0.886 2.445,0 4.836,0.018 7.171,0.056 2.335,0.034 4.449,0.09 6.337,0.166 1.889,0.072 3.483,0.13 4.781,0.166 1.295,0.037 2.058,0.095 2.276,0.167 l 0,19.567 z"
       inkscape:connector-curvature="0" /><path
       style="fill:#f7400d"
       id="path3530"
       d="m 649.40854,323.75121 c -1.631,-6.449 -4.279,-12.412 -7.946,-17.901 -3.671,-5.481 -8.063,-10.225 -13.175,-14.23 -5.113,-3.998 -10.824,-7.146 -17.123,-9.447 -6.3,-2.296 -12.895,-3.444 -19.788,-3.444 -8.225,0 -15.992,1.576 -23.29,4.724 -7.3,3.149 -13.675,7.447 -19.121,12.895 -5.447,5.449 -9.745,11.819 -12.895,19.123 -3.154,7.296 -4.727,15.06 -4.727,23.291 0,8.225 1.572,15.987 4.727,23.286 3.149,7.302 7.447,13.673 12.895,19.124 5.446,5.448 11.821,9.745 19.121,12.894 7.298,3.152 15.065,4.725 23.29,4.725 8.742,0 16.861,-1.72 24.347,-5.167 7.484,-3.446 14.006,-8.132 19.566,-14.063 l -4.225,-4.225 c -1.703,-1.707 -3.521,-3.003 -5.448,-3.894 -1.928,-0.886 -4.075,-1.331 -6.449,-1.331 -1.704,0 -3.26,0.186 -4.667,0.556 -1.408,0.37 -2.853,0.967 -4.336,1.777 -2.817,1.556 -5.799,2.762 -8.949,3.612 -3.148,0.856 -6.431,1.282 -9.839,1.282 -4.667,0 -9.155,-0.816 -13.449,-2.45 -4.298,-1.629 -8.156,-3.871 -11.563,-6.724 -3.407,-2.853 -6.265,-6.206 -8.56,-10.061 -2.3,-3.854 -3.782,-8.043 -4.448,-12.563 l 81.153,0 c 1.63,0 3.353,-0.392 5.168,-1.166 1.819,-0.78 3.467,-1.893 4.953,-3.339 1.479,-1.441 2.723,-3.182 3.722,-5.223 1.003,-2.04 1.502,-4.352 1.502,-6.95 -0.074,-0.812 -0.109,-1.664 -0.109,-2.556 -10e-4,-0.888 -0.119,-1.739 -0.337,-2.555 z m -72.979,0.33 0,-0.024 -20.644,0 c 1.06,-2.595 2.367,-5.062 3.963,-7.365 2.335,-3.375 5.112,-6.282 8.337,-8.731 3.225,-2.441 6.817,-4.347 10.783,-5.722 3.965,-1.37 8.133,-2.053 12.507,-2.053 4.001,0 7.858,0.587 11.561,1.774 3.706,1.188 7.098,2.835 10.175,4.945 3.076,2.112 5.797,4.636 8.17,7.563 2.372,2.927 4.297,6.13 5.783,9.612 l -50.635,0 z"
       inkscape:connector-curvature="0" /><path
       style="fill:#f7400d"
       id="path3532"
       d="m 719.96754,275.44621 c 5.376,-5.374 11.656,-9.617 18.843,-12.731 7.186,-3.11 14.899,-4.671 23.124,-4.671 6.301,0 12.285,0.931 17.955,2.782 5.67,1.854 10.949,4.447 15.842,7.784 2.819,1.927 5.894,2.889 9.226,2.889 2.595,0 4.896,-0.464 6.892,-1.393 2.005,-0.926 3.854,-2.238 5.562,-3.944 l 4.116,-4.112 c -3.707,-4.006 -7.803,-7.614 -12.287,-10.842 -4.487,-3.226 -9.245,-5.944 -14.286,-8.168 -5.04,-2.223 -10.34,-3.947 -15.896,-5.168 -5.56,-1.225 -11.266,-1.838 -17.123,-1.838 -7.487,0 -14.695,0.966 -21.621,2.891 -6.933,1.927 -13.414,4.671 -19.457,8.229 -6.042,3.554 -11.524,7.799 -16.45,12.727 -4.929,4.93 -9.173,10.417 -12.734,16.455 -3.554,6.04 -6.296,12.526 -8.225,19.453 -1.924,6.932 -2.889,14.14 -2.889,21.623 0,11.269 2.13,21.83 6.391,31.686 4.262,9.855 10.081,18.472 17.457,25.845 7.373,7.379 15.986,13.193 25.845,17.455 9.857,4.264 20.418,6.391 31.684,6.391 5.857,0 11.563,-0.61 17.123,-1.834 5.556,-1.22 10.855,-2.943 15.896,-5.168 5.041,-2.225 9.799,-4.945 14.286,-8.168 4.484,-3.227 8.58,-6.838 12.287,-10.844 l -4.116,-4.112 c -1.707,-1.704 -3.537,-3 -5.506,-3.891 -1.963,-0.888 -4.278,-1.336 -6.947,-1.336 -3.405,0 -6.485,0.928 -9.226,2.778 -4.893,3.339 -10.155,5.934 -15.783,7.784 -5.636,1.856 -11.636,2.782 -18.014,2.782 -8.225,0 -15.938,-1.559 -23.124,-4.668 -7.187,-3.116 -13.467,-7.359 -18.843,-12.732 -5.376,-5.373 -9.618,-11.653 -12.727,-18.847 -3.114,-7.187 -4.673,-14.894 -4.673,-23.121 0,-8.224 1.559,-15.933 4.673,-23.126 3.107,-7.185 7.349,-13.468 12.725,-18.84 z"
       inkscape:connector-curvature="0" /><path
       style="fill:#f7400d"
       id="path3534"
       d="m 1054.6695,337.09221 c -3.224,-2.819 -6.911,-5.188 -11.063,-7.121 -4.153,-1.921 -8.447,-3.627 -12.896,-5.107 -2.296,-0.74 -4.576,-1.521 -6.839,-2.337 -2.26,-0.816 -4.277,-1.761 -6.055,-2.833 -1.783,-1.076 -3.227,-2.337 -4.34,-3.78 -1.111,-1.444 -1.667,-3.243 -1.667,-5.393 0,-0.74 0.228,-1.721 0.672,-2.947 0.439,-1.225 1.238,-2.406 2.387,-3.557 1.145,-1.147 2.671,-2.13 4.56,-2.948 1.888,-0.811 4.278,-1.221 7.168,-1.221 1.706,0 3.301,0.371 4.784,1.111 2.221,1.11 4.169,1.985 5.834,2.613 1.669,0.63 3.241,0.945 4.73,0.945 4.145,0 7.776,-1.336 10.89,-4.003 l 5.225,-4.445 c -0.37,-0.444 -1.351,-1.593 -2.943,-3.45 -1.599,-1.85 -3.744,-3.812 -6.453,-5.891 -2.702,-2.069 -5.924,-3.929 -9.67,-5.56 -3.742,-1.628 -7.872,-2.441 -12.396,-2.441 -4.447,0 -8.819,0.813 -13.119,2.441 -4.297,1.631 -8.134,3.857 -11.504,6.672 -3.36996,2.819 -6.09896,6.17 -8.17096,10.063 -2.074,3.892 -3.112,8.095 -3.112,12.617 0,5.188 0.958,9.636 2.895,13.343 1.918,3.7 4.445,6.854 7.55596,9.447 3.114,2.591 6.652,4.8 10.614,6.613 3.966,1.817 7.988,3.427 12.063,4.837 3.932,1.334 7.211,2.573 9.841,3.726 2.628,1.147 4.725,2.334 6.282,3.556 1.557,1.225 2.649,2.577 3.279,4.059 0.629,1.486 0.943,3.261 0.943,5.334 0,2.669 -0.556,5.004 -1.665,7.006 -1.11,2 -2.558,3.684 -4.338,5.056 -1.778,1.374 -3.802,2.414 -6.055,3.111 -2.264,0.709 -4.542,1.061 -6.841,1.061 -2.153,0 -4.225,-0.256 -6.224,-0.776 -2.002,-0.524 -3.856,-1.371 -5.563,-2.56 -2.445,-1.704 -4.539,-2.928 -6.274,-3.667 -1.749,-0.744 -3.58,-1.112 -5.508,-1.112 -1.481,0 -2.94396,0.241 -4.38796,0.721 -1.446,0.487 -2.91,1.096 -4.395,1.839 l -6,2.997 c 1.85,3.709 4.13,7.005 6.836,9.894 2.701,2.894 5.724,5.374 9.05996,7.449 3.337,2.076 6.912,3.652 10.729,4.725 3.814,1.074 7.722,1.611 11.727,1.611 5.856,0 11.228,-0.996 16.123,-2.998 4.889,-2.001 9.113,-4.727 12.672,-8.175 3.561,-3.441 6.314,-7.405 8.282,-11.896 1.96,-4.479 2.945,-9.238 2.945,-14.284 0,-5.479 -0.969,-10.205 -2.889,-14.172 -1.933,-3.965 -4.504,-7.358 -7.729,-10.173 z"
       inkscape:connector-curvature="0" /><path
       style="fill:#f7400d"
       id="path3536"
       d="m 1153.0665,347.26221 c -1.929,-3.963 -4.5,-7.355 -7.729,-10.171 -3.223,-2.819 -6.913,-5.188 -11.062,-7.121 -4.148,-1.921 -8.449,-3.627 -12.894,-5.107 -2.297,-0.74 -4.577,-1.521 -6.836,-2.337 -2.262,-0.816 -4.281,-1.761 -6.063,-2.833 -1.777,-1.076 -3.224,-2.337 -4.332,-3.78 -1.111,-1.444 -1.666,-3.243 -1.666,-5.393 0,-0.74 0.22,-1.721 0.664,-2.947 0.445,-1.225 1.24,-2.406 2.392,-3.557 1.147,-1.147 2.668,-2.13 4.556,-2.948 1.892,-0.811 4.279,-1.221 7.169,-1.221 1.705,0 3.302,0.371 4.785,1.111 2.222,1.11 4.167,1.985 5.833,2.613 1.668,0.63 3.241,0.945 4.726,0.945 4.149,0 7.782,-1.336 10.896,-4.003 l 5.225,-4.445 c -0.372,-0.444 -1.355,-1.593 -2.947,-3.45 -1.593,-1.85 -3.743,-3.812 -6.445,-5.891 -2.709,-2.069 -5.932,-3.929 -9.676,-5.56 -3.74,-1.628 -7.874,-2.441 -12.396,-2.441 -4.448,0 -8.818,0.813 -13.114,2.441 -4.301,1.631 -8.137,3.857 -11.508,6.672 -3.373,2.819 -6.098,6.17 -8.169,10.063 -2.077,3.892 -3.111,8.095 -3.111,12.617 0,5.188 0.96,9.636 2.886,13.343 1.928,3.7 4.451,6.854 7.56,9.447 3.112,2.591 6.652,4.8 10.619,6.613 3.966,1.817 7.984,3.427 12.063,4.837 3.924,1.334 7.205,2.573 9.834,3.726 2.633,1.147 4.727,2.334 6.282,3.556 1.558,1.225 2.651,2.577 3.284,4.059 0.626,1.486 0.94,3.261 0.94,5.334 0,2.669 -0.557,5.004 -1.67,7.006 -1.111,2 -2.555,3.684 -4.331,5.056 -1.776,1.374 -3.802,2.414 -6.061,3.111 -2.262,0.709 -4.541,1.061 -6.838,1.061 -2.146,0 -4.227,-0.256 -6.223,-0.776 -2,-0.524 -3.857,-1.371 -5.559,-2.56 -2.447,-1.704 -4.538,-2.928 -6.284,-3.667 -1.741,-0.744 -3.576,-1.112 -5.499,-1.112 -1.487,0 -2.946,0.241 -4.393,0.721 -1.447,0.487 -2.91,1.096 -4.393,1.839 l -6.003,2.997 c 1.853,3.709 4.13,7.005 6.837,9.894 2.707,2.894 5.726,5.374 9.063,7.449 3.33,2.076 6.908,3.652 10.725,4.725 3.818,1.074 7.729,1.611 11.729,1.611 5.855,0 11.227,-0.996 16.118,-2.998 4.895,-2.001 9.116,-4.727 12.677,-8.175 3.559,-3.441 6.32,-7.405 8.278,-11.896 1.967,-4.479 2.952,-9.238 2.952,-14.284 10e-4,-5.481 -0.965,-10.207 -2.891,-14.174 z"
       inkscape:connector-curvature="0" /><path
       style="fill:#f7400d"
       id="path3538"
       d="m 526.66854,243.70821 c -2.263,-1.263 -4.671,-2.373 -7.227,-3.337 -2.555,-0.96 -5.133,-1.742 -7.727,-2.334 -2.595,-0.593 -4.932,-0.888 -7.004,-0.888 -4.669,0 -8.856,0.775 -12.564,2.334 -3.702,1.556 -6.852,3.707 -9.449,6.445 -2.593,2.744 -4.595,6.027 -6.002,9.84 -1.406,3.817 -2.111,7.988 -2.111,12.507 l 0,11.896 -2.446,0 c -11.34,0 -17.007,3.074 -17.007,9.228 l 0,12.006 19.453,0 0,77.527 0,4.206 0,1.756 c 0.224,2.097 0.869,4.221 1.847,5.638 1.117,1.624 3.147,3.303 5.21,4.288 1.777,0.847 4.616,1.507 6.251,1.764 2.488,0.394 5.023,0.508 6.723,0.537 l 1.304,0 0.679,0 0,-13.983 0,-4.206 0,-77.527 30.127,0 0,-21.014 -30.127,0 0,-12.116 c 0,-1.188 0.184,-2.372 0.556,-3.559 0.37,-1.186 0.89,-2.274 1.558,-3.28 0.666,-0.999 1.499,-1.813 2.5,-2.447 1,-0.624 2.169,-0.945 3.501,-0.945 0.668,0 1.294,0.078 1.892,0.228 0.295,0.073 0.555,0.108 0.774,0.108 3.188,0.889 5.968,1.338 8.34,1.338 2.893,0 5.54,-0.763 7.948,-2.283 2.408,-1.515 4.354,-3.463 5.839,-5.836 l 2.556,-4.005 c -1.336,-1.332 -3.135,-2.626 -5.394,-3.886 z"
       inkscape:connector-curvature="0" /><path
       style="fill:#f7400d"
       id="path3540"
       d="m 862.24254,254.90521 -0.012,0 0,-3.069 0,-1.758 c -0.223,-2.098 -0.865,-4.223 -1.844,-5.641 -1.119,-1.623 -3.147,-3.298 -5.213,-4.284 -1.773,-0.85 -4.611,-1.508 -6.246,-1.769 -2.491,-0.392 -5.026,-0.504 -6.726,-0.535 l -1.304,0 -0.678,0 0,13.986 0,4.062 -0.018,0 0,124.17 0.013,0 0,3.071 0,1.756 c 0.223,2.097 0.867,4.221 1.846,5.638 1.119,1.624 3.146,3.303 5.208,4.288 1.777,0.847 4.616,1.507 6.253,1.764 2.485,0.394 5.026,0.508 6.723,0.537 l 1.305,0 0.675,0 0,-13.983 0,-1.117 0.018,0 0,-127.116 z"
       inkscape:connector-curvature="0" /></g></svg>