<?xml version="1.0" encoding="UTF-8" standalone="no"?>
<!-- Created with Inkscape (http://www.inkscape.org/) -->

<svg
   xmlns:dc="http://purl.org/dc/elements/1.1/"
   xmlns:cc="http://creativecommons.org/ns#"
   xmlns:rdf="http://www.w3.org/1999/02/22-rdf-syntax-ns#"
   xmlns:svg="http://www.w3.org/2000/svg"
   xmlns="http://www.w3.org/2000/svg"
   xmlns:sodipodi="http://sodipodi.sourceforge.net/DTD/sodipodi-0.dtd"
   xmlns:inkscape="http://www.inkscape.org/namespaces/inkscape"
   width="231.25038"
   height="50.000252"
   viewBox="0 0 231.25038 50.000253"
   id="svg7182"
   version="1.1"
   inkscape:version="0.91 r13725"
   sodipodi:docname="login_cafeclass.svg">
  <defs
     id="defs7184" />
  <sodipodi:namedview
     id="base"
     pagecolor="#ffffff"
     bordercolor="#666666"
     borderopacity="1.0"
     inkscape:pageopacity="0.0"
     inkscape:pageshadow="2"
     inkscape:zoom="3.959798"
     inkscape:cx="92.009397"
     inkscape:cy="56.697111"
     inkscape:document-units="px"
     inkscape:current-layer="layer1"
     showgrid="false"
     units="px"
     fit-margin-top="0"
     fit-margin-left="0"
     fit-margin-right="0"
     fit-margin-bottom="0"
     inkscape:window-width="1916"
     inkscape:window-height="1155"
     inkscape:window-x="4"
     inkscape:window-y="1"
     inkscape:window-maximized="1" />
  <metadata
     id="metadata7187">
    <rdf:RDF>
      <cc:Work
         rdf:about="">
        <dc:format>image/svg+xml</dc:format>
        <dc:type
           rdf:resource="http://purl.org/dc/dcmitype/StillImage" />
        <dc:title></dc:title>
      </cc:Work>
    </rdf:RDF>
  </metadata>
  <g
     inkscape:label="Layer 1"
     inkscape:groupmode="layer"
     id="layer1"
     transform="translate(-735.80338,-658.79065)">
    <g
       id="g7798">
      <g
         transform="matrix(1.25,0,0,-1.25,967.05376,704.48065)"
         id="g11612"
         style="display:inline">
        <path
           inkscape:connector-curvature="0"
           id="path11614-3"
           style="fill:#ffffff;fill-opacity:1;fill-rule:nonzero;stroke:none"
           d="m 0,0 c 0,-1.896 -1.549,-3.448 -3.447,-3.448 l -178.11,0 c -1.892,0 -3.443,1.552 -3.443,3.448 l 0,33.103 c 0,1.897 1.551,3.449 3.443,3.449 l 178.11,0 C -1.549,36.552 0,35 0,33.103 L 0,0 Z" />
      </g>
      <path
         inkscape:connector-curvature="0"
         id="path11616-8"
         style="display:inline;fill:#ff7f2a;fill-opacity:1;fill-rule:nonzero;stroke:none"
         d="m 785.80376,708.07628 -0.7125,0 0,-48.57125 0.7125,0 0,48.57125 z" />
      <g
         style="display:inline;fill:#ff7f2a;fill-opacity:1"
         transform="matrix(1.25,0,0,-1.25,962.74463,658.7909)"
         id="g11618">
        <path
           inkscape:connector-curvature="0"
           id="path11620-3"
           style="fill:#ff7f2a;fill-opacity:1;fill-rule:nonzero;stroke:none"
           d="m 0,0 -178.109,0 c -1.893,0 -3.444,-1.552 -3.444,-3.449 l 0,-33.103 c 0,-1.895 1.551,-3.448 3.444,-3.448 L 0,-40 c 1.896,0 3.447,1.553 3.447,3.448 l 0,33.103 C 3.447,-1.552 1.896,0 0,0 m 0,-0.571 c 1.586,0 2.875,-1.29 2.875,-2.878 l 0,-33.103 c 0,-1.586 -1.289,-2.877 -2.875,-2.877 l -178.109,0 c -1.584,0 -2.871,1.291 -2.871,2.877 l 0,33.103 c 0,1.588 1.287,2.878 2.871,2.878 L 0,-0.571" />
      </g>
      <g
         id="g41"
         transform="matrix(0.13280859,0,0,0.13280859,731.37148,701.29339)"
         style="display:inline">
        <path
           id="path43"
           d="M 334.348,-138.539 C 330.86,-197.771 281.722,-244.73 221.61,-244.73 c -62.372,0 -112.942,50.563 -112.942,112.944 0,62.38 50.57,112.943 112.942,112.943 60.112,0 109.25,-46.957 112.738,-106.193 l 0,-13.503 z"
           inkscape:connector-curvature="0"
           style="fill:#f7400d" />
        <path
           id="path45"
           d="m 334.336,-134.6 c -1.269,-5.092 -5.856,-8.869 -11.336,-8.869 l -20.549,0 c -1.538,0 -2.999,0.307 -4.349,0.844 -7.005,-36.036 -38.803,-63.169 -76.86,-62.985 -43.053,0.202 -77.778,35.264 -77.574,78.311 0.208,43.05 35.268,77.779 78.311,77.575 34.166,-0.166 65.129,-22.289 75.515,-52.916 3.449,-6.124 7.346,-9.062 14.273,-9.247 l 1.066,0 c 0.212,0.008 0.423,0 0.637,0.011 l 0,-0.011 9.53,0 c 4.939,0 9.155,-3.077 10.863,-7.413 0.369,-3.344 0.592,-6.736 0.661,-10.162 -0.024,-1.728 -0.086,-3.436 -0.188,-5.138 z"
           inkscape:connector-curvature="0"
           style="fill:#e33b0c" />
        <path
           id="path47"
           d="m 221.609,-240.023 c 61.593,0 111.658,49.299 112.915,110.585 0.021,-0.777 0.031,-1.567 0.031,-2.348 0,-62.381 -50.571,-112.944 -112.946,-112.944 -62.372,0 -112.942,50.563 -112.942,112.944 0,0.78 0.011,1.57 0.03,2.348 1.259,-61.287 51.324,-110.585 112.912,-110.585 z"
           inkscape:connector-curvature="0"
           style="fill:#ff5626" />
        <path
           id="path49"
           d="m 299.556,-132.161 c 0.203,43.05 -34.527,78.114 -77.577,78.319 -43.042,0.201 -78.103,-34.523 -78.311,-77.577 -0.204,-43.044 34.521,-78.104 77.574,-78.315 43.043,-0.201 78.109,34.526 78.314,77.573 z"
           inkscape:connector-curvature="0"
           style="fill:#ffffff" />
        <path
           id="path51"
           d="m 290.808,-132.124 c 0.188,38.225 -30.649,69.354 -68.872,69.537 -38.212,0.186 -69.341,-30.651 -69.525,-68.87 -0.184,-38.218 30.653,-69.349 68.873,-69.529 38.213,-0.188 69.342,30.652 69.524,68.862 z"
           inkscape:connector-curvature="0"
           style="fill:#330400" />
        <path
           id="path53"
           d="m 287.272,-132.097 c 0.177,36.259 -29.083,65.798 -65.354,65.973 -36.257,0.175 -65.799,-29.081 -65.97,-65.353 -0.175,-36.264 29.087,-65.805 65.347,-65.971 36.264,-0.177 65.804,29.079 65.977,65.351 z"
           inkscape:connector-curvature="0"
           style="fill:#4a0600" />
        <path
           id="path55"
           d="m 294.795,-105.571 c 3.581,-7.466 10.587,-10.732 18.676,-10.421 l 0.193,-7.966 -13.542,-5.412 -5.327,23.799 z"
           inkscape:connector-curvature="0"
           style="fill:#ffffff" />
        <path
           id="path57"
           d="m 323,-147.588 -20.549,0 c -6.464,0 -11.701,5.242 -11.701,11.703 l 0,8.188 c 0,6.462 5.237,11.696 11.701,11.696 l 20.549,0 c 5.479,0 10.068,-3.773 11.336,-8.866 0.139,-2.29 0.22,-4.597 0.22,-6.92 0,-2.327 -0.081,-4.643 -0.22,-6.937 -1.269,-5.083 -5.857,-8.864 -11.336,-8.864 z"
           inkscape:connector-curvature="0"
           style="fill:#ffffff" />
        <path
           id="path59"
           d="m 294.795,-158.008 c 3.581,7.473 10.587,10.735 18.676,10.428 l 0.193,7.963 -13.542,5.418 -5.327,-23.809 z"
           inkscape:connector-curvature="0"
           style="fill:#ffffff" />
        <path
           id="path61"
           d="m 325.923,-124.591 8.402,0 c 0.146,-2.379 0.23,-4.779 0.23,-7.195 0,-2.426 -0.085,-4.826 -0.234,-7.218 l -8.398,0 0,14.413 z"
           inkscape:connector-curvature="0"
           style="fill:#ffffff" />
      </g>
      <path
         d="m 819.49837,678.90825 q -0.09,1.365 -0.57,2.655 -0.465,1.29 -1.275,2.46 -0.795,1.155 -1.92,2.16 -1.125,0.99 -2.52,1.755 -0.12,0.075 -0.255,0.06 -0.12,-0.015 -0.195,-0.135 l -0.6,-0.84 q -0.075,-0.12 -0.045,-0.24 0.03,-0.12 0.15,-0.18 1.41,-0.765 2.505,-1.785 1.095,-1.02 1.815,-2.235 -0.93,0.09 -1.965,0.135 -1.02,0.045 -1.92,0.06 -0.06,0 -0.135,-0.06 -0.075,-0.06 -0.075,-0.18 l 0,-0.975 q 0,-0.09 0.075,-0.15 0.075,-0.06 0.12,-0.06 0.555,0 1.155,-0.015 0.615,-0.03 1.215,-0.06 0.615,-0.03 1.185,-0.06 0.57,-0.03 1.05,-0.075 0.12,-0.36 0.195,-0.72 0.09,-0.36 0.165,-0.705 0.045,-0.3 -0.045,-0.39 -0.075,-0.105 -0.36,-0.105 l -4.215,0 q -0.21,0 -0.21,-0.21 l 0,-1.05 q 0,-0.18 0.21,-0.18 l 5.415,0 q 0.675,0 0.885,0.285 0.21,0.27 0.165,0.84 z m 5.955,4.305 q 0,0.075 -0.075,0.15 -0.06,0.06 -0.15,0.06 l -2.025,0 0,7.275 q 0,0.195 -0.195,0.195 l -1.335,0 q -0.195,0 -0.195,-0.195 l 0,-13.845 q 0,-0.195 0.195,-0.195 l 1.335,0 q 0.195,0 0.195,0.195 l 0,5.13 2.025,0 q 0.09,0 0.15,0.06 0.075,0.045 0.075,0.12 l 0,1.05 z"
         style="font-style:normal;font-variant:normal;font-weight:600;font-stretch:normal;font-size:15px;line-height:125%;font-family:NanumGothic;-inkscape-font-specification:'NanumGothic Semi-Bold';letter-spacing:0px;word-spacing:0px;fill:#f7400d;fill-opacity:1;stroke:none;stroke-width:1px;stroke-linecap:butt;stroke-linejoin:miter;stroke-opacity:1"
         id="path7771"
         inkscape:connector-curvature="0" />
      <path
         d="m 825.89517,685.61325 q 0,-0.21 0.21,-0.21 l 1.05,0 0,-6.06 -0.93,0 q -0.075,0 -0.165,-0.075 -0.075,-0.075 -0.075,-0.165 l 0,-0.93 q 0,-0.075 0.075,-0.15 0.09,-0.09 0.165,-0.09 l 6.45,0 q 0.09,0 0.15,0.075 0.075,0.06 0.075,0.165 l 0,0.945 q -0.03,0.06 -0.075,0.12 -0.075,0.105 -0.15,0.105 l -0.96,0 0,5.91 q 0.345,-0.03 0.645,-0.075 0.315,-0.045 0.6,-0.09 0.075,-0.015 0.15,0.03 0.09,0.03 0.105,0.105 l 0.135,0.93 q 0.03,0.12 -0.045,0.195 -0.06,0.06 -0.135,0.075 -0.675,0.135 -1.53,0.225 -0.84,0.075 -1.77,0.12 -0.93,0.045 -1.89,0.06 -0.96,0 -1.875,-0.03 -0.09,0 -0.15,-0.06 -0.06,-0.075 -0.06,-0.165 l 0,-0.96 z m 8.31,-8.505 q 0,-0.195 0.21,-0.195 l 1.215,0 q 0.21,0 0.21,0.195 l 0,13.095 q 0,0.21 -0.21,0.21 l -1.215,0 q -0.21,0 -0.21,-0.21 l 0,-7.305 -1.485,0 q -0.09,0 -0.165,-0.06 -0.06,-0.06 -0.06,-0.135 l 0,-1.035 q 0,-0.075 0.06,-0.12 0.075,-0.06 0.165,-0.06 l 1.485,0 0,-4.38 z m 4.35,13.62 q 0,0.195 -0.195,0.195 l -1.305,0 q -0.195,0 -0.195,-0.195 l 0,-13.875 q 0,-0.195 0.21,-0.195 l 1.29,0 q 0.195,0 0.195,0.195 l 0,13.875 z m -9.825,-5.34 q 0.375,-0.015 0.72,-0.015 0.345,0 0.69,-0.03 l 0,-6 -1.41,0 0,6.045 z"
         style="font-style:normal;font-variant:normal;font-weight:600;font-stretch:normal;font-size:15px;line-height:125%;font-family:NanumGothic;-inkscape-font-specification:'NanumGothic Semi-Bold';letter-spacing:0px;word-spacing:0px;fill:#f7400d;fill-opacity:1;stroke:none;stroke-width:1px;stroke-linecap:butt;stroke-linejoin:miter;stroke-opacity:1"
         id="path7773"
         inkscape:connector-curvature="0" />
      <path
         d="m 842.14697,679.71825 q 0,-0.09 0.06,-0.15 0.06,-0.075 0.135,-0.075 0.96,0 1.995,0 1.05,-0.015 2.055,-0.015 1.005,-0.015 1.89,-0.03 0.9,-0.015 1.575,-0.06 0.015,-0.21 0.015,-0.405 0,-0.21 0,-0.42 0,-0.21 -0.105,-0.255 -0.09,-0.06 -0.3,-0.06 l -7.155,0 q -0.075,0 -0.15,-0.045 -0.075,-0.06 -0.075,-0.135 l 0,-1.02 q 0,-0.09 0.075,-0.135 0.075,-0.045 0.15,-0.045 l 8.25,0 q 0.48,0 0.735,0.255 0.255,0.24 0.255,0.795 0,0.315 -0.015,0.81 -0.015,0.48 -0.06,1.05 -0.045,0.57 -0.12,1.17 -0.06,0.6 -0.165,1.14 l 2.01,0 q 0.075,0 0.15,0.075 0.075,0.075 0.075,0.15 l 0,0.945 q 0,0.075 -0.075,0.165 -0.075,0.075 -0.15,0.075 l -13.065,0 q -0.09,0 -0.15,-0.075 -0.06,-0.09 -0.06,-0.165 l 0,-0.945 q 0,-0.09 0.06,-0.15 0.06,-0.075 0.15,-0.075 l 9.45,0 q 0.06,-0.315 0.105,-0.66 0.06,-0.345 0.09,-0.72 -0.825,0.045 -1.74,0.075 -0.915,0.015 -1.875,0.03 -0.945,0.015 -1.92,0.03 -0.975,0 -1.905,0 -0.075,0 -0.135,-0.06 -0.06,-0.075 -0.06,-0.165 l 0,-0.9 z m 9.57,10.785 q 0,0.075 -0.075,0.135 -0.075,0.075 -0.135,0.075 l -8.445,0 q -0.585,0 -0.795,-0.21 -0.21,-0.21 -0.21,-0.69 l 0,-1.89 q 0,-0.48 0.195,-0.69 0.21,-0.21 0.795,-0.21 l 6.45,0 q 0.12,0 0.15,-0.015 0.03,-0.03 0.03,-0.165 l 0,-0.555 q 0,-0.165 -0.03,-0.195 -0.03,-0.03 -0.165,-0.03 l -7.245,0 q -0.075,0 -0.15,-0.045 -0.06,-0.06 -0.06,-0.135 l 0,-1.02 q 0,-0.075 0.06,-0.135 0.075,-0.06 0.15,-0.06 l 8.1,0 q 0.615,0 0.81,0.195 0.21,0.18 0.21,0.69 l 0,1.86 q 0,0.525 -0.21,0.705 -0.195,0.18 -0.81,0.18 l -6.405,0 q -0.12,0 -0.15,0.045 -0.03,0.03 -0.03,0.15 l 0,0.645 q 0,0.135 0.03,0.15 0.03,0.03 0.165,0.03 l 7.545,0 q 0.075,0 0.15,0.045 0.075,0.06 0.075,0.15 l 0,0.99 z"
         style="font-style:normal;font-variant:normal;font-weight:600;font-stretch:normal;font-size:15px;line-height:125%;font-family:NanumGothic;-inkscape-font-specification:'NanumGothic Semi-Bold';letter-spacing:0px;word-spacing:0px;fill:#f7400d;fill-opacity:1;stroke:none;stroke-width:1px;stroke-linecap:butt;stroke-linejoin:miter;stroke-opacity:1"
         id="path7775"
         inkscape:connector-curvature="0" />
      <path
         d="m 861.54876,686.48325 q 0.03,0.105 -0.045,0.18 -0.06,0.06 -0.18,0.09 -0.465,0.12 -1.17,0.225 -0.69,0.105 -1.455,0.195 -0.75,0.075 -1.5,0.105 -0.75,0.03 -1.32,0 -0.69,-0.06 -0.93,-0.285 -0.24,-0.225 -0.24,-0.795 l 0,-3.45 q 0,-0.54 0.27,-0.765 0.27,-0.24 0.795,-0.24 l 2.7,0 q 0.12,0 0.165,-0.03 0.045,-0.045 0.045,-0.195 l 0,-2.055 q 0,-0.12 -0.03,-0.165 -0.03,-0.045 -0.18,-0.045 l -3.495,0 q -0.075,0 -0.15,-0.06 -0.06,-0.06 -0.06,-0.135 l 0,-0.99 q 0,-0.075 0.06,-0.135 0.075,-0.06 0.15,-0.06 l 4.335,0 q 0.645,0 0.825,0.24 0.195,0.24 0.195,0.795 l 0,3.225 q 0,0.57 -0.24,0.78 -0.225,0.195 -0.81,0.195 l -2.685,0 q -0.225,0 -0.225,0.21 l 0,2.25 q 0,0.165 0.06,0.21 0.06,0.045 0.225,0.06 0.54,0.03 1.065,0.015 0.525,-0.03 1.065,-0.075 0.54,-0.06 1.11,-0.15 0.585,-0.09 1.23,-0.21 0.21,-0.045 0.255,0.195 l 0.165,0.87 z m 3.495,-9.63 q 0,-0.195 0.21,-0.195 l 1.29,0 q 0.195,0 0.195,0.195 l 0,13.845 q 0,0.195 -0.195,0.195 l -1.305,0 q -0.195,0 -0.195,-0.195 l 0,-7.095 -1.29,0 0,6.525 q 0,0.21 -0.195,0.21 l -1.23,0 q -0.21,0 -0.21,-0.21 l 0,-13.005 q 0,-0.195 0.21,-0.195 l 1.23,0 q 0.195,0 0.195,0.195 l 0,5.04 1.29,0 0,-5.31 z"
         style="font-style:normal;font-variant:normal;font-weight:600;font-stretch:normal;font-size:15px;line-height:125%;font-family:NanumGothic;-inkscape-font-specification:'NanumGothic Semi-Bold';letter-spacing:0px;word-spacing:0px;fill:#f7400d;fill-opacity:1;stroke:none;stroke-width:1px;stroke-linecap:butt;stroke-linejoin:miter;stroke-opacity:1"
         id="path7777"
         inkscape:connector-curvature="0" />
      <path
         d="m 869.94056,684.39825 q -0.075,0.03 -0.18,0.015 -0.09,-0.03 -0.165,-0.15 l -0.54,-0.93 q -0.06,-0.12 -0.015,-0.21 0.06,-0.105 0.165,-0.135 1.125,-0.42 1.965,-0.9 0.855,-0.495 1.44,-1.125 0.6,-0.63 0.93,-1.44 0.345,-0.81 0.45,-1.875 0.015,-0.105 0.06,-0.21 0.06,-0.105 0.18,-0.09 l 1.305,0.06 q 0.255,0.015 0.24,0.33 -0.015,0.39 -0.09,0.735 0.18,0.72 0.63,1.38 0.45,0.66 1.095,1.215 0.66,0.54 1.455,0.96 0.795,0.42 1.65,0.66 0.105,0.03 0.12,0.135 0.03,0.09 0,0.165 l -0.51,0.96 q -0.12,0.225 -0.36,0.165 -0.69,-0.18 -1.395,-0.51 -0.69,-0.33 -1.335,-0.765 -0.645,-0.45 -1.185,-0.99 -0.54,-0.555 -0.915,-1.185 -0.75,1.32 -2.04,2.25 -1.275,0.93 -2.955,1.485 z m 11.445,2.52 q 0.075,0 0.15,0.075 0.075,0.075 0.075,0.165 l 0,0.975 q 0,0.075 -0.075,0.15 -0.075,0.075 -0.15,0.075 l -13.065,0 q -0.09,0 -0.15,-0.075 -0.06,-0.075 -0.06,-0.15 l 0,-0.975 q 0,-0.24 0.21,-0.24 l 13.065,0 z"
         style="font-style:normal;font-variant:normal;font-weight:600;font-stretch:normal;font-size:15px;line-height:125%;font-family:NanumGothic;-inkscape-font-specification:'NanumGothic Semi-Bold';letter-spacing:0px;word-spacing:0px;fill:#f7400d;fill-opacity:1;stroke:none;stroke-width:1px;stroke-linecap:butt;stroke-linejoin:miter;stroke-opacity:1"
         id="path7779"
         inkscape:connector-curvature="0" />
      <path
         d="m 895.70236,688.23825 q 0,0.075 -0.075,0.15 -0.075,0.075 -0.15,0.075 l -13.065,0 q -0.09,0 -0.15,-0.075 -0.06,-0.075 -0.06,-0.15 l 0,-0.945 q 0,-0.09 0.06,-0.165 0.06,-0.075 0.15,-0.075 l 5.685,0 0,-2.235 -2.685,0 q -0.33,0 -0.54,-0.045 -0.21,-0.045 -0.33,-0.165 -0.12,-0.12 -0.165,-0.3 -0.045,-0.195 -0.045,-0.495 l 0,-2.415 q 0,-0.3 0.045,-0.48 0.045,-0.195 0.165,-0.3 0.12,-0.12 0.33,-0.15 0.21,-0.045 0.54,-0.045 l 6.24,0 q 0.15,0 0.18,-0.03 0.045,-0.045 0.045,-0.21 l 0,-1.17 q 0,-0.165 -0.045,-0.18 -0.03,-0.03 -0.18,-0.03 l -7.065,0 q -0.075,0 -0.135,-0.06 -0.06,-0.075 -0.06,-0.15 l 0,-1.005 q 0,-0.075 0.06,-0.135 0.06,-0.06 0.135,-0.06 l 7.89,0 q 0.63,0 0.855,0.21 0.225,0.195 0.225,0.78 l 0,2.43 q 0,0.585 -0.225,0.795 -0.225,0.195 -0.855,0.195 l -6.255,0 q -0.15,0 -0.18,0.03 -0.03,0.03 -0.03,0.18 l 0,1.185 q 0,0.165 0.03,0.21 0.045,0.03 0.195,0.03 l 7.44,0 q 0.075,0 0.135,0.06 0.06,0.045 0.06,0.12 l 0,1.005 q 0,0.075 -0.075,0.135 -0.06,0.06 -0.12,0.06 l -3.855,0 0,2.235 5.655,0 q 0.075,0 0.15,0.09 0.075,0.075 0.075,0.15 l 0,0.945 z"
         style="font-style:normal;font-variant:normal;font-weight:600;font-stretch:normal;font-size:15px;line-height:125%;font-family:NanumGothic;-inkscape-font-specification:'NanumGothic Semi-Bold';letter-spacing:0px;word-spacing:0px;fill:#f7400d;fill-opacity:1;stroke:none;stroke-width:1px;stroke-linecap:butt;stroke-linejoin:miter;stroke-opacity:1"
         id="path7781"
         inkscape:connector-curvature="0" />
      <path
         d="m 913.98361,688.23825 q 0,0.075 -0.075,0.15 -0.075,0.075 -0.15,0.075 l -13.065,0 q -0.09,0 -0.15,-0.075 -0.06,-0.075 -0.06,-0.15 l 0,-0.945 q 0,-0.09 0.06,-0.165 0.06,-0.075 0.15,-0.075 l 5.685,0 0,-2.235 -2.685,0 q -0.33,0 -0.54,-0.045 -0.21,-0.045 -0.33,-0.165 -0.12,-0.12 -0.165,-0.3 -0.045,-0.195 -0.045,-0.495 l 0,-2.415 q 0,-0.3 0.045,-0.48 0.045,-0.195 0.165,-0.3 0.12,-0.12 0.33,-0.15 0.21,-0.045 0.54,-0.045 l 6.24,0 q 0.15,0 0.18,-0.03 0.045,-0.045 0.045,-0.21 l 0,-1.17 q 0,-0.165 -0.045,-0.18 -0.03,-0.03 -0.18,-0.03 l -7.065,0 q -0.075,0 -0.135,-0.06 -0.06,-0.075 -0.06,-0.15 l 0,-1.005 q 0,-0.075 0.06,-0.135 0.06,-0.06 0.135,-0.06 l 7.89,0 q 0.63,0 0.855,0.21 0.225,0.195 0.225,0.78 l 0,2.43 q 0,0.585 -0.225,0.795 -0.225,0.195 -0.855,0.195 l -6.255,0 q -0.15,0 -0.18,0.03 -0.03,0.03 -0.03,0.18 l 0,1.185 q 0,0.165 0.03,0.21 0.045,0.03 0.195,0.03 l 7.44,0 q 0.075,0 0.135,0.06 0.06,0.045 0.06,0.12 l 0,1.005 q 0,0.075 -0.075,0.135 -0.06,0.06 -0.12,0.06 l -3.855,0 0,2.235 5.655,0 q 0.075,0 0.15,0.09 0.075,0.075 0.075,0.15 l 0,0.945 z"
         style="font-style:normal;font-variant:normal;font-weight:600;font-stretch:normal;font-size:15px;line-height:125%;font-family:NanumGothic;-inkscape-font-specification:'NanumGothic Semi-Bold';letter-spacing:0px;word-spacing:0px;fill:#f7400d;fill-opacity:1;stroke:none;stroke-width:1px;stroke-linecap:butt;stroke-linejoin:miter;stroke-opacity:1"
         id="path7783"
         inkscape:connector-curvature="0" />
      <path
         d="m 928.07541,688.14825 q 0,0.075 -0.075,0.15 -0.075,0.075 -0.15,0.075 l -13.065,0 q -0.09,0 -0.15,-0.075 -0.06,-0.075 -0.06,-0.15 l 0,-0.99 q 0,-0.09 0.06,-0.15 0.06,-0.075 0.15,-0.075 l 9.045,0 q 0.24,-1.35 0.36,-3.21 0.135,-1.875 0.135,-4.005 0,-0.255 -0.06,-0.36 -0.06,-0.12 -0.315,-0.12 l -7.26,0 q -0.075,0 -0.135,-0.06 -0.06,-0.075 -0.06,-0.15 l 0,-0.99 q 0,-0.075 0.06,-0.135 0.06,-0.075 0.135,-0.075 l 8.355,0 q 0.66,0 0.84,0.345 0.195,0.33 0.195,0.885 0,2.01 -0.12,3.975 -0.105,1.965 -0.435,3.9 l 2.325,0 q 0.075,0 0.15,0.075 0.075,0.075 0.075,0.15 l 0,0.99 z"
         style="font-style:normal;font-variant:normal;font-weight:600;font-stretch:normal;font-size:15px;line-height:125%;font-family:NanumGothic;-inkscape-font-specification:'NanumGothic Semi-Bold';letter-spacing:0px;word-spacing:0px;fill:#f7400d;fill-opacity:1;stroke:none;stroke-width:1px;stroke-linecap:butt;stroke-linejoin:miter;stroke-opacity:1"
         id="path7785"
         inkscape:connector-curvature="0" />
      <path
         d="m 941.0722,690.42825 q 0,0.09 -0.075,0.135 -0.075,0.045 -0.15,0.045 l -7.77,0 q -0.675,0 -0.915,-0.24 -0.225,-0.24 -0.225,-0.825 l 0,-3.39 q 0,-0.075 0.06,-0.135 0.075,-0.075 0.15,-0.075 l 1.305,0 q 0.09,0 0.15,0.075 0.075,0.06 0.075,0.135 l 0,2.775 q 0,0.15 0.06,0.195 0.06,0.045 0.21,0.045 l 6.9,0 q 0.075,0 0.15,0.045 0.075,0.06 0.075,0.135 l 0,1.08 z m -0.465,-3.855 q 0,0.195 -0.195,0.195 l -1.335,0 q -0.195,0 -0.195,-0.21 l 0,-9.705 q 0,-0.195 0.195,-0.195 l 1.335,0 q 0.195,0 0.195,0.195 l 0,9.72 z m -3.855,-5.685 q 0,0.75 -0.27,1.41 -0.27,0.66 -0.765,1.155 -0.48,0.48 -1.155,0.765 -0.675,0.285 -1.485,0.285 -0.81,0 -1.47,-0.285 -0.66,-0.285 -1.14,-0.765 -0.48,-0.495 -0.75,-1.155 -0.255,-0.66 -0.255,-1.41 0,-0.72 0.255,-1.365 0.27,-0.66 0.75,-1.155 0.48,-0.51 1.14,-0.795 0.66,-0.3 1.47,-0.3 0.81,0 1.485,0.3 0.675,0.285 1.155,0.795 0.495,0.495 0.765,1.155 0.27,0.645 0.27,1.365 z m -1.71,0.03 q 0,-0.435 -0.15,-0.81 -0.135,-0.39 -0.405,-0.675 -0.255,-0.285 -0.615,-0.45 -0.36,-0.165 -0.795,-0.165 -0.435,0 -0.795,0.165 -0.345,0.165 -0.6,0.45 -0.255,0.285 -0.405,0.675 -0.135,0.375 -0.135,0.81 0,0.45 0.135,0.84 0.15,0.39 0.405,0.675 0.255,0.285 0.6,0.45 0.36,0.165 0.795,0.165 0.435,0 0.795,-0.165 0.36,-0.165 0.615,-0.45 0.27,-0.285 0.405,-0.675 0.15,-0.39 0.15,-0.84 z"
         style="font-style:normal;font-variant:normal;font-weight:600;font-stretch:normal;font-size:15px;line-height:125%;font-family:NanumGothic;-inkscape-font-specification:'NanumGothic Semi-Bold';letter-spacing:0px;word-spacing:0px;fill:#f7400d;fill-opacity:1;stroke:none;stroke-width:1px;stroke-linecap:butt;stroke-linejoin:miter;stroke-opacity:1"
         id="path7787"
         inkscape:connector-curvature="0" />
    </g>
  </g>
</svg>
