<?xml version="1.0" encoding="UTF-8" standalone="no"?>
<svg
   xmlns:dc="http://purl.org/dc/elements/1.1/"
   xmlns:cc="http://creativecommons.org/ns#"
   xmlns:rdf="http://www.w3.org/1999/02/22-rdf-syntax-ns#"
   xmlns:svg="http://www.w3.org/2000/svg"
   xmlns="http://www.w3.org/2000/svg"
   version="1.1"
   id="svg5037"
   viewBox="0 0 231.25038 50.000001"
   height="50"
   width="231.25038">
  <defs
     id="defs5039" />
  <metadata
     id="metadata5042">
    <rdf:RDF>
      <cc:Work
         rdf:about="">
        <dc:format>image/svg+xml</dc:format>
        <dc:type
           rdf:resource="http://purl.org/dc/dcmitype/StillImage" />
        <dc:title></dc:title>
      </cc:Work>
    </rdf:RDF>
  </metadata>
  <g
     transform="translate(0,-1002.3621)"
     id="layer1">
    <g
       id="g5631">
      <path
         id="path11614-5-6"
         style="display:inline;fill:#faeb30;fill-opacity:1;fill-rule:nonzero;stroke:none"
         d="m 231.25038,1048.0521 c 0,2.37 -1.93625,4.31 -4.30875,4.31 l -222.6375,0 c -2.365,0 -4.30375,-1.94 -4.30375,-4.31 l 0,-41.3788 c 0,-2.3712 1.93875,-4.3112 4.30375,-4.3112 l 222.6375,0 c 2.3725,0 4.30875,1.94 4.30875,4.3112 l 0,41.3788 z" />
      <path
         d="m 50.00038,1051.6477 -0.7125,0 0,-48.5712 0.7125,0 0,48.5712 z"
         style="display:inline;fill:#cfc43e;fill-opacity:1;fill-rule:nonzero;stroke:none"
         id="path11616-3-5" />
      <path
         id="path11620-8-9"
         style="display:inline;fill:#cfc43e;fill-opacity:1;fill-rule:nonzero;stroke:none"
         d="m 226.94125,1002.3621 -222.63625,0 c -2.36625,0 -4.305,1.94 -4.305,4.3112 l 0,41.3788 c 0,2.3687 1.93875,4.31 4.305,4.31 l 222.63625,0 c 2.37,0 4.30875,-1.9413 4.30875,-4.31 l 0,-41.3788 c 0,-2.3712 -1.93875,-4.3112 -4.30875,-4.3112 m 0,0.7137 c 1.9825,0 3.59375,1.6125 3.59375,3.5975 l 0,41.3788 c 0,1.9825 -1.61125,3.5962 -3.59375,3.5962 l -222.63625,0 c -1.98,0 -3.58875,-1.6137 -3.58875,-3.5962 l 0,-41.3788 c 0,-1.985 1.60875,-3.5975 3.58875,-3.5975 l 222.63625,0" />
      <path
         id="path5604"
         style="font-style:normal;font-variant:normal;font-weight:600;font-stretch:normal;font-size:15px;line-height:125%;font-family:NanumGothic;-inkscape-font-specification:'NanumGothic Semi-Bold';letter-spacing:0px;word-spacing:0px;fill:#35201e;fill-opacity:1;stroke:none;stroke-width:1px;stroke-linecap:butt;stroke-linejoin:miter;stroke-opacity:1"
         d="m 83.694999,1022.4796 q -0.09,1.365 -0.57,2.655 -0.465,1.29 -1.275,2.46 -0.795,1.155 -1.92,2.16 -1.125,0.99 -2.52,1.755 -0.12,0.075 -0.255,0.06 -0.12,-0.015 -0.195,-0.135 l -0.6,-0.84 q -0.075,-0.12 -0.045,-0.24 0.03,-0.12 0.15,-0.18 1.41,-0.765 2.505,-1.785 1.095,-1.02 1.815,-2.235 -0.93,0.09 -1.965,0.135 -1.02,0.045 -1.92,0.06 -0.06,0 -0.135,-0.06 -0.075,-0.06 -0.075,-0.18 l 0,-0.975 q 0,-0.09 0.075,-0.15 0.075,-0.06 0.12,-0.06 0.555,0 1.155,-0.015 0.615,-0.03 1.215,-0.06 0.615,-0.03 1.185,-0.06 0.57,-0.03 1.05,-0.075 0.12,-0.36 0.195,-0.72 0.09,-0.36 0.165,-0.705 0.045,-0.3 -0.045,-0.39 -0.075,-0.105 -0.36,-0.105 l -4.215,0 q -0.21,0 -0.21,-0.21 l 0,-1.05 q 0,-0.18 0.21,-0.18 l 5.415,0 q 0.675,0 0.885,0.285 0.21,0.27 0.165,0.84 z m 5.955,4.305 q 0,0.075 -0.075,0.15 -0.06,0.06 -0.15,0.06 l -2.025,0 0,7.275 q 0,0.195 -0.195,0.195 l -1.335,0 q -0.195,0 -0.195,-0.195 l 0,-13.845 q 0,-0.195 0.195,-0.195 l 1.335,0 q 0.195,0 0.195,0.195 l 0,5.13 2.025,0 q 0.09,0 0.15,0.06 0.075,0.045 0.075,0.12 l 0,1.05 z" />
      <path
         id="path5606"
         style="font-style:normal;font-variant:normal;font-weight:600;font-stretch:normal;font-size:15px;line-height:125%;font-family:NanumGothic;-inkscape-font-specification:'NanumGothic Semi-Bold';letter-spacing:0px;word-spacing:0px;fill:#35201e;fill-opacity:1;stroke:none;stroke-width:1px;stroke-linecap:butt;stroke-linejoin:miter;stroke-opacity:1"
         d="m 97.786796,1022.4796 q -0.09,1.365 -0.57,2.655 -0.465,1.29 -1.275,2.46 -0.795,1.155 -1.92,2.16 -1.125,0.99 -2.52,1.755 -0.12,0.075 -0.255,0.06 -0.12,-0.015 -0.195,-0.135 l -0.6,-0.84 q -0.075,-0.12 -0.045,-0.24 0.03,-0.12 0.15,-0.18 1.41,-0.765 2.505,-1.785 1.095,-1.02 1.815,-2.235 -0.93,0.09 -1.965,0.135 -1.02,0.045 -1.92,0.06 -0.06,0 -0.135,-0.06 -0.075,-0.06 -0.075,-0.18 l 0,-0.975 q 0,-0.09 0.075,-0.15 0.075,-0.06 0.12,-0.06 0.555,0 1.155,-0.015 0.615,-0.03 1.215,-0.06 0.615,-0.03 1.185,-0.06 0.57,-0.03 1.05,-0.075 0.12,-0.36 0.195,-0.72 0.09,-0.36 0.165,-0.705 0.045,-0.3 -0.045,-0.39 -0.075,-0.105 -0.36,-0.105 l -4.215,0 q -0.21,0 -0.21,-0.21 l 0,-1.05 q 0,-0.18 0.21,-0.18 l 5.415,0 q 0.675,0 0.885,0.285 0.21,0.27 0.165,0.84 z m 5.955004,4.305 q 0,0.075 -0.075,0.15 -0.06,0.06 -0.15,0.06 l -2.025,0 0,7.275 q 0,0.195 -0.195,0.195 l -1.335004,0 q -0.195,0 -0.195,-0.195 l 0,-13.845 q 0,-0.195 0.195,-0.195 l 1.335004,0 q 0.195,0 0.195,0.195 l 0,5.13 2.025,0 q 0.09,0 0.15,0.06 0.075,0.045 0.075,0.12 l 0,1.05 z" />
      <path
         id="path5608"
         style="font-style:normal;font-variant:normal;font-weight:600;font-stretch:normal;font-size:15px;line-height:125%;font-family:NanumGothic;-inkscape-font-specification:'NanumGothic Semi-Bold';letter-spacing:0px;word-spacing:0px;fill:#35201e;fill-opacity:1;stroke:none;stroke-width:1px;stroke-linecap:butt;stroke-linejoin:miter;stroke-opacity:1"
         d="m 117.62359,1031.8096 q 0,0.075 -0.075,0.15 -0.075,0.075 -0.15,0.075 l -13.065,0 q -0.09,0 -0.15,-0.075 -0.06,-0.075 -0.06,-0.15 l 0,-0.975 q 0,-0.24 0.21,-0.24 l 5.67,0 0,-2.775 q -0.885,-0.09 -1.635,-0.36 -0.735,-0.285 -1.275,-0.72 -0.54,-0.435 -0.84,-1.005 -0.3,-0.585 -0.3,-1.29 0,-0.78 0.375,-1.41 0.375,-0.63 1.035,-1.08 0.66,-0.45 1.56,-0.69 0.9,-0.24 1.95,-0.24 1.05,0 1.95,0.24 0.9,0.24 1.56,0.69 0.66,0.45 1.02,1.08 0.375,0.63 0.375,1.41 0,0.705 -0.3,1.29 -0.3,0.57 -0.84,1.005 -0.54,0.435 -1.29,0.72 -0.735,0.27 -1.62,0.36 l 0,2.775 5.67,0 q 0.075,0 0.15,0.075 0.075,0.075 0.075,0.165 l 0,0.975 z m -6.75,-9.36 q -0.63,0 -1.2,0.15 -0.57,0.135 -1.005,0.405 -0.42,0.255 -0.675,0.63 -0.255,0.36 -0.255,0.81 0,0.45 0.255,0.825 0.255,0.375 0.675,0.645 0.435,0.255 1.005,0.405 0.57,0.135 1.2,0.135 0.63,0 1.2,-0.135 0.57,-0.15 0.99,-0.405 0.435,-0.27 0.675,-0.645 0.255,-0.375 0.255,-0.825 0,-0.45 -0.255,-0.81 -0.24,-0.375 -0.675,-0.63 -0.42,-0.27 -0.99,-0.405 -0.57,-0.15 -1.2,-0.15 z" />
      <path
         id="path5610"
         style="font-style:normal;font-variant:normal;font-weight:600;font-stretch:normal;font-size:15px;line-height:125%;font-family:NanumGothic;-inkscape-font-specification:'NanumGothic Semi-Bold';letter-spacing:0px;word-spacing:0px;fill:#35201e;fill-opacity:1;stroke:none;stroke-width:1px;stroke-linecap:butt;stroke-linejoin:miter;stroke-opacity:1"
         d="m 121.41039,1026.2296 q -0.6,0 -0.84,-0.225 -0.225,-0.225 -0.225,-0.78 l 0,-3.735 q 0,-0.555 0.24,-0.78 0.255,-0.225 0.825,-0.225 l 7.92,0 q 0.21,0 0.21,0.195 l 0,0.915 q 0,0.195 -0.21,0.195 l -7.065,0 q -0.135,0 -0.165,0.03 -0.03,0.015 -0.03,0.165 l 0,0.735 7.035,0 q 0.075,0 0.15,0.06 0.075,0.06 0.075,0.135 l 0,0.885 q 0,0.09 -0.075,0.15 -0.075,0.045 -0.15,0.045 l -7.035,0 0,0.705 q 0,0.165 0.03,0.195 0.03,0.03 0.195,0.03 l 7.095,0 q 0.255,0 0.255,0.195 l 0,0.87 q 0,0.24 -0.255,0.24 l -3.57,0 0,1.275 5.655,0 q 0.075,0 0.15,0.075 0.075,0.06 0.075,0.135 l 0,0.96 q 0,0.09 -0.075,0.165 -0.075,0.075 -0.15,0.075 l -13.05,0 q -0.21,0 -0.21,-0.24 l 0,-0.96 q 0,-0.21 0.21,-0.21 l 5.67,0 0,-1.275 -2.685,0 z m 8.16,8.19 q 0,0.075 -0.075,0.135 -0.06,0.075 -0.135,0.075 l -1.29,0 q -0.09,0 -0.165,-0.075 -0.06,-0.06 -0.06,-0.135 l 0,-2.91 q 0,-0.15 -0.06,-0.195 -0.06,-0.045 -0.225,-0.045 l -7.305,0 q -0.075,0 -0.15,-0.045 -0.06,-0.06 -0.06,-0.135 l 0,-1.05 q 0,-0.09 0.06,-0.135 0.075,-0.045 0.15,-0.045 l 8.325,0 q 0.57,0 0.78,0.24 0.21,0.225 0.21,0.795 l 0,3.525 z" />
      <path
         id="path5612"
         style="font-style:normal;font-variant:normal;font-weight:600;font-stretch:normal;font-size:15px;line-height:125%;font-family:NanumGothic;-inkscape-font-specification:'NanumGothic Semi-Bold';letter-spacing:0px;word-spacing:0px;fill:#35201e;fill-opacity:1;stroke:none;stroke-width:1px;stroke-linecap:butt;stroke-linejoin:miter;stroke-opacity:1"
         d="m 145.80719,1031.7046 q 0,0.075 -0.075,0.15 -0.075,0.075 -0.15,0.075 l -13.065,0 q -0.09,0 -0.15,-0.075 -0.06,-0.075 -0.06,-0.15 l 0,-0.99 q 0,-0.09 0.06,-0.15 0.06,-0.075 0.15,-0.075 l 13.065,0 q 0.075,0 0.15,0.075 0.075,0.075 0.075,0.15 l 0,0.99 z m -6.75,-3.69 q -1.05,0 -1.95,-0.24 -0.9,-0.24 -1.56,-0.69 -0.66,-0.45 -1.035,-1.08 -0.375,-0.63 -0.375,-1.41 0,-0.78 0.375,-1.41 0.375,-0.63 1.035,-1.08 0.66,-0.45 1.56,-0.69 0.9,-0.24 1.95,-0.24 1.05,0 1.95,0.24 0.9,0.24 1.56,0.69 0.66,0.45 1.02,1.08 0.375,0.63 0.375,1.41 0,0.78 -0.375,1.41 -0.36,0.63 -1.02,1.08 -0.66,0.45 -1.56,0.69 -0.9,0.24 -1.95,0.24 z m 0,-5.415 q -0.63,0 -1.2,0.15 -0.57,0.135 -1.005,0.405 -0.42,0.255 -0.675,0.63 -0.255,0.36 -0.255,0.81 0,0.45 0.255,0.825 0.255,0.375 0.675,0.645 0.435,0.255 1.005,0.405 0.57,0.135 1.2,0.135 0.63,0 1.2,-0.135 0.57,-0.15 0.99,-0.405 0.435,-0.27 0.675,-0.645 0.255,-0.375 0.255,-0.825 0,-0.45 -0.255,-0.81 -0.24,-0.375 -0.675,-0.63 -0.42,-0.27 -0.99,-0.405 -0.57,-0.15 -1.2,-0.15 z" />
      <path
         id="path5614"
         style="font-style:normal;font-variant:normal;font-weight:600;font-stretch:normal;font-size:15px;line-height:125%;font-family:NanumGothic;-inkscape-font-specification:'NanumGothic Semi-Bold';letter-spacing:0px;word-spacing:0px;fill:#35201e;fill-opacity:1;stroke:none;stroke-width:1px;stroke-linecap:butt;stroke-linejoin:miter;stroke-opacity:1"
         d="m 159.89898,1031.8096 q 0,0.075 -0.075,0.15 -0.075,0.075 -0.15,0.075 l -13.065,0 q -0.09,0 -0.15,-0.075 -0.06,-0.075 -0.06,-0.15 l 0,-0.945 q 0,-0.09 0.06,-0.165 0.06,-0.075 0.15,-0.075 l 5.685,0 0,-2.235 -2.685,0 q -0.33,0 -0.54,-0.045 -0.21,-0.045 -0.33,-0.165 -0.12,-0.12 -0.165,-0.3 -0.045,-0.195 -0.045,-0.495 l 0,-2.415 q 0,-0.3 0.045,-0.48 0.045,-0.195 0.165,-0.3 0.12,-0.12 0.33,-0.15 0.21,-0.045 0.54,-0.045 l 6.24,0 q 0.15,0 0.18,-0.03 0.045,-0.045 0.045,-0.21 l 0,-1.17 q 0,-0.165 -0.045,-0.18 -0.03,-0.03 -0.18,-0.03 l -7.065,0 q -0.075,0 -0.135,-0.06 -0.06,-0.075 -0.06,-0.15 l 0,-1.005 q 0,-0.075 0.06,-0.135 0.06,-0.06 0.135,-0.06 l 7.89,0 q 0.63,0 0.855,0.21 0.225,0.195 0.225,0.78 l 0,2.43 q 0,0.585 -0.225,0.795 -0.225,0.195 -0.855,0.195 l -6.255,0 q -0.15,0 -0.18,0.03 -0.03,0.03 -0.03,0.18 l 0,1.185 q 0,0.165 0.03,0.21 0.045,0.03 0.195,0.03 l 7.44,0 q 0.075,0 0.135,0.06 0.06,0.045 0.06,0.12 l 0,1.005 q 0,0.075 -0.075,0.135 -0.06,0.06 -0.12,0.06 l -3.855,0 0,2.235 5.655,0 q 0.075,0 0.15,0.09 0.075,0.075 0.075,0.15 l 0,0.945 z" />
      <path
         id="path5616"
         style="font-style:normal;font-variant:normal;font-weight:600;font-stretch:normal;font-size:15px;line-height:125%;font-family:NanumGothic;-inkscape-font-specification:'NanumGothic Semi-Bold';letter-spacing:0px;word-spacing:0px;fill:#35201e;fill-opacity:1;stroke:none;stroke-width:1px;stroke-linecap:butt;stroke-linejoin:miter;stroke-opacity:1"
         d="m 178.18023,1031.8096 q 0,0.075 -0.075,0.15 -0.075,0.075 -0.15,0.075 l -13.065,0 q -0.09,0 -0.15,-0.075 -0.06,-0.075 -0.06,-0.15 l 0,-0.945 q 0,-0.09 0.06,-0.165 0.06,-0.075 0.15,-0.075 l 5.685,0 0,-2.235 -2.685,0 q -0.33,0 -0.54,-0.045 -0.21,-0.045 -0.33,-0.165 -0.12,-0.12 -0.165,-0.3 -0.045,-0.195 -0.045,-0.495 l 0,-2.415 q 0,-0.3 0.045,-0.48 0.045,-0.195 0.165,-0.3 0.12,-0.12 0.33,-0.15 0.21,-0.045 0.54,-0.045 l 6.24,0 q 0.15,0 0.18,-0.03 0.045,-0.045 0.045,-0.21 l 0,-1.17 q 0,-0.165 -0.045,-0.18 -0.03,-0.03 -0.18,-0.03 l -7.065,0 q -0.075,0 -0.135,-0.06 -0.06,-0.075 -0.06,-0.15 l 0,-1.005 q 0,-0.075 0.06,-0.135 0.06,-0.06 0.135,-0.06 l 7.89,0 q 0.63,0 0.855,0.21 0.225,0.195 0.225,0.78 l 0,2.43 q 0,0.585 -0.225,0.795 -0.225,0.195 -0.855,0.195 l -6.255,0 q -0.15,0 -0.18,0.03 -0.03,0.03 -0.03,0.18 l 0,1.185 q 0,0.165 0.03,0.21 0.045,0.03 0.195,0.03 l 7.44,0 q 0.075,0 0.135,0.06 0.06,0.045 0.06,0.12 l 0,1.005 q 0,0.075 -0.075,0.135 -0.06,0.06 -0.12,0.06 l -3.855,0 0,2.235 5.655,0 q 0.075,0 0.15,0.09 0.075,0.075 0.075,0.15 l 0,0.945 z" />
      <path
         id="path5618"
         style="font-style:normal;font-variant:normal;font-weight:600;font-stretch:normal;font-size:15px;line-height:125%;font-family:NanumGothic;-inkscape-font-specification:'NanumGothic Semi-Bold';letter-spacing:0px;word-spacing:0px;fill:#35201e;fill-opacity:1;stroke:none;stroke-width:1px;stroke-linecap:butt;stroke-linejoin:miter;stroke-opacity:1"
         d="m 192.27203,1031.7196 q 0,0.075 -0.075,0.15 -0.075,0.075 -0.15,0.075 l -13.065,0 q -0.09,0 -0.15,-0.075 -0.06,-0.075 -0.06,-0.15 l 0,-0.99 q 0,-0.09 0.06,-0.15 0.06,-0.075 0.15,-0.075 l 9.045,0 q 0.24,-1.35 0.36,-3.21 0.135,-1.875 0.135,-4.005 0,-0.255 -0.06,-0.36 -0.06,-0.12 -0.315,-0.12 l -7.26,0 q -0.075,0 -0.135,-0.06 -0.06,-0.075 -0.06,-0.15 l 0,-0.99 q 0,-0.075 0.06,-0.135 0.06,-0.075 0.135,-0.075 l 8.355,0 q 0.66,0 0.84,0.345 0.195,0.33 0.195,0.885 0,2.01 -0.12,3.975 -0.105,1.965 -0.435,3.9 l 2.325,0 q 0.075,0 0.15,0.075 0.075,0.075 0.075,0.15 l 0,0.99 z" />
      <path
         id="path5620"
         style="font-style:normal;font-variant:normal;font-weight:600;font-stretch:normal;font-size:15px;line-height:125%;font-family:NanumGothic;-inkscape-font-specification:'NanumGothic Semi-Bold';letter-spacing:0px;word-spacing:0px;fill:#35201e;fill-opacity:1;stroke:none;stroke-width:1px;stroke-linecap:butt;stroke-linejoin:miter;stroke-opacity:1"
         d="m 205.26883,1033.9996 q 0,0.09 -0.075,0.135 -0.075,0.045 -0.15,0.045 l -7.77,0 q -0.675,0 -0.915,-0.24 -0.225,-0.24 -0.225,-0.825 l 0,-3.39 q 0,-0.075 0.06,-0.135 0.075,-0.075 0.15,-0.075 l 1.305,0 q 0.09,0 0.15,0.075 0.075,0.06 0.075,0.135 l 0,2.775 q 0,0.15 0.06,0.195 0.06,0.045 0.21,0.045 l 6.9,0 q 0.075,0 0.15,0.045 0.075,0.06 0.075,0.135 l 0,1.08 z m -0.465,-3.855 q 0,0.195 -0.195,0.195 l -1.335,0 q -0.195,0 -0.195,-0.21 l 0,-9.705 q 0,-0.195 0.195,-0.195 l 1.335,0 q 0.195,0 0.195,0.195 l 0,9.72 z m -3.855,-5.685 q 0,0.75 -0.27,1.41 -0.27,0.66 -0.765,1.155 -0.48,0.48 -1.155,0.765 -0.675,0.285 -1.485,0.285 -0.81,0 -1.47,-0.285 -0.66,-0.285 -1.14,-0.765 -0.48,-0.495 -0.75,-1.155 -0.255,-0.66 -0.255,-1.41 0,-0.72 0.255,-1.365 0.27,-0.66 0.75,-1.155 0.48,-0.51 1.14,-0.795 0.66,-0.3 1.47,-0.3 0.81,0 1.485,0.3 0.675,0.285 1.155,0.795 0.495,0.495 0.765,1.155 0.27,0.645 0.27,1.365 z m -1.71,0.03 q 0,-0.435 -0.15,-0.81 -0.135,-0.39 -0.405,-0.675 -0.255,-0.285 -0.615,-0.45 -0.36,-0.165 -0.795,-0.165 -0.435,0 -0.795,0.165 -0.345,0.165 -0.6,0.45 -0.255,0.285 -0.405,0.675 -0.135,0.375 -0.135,0.81 0,0.45 0.135,0.84 0.15,0.39 0.405,0.675 0.255,0.285 0.6,0.45 0.36,0.165 0.795,0.165 0.435,0 0.795,-0.165 0.36,-0.165 0.615,-0.45 0.27,-0.285 0.405,-0.675 0.15,-0.39 0.15,-0.84 z" />
      <g
         id="g24"
         transform="matrix(0.1171875,0,0,-0.1171875,24.999999,1016.581)"
         style="fill:#35201e;fill-opacity:1">
        <path
           d="m 0,0 c -57.438,0 -104,-36.713 -104,-82 0,-29.279 19.466,-54.97 48.748,-69.477 -1.593,-5.494 -10.237,-35.343 -10.581,-37.689 0,0 -0.207,-1.762 0.934,-2.434 1.141,-0.671 2.483,-0.15 2.483,-0.15 3.272,0.457 37.943,24.811 43.944,29.04 5.995,-0.849 12.168,-1.29 18.472,-1.29 57.438,0 104,36.712 104,82 C 104,-36.713 57.438,0 0,0"
           style="fill:#35201e;fill-opacity:1;fill-rule:nonzero;stroke:none"
           id="path26" />
      </g>
    </g>
  </g>
</svg>
