<?xml version="1.0" encoding="UTF-8" standalone="no"?>
<!-- Created with Inkscape (http://www.inkscape.org/) -->

<svg
   xmlns:dc="http://purl.org/dc/elements/1.1/"
   xmlns:cc="http://creativecommons.org/ns#"
   xmlns:rdf="http://www.w3.org/1999/02/22-rdf-syntax-ns#"
   xmlns:svg="http://www.w3.org/2000/svg"
   xmlns="http://www.w3.org/2000/svg"
   xmlns:sodipodi="http://sodipodi.sourceforge.net/DTD/sodipodi-0.dtd"
   xmlns:inkscape="http://www.inkscape.org/namespaces/inkscape"
   width="108.23625"
   height="37.200001"
   viewBox="0 0 108.23625 37.200001"
   id="svg5227"
   version="1.1"
   inkscape:version="0.91 r13725"
   sodipodi:docname="login_kor.svg">
  <defs
     id="defs5229" />
  <sodipodi:namedview
     id="base"
     pagecolor="#ffffff"
     bordercolor="#666666"
     borderopacity="1.0"
     inkscape:pageopacity="0.0"
     inkscape:pageshadow="2"
     inkscape:zoom="5.6"
     inkscape:cx="36.998442"
     inkscape:cy="37.570354"
     inkscape:document-units="px"
     inkscape:current-layer="text5213"
     showgrid="false"
     units="px"
     fit-margin-top="0"
     fit-margin-left="0"
     fit-margin-right="0"
     fit-margin-bottom="0"
     inkscape:window-width="1916"
     inkscape:window-height="1155"
     inkscape:window-x="4"
     inkscape:window-y="1"
     inkscape:window-maximized="1" />
  <metadata
     id="metadata5232">
    <rdf:RDF>
      <cc:Work
         rdf:about="">
        <dc:format>image/svg+xml</dc:format>
        <dc:type
           rdf:resource="http://purl.org/dc/dcmitype/StillImage" />
        <dc:title></dc:title>
      </cc:Work>
    </rdf:RDF>
  </metadata>
  <g
     inkscape:label="Layer 1"
     inkscape:groupmode="layer"
     id="layer1"
     transform="translate(905.5467,-1293.7622)">
    <g
       style="font-style:normal;font-weight:normal;font-size:40px;line-height:125%;font-family:sans-serif;letter-spacing:0px;word-spacing:0px;fill:#f7400d;fill-opacity:1;stroke:none;stroke-width:1px;stroke-linecap:butt;stroke-linejoin:miter;stroke-opacity:1"
       id="text5213">
      <g
         id="g5795">
        <g
           id="g5790">
          <path
             d="m -869.5467,1324.6422 q 0,0.2 -0.2,0.4 -0.2,0.2 -0.4,0.2 l -34.84,0 q -0.24,0 -0.4,-0.2 -0.16,-0.2 -0.16,-0.4 l 0,-2.52 q 0,-0.24 0.16,-0.44 0.16,-0.2 0.4,-0.2 l 15.16,0 0,-5.96 -7.16,0 q -0.88,0 -1.44,-0.12 -0.56,-0.12 -0.88,-0.44 -0.32,-0.32 -0.44,-0.8 -0.12,-0.52 -0.12,-1.32 l 0,-6.44 q 0,-0.8 0.12,-1.28 0.12,-0.52 0.44,-0.8 0.32,-0.32 0.88,-0.4 0.56,-0.12 1.44,-0.12 l 16.64,0 q 0.4,0 0.48,-0.08 0.12,-0.12 0.12,-0.56 l 0,-3.12 q 0,-0.44 -0.12,-0.48 -0.08,-0.08 -0.48,-0.08 l -18.84,0 q -0.2,0 -0.36,-0.16 -0.16,-0.2 -0.16,-0.4 l 0,-2.68 q 0,-0.2 0.16,-0.36 0.16,-0.16 0.36,-0.16 l 21.04,0 q 1.68,0 2.28,0.56 0.6,0.52 0.6,2.08 l 0,6.48 q 0,1.56 -0.6,2.12 -0.6,0.52 -2.28,0.52 l -16.68,0 q -0.4,0 -0.48,0.08 -0.08,0.08 -0.08,0.48 l 0,3.16 q 0,0.44 0.08,0.56 0.12,0.08 0.52,0.08 l 19.84,0 q 0.2,0 0.36,0.16 0.16,0.12 0.16,0.32 l 0,2.68 q 0,0.2 -0.2,0.36 -0.16,0.16 -0.32,0.16 l -10.28,0 0,5.96 15.08,0 q 0.2,0 0.4,0.24 0.2,0.2 0.2,0.4 l 0,2.52 z"
             style="font-style:normal;font-variant:normal;font-weight:600;font-stretch:normal;font-family:NanumGothic;-inkscape-font-specification:'NanumGothic Semi-Bold'"
             id="path5784" />
          <path
             d="m -831.96858,1324.4022 q 0,0.2 -0.2,0.4 -0.2,0.2 -0.4,0.2 l -34.84,0 q -0.24,0 -0.4,-0.2 -0.16,-0.2 -0.16,-0.4 l 0,-2.64 q 0,-0.24 0.16,-0.4 0.16,-0.2 0.4,-0.2 l 24.12,0 q 0.64,-3.6 0.96,-8.56 0.36,-5 0.36,-10.68 0,-0.68 -0.16,-0.96 -0.16,-0.32 -0.84,-0.32 l -19.36,0 q -0.2,0 -0.36,-0.16 -0.16,-0.2 -0.16,-0.4 l 0,-2.64 q 0,-0.2 0.16,-0.36 0.16,-0.2 0.36,-0.2 l 22.28,0 q 1.76,0 2.24,0.92 0.52,0.88 0.52,2.36 0,5.36 -0.32,10.6 -0.28,5.24 -1.16,10.4 l 6.2,0 q 0.2,0 0.4,0.2 0.2,0.2 0.2,0.4 l 0,2.64 z"
             style="font-style:normal;font-variant:normal;font-weight:600;font-stretch:normal;font-family:NanumGothic;-inkscape-font-specification:'NanumGothic Semi-Bold'"
             id="path5786" />
          <path
             d="m -797.31045,1330.4822 q 0,0.24 -0.2,0.36 -0.2,0.12 -0.4,0.12 l -20.72,0 q -1.8,0 -2.44,-0.64 -0.6,-0.64 -0.6,-2.2 l 0,-9.04 q 0,-0.2 0.16,-0.36 0.2,-0.2 0.4,-0.2 l 3.48,0 q 0.24,0 0.4,0.2 0.2,0.16 0.2,0.36 l 0,7.4 q 0,0.4 0.16,0.52 0.16,0.12 0.56,0.12 l 18.4,0 q 0.2,0 0.4,0.12 0.2,0.16 0.2,0.36 l 0,2.88 z m -1.24,-10.28 q 0,0.52 -0.52,0.52 l -3.56,0 q -0.52,0 -0.52,-0.56 l 0,-25.88 q 0,-0.52 0.52,-0.52 l 3.56,0 q 0.52,0 0.52,0.52 l 0,25.92 z m -10.28,-15.16 q 0,2 -0.72,3.76 -0.72,1.76 -2.04,3.08 -1.28,1.28 -3.08,2.04 -1.8,0.76 -3.96,0.76 -2.16,0 -3.92,-0.76 -1.76,-0.76 -3.04,-2.04 -1.28,-1.32 -2,-3.08 -0.68,-1.76 -0.68,-3.76 0,-1.92 0.68,-3.64 0.72,-1.76 2,-3.08 1.28,-1.36 3.04,-2.12 1.76,-0.8 3.92,-0.8 2.16,0 3.96,0.8 1.8,0.76 3.08,2.12 1.32,1.32 2.04,3.08 0.72,1.72 0.72,3.64 z m -4.56,0.08 q 0,-1.16 -0.4,-2.16 -0.36,-1.04 -1.08,-1.8 -0.68,-0.76 -1.64,-1.2 -0.96,-0.44 -2.12,-0.44 -1.16,0 -2.12,0.44 -0.92,0.44 -1.6,1.2 -0.68,0.76 -1.08,1.8 -0.36,1 -0.36,2.16 0,1.2 0.36,2.24 0.4,1.04 1.08,1.8 0.68,0.76 1.6,1.2 0.96,0.44 2.12,0.44 1.16,0 2.12,-0.44 0.96,-0.44 1.64,-1.2 0.72,-0.76 1.08,-1.8 0.4,-1.04 0.4,-2.24 z"
             style="font-style:normal;font-variant:normal;font-weight:600;font-stretch:normal;font-family:NanumGothic;-inkscape-font-specification:'NanumGothic Semi-Bold'"
             id="path5788" />
        </g>
      </g>
    </g>
  </g>
</svg>
