<?xml version="1.0" encoding="UTF-8" standalone="no"?>
<svg
   xmlns:dc="http://purl.org/dc/elements/1.1/"
   xmlns:cc="http://creativecommons.org/ns#"
   xmlns:rdf="http://www.w3.org/1999/02/22-rdf-syntax-ns#"
   xmlns:svg="http://www.w3.org/2000/svg"
   xmlns="http://www.w3.org/2000/svg"
   version="1.1"
   id="svg5680"
   viewBox="0 0 231.25038 50.000001"
   height="50"
   width="231.25038">
  <defs
     id="defs5682" />
  <metadata
     id="metadata5685">
    <rdf:RDF>
      <cc:Work
         rdf:about="">
        <dc:format>image/svg+xml</dc:format>
        <dc:type
           rdf:resource="http://purl.org/dc/dcmitype/StillImage" />
        <dc:title></dc:title>
      </cc:Work>
    </rdf:RDF>
  </metadata>
  <g
     transform="translate(0,-1002.3621)"
     id="layer1">
    <g
       id="g6272">
      <path
         id="path11614-5"
         style="display:inline;fill:#3c5a99;fill-opacity:1;fill-rule:nonzero;stroke:none"
         d="m 231.25038,1048.0521 c 0,2.37 -1.93625,4.31 -4.30875,4.31 l -222.6375,0 c -2.365,0 -4.30375,-1.94 -4.30375,-4.31 l 0,-41.3788 c 0,-2.3712 1.93875,-4.3112 4.30375,-4.3112 l 222.6375,0 c 2.3725,0 4.30875,1.94 4.30875,4.3112 l 0,41.3788 z" />
      <path
         d="m 50.00038,1051.6477 -0.7125,0 0,-48.5712 0.7125,0 0,48.5712 z"
         style="display:inline;fill:#32456f;fill-opacity:1;fill-rule:nonzero;stroke:none"
         id="path11616-3" />
      <path
         id="path11620-8"
         style="display:inline;fill:#32456f;fill-opacity:1;fill-rule:nonzero;stroke:none"
         d="m 226.94125,1002.3621 -222.63625,0 c -2.36625,0 -4.305,1.94 -4.305,4.3112 l 0,41.3788 c 0,2.3687 1.93875,4.31 4.305,4.31 l 222.63625,0 c 2.37,0 4.30875,-1.9413 4.30875,-4.31 l 0,-41.3788 c 0,-2.3712 -1.93875,-4.3112 -4.30875,-4.3112 m 0,0.7137 c 1.9825,0 3.59375,1.6125 3.59375,3.5975 l 0,41.3788 c 0,1.9825 -1.61125,3.5962 -3.59375,3.5962 l -222.63625,0 c -1.98,0 -3.58875,-1.6137 -3.58875,-3.5962 l 0,-41.3788 c 0,-1.985 1.60875,-3.5975 3.58875,-3.5975 l 222.63625,0" />
      <path
         id="path6245"
         style="font-style:normal;font-variant:normal;font-weight:600;font-stretch:normal;font-size:15px;line-height:125%;font-family:NanumGothic;-inkscape-font-specification:'NanumGothic Semi-Bold';letter-spacing:0px;word-spacing:0px;fill:#ffffff;fill-opacity:1;stroke:none;stroke-width:1px;stroke-linecap:butt;stroke-linejoin:miter;stroke-opacity:1"
         d="m 77.999999,1029.1846 q 0,-0.21 0.21,-0.21 l 1.05,0 0,-6.06 -0.93,0 q -0.075,0 -0.165,-0.075 -0.075,-0.075 -0.075,-0.165 l 0,-0.93 q 0,-0.075 0.075,-0.15 0.09,-0.09 0.165,-0.09 l 6.45,0 q 0.09,0 0.15,0.075 0.075,0.06 0.075,0.165 l 0,0.945 q -0.03,0.06 -0.075,0.12 -0.075,0.105 -0.15,0.105 l -0.96,0 0,5.91 q 0.345,-0.03 0.645,-0.075 0.315,-0.045 0.6,-0.09 0.075,-0.015 0.15,0.03 0.09,0.03 0.105,0.105 l 0.135,0.93 q 0.03,0.12 -0.045,0.195 -0.06,0.06 -0.135,0.075 -0.675,0.135 -1.53,0.225 -0.84,0.075 -1.77,0.12 -0.93,0.045 -1.89,0.06 -0.96,0 -1.875,-0.03 -0.09,0 -0.15,-0.06 -0.06,-0.075 -0.06,-0.165 l 0,-0.96 z m 8.31,-8.505 q 0,-0.195 0.21,-0.195 l 1.215,0 q 0.21,0 0.21,0.195 l 0,13.095 q 0,0.21 -0.21,0.21 l -1.215,0 q -0.21,0 -0.21,-0.21 l 0,-7.305 -1.485,0 q -0.09,0 -0.165,-0.06 -0.06,-0.06 -0.06,-0.135 l 0,-1.035 q 0,-0.075 0.06,-0.12 0.075,-0.06 0.165,-0.06 l 1.485,0 0,-4.38 z m 4.35,13.62 q 0,0.195 -0.195,0.195 l -1.305,0 q -0.195,0 -0.195,-0.195 l 0,-13.875 q 0,-0.195 0.21,-0.195 l 1.29,0 q 0.195,0 0.195,0.195 l 0,13.875 z m -9.825,-5.34 q 0.375,-0.015 0.72,-0.015 0.345,0 0.69,-0.03 l 0,-6 -1.41,0 0,6.045 z" />
      <path
         id="path6247"
         style="font-style:normal;font-variant:normal;font-weight:600;font-stretch:normal;font-size:15px;line-height:125%;font-family:NanumGothic;-inkscape-font-specification:'NanumGothic Semi-Bold';letter-spacing:0px;word-spacing:0px;fill:#ffffff;fill-opacity:1;stroke:none;stroke-width:1px;stroke-linecap:butt;stroke-linejoin:miter;stroke-opacity:1"
         d="m 104.1068,1034.2696 q 0,0.195 -0.195,0.195 l -1.335,0 q -0.195,0 -0.195,-0.195 l 0,-13.845 q 0,-0.195 0.195,-0.195 l 1.335,0 q 0.195,0 0.195,0.195 l 0,13.845 z m -5.415004,-8.205 q 0,-0.69 -0.135,-1.305 -0.135,-0.63 -0.39,-1.095 -0.255,-0.465 -0.63,-0.735 -0.36,-0.27 -0.84,-0.27 -0.48,0 -0.855,0.27 -0.36,0.27 -0.615,0.735 -0.255,0.465 -0.39,1.095 -0.135,0.615 -0.135,1.305 0,0.675 0.135,1.305 0.135,0.615 0.39,1.095 0.255,0.465 0.615,0.75 0.375,0.27 0.855,0.27 0.48,0 0.84,-0.27 0.375,-0.285 0.63,-0.75 0.255,-0.48 0.39,-1.095 0.135,-0.63 0.135,-1.305 z m -1.995,4.95 q -0.855,0 -1.545,-0.36 -0.69,-0.36 -1.17,-1.005 -0.465,-0.66 -0.72,-1.575 -0.255,-0.915 -0.255,-2.01 0,-1.125 0.255,-2.04 0.255,-0.915 0.72,-1.545 0.48,-0.645 1.17,-0.99 0.69,-0.36 1.545,-0.36 0.87,0 1.545,0.36 0.69,0.345 1.155,0.99 0.48,0.63 0.735004,1.545 0.255,0.915 0.255,2.04 0,1.125 -0.255,2.04 -0.255004,0.915 -0.735004,1.56 -0.465,0.645 -1.155,1.005 -0.675,0.345 -1.545,0.345 z" />
      <path
         id="path6249"
         style="font-style:normal;font-variant:normal;font-weight:600;font-stretch:normal;font-size:15px;line-height:125%;font-family:NanumGothic;-inkscape-font-specification:'NanumGothic Semi-Bold';letter-spacing:0px;word-spacing:0px;fill:#ffffff;fill-opacity:1;stroke:none;stroke-width:1px;stroke-linecap:butt;stroke-linejoin:miter;stroke-opacity:1"
         d="m 107.95359,1027.9696 q -0.075,0.03 -0.18,0.015 -0.09,-0.03 -0.165,-0.15 l -0.54,-0.93 q -0.06,-0.12 -0.015,-0.21 0.06,-0.105 0.165,-0.135 1.125,-0.42 1.965,-0.9 0.855,-0.495 1.44,-1.125 0.6,-0.63 0.93,-1.44 0.345,-0.81 0.45,-1.875 0.015,-0.105 0.06,-0.21 0.06,-0.105 0.18,-0.09 l 1.305,0.06 q 0.255,0.015 0.24,0.33 -0.015,0.39 -0.09,0.735 0.18,0.72 0.63,1.38 0.45,0.66 1.095,1.215 0.66,0.54 1.455,0.96 0.795,0.42 1.65,0.66 0.105,0.03 0.12,0.135 0.03,0.09 0,0.165 l -0.51,0.96 q -0.12,0.225 -0.36,0.165 -0.69,-0.18 -1.395,-0.51 -0.69,-0.33 -1.335,-0.765 -0.645,-0.45 -1.185,-0.99 -0.54,-0.555 -0.915,-1.185 -0.75,1.32 -2.04,2.25 -1.275,0.93 -2.955,1.485 z m 11.445,2.52 q 0.075,0 0.15,0.075 0.075,0.075 0.075,0.165 l 0,0.975 q 0,0.075 -0.075,0.15 -0.075,0.075 -0.15,0.075 l -13.065,0 q -0.09,0 -0.15,-0.075 -0.06,-0.075 -0.06,-0.15 l 0,-0.975 q 0,-0.24 0.21,-0.24 l 13.065,0 z" />
      <path
         id="path6251"
         style="font-style:normal;font-variant:normal;font-weight:600;font-stretch:normal;font-size:15px;line-height:125%;font-family:NanumGothic;-inkscape-font-specification:'NanumGothic Semi-Bold';letter-spacing:0px;word-spacing:0px;fill:#ffffff;fill-opacity:1;stroke:none;stroke-width:1px;stroke-linecap:butt;stroke-linejoin:miter;stroke-opacity:1"
         d="m 131.55539,1034.2696 q 0,0.075 -0.075,0.135 -0.06,0.075 -0.135,0.075 l -1.29,0 q -0.09,0 -0.165,-0.075 -0.06,-0.06 -0.06,-0.135 l 0,-2.895 q 0,-0.15 -0.06,-0.195 -0.06,-0.045 -0.225,-0.045 l -7.275,0 q -0.075,0 -0.15,-0.045 -0.06,-0.06 -0.06,-0.135 l 0,-1.08 q 0,-0.09 0.06,-0.135 0.075,-0.045 0.15,-0.045 l 3.825,0 0,-1.44 -5.67,0 q -0.21,0 -0.21,-0.21 l 0,-1.005 q 0,-0.09 0.06,-0.15 0.06,-0.075 0.15,-0.075 l 13.05,0 q 0.075,0 0.15,0.075 0.075,0.075 0.075,0.15 l 0,1.005 q 0,0.075 -0.075,0.15 -0.075,0.06 -0.15,0.06 l -5.655,0 0,1.44 2.745,0 q 0.57,0 0.78,0.24 0.21,0.225 0.21,0.795 l 0,3.54 z m -0.06,-9.525 q 0,0.51 -0.24,0.765 -0.24,0.255 -0.9,0.255 l -6.795,0 q -0.675,0 -0.915,-0.225 -0.24,-0.24 -0.24,-0.84 l 0,-4.08 q 0,-0.075 0.06,-0.12 0.06,-0.06 0.135,-0.06 l 1.32,0 q 0.075,0 0.135,0.06 0.075,0.045 0.075,0.12 l 0,1.185 5.64,0 0,-1.2 q 0,-0.075 0.06,-0.135 0.06,-0.06 0.135,-0.06 l 1.335,0 q 0.075,0 0.135,0.06 0.06,0.06 0.06,0.135 l 0,4.14 z m -1.725,-1.59 -5.64,0 0,0.975 q 0,0.255 0.285,0.255 l 5.07,0 q 0.285,0 0.285,-0.255 l 0,-0.975 z" />
      <path
         id="path6253"
         style="font-style:normal;font-variant:normal;font-weight:600;font-stretch:normal;font-size:15px;line-height:125%;font-family:NanumGothic;-inkscape-font-specification:'NanumGothic Semi-Bold';letter-spacing:0px;word-spacing:0px;fill:#ffffff;fill-opacity:1;stroke:none;stroke-width:1px;stroke-linecap:butt;stroke-linejoin:miter;stroke-opacity:1"
         d="m 147.80719,1031.7046 q 0,0.075 -0.075,0.15 -0.075,0.075 -0.15,0.075 l -13.065,0 q -0.09,0 -0.15,-0.075 -0.06,-0.075 -0.06,-0.15 l 0,-0.99 q 0,-0.09 0.06,-0.15 0.06,-0.075 0.15,-0.075 l 13.065,0 q 0.075,0 0.15,0.075 0.075,0.075 0.075,0.15 l 0,0.99 z m -6.75,-3.69 q -1.05,0 -1.95,-0.24 -0.9,-0.24 -1.56,-0.69 -0.66,-0.45 -1.035,-1.08 -0.375,-0.63 -0.375,-1.41 0,-0.78 0.375,-1.41 0.375,-0.63 1.035,-1.08 0.66,-0.45 1.56,-0.69 0.9,-0.24 1.95,-0.24 1.05,0 1.95,0.24 0.9,0.24 1.56,0.69 0.66,0.45 1.02,1.08 0.375,0.63 0.375,1.41 0,0.78 -0.375,1.41 -0.36,0.63 -1.02,1.08 -0.66,0.45 -1.56,0.69 -0.9,0.24 -1.95,0.24 z m 0,-5.415 q -0.63,0 -1.2,0.15 -0.57,0.135 -1.005,0.405 -0.42,0.255 -0.675,0.63 -0.255,0.36 -0.255,0.81 0,0.45 0.255,0.825 0.255,0.375 0.675,0.645 0.435,0.255 1.005,0.405 0.57,0.135 1.2,0.135 0.63,0 1.2,-0.135 0.57,-0.15 0.99,-0.405 0.435,-0.27 0.675,-0.645 0.255,-0.375 0.255,-0.825 0,-0.45 -0.255,-0.81 -0.24,-0.375 -0.675,-0.63 -0.42,-0.27 -0.99,-0.405 -0.57,-0.15 -1.2,-0.15 z" />
      <path
         id="path6255"
         style="font-style:normal;font-variant:normal;font-weight:600;font-stretch:normal;font-size:15px;line-height:125%;font-family:NanumGothic;-inkscape-font-specification:'NanumGothic Semi-Bold';letter-spacing:0px;word-spacing:0px;fill:#ffffff;fill-opacity:1;stroke:none;stroke-width:1px;stroke-linecap:butt;stroke-linejoin:miter;stroke-opacity:1"
         d="m 161.89898,1031.8096 q 0,0.075 -0.075,0.15 -0.075,0.075 -0.15,0.075 l -13.065,0 q -0.09,0 -0.15,-0.075 -0.06,-0.075 -0.06,-0.15 l 0,-0.945 q 0,-0.09 0.06,-0.165 0.06,-0.075 0.15,-0.075 l 5.685,0 0,-2.235 -2.685,0 q -0.33,0 -0.54,-0.045 -0.21,-0.045 -0.33,-0.165 -0.12,-0.12 -0.165,-0.3 -0.045,-0.195 -0.045,-0.495 l 0,-2.415 q 0,-0.3 0.045,-0.48 0.045,-0.195 0.165,-0.3 0.12,-0.12 0.33,-0.15 0.21,-0.045 0.54,-0.045 l 6.24,0 q 0.15,0 0.18,-0.03 0.045,-0.045 0.045,-0.21 l 0,-1.17 q 0,-0.165 -0.045,-0.18 -0.03,-0.03 -0.18,-0.03 l -7.065,0 q -0.075,0 -0.135,-0.06 -0.06,-0.075 -0.06,-0.15 l 0,-1.005 q 0,-0.075 0.06,-0.135 0.06,-0.06 0.135,-0.06 l 7.89,0 q 0.63,0 0.855,0.21 0.225,0.195 0.225,0.78 l 0,2.43 q 0,0.585 -0.225,0.795 -0.225,0.195 -0.855,0.195 l -6.255,0 q -0.15,0 -0.18,0.03 -0.03,0.03 -0.03,0.18 l 0,1.185 q 0,0.165 0.03,0.21 0.045,0.03 0.195,0.03 l 7.44,0 q 0.075,0 0.135,0.06 0.06,0.045 0.06,0.12 l 0,1.005 q 0,0.075 -0.075,0.135 -0.06,0.06 -0.12,0.06 l -3.855,0 0,2.235 5.655,0 q 0.075,0 0.15,0.09 0.075,0.075 0.075,0.15 l 0,0.945 z" />
      <path
         id="path6257"
         style="font-style:normal;font-variant:normal;font-weight:600;font-stretch:normal;font-size:15px;line-height:125%;font-family:NanumGothic;-inkscape-font-specification:'NanumGothic Semi-Bold';letter-spacing:0px;word-spacing:0px;fill:#ffffff;fill-opacity:1;stroke:none;stroke-width:1px;stroke-linecap:butt;stroke-linejoin:miter;stroke-opacity:1"
         d="m 180.18023,1031.8096 q 0,0.075 -0.075,0.15 -0.075,0.075 -0.15,0.075 l -13.065,0 q -0.09,0 -0.15,-0.075 -0.06,-0.075 -0.06,-0.15 l 0,-0.945 q 0,-0.09 0.06,-0.165 0.06,-0.075 0.15,-0.075 l 5.685,0 0,-2.235 -2.685,0 q -0.33,0 -0.54,-0.045 -0.21,-0.045 -0.33,-0.165 -0.12,-0.12 -0.165,-0.3 -0.045,-0.195 -0.045,-0.495 l 0,-2.415 q 0,-0.3 0.045,-0.48 0.045,-0.195 0.165,-0.3 0.12,-0.12 0.33,-0.15 0.21,-0.045 0.54,-0.045 l 6.24,0 q 0.15,0 0.18,-0.03 0.045,-0.045 0.045,-0.21 l 0,-1.17 q 0,-0.165 -0.045,-0.18 -0.03,-0.03 -0.18,-0.03 l -7.065,0 q -0.075,0 -0.135,-0.06 -0.06,-0.075 -0.06,-0.15 l 0,-1.005 q 0,-0.075 0.06,-0.135 0.06,-0.06 0.135,-0.06 l 7.89,0 q 0.63,0 0.855,0.21 0.225,0.195 0.225,0.78 l 0,2.43 q 0,0.585 -0.225,0.795 -0.225,0.195 -0.855,0.195 l -6.255,0 q -0.15,0 -0.18,0.03 -0.03,0.03 -0.03,0.18 l 0,1.185 q 0,0.165 0.03,0.21 0.045,0.03 0.195,0.03 l 7.44,0 q 0.075,0 0.135,0.06 0.06,0.045 0.06,0.12 l 0,1.005 q 0,0.075 -0.075,0.135 -0.06,0.06 -0.12,0.06 l -3.855,0 0,2.235 5.655,0 q 0.075,0 0.15,0.09 0.075,0.075 0.075,0.15 l 0,0.945 z" />
      <path
         id="path6259"
         style="font-style:normal;font-variant:normal;font-weight:600;font-stretch:normal;font-size:15px;line-height:125%;font-family:NanumGothic;-inkscape-font-specification:'NanumGothic Semi-Bold';letter-spacing:0px;word-spacing:0px;fill:#ffffff;fill-opacity:1;stroke:none;stroke-width:1px;stroke-linecap:butt;stroke-linejoin:miter;stroke-opacity:1"
         d="m 194.27203,1031.7196 q 0,0.075 -0.075,0.15 -0.075,0.075 -0.15,0.075 l -13.065,0 q -0.09,0 -0.15,-0.075 -0.06,-0.075 -0.06,-0.15 l 0,-0.99 q 0,-0.09 0.06,-0.15 0.06,-0.075 0.15,-0.075 l 9.045,0 q 0.24,-1.35 0.36,-3.21 0.135,-1.875 0.135,-4.005 0,-0.255 -0.06,-0.36 -0.06,-0.12 -0.315,-0.12 l -7.26,0 q -0.075,0 -0.135,-0.06 -0.06,-0.075 -0.06,-0.15 l 0,-0.99 q 0,-0.075 0.06,-0.135 0.06,-0.075 0.135,-0.075 l 8.355,0 q 0.66,0 0.84,0.345 0.195,0.33 0.195,0.885 0,2.01 -0.12,3.975 -0.105,1.965 -0.435,3.9 l 2.325,0 q 0.075,0 0.15,0.075 0.075,0.075 0.075,0.15 l 0,0.99 z" />
      <path
         id="path6261"
         style="font-style:normal;font-variant:normal;font-weight:600;font-stretch:normal;font-size:15px;line-height:125%;font-family:NanumGothic;-inkscape-font-specification:'NanumGothic Semi-Bold';letter-spacing:0px;word-spacing:0px;fill:#ffffff;fill-opacity:1;stroke:none;stroke-width:1px;stroke-linecap:butt;stroke-linejoin:miter;stroke-opacity:1"
         d="m 207.26883,1033.9996 q 0,0.09 -0.075,0.135 -0.075,0.045 -0.15,0.045 l -7.77,0 q -0.675,0 -0.915,-0.24 -0.225,-0.24 -0.225,-0.825 l 0,-3.39 q 0,-0.075 0.06,-0.135 0.075,-0.075 0.15,-0.075 l 1.305,0 q 0.09,0 0.15,0.075 0.075,0.06 0.075,0.135 l 0,2.775 q 0,0.15 0.06,0.195 0.06,0.045 0.21,0.045 l 6.9,0 q 0.075,0 0.15,0.045 0.075,0.06 0.075,0.135 l 0,1.08 z m -0.465,-3.855 q 0,0.195 -0.195,0.195 l -1.335,0 q -0.195,0 -0.195,-0.21 l 0,-9.705 q 0,-0.195 0.195,-0.195 l 1.335,0 q 0.195,0 0.195,0.195 l 0,9.72 z m -3.855,-5.685 q 0,0.75 -0.27,1.41 -0.27,0.66 -0.765,1.155 -0.48,0.48 -1.155,0.765 -0.675,0.285 -1.485,0.285 -0.81,0 -1.47,-0.285 -0.66,-0.285 -1.14,-0.765 -0.48,-0.495 -0.75,-1.155 -0.255,-0.66 -0.255,-1.41 0,-0.72 0.255,-1.365 0.27,-0.66 0.75,-1.155 0.48,-0.51 1.14,-0.795 0.66,-0.3 1.47,-0.3 0.81,0 1.485,0.3 0.675,0.285 1.155,0.795 0.495,0.495 0.765,1.155 0.27,0.645 0.27,1.365 z m -1.71,0.03 q 0,-0.435 -0.15,-0.81 -0.135,-0.39 -0.405,-0.675 -0.255,-0.285 -0.615,-0.45 -0.36,-0.165 -0.795,-0.165 -0.435,0 -0.795,0.165 -0.345,0.165 -0.6,0.45 -0.255,0.285 -0.405,0.675 -0.135,0.375 -0.135,0.81 0,0.45 0.135,0.84 0.15,0.39 0.405,0.675 0.255,0.285 0.6,0.45 0.36,0.165 0.795,0.165 0.435,0 0.795,-0.165 0.36,-0.165 0.615,-0.45 0.27,-0.285 0.405,-0.675 0.15,-0.39 0.15,-0.84 z" />
      <path
         style="display:inline;fill:#ffffff;fill-opacity:1"
         d="m 11.65625,1012.3622 c -0.914608,0 -1.65625,0.7417 -1.65625,1.6563 l 0,26.6875 c 0,0.9143 0.741525,1.6562 1.65625,1.6562 l 14.367188,0 0,-11.6172 -3.908204,0 0,-4.5273 3.908204,0 0,-3.3399 c 0,-3.8748 2.367519,-5.9843 5.824218,-5.9843 1.655769,0 3.077548,0.1225 3.492188,0.1777 l 0,4.0508 -2.396485,0 c -1.879737,0 -2.24414,0.8942 -2.24414,2.205 l 0,2.8907 4.484375,0 -0.583985,4.5273 -3.90039,0 0,11.6172 7.644531,0 c 0.914258,0 1.65625,-0.7418 1.65625,-1.6562 l 0,-26.6875 c 0,-0.9146 -0.741875,-1.6563 -1.65625,-1.6563 l -26.6875,0 z"
         id="Blue_1_" />
    </g>
  </g>
</svg>
