<?xml version="1.0" encoding="UTF-8" standalone="no"?>
<svg
   xmlns:dc="http://purl.org/dc/elements/1.1/"
   xmlns:cc="http://creativecommons.org/ns#"
   xmlns:rdf="http://www.w3.org/1999/02/22-rdf-syntax-ns#"
   xmlns:svg="http://www.w3.org/2000/svg"
   xmlns="http://www.w3.org/2000/svg"
   version="1.1"
   id="svg4158"
   viewBox="0 0 146.69438 38.12"
   height="38.119999"
   width="146.69438">
  <defs
     id="defs4160" />
  <metadata
     id="metadata4163">
    <rdf:RDF>
      <cc:Work
         rdf:about="">
        <dc:format>image/svg+xml</dc:format>
        <dc:type
           rdf:resource="http://purl.org/dc/dcmitype/StillImage" />
        <dc:title></dc:title>
      </cc:Work>
    </rdf:RDF>
  </metadata>
  <g
     transform="translate(-126.21714,-297.86507)"
     id="layer1">
    <g
       id="g4732">
      <path
         id="path4720"
         style="font-style:normal;font-variant:normal;font-weight:600;font-stretch:normal;font-size:medium;line-height:125%;font-family:NanumGothic;-inkscape-font-specification:'NanumGothic Semi-Bold';letter-spacing:0px;word-spacing:0px;fill:#f7400d;fill-opacity:1;stroke:none;stroke-width:1px;stroke-linecap:butt;stroke-linejoin:miter;stroke-opacity:1"
         d="m 155.81714,335.30507 q 0,0.52 -0.52,0.52 l -3.56,0 q -0.52,0 -0.52,-0.52 l 0,-36.92 q 0,-0.52 0.52,-0.52 l 3.56,0 q 0.52,0 0.52,0.52 l 0,36.92 z m -14.44,-21.88 q 0,-1.84 -0.36,-3.48 -0.36,-1.68 -1.04,-2.92 -0.68,-1.24 -1.68,-1.96 -0.96,-0.72 -2.24,-0.72 -1.28,0 -2.28,0.72 -0.96,0.72 -1.64,1.96 -0.68,1.24 -1.04,2.92 -0.36,1.64 -0.36,3.48 0,1.8 0.36,3.48 0.36,1.64 1.04,2.92 0.68,1.24 1.64,2 1,0.72 2.28,0.72 1.28,0 2.24,-0.72 1,-0.76 1.68,-2 0.68,-1.28 1.04,-2.92 0.36,-1.68 0.36,-3.48 z m -5.32,13.2 q -2.28,0 -4.12,-0.96 -1.84,-0.96 -3.12,-2.68 -1.24,-1.76 -1.92,-4.2 -0.68,-2.44 -0.68,-5.36 0,-3 0.68,-5.44 0.68,-2.44 1.92,-4.12 1.28,-1.72 3.12,-2.64 1.84,-0.96 4.12,-0.96 2.32,0 4.12,0.96 1.84,0.92 3.08,2.64 1.28,1.68 1.96,4.12 0.68,2.44 0.68,5.44 0,3 -0.68,5.44 -0.68,2.44 -1.96,4.16 -1.24,1.72 -3.08,2.68 -1.8,0.92 -4.12,0.92 z" />
      <path
         id="path4722"
         style="font-style:normal;font-variant:normal;font-weight:600;font-stretch:normal;font-size:medium;line-height:125%;font-family:NanumGothic;-inkscape-font-specification:'NanumGothic Semi-Bold';letter-spacing:0px;word-spacing:0px;fill:#f7400d;fill-opacity:1;stroke:none;stroke-width:1px;stroke-linecap:butt;stroke-linejoin:miter;stroke-opacity:1"
         d="m 197.19526,319.50507 q 0,0.2 -0.2,0.4 -0.2,0.2 -0.4,0.2 l -34.84,0 q -0.24,0 -0.4,-0.2 -0.16,-0.2 -0.16,-0.4 l 0,-2.52 q 0,-0.24 0.16,-0.4 0.16,-0.2 0.4,-0.2 l 8.64,0 0,-5.44 q -1.84,-0.92 -2.84,-2.28 -1,-1.36 -1,-3.08 0,-1.64 0.92,-2.96 0.96,-1.32 2.64,-2.24 1.68,-0.96 4,-1.44 2.36,-0.52 5.16,-0.52 2.8,0 5.12,0.52 2.32,0.48 4,1.44 1.68,0.92 2.6,2.24 0.96,1.32 0.96,2.96 0,1.76 -1.04,3.16 -1.04,1.36 -2.96,2.32 l 0,5.32 8.64,0 q 0.2,0 0.4,0.2 0.2,0.2 0.2,0.4 l 0,2.52 z m -5.28,9.64 q 0,1.52 -0.88,2.76 -0.84,1.24 -2.48,2.16 -1.6,0.92 -4,1.4 -2.36,0.52 -5.36,0.52 -3,0 -5.4,-0.52 -2.36,-0.48 -4,-1.4 -1.6,-0.92 -2.48,-2.16 -0.84,-1.24 -0.84,-2.76 0,-1.48 0.84,-2.72 0.88,-1.28 2.48,-2.16 1.64,-0.92 4,-1.4 2.4,-0.52 5.4,-0.52 3,0 5.36,0.52 2.4,0.48 4,1.4 1.64,0.88 2.48,2.16 0.88,1.24 0.88,2.72 z m -12.64,-27.04 q -1.76,-0.04 -3.24,0.24 -1.44,0.24 -2.48,0.72 -1.04,0.48 -1.64,1.12 -0.6,0.64 -0.6,1.4 0,0.76 0.6,1.4 0.6,0.64 1.64,1.12 1.04,0.48 2.48,0.76 1.48,0.24 3.24,0.24 1.72,0 3.16,-0.24 1.48,-0.28 2.52,-0.76 1.04,-0.48 1.64,-1.12 0.6,-0.64 0.6,-1.4 0,-0.76 -0.6,-1.36 -0.6,-0.64 -1.64,-1.08 -1.04,-0.48 -2.52,-0.76 -1.44,-0.28 -3.16,-0.28 z m -0.08,23.72 q -2,0 -3.52,0.28 -1.52,0.28 -2.56,0.76 -1,0.48 -1.56,1.08 -0.52,0.6 -0.52,1.24 0,0.64 0.52,1.24 0.56,0.6 1.56,1.08 1.04,0.48 2.56,0.76 1.52,0.28 3.52,0.28 1.96,0 3.48,-0.28 1.56,-0.28 2.56,-0.76 1.04,-0.48 1.56,-1.08 0.56,-0.6 0.56,-1.24 0,-0.64 -0.56,-1.24 -0.52,-0.6 -1.56,-1.08 -1,-0.48 -2.56,-0.76 -1.52,-0.28 -3.48,-0.28 z m 0.08,-13.08 q -1.2,0 -2.28,-0.08 -1.04,-0.08 -2.08,-0.24 l 0,3.96 8.52,0 0,-3.96 q -1,0.16 -2.04,0.24 -1,0.08 -2.12,0.08 z" />
      <path
         id="path4724"
         style="font-style:normal;font-variant:normal;font-weight:600;font-stretch:normal;font-size:medium;line-height:125%;font-family:NanumGothic;-inkscape-font-specification:'NanumGothic Semi-Bold';letter-spacing:0px;word-spacing:0px;fill:#f7400d;fill-opacity:1;stroke:none;stroke-width:1px;stroke-linecap:butt;stroke-linejoin:miter;stroke-opacity:1"
         d="m 220.29339,308.50507 q 0,2 -0.72,3.72 -0.72,1.68 -2.04,2.92 -1.28,1.2 -3.08,1.88 -1.8,0.68 -3.96,0.68 -2.16,0 -3.92,-0.68 -1.76,-0.68 -3.04,-1.88 -1.24,-1.24 -1.96,-2.92 -0.68,-1.72 -0.68,-3.72 0,-1.92 0.68,-3.6 0.72,-1.72 1.96,-2.96 1.28,-1.28 3.04,-2 1.76,-0.72 3.92,-0.72 2.16,0 3.96,0.72 1.8,0.72 3.08,2 1.32,1.24 2.04,2.96 0.72,1.68 0.72,3.6 z m 14.44,3 q 0.2,0 0.36,0.16 0.2,0.16 0.2,0.36 l 0,2.8 q 0,0.2 -0.2,0.36 -0.16,0.16 -0.36,0.16 l -5.44,0 0,3.72 q 0,0.52 -0.52,0.52 l -3.56,0 q -0.52,0 -0.52,-0.56 l 0,-20.64 q 0,-0.52 0.52,-0.52 l 3.56,0 q 0.52,0 0.52,0.52 l 0,5.36 5.44,0 q 0.2,0 0.36,0.16 0.2,0.12 0.2,0.32 l 0,2.8 q 0,0.2 -0.2,0.36 -0.16,0.16 -0.36,0.16 l -5.44,0 0,3.96 5.44,0 z m -5.48,23.68 q 0,0.2 -0.2,0.36 -0.16,0.2 -0.36,0.2 l -3.4,0 q -0.28,0 -0.48,-0.2 -0.16,-0.16 -0.16,-0.36 l 0,-9.08 q 0,-0.44 -0.16,-0.56 -0.16,-0.12 -0.56,-0.12 l -18.08,0 q -0.2,0 -0.4,-0.12 -0.16,-0.16 -0.16,-0.36 l 0,-2.84 q 0,-0.28 0.16,-0.4 0.2,-0.12 0.4,-0.12 l 20.76,0 q 1.52,0 2.08,0.64 0.56,0.64 0.56,2.16 l 0,10.8 z m -13.52,-26.6 q 0,-2.4 -1.44,-3.8 -1.44,-1.44 -3.8,-1.44 -2.28,0 -3.72,1.44 -1.44,1.4 -1.44,3.8 0,2.4 1.44,3.84 1.44,1.44 3.72,1.44 2.36,0 3.8,-1.44 1.44,-1.44 1.44,-3.84 z" />
      <path
         id="path4726"
         style="font-style:normal;font-variant:normal;font-weight:600;font-stretch:normal;font-size:medium;line-height:125%;font-family:NanumGothic;-inkscape-font-specification:'NanumGothic Semi-Bold';letter-spacing:0px;word-spacing:0px;fill:#f7400d;fill-opacity:1;stroke:none;stroke-width:1px;stroke-linecap:butt;stroke-linejoin:miter;stroke-opacity:1"
         d="m 272.91151,314.58507 q 0,0.2 -0.2,0.36 -0.16,0.16 -0.36,0.16 l -5.24,0 0,9.92 q 0,0.52 -0.52,0.52 l -3.56,0 q -0.52,0 -0.52,-0.52 l 0,-26.64 q 0,-0.52 0.52,-0.52 l 3.56,0 q 0.52,0 0.52,0.52 l 0,12.88 5.24,0 q 0.2,0 0.36,0.16 0.2,0.16 0.2,0.36 l 0,2.8 z m -4.36,19.92 q 0,0.24 -0.2,0.36 -0.16,0.12 -0.4,0.12 l -21.64,0 q -1.8,0 -2.44,-0.64 -0.64,-0.64 -0.64,-2.2 l 0,-7.64 q 0,-0.2 0.16,-0.36 0.2,-0.2 0.44,-0.2 l 3.44,0 q 0.24,0 0.44,0.2 0.2,0.16 0.2,0.36 l 0,6 q 0,0.4 0.16,0.52 0.16,0.12 0.56,0.12 l 19.32,0 q 0.2,0 0.4,0.12 0.2,0.16 0.2,0.36 l 0,2.88 z m -31.68,-17 q 0,-0.6 0.56,-0.6 1.8,0.08 3.64,0.08 1.84,0 3.76,0 l 0,-7.6 q 0,-0.6 0.56,-0.6 l 3.4,0 q 0.56,0 0.56,0.6 l 0,7.48 q 2.84,-0.08 5.56,-0.24 2.72,-0.2 5.16,-0.48 0.2,-0.04 0.4,0.04 0.24,0.08 0.28,0.36 l 0.2,2.44 q 0.04,0.28 -0.12,0.48 -0.16,0.2 -0.36,0.24 -2.76,0.32 -5.8,0.52 -3.04,0.2 -6.08,0.32 -3,0.12 -5.88,0.16 -2.84,0.04 -5.28,-0.04 -0.24,0 -0.4,-0.16 -0.16,-0.2 -0.16,-0.44 l 0,-2.56 z m 21.68,-14.56 q 0,1.16 -0.08,2.44 -0.08,1.24 -0.2,2.52 -0.12,1.28 -0.32,2.48 -0.16,1.16 -0.4,2.12 -0.08,0.32 -0.32,0.56 -0.2,0.24 -0.48,0.2 l -3.12,-0.28 q -0.52,-0.04 -0.4,-0.76 0.16,-0.76 0.32,-1.8 0.16,-1.08 0.28,-2.16 0.12,-1.08 0.16,-2.04 0.08,-0.96 0.08,-1.52 0,-0.56 -0.28,-0.68 -0.28,-0.16 -0.84,-0.16 l -12.6,0 q -0.2,0 -0.4,-0.12 -0.2,-0.16 -0.2,-0.36 l 0,-2.8 q 0,-0.24 0.2,-0.36 0.2,-0.12 0.4,-0.12 l 15.52,0 q 1.28,0 1.96,0.68 0.72,0.68 0.72,2.16 z" />
    </g>
  </g>
</svg>
