<?xml version="1.0" encoding="UTF-8" standalone="no"?>
<svg
   xmlns:dc="http://purl.org/dc/elements/1.1/"
   xmlns:cc="http://creativecommons.org/ns#"
   xmlns:rdf="http://www.w3.org/1999/02/22-rdf-syntax-ns#"
   xmlns:svg="http://www.w3.org/2000/svg"
   xmlns="http://www.w3.org/2000/svg"
   version="1.1"
   id="svg4701"
   viewBox="0 0 63.006291 16.6075"
   height="16.6075"
   width="63.00629">
  <defs
     id="defs4703" />
  <metadata
     id="metadata4706">
    <rdf:RDF>
      <cc:Work
         rdf:about="">
        <dc:format>image/svg+xml</dc:format>
        <dc:type
           rdf:resource="http://purl.org/dc/dcmitype/StillImage" />
        <dc:title></dc:title>
      </cc:Work>
    </rdf:RDF>
  </metadata>
  <g
     transform="translate(-1045.6398,-381.20132)"
     id="layer1">
    <g
       id="g5270">
      <path
         id="path5258"
         style="font-style:normal;font-variant:normal;font-weight:600;font-stretch:normal;font-size:17.5px;line-height:125%;font-family:NanumGothic;-inkscape-font-specification:'NanumGothic Semi-Bold';letter-spacing:0px;word-spacing:0px;fill:#f7400d;fill-opacity:1;stroke:none;stroke-width:1px;stroke-linecap:butt;stroke-linejoin:miter;stroke-opacity:1"
         d="m 1045.6398,393.55632 q 0,-0.2625 0.2625,-0.2625 0.9975,0.035 2.0825,0.0175 1.1025,-0.0175 2.205,-0.0525 l 0,-1.505 q -0.6125,-0.1225 -1.1375,-0.3675 -0.5075,-0.2625 -0.8925,-0.63 -0.3675,-0.385 -0.5775,-0.8575 -0.21,-0.4725 -0.21,-1.0325 0,-0.6475 0.2975,-1.19 0.315,-0.56 0.84,-0.945 0.525,-0.385 1.225,-0.595 0.7,-0.2275 1.4875,-0.2275 0.805,0 1.505,0.2275 0.7175,0.21 1.2425,0.595 0.525,0.385 0.8225,0.945 0.2975,0.5425 0.2975,1.19 0,0.56 -0.2275,1.0325 -0.2275,0.4725 -0.63,0.84 -0.385,0.3675 -0.9275,0.63 -0.525,0.245 -1.155,0.35 l 0,1.4525 q 1.155,-0.07 2.24,-0.1575 1.1025,-0.0875 2.03,-0.2275 0.088,-0.0175 0.1925,0.0175 0.1225,0.0175 0.14,0.1575 l 0.105,1.1025 q 0.018,0.14 -0.053,0.21 -0.07,0.07 -0.1575,0.0875 -0.98,0.1575 -2.31,0.28 -1.33,0.1225 -2.8,0.21 -1.4525,0.07 -2.9225,0.105 -1.47,0.035 -2.7125,0.0175 -0.1225,0 -0.1925,-0.07 -0.07,-0.0875 -0.07,-0.1925 l 0,-1.155 z m 13.86,4.025 q 0,0.2275 -0.245,0.2275 l -1.54,0 q -0.087,0 -0.175,-0.07 -0.07,-0.0525 -0.07,-0.1575 l 0,-16.1525 q 0,-0.0875 0.07,-0.1575 0.088,-0.07 0.175,-0.07 l 1.54,0 q 0.245,0 0.245,0.2275 l 0,16.1525 z m -3.5,-12.5475 q 0,0.105 -0.088,0.1925 -0.07,0.07 -0.175,0.07 l -9.2575,0 q -0.088,0 -0.175,-0.0875 -0.087,-0.0875 -0.087,-0.1925 l 0,-0.98 q 0,-0.0875 0.087,-0.175 0.105,-0.0875 0.1925,-0.0875 l 9.24,0 q 0.105,0 0.175,0.0875 0.088,0.07 0.088,0.175 l 0,0.9975 z m -4.7775,2.4325 q -0.84,0 -1.4,0.4025 -0.56,0.385 -0.56,0.9975 0,0.6125 0.5425,1.015 0.56,0.4025 1.4175,0.4025 0.875,0 1.4175,-0.4025 0.56,-0.4025 0.56,-1.015 0,-0.6125 -0.56,-0.9975 -0.5425,-0.4025 -1.4175,-0.4025 z m 2.52,-4.7075 q 0,0.1225 -0.087,0.21 -0.07,0.0875 -0.1925,0.0875 l -4.6375,0 q -0.07,0 -0.175,-0.07 -0.105,-0.07 -0.105,-0.21 l 0,-1.015 q 0,-0.1225 0.105,-0.1925 0.105,-0.07 0.175,-0.07 l 4.6375,0 q 0.105,0 0.1925,0.0875 0.087,0.0875 0.087,0.1925 l 0,0.98 z" />
      <path
         id="path5260"
         style="font-style:normal;font-variant:normal;font-weight:600;font-stretch:normal;font-size:17.5px;line-height:125%;font-family:NanumGothic;-inkscape-font-specification:'NanumGothic Semi-Bold';letter-spacing:0px;word-spacing:0px;fill:#f7400d;fill-opacity:1;stroke:none;stroke-width:1px;stroke-linecap:butt;stroke-linejoin:miter;stroke-opacity:1"
         d="m 1067.4702,382.98632 q -0.42,0 -0.805,0.14 -0.385,0.1225 -0.665,0.35 -0.28,0.21 -0.455,0.525 -0.1575,0.2975 -0.1575,0.6475 0,0.3675 0.1575,0.6825 0.175,0.2975 0.455,0.525 0.28,0.21 0.665,0.35 0.385,0.1225 0.805,0.1225 0.4375,0 0.805,-0.1225 0.385,-0.14 0.665,-0.35 0.2975,-0.2275 0.455,-0.525 0.175,-0.315 0.175,-0.6825 0,-0.35 -0.175,-0.6475 -0.1575,-0.315 -0.455,-0.525 -0.28,-0.2275 -0.665,-0.35 -0.3675,-0.14 -0.805,-0.14 z m 0,-1.54 q 0.8925,0 1.6275,0.2625 0.7525,0.245 1.2775,0.6825 0.5425,0.42 0.84,0.9975 0.2975,0.5775 0.2975,1.225 0,0.6825 -0.2975,1.2775 -0.2975,0.595 -0.84,1.0325 -0.525,0.42 -1.2775,0.6825 -0.735,0.245 -1.6275,0.245 -0.8925,0 -1.6275,-0.245 -0.735,-0.2625 -1.2775,-0.6825 -0.525,-0.4375 -0.8225,-1.0325 -0.28,-0.595 -0.28,-1.2775 0,-0.6475 0.28,-1.225 0.2975,-0.5775 0.8225,-0.9975 0.5425,-0.4375 1.2775,-0.6825 0.735,-0.2625 1.6275,-0.2625 z m 8.4525,12.5825 q 0,0.245 -0.2275,0.245 l -1.5575,0 q -0.2275,0 -0.2275,-0.245 l 0,-1.5925 -2.9925,0 q -0.087,0 -0.175,-0.07 -0.07,-0.07 -0.07,-0.1575 l 0,-1.1025 q 0,-0.0875 0.07,-0.14 0.088,-0.07 0.175,-0.07 l 2.9925,0 0,-9.4675 q 0,-0.2275 0.2275,-0.2275 l 1.5575,0 q 0.2275,0 0.2275,0.2275 l 0,12.6 z m -2.6075,-4.55 q 0.017,0.14 -0.07,0.2275 -0.07,0.07 -0.1575,0.105 -0.49,0.0875 -1.085,0.1575 -0.595,0.0525 -1.225,0.105 -0.63,0.0525 -1.26,0.105 -0.6125,0.035 -1.155,0.0525 l 0,2.52 q 0,0.105 -0.087,0.1925 -0.07,0.07 -0.175,0.07 l -1.4525,0 q -0.105,0 -0.1925,-0.07 -0.07,-0.0875 -0.07,-0.1925 l 0,-2.38 q -0.525,0.0175 -1.085,0.035 -0.5425,0 -1.0675,0.0175 -0.525,0.0175 -0.9975,0.0175 -0.4725,0 -0.8225,-0.0175 -0.105,0 -0.175,-0.0875 -0.07,-0.0875 -0.07,-0.1925 l 0,-1.085 q 0,-0.105 0.07,-0.175 0.07,-0.0875 0.175,-0.0875 1.2075,0 2.625,-0.0175 1.435,-0.035 2.8525,-0.0875 1.4175,-0.07 2.73,-0.1575 1.3125,-0.105 2.275,-0.245 0.088,-0.0175 0.175,0.035 0.105,0.0525 0.1225,0.1575 l 0.1225,0.9975 z m 2.9925,7.8225 q 0,0.105 -0.088,0.1575 -0.07,0.0525 -0.1575,0.0525 l -9.9225,0 q -0.805,0 -1.085,-0.28 -0.2625,-0.28 -0.2625,-0.9625 l 0,-2.5025 q 0,-0.0875 0.07,-0.1575 0.088,-0.0875 0.175,-0.0875 l 1.505,0 q 0.105,0 0.175,0.0875 0.088,0.07 0.088,0.1575 l 0,1.785 q 0,0.175 0.07,0.2275 0.07,0.0525 0.2625,0.0525 l 8.925,0 q 0.088,0 0.1575,0.07 0.088,0.07 0.088,0.1575 l 0,1.2425 z" />
      <path
         id="path5262"
         style="font-style:normal;font-variant:normal;font-weight:600;font-stretch:normal;font-size:17.5px;line-height:125%;font-family:NanumGothic;-inkscape-font-specification:'NanumGothic Semi-Bold';letter-spacing:0px;word-spacing:0px;fill:#f7400d;fill-opacity:1;stroke:none;stroke-width:1px;stroke-linecap:butt;stroke-linejoin:miter;stroke-opacity:1"
         d="m 1087.1831,383.82632 q -0.1225,1.5925 -0.6475,3.08 -0.525,1.47 -1.4525,2.7825 -0.91,1.3125 -2.205,2.45 -1.295,1.1375 -2.9225,2.03 -0.14,0.07 -0.2975,0.07 -0.14,-0.0175 -0.2275,-0.1575 l -0.7,-0.98 q -0.088,-0.14 -0.053,-0.28 0.035,-0.14 0.1575,-0.2275 2.6075,-1.3825 4.2175,-3.4125 1.61,-2.03 1.96,-4.41 0.053,-0.35 -0.052,-0.455 -0.088,-0.1225 -0.4025,-0.1225 l -4.935,0 q -0.2275,0 -0.2275,-0.245 l 0,-1.225 q 0,-0.21 0.2275,-0.21 l 6.3175,0 q 0.7875,0 1.0325,0.3325 0.2625,0.315 0.21,0.98 z m 7.0875,5.1975 q 0,0.105 -0.088,0.175 -0.07,0.07 -0.175,0.07 l -2.3625,0 0,8.3125 q 0,0.2275 -0.2275,0.2275 l -1.5575,0 q -0.2275,0 -0.2275,-0.2275 l 0,-16.1525 q 0,-0.2275 0.2275,-0.2275 l 1.5575,0 q 0.2275,0 0.2275,0.2275 l 0,6.16 2.3625,0 q 0.105,0 0.175,0.07 0.088,0.0525 0.088,0.14 l 0,1.225 z" />
      <path
         id="path5264"
         style="font-style:normal;font-variant:normal;font-weight:600;font-stretch:normal;font-size:17.5px;line-height:125%;font-family:NanumGothic;-inkscape-font-specification:'NanumGothic Semi-Bold';letter-spacing:0px;word-spacing:0px;fill:#f7400d;fill-opacity:1;stroke:none;stroke-width:1px;stroke-linecap:butt;stroke-linejoin:miter;stroke-opacity:1"
         d="m 1108.646,389.79382 q 0,0.245 -0.2275,0.245 l -1.5575,0 q -0.2275,0 -0.2275,-0.245 l 0,-8.365 q 0,-0.2275 0.2275,-0.2275 l 1.5575,0 q 0.2275,0 0.2275,0.2275 l 0,8.365 z m -2.0125,4.585 -6.1775,0 0,1.225 q 0,0.2975 0.315,0.2975 l 5.5475,0 q 0.315,0 0.315,-0.2975 l 0,-1.225 z m 2.0125,1.995 q 0,0.595 -0.28,0.875 -0.28,0.2975 -1.0325,0.2975 l -7.56,0 q -0.77,0 -1.05,-0.2625 -0.28,-0.2625 -0.28,-0.9625 l 0,-5.18 q 0,-0.0875 0.07,-0.14 0.07,-0.07 0.1575,-0.07 l 1.54,0 q 0.088,0 0.1575,0.07 0.087,0.0525 0.087,0.14 l 0,1.61 6.1775,0 0,-1.68 q 0,-0.0875 0.07,-0.1575 0.07,-0.07 0.1575,-0.07 l 1.5575,0 q 0.088,0 0.1575,0.07 0.07,0.07 0.07,0.1575 l 0,5.3025 z m -4.4975,-10.745 q 0,0.77 -0.315,1.4875 -0.2975,0.7 -0.8575,1.2425 -0.5425,0.5425 -1.33,0.875 -0.77,0.315 -1.715,0.315 -0.945,0 -1.7325,-0.315 -0.77,-0.3325 -1.33,-0.875 -0.5425,-0.5425 -0.84,-1.2425 -0.2975,-0.7175 -0.2975,-1.4875 0,-0.7875 0.2975,-1.505 0.2975,-0.7175 0.84,-1.26 0.56,-0.5425 1.33,-0.8575 0.7875,-0.3325 1.7325,-0.3325 0.945,0 1.715,0.3325 0.7875,0.315 1.33,0.8575 0.56,0.5425 0.8575,1.26 0.315,0.7175 0.315,1.505 z m -1.925,0 q 0,-0.455 -0.175,-0.875 -0.1575,-0.42 -0.4725,-0.735 -0.2975,-0.315 -0.7175,-0.5075 -0.42,-0.1925 -0.9275,-0.1925 -0.5075,0 -0.9275,0.1925 -0.42,0.1925 -0.7175,0.5075 -0.2975,0.315 -0.4725,0.735 -0.1575,0.42 -0.1575,0.875 0,0.455 0.1575,0.875 0.175,0.4025 0.4725,0.7175 0.2975,0.315 0.7175,0.5075 0.42,0.175 0.9275,0.175 0.5075,0 0.9275,-0.175 0.42,-0.1925 0.7175,-0.5075 0.315,-0.315 0.4725,-0.7175 0.175,-0.42 0.175,-0.875 z" />
    </g>
  </g>
</svg>
