<?xml version="1.0" encoding="UTF-8" standalone="no"?>
<svg
   xmlns:dc="http://purl.org/dc/elements/1.1/"
   xmlns:cc="http://creativecommons.org/ns#"
   xmlns:rdf="http://www.w3.org/1999/02/22-rdf-syntax-ns#"
   xmlns:svg="http://www.w3.org/2000/svg"
   xmlns="http://www.w3.org/2000/svg"
   version="1.1"
   id="svg4200"
   viewBox="0 0 231.25035 50.000253"
   height="50.000252"
   width="231.25035">
  <defs
     id="defs4202" />
  <metadata
     id="metadata4205">
    <rdf:RDF>
      <cc:Work
         rdf:about="">
        <dc:format>image/svg+xml</dc:format>
        <dc:type
           rdf:resource="http://purl.org/dc/dcmitype/StillImage" />
        <dc:title></dc:title>
      </cc:Work>
    </rdf:RDF>
  </metadata>
  <g
     transform="translate(-844.37485,-787.36208)"
     id="layer1">
    <g
       id="g4819">
      <g
         style="display:inline"
         id="g11612"
         transform="matrix(1.25,0,0,-1.25,1075.6252,833.05208)">
        <path
           d="m 0,0 c 0,-1.896 -1.549,-3.448 -3.447,-3.448 l -178.11,0 c -1.892,0 -3.443,1.552 -3.443,3.448 l 0,33.103 c 0,1.897 1.551,3.449 3.443,3.449 l 178.11,0 C -1.549,36.552 0,35 0,33.103 L 0,0 Z"
           style="fill:#ffffff;fill-opacity:1;fill-rule:nonzero;stroke:none"
           id="path11614-3" />
      </g>
      <path
         d="m 894.37519,836.6477 -0.7125,0 0,-48.57125 0.7125,0 0,48.57125 z"
         style="display:inline;fill:#ff7f2a;fill-opacity:1;fill-rule:nonzero;stroke:none"
         id="path11616-8" />
      <g
         id="g11618"
         transform="matrix(1.25,0,0,-1.25,1071.3161,787.36233)"
         style="display:inline;fill:#ff7f2a;fill-opacity:1">
        <path
           d="m 0,0 -178.109,0 c -1.893,0 -3.444,-1.552 -3.444,-3.449 l 0,-33.103 c 0,-1.895 1.551,-3.448 3.444,-3.448 L 0,-40 c 1.896,0 3.447,1.553 3.447,3.448 l 0,33.103 C 3.447,-1.552 1.896,0 0,0 m 0,-0.571 c 1.586,0 2.875,-1.29 2.875,-2.878 l 0,-33.103 c 0,-1.586 -1.289,-2.877 -2.875,-2.877 l -178.109,0 c -1.584,0 -2.871,1.291 -2.871,2.877 l 0,33.103 c 0,1.588 1.287,2.878 2.871,2.878 L 0,-0.571"
           style="fill:#ff7f2a;fill-opacity:1;fill-rule:nonzero;stroke:none"
           id="path11620-3" />
      </g>
      <g
         style="display:inline"
         transform="matrix(0.13280859,0,0,0.13280859,839.94291,829.86482)"
         id="g41">
        <path
           style="fill:#f7400d"
           d="M 334.348,-138.539 C 330.86,-197.771 281.722,-244.73 221.61,-244.73 c -62.372,0 -112.942,50.563 -112.942,112.944 0,62.38 50.57,112.943 112.942,112.943 60.112,0 109.25,-46.957 112.738,-106.193 l 0,-13.503 z"
           id="path43" />
        <path
           style="fill:#e33b0c"
           d="m 334.336,-134.6 c -1.269,-5.092 -5.856,-8.869 -11.336,-8.869 l -20.549,0 c -1.538,0 -2.999,0.307 -4.349,0.844 -7.005,-36.036 -38.803,-63.169 -76.86,-62.985 -43.053,0.202 -77.778,35.264 -77.574,78.311 0.208,43.05 35.268,77.779 78.311,77.575 34.166,-0.166 65.129,-22.289 75.515,-52.916 3.449,-6.124 7.346,-9.062 14.273,-9.247 l 1.066,0 c 0.212,0.008 0.423,0 0.637,0.011 l 0,-0.011 9.53,0 c 4.939,0 9.155,-3.077 10.863,-7.413 0.369,-3.344 0.592,-6.736 0.661,-10.162 -0.024,-1.728 -0.086,-3.436 -0.188,-5.138 z"
           id="path45" />
        <path
           style="fill:#ff5626"
           d="m 221.609,-240.023 c 61.593,0 111.658,49.299 112.915,110.585 0.021,-0.777 0.031,-1.567 0.031,-2.348 0,-62.381 -50.571,-112.944 -112.946,-112.944 -62.372,0 -112.942,50.563 -112.942,112.944 0,0.78 0.011,1.57 0.03,2.348 1.259,-61.287 51.324,-110.585 112.912,-110.585 z"
           id="path47" />
        <path
           style="fill:#ffffff"
           d="m 299.556,-132.161 c 0.203,43.05 -34.527,78.114 -77.577,78.319 -43.042,0.201 -78.103,-34.523 -78.311,-77.577 -0.204,-43.044 34.521,-78.104 77.574,-78.315 43.043,-0.201 78.109,34.526 78.314,77.573 z"
           id="path49" />
        <path
           style="fill:#330400"
           d="m 290.808,-132.124 c 0.188,38.225 -30.649,69.354 -68.872,69.537 -38.212,0.186 -69.341,-30.651 -69.525,-68.87 -0.184,-38.218 30.653,-69.349 68.873,-69.529 38.213,-0.188 69.342,30.652 69.524,68.862 z"
           id="path51" />
        <path
           style="fill:#4a0600"
           d="m 287.272,-132.097 c 0.177,36.259 -29.083,65.798 -65.354,65.973 -36.257,0.175 -65.799,-29.081 -65.97,-65.353 -0.175,-36.264 29.087,-65.805 65.347,-65.971 36.264,-0.177 65.804,29.079 65.977,65.351 z"
           id="path53" />
        <path
           style="fill:#ffffff"
           d="m 294.795,-105.571 c 3.581,-7.466 10.587,-10.732 18.676,-10.421 l 0.193,-7.966 -13.542,-5.412 -5.327,23.799 z"
           id="path55" />
        <path
           style="fill:#ffffff"
           d="m 323,-147.588 -20.549,0 c -6.464,0 -11.701,5.242 -11.701,11.703 l 0,8.188 c 0,6.462 5.237,11.696 11.701,11.696 l 20.549,0 c 5.479,0 10.068,-3.773 11.336,-8.866 0.139,-2.29 0.22,-4.597 0.22,-6.92 0,-2.327 -0.081,-4.643 -0.22,-6.937 -1.269,-5.083 -5.857,-8.864 -11.336,-8.864 z"
           id="path57" />
        <path
           style="fill:#ffffff"
           d="m 294.795,-158.008 c 3.581,7.473 10.587,10.735 18.676,10.428 l 0.193,7.963 -13.542,5.418 -5.327,-23.809 z"
           id="path59" />
        <path
           style="fill:#ffffff"
           d="m 325.923,-124.591 8.402,0 c 0.146,-2.379 0.23,-4.779 0.23,-7.195 0,-2.426 -0.085,-4.826 -0.234,-7.218 l -8.398,0 0,14.413 z"
           id="path61" />
      </g>
      <path
         id="path4789"
         style="font-style:normal;font-variant:normal;font-weight:600;font-stretch:normal;font-size:15px;line-height:125%;font-family:NanumGothic;-inkscape-font-specification:'NanumGothic Semi-Bold';letter-spacing:0px;word-spacing:0px;fill:#f7400d;fill-opacity:1;stroke:none;stroke-width:1px;stroke-linecap:butt;stroke-linejoin:miter;stroke-opacity:1"
         d="m 921.76339,807.47967 q -0.09,1.365 -0.57,2.655 -0.465,1.29 -1.275,2.46 -0.795,1.155 -1.92,2.16 -1.125,0.99 -2.52,1.755 -0.12,0.075 -0.255,0.06 -0.12,-0.015 -0.195,-0.135 l -0.6,-0.84 q -0.075,-0.12 -0.045,-0.24 0.03,-0.12 0.15,-0.18 1.41,-0.765 2.505,-1.785 1.095,-1.02 1.815,-2.235 -0.93,0.09 -1.965,0.135 -1.02,0.045 -1.92,0.06 -0.06,0 -0.135,-0.06 -0.075,-0.06 -0.075,-0.18 l 0,-0.975 q 0,-0.09 0.075,-0.15 0.075,-0.06 0.12,-0.06 0.555,0 1.155,-0.015 0.615,-0.03 1.215,-0.06 0.615,-0.03 1.185,-0.06 0.57,-0.03 1.05,-0.075 0.12,-0.36 0.195,-0.72 0.09,-0.36 0.165,-0.705 0.045,-0.3 -0.045,-0.39 -0.075,-0.105 -0.36,-0.105 l -4.215,0 q -0.21,0 -0.21,-0.21 l 0,-1.05 q 0,-0.18 0.21,-0.18 l 5.415,0 q 0.675,0 0.885,0.285 0.21,0.27 0.165,0.84 z m 5.955,4.305 q 0,0.075 -0.075,0.15 -0.06,0.06 -0.15,0.06 l -2.025,0 0,7.275 q 0,0.195 -0.195,0.195 l -1.335,0 q -0.195,0 -0.195,-0.195 l 0,-13.845 q 0,-0.195 0.195,-0.195 l 1.335,0 q 0.195,0 0.195,0.195 l 0,5.13 2.025,0 q 0.09,0 0.15,0.06 0.075,0.045 0.075,0.12 l 0,1.05 z" />
      <path
         id="path4791"
         style="font-style:normal;font-variant:normal;font-weight:600;font-stretch:normal;font-size:15px;line-height:125%;font-family:NanumGothic;-inkscape-font-specification:'NanumGothic Semi-Bold';letter-spacing:0px;word-spacing:0px;fill:#f7400d;fill-opacity:1;stroke:none;stroke-width:1px;stroke-linecap:butt;stroke-linejoin:miter;stroke-opacity:1"
         d="m 928.16019,814.18467 q 0,-0.21 0.21,-0.21 l 1.05,0 0,-6.06 -0.93,0 q -0.075,0 -0.165,-0.075 -0.075,-0.075 -0.075,-0.165 l 0,-0.93 q 0,-0.075 0.075,-0.15 0.09,-0.09 0.165,-0.09 l 6.45,0 q 0.09,0 0.15,0.075 0.075,0.06 0.075,0.165 l 0,0.945 q -0.03,0.06 -0.075,0.12 -0.075,0.105 -0.15,0.105 l -0.96,0 0,5.91 q 0.345,-0.03 0.645,-0.075 0.315,-0.045 0.6,-0.09 0.075,-0.015 0.15,0.03 0.09,0.03 0.105,0.105 l 0.135,0.93 q 0.03,0.12 -0.045,0.195 -0.06,0.06 -0.135,0.075 -0.675,0.135 -1.53,0.225 -0.84,0.075 -1.77,0.12 -0.93,0.045 -1.89,0.06 -0.96,0 -1.875,-0.03 -0.09,0 -0.15,-0.06 -0.06,-0.075 -0.06,-0.165 l 0,-0.96 z m 8.31,-8.505 q 0,-0.195 0.21,-0.195 l 1.215,0 q 0.21,0 0.21,0.195 l 0,13.095 q 0,0.21 -0.21,0.21 l -1.215,0 q -0.21,0 -0.21,-0.21 l 0,-7.305 -1.485,0 q -0.09,0 -0.165,-0.06 -0.06,-0.06 -0.06,-0.135 l 0,-1.035 q 0,-0.075 0.06,-0.12 0.075,-0.06 0.165,-0.06 l 1.485,0 0,-4.38 z m 4.35,13.62 q 0,0.195 -0.195,0.195 l -1.305,0 q -0.195,0 -0.195,-0.195 l 0,-13.875 q 0,-0.195 0.21,-0.195 l 1.29,0 q 0.195,0 0.195,0.195 l 0,13.875 z m -9.825,-5.34 q 0.375,-0.015 0.72,-0.015 0.345,0 0.69,-0.03 l 0,-6 -1.41,0 0,6.045 z" />
      <path
         id="path4793"
         style="font-style:normal;font-variant:normal;font-weight:600;font-stretch:normal;font-size:15px;line-height:125%;font-family:NanumGothic;-inkscape-font-specification:'NanumGothic Semi-Bold';letter-spacing:0px;word-spacing:0px;fill:#f7400d;fill-opacity:1;stroke:none;stroke-width:1px;stroke-linecap:butt;stroke-linejoin:miter;stroke-opacity:1"
         d="m 944.41198,808.28967 q 0,-0.09 0.06,-0.15 0.06,-0.075 0.135,-0.075 0.96,0 1.995,0 1.05,-0.015 2.055,-0.015 1.005,-0.015 1.89,-0.03 0.9,-0.015 1.575,-0.06 0.015,-0.21 0.015,-0.405 0,-0.21 0,-0.42 0,-0.21 -0.105,-0.255 -0.09,-0.06 -0.3,-0.06 l -7.155,0 q -0.075,0 -0.15,-0.045 -0.075,-0.06 -0.075,-0.135 l 0,-1.02 q 0,-0.09 0.075,-0.135 0.075,-0.045 0.15,-0.045 l 8.25,0 q 0.48,0 0.735,0.255 0.255,0.24 0.255,0.795 0,0.315 -0.015,0.81 -0.015,0.48 -0.06,1.05 -0.045,0.57 -0.12,1.17 -0.06,0.6 -0.165,1.14 l 2.01,0 q 0.075,0 0.15,0.075 0.075,0.075 0.075,0.15 l 0,0.945 q 0,0.075 -0.075,0.165 -0.075,0.075 -0.15,0.075 l -13.065,0 q -0.09,0 -0.15,-0.075 -0.06,-0.09 -0.06,-0.165 l 0,-0.945 q 0,-0.09 0.06,-0.15 0.06,-0.075 0.15,-0.075 l 9.45,0 q 0.06,-0.315 0.105,-0.66 0.06,-0.345 0.09,-0.72 -0.825,0.045 -1.74,0.075 -0.915,0.015 -1.875,0.03 -0.945,0.015 -1.92,0.03 -0.975,0 -1.905,0 -0.075,0 -0.135,-0.06 -0.06,-0.075 -0.06,-0.165 l 0,-0.9 z m 9.57,10.785 q 0,0.075 -0.075,0.135 -0.075,0.075 -0.135,0.075 l -8.445,0 q -0.585,0 -0.795,-0.21 -0.21,-0.21 -0.21,-0.69 l 0,-1.89 q 0,-0.48 0.195,-0.69 0.21,-0.21 0.795,-0.21 l 6.45,0 q 0.12,0 0.15,-0.015 0.03,-0.03 0.03,-0.165 l 0,-0.555 q 0,-0.165 -0.03,-0.195 -0.03,-0.03 -0.165,-0.03 l -7.245,0 q -0.075,0 -0.15,-0.045 -0.06,-0.06 -0.06,-0.135 l 0,-1.02 q 0,-0.075 0.06,-0.135 0.075,-0.06 0.15,-0.06 l 8.1,0 q 0.615,0 0.81,0.195 0.21,0.18 0.21,0.69 l 0,1.86 q 0,0.525 -0.21,0.705 -0.195,0.18 -0.81,0.18 l -6.405,0 q -0.12,0 -0.15,0.045 -0.03,0.03 -0.03,0.15 l 0,0.645 q 0,0.135 0.03,0.15 0.03,0.03 0.165,0.03 l 7.545,0 q 0.075,0 0.15,0.045 0.075,0.06 0.075,0.15 l 0,0.99 z" />
      <path
         id="path4795"
         style="font-style:normal;font-variant:normal;font-weight:600;font-stretch:normal;font-size:15px;line-height:125%;font-family:NanumGothic;-inkscape-font-specification:'NanumGothic Semi-Bold';letter-spacing:0px;word-spacing:0px;fill:#f7400d;fill-opacity:1;stroke:none;stroke-width:1px;stroke-linecap:butt;stroke-linejoin:miter;stroke-opacity:1"
         d="m 963.81378,815.05467 q 0.03,0.105 -0.045,0.18 -0.06,0.06 -0.18,0.09 -0.465,0.12 -1.17,0.225 -0.69,0.105 -1.455,0.195 -0.75,0.075 -1.5,0.105 -0.75,0.03 -1.32,0 -0.69,-0.06 -0.93,-0.285 -0.24,-0.225 -0.24,-0.795 l 0,-3.45 q 0,-0.54 0.27,-0.765 0.27,-0.24 0.795,-0.24 l 2.7,0 q 0.12,0 0.165,-0.03 0.045,-0.045 0.045,-0.195 l 0,-2.055 q 0,-0.12 -0.03,-0.165 -0.03,-0.045 -0.18,-0.045 l -3.495,0 q -0.075,0 -0.15,-0.06 -0.06,-0.06 -0.06,-0.135 l 0,-0.99 q 0,-0.075 0.06,-0.135 0.075,-0.06 0.15,-0.06 l 4.335,0 q 0.645,0 0.825,0.24 0.195,0.24 0.195,0.795 l 0,3.225 q 0,0.57 -0.24,0.78 -0.225,0.195 -0.81,0.195 l -2.685,0 q -0.225,0 -0.225,0.21 l 0,2.25 q 0,0.165 0.06,0.21 0.06,0.045 0.225,0.06 0.54,0.03 1.065,0.015 0.525,-0.03 1.065,-0.075 0.54,-0.06 1.11,-0.15 0.585,-0.09 1.23,-0.21 0.21,-0.045 0.255,0.195 l 0.165,0.87 z m 3.495,-9.63 q 0,-0.195 0.21,-0.195 l 1.29,0 q 0.195,0 0.195,0.195 l 0,13.845 q 0,0.195 -0.195,0.195 l -1.305,0 q -0.195,0 -0.195,-0.195 l 0,-7.095 -1.29,0 0,6.525 q 0,0.21 -0.195,0.21 l -1.23,0 q -0.21,0 -0.21,-0.21 l 0,-13.005 q 0,-0.195 0.21,-0.195 l 1.23,0 q 0.195,0 0.195,0.195 l 0,5.04 1.29,0 0,-5.31 z" />
      <path
         id="path4797"
         style="font-style:normal;font-variant:normal;font-weight:600;font-stretch:normal;font-size:15px;line-height:125%;font-family:NanumGothic;-inkscape-font-specification:'NanumGothic Semi-Bold';letter-spacing:0px;word-spacing:0px;fill:#f7400d;fill-opacity:1;stroke:none;stroke-width:1px;stroke-linecap:butt;stroke-linejoin:miter;stroke-opacity:1"
         d="m 972.20558,812.96967 q -0.075,0.03 -0.18,0.015 -0.09,-0.03 -0.165,-0.15 l -0.54,-0.93 q -0.06,-0.12 -0.015,-0.21 0.06,-0.105 0.165,-0.135 1.125,-0.42 1.965,-0.9 0.855,-0.495 1.44,-1.125 0.6,-0.63 0.93,-1.44 0.345,-0.81 0.45,-1.875 0.015,-0.105 0.06,-0.21 0.06,-0.105 0.18,-0.09 l 1.305,0.06 q 0.255,0.015 0.24,0.33 -0.015,0.39 -0.09,0.735 0.18,0.72 0.63,1.38 0.45,0.66 1.095,1.215 0.66,0.54 1.455,0.96 0.795,0.42 1.65,0.66 0.105,0.03 0.12,0.135 0.03,0.09 0,0.165 l -0.51,0.96 q -0.12,0.225 -0.36,0.165 -0.69,-0.18 -1.395,-0.51 -0.69,-0.33 -1.335,-0.765 -0.645,-0.45 -1.185,-0.99 -0.54,-0.555 -0.915,-1.185 -0.75,1.32 -2.04,2.25 -1.275,0.93 -2.955,1.485 z m 11.445,2.52 q 0.075,0 0.15,0.075 0.075,0.075 0.075,0.165 l 0,0.975 q 0,0.075 -0.075,0.15 -0.075,0.075 -0.15,0.075 l -13.065,0 q -0.09,0 -0.15,-0.075 -0.06,-0.075 -0.06,-0.15 l 0,-0.975 q 0,-0.24 0.21,-0.24 l 13.065,0 z" />
      <path
         id="path4799"
         style="font-style:normal;font-variant:normal;font-weight:600;font-stretch:normal;font-size:15px;line-height:125%;font-family:NanumGothic;-inkscape-font-specification:'NanumGothic Semi-Bold';letter-spacing:0px;word-spacing:0px;fill:#f7400d;fill-opacity:1;stroke:none;stroke-width:1px;stroke-linecap:butt;stroke-linejoin:miter;stroke-opacity:1"
         d="m 997.96737,816.80967 q 0,0.075 -0.075,0.15 -0.075,0.075 -0.15,0.075 l -13.065,0 q -0.09,0 -0.15,-0.075 -0.06,-0.075 -0.06,-0.15 l 0,-0.945 q 0,-0.09 0.06,-0.165 0.06,-0.075 0.15,-0.075 l 5.685,0 0,-2.235 -2.685,0 q -0.33,0 -0.54,-0.045 -0.21,-0.045 -0.33,-0.165 -0.12,-0.12 -0.165,-0.3 -0.045,-0.195 -0.045,-0.495 l 0,-2.415 q 0,-0.3 0.045,-0.48 0.045,-0.195 0.165,-0.3 0.12,-0.12 0.33,-0.15 0.21,-0.045 0.54,-0.045 l 6.24,0 q 0.15,0 0.18,-0.03 0.045,-0.045 0.045,-0.21 l 0,-1.17 q 0,-0.165 -0.045,-0.18 -0.03,-0.03 -0.18,-0.03 l -7.065,0 q -0.075,0 -0.135,-0.06 -0.06,-0.075 -0.06,-0.15 l 0,-1.005 q 0,-0.075 0.06,-0.135 0.06,-0.06 0.135,-0.06 l 7.89,0 q 0.63,0 0.855,0.21 0.225,0.195 0.225,0.78 l 0,2.43 q 0,0.585 -0.225,0.795 -0.225,0.195 -0.855,0.195 l -6.255,0 q -0.15,0 -0.18,0.03 -0.03,0.03 -0.03,0.18 l 0,1.185 q 0,0.165 0.03,0.21 0.045,0.03 0.195,0.03 l 7.44,0 q 0.075,0 0.135,0.06 0.06,0.045 0.06,0.12 l 0,1.005 q 0,0.075 -0.075,0.135 -0.06,0.06 -0.12,0.06 l -3.855,0 0,2.235 5.655,0 q 0.075,0 0.15,0.09 0.075,0.075 0.075,0.15 l 0,0.945 z" />
      <path
         id="path4801"
         style="font-style:normal;font-variant:normal;font-weight:600;font-stretch:normal;font-size:15px;line-height:125%;font-family:NanumGothic;-inkscape-font-specification:'NanumGothic Semi-Bold';letter-spacing:0px;word-spacing:0px;fill:#f7400d;fill-opacity:1;stroke:none;stroke-width:1px;stroke-linecap:butt;stroke-linejoin:miter;stroke-opacity:1"
         d="m 1010.3836,807.47967 q -0.105,1.365 -0.555,2.64 -0.45,1.26 -1.245,2.385 -0.78,1.125 -1.89,2.1 -1.11,0.975 -2.505,1.74 -0.12,0.06 -0.255,0.06 -0.12,-0.015 -0.195,-0.135 l -0.6,-0.84 q -0.075,-0.12 -0.045,-0.24 0.03,-0.12 0.135,-0.195 2.235,-1.185 3.615,-2.925 1.38,-1.74 1.68,-3.78 0.045,-0.3 -0.045,-0.39 -0.075,-0.105 -0.345,-0.105 l -4.23,0 q -0.195,0 -0.195,-0.21 l 0,-1.05 q 0,-0.18 0.195,-0.18 l 5.415,0 q 0.675,0 0.885,0.285 0.225,0.27 0.18,0.84 z m 6.075,4.455 q 0,0.09 -0.075,0.15 -0.06,0.06 -0.15,0.06 l -2.025,0 0,7.125 q 0,0.195 -0.195,0.195 l -1.335,0 q -0.195,0 -0.195,-0.195 l 0,-13.845 q 0,-0.195 0.195,-0.195 l 1.335,0 q 0.195,0 0.195,0.195 l 0,5.28 2.025,0 q 0.09,0 0.15,0.06 0.075,0.045 0.075,0.12 l 0,1.05 z" />
      <path
         id="path4803"
         style="font-style:normal;font-variant:normal;font-weight:600;font-stretch:normal;font-size:15px;line-height:125%;font-family:NanumGothic;-inkscape-font-specification:'NanumGothic Semi-Bold';letter-spacing:0px;word-spacing:0px;fill:#f7400d;fill-opacity:1;stroke:none;stroke-width:1px;stroke-linecap:butt;stroke-linejoin:miter;stroke-opacity:1"
         d="m 1028.7804,812.59467 q 0,0.21 -0.195,0.21 l -1.335,0 q -0.195,0 -0.195,-0.21 l 0,-7.17 q 0,-0.195 0.195,-0.195 l 1.335,0 q 0.195,0 0.195,0.195 l 0,7.17 z m -1.725,3.93 -5.295,0 0,1.05 q 0,0.255 0.27,0.255 l 4.755,0 q 0.27,0 0.27,-0.255 l 0,-1.05 z m 1.725,1.71 q 0,0.51 -0.24,0.75 -0.24,0.255 -0.885,0.255 l -6.48,0 q -0.66,0 -0.9,-0.225 -0.24,-0.225 -0.24,-0.825 l 0,-4.44 q 0,-0.075 0.06,-0.12 0.06,-0.06 0.135,-0.06 l 1.32,0 q 0.075,0 0.135,0.06 0.075,0.045 0.075,0.12 l 0,1.38 5.295,0 0,-1.44 q 0,-0.075 0.06,-0.135 0.06,-0.06 0.135,-0.06 l 1.335,0 q 0.075,0 0.135,0.06 0.06,0.06 0.06,0.135 l 0,4.545 z m -3.855,-9.21 q 0,0.66 -0.27,1.275 -0.255,0.6 -0.735,1.065 -0.465,0.465 -1.14,0.75 -0.66,0.27 -1.47,0.27 -0.81,0 -1.485,-0.27 -0.66,-0.285 -1.14,-0.75 -0.465,-0.465 -0.72,-1.065 -0.255,-0.615 -0.255,-1.275 0,-0.675 0.255,-1.29 0.255,-0.615 0.72,-1.08 0.48,-0.465 1.14,-0.735 0.675,-0.285 1.485,-0.285 0.81,0 1.47,0.285 0.675,0.27 1.14,0.735 0.48,0.465 0.735,1.08 0.27,0.615 0.27,1.29 z m -1.65,0 q 0,-0.39 -0.15,-0.75 -0.135,-0.36 -0.405,-0.63 -0.255,-0.27 -0.615,-0.435 -0.36,-0.165 -0.795,-0.165 -0.435,0 -0.795,0.165 -0.36,0.165 -0.615,0.435 -0.255,0.27 -0.405,0.63 -0.135,0.36 -0.135,0.75 0,0.39 0.135,0.75 0.15,0.345 0.405,0.615 0.255,0.27 0.615,0.435 0.36,0.15 0.795,0.15 0.435,0 0.795,-0.15 0.36,-0.165 0.615,-0.435 0.27,-0.27 0.405,-0.615 0.15,-0.36 0.15,-0.75 z" />
      <path
         id="path4805"
         style="font-style:normal;font-variant:normal;font-weight:600;font-stretch:normal;font-size:15px;line-height:125%;font-family:NanumGothic;-inkscape-font-specification:'NanumGothic Semi-Bold';letter-spacing:0px;word-spacing:0px;fill:#f7400d;fill-opacity:1;stroke:none;stroke-width:1px;stroke-linecap:butt;stroke-linejoin:miter;stroke-opacity:1"
         d="m 1039.8272,809.47467 q 0,0.09 -0.075,0.165 -0.06,0.075 -0.15,0.075 l -8.13,0 q -0.09,0 -0.18,-0.075 -0.075,-0.09 -0.075,-0.18 l 0,-0.915 q 0,-0.075 0.075,-0.15 0.09,-0.075 0.18,-0.075 l 8.13,0 q 0.09,0 0.15,0.075 0.075,0.06 0.075,0.15 l 0,0.93 z m -1.92,-2.4 q 0,0.09 -0.075,0.165 -0.06,0.075 -0.165,0.075 l -4.215,0 q -0.06,0 -0.15,-0.06 -0.075,-0.06 -0.075,-0.165 l 0,-0.99 q 0,-0.105 0.075,-0.165 0.09,-0.06 0.15,-0.06 l 4.215,0 q 0.09,0 0.165,0.075 0.075,0.075 0.075,0.165 l 0,0.96 z m -2.265,4.74 q -0.765,0 -1.23,0.48 -0.45,0.465 -0.45,1.215 0,0.735 0.45,1.215 0.465,0.48 1.23,0.48 0.795,0 1.245,-0.48 0.45,-0.48 0.45,-1.215 0,-0.75 -0.45,-1.215 -0.45,-0.48 -1.245,-0.48 z m 0,-1.365 q 0.735,0 1.35,0.225 0.615,0.21 1.05,0.615 0.435,0.39 0.675,0.945 0.255,0.555 0.255,1.23 0,0.675 -0.255,1.245 -0.24,0.57 -0.69,0.99 -0.435,0.405 -1.05,0.645 -0.615,0.24 -1.35,0.24 -0.735,0 -1.35,-0.225 -0.6,-0.24 -1.035,-0.66 -0.435,-0.42 -0.675,-0.99 -0.24,-0.57 -0.24,-1.245 0,-0.66 0.24,-1.215 0.24,-0.555 0.675,-0.945 0.45,-0.405 1.05,-0.63 0.615,-0.225 1.35,-0.225 z m 9,1.68 q 0,0.075 -0.075,0.135 -0.06,0.06 -0.15,0.06 l -2.025,0 0,6.945 q 0,0.195 -0.195,0.195 l -1.335,0 q -0.195,0 -0.195,-0.195 l 0,-13.845 q 0,-0.195 0.195,-0.195 l 1.335,0 q 0.195,0 0.195,0.195 l 0,5.46 2.025,0 q 0.09,0 0.15,0.06 0.075,0.045 0.075,0.12 l 0,1.065 z" />
      <path
         id="path4807"
         style="font-style:normal;font-variant:normal;font-weight:600;font-stretch:normal;font-size:15px;line-height:125%;font-family:NanumGothic;-inkscape-font-specification:'NanumGothic Semi-Bold';letter-spacing:0px;word-spacing:0px;fill:#f7400d;fill-opacity:1;stroke:none;stroke-width:1px;stroke-linecap:butt;stroke-linejoin:miter;stroke-opacity:1"
         d="m 1057.099,819.26967 q 0,0.195 -0.195,0.195 l -1.335,0 q -0.195,0 -0.195,-0.195 l 0,-13.845 q 0,-0.195 0.195,-0.195 l 1.335,0 q 0.195,0 0.195,0.195 l 0,13.845 z m -4.05,-11.79 q -0.12,1.455 -0.615,2.745 -0.48,1.29 -1.29,2.4 -0.795,1.11 -1.89,2.055 -1.095,0.945 -2.415,1.725 -0.12,0.075 -0.27,0.06 -0.135,-0.03 -0.21,-0.15 l -0.51,-0.795 q -0.075,-0.12 -0.045,-0.225 0.03,-0.12 0.135,-0.18 2.235,-1.32 3.57,-3.045 1.35,-1.725 1.755,-3.78 0.06,-0.3 -0.03,-0.39 -0.09,-0.105 -0.375,-0.105 l -4.23,0 q -0.21,0 -0.21,-0.21 l 0,-1.05 q 0,-0.18 0.21,-0.18 l 5.37,0 q 0.675,0 0.885,0.285 0.21,0.27 0.165,0.84 z" />
    </g>
  </g>
</svg>
