<?xml version="1.0" encoding="UTF-8" standalone="no"?>
<svg
   xmlns:dc="http://purl.org/dc/elements/1.1/"
   xmlns:cc="http://creativecommons.org/ns#"
   xmlns:rdf="http://www.w3.org/1999/02/22-rdf-syntax-ns#"
   xmlns:svg="http://www.w3.org/2000/svg"
   xmlns="http://www.w3.org/2000/svg"
   version="1.1"
   id="svg4930"
   viewBox="0 0 231.25038 50.000001"
   height="50"
   width="231.25038">
  <defs
     id="defs4932" />
  <metadata
     id="metadata4935">
    <rdf:RDF>
      <cc:Work
         rdf:about="">
        <dc:format>image/svg+xml</dc:format>
        <dc:type
           rdf:resource="http://purl.org/dc/dcmitype/StillImage" />
        <dc:title></dc:title>
      </cc:Work>
    </rdf:RDF>
  </metadata>
  <g
     transform="translate(-552.94624,-250.21935)"
     id="layer1">
    <g
       id="g5527">
      <path
         id="path11614-5-6"
         style="display:inline;fill:#faeb30;fill-opacity:1;fill-rule:nonzero;stroke:none"
         d="m 784.19662,295.90935 c 0,2.37 -1.93625,4.31 -4.30875,4.31 l -222.6375,0 c -2.365,0 -4.30375,-1.94 -4.30375,-4.31 l 0,-41.37875 c 0,-2.37125 1.93875,-4.31125 4.30375,-4.31125 l 222.6375,0 c 2.3725,0 4.30875,1.94 4.30875,4.31125 l 0,41.37875 z" />
      <path
         d="m 602.94662,299.50497 -0.7125,0 0,-48.57125 0.7125,0 0,48.57125 z"
         style="display:inline;fill:#cfc43e;fill-opacity:1;fill-rule:nonzero;stroke:none"
         id="path11616-3-5" />
      <path
         id="path11620-8-9"
         style="display:inline;fill:#cfc43e;fill-opacity:1;fill-rule:nonzero;stroke:none"
         d="m 779.88749,250.21935 -222.63625,0 c -2.36625,0 -4.305,1.94 -4.305,4.31125 l 0,41.37875 c 0,2.36875 1.93875,4.31 4.305,4.31 l 222.63625,0 c 2.37,0 4.30875,-1.94125 4.30875,-4.31 l 0,-41.37875 c 0,-2.37125 -1.93875,-4.31125 -4.30875,-4.31125 m 0,0.71375 c 1.9825,0 3.59375,1.6125 3.59375,3.5975 l 0,41.37875 c 0,1.9825 -1.61125,3.59625 -3.59375,3.59625 l -222.63625,0 c -1.98,0 -3.58875,-1.61375 -3.58875,-3.59625 l 0,-41.37875 c 0,-1.985 1.60875,-3.5975 3.58875,-3.5975 l 222.63625,0" />
      <path
         id="path5497"
         style="font-style:normal;font-variant:normal;font-weight:600;font-stretch:normal;font-size:15px;line-height:125%;font-family:NanumGothic;-inkscape-font-specification:'NanumGothic Semi-Bold';letter-spacing:0px;word-spacing:0px;fill:#35201e;fill-opacity:1;stroke:none;stroke-width:1px;stroke-linecap:butt;stroke-linejoin:miter;stroke-opacity:1"
         d="m 628.64126,270.33684 q -0.09,1.365 -0.57,2.655 -0.465,1.29 -1.275,2.46 -0.795,1.155 -1.92,2.16 -1.125,0.99 -2.52,1.755 -0.12,0.075 -0.255,0.06 -0.12,-0.015 -0.195,-0.135 l -0.6,-0.84 q -0.075,-0.12 -0.045,-0.24 0.03,-0.12 0.15,-0.18 1.41,-0.765 2.505,-1.785 1.095,-1.02 1.815,-2.235 -0.93,0.09 -1.965,0.135 -1.02,0.045 -1.92,0.06 -0.06,0 -0.135,-0.06 -0.075,-0.06 -0.075,-0.18 l 0,-0.975 q 0,-0.09 0.075,-0.15 0.075,-0.06 0.12,-0.06 0.555,0 1.155,-0.015 0.615,-0.03 1.215,-0.06 0.615,-0.03 1.185,-0.06 0.57,-0.03 1.05,-0.075 0.12,-0.36 0.195,-0.72 0.09,-0.36 0.165,-0.705 0.045,-0.3 -0.045,-0.39 -0.075,-0.105 -0.36,-0.105 l -4.215,0 q -0.21,0 -0.21,-0.21 l 0,-1.05 q 0,-0.18 0.21,-0.18 l 5.415,0 q 0.675,0 0.885,0.285 0.21,0.27 0.165,0.84 z m 5.955,4.305 q 0,0.075 -0.075,0.15 -0.06,0.06 -0.15,0.06 l -2.025,0 0,7.275 q 0,0.195 -0.195,0.195 l -1.335,0 q -0.195,0 -0.195,-0.195 l 0,-13.845 q 0,-0.195 0.195,-0.195 l 1.335,0 q 0.195,0 0.195,0.195 l 0,5.13 2.025,0 q 0.09,0 0.15,0.06 0.075,0.045 0.075,0.12 l 0,1.05 z" />
      <path
         id="path5499"
         style="font-style:normal;font-variant:normal;font-weight:600;font-stretch:normal;font-size:15px;line-height:125%;font-family:NanumGothic;-inkscape-font-specification:'NanumGothic Semi-Bold';letter-spacing:0px;word-spacing:0px;fill:#35201e;fill-opacity:1;stroke:none;stroke-width:1px;stroke-linecap:butt;stroke-linejoin:miter;stroke-opacity:1"
         d="m 642.73305,270.33684 q -0.09,1.365 -0.57,2.655 -0.465,1.29 -1.275,2.46 -0.795,1.155 -1.92,2.16 -1.125,0.99 -2.52,1.755 -0.12,0.075 -0.255,0.06 -0.12,-0.015 -0.195,-0.135 l -0.6,-0.84 q -0.075,-0.12 -0.045,-0.24 0.03,-0.12 0.15,-0.18 1.41,-0.765 2.505,-1.785 1.095,-1.02 1.815,-2.235 -0.93,0.09 -1.965,0.135 -1.02,0.045 -1.92,0.06 -0.06,0 -0.135,-0.06 -0.075,-0.06 -0.075,-0.18 l 0,-0.975 q 0,-0.09 0.075,-0.15 0.075,-0.06 0.12,-0.06 0.555,0 1.155,-0.015 0.615,-0.03 1.215,-0.06 0.615,-0.03 1.185,-0.06 0.57,-0.03 1.05,-0.075 0.12,-0.36 0.195,-0.72 0.09,-0.36 0.165,-0.705 0.045,-0.3 -0.045,-0.39 -0.075,-0.105 -0.36,-0.105 l -4.215,0 q -0.21,0 -0.21,-0.21 l 0,-1.05 q 0,-0.18 0.21,-0.18 l 5.415,0 q 0.675,0 0.885,0.285 0.21,0.27 0.165,0.84 z m 5.955,4.305 q 0,0.075 -0.075,0.15 -0.06,0.06 -0.15,0.06 l -2.025,0 0,7.275 q 0,0.195 -0.195,0.195 l -1.335,0 q -0.195,0 -0.195,-0.195 l 0,-13.845 q 0,-0.195 0.195,-0.195 l 1.335,0 q 0.195,0 0.195,0.195 l 0,5.13 2.025,0 q 0.09,0 0.15,0.06 0.075,0.045 0.075,0.12 l 0,1.05 z" />
      <path
         id="path5501"
         style="font-style:normal;font-variant:normal;font-weight:600;font-stretch:normal;font-size:15px;line-height:125%;font-family:NanumGothic;-inkscape-font-specification:'NanumGothic Semi-Bold';letter-spacing:0px;word-spacing:0px;fill:#35201e;fill-opacity:1;stroke:none;stroke-width:1px;stroke-linecap:butt;stroke-linejoin:miter;stroke-opacity:1"
         d="m 662.56985,279.66684 q 0,0.075 -0.075,0.15 -0.075,0.075 -0.15,0.075 l -13.065,0 q -0.09,0 -0.15,-0.075 -0.06,-0.075 -0.06,-0.15 l 0,-0.975 q 0,-0.24 0.21,-0.24 l 5.67,0 0,-2.775 q -0.885,-0.09 -1.635,-0.36 -0.735,-0.285 -1.275,-0.72 -0.54,-0.435 -0.84,-1.005 -0.3,-0.585 -0.3,-1.29 0,-0.78 0.375,-1.41 0.375,-0.63 1.035,-1.08 0.66,-0.45 1.56,-0.69 0.9,-0.24 1.95,-0.24 1.05,0 1.95,0.24 0.9,0.24 1.56,0.69 0.66,0.45 1.02,1.08 0.375,0.63 0.375,1.41 0,0.705 -0.3,1.29 -0.3,0.57 -0.84,1.005 -0.54,0.435 -1.29,0.72 -0.735,0.27 -1.62,0.36 l 0,2.775 5.67,0 q 0.075,0 0.15,0.075 0.075,0.075 0.075,0.165 l 0,0.975 z m -6.75,-9.36 q -0.63,0 -1.2,0.15 -0.57,0.135 -1.005,0.405 -0.42,0.255 -0.675,0.63 -0.255,0.36 -0.255,0.81 0,0.45 0.255,0.825 0.255,0.375 0.675,0.645 0.435,0.255 1.005,0.405 0.57,0.135 1.2,0.135 0.63,0 1.2,-0.135 0.57,-0.15 0.99,-0.405 0.435,-0.27 0.675,-0.645 0.255,-0.375 0.255,-0.825 0,-0.45 -0.255,-0.81 -0.24,-0.375 -0.675,-0.63 -0.42,-0.27 -0.99,-0.405 -0.57,-0.15 -1.2,-0.15 z" />
      <path
         id="path5503"
         style="font-style:normal;font-variant:normal;font-weight:600;font-stretch:normal;font-size:15px;line-height:125%;font-family:NanumGothic;-inkscape-font-specification:'NanumGothic Semi-Bold';letter-spacing:0px;word-spacing:0px;fill:#35201e;fill-opacity:1;stroke:none;stroke-width:1px;stroke-linecap:butt;stroke-linejoin:miter;stroke-opacity:1"
         d="m 666.35665,274.08684 q -0.6,0 -0.84,-0.225 -0.225,-0.225 -0.225,-0.78 l 0,-3.735 q 0,-0.555 0.24,-0.78 0.255,-0.225 0.825,-0.225 l 7.92,0 q 0.21,0 0.21,0.195 l 0,0.915 q 0,0.195 -0.21,0.195 l -7.065,0 q -0.135,0 -0.165,0.03 -0.03,0.015 -0.03,0.165 l 0,0.735 7.035,0 q 0.075,0 0.15,0.06 0.075,0.06 0.075,0.135 l 0,0.885 q 0,0.09 -0.075,0.15 -0.075,0.045 -0.15,0.045 l -7.035,0 0,0.705 q 0,0.165 0.03,0.195 0.03,0.03 0.195,0.03 l 7.095,0 q 0.255,0 0.255,0.195 l 0,0.87 q 0,0.24 -0.255,0.24 l -3.57,0 0,1.275 5.655,0 q 0.075,0 0.15,0.075 0.075,0.06 0.075,0.135 l 0,0.96 q 0,0.09 -0.075,0.165 -0.075,0.075 -0.15,0.075 l -13.05,0 q -0.21,0 -0.21,-0.24 l 0,-0.96 q 0,-0.21 0.21,-0.21 l 5.67,0 0,-1.275 -2.685,0 z m 8.16,8.19 q 0,0.075 -0.075,0.135 -0.06,0.075 -0.135,0.075 l -1.29,0 q -0.09,0 -0.165,-0.075 -0.06,-0.06 -0.06,-0.135 l 0,-2.91 q 0,-0.15 -0.06,-0.195 -0.06,-0.045 -0.225,-0.045 l -7.305,0 q -0.075,0 -0.15,-0.045 -0.06,-0.06 -0.06,-0.135 l 0,-1.05 q 0,-0.09 0.06,-0.135 0.075,-0.045 0.15,-0.045 l 8.325,0 q 0.57,0 0.78,0.24 0.21,0.225 0.21,0.795 l 0,3.525 z" />
      <path
         id="path5505"
         style="font-style:normal;font-variant:normal;font-weight:600;font-stretch:normal;font-size:15px;line-height:125%;font-family:NanumGothic;-inkscape-font-specification:'NanumGothic Semi-Bold';letter-spacing:0px;word-spacing:0px;fill:#35201e;fill-opacity:1;stroke:none;stroke-width:1px;stroke-linecap:butt;stroke-linejoin:miter;stroke-opacity:1"
         d="m 690.75344,279.56184 q 0,0.075 -0.075,0.15 -0.075,0.075 -0.15,0.075 l -13.065,0 q -0.09,0 -0.15,-0.075 -0.06,-0.075 -0.06,-0.15 l 0,-0.99 q 0,-0.09 0.06,-0.15 0.06,-0.075 0.15,-0.075 l 13.065,0 q 0.075,0 0.15,0.075 0.075,0.075 0.075,0.15 l 0,0.99 z m -6.75,-3.69 q -1.05,0 -1.95,-0.24 -0.9,-0.24 -1.56,-0.69 -0.66,-0.45 -1.035,-1.08 -0.375,-0.63 -0.375,-1.41 0,-0.78 0.375,-1.41 0.375,-0.63 1.035,-1.08 0.66,-0.45 1.56,-0.69 0.9,-0.24 1.95,-0.24 1.05,0 1.95,0.24 0.9,0.24 1.56,0.69 0.66,0.45 1.02,1.08 0.375,0.63 0.375,1.41 0,0.78 -0.375,1.41 -0.36,0.63 -1.02,1.08 -0.66,0.45 -1.56,0.69 -0.9,0.24 -1.95,0.24 z m 0,-5.415 q -0.63,0 -1.2,0.15 -0.57,0.135 -1.005,0.405 -0.42,0.255 -0.675,0.63 -0.255,0.36 -0.255,0.81 0,0.45 0.255,0.825 0.255,0.375 0.675,0.645 0.435,0.255 1.005,0.405 0.57,0.135 1.2,0.135 0.63,0 1.2,-0.135 0.57,-0.15 0.99,-0.405 0.435,-0.27 0.675,-0.645 0.255,-0.375 0.255,-0.825 0,-0.45 -0.255,-0.81 -0.24,-0.375 -0.675,-0.63 -0.42,-0.27 -0.99,-0.405 -0.57,-0.15 -1.2,-0.15 z" />
      <path
         id="path5507"
         style="font-style:normal;font-variant:normal;font-weight:600;font-stretch:normal;font-size:15px;line-height:125%;font-family:NanumGothic;-inkscape-font-specification:'NanumGothic Semi-Bold';letter-spacing:0px;word-spacing:0px;fill:#35201e;fill-opacity:1;stroke:none;stroke-width:1px;stroke-linecap:butt;stroke-linejoin:miter;stroke-opacity:1"
         d="m 704.84524,279.66684 q 0,0.075 -0.075,0.15 -0.075,0.075 -0.15,0.075 l -13.065,0 q -0.09,0 -0.15,-0.075 -0.06,-0.075 -0.06,-0.15 l 0,-0.945 q 0,-0.09 0.06,-0.165 0.06,-0.075 0.15,-0.075 l 5.685,0 0,-2.235 -2.685,0 q -0.33,0 -0.54,-0.045 -0.21,-0.045 -0.33,-0.165 -0.12,-0.12 -0.165,-0.3 -0.045,-0.195 -0.045,-0.495 l 0,-2.415 q 0,-0.3 0.045,-0.48 0.045,-0.195 0.165,-0.3 0.12,-0.12 0.33,-0.15 0.21,-0.045 0.54,-0.045 l 6.24,0 q 0.15,0 0.18,-0.03 0.045,-0.045 0.045,-0.21 l 0,-1.17 q 0,-0.165 -0.045,-0.18 -0.03,-0.03 -0.18,-0.03 l -7.065,0 q -0.075,0 -0.135,-0.06 -0.06,-0.075 -0.06,-0.15 l 0,-1.005 q 0,-0.075 0.06,-0.135 0.06,-0.06 0.135,-0.06 l 7.89,0 q 0.63,0 0.855,0.21 0.225,0.195 0.225,0.78 l 0,2.43 q 0,0.585 -0.225,0.795 -0.225,0.195 -0.855,0.195 l -6.255,0 q -0.15,0 -0.18,0.03 -0.03,0.03 -0.03,0.18 l 0,1.185 q 0,0.165 0.03,0.21 0.045,0.03 0.195,0.03 l 7.44,0 q 0.075,0 0.135,0.06 0.06,0.045 0.06,0.12 l 0,1.005 q 0,0.075 -0.075,0.135 -0.06,0.06 -0.12,0.06 l -3.855,0 0,2.235 5.655,0 q 0.075,0 0.15,0.09 0.075,0.075 0.075,0.15 l 0,0.945 z" />
      <path
         id="path5509"
         style="font-style:normal;font-variant:normal;font-weight:600;font-stretch:normal;font-size:15px;line-height:125%;font-family:NanumGothic;-inkscape-font-specification:'NanumGothic Semi-Bold';letter-spacing:0px;word-spacing:0px;fill:#35201e;fill-opacity:1;stroke:none;stroke-width:1px;stroke-linecap:butt;stroke-linejoin:miter;stroke-opacity:1"
         d="m 717.26149,270.33684 q -0.105,1.365 -0.555,2.64 -0.45,1.26 -1.245,2.385 -0.78,1.125 -1.89,2.1 -1.11,0.975 -2.505,1.74 -0.12,0.06 -0.255,0.06 -0.12,-0.015 -0.195,-0.135 l -0.6,-0.84 q -0.075,-0.12 -0.045,-0.24 0.03,-0.12 0.135,-0.195 2.235,-1.185 3.615,-2.925 1.38,-1.74 1.68,-3.78 0.045,-0.3 -0.045,-0.39 -0.075,-0.105 -0.345,-0.105 l -4.23,0 q -0.195,0 -0.195,-0.21 l 0,-1.05 q 0,-0.18 0.195,-0.18 l 5.415,0 q 0.675,0 0.885,0.285 0.225,0.27 0.18,0.84 z m 6.075,4.455 q 0,0.09 -0.075,0.15 -0.06,0.06 -0.15,0.06 l -2.025,0 0,7.125 q 0,0.195 -0.195,0.195 l -1.335,0 q -0.195,0 -0.195,-0.195 l 0,-13.845 q 0,-0.195 0.195,-0.195 l 1.335,0 q 0.195,0 0.195,0.195 l 0,5.28 2.025,0 q 0.09,0 0.15,0.06 0.075,0.045 0.075,0.12 l 0,1.05 z" />
      <path
         id="path5511"
         style="font-style:normal;font-variant:normal;font-weight:600;font-stretch:normal;font-size:15px;line-height:125%;font-family:NanumGothic;-inkscape-font-specification:'NanumGothic Semi-Bold';letter-spacing:0px;word-spacing:0px;fill:#35201e;fill-opacity:1;stroke:none;stroke-width:1px;stroke-linecap:butt;stroke-linejoin:miter;stroke-opacity:1"
         d="m 735.65829,275.45184 q 0,0.21 -0.195,0.21 l -1.335,0 q -0.195,0 -0.195,-0.21 l 0,-7.17 q 0,-0.195 0.195,-0.195 l 1.335,0 q 0.195,0 0.195,0.195 l 0,7.17 z m -1.725,3.93 -5.295,0 0,1.05 q 0,0.255 0.27,0.255 l 4.755,0 q 0.27,0 0.27,-0.255 l 0,-1.05 z m 1.725,1.71 q 0,0.51 -0.24,0.75 -0.24,0.255 -0.885,0.255 l -6.48,0 q -0.66,0 -0.9,-0.225 -0.24,-0.225 -0.24,-0.825 l 0,-4.44 q 0,-0.075 0.06,-0.12 0.06,-0.06 0.135,-0.06 l 1.32,0 q 0.075,0 0.135,0.06 0.075,0.045 0.075,0.12 l 0,1.38 5.295,0 0,-1.44 q 0,-0.075 0.06,-0.135 0.06,-0.06 0.135,-0.06 l 1.335,0 q 0.075,0 0.135,0.06 0.06,0.06 0.06,0.135 l 0,4.545 z m -3.855,-9.21 q 0,0.66 -0.27,1.275 -0.255,0.6 -0.735,1.065 -0.465,0.465 -1.14,0.75 -0.66,0.27 -1.47,0.27 -0.81,0 -1.485,-0.27 -0.66,-0.285 -1.14,-0.75 -0.465,-0.465 -0.72,-1.065 -0.255,-0.615 -0.255,-1.275 0,-0.675 0.255,-1.29 0.255,-0.615 0.72,-1.08 0.48,-0.465 1.14,-0.735 0.675,-0.285 1.485,-0.285 0.81,0 1.47,0.285 0.675,0.27 1.14,0.735 0.48,0.465 0.735,1.08 0.27,0.615 0.27,1.29 z m -1.65,0 q 0,-0.39 -0.15,-0.75 -0.135,-0.36 -0.405,-0.63 -0.255,-0.27 -0.615,-0.435 -0.36,-0.165 -0.795,-0.165 -0.435,0 -0.795,0.165 -0.36,0.165 -0.615,0.435 -0.255,0.27 -0.405,0.63 -0.135,0.36 -0.135,0.75 0,0.39 0.135,0.75 0.15,0.345 0.405,0.615 0.255,0.27 0.615,0.435 0.36,0.15 0.795,0.15 0.435,0 0.795,-0.15 0.36,-0.165 0.615,-0.435 0.27,-0.27 0.405,-0.615 0.15,-0.36 0.15,-0.75 z" />
      <path
         id="path5513"
         style="font-style:normal;font-variant:normal;font-weight:600;font-stretch:normal;font-size:15px;line-height:125%;font-family:NanumGothic;-inkscape-font-specification:'NanumGothic Semi-Bold';letter-spacing:0px;word-spacing:0px;fill:#35201e;fill-opacity:1;stroke:none;stroke-width:1px;stroke-linecap:butt;stroke-linejoin:miter;stroke-opacity:1"
         d="m 746.70509,272.33184 q 0,0.09 -0.075,0.165 -0.06,0.075 -0.15,0.075 l -8.13,0 q -0.09,0 -0.18,-0.075 -0.075,-0.09 -0.075,-0.18 l 0,-0.915 q 0,-0.075 0.075,-0.15 0.09,-0.075 0.18,-0.075 l 8.13,0 q 0.09,0 0.15,0.075 0.075,0.06 0.075,0.15 l 0,0.93 z m -1.92,-2.4 q 0,0.09 -0.075,0.165 -0.06,0.075 -0.165,0.075 l -4.215,0 q -0.06,0 -0.15,-0.06 -0.075,-0.06 -0.075,-0.165 l 0,-0.99 q 0,-0.105 0.075,-0.165 0.09,-0.06 0.15,-0.06 l 4.215,0 q 0.09,0 0.165,0.075 0.075,0.075 0.075,0.165 l 0,0.96 z m -2.265,4.74 q -0.765,0 -1.23,0.48 -0.45,0.465 -0.45,1.215 0,0.735 0.45,1.215 0.465,0.48 1.23,0.48 0.795,0 1.245,-0.48 0.45,-0.48 0.45,-1.215 0,-0.75 -0.45,-1.215 -0.45,-0.48 -1.245,-0.48 z m 0,-1.365 q 0.735,0 1.35,0.225 0.615,0.21 1.05,0.615 0.435,0.39 0.675,0.945 0.255,0.555 0.255,1.23 0,0.675 -0.255,1.245 -0.24,0.57 -0.69,0.99 -0.435,0.405 -1.05,0.645 -0.615,0.24 -1.35,0.24 -0.735,0 -1.35,-0.225 -0.6,-0.24 -1.035,-0.66 -0.435,-0.42 -0.675,-0.99 -0.24,-0.57 -0.24,-1.245 0,-0.66 0.24,-1.215 0.24,-0.555 0.675,-0.945 0.45,-0.405 1.05,-0.63 0.615,-0.225 1.35,-0.225 z m 9,1.68 q 0,0.075 -0.075,0.135 -0.06,0.06 -0.15,0.06 l -2.025,0 0,6.945 q 0,0.195 -0.195,0.195 l -1.335,0 q -0.195,0 -0.195,-0.195 l 0,-13.845 q 0,-0.195 0.195,-0.195 l 1.335,0 q 0.195,0 0.195,0.195 l 0,5.46 2.025,0 q 0.09,0 0.15,0.06 0.075,0.045 0.075,0.12 l 0,1.065 z" />
      <path
         id="path5515"
         style="font-style:normal;font-variant:normal;font-weight:600;font-stretch:normal;font-size:15px;line-height:125%;font-family:NanumGothic;-inkscape-font-specification:'NanumGothic Semi-Bold';letter-spacing:0px;word-spacing:0px;fill:#35201e;fill-opacity:1;stroke:none;stroke-width:1px;stroke-linecap:butt;stroke-linejoin:miter;stroke-opacity:1"
         d="m 763.97688,282.12684 q 0,0.195 -0.195,0.195 l -1.335,0 q -0.195,0 -0.195,-0.195 l 0,-13.845 q 0,-0.195 0.195,-0.195 l 1.335,0 q 0.195,0 0.195,0.195 l 0,13.845 z m -4.05,-11.79 q -0.12,1.455 -0.615,2.745 -0.48,1.29 -1.29,2.4 -0.795,1.11 -1.89,2.055 -1.095,0.945 -2.415,1.725 -0.12,0.075 -0.27,0.06 -0.135,-0.03 -0.21,-0.15 l -0.51,-0.795 q -0.075,-0.12 -0.045,-0.225 0.03,-0.12 0.135,-0.18 2.235,-1.32 3.57,-3.045 1.35,-1.725 1.755,-3.78 0.06,-0.3 -0.03,-0.39 -0.09,-0.105 -0.375,-0.105 l -4.23,0 q -0.21,0 -0.21,-0.21 l 0,-1.05 q 0,-0.18 0.21,-0.18 l 5.37,0 q 0.675,0 0.885,0.285 0.21,0.27 0.165,0.84 z" />
      <g
         id="g24"
         transform="matrix(0.1171875,0,0,-0.1171875,577.94624,264.43822)"
         style="display:inline;fill:#35201e;fill-opacity:1">
        <path
           d="m 0,0 c -57.438,0 -104,-36.713 -104,-82 0,-29.279 19.466,-54.97 48.748,-69.477 -1.593,-5.494 -10.237,-35.343 -10.581,-37.689 0,0 -0.207,-1.762 0.934,-2.434 1.141,-0.671 2.483,-0.15 2.483,-0.15 3.272,0.457 37.943,24.811 43.944,29.04 5.995,-0.849 12.168,-1.29 18.472,-1.29 57.438,0 104,36.712 104,82 C 104,-36.713 57.438,0 0,0"
           style="fill:#35201e;fill-opacity:1;fill-rule:nonzero;stroke:none"
           id="path26" />
      </g>
    </g>
  </g>
</svg>
