<?xml version="1.0" encoding="UTF-8" standalone="no"?>
<svg
   xmlns:dc="http://purl.org/dc/elements/1.1/"
   xmlns:cc="http://creativecommons.org/ns#"
   xmlns:rdf="http://www.w3.org/1999/02/22-rdf-syntax-ns#"
   xmlns:svg="http://www.w3.org/2000/svg"
   xmlns="http://www.w3.org/2000/svg"
   version="1.1"
   id="svg6336"
   viewBox="0 0 231.25038 50.000199"
   height="50.000198"
   width="231.25038">
  <defs
     id="defs6338" />
  <metadata
     id="metadata6341">
    <rdf:RDF>
      <cc:Work
         rdf:about="">
        <dc:format>image/svg+xml</dc:format>
        <dc:type
           rdf:resource="http://purl.org/dc/dcmitype/StillImage" />
        <dc:title></dc:title>
      </cc:Work>
    </rdf:RDF>
  </metadata>
  <g
     transform="translate(0,-1002.362)"
     id="layer1">
    <g
       id="g6925">
      <path
         id="path11614"
         style="display:inline;fill:#1ec800;fill-opacity:1;fill-rule:nonzero;stroke:none"
         d="m 231.25038,1048.052 c 0,2.37 -1.93625,4.31 -4.30875,4.31 l -222.6375,0 c -2.365,0 -4.30375,-1.94 -4.30375,-4.31 l 0,-41.3788 c 0,-2.3712 1.93875,-4.3112 4.30375,-4.3112 l 222.6375,0 c 2.3725,0 4.30875,1.94 4.30875,4.3112 l 0,41.3788 z" />
      <path
         d="m 50.00038,1051.6476 -0.7125,0 0,-48.5713 0.7125,0 0,48.5713 z"
         style="display:inline;fill:#6bb02b;fill-opacity:1;fill-rule:nonzero;stroke:none"
         id="path11616" />
      <path
         id="path11620"
         style="display:inline;fill:#6bb02b;fill-opacity:1;fill-rule:nonzero;stroke:none"
         d="m 226.94125,1002.3622 -222.63625,0 c -2.36625,0 -4.305,1.94 -4.305,4.3113 l 0,41.3787 c 0,2.3688 1.93875,4.31 4.305,4.31 l 222.63625,0 c 2.37,0 4.30875,-1.9412 4.30875,-4.31 l 0,-41.3787 c 0,-2.3713 -1.93875,-4.3113 -4.30875,-4.3113 m 0,0.7138 c 1.9825,0 3.59375,1.6125 3.59375,3.5975 l 0,41.3787 c 0,1.9825 -1.61125,3.5963 -3.59375,3.5963 l -222.63625,0 c -1.98,0 -3.58875,-1.6138 -3.58875,-3.5963 l 0,-41.3787 c 0,-1.985 1.60875,-3.5975 3.58875,-3.5975 l 222.63625,0" />
      <path
         id="path11652"
         style="display:inline;fill:#ffffff;fill-opacity:1;fill-rule:nonzero;stroke:none"
         d="m 28.79313,1016.4247 0,11.0363 -7.56,-11.0363 -8.17125,0 0,21.875 8.14375,0 0,-11.0362 7.56125,11.0362 8.17125,0 0,-21.875 -8.145,0 z" />
      <path
         id="path6901"
         style="font-style:normal;font-variant:normal;font-weight:600;font-stretch:normal;font-size:15px;line-height:125%;font-family:NanumGothic;-inkscape-font-specification:'NanumGothic Semi-Bold';letter-spacing:0px;word-spacing:0px;fill:#ffffff;fill-opacity:1;stroke:none;stroke-width:1px;stroke-linecap:butt;stroke-linejoin:miter;stroke-opacity:1"
         d="m 91.750014,1033.7746 q 0,0.21 -0.195,0.21 l -1.23,0 q -0.21,0 -0.21,-0.21 l 0,-7.62 -2.925,0 q -0.075,0 -0.15,-0.06 -0.06,-0.06 -0.06,-0.135 l 0,-1.05 q 0,-0.075 0.06,-0.12 0.075,-0.06 0.15,-0.06 l 2.925,0 0,-4.05 q 0,-0.195 0.21,-0.195 l 1.23,0 q 0.195,0 0.195,0.195 l 0,13.095 z m 2.91,0.525 q 0,0.195 -0.21,0.195 l -1.29,0 q -0.075,0 -0.15,-0.06 -0.06,-0.06 -0.06,-0.135 l 0,-13.875 q 0,-0.075 0.06,-0.135 0.075,-0.06 0.165,-0.06 l 1.275,0 q 0.21,0 0.21,0.195 l 0,13.875 z m -5.31,-4.635 q 0.015,0.105 -0.06,0.165 -0.075,0.045 -0.18,0.075 -0.54,0.15 -1.185,0.255 -0.63,0.09 -1.305,0.15 -0.66,0.045 -1.32,0.06 -0.66,0 -1.245,-0.03 -0.54,-0.03 -0.825,-0.315 -0.285,-0.3 -0.285,-0.81 l 0,-7.755 q 0,-0.075 0.06,-0.135 0.075,-0.075 0.165,-0.075 l 1.245,0 q 0.09,0 0.165,0.075 0.075,0.06 0.075,0.135 l 0,7.185 q 0,0.225 0.27,0.24 0.36,0.03 0.855,0.03 0.495,-0.015 1.035,-0.045 0.54,-0.045 1.08,-0.12 0.555,-0.075 1.005,-0.18 0.075,-0.015 0.165,0.015 0.105,0.03 0.135,0.135 l 0.15,0.945 z" />
      <path
         id="path6903"
         style="font-style:normal;font-variant:normal;font-weight:600;font-stretch:normal;font-size:15px;line-height:125%;font-family:NanumGothic;-inkscape-font-specification:'NanumGothic Semi-Bold';letter-spacing:0px;word-spacing:0px;fill:#ffffff;fill-opacity:1;stroke:none;stroke-width:1px;stroke-linecap:butt;stroke-linejoin:miter;stroke-opacity:1"
         d="m 108.10681,1034.2696 q 0,0.195 -0.195,0.195 l -1.335,0 q -0.195,0 -0.195,-0.195 l 0,-13.845 q 0,-0.195 0.195,-0.195 l 1.335,0 q 0.195,0 0.195,0.195 l 0,13.845 z m -5.415,-8.205 q 0,-0.69 -0.135,-1.305 -0.135,-0.63 -0.39,-1.095 -0.255,-0.465 -0.63,-0.735 -0.36,-0.27 -0.84,-0.27 -0.48,0 -0.854999,0.27 -0.36,0.27 -0.615,0.735 -0.255,0.465 -0.39,1.095 -0.135,0.615 -0.135,1.305 0,0.675 0.135,1.305 0.135,0.615 0.39,1.095 0.255,0.465 0.615,0.75 0.374999,0.27 0.854999,0.27 0.48,0 0.84,-0.27 0.375,-0.285 0.63,-0.75 0.255,-0.48 0.39,-1.095 0.135,-0.63 0.135,-1.305 z m -1.995,4.95 q -0.854999,0 -1.544999,-0.36 -0.69,-0.36 -1.17,-1.005 -0.465,-0.66 -0.72,-1.575 -0.255,-0.915 -0.255,-2.01 0,-1.125 0.255,-2.04 0.255,-0.915 0.72,-1.545 0.48,-0.645 1.17,-0.99 0.69,-0.36 1.544999,-0.36 0.87,0 1.545,0.36 0.69,0.345 1.155,0.99 0.48,0.63 0.735,1.545 0.255,0.915 0.255,2.04 0,1.125 -0.255,2.04 -0.255,0.915 -0.735,1.56 -0.465,0.645 -1.155,1.005 -0.675,0.345 -1.545,0.345 z" />
      <path
         id="path6905"
         style="font-style:normal;font-variant:normal;font-weight:600;font-stretch:normal;font-size:15px;line-height:125%;font-family:NanumGothic;-inkscape-font-specification:'NanumGothic Semi-Bold';letter-spacing:0px;word-spacing:0px;fill:#ffffff;fill-opacity:1;stroke:none;stroke-width:1px;stroke-linecap:butt;stroke-linejoin:miter;stroke-opacity:1"
         d="m 118.08861,1029.3346 q 0,0.495 -0.255,0.75 -0.24,0.255 -0.885,0.255 l -4.56,0 q -0.66,0 -0.9,-0.225 -0.24,-0.225 -0.24,-0.825 l 0,-8.1 q 0,-0.075 0.06,-0.12 0.06,-0.06 0.135,-0.06 l 1.32,0 q 0.075,0 0.135,0.06 0.075,0.045 0.075,0.12 l 0,3.285 3.375,0 0,-3.3 q 0,-0.075 0.06,-0.135 0.075,-0.06 0.15,-0.06 l 1.32,0 q 0.075,0 0.135,0.06 0.075,0.06 0.075,0.135 l 0,3.93 2.49,0 0,-4.68 q 0,-0.195 0.195,-0.195 l 1.335,0 q 0.195,0 0.195,0.195 l 0,13.845 q 0,0.195 -0.195,0.195 l -1.335,0 q -0.195,0 -0.195,-0.195 l 0,-7.725 -2.49,0 0,2.79 z m -1.74,-3.465 -3.375,0 0,2.805 q 0,0.255 0.27,0.255 l 2.835,0 q 0.27,0 0.27,-0.255 l 0,-2.805 z" />
      <path
         id="path6907"
         style="font-style:normal;font-variant:normal;font-weight:600;font-stretch:normal;font-size:15px;line-height:125%;font-family:NanumGothic;-inkscape-font-specification:'NanumGothic Semi-Bold';letter-spacing:0px;word-spacing:0px;fill:#ffffff;fill-opacity:1;stroke:none;stroke-width:1px;stroke-linecap:butt;stroke-linejoin:miter;stroke-opacity:1"
         d="m 137.7154,1031.8096 q 0,0.075 -0.075,0.15 -0.075,0.075 -0.15,0.075 l -13.065,0 q -0.09,0 -0.15,-0.075 -0.06,-0.075 -0.06,-0.15 l 0,-0.945 q 0,-0.09 0.06,-0.165 0.06,-0.075 0.15,-0.075 l 5.685,0 0,-2.235 -2.685,0 q -0.33,0 -0.54,-0.045 -0.21,-0.045 -0.33,-0.165 -0.12,-0.12 -0.165,-0.3 -0.045,-0.195 -0.045,-0.495 l 0,-2.415 q 0,-0.3 0.045,-0.48 0.045,-0.195 0.165,-0.3 0.12,-0.12 0.33,-0.15 0.21,-0.045 0.54,-0.045 l 6.24,0 q 0.15,0 0.18,-0.03 0.045,-0.045 0.045,-0.21 l 0,-1.17 q 0,-0.165 -0.045,-0.18 -0.03,-0.03 -0.18,-0.03 l -7.065,0 q -0.075,0 -0.135,-0.06 -0.06,-0.075 -0.06,-0.15 l 0,-1.005 q 0,-0.075 0.06,-0.135 0.06,-0.06 0.135,-0.06 l 7.89,0 q 0.63,0 0.855,0.21 0.225,0.195 0.225,0.78 l 0,2.43 q 0,0.585 -0.225,0.795 -0.225,0.195 -0.855,0.195 l -6.255,0 q -0.15,0 -0.18,0.03 -0.03,0.03 -0.03,0.18 l 0,1.185 q 0,0.165 0.03,0.21 0.045,0.03 0.195,0.03 l 7.44,0 q 0.075,0 0.135,0.06 0.06,0.045 0.06,0.12 l 0,1.005 q 0,0.075 -0.075,0.135 -0.06,0.06 -0.12,0.06 l -3.855,0 0,2.235 5.655,0 q 0.075,0 0.15,0.09 0.075,0.075 0.075,0.15 l 0,0.945 z" />
      <path
         id="path6909"
         style="font-style:normal;font-variant:normal;font-weight:600;font-stretch:normal;font-size:15px;line-height:125%;font-family:NanumGothic;-inkscape-font-specification:'NanumGothic Semi-Bold';letter-spacing:0px;word-spacing:0px;fill:#ffffff;fill-opacity:1;stroke:none;stroke-width:1px;stroke-linecap:butt;stroke-linejoin:miter;stroke-opacity:1"
         d="m 150.13165,1022.4796 q -0.105,1.365 -0.555,2.64 -0.45,1.26 -1.245,2.385 -0.78,1.125 -1.89,2.1 -1.11,0.975 -2.505,1.74 -0.12,0.06 -0.255,0.06 -0.12,-0.015 -0.195,-0.135 l -0.6,-0.84 q -0.075,-0.12 -0.045,-0.24 0.03,-0.12 0.135,-0.195 2.235,-1.185 3.615,-2.925 1.38,-1.74 1.68,-3.78 0.045,-0.3 -0.045,-0.39 -0.075,-0.105 -0.345,-0.105 l -4.23,0 q -0.195,0 -0.195,-0.21 l 0,-1.05 q 0,-0.18 0.195,-0.18 l 5.415,0 q 0.675,0 0.885,0.285 0.225,0.27 0.18,0.84 z m 6.075,4.455 q 0,0.09 -0.075,0.15 -0.06,0.06 -0.15,0.06 l -2.025,0 0,7.125 q 0,0.195 -0.195,0.195 l -1.335,0 q -0.195,0 -0.195,-0.195 l 0,-13.845 q 0,-0.195 0.195,-0.195 l 1.335,0 q 0.195,0 0.195,0.195 l 0,5.28 2.025,0 q 0.09,0 0.15,0.06 0.075,0.045 0.075,0.12 l 0,1.05 z" />
      <path
         id="path6911"
         style="font-style:normal;font-variant:normal;font-weight:600;font-stretch:normal;font-size:15px;line-height:125%;font-family:NanumGothic;-inkscape-font-specification:'NanumGothic Semi-Bold';letter-spacing:0px;word-spacing:0px;fill:#ffffff;fill-opacity:1;stroke:none;stroke-width:1px;stroke-linecap:butt;stroke-linejoin:miter;stroke-opacity:1"
         d="m 168.52845,1027.5946 q 0,0.21 -0.195,0.21 l -1.335,0 q -0.195,0 -0.195,-0.21 l 0,-7.17 q 0,-0.195 0.195,-0.195 l 1.335,0 q 0.195,0 0.195,0.195 l 0,7.17 z m -1.725,3.93 -5.295,0 0,1.05 q 0,0.255 0.27,0.255 l 4.755,0 q 0.27,0 0.27,-0.255 l 0,-1.05 z m 1.725,1.71 q 0,0.51 -0.24,0.75 -0.24,0.255 -0.885,0.255 l -6.48,0 q -0.66,0 -0.9,-0.225 -0.24,-0.225 -0.24,-0.825 l 0,-4.44 q 0,-0.075 0.06,-0.12 0.06,-0.06 0.135,-0.06 l 1.32,0 q 0.075,0 0.135,0.06 0.075,0.045 0.075,0.12 l 0,1.38 5.295,0 0,-1.44 q 0,-0.075 0.06,-0.135 0.06,-0.06 0.135,-0.06 l 1.335,0 q 0.075,0 0.135,0.06 0.06,0.06 0.06,0.135 l 0,4.545 z m -3.855,-9.21 q 0,0.66 -0.27,1.275 -0.255,0.6 -0.735,1.065 -0.465,0.465 -1.14,0.75 -0.66,0.27 -1.47,0.27 -0.81,0 -1.485,-0.27 -0.66,-0.285 -1.14,-0.75 -0.465,-0.465 -0.72,-1.065 -0.255,-0.615 -0.255,-1.275 0,-0.675 0.255,-1.29 0.255,-0.615 0.72,-1.08 0.48,-0.465 1.14,-0.735 0.675,-0.285 1.485,-0.285 0.81,0 1.47,0.285 0.675,0.27 1.14,0.735 0.48,0.465 0.735,1.08 0.27,0.615 0.27,1.29 z m -1.65,0 q 0,-0.39 -0.15,-0.75 -0.135,-0.36 -0.405,-0.63 -0.255,-0.27 -0.615,-0.435 -0.36,-0.165 -0.795,-0.165 -0.435,0 -0.795,0.165 -0.36,0.165 -0.615,0.435 -0.255,0.27 -0.405,0.63 -0.135,0.36 -0.135,0.75 0,0.39 0.135,0.75 0.15,0.345 0.405,0.615 0.255,0.27 0.615,0.435 0.36,0.15 0.795,0.15 0.435,0 0.795,-0.15 0.36,-0.165 0.615,-0.435 0.27,-0.27 0.405,-0.615 0.15,-0.36 0.15,-0.75 z" />
      <path
         id="path6913"
         style="font-style:normal;font-variant:normal;font-weight:600;font-stretch:normal;font-size:15px;line-height:125%;font-family:NanumGothic;-inkscape-font-specification:'NanumGothic Semi-Bold';letter-spacing:0px;word-spacing:0px;fill:#ffffff;fill-opacity:1;stroke:none;stroke-width:1px;stroke-linecap:butt;stroke-linejoin:miter;stroke-opacity:1"
         d="m 179.57525,1024.4746 q 0,0.09 -0.075,0.165 -0.06,0.075 -0.15,0.075 l -8.13,0 q -0.09,0 -0.18,-0.075 -0.075,-0.09 -0.075,-0.18 l 0,-0.915 q 0,-0.075 0.075,-0.15 0.09,-0.075 0.18,-0.075 l 8.13,0 q 0.09,0 0.15,0.075 0.075,0.06 0.075,0.15 l 0,0.93 z m -1.92,-2.4 q 0,0.09 -0.075,0.165 -0.06,0.075 -0.165,0.075 l -4.215,0 q -0.06,0 -0.15,-0.06 -0.075,-0.06 -0.075,-0.165 l 0,-0.99 q 0,-0.105 0.075,-0.165 0.09,-0.06 0.15,-0.06 l 4.215,0 q 0.09,0 0.165,0.075 0.075,0.075 0.075,0.165 l 0,0.96 z m -2.265,4.74 q -0.765,0 -1.23,0.48 -0.45,0.465 -0.45,1.215 0,0.735 0.45,1.215 0.465,0.48 1.23,0.48 0.795,0 1.245,-0.48 0.45,-0.48 0.45,-1.215 0,-0.75 -0.45,-1.215 -0.45,-0.48 -1.245,-0.48 z m 0,-1.365 q 0.735,0 1.35,0.225 0.615,0.21 1.05,0.615 0.435,0.39 0.675,0.945 0.255,0.555 0.255,1.23 0,0.675 -0.255,1.245 -0.24,0.57 -0.69,0.99 -0.435,0.405 -1.05,0.645 -0.615,0.24 -1.35,0.24 -0.735,0 -1.35,-0.225 -0.6,-0.24 -1.035,-0.66 -0.435,-0.42 -0.675,-0.99 -0.24,-0.57 -0.24,-1.245 0,-0.66 0.24,-1.215 0.24,-0.555 0.675,-0.945 0.45,-0.405 1.05,-0.63 0.615,-0.225 1.35,-0.225 z m 9,1.68 q 0,0.075 -0.075,0.135 -0.06,0.06 -0.15,0.06 l -2.025,0 0,6.945 q 0,0.195 -0.195,0.195 l -1.335,0 q -0.195,0 -0.195,-0.195 l 0,-13.845 q 0,-0.195 0.195,-0.195 l 1.335,0 q 0.195,0 0.195,0.195 l 0,5.46 2.025,0 q 0.09,0 0.15,0.06 0.075,0.045 0.075,0.12 l 0,1.065 z" />
      <path
         id="path6915"
         style="font-style:normal;font-variant:normal;font-weight:600;font-stretch:normal;font-size:15px;line-height:125%;font-family:NanumGothic;-inkscape-font-specification:'NanumGothic Semi-Bold';letter-spacing:0px;word-spacing:0px;fill:#ffffff;fill-opacity:1;stroke:none;stroke-width:1px;stroke-linecap:butt;stroke-linejoin:miter;stroke-opacity:1"
         d="m 196.84705,1034.2696 q 0,0.195 -0.195,0.195 l -1.335,0 q -0.195,0 -0.195,-0.195 l 0,-13.845 q 0,-0.195 0.195,-0.195 l 1.335,0 q 0.195,0 0.195,0.195 l 0,13.845 z m -4.05,-11.79 q -0.12,1.455 -0.615,2.745 -0.48,1.29 -1.29,2.4 -0.795,1.11 -1.89,2.055 -1.095,0.945 -2.415,1.725 -0.12,0.075 -0.27,0.06 -0.135,-0.03 -0.21,-0.15 l -0.51,-0.795 q -0.075,-0.12 -0.045,-0.225 0.03,-0.12 0.135,-0.18 2.235,-1.32 3.57,-3.045 1.35,-1.725 1.755,-3.78 0.06,-0.3 -0.03,-0.39 -0.09,-0.105 -0.375,-0.105 l -4.23,0 q -0.21,0 -0.21,-0.21 l 0,-1.05 q 0,-0.18 0.21,-0.18 l 5.37,0 q 0.675,0 0.885,0.285 0.21,0.27 0.165,0.84 z" />
    </g>
  </g>
</svg>
