<?xml version="1.0" encoding="UTF-8" standalone="no"?>
<svg
   xmlns:dc="http://purl.org/dc/elements/1.1/"
   xmlns:cc="http://creativecommons.org/ns#"
   xmlns:rdf="http://www.w3.org/1999/02/22-rdf-syntax-ns#"
   xmlns:svg="http://www.w3.org/2000/svg"
   xmlns="http://www.w3.org/2000/svg"
   version="1.1"
   id="svg5610"
   viewBox="0 0 231.25038 50.000001"
   height="50"
   width="231.25038">
  <defs
     id="defs5612" />
  <metadata
     id="metadata5615">
    <rdf:RDF>
      <cc:Work
         rdf:about="">
        <dc:format>image/svg+xml</dc:format>
        <dc:type
           rdf:resource="http://purl.org/dc/dcmitype/StillImage" />
        <dc:title></dc:title>
      </cc:Work>
    </rdf:RDF>
  </metadata>
  <g
     transform="translate(234.9109,-507.3622)"
     id="layer1">
    <g
       id="g6205">
      <path
         id="path11614-5"
         style="display:inline;fill:#3c5a99;fill-opacity:1;fill-rule:nonzero;stroke:none"
         d="m -3.6605243,553.0522 c 0,2.37 -1.93625,4.31 -4.30875,4.31 l -222.6374957,0 c -2.365,0 -4.30375,-1.94 -4.30375,-4.31 l 0,-41.37875 c 0,-2.37125 1.93875,-4.31125 4.30375,-4.31125 l 222.6374957,0 c 2.3725,0 4.30875,1.94 4.30875,4.31125 l 0,41.37875 z" />
      <path
         d="m -184.91052,556.64783 -0.7125,0 0,-48.57125 0.7125,0 0,48.57125 z"
         style="display:inline;fill:#32456f;fill-opacity:1;fill-rule:nonzero;stroke:none"
         id="path11616-3" />
      <path
         id="path11620-8"
         style="display:inline;fill:#32456f;fill-opacity:1;fill-rule:nonzero;stroke:none"
         d="m -7.9696543,507.3622 -222.6362457,0 c -2.36625,0 -4.305,1.94 -4.305,4.31125 l 0,41.37875 c 0,2.36875 1.93875,4.31 4.305,4.31 l 222.6362457,0 c 2.37,0 4.30875,-1.94125 4.30875,-4.31 l 0,-41.37875 c 0,-2.37125 -1.93875,-4.31125 -4.30875,-4.31125 m 0,0.71375 c 1.9825,0 3.59375,1.6125 3.59375,3.5975 l 0,41.37875 c 0,1.9825 -1.61125,3.59625 -3.59375,3.59625 l -222.6362457,0 c -1.98,0 -3.58875,-1.61375 -3.58875,-3.59625 l 0,-41.37875 c 0,-1.985 1.60875,-3.5975 3.58875,-3.5975 l 222.6362457,0" />
      <path
         id="path6175"
         style="font-style:normal;font-variant:normal;font-weight:600;font-stretch:normal;font-size:15px;line-height:125%;font-family:NanumGothic;-inkscape-font-specification:'NanumGothic Semi-Bold';letter-spacing:0px;word-spacing:0px;fill:#ffffff;fill-opacity:1;stroke:none;stroke-width:1px;stroke-linecap:butt;stroke-linejoin:miter;stroke-opacity:1"
         d="m -166.91091,534.18473 q 0,-0.21 0.21,-0.21 l 1.05,0 0,-6.06 -0.93,0 q -0.075,0 -0.165,-0.075 -0.075,-0.075 -0.075,-0.165 l 0,-0.93 q 0,-0.075 0.075,-0.15 0.09,-0.09 0.165,-0.09 l 6.45,0 q 0.09,0 0.15,0.075 0.075,0.06 0.075,0.165 l 0,0.945 q -0.03,0.06 -0.075,0.12 -0.075,0.105 -0.15,0.105 l -0.96,0 0,5.91 q 0.345,-0.03 0.645,-0.075 0.315,-0.045 0.6,-0.09 0.075,-0.015 0.15,0.03 0.09,0.03 0.105,0.105 l 0.135,0.93 q 0.03,0.12 -0.045,0.195 -0.06,0.06 -0.135,0.075 -0.675,0.135 -1.53,0.225 -0.84,0.075 -1.77,0.12 -0.93,0.045 -1.89,0.06 -0.96,0 -1.875,-0.03 -0.09,0 -0.15,-0.06 -0.06,-0.075 -0.06,-0.165 l 0,-0.96 z m 8.31,-8.505 q 0,-0.195 0.21,-0.195 l 1.215,0 q 0.21,0 0.21,0.195 l 0,13.095 q 0,0.21 -0.21,0.21 l -1.215,0 q -0.21,0 -0.21,-0.21 l 0,-7.305 -1.485,0 q -0.09,0 -0.165,-0.06 -0.06,-0.06 -0.06,-0.135 l 0,-1.035 q 0,-0.075 0.06,-0.12 0.075,-0.06 0.165,-0.06 l 1.485,0 0,-4.38 z m 4.35,13.62 q 0,0.195 -0.195,0.195 l -1.305,0 q -0.195,0 -0.195,-0.195 l 0,-13.875 q 0,-0.195 0.21,-0.195 l 1.29,0 q 0.195,0 0.195,0.195 l 0,13.875 z m -9.825,-5.34 q 0.375,-0.015 0.72,-0.015 0.345,0 0.69,-0.03 l 0,-6 -1.41,0 0,6.045 z" />
      <path
         id="path6177"
         style="font-style:normal;font-variant:normal;font-weight:600;font-stretch:normal;font-size:15px;line-height:125%;font-family:NanumGothic;-inkscape-font-specification:'NanumGothic Semi-Bold';letter-spacing:0px;word-spacing:0px;fill:#ffffff;fill-opacity:1;stroke:none;stroke-width:1px;stroke-linecap:butt;stroke-linejoin:miter;stroke-opacity:1"
         d="m -140.80411,539.26973 q 0,0.195 -0.195,0.195 l -1.335,0 q -0.195,0 -0.195,-0.195 l 0,-13.845 q 0,-0.195 0.195,-0.195 l 1.335,0 q 0.195,0 0.195,0.195 l 0,13.845 z m -5.415,-8.205 q 0,-0.69 -0.135,-1.305 -0.135,-0.63 -0.39,-1.095 -0.255,-0.465 -0.63,-0.735 -0.36,-0.27 -0.84,-0.27 -0.48,0 -0.855,0.27 -0.36,0.27 -0.615,0.735 -0.255,0.465 -0.39,1.095 -0.135,0.615 -0.135,1.305 0,0.675 0.135,1.305 0.135,0.615 0.39,1.095 0.255,0.465 0.615,0.75 0.375,0.27 0.855,0.27 0.48,0 0.84,-0.27 0.375,-0.285 0.63,-0.75 0.255,-0.48 0.39,-1.095 0.135,-0.63 0.135,-1.305 z m -1.995,4.95 q -0.855,0 -1.545,-0.36 -0.69,-0.36 -1.17,-1.005 -0.465,-0.66 -0.72,-1.575 -0.255,-0.915 -0.255,-2.01 0,-1.125 0.255,-2.04 0.255,-0.915 0.72,-1.545 0.48,-0.645 1.17,-0.99 0.69,-0.36 1.545,-0.36 0.87,0 1.545,0.36 0.69,0.345 1.155,0.99 0.48,0.63 0.735,1.545 0.255,0.915 0.255,2.04 0,1.125 -0.255,2.04 -0.255,0.915 -0.735,1.56 -0.465,0.645 -1.155,1.005 -0.675,0.345 -1.545,0.345 z" />
      <path
         id="path6179"
         style="font-style:normal;font-variant:normal;font-weight:600;font-stretch:normal;font-size:15px;line-height:125%;font-family:NanumGothic;-inkscape-font-specification:'NanumGothic Semi-Bold';letter-spacing:0px;word-spacing:0px;fill:#ffffff;fill-opacity:1;stroke:none;stroke-width:1px;stroke-linecap:butt;stroke-linejoin:miter;stroke-opacity:1"
         d="m -136.95731,532.96973 q -0.075,0.03 -0.18,0.015 -0.09,-0.03 -0.165,-0.15 l -0.54,-0.93 q -0.06,-0.12 -0.015,-0.21 0.06,-0.105 0.165,-0.135 1.125,-0.42 1.965,-0.9 0.855,-0.495 1.44,-1.125 0.6,-0.63 0.93,-1.44 0.345,-0.81 0.45,-1.875 0.015,-0.105 0.06,-0.21 0.06,-0.105 0.18,-0.09 l 1.305,0.06 q 0.255,0.015 0.24,0.33 -0.015,0.39 -0.09,0.735 0.18,0.72 0.63,1.38 0.45,0.66 1.095,1.215 0.66,0.54 1.455,0.96 0.795,0.42 1.65,0.66 0.105,0.03 0.12,0.135 0.03,0.09 0,0.165 l -0.51,0.96 q -0.12,0.225 -0.36,0.165 -0.69,-0.18 -1.395,-0.51 -0.69,-0.33 -1.335,-0.765 -0.645,-0.45 -1.185,-0.99 -0.54,-0.555 -0.915,-1.185 -0.75,1.32 -2.04,2.25 -1.275,0.93 -2.955,1.485 z m 11.445,2.52 q 0.075,0 0.15,0.075 0.075,0.075 0.075,0.165 l 0,0.975 q 0,0.075 -0.075,0.15 -0.075,0.075 -0.15,0.075 l -13.065,0 q -0.09,0 -0.15,-0.075 -0.06,-0.075 -0.06,-0.15 l 0,-0.975 q 0,-0.24 0.21,-0.24 l 13.065,0 z" />
      <path
         id="path6181"
         style="font-style:normal;font-variant:normal;font-weight:600;font-stretch:normal;font-size:15px;line-height:125%;font-family:NanumGothic;-inkscape-font-specification:'NanumGothic Semi-Bold';letter-spacing:0px;word-spacing:0px;fill:#ffffff;fill-opacity:1;stroke:none;stroke-width:1px;stroke-linecap:butt;stroke-linejoin:miter;stroke-opacity:1"
         d="m -113.35551,539.26973 q 0,0.075 -0.075,0.135 -0.06,0.075 -0.135,0.075 l -1.29,0 q -0.09,0 -0.165,-0.075 -0.06,-0.06 -0.06,-0.135 l 0,-2.895 q 0,-0.15 -0.06,-0.195 -0.06,-0.045 -0.225,-0.045 l -7.275,0 q -0.075,0 -0.15,-0.045 -0.06,-0.06 -0.06,-0.135 l 0,-1.08 q 0,-0.09 0.06,-0.135 0.075,-0.045 0.15,-0.045 l 3.825,0 0,-1.44 -5.67,0 q -0.21,0 -0.21,-0.21 l 0,-1.005 q 0,-0.09 0.06,-0.15 0.06,-0.075 0.15,-0.075 l 13.05,0 q 0.075,0 0.15,0.075 0.075,0.075 0.075,0.15 l 0,1.005 q 0,0.075 -0.075,0.15 -0.075,0.06 -0.15,0.06 l -5.655,0 0,1.44 2.745,0 q 0.57,0 0.78,0.24 0.21,0.225 0.21,0.795 l 0,3.54 z m -0.06,-9.525 q 0,0.51 -0.24,0.765 -0.24,0.255 -0.9,0.255 l -6.795,0 q -0.675,0 -0.915,-0.225 -0.24,-0.24 -0.24,-0.84 l 0,-4.08 q 0,-0.075 0.06,-0.12 0.06,-0.06 0.135,-0.06 l 1.32,0 q 0.075,0 0.135,0.06 0.075,0.045 0.075,0.12 l 0,1.185 5.64,0 0,-1.2 q 0,-0.075 0.06,-0.135 0.06,-0.06 0.135,-0.06 l 1.335,0 q 0.075,0 0.135,0.06 0.06,0.06 0.06,0.135 l 0,4.14 z m -1.725,-1.59 -5.64,0 0,0.975 q 0,0.255 0.285,0.255 l 5.07,0 q 0.285,0 0.285,-0.255 l 0,-0.975 z" />
      <path
         id="path6183"
         style="font-style:normal;font-variant:normal;font-weight:600;font-stretch:normal;font-size:15px;line-height:125%;font-family:NanumGothic;-inkscape-font-specification:'NanumGothic Semi-Bold';letter-spacing:0px;word-spacing:0px;fill:#ffffff;fill-opacity:1;stroke:none;stroke-width:1px;stroke-linecap:butt;stroke-linejoin:miter;stroke-opacity:1"
         d="m -97.103718,536.70473 q 0,0.075 -0.075,0.15 -0.075,0.075 -0.15,0.075 l -13.065002,0 q -0.09,0 -0.15,-0.075 -0.06,-0.075 -0.06,-0.15 l 0,-0.99 q 0,-0.09 0.06,-0.15 0.06,-0.075 0.15,-0.075 l 13.065002,0 q 0.075,0 0.15,0.075 0.075,0.075 0.075,0.15 l 0,0.99 z m -6.750002,-3.69 q -1.05,0 -1.95,-0.24 -0.9,-0.24 -1.56,-0.69 -0.66,-0.45 -1.035,-1.08 -0.375,-0.63 -0.375,-1.41 0,-0.78 0.375,-1.41 0.375,-0.63 1.035,-1.08 0.66,-0.45 1.56,-0.69 0.9,-0.24 1.95,-0.24 1.05,0 1.95,0.24 0.9,0.24 1.56,0.69 0.660002,0.45 1.020002,1.08 0.375,0.63 0.375,1.41 0,0.78 -0.375,1.41 -0.36,0.63 -1.020002,1.08 -0.66,0.45 -1.56,0.69 -0.9,0.24 -1.95,0.24 z m 0,-5.415 q -0.63,0 -1.2,0.15 -0.57,0.135 -1.005,0.405 -0.42,0.255 -0.675,0.63 -0.255,0.36 -0.255,0.81 0,0.45 0.255,0.825 0.255,0.375 0.675,0.645 0.435,0.255 1.005,0.405 0.57,0.135 1.2,0.135 0.63,0 1.2,-0.135 0.57,-0.15 0.99,-0.405 0.435,-0.27 0.675,-0.645 0.255,-0.375 0.255,-0.825 0,-0.45 -0.255,-0.81 -0.24,-0.375 -0.675,-0.63 -0.42,-0.27 -0.99,-0.405 -0.57,-0.15 -1.2,-0.15 z" />
      <path
         id="path6185"
         style="font-style:normal;font-variant:normal;font-weight:600;font-stretch:normal;font-size:15px;line-height:125%;font-family:NanumGothic;-inkscape-font-specification:'NanumGothic Semi-Bold';letter-spacing:0px;word-spacing:0px;fill:#ffffff;fill-opacity:1;stroke:none;stroke-width:1px;stroke-linecap:butt;stroke-linejoin:miter;stroke-opacity:1"
         d="m -83.011921,536.80973 q 0,0.075 -0.075,0.15 -0.075,0.075 -0.15,0.075 l -13.065,0 q -0.09,0 -0.15,-0.075 -0.06,-0.075 -0.06,-0.15 l 0,-0.945 q 0,-0.09 0.06,-0.165 0.06,-0.075 0.15,-0.075 l 5.685,0 0,-2.235 -2.685,0 q -0.33,0 -0.54,-0.045 -0.21,-0.045 -0.33,-0.165 -0.12,-0.12 -0.165,-0.3 -0.045,-0.195 -0.045,-0.495 l 0,-2.415 q 0,-0.3 0.045,-0.48 0.045,-0.195 0.165,-0.3 0.12,-0.12 0.33,-0.15 0.21,-0.045 0.54,-0.045 l 6.24,0 q 0.15,0 0.18,-0.03 0.045,-0.045 0.045,-0.21 l 0,-1.17 q 0,-0.165 -0.045,-0.18 -0.03,-0.03 -0.18,-0.03 l -7.065,0 q -0.075,0 -0.135,-0.06 -0.06,-0.075 -0.06,-0.15 l 0,-1.005 q 0,-0.075 0.06,-0.135 0.06,-0.06 0.135,-0.06 l 7.89,0 q 0.63,0 0.855,0.21 0.225,0.195 0.225,0.78 l 0,2.43 q 0,0.585 -0.225,0.795 -0.225,0.195 -0.855,0.195 l -6.255,0 q -0.15,0 -0.18,0.03 -0.03,0.03 -0.03,0.18 l 0,1.185 q 0,0.165 0.03,0.21 0.045,0.03 0.195,0.03 l 7.44,0 q 0.075,0 0.135,0.06 0.06,0.045 0.06,0.12 l 0,1.005 q 0,0.075 -0.075,0.135 -0.06,0.06 -0.12,0.06 l -3.855,0 0,2.235 5.655,0 q 0.075,0 0.15,0.09 0.075,0.075 0.075,0.15 l 0,0.945 z" />
      <path
         id="path6187"
         style="font-style:normal;font-variant:normal;font-weight:600;font-stretch:normal;font-size:15px;line-height:125%;font-family:NanumGothic;-inkscape-font-specification:'NanumGothic Semi-Bold';letter-spacing:0px;word-spacing:0px;fill:#ffffff;fill-opacity:1;stroke:none;stroke-width:1px;stroke-linecap:butt;stroke-linejoin:miter;stroke-opacity:1"
         d="m -70.595671,527.47973 q -0.105,1.365 -0.555,2.64 -0.45,1.26 -1.245,2.385 -0.78,1.125 -1.89,2.1 -1.11,0.975 -2.505,1.74 -0.12,0.06 -0.255,0.06 -0.12,-0.015 -0.195,-0.135 l -0.6,-0.84 q -0.075,-0.12 -0.045,-0.24 0.03,-0.12 0.135,-0.195 2.235,-1.185 3.615,-2.925 1.38,-1.74 1.68,-3.78 0.045,-0.3 -0.045,-0.39 -0.075,-0.105 -0.345,-0.105 l -4.23,0 q -0.195,0 -0.195,-0.21 l 0,-1.05 q 0,-0.18 0.195,-0.18 l 5.415,0 q 0.675,0 0.885,0.285 0.225,0.27 0.18,0.84 z m 6.075,4.455 q 0,0.09 -0.075,0.15 -0.06,0.06 -0.15,0.06 l -2.025,0 0,7.125 q 0,0.195 -0.195,0.195 l -1.335,0 q -0.195,0 -0.195,-0.195 l 0,-13.845 q 0,-0.195 0.195,-0.195 l 1.335,0 q 0.195,0 0.195,0.195 l 0,5.28 2.025,0 q 0.09,0 0.15,0.06 0.075,0.045 0.075,0.12 l 0,1.05 z" />
      <path
         id="path6189"
         style="font-style:normal;font-variant:normal;font-weight:600;font-stretch:normal;font-size:15px;line-height:125%;font-family:NanumGothic;-inkscape-font-specification:'NanumGothic Semi-Bold';letter-spacing:0px;word-spacing:0px;fill:#ffffff;fill-opacity:1;stroke:none;stroke-width:1px;stroke-linecap:butt;stroke-linejoin:miter;stroke-opacity:1"
         d="m -52.198874,532.59473 q 0,0.21 -0.195,0.21 l -1.335,0 q -0.195,0 -0.195,-0.21 l 0,-7.17 q 0,-0.195 0.195,-0.195 l 1.335,0 q 0.195,0 0.195,0.195 l 0,7.17 z m -1.725,3.93 -5.295,0 0,1.05 q 0,0.255 0.27,0.255 l 4.755,0 q 0.27,0 0.27,-0.255 l 0,-1.05 z m 1.725,1.71 q 0,0.51 -0.24,0.75 -0.24,0.255 -0.885,0.255 l -6.48,0 q -0.66,0 -0.9,-0.225 -0.24,-0.225 -0.24,-0.825 l 0,-4.44 q 0,-0.075 0.06,-0.12 0.06,-0.06 0.135,-0.06 l 1.32,0 q 0.075,0 0.135,0.06 0.075,0.045 0.075,0.12 l 0,1.38 5.295,0 0,-1.44 q 0,-0.075 0.06,-0.135 0.06,-0.06 0.135,-0.06 l 1.335,0 q 0.075,0 0.135,0.06 0.06,0.06 0.06,0.135 l 0,4.545 z m -3.855,-9.21 q 0,0.66 -0.27,1.275 -0.255,0.6 -0.735,1.065 -0.465,0.465 -1.14,0.75 -0.66,0.27 -1.47,0.27 -0.81,0 -1.485,-0.27 -0.66,-0.285 -1.14,-0.75 -0.465,-0.465 -0.72,-1.065 -0.255,-0.615 -0.255,-1.275 0,-0.675 0.255,-1.29 0.255,-0.615 0.72,-1.08 0.48,-0.465 1.14,-0.735 0.675,-0.285 1.485,-0.285 0.81,0 1.47,0.285 0.675,0.27 1.14,0.735 0.48,0.465 0.735,1.08 0.27,0.615 0.27,1.29 z m -1.65,0 q 0,-0.39 -0.15,-0.75 -0.135,-0.36 -0.405,-0.63 -0.255,-0.27 -0.615,-0.435 -0.36,-0.165 -0.795,-0.165 -0.435,0 -0.795,0.165 -0.36,0.165 -0.615,0.435 -0.255,0.27 -0.405,0.63 -0.135,0.36 -0.135,0.75 0,0.39 0.135,0.75 0.15,0.345 0.405,0.615 0.255,0.27 0.615,0.435 0.36,0.15 0.795,0.15 0.435,0 0.795,-0.15 0.36,-0.165 0.615,-0.435 0.27,-0.27 0.405,-0.615 0.15,-0.36 0.15,-0.75 z" />
      <path
         id="path6191"
         style="font-style:normal;font-variant:normal;font-weight:600;font-stretch:normal;font-size:15px;line-height:125%;font-family:NanumGothic;-inkscape-font-specification:'NanumGothic Semi-Bold';letter-spacing:0px;word-spacing:0px;fill:#ffffff;fill-opacity:1;stroke:none;stroke-width:1px;stroke-linecap:butt;stroke-linejoin:miter;stroke-opacity:1"
         d="m -41.152077,529.47473 q 0,0.09 -0.075,0.165 -0.06,0.075 -0.15,0.075 l -8.13,0 q -0.09,0 -0.18,-0.075 -0.075,-0.09 -0.075,-0.18 l 0,-0.915 q 0,-0.075 0.075,-0.15 0.09,-0.075 0.18,-0.075 l 8.13,0 q 0.09,0 0.15,0.075 0.075,0.06 0.075,0.15 l 0,0.93 z m -1.92,-2.4 q 0,0.09 -0.075,0.165 -0.06,0.075 -0.165,0.075 l -4.215,0 q -0.06,0 -0.15,-0.06 -0.075,-0.06 -0.075,-0.165 l 0,-0.99 q 0,-0.105 0.075,-0.165 0.09,-0.06 0.15,-0.06 l 4.215,0 q 0.09,0 0.165,0.075 0.075,0.075 0.075,0.165 l 0,0.96 z m -2.265,4.74 q -0.765,0 -1.23,0.48 -0.45,0.465 -0.45,1.215 0,0.735 0.45,1.215 0.465,0.48 1.23,0.48 0.795,0 1.245,-0.48 0.45,-0.48 0.45,-1.215 0,-0.75 -0.45,-1.215 -0.45,-0.48 -1.245,-0.48 z m 0,-1.365 q 0.735,0 1.35,0.225 0.615,0.21 1.05,0.615 0.435,0.39 0.675,0.945 0.255,0.555 0.255,1.23 0,0.675 -0.255,1.245 -0.24,0.57 -0.69,0.99 -0.435,0.405 -1.05,0.645 -0.615,0.24 -1.35,0.24 -0.735,0 -1.35,-0.225 -0.6,-0.24 -1.035,-0.66 -0.435,-0.42 -0.675,-0.99 -0.24,-0.57 -0.24,-1.245 0,-0.66 0.24,-1.215 0.24,-0.555 0.675,-0.945 0.45,-0.405 1.05,-0.63 0.615,-0.225 1.35,-0.225 z m 9,1.68 q 0,0.075 -0.075,0.135 -0.06,0.06 -0.15,0.06 l -2.025,0 0,6.945 q 0,0.195 -0.195,0.195 l -1.335,0 q -0.195,0 -0.195,-0.195 l 0,-13.845 q 0,-0.195 0.195,-0.195 l 1.335,0 q 0.195,0 0.195,0.195 l 0,5.46 2.025,0 q 0.09,0 0.15,0.06 0.075,0.045 0.075,0.12 l 0,1.065 z" />
      <path
         id="path6193"
         style="font-style:normal;font-variant:normal;font-weight:600;font-stretch:normal;font-size:15px;line-height:125%;font-family:NanumGothic;-inkscape-font-specification:'NanumGothic Semi-Bold';letter-spacing:0px;word-spacing:0px;fill:#ffffff;fill-opacity:1;stroke:none;stroke-width:1px;stroke-linecap:butt;stroke-linejoin:miter;stroke-opacity:1"
         d="m -23.88028,539.26973 q 0,0.195 -0.195,0.195 l -1.335,0 q -0.195,0 -0.195,-0.195 l 0,-13.845 q 0,-0.195 0.195,-0.195 l 1.335,0 q 0.195,0 0.195,0.195 l 0,13.845 z m -4.05,-11.79 q -0.12,1.455 -0.615,2.745 -0.48,1.29 -1.29,2.4 -0.795,1.11 -1.89,2.055 -1.095,0.945 -2.415,1.725 -0.12,0.075 -0.27,0.06 -0.135,-0.03 -0.21,-0.15 l -0.51,-0.795 q -0.075,-0.12 -0.045,-0.225 0.03,-0.12 0.135,-0.18 2.235,-1.32 3.57,-3.045 1.35,-1.725 1.755,-3.78 0.06,-0.3 -0.03,-0.39 -0.09,-0.105 -0.375,-0.105 l -4.23,0 q -0.21,0 -0.21,-0.21 l 0,-1.05 q 0,-0.18 0.21,-0.18 l 5.37,0 q 0.675,0 0.885,0.285 0.21,0.27 0.165,0.84 z" />
      <path
         style="display:inline;fill:#ffffff;fill-opacity:1"
         d="m -223.25465,517.36233 c -0.91461,0 -1.65625,0.74165 -1.65625,1.65625 l 0,26.6875 c 0,0.91437 0.74152,1.65625 1.65625,1.65625 l 14.36718,0 0,-11.61719 -3.9082,0 0,-4.52734 3.9082,0 0,-3.33985 c 0,-3.8748 2.36752,-5.98437 5.82422,-5.98437 1.65577,0 3.07755,0.12255 3.49219,0.17773 l 0,4.05078 -2.39649,0 c -1.87973,0 -2.24414,0.89424 -2.24414,2.20508 l 0,2.89063 4.48438,0 -0.58399,4.52734 -3.90039,0 0,11.61719 7.64454,0 c 0.91425,0 1.65625,-0.74177 1.65625,-1.65625 l 0,-26.6875 c 0,-0.9146 -0.74188,-1.65625 -1.65625,-1.65625 l -26.6875,0 z"
         id="Blue_1_" />
    </g>
  </g>
</svg>
