<?xml version="1.0" encoding="UTF-8" standalone="no"?>
<svg
   xmlns:dc="http://purl.org/dc/elements/1.1/"
   xmlns:cc="http://creativecommons.org/ns#"
   xmlns:rdf="http://www.w3.org/1999/02/22-rdf-syntax-ns#"
   xmlns:svg="http://www.w3.org/2000/svg"
   xmlns="http://www.w3.org/2000/svg"
   xml:space="preserve"
   enable-background="new 0 0 1342.712 595.28"
   viewBox="0 0 500.63 84.683512"
   height="84.683517"
   width="500.63"
   y="0px"
   x="0px"
   id="Layer_1"
   version="1.1"><metadata
     id="metadata3546"><rdf:RDF><cc:Work
         rdf:about=""><dc:format>image/svg+xml</dc:format><dc:type
           rdf:resource="http://purl.org/dc/dcmitype/StillImage" /><dc:title></dc:title></cc:Work></rdf:RDF></metadata><defs
     id="defs3544" /><g
     id="g4152"><path
       style="fill:#999999;fill-opacity:1"
       id="path3524"
       d="m 20.504237,20.506317 c 2.794566,-2.796127 6.063652,-5.003787 9.806736,-6.624021 3.739442,-1.618153 7.748404,-2.430352 12.030526,-2.430352 3.275849,0 6.389883,0.484406 9.341061,1.447493 2.950658,0.964648 5.696315,2.313803 8.241654,4.050065 1.465703,1.002631 3.065125,1.503165 4.801908,1.503165 1.350195,0 2.54586,-0.241422 3.585432,-0.724786 1.043214,-0.481804 2.006302,-1.164446 2.893944,-2.052089 l 2.1395,-2.1395 C 71.415182,11.451944 69.285047,9.5746786 66.953554,7.8951294 64.61998,6.2166209 62.14176,4.802428 59.521497,3.6452664 56.897592,2.4886252 54.141528,1.5916169 51.248104,0.95632276 48.356761,0.31894737 45.386332,-4.766876e-7 42.342019,-4.766876e-7 38.445964,-4.766876e-7 34.697677,0.50261554 31.090912,1.5042054 27.485709,2.506836 24.110481,3.9345568 20.96731,5.7858071 17.82674,7.6349762 14.971819,9.8436771 12.408269,12.407747 9.8421177,14.972858 7.6354981,17.827779 5.7842478,20.96939 3.9340381,24.112041 2.5073578,27.486748 1.504207,31.090911 0.50105617,34.697675 1.0700376e-6,38.448044 1.0700376e-6,42.341497 c 0,5.863333 1.1066918299624,11.35829 3.3252784299624,16.48643 2.2175461,5.12762 5.2441686,9.6111 9.0829895,13.44732 3.836219,3.839341 8.317619,6.864403 13.448361,9.081949 5.127099,2.218586 10.624657,3.325278 16.485909,3.325278 3.044833,0 6.015263,-0.317387 8.906085,-0.954242 2.893945,-0.634774 5.649488,-1.531262 8.273393,-2.688944 2.620263,-1.157681 5.098483,-2.572915 7.432057,-4.249863 2.331494,-1.679028 4.461628,-3.557855 6.391445,-5.642203 l -2.1395,-2.1395 C 70.318896,68.12112 69.364134,67.446803 68.341732,66.98321 67.32089,66.521178 66.11534,66.288081 64.727163,66.288081 c -1.773725,0 -3.375228,0.482844 -4.801908,1.445411 -2.545339,1.737303 -5.283192,3.087498 -8.212517,4.050065 -2.930366,0.965689 -6.055327,1.447493 -9.370199,1.447493 -4.282122,0 -8.291603,-0.811158 -12.030525,-2.428791 -3.742565,-1.621275 -7.01217,-3.828935 -9.806736,-6.624541 -2.796127,-2.795607 -5.003267,-6.063131 -6.623501,-9.806216 -1.618153,-3.739442 -2.42723,-7.749444 -2.42723,-12.030005 0,-4.279 0.809077,-8.290043 2.42723,-12.032607 1.619194,-3.738402 3.826333,-7.007487 6.62246,-9.802573 z" /><path
       style="fill:#999999;fill-opacity:1"
       id="path3526"
       d="m 127.58174,38.379363 c -0.63633,-2.334094 -1.50368,-4.479838 -2.60361,-6.450759 -1.09889,-1.964677 -2.52609,-3.671282 -4.27848,-5.116693 -1.755,-1.448013 -3.86796,-2.574997 -6.33577,-3.385634 -2.46782,-0.810117 -5.35864,-1.212314 -8.67507,-1.212314 -3.27897,0 -6.247322,0.393872 -8.90973,1.183697 -2.659806,0.791906 -5.148952,1.920451 -7.461194,3.385634 -0.925625,0.617604 -1.736263,1.224281 -2.429311,1.819511 -0.693568,0.600434 -1.271629,1.149878 -1.735742,1.649892 -0.539558,0.578581 -1.003151,1.155601 -1.386617,1.736263 l 3.296662,2.369996 c 0.886082,0.656106 1.781529,1.156121 2.688943,1.506287 0.904293,0.345483 1.877786,0.519786 2.921001,0.519786 1.348114,0 2.429831,-0.164417 3.238387,-0.491169 0.811678,-0.328314 1.63012,-0.69565 2.460009,-1.099928 0.828328,-0.404799 1.784132,-0.769533 2.862722,-1.098367 1.0786,-0.326753 2.56355,-0.49169 4.45539,-0.49169 1.54219,0 3.02662,0.2024 4.45278,0.607198 1.4272,0.405839 2.69779,1.13739 3.81697,2.198295 1.1197,1.060384 2.0344,2.515161 2.7493,4.366411 0.71282,1.851771 1.14623,4.203556 1.30024,7.058477 -0.15401,-0.03694 -0.54996,-0.09782 -1.18369,-0.174823 -0.6379,-0.07648 -1.43657,-0.152449 -2.40174,-0.231016 -0.96465,-0.07648 -2.05365,-0.152449 -3.26804,-0.230495 -1.21492,-0.07805 -2.47822,-0.11811 -3.78783,-0.11811 -4.74364,0 -8.859262,0.464634 -12.349997,1.388698 -3.491257,0.927186 -6.381039,2.247203 -8.677671,3.964735 -2.29247,1.71545 -4.000116,3.779506 -5.119295,6.189045 -1.116578,2.409019 -1.677468,5.117214 -1.677468,8.125626 0,2.776355 0.493771,5.295158 1.475068,7.550167 0.98338,2.255528 2.372078,4.184824 4.166614,5.783726 1.789855,1.600463 3.949647,2.832548 6.477816,3.70198 2.525047,0.866831 5.311808,1.299726 8.357683,1.299726 1.35019,0 2.85336,-0.184189 4.51158,-0.548924 1.65821,-0.366295 3.30602,-0.867871 4.94603,-1.503685 1.63896,-0.636335 3.21861,-1.398584 4.74207,-2.284145 1.52502,-0.887643 2.82579,-1.869982 3.90438,-2.950658 0.10823,1.110854 0.4381,2.240439 0.94072,2.991242 0.56297,0.844977 1.58485,1.718572 2.62286,2.231074 0.89545,0.440699 2.32525,0.784101 3.14942,0.91782 2.14262,0.350166 4.39398,0.279405 4.39398,0.279405 l 0,-30.308891 c 0,-2.620263 -0.11498,-5.215552 -0.34756,-7.779102 -0.23102,-2.566671 -0.66547,-5.014193 -1.30181,-7.348288 z m -9.39985,29.761009 c -1.42564,0.848619 -2.921,1.608787 -4.48192,2.284145 -1.56248,0.675878 -3.13381,1.254459 -4.71346,1.737303 -1.58225,0.481283 -3.14525,0.854863 -4.68692,1.127504 -1.54323,0.27108 -2.98864,0.403758 -4.337795,0.403758 -1.312213,0 -2.5469,-0.133199 -3.703021,-0.403758 -1.156121,-0.272641 -2.158231,-0.69617 -3.007372,-1.27371 -0.848619,-0.578581 -1.514612,-1.330424 -1.995895,-2.255008 -0.481283,-0.926146 -0.723226,-2.063536 -0.723226,-3.414251 0,-1.580691 0.435497,-2.91996 1.300766,-4.019367 0.867871,-1.098888 2.063535,-1.995896 3.586472,-2.688944 1.525019,-0.69669 3.317474,-1.198266 5.379971,-1.506287 2.06405,-0.308022 4.29044,-0.460992 6.68125,-0.460992 1.27267,0 2.51725,0.0094 3.7306,0.02914 1.21648,0.01769 2.3138,0.04683 3.2977,0.08637 0.9839,0.03746 1.81171,0.06764 2.48707,0.08637 0.67535,0.01925 1.06975,0.04943 1.18578,0.08689 l 0,10.180837 z" /><path
       style="fill:#999999;fill-opacity:1"
       id="path3528"
       d="m 403.73178,38.379363 c -0.63737,-2.334094 -1.50576,-4.479838 -2.60465,-6.450759 -1.09889,-1.964677 -2.52713,-3.671282 -4.27796,-5.116693 -1.7576,-1.448013 -3.869,-2.574997 -6.33681,-3.385634 -2.4673,-0.810117 -5.35864,-1.212314 -8.67559,-1.212314 -3.27845,0 -6.24836,0.393872 -8.90765,1.183697 -2.66189,0.791906 -5.14895,1.920451 -7.46223,3.385634 -0.92615,0.617604 -1.73679,1.224281 -2.43035,1.819511 -0.69149,0.600434 -1.27215,1.149878 -1.73575,1.649892 -0.54008,0.578581 -1.00263,1.155601 -1.38609,1.736263 l 3.29614,2.369996 c 0.88556,0.656106 1.78205,1.156121 2.68946,1.506287 0.90534,0.345483 1.87987,0.519786 2.92256,0.519786 1.34604,0 2.42879,-0.164417 3.23891,-0.491169 0.80908,-0.328314 1.62804,-0.69565 2.45845,-1.099928 0.82885,-0.404799 1.78309,-0.769533 2.86272,-1.098367 1.08016,-0.326753 2.56512,-0.49169 4.45435,-0.49169 1.54219,0 3.02766,0.2024 4.4533,0.607198 1.42824,0.405839 2.69935,1.13739 3.81749,2.198295 1.11918,1.060384 2.03336,2.515161 2.74878,4.366411 0.7123,1.851771 1.14571,4.203556 1.30128,7.058477 -0.15557,-0.03694 -0.55048,-0.09782 -1.18577,-0.174823 -0.63686,-0.07648 -1.43553,-0.152449 -2.40018,-0.231016 -0.96517,-0.07648 -2.05417,-0.152449 -3.26804,-0.230495 -1.21544,-0.07805 -2.4777,-0.11811 -3.78835,-0.11811 -4.74312,0 -8.86082,0.464634 -12.35052,1.388698 -3.49021,0.927186 -6.38104,2.247203 -8.67611,3.964735 -2.29403,1.71545 -4.00011,3.779506 -5.11929,6.189045 -1.11762,2.409019 -1.67799,5.117214 -1.67799,8.125626 0,2.776355 0.49273,5.295158 1.47559,7.550167 0.9839,2.255528 2.37208,4.184824 4.16557,5.783726 1.79038,1.600463 3.95121,2.832548 6.4773,3.70198 2.52504,0.866831 5.31181,1.299726 8.35768,1.299726 1.34915,0 2.8544,-0.184189 4.5121,-0.548924 1.65821,-0.366295 3.30602,-0.867871 4.94811,-1.503685 1.63688,-0.636335 3.21758,-1.398584 4.74103,-2.284145 1.52294,-0.887643 2.82527,-1.869982 3.90334,-2.950658 0.10771,1.110854 0.43862,2.240439 0.93916,2.991242 0.56505,0.844977 1.58693,1.718572 2.6239,2.231074 0.89701,0.440699 2.32733,0.784101 3.15046,0.91782 2.14262,0.350166 4.39346,0.279405 4.39346,0.279405 l 0,-30.308891 c 0,-2.620263 -0.11602,-5.215552 -0.34548,-7.779102 -0.23414,-2.566671 -0.66755,-5.014193 -1.30233,-7.348288 z m -9.40141,29.761009 c -1.42616,0.848619 -2.91892,1.608787 -4.4814,2.284145 -1.56248,0.675878 -3.13433,1.254459 -4.71346,1.737303 -1.58173,0.481283 -3.14577,0.854863 -4.68484,1.127504 -1.54583,0.27108 -2.9902,0.403758 -4.34092,0.403758 -1.31117,0 -2.54429,-0.133199 -3.7025,-0.403758 -1.15508,-0.272641 -2.15771,-0.69617 -3.00789,-1.27371 -0.8481,-0.578581 -1.51305,-1.330424 -1.99433,-2.255008 -0.48181,-0.926146 -0.72375,-2.063536 -0.72375,-3.414251 0,-1.580691 0.4355,-2.91996 1.30285,-4.019367 0.86787,-1.098888 2.05989,-1.995896 3.58543,-2.688944 1.52294,-0.69669 3.31591,-1.198266 5.37945,-1.506287 2.06353,-0.308022 4.28836,-0.460992 6.68125,-0.460992 1.27215,0 2.51621,0.0094 3.73112,0.02914 1.21492,0.01769 2.31485,0.04683 3.29718,0.08637 0.98286,0.03746 1.81223,0.06764 2.48759,0.08637 0.6738,0.01925 1.07079,0.04943 1.18422,0.08689 l 0,10.180837 z" /><path
       style="fill:#999999;fill-opacity:1"
       id="path3530"
       d="m 237.06931,45.63972 c -0.84862,-3.355457 -2.2264,-6.458044 -4.13436,-9.314006 -1.91004,-2.8518 -4.19523,-5.320133 -6.85504,-7.403961 -2.66032,-2.080185 -5.63179,-3.71811 -8.9092,-4.915335 -3.27793,-1.194623 -6.70936,-1.791935 -10.29583,-1.791935 -4.27952,0 -8.32074,0.820003 -12.11793,2.457928 -3.79824,1.638445 -7.1152,3.874722 -9.94878,6.709351 -2.83411,2.83515 -5.07039,6.149502 -6.70936,9.94982 -1.64104,3.796156 -2.45948,7.835815 -2.45948,12.118457 0,4.279521 0.81792,8.31814 2.45948,12.115856 1.63845,3.799278 3.87473,7.11415 6.70936,9.950341 2.83358,2.834629 6.15054,5.070386 9.94878,6.708831 3.79719,1.640006 7.83841,2.458448 12.11793,2.458448 4.54852,0 8.77289,-0.894927 12.6679,-2.688424 3.89398,-1.792976 7.28742,-4.231132 10.18032,-7.317069 l -2.1983,-2.198295 c -0.88608,-0.888163 -1.83199,-1.56248 -2.83463,-2.026073 -1.00315,-0.460992 -2.12024,-0.692528 -3.35545,-0.692528 -0.8866,0 -1.6962,0.09678 -2.42827,0.28929 -0.73259,0.192514 -1.48444,0.503137 -2.25605,0.924585 -1.4657,0.809597 -3.01726,1.437086 -4.65622,1.879347 -1.63793,0.445382 -3.34609,0.667033 -5.1193,0.667033 -2.42827,0 -4.7634,-0.42457 -6.9976,-1.274751 -2.23628,-0.847579 -4.24362,-2.014106 -6.0163,-3.498541 -1.77269,-1.484434 -3.25972,-3.229021 -4.45383,-5.234803 -1.1967,-2.005261 -1.96779,-4.184824 -2.31432,-6.536609 l 42.22443,0 c 0.8481,0 1.74459,-0.203961 2.68894,-0.606678 0.94644,-0.405839 1.80391,-0.98494 2.57708,-1.737303 0.76953,-0.749762 1.4168,-1.655615 1.93658,-2.717561 0.52187,-1.061425 0.7815,-2.264373 0.7815,-3.616129 -0.0385,-0.422489 -0.0567,-0.86579 -0.0567,-1.329904 -5.2e-4,-0.462032 -0.0619,-0.904812 -0.17534,-1.329382 z m -37.97145,0.171701 0,-0.01249 -10.7412,0 c 0.55152,-1.350195 1.23156,-2.633791 2.06197,-3.832057 1.21492,-1.756034 2.65981,-3.268565 4.33779,-4.542795 1.67799,-1.270068 3.54693,-2.261772 5.61047,-2.977194 2.06301,-0.712819 4.23165,-1.068189 6.50747,-1.068189 2.08175,0 4.08857,0.30542 6.01526,0.923024 1.92826,0.618124 3.69314,1.475069 5.29412,2.572915 1.60047,1.098887 3.01622,2.412141 4.25091,3.935078 1.23416,1.522937 2.23575,3.189478 3.00893,5.001185 l -26.34572,0 z" /><path
       style="fill:#999999;fill-opacity:1"
       id="path3532"
       d="m 273.78161,20.506317 c 2.79717,-2.796127 6.06469,-5.003787 9.80413,-6.624021 3.73892,-1.618153 7.75205,-2.430352 12.03157,-2.430352 3.27845,0 6.39196,0.484406 9.3421,1.447493 2.95014,0.964648 5.69684,2.313803 8.24269,4.050065 1.46675,1.002631 3.06669,1.503165 4.80035,1.503165 1.3502,0 2.54742,-0.241422 3.58595,-0.724786 1.04322,-0.481804 2.00526,-1.164446 2.89395,-2.052089 l 2.14158,-2.1395 C 324.69515,11.451944 322.56398,9.5746786 320.23092,7.8951294 317.89631,6.2166209 315.42069,4.802428 312.79783,3.6452664 310.17548,2.4886252 307.41786,1.5916169 304.52704,0.95632276 301.63413,0.31894737 298.66526,-4.766876e-7 295.61783,-4.766876e-7 c -3.89554,0 -7.6459,0.5026160166876 -11.24955,1.5042058766876 -3.60728,1.0026306 -6.97939,2.4303514 -10.1236,4.2816017 -3.14369,1.8491691 -5.99601,4.05787 -8.55904,6.6219399 -2.56459,2.565111 -4.77277,5.420032 -6.62558,8.561643 -1.84917,3.142651 -3.27585,6.517358 -4.27952,10.121521 -1.00107,3.606764 -1.50317,7.357133 -1.50317,11.250586 0,5.863333 1.10825,11.35829 3.32528,16.48643 2.21755,5.12762 5.24521,9.6111 9.08299,13.44732 3.83622,3.839341 8.31762,6.864403 13.44732,9.081949 5.12866,2.218586 10.62362,3.325278 16.48539,3.325278 3.04743,0 6.0163,-0.317387 8.90921,-0.954242 2.89082,-0.634774 5.64792,-1.531262 8.27079,-2.688944 2.62286,-1.157681 5.09848,-2.572915 7.43309,-4.249863 2.33306,-1.679028 4.46423,-3.557855 6.39301,-5.642203 l -2.14158,-2.1395 c -0.88816,-0.886602 -1.84033,-1.560919 -2.86481,-2.024512 -1.02136,-0.462032 -2.22587,-0.695129 -3.61457,-0.695129 -1.77164,0 -3.37418,0.482844 -4.80034,1.445411 -2.54586,1.737303 -5.28372,3.087498 -8.212,4.050065 -2.93245,0.965689 -6.05429,1.447493 -9.3728,1.447493 -4.27952,0 -8.29265,-0.811158 -12.03157,-2.428791 -3.73944,-1.621275 -7.00696,-3.828935 -9.80413,-6.624541 -2.79717,-2.795607 -5.00431,-6.063131 -6.62194,-9.806216 -1.62024,-3.739442 -2.43139,-7.749444 -2.43139,-12.030005 0,-4.279 0.81115,-8.290043 2.43139,-12.032607 1.61659,-3.738402 3.82373,-7.007487 6.6209,-9.802573 z" /><path
       style="fill:#999999;fill-opacity:1"
       id="path3534"
       d="m 447.92919,52.581128 c -1.67747,-1.466744 -3.59583,-2.69935 -5.75615,-3.705102 -2.16083,-0.999509 -4.39503,-1.887152 -6.70987,-2.657205 -1.19462,-0.385027 -2.38092,-0.791387 -3.55837,-1.215957 -1.1759,-0.42457 -2.22536,-0.916259 -3.15046,-1.474028 -0.92771,-0.559849 -1.67903,-1.215956 -2.25813,-1.966758 -0.57806,-0.751323 -0.86735,-1.687354 -0.86735,-2.806013 0,-0.385026 0.11863,-0.895447 0.34964,-1.533343 0.22842,-0.637375 0.64414,-1.251857 1.24198,-1.85073 0.59575,-0.596791 1.38973,-1.108252 2.37259,-1.533863 0.98234,-0.421969 2.22587,-0.635294 3.72956,-0.635294 0.88764,0 1.71753,0.193033 2.48915,0.57806 1.1556,0.57754 2.16915,1.032808 3.03546,1.359561 0.8684,0.327793 1.68632,0.491689 2.46105,0.491689 2.15667,0 4.04591,-0.695129 5.66614,-2.082786 l 2.7186,-2.312762 c -0.19251,-0.231016 -0.70293,-0.828849 -1.53126,-1.795058 -0.83197,-0.962566 -1.94803,-1.983408 -3.35754,-3.065125 -1.40587,-1.076514 -3.08229,-2.044284 -5.03136,-2.892904 -1.94699,-0.847058 -4.09585,-1.270068 -6.44972,-1.270068 -2.3138,0 -4.58858,0.42301 -6.8259,1.270068 -2.23576,0.84862 -4.23217,2.006822 -5.9856,3.471485 -1.75342,1.466744 -3.17333,3.210291 -4.25141,5.235844 -1.07911,2.025032 -1.61919,4.21188 -1.61919,6.564706 0,2.69935 0.49845,5.013673 1.50629,6.942449 0.99794,1.925134 2.31276,3.56618 3.93141,4.915335 1.62023,1.348114 3.46108,2.497471 5.52253,3.440786 2.06354,0.945397 4.15621,1.78309 6.27646,2.516723 2.04584,0.694088 3.75193,1.338748 5.12033,1.938661 1.36737,0.596792 2.45845,1.214396 3.26857,1.85021 0.81012,0.637375 1.37829,1.34083 1.70608,2.111924 0.32728,0.773175 0.49065,1.696719 0.49065,2.775314 0,1.388698 -0.28929,2.603614 -0.86631,3.645267 -0.57754,1.040613 -1.33094,1.916809 -2.25709,2.63067 -0.9251,0.714901 -1.9782,1.256019 -3.15045,1.618673 -1.17798,0.368897 -2.36323,0.552045 -3.55942,0.552045 -1.12022,0 -2.19829,-0.133198 -3.23838,-0.403758 -1.04166,-0.27264 -2.00631,-0.71334 -2.89447,-1.331984 -1.27215,-0.886602 -2.36167,-1.523457 -3.2644,-1.907964 -0.91002,-0.387108 -1.8627,-0.578581 -2.86585,-0.578581 -0.77057,0 -1.53176,0.125394 -2.28308,0.375141 -0.75237,0.25339 -1.5141,0.570256 -2.28675,0.956844 l -3.12184,1.559358 c 0.96257,1.929817 2.14887,3.644747 3.55682,5.147912 1.40534,1.505767 2.97823,2.796127 4.71395,3.875763 1.73626,1.080156 3.59636,1.900159 5.58237,2.458448 1.98445,0.558809 4.01781,0.838213 6.10163,0.838213 3.04692,0 5.842,-0.518225 8.3889,-1.559878 2.54378,-1.041133 4.74156,-2.459489 6.59333,-4.253505 1.85281,-1.790375 3.28521,-3.85287 4.30917,-6.189566 1.0198,-2.330452 1.53231,-4.806591 1.53231,-7.432057 0,-2.850759 -0.50418,-5.309727 -1.50317,-7.373783 -1.00575,-2.063015 -2.34346,-3.828415 -4.02145,-5.293077 z" /><path
       style="fill:#999999;fill-opacity:1"
       id="path3536"
       d="m 499.12579,57.872644 c -1.00368,-2.061974 -2.34138,-3.826854 -4.02145,-5.292037 -1.67695,-1.466743 -3.59688,-2.699349 -5.75563,-3.705102 -2.15823,-0.999508 -4.39607,-1.887151 -6.70883,-2.657205 -1.19515,-0.385026 -2.38145,-0.791386 -3.55682,-1.215956 -1.17693,-0.42457 -2.22743,-0.91626 -3.15462,-1.474028 -0.92458,-0.55985 -1.67746,-1.215956 -2.25396,-1.966758 -0.57806,-0.751323 -0.86683,-1.687354 -0.86683,-2.806013 0,-0.385027 0.11446,-0.895447 0.34548,-1.533343 0.23154,-0.637375 0.64518,-1.251857 1.24457,-1.85073 0.59679,-0.596792 1.38818,-1.108253 2.37052,-1.533863 0.98442,-0.421969 2.22639,-0.635295 3.73007,-0.635295 0.88713,0 1.71806,0.193034 2.48967,0.578061 1.15612,0.57754 2.16812,1.032808 3.03495,1.359561 0.86787,0.327793 1.68631,0.491689 2.45897,0.491689 2.15875,0 4.04902,-0.695129 5.66926,-2.082787 l 2.7186,-2.312762 c -0.19356,-0.231016 -0.70502,-0.828848 -1.53335,-1.795057 -0.82884,-0.962567 -1.9475,-1.983408 -3.35337,-3.065125 -1.40951,-1.076514 -3.08646,-2.044284 -5.03449,-2.892904 -1.94594,-0.847059 -4.09689,-1.270068 -6.44971,-1.270068 -2.31433,0 -4.58807,0.423009 -6.8233,1.270068 -2.23784,0.84862 -4.23374,2.006822 -5.98769,3.471485 -1.75499,1.466744 -3.17283,3.21029 -4.25038,5.235843 -1.08068,2.025033 -1.61868,4.211881 -1.61868,6.564707 0,2.69935 0.4995,5.013673 1.50161,6.942449 1.00315,1.925133 2.31588,3.56618 3.93351,4.915334 1.6192,1.348114 3.46108,2.497471 5.52514,3.440787 2.06353,0.945397 4.15413,1.78309 6.27646,2.516722 2.04168,0.694089 3.7488,1.338749 5.11669,1.938662 1.36997,0.596791 2.45949,1.214395 3.26856,1.85021 0.81064,0.637375 1.37934,1.340829 1.70869,2.111924 0.32571,0.773175 0.48909,1.696719 0.48909,2.775314 0,1.388698 -0.28981,2.603614 -0.86891,3.645267 -0.57806,1.040613 -1.32939,1.916809 -2.25345,2.630669 -0.92407,0.714901 -1.97821,1.25602 -3.15358,1.618674 -1.17693,0.368897 -2.36271,0.552045 -3.55785,0.552045 -1.11658,0 -2.19934,-0.133199 -3.23787,-0.403758 -1.04061,-0.272641 -2.00682,-0.71334 -2.89238,-1.331984 -1.27319,-0.886603 -2.36115,-1.523458 -3.26961,-1.907964 -0.90585,-0.387108 -1.86062,-0.578581 -2.86116,-0.578581 -0.7737,0 -1.53283,0.125394 -2.28571,0.375141 -0.75288,0.253389 -1.51409,0.570256 -2.28571,0.956844 l -3.1234,1.559358 c 0.96413,1.929817 2.14887,3.644747 3.55734,5.147912 1.40847,1.505767 2.97927,2.796127 4.71554,3.875763 1.73262,1.080156 3.59427,1.900159 5.58028,2.458447 1.98653,0.55881 4.02145,0.838214 6.10268,0.838214 3.04639,0 5.84148,-0.518225 8.3863,-1.559879 2.5469,-1.041133 4.74311,-2.459488 6.59592,-4.253505 1.85177,-1.790374 3.28834,-3.852869 4.3071,-6.189565 1.02344,-2.330453 1.53594,-4.806591 1.53594,-7.432057 5.2e-4,-2.8518 -0.50209,-5.310768 -1.5042,-7.374824 z" /><path
       style="fill:#999999;fill-opacity:1"
       id="path3538"
       d="m 173.20689,3.9928311 c -1.17745,-0.657147 -2.43035,-1.2346871 -3.76025,-1.7362625 -1.32938,-0.4994942 -2.67073,-0.9063739 -4.02041,-1.2143953 -1.35019,-0.3085417 -2.56615,-0.4620321 -3.64423,-0.4620321 -2.42931,0 -4.60783,0.40323749 -6.53713,1.2143952 -1.92617,0.8095969 -3.56514,1.928776 -4.91637,3.353375 -1.34916,1.4277209 -2.39081,3.135887 -3.12288,5.1198156 -0.73155,1.986009 -1.09837,4.156208 -1.09837,6.507472 l 0,6.189566 -1.27267,0 c -5.90027,0 -8.84885,1.599422 -8.84885,4.801388 l 0,6.246799 10.12152,0 0,40.337797 0,2.188409 0,0.913658 c 0.11655,1.091083 0.45215,2.196214 0.96101,2.933488 0.58118,0.844978 1.6374,1.718572 2.7108,2.231074 0.92458,0.440699 2.40173,0.784102 3.25243,0.91782 1.29452,0.205001 2.6135,0.264316 3.49802,0.279405 l 0.67848,0 0.35329,0 0,-7.275445 0,-2.188409 0,-40.337797 15.67527,0 0,-10.93372 -15.67527,0 0,-6.304033 c 0,-0.618124 0.0957,-1.234166 0.28929,-1.85177 0.19251,-0.617084 0.46307,-1.183177 0.81064,-1.706605 0.34652,-0.519786 0.77994,-0.943316 1.30076,-1.27319 0.52031,-0.324671 1.12855,-0.49169 1.8216,-0.49169 0.34756,0 0.67327,0.04058 0.98442,0.11863 0.15349,0.03798 0.28877,0.05619 0.40271,0.05619 1.65874,0.462553 3.10519,0.69617 4.33936,0.69617 1.50524,0 2.8825,-0.396994 4.13539,-1.187859 1.2529,-0.788265 2.26542,-1.8018216 3.03807,-3.0365087 L 176.01343,6.014742 C 175.3183,5.3216938 174.38227,4.6484173 173.20689,3.9928311 Z" /><path
       style="fill:#999999;fill-opacity:1"
       id="path3540"
       d="m 347.80821,9.8187024 -0.006,0 0,-1.5968205 0,-0.9146987 c -0.11603,-1.0916029 -0.45006,-2.1972541 -0.95944,-2.9350487 -0.58223,-0.8444573 -1.63741,-1.7159706 -2.71236,-2.2289928 -0.9225,-0.4422604 -2.39913,-0.7846221 -3.24983,-0.920422 -1.29609,-0.2039602 -2.61506,-0.26223449 -3.49958,-0.27836399 l -0.67848,0 -0.35277,0 0,7.27700589 0,2.1134844 -0.009,0 0,64.606451 0.007,0 0,1.597861 0,0.913658 c 0.11602,1.091083 0.4511,2.196214 0.96048,2.933488 0.58222,0.844978 1.63689,1.718572 2.70976,2.231074 0.92458,0.440699 2.40173,0.784102 3.25347,0.91782 1.29297,0.205001 2.61506,0.264316 3.49802,0.279405 l 0.679,0 0.35121,0 0,-7.275445 0,-0.581182 0.009,0 0,-66.1392736 z" /></g></svg>