<?xml version="1.0" encoding="UTF-8" standalone="no"?>
<svg
   xmlns:dc="http://purl.org/dc/elements/1.1/"
   xmlns:cc="http://creativecommons.org/ns#"
   xmlns:rdf="http://www.w3.org/1999/02/22-rdf-syntax-ns#"
   xmlns:svg="http://www.w3.org/2000/svg"
   xmlns="http://www.w3.org/2000/svg"
   version="1.1"
   id="svg2"
   viewBox="0 0 500.00001 100"
   height="100"
   width="500">
  <defs
     id="defs4" />
  <metadata
     id="metadata7">
    <rdf:RDF>
      <cc:Work
         rdf:about="">
        <dc:format>image/svg+xml</dc:format>
        <dc:type
           rdf:resource="http://purl.org/dc/dcmitype/StillImage" />
        <dc:title></dc:title>
      </cc:Work>
    </rdf:RDF>
  </metadata>
  <g
     transform="translate(0,-952.36216)"
     id="layer1">
    <g
       id="g4173">
      <rect
         style="color:#000000;clip-rule:nonzero;display:inline;overflow:visible;visibility:visible;opacity:1;isolation:auto;mix-blend-mode:normal;color-interpolation:sRGB;color-interpolation-filters:linearRGB;solid-color:#000000;solid-opacity:1;fill:#ffffff;fill-opacity:1;fill-rule:nonzero;stroke:none;stroke-width:1;stroke-linecap:butt;stroke-linejoin:miter;stroke-miterlimit:4;stroke-dasharray:none;stroke-dashoffset:0;stroke-opacity:1;color-rendering:auto;image-rendering:auto;shape-rendering:auto;text-rendering:auto;enable-background:accumulate"
         id="rect3342"
         width="500"
         height="100"
         x="0"
         y="952.36218"
         ry="5.9030401e-05" />
      <g
         style="font-style:normal;font-weight:normal;font-size:40px;line-height:125%;font-family:sans-serif;letter-spacing:0px;word-spacing:0px;fill:#f7400d;fill-opacity:1;stroke:none;stroke-width:1px;stroke-linecap:butt;stroke-linejoin:miter;stroke-opacity:1"
         id="text3338">
        <path
           d="m 55.38,1016.3822 q -0.15,0 -0.27,-0.15 -0.12,-0.12 -0.12,-0.3 l 0,-9.78 -11.64,0 q -0.18,0 -0.33,-0.12 -0.12,-0.12 -0.12,-0.27 l 0,-1.02 q 0,-0.18 0.12,-0.27 0.15,-0.12 0.33,-0.12 l 25.5,0 q 0.15,0 0.3,0.12 0.15,0.09 0.15,0.27 l 0,1.02 q 0,0.15 -0.15,0.27 -0.15,0.12 -0.3,0.12 l -11.79,0 0,9.78 q 0,0.18 -0.12,0.3 -0.09,0.15 -0.27,0.15 l -1.29,0 z m 1.77,-26.82002 q -0.06,0.39 -0.15,0.75 -0.09,0.36 -0.18,0.69 0.09,0.33 0.21,0.63 0.12,0.27 0.27,0.54 0.51,0.99 1.5,2.01 0.99,0.99 2.28,1.89 1.29,0.87 2.79,1.56 1.5,0.69 3.09,1.08 0.18,0.06 0.24,0.24 0.06,0.18 0,0.33 l -0.48,1.02002 q -0.09,0.15 -0.21,0.21 -0.09,0.06 -0.39,0 -1.59,-0.42 -3.15,-1.14002 -1.56,-0.75 -2.91,-1.71 -1.35,-0.96 -2.46,-2.07 -1.08,-1.11 -1.77,-2.25 -1.29,2.34 -3.69,4.23 -2.4,1.86 -6.03,3.30002 -0.48,0.18 -0.6,-0.12 l -0.57,-1.05002 q -0.06,-0.15 -0.03,-0.33 0.06,-0.18 0.24,-0.24 1.95,-0.66 3.72,-1.74 1.77,-1.11 3.12,-2.43 1.35,-1.32 2.16,-2.76 0.84,-1.44 0.93,-2.85 0.03,-0.36 0.39,-0.36 l 1.35,0.15 q 0.15,0.03 0.27,0.12 0.12,0.09 0.06,0.3 z"
           style="font-size:30px;fill:#f7400d;fill-opacity:1"
           id="path4145" />
        <path
           d="m 94.333594,1003.2122 q 0,0.42 -0.42,0.42 l -1.23,0 q -0.42,0 -0.42,-0.42 l 0,-5.94002 -5.28,0 q -0.18,1.26 -0.81,2.34 -0.6,1.08002 -1.56,1.86002 -0.93,0.75 -2.16,1.2 -1.2,0.42 -2.55,0.42 -1.44,0 -2.73,-0.48 -1.26,-0.51 -2.22,-1.38 -0.96,-0.9 -1.53,-2.13002 -0.54,-1.23 -0.54,-2.73 0,-1.59 0.54,-2.82 0.57,-1.26 1.53,-2.13 0.96,-0.87 2.22,-1.32 1.29,-0.48 2.73,-0.48 1.26,0 2.46,0.39 1.2,0.39 2.16,1.14 0.99,0.75 1.62,1.86 0.66,1.08 0.84,2.46 l 5.28,0 0,-6.15 q 0,-0.42 0.42,-0.42 l 1.23,0 q 0.42,0 0.42,0.42 l 0,13.89002 z m -14.82,13.11 q -0.72,0 -1.17,-0.09 -0.42,-0.09 -0.66,-0.36 -0.24,-0.24 -0.33,-0.66 -0.09,-0.39 -0.09,-1.02 l 0,-8.61 q 0,-0.15 0.12,-0.24 0.12,-0.09 0.27,-0.09 l 1.32,0 q 0.15,0 0.24,0.12 0.12,0.09 0.12,0.21 l 0,3.18 12.93,0 0,-3.12 q 0,-0.15 0.09,-0.27 0.12,-0.12 0.27,-0.12 l 1.32,0 q 0.15,0 0.27,0.12 0.12,0.09 0.12,0.24 l 0,8.79 q 0,1.14 -0.48,1.53 -0.48,0.39 -1.8,0.39 l -12.54,0 z m 5.43,-19.98002 q 0,-1.17 -0.42,-2.07 -0.42,-0.9 -1.14,-1.5 -0.69,-0.63 -1.59,-0.93 -0.9,-0.33 -1.89,-0.33 -0.99,0 -1.89,0.33 -0.9,0.3 -1.59,0.9 -0.66,0.6 -1.05,1.53 -0.39,0.9 -0.39,2.07 0,1.11 0.36,2.01 0.39,0.9 1.05,1.56 0.66,0.63002 1.56,0.99002 0.9,0.33 1.95,0.33 0.99,0 1.89,-0.33 0.9,-0.36 1.59,-0.99002 0.72,-0.63 1.14,-1.53 0.42,-0.9 0.42,-2.04 z m -5.61,14.22002 0,3.24 q 0,0.45 0.15,0.57 0.15,0.15 0.57,0.15 l 11.49,0 q 0.42,0 0.57,-0.15 0.15,-0.12 0.15,-0.57 l 0,-3.24 -12.93,0 z"
           style="font-size:30px;fill:#f7400d;fill-opacity:1"
           id="path4147" />
        <path
           d="m 111.27609,1008.6422 q -0.72,0 -1.17,-0.09 -0.42,-0.09 -0.66,-0.33 -0.24,-0.27 -0.33,-0.66 -0.09,-0.42 -0.09,-1.05 l 0,-15.42002 q 0,-0.15 0.12,-0.24 0.12,-0.12 0.27,-0.12 l 1.29,0 q 0.15,0 0.24,0.12 0.12,0.12 0.12,0.24 l 0,6.99 7.47,0 0,-6.96 q 0,-0.15 0.09,-0.27 0.12,-0.12 0.27,-0.12 l 1.29,0 q 0.15,0 0.27,0.12 0.12,0.09 0.12,0.24 l 0,15.63002 q 0,1.14 -0.48,1.53 -0.48,0.39 -1.8,0.39 l -7.02,0 z m 14.82,-8.4 3.81,0 0,-10.92002 q 0,-0.42 0.42,-0.42 l 1.14,0 q 0.42,0 0.42,0.42 l 0,26.82002 q 0,0.42 -0.42,0.42 l -1.14,0 q -0.42,0 -0.42,-0.42 l 0,-14.1 -3.81,0 0,12.96 q 0,0.42 -0.42,0.42 l -1.14,0 q -0.42,0 -0.42,-0.42 l 0,-25.17002 q 0,-0.42 0.42,-0.42 l 1.14,0 q 0.42,0 0.42,0.42 l 0,10.41002 z m -15.03,-0.39002 0,6.30002 q 0,0.45 0.15,0.6 0.15,0.12 0.57,0.12 l 6.03,0 q 0.42,0 0.57,-0.12 0.15,-0.15 0.15,-0.6 l 0,-6.30002 -7.47,0 z"
           style="font-size:30px;fill:#f7400d;fill-opacity:1"
           id="path4149" />
        <path
           d="m 157.00969,997.99218 0,-8.67 q 0,-0.42 0.42,-0.42 l 1.23,0 q 0.42,0 0.42,0.42 l 0,26.82002 q 0,0.42 -0.42,0.42 l -1.23,0 q -0.42,0 -0.42,-0.42 l 0,-16.35002 -8.37,0 q -0.39,0 -0.39,-0.36 l 0,-1.08 q 0,-0.36 0.39,-0.36 l 8.37,0 z m -16.35,7.65002 q 0,0.45 0.15,0.6 0.15,0.15 0.57,0.18 1.47,0.06 3.03,0.03 1.59,-0.03 3.12,-0.12 1.56,-0.12 3.06,-0.3 1.53,-0.18 2.88,-0.45 0.51,-0.12 0.6,0.36 l 0.15,0.84 q 0.09,0.45 -0.39,0.54 -1.23,0.27 -2.85,0.48 -1.62,0.21 -3.36,0.36 -1.74,0.12 -3.48,0.18 -1.74,0.03 -3.18,-0.06 -1.35,-0.06 -1.86,-0.63 -0.51,-0.6 -0.51,-1.86 l 0,-14.79002 q 0,-0.42 0.42,-0.42 l 1.23,0 q 0.42,0 0.42,0.42 l 0,14.64002 z"
           style="font-size:30px;fill:#f7400d;fill-opacity:1"
           id="path4151" />
        <path
           d="m 188.62219,1000.3322 q 0,1.68 -0.42,3.39 -0.39,1.71 -1.26,3.09 -0.87,1.38 -2.25,2.28 -1.35,0.87 -3.27,0.87 -1.98,0 -3.36,-0.87 -1.35,-0.87 -2.19,-2.25 -0.81,-1.41 -1.17,-3.12 -0.36,-1.71 -0.36,-3.39 0,-1.77002 0.36,-3.48002 0.36,-1.74 1.17,-3.12 0.84,-1.38 2.19,-2.22 1.38,-0.84 3.36,-0.84 1.92,0 3.27,0.84 1.38,0.84 2.25,2.22 0.87,1.35 1.26,3.09 0.42,1.71 0.42,3.51002 z m -2.13,-0.03 q 0,-1.38002 -0.3,-2.79002 -0.27,-1.41 -0.87,-2.52 -0.6,-1.14 -1.56,-1.83 -0.96,-0.72 -2.34,-0.72 -1.44,0 -2.4,0.72 -0.93,0.69 -1.5,1.83 -0.57,1.11 -0.81,2.52 -0.24,1.41 -0.24,2.79002 0,1.32 0.21,2.73 0.24,1.38 0.81,2.55 0.57,1.14 1.53,1.89 0.96,0.72 2.4,0.72 1.38,0 2.34,-0.72 0.96,-0.75 1.56,-1.89 0.6,-1.17 0.87,-2.55 0.3,-1.41 0.3,-2.73 z m 9.15,15.84 q 0,0.42 -0.42,0.42 l -1.23,0 q -0.42,0 -0.42,-0.42 l 0,-26.82002 q 0,-0.42 0.42,-0.42 l 1.23,0 q 0.42,0 0.42,0.42 l 0,26.82002 z"
           style="font-size:30px;fill:#f7400d;fill-opacity:1"
           id="path4153" />
        <path
           d="m 223.82578,1016.1422 q 0,0.42 -0.42,0.42 l -1.23,0 q -0.42,0 -0.42,-0.42 l 0,-26.82002 q 0,-0.42 0.42,-0.42 l 1.23,0 q 0.42,0 0.42,0.42 l 0,26.82002 z m -20.85,-22.86002 q 0,-1.26 0.48,-1.68 0.48,-0.45 1.8,-0.45 l 8.82,0 q 0.72,0 1.14,0.09 0.45,0.09 0.69,0.33 0.27,0.24 0.36,0.66 0.09,0.42 0.09,1.05 l 0,13.29002 q 0,1.26 -0.48,1.71 -0.48,0.42 -1.8,0.42 l -8.82,0 q -0.72,0 -1.17,-0.09 -0.42,-0.09 -0.69,-0.33 -0.24,-0.27 -0.33,-0.66 -0.09,-0.42 -0.09,-1.05 l 0,-13.29002 z m 2.79,-0.33 q -0.42,0 -0.57,0.18 -0.15,0.15 -0.15,0.6 l 0,12.39002 q 0,0.45 0.15,0.63 0.15,0.15 0.57,0.15 l 7.8,0 q 0.42,0 0.57,-0.15 0.15,-0.18 0.15,-0.63 l 0,-12.39002 q 0,-0.45 -0.15,-0.6 -0.15,-0.18 -0.57,-0.18 l -7.8,0 z"
           style="font-size:30px;fill:#f7400d;fill-opacity:1"
           id="path4155" />
        <path
           d="m 245.79937,1008.3422 q -0.09,0.15 -0.24,0.18 -0.12,0.03 -0.36,-0.15 -0.72,-0.54 -1.53,-1.23 -0.81,-0.72 -1.59,-1.5 -0.78,-0.81 -1.53,-1.65 -0.75,-0.87 -1.38,-1.71 -1.5,1.89 -3.42,3.63 -1.92,1.71 -4.38,3.42 -0.14999,0.09 -0.3,0.15 -0.15,0.03 -0.24,-0.09 l -0.72,-0.93 q -0.12,-0.15 -0.09,-0.3 0.03,-0.18 0.15,-0.27 4.80001,-3.39 7.47,-6.87 2.7,-3.48002 3.75,-7.26002 0.12,-0.42 0,-0.6 -0.09,-0.21 -0.51,-0.21 l -9.09,0 q -0.36,0 -0.36,-0.39 l 0,-1.05 q 0,-0.36 0.42,-0.36 l 9.84,0 q 1.56,0 1.98,0.54 0.42,0.54 0,1.92 -1.17,3.84 -3.3,7.05002 0.69,0.96 1.47,1.89 0.78,0.93 1.56,1.77 0.78,0.81 1.56,1.5 0.78,0.66 1.47,1.11 0.15,0.12 0.15,0.27 0,0.15 -0.09,0.27 l -0.69,0.87 z m 6.21,7.8 q 0,0.42 -0.42,0.42 l -1.23,0 q -0.42,0 -0.42,-0.42 l 0,-26.82002 q 0,-0.42 0.42,-0.42 l 1.23,0 q 0.42,0 0.42,0.42 l 0,26.82002 z"
           style="font-size:30px;fill:#f7400d;fill-opacity:1"
           id="path4157" />
        <path
           d="m 282.89297,1001.6822 q 0.15,0 0.3,0.12 0.15,0.09 0.15,0.27 l 0,1.02 q 0,0.15 -0.15,0.27 -0.15,0.12 -0.3,0.12 l -25.5,0 q -0.18,0 -0.33,-0.12 -0.12,-0.12 -0.12,-0.27 l 0,-1.02 q 0,-0.18 0.12,-0.27 0.15,-0.12 0.33,-0.12 l 25.5,0 z m -3.12,14.34 q 0,0.15 -0.15,0.24 -0.12,0.12 -0.24,0.12 l -15.99,0 q -1.41,0 -1.86,-0.54 -0.42,-0.51 -0.42,-1.77 l 0,-1.77 q 0,-1.26 0.51,-1.68 0.54,-0.45 1.89,-0.45 l 12.93,0 q 0.42,0 0.51,-0.12 0.12,-0.12 0.12,-0.57 l 0,-1.14 q 0,-0.45 -0.12,-0.57 -0.09,-0.12 -0.51,-0.12 l -14.97,0 q -0.15,0 -0.3,-0.09 -0.12,-0.09 -0.12,-0.24 l 0,-1.05 q 0,-0.15 0.12,-0.24 0.15,-0.09 0.3,-0.09 l 15.27,0 q 0.72,0 1.17,0.12 0.45,0.09 0.72,0.33 0.27,0.24 0.36,0.69 0.12,0.42 0.12,1.05 l 0,1.62 q 0,1.26 -0.54,1.71 -0.51,0.42 -1.86,0.42 l -12.93,0 q -0.42,0 -0.54,0.12 -0.09,0.12 -0.09,0.57 l 0,1.38 q 0,0.42 0.12,0.54 0.12,0.15 0.54,0.15 l 15.54,0 q 0.15,0 0.27,0.09 0.15,0.09 0.15,0.24 l 0,1.05 z m -0.24,-17.16002 q 0,0.15 -0.15,0.27 -0.12,0.09 -0.24,0.09 l -15.63,0 q -1.41,0 -1.86,-0.51 -0.42,-0.54 -0.42,-1.8 l 0,-1.62 q 0,-1.26 0.51,-1.68 0.54,-0.45 1.89,-0.45 l 12.72,0 q 0.42,0 0.51,-0.09 0.12,-0.12 0.12,-0.6 l 0,-1.23 q 0,-0.45 -0.12,-0.57 -0.09,-0.12 -0.51,-0.12 l -14.7,0 q -0.15,0 -0.3,-0.09 -0.12,-0.09 -0.12,-0.24 l 0,-1.08 q 0,-0.15 0.12,-0.24 0.15,-0.09 0.3,-0.09 l 15.03,0 q 0.72,0 1.17,0.12 0.45,0.09 0.72,0.33 0.27,0.24 0.36,0.69 0.12,0.42 0.12,1.05 l 0,1.74 q 0,1.29 -0.54,1.71 -0.51,0.42 -1.86,0.42 l -12.75,0 q -0.42,0 -0.54,0.12 -0.09,0.12 -0.09,0.57 l 0,1.26 q 0,0.42 0.12,0.57 0.12,0.12 0.54,0.12 l 15.18,0 q 0.15,0 0.27,0.09 0.15,0.09 0.15,0.24 l 0,1.02 z"
           style="font-size:30px;fill:#f7400d;fill-opacity:1"
           id="path4159" />
        <path
           d="m 315.94547,998.86218 q 0,0.42 -0.39,0.42 l -15.48,0 q -1.32,0 -1.8,-0.42 -0.48,-0.45 -0.48,-1.71 l 0,-5.52 q 0,-1.26 0.48,-1.68 0.48,-0.45 1.8,-0.45 l 15.27,0 q 0.39,0 0.39,0.39 l 0,0.99 q 0,0.42 -0.39,0.42 l -14.76,0 q -0.42,0 -0.57,0.18 -0.15,0.15 -0.15,0.6 l 0,4.62 q 0,0.42 0.15,0.6 0.15,0.18 0.57,0.18 l 14.97,0 q 0.39,0 0.39,0.39 l 0,0.99 z m 3.51,3.60002 q 0.15,0 0.3,0.12 0.15,0.09 0.15,0.27 l 0,1.02 q 0,0.15 -0.15,0.27 -0.15,0.12 -0.3,0.12 l -25.5,0 q -0.18,0 -0.33,-0.12 -0.12,-0.12 -0.12,-0.27 l 0,-1.02 q 0,-0.18 0.12,-0.27 0.15,-0.12 0.33,-0.12 l 25.5,0 z m -3.45,9.15 q 0,1.02 -0.45,1.77 -0.45,0.78 -1.2,1.35 -0.75,0.6 -1.74,0.99 -0.96,0.39 -2.01,0.6 -1.02,0.24 -2.07,0.33 -1.02,0.12 -1.89,0.12 -0.84,0 -1.89,-0.12 -1.02,-0.09 -2.07,-0.33 -1.02,-0.21 -2.01,-0.6 -0.96,-0.39 -1.71,-0.99 -0.75,-0.57 -1.2,-1.35 -0.45,-0.75 -0.45,-1.77 0,-0.99 0.45,-1.74 0.45,-0.78 1.2,-1.35 0.75,-0.57 1.71,-0.96 0.99,-0.39 2.01,-0.63 1.05,-0.24 2.07,-0.33 1.02,-0.12 1.89,-0.12 0.87,0 1.89,0.12 1.05,0.09 2.1,0.33 1.05,0.21 2.01,0.6 0.96,0.39 1.71,0.96 0.75,0.57 1.2,1.35 0.45,0.78 0.45,1.77 z m -2.19,0.03 q 0,-1.02 -0.81,-1.68 -0.81,-0.66 -1.98,-1.02 -1.14,-0.39 -2.37,-0.51 -1.2,-0.15 -2.01,-0.15 -0.84,0 -2.07,0.15 -1.2,0.12 -2.34,0.51 -1.11,0.36 -1.92,1.02 -0.81,0.66 -0.81,1.68 0,1.02 0.81,1.65 0.81,0.66 1.92,1.02 1.14,0.36 2.34,0.48 1.23,0.15 2.07,0.15 0.81,0 2.01,-0.15 1.23,-0.12 2.37,-0.48 1.17,-0.36 1.98,-1.02 0.81,-0.63 0.81,-1.65 z"
           style="font-size:30px;fill:#f7400d;fill-opacity:1"
           id="path4161" />
        <path
           d="m 344.27906,1000.3022 q 0,0.15 -0.15,0.27 -0.12,0.09 -0.24,0.09 l -8.07,0 0,3 11.82,0 q 0.15,0 0.3,0.12 0.15,0.09 0.15,0.27 l 0,1.02 q 0,0.15 -0.15,0.27 -0.15,0.12 -0.3,0.12 l -25.5,0 q -0.18,0 -0.33,-0.12 -0.12,-0.12 -0.12,-0.27 l 0,-1.02 q 0,-0.18 0.12,-0.27 0.15,-0.12 0.33,-0.12 l 11.61,0 0,-3 -5.49,0 q -1.41,0 -1.86,-0.51 -0.42,-0.54002 -0.42,-1.80002 l 0,-2.1 q 0,-1.26 0.51,-1.68 0.54,-0.45 1.89,-0.45 l 12.72,0 q 0.42,0 0.51,-0.09 0.12,-0.12 0.12,-0.6 l 0,-1.65 q 0,-0.45 -0.12,-0.57 -0.09,-0.12 -0.51,-0.12 l -14.7,0 q -0.15,0 -0.3,-0.09 -0.12,-0.09 -0.12,-0.24 l 0,-1.08 q 0,-0.15 0.12,-0.24 0.15,-0.09 0.3,-0.09 l 15.03,0 q 0.72,0 1.17,0.12 0.45,0.09 0.72,0.33 0.27,0.24 0.36,0.69 0.12,0.42 0.12,1.05 l 0,2.19 q 0,1.26 -0.54,1.71 -0.51,0.42 -1.86,0.42 l -12.75,0 q -0.42,0 -0.54,0.12 -0.09,0.09 -0.09,0.57 l 0,1.71 q 0,0.42 0.12,0.57 0.12,0.12 0.54,0.12 l 15.18,0 q 0.15,0 0.27,0.09 0.15,0.09 0.15,0.24 l 0,1.02002 z m -19.05,8.07 q 0,-0.18 0.15,-0.27 0.15,-0.09 0.3,-0.09 l 15.93,0 q 1.41,0 1.83,0.54 0.45,0.51 0.45,1.74 l 0,6.15 q 0,0.42 -0.42,0.42 l -1.23,0 q -0.42,0 -0.42,-0.42 l 0,-6 q 0,-0.42 -0.15,-0.51 -0.12,-0.12 -0.54,-0.12 l -15.45,0 q -0.15,0 -0.3,-0.09 -0.15,-0.12 -0.15,-0.27 l 0,-1.08 z"
           style="font-size:30px;fill:#f7400d;fill-opacity:1"
           id="path4163" />
        <path
           d="m 368.32266,1000.2422 3.81,0 0,-10.92002 q 0,-0.42 0.42,-0.42 l 1.14,0 q 0.42,0 0.42,0.42 l 0,26.82002 q 0,0.42 -0.42,0.42 l -1.14,0 q -0.42,0 -0.42,-0.42 l 0,-14.1 -3.81,0 0,12.96 q 0,0.42 -0.42,0.42 l -1.14,0 q -0.42,0 -0.42,-0.42 l 0,-25.17002 q 0,-0.42 0.42,-0.42 l 1.14,0 q 0.42,0 0.42,0.42 l 0,10.41002 z m -4.83,4.8 q 0,1.23 -0.42,2.28 -0.42,1.05 -1.17,1.83 -0.75,0.78 -1.83,1.23 -1.05,0.45 -2.34,0.45 -1.32,0 -2.4,-0.45 -1.05,-0.45 -1.8,-1.23 -0.75,-0.81 -1.17,-1.86 -0.39,-1.05 -0.39,-2.25 0,-1.2 0.39,-2.25 0.42,-1.08 1.17,-1.83 0.75,-0.78 1.8,-1.23002 1.08,-0.45 2.4,-0.45 1.29,0 2.34,0.45 1.08,0.45002 1.83,1.23002 0.75,0.78 1.17,1.83 0.42,1.05 0.42,2.25 z m -1.98,0 q 0,-0.84 -0.27,-1.56 -0.24,-0.72 -0.75,-1.26 -0.48,-0.54 -1.17,-0.84 -0.69,-0.33 -1.59,-0.33 -1.8,0 -2.82,1.14 -0.99,1.14 -0.99,2.85 0,0.84 0.24,1.59 0.27,0.72 0.75,1.26 0.51,0.54 1.2,0.87 0.72,0.3 1.62,0.3 0.9,0 1.59,-0.3 0.69,-0.33 1.17,-0.87 0.51,-0.54 0.75,-1.26 0.27,-0.75 0.27,-1.59 z m 3.18,-8.25002 q 0,0.39 -0.45,0.39 l -13.56,0 q -0.15,0 -0.3,-0.12 -0.12,-0.12 -0.12,-0.3 l 0,-0.96 q 0,-0.18 0.12,-0.3 0.15,-0.12 0.3,-0.12 l 13.56,0 q 0.45,0 0.45,0.39 l 0,1.02 z m -3.18,-4.8 q 0,0.42 -0.45,0.42 l -7.02,0 q -0.15,0 -0.3,-0.09 -0.12,-0.12 -0.12,-0.3 l 0,-1.02 q 0,-0.18 0.12,-0.3 0.12,-0.12 0.27,-0.12 l 7.05,0 q 0.45,0 0.45,0.42 l 0,0.99 z"
           style="font-size:30px;fill:#f7400d;fill-opacity:1"
           id="path4165" />
        <path
           d="m 401.90625,1000.4222 q -0.12,0.3 -0.57,0.15 -2.34,-0.54 -4.83,-1.44002 -2.49,-0.93 -4.83,-2.07 -2.16,1.11 -4.68,2.1 -2.52,0.96002 -5.37,1.74002 -0.42,0.15 -0.57,-0.24 l -0.36,-0.96002 q -0.18,-0.45 0.24,-0.54 2.16,-0.57 4.26,-1.35 2.13,-0.81 4.05,-1.71 1.95,-0.93 3.66,-1.92 1.71,-1.02 3.03,-2.04 0.36,-0.27 0.3,-0.48 -0.03,-0.21 -0.51,-0.21 l -12.9,0 q -0.39,0 -0.39,-0.39 l 0,-1.05 q 0,-0.36 0.39,-0.36 l 13.71,0 q 1.17,0 1.83,0.27 0.69,0.24 0.87,0.66 0.21,0.42 -0.06,0.99 -0.27,0.54 -0.93,1.14 -1.98,1.77 -4.68,3.33 1.89,0.84 4.11,1.59 2.25,0.75 4.38,1.26 0.27,0.06 0.3,0.15 0.03,0.09 -0.06,0.27 l -0.39,1.11002 z m -11.37,15.96 q -0.15,0 -0.27,-0.15 -0.12,-0.12 -0.12,-0.3 l 0,-9.72 -11.64,0 q -0.18,0 -0.33,-0.12 -0.12,-0.12 -0.12,-0.27 l 0,-1.02 q 0,-0.18 0.12,-0.27 0.15,-0.12 0.33,-0.12 l 25.5,0 q 0.15,0 0.3,0.12 0.15,0.09 0.15,0.27 l 0,1.02 q 0,0.15 -0.15,0.27 -0.15,0.12 -0.3,0.12 l -11.79,0 0,9.72 q 0,0.18 -0.12,0.3 -0.09,0.15 -0.27,0.15 l -1.29,0 z"
           style="font-size:30px;fill:#f7400d;fill-opacity:1"
           id="path4167" />
        <path
           d="m 414.87984,991.00218 q 0,1.98 -0.09,3.69 -0.06,1.71 -0.3,3.24 0.18,1.23 0.66,2.55002 0.48,1.29 1.17,2.64 0.69,1.32 1.59,2.61 0.93,1.26 2.01,2.37 0.12,0.12 0.12,0.3 0.03,0.18 -0.12,0.3 l -0.84,0.81 q -0.15,0.15 -0.33,0.15 -0.18,-0.03 -0.3,-0.18 -0.72,-0.78 -1.44,-1.71 -0.69,-0.93 -1.32,-1.92 -0.63,-1.02 -1.17,-2.04 -0.51,-1.02 -0.87,-1.95 -0.78,2.49 -2.1,4.47 -1.32,1.95 -3.3,3.84 -0.3,0.24 -0.51,0.03 l -0.96,-0.9 q -0.27,-0.21 0.09,-0.54 1.59,-1.5 2.7,-3.18 1.14,-1.68 1.86,-3.78 0.72,-2.10002 1.05,-4.74002 0.33,-2.67 0.33,-6.12 0,-0.21 0.09,-0.3 0.12,-0.12 0.27,-0.12 l 1.32,0.06 q 0.39,0 0.39,0.42 z m 8.31,8.22 0,-9.39 q 0,-0.42 0.42,-0.42 l 1.14,0 q 0.42,0 0.42,0.42 l 0,25.17002 q 0,0.42 -0.42,0.42 l -1.14,0 q -0.42,0 -0.42,-0.42 l 0,-13.98 -4.44,0 q -0.39,0 -0.39,-0.36 l 0,-1.08002 q 0,-0.36 0.39,-0.36 l 4.44,0 z m 7.29,16.92002 q 0,0.42 -0.42,0.42 l -1.14,0 q -0.42,0 -0.42,-0.42 l 0,-26.82002 q 0,-0.42 0.42,-0.42 l 1.14,0 q 0.42,0 0.42,0.42 l 0,26.82002 z"
           style="font-size:30px;fill:#f7400d;fill-opacity:1"
           id="path4169" />
        <path
           d="m 447.56344,1003.2722 q -1.53,0 -3.24,-0.33 -1.68,-0.36 -3.12,-1.11 -1.41,-0.78 -2.34,-1.98002 -0.9,-1.23 -0.9,-3 0,-1.77 0.9,-2.97 0.93,-1.23 2.34,-1.98 1.44,-0.78 3.12,-1.11 1.71,-0.33 3.24,-0.33 1.56,0 3.27,0.33 1.71,0.33 3.09,1.11 1.41,0.75 2.31,1.98 0.93,1.2 0.93,2.97 0,1.77 -0.93,3 -0.9,1.20002 -2.31,1.98002 -1.38,0.75 -3.09,1.11 -1.71,0.33 -3.27,0.33 z m 0,-10.89002 q -1.05,0 -2.34,0.18 -1.26,0.18 -2.4,0.69 -1.11,0.48 -1.89,1.38 -0.75,0.87 -0.75,2.25 0,1.38 0.75,2.25 0.78,0.87002 1.89,1.38002 1.14,0.48 2.4,0.66 1.29,0.18 2.34,0.18 0.99,0 2.28,-0.18 1.29,-0.18 2.4,-0.66 1.14,-0.51 1.92,-1.38002 0.78,-0.87 0.78,-2.25 0,-1.38 -0.78,-2.25 -0.78,-0.9 -1.92,-1.38 -1.11,-0.51 -2.4,-0.69 -1.29,-0.18 -2.28,-0.18 z m 6.12,11.70002 q 0.15,0 0.27,0.15 0.12,0.12 0.12,0.3 l 0,5.49 6.3,0 q 0.15,0 0.3,0.12 0.15,0.09 0.15,0.27 l 0,1.02 q 0,0.15 -0.15,0.27 -0.15,0.12 -0.3,0.12 l -25.5,0 q -0.18,0 -0.33,-0.12 -0.12,-0.12 -0.12,-0.27 l 0,-1.02 q 0,-0.18 0.12,-0.27 0.15,-0.12 0.33,-0.12 l 6.21,0 0,-5.49 q 0,-0.18 0.09,-0.3 0.12,-0.15 0.3,-0.15 l 1.26,0 q 0.15,0 0.27,0.15 0.12,0.12 0.12,0.3 l 0,5.49 8.91,0 0,-5.49 q 0,-0.18 0.09,-0.3 0.12,-0.15 0.3,-0.15 l 1.26,0 z"
           style="font-size:30px;fill:#f7400d;fill-opacity:1"
           id="path4171" />
      </g>
    </g>
  </g>
</svg>
