<?xml version="1.0" encoding="UTF-8" standalone="no"?>
<svg
   xmlns:dc="http://purl.org/dc/elements/1.1/"
   xmlns:cc="http://creativecommons.org/ns#"
   xmlns:rdf="http://www.w3.org/1999/02/22-rdf-syntax-ns#"
   xmlns:svg="http://www.w3.org/2000/svg"
   xmlns="http://www.w3.org/2000/svg"
   width="120"
   height="120"
   viewBox="0 0 120 120"
   id="svg5470"
   version="1.1">
  <defs
     id="defs5472" />
  <metadata
     id="metadata5475">
    <rdf:RDF>
      <cc:Work
         rdf:about="">
        <dc:format>image/svg+xml</dc:format>
        <dc:type
           rdf:resource="http://purl.org/dc/dcmitype/StillImage" />
        <dc:title></dc:title>
      </cc:Work>
    </rdf:RDF>
  </metadata>
  <g
     id="g4274">
    <circle
       r="50"
       cy="60"
       cx="60"
       id="path4162"
       style="color:#000000;clip-rule:nonzero;display:inline;overflow:visible;visibility:visible;opacity:1;isolation:auto;mix-blend-mode:normal;color-interpolation:sRGB;color-interpolation-filters:linearRGB;solid-color:#000000;solid-opacity:1;fill:#231f20;fill-opacity:1;fill-rule:nonzero;stroke:none;stroke-width:0;stroke-linecap:butt;stroke-linejoin:miter;stroke-miterlimit:4;stroke-dasharray:none;stroke-dashoffset:0;stroke-opacity:1;color-rendering:auto;image-rendering:auto;shape-rendering:auto;text-rendering:auto;enable-background:accumulate" />
    <rect
       style="color:#000000;clip-rule:nonzero;display:inline;overflow:visible;visibility:visible;opacity:1;isolation:auto;mix-blend-mode:normal;color-interpolation:sRGB;color-interpolation-filters:linearRGB;solid-color:#000000;solid-opacity:1;fill:#e85c41;fill-opacity:0;fill-rule:nonzero;stroke:none;stroke-width:0;stroke-linecap:butt;stroke-linejoin:miter;stroke-miterlimit:4;stroke-dasharray:none;stroke-dashoffset:0;stroke-opacity:1;color-rendering:auto;image-rendering:auto;shape-rendering:auto;text-rendering:auto;enable-background:accumulate"
       id="rect9899-1-2-6-8-8-9-2-2-95"
       width="120"
       height="120"
       x="3.0463625e-13"
       y="1.9673428e-14"
       ry="5.9030401e-05" />
    <circle
       r="47.5"
       cy="60"
       cx="60"
       id="path4162-2"
       style="color:#000000;clip-rule:nonzero;display:inline;overflow:visible;visibility:visible;opacity:1;isolation:auto;mix-blend-mode:normal;color-interpolation:sRGB;color-interpolation-filters:linearRGB;solid-color:#000000;solid-opacity:1;fill:#ffffff;fill-opacity:1;fill-rule:nonzero;stroke:none;stroke-width:0;stroke-linecap:butt;stroke-linejoin:miter;stroke-miterlimit:4;stroke-dasharray:none;stroke-dashoffset:0;stroke-opacity:1;color-rendering:auto;image-rendering:auto;shape-rendering:auto;text-rendering:auto;enable-background:accumulate" />
    <g
       style="font-style:normal;font-weight:normal;font-size:40px;line-height:125%;font-family:sans-serif;letter-spacing:0px;word-spacing:0px;fill:#000000;fill-opacity:1;stroke:none;stroke-width:1px;stroke-linecap:butt;stroke-linejoin:miter;stroke-opacity:1"
       id="text4257">
      <path
         d="m 54.319337,32.837498 q 0,-0.325 0.35,-0.325 l 2.15,0 q 0.325,0 0.325,0.325 l 0,15.875 q 0,0.325 -0.325,0.325 l -2.175,0 q -0.325,0 -0.325,-0.325 l 0,-6.85 -2.25,0 0,6.275 q 0,0.325 -0.325,0.325 l -2.05,0 q -0.35,0 -0.35,-0.325 l 0,-14.9 q 0,-0.325 0.35,-0.325 l 2.05,0 q 0.325,0 0.325,0.325 l 0,6.225 2.25,0 0,-6.625 z m 3.425,22.675 q 0,0.15 -0.125,0.225 -0.1,0.075 -0.225,0.075 l -13.975,0 q -1.125,0 -1.525,-0.4 -0.375,-0.4 -0.375,-1.375 l 0,-5.475 q 0,-0.125 0.1,-0.225 0.125,-0.125 0.25,-0.125 l 2.15,0 q 0.15,0 0.25,0.125 0.125,0.1 0.125,0.225 l 0,4.45 q 0,0.25 0.1,0.325 0.1,0.075 0.35,0.075 l 12.55,0 q 0.125,0 0.225,0.1 0.125,0.1 0.125,0.225 l 0,1.775 z m -10.075,-15.75 q 0,1.35 -0.425,2.475 -0.425,1.125 -1.175,1.925 -0.75,0.8 -1.8,1.25 -1.025,0.425 -2.25,0.425 -1.2,0 -2.225,-0.425 -1.025,-0.45 -1.8,-1.25 -0.75,-0.8 -1.175,-1.925 -0.425,-1.125 -0.425,-2.475 0,-1.325 0.425,-2.425 0.425,-1.1 1.175,-1.875 0.775,-0.8 1.8,-1.225 1.025,-0.45 2.225,-0.45 1.225,0 2.25,0.45 1.05,0.425 1.8,1.225 0.75,0.775 1.175,1.875 0.425,1.1 0.425,2.425 z m -2.775,0.05 q 0,-0.775 -0.225,-1.425 -0.2,-0.65 -0.6,-1.125 -0.375,-0.475 -0.9,-0.75 -0.525,-0.275 -1.15,-0.275 -0.6,0 -1.125,0.275 -0.525,0.275 -0.925,0.75 -0.375,0.475 -0.6,1.125 -0.2,0.65 -0.2,1.425 0,0.775 0.2,1.425 0.225,0.65 0.6,1.125 0.4,0.475 0.925,0.75 0.525,0.275 1.125,0.275 0.625,0 1.15,-0.275 0.525,-0.275 0.9,-0.75 0.4,-0.475 0.6,-1.125 0.225,-0.65 0.225,-1.425 z"
         style="font-style:normal;font-variant:normal;font-weight:600;font-stretch:normal;font-size:25px;font-family:NanumGothic;-inkscape-font-specification:'NanumGothic Semi-Bold';text-align:center;text-anchor:middle"
         id="path4264" />
      <path
         d="m 61.105666,50.262498 q -0.15,0.125 -0.375,0.125 -0.225,0 -0.375,-0.175 l -1.025,-1.2 q -0.125,-0.175 -0.1,-0.375 0.025,-0.225 0.225,-0.35 1.5,-1.05 2.725,-2.375 1.25,-1.325 2.15,-2.75 0.925,-1.45 1.525,-2.9 0.6,-1.45 0.825,-2.75 0.075,-0.35 0.025,-0.475 -0.05,-0.15 -0.375,-0.15 l -5.25,0 q -0.125,0 -0.2,-0.1 -0.075,-0.125 -0.075,-0.275 l 0,-1.6 q 0,-0.375 0.3,-0.375 l 6.65,0 q 1.075,0 1.55,0.35 0.475,0.35 0.475,1 0,0.225 -0.025,0.525 0,0.275 -0.05,0.5 -0.525,2.825 -1.9,5.5 0.375,0.675 0.875,1.425 0.525,0.725 1.075,1.4 0.575,0.675 1.1,1.225 0.55,0.55 0.975,0.85 0.275,0.2 0.25,0.4 0,0.175 -0.175,0.375 l -0.95,1.175 q -0.35,0.45 -0.85,0.025 -0.375,-0.275 -0.85,-0.75 -0.475,-0.5 -1,-1.075 -0.5,-0.6 -1,-1.275 -0.475,-0.675 -0.875,-1.325 -1.05,1.525 -2.375,2.875 -1.3,1.35 -2.9,2.525 z m 14.775,4.825 q 0,0.35 -0.35,0.35 l -2.025,0 q -0.35,0 -0.35,-0.35 l 0,-12.025 -2.975,0 q -0.125,0 -0.25,-0.1 -0.1,-0.1 -0.1,-0.225 l 0,-1.725 q 0,-0.125 0.1,-0.2 0.125,-0.1 0.25,-0.1 l 2.975,0 0,-7.475 q 0,-0.325 0.35,-0.325 l 2.025,0 q 0.35,0 0.35,0.325 l 0,21.85 z m 4.75,0.875 q 0,0.325 -0.325,0.325 l -2.175,0 q -0.325,0 -0.325,-0.325 l 0,-23.125 q 0,-0.325 0.35,-0.325 l 2.15,0 q 0.325,0 0.325,0.325 l 0,23.125 z"
         style="font-style:normal;font-variant:normal;font-weight:600;font-stretch:normal;font-size:25px;font-family:NanumGothic;-inkscape-font-specification:'NanumGothic Semi-Bold';text-align:center;text-anchor:middle"
         id="path4266" />
      <path
         d="m 44.326173,87.162498 q 0,0.325 -0.325,0.325 l -2.225,0 q -0.325,0 -0.325,-0.325 l 0,-23.075 q 0,-0.325 0.325,-0.325 l 2.225,0 q 0.325,0 0.325,0.325 l 0,23.075 z m -4.55,-6.775 q 0.05,0.2 -0.1,0.325 -0.15,0.1 -0.35,0.15 -0.725,0.175 -1.675,0.325 -0.925,0.125 -1.975,0.225 -1.05,0.1 -2.125,0.175 -1.075,0.075 -2.075,0.1 -1,0.025 -1.85,0.025 -0.825,0 -1.375,-0.05 -1.1,-0.1 -1.525,-0.475 -0.4,-0.375 -0.4,-1.325 l 0,-6 q 0,-0.9 0.425,-1.3 0.45,-0.4 1.325,-0.4 l 5.95,0 q 0.2,0 0.275,-0.05 0.075,-0.075 0.075,-0.325 l 0,-3.5 q 0,-0.2 -0.05,-0.275 -0.05,-0.075 -0.3,-0.075 l -7.2,0 q -0.125,0 -0.25,-0.1 -0.1,-0.1 -0.1,-0.225 l 0,-1.725 q 0,-0.125 0.1,-0.2 0.125,-0.1 0.25,-0.1 l 8.7,0 q 1.075,0 1.375,0.4 0.325,0.4 0.325,1.3 l 0,5.55 q 0,0.95 -0.4,1.3 -0.375,0.35 -1.35,0.35 l -5.925,0 q -0.35,0 -0.35,0.35 l 0,3.95 q 0,0.275 0.1,0.375 0.1,0.075 0.375,0.075 1.1,0.05 2.3,0.025 1.225,-0.05 2.45,-0.125 1.225,-0.1 2.375,-0.25 1.175,-0.15 2.2,-0.35 0.175,-0.05 0.325,0.05 0.175,0.075 0.225,0.3 l 0.225,1.5 z"
         style="font-style:normal;font-variant:normal;font-weight:600;font-stretch:normal;font-size:25px;font-family:NanumGothic;-inkscape-font-specification:'NanumGothic Semi-Bold';text-align:center;text-anchor:middle"
         id="path4268" />
      <path
         d="m 65.337502,64.087498 q 0,-0.325 0.325,-0.325 l 2.225,0 q 0.325,0 0.325,0.325 l 0,23.075 q 0,0.325 -0.325,0.325 l -2.225,0 q -0.325,0 -0.325,-0.325 l 0,-14.075 -6.65,0 q -0.1,0 -0.25,-0.1 -0.15,-0.1 -0.15,-0.275 l 0,-1.65 q 0,-0.175 0.15,-0.275 0.15,-0.1 0.25,-0.1 l 6.65,0 0,-6.6 z m -2.3,15.2 q 0.075,0.375 -0.425,0.5 -0.975,0.275 -2.3,0.475 -1.3,0.2 -2.775,0.325 -1.45,0.1 -2.95,0.15 -1.5,0.025 -2.875,-0.025 -0.975,-0.05 -1.4,-0.55 -0.425,-0.5 -0.425,-1.325 l 0,-13.325 q 0,-0.125 0.1,-0.225 0.125,-0.125 0.25,-0.125 l 2.15,0 q 0.15,0 0.25,0.125 0.125,0.1 0.125,0.225 l 0,12.35 q 0,0.25 0.1,0.325 0.1,0.075 0.35,0.075 2.25,0.05 4.4,-0.075 2.175,-0.15 4.6,-0.675 0.275,-0.05 0.375,0.1 0.125,0.125 0.175,0.275 l 0.275,1.4 z"
         style="font-style:normal;font-variant:normal;font-weight:600;font-stretch:normal;font-size:25px;font-family:NanumGothic;-inkscape-font-specification:'NanumGothic Semi-Bold';text-align:center;text-anchor:middle"
         id="path4270" />
      <path
         d="m 74.22383,76.662498 q -0.125,0.05 -0.3,0.025 -0.15,-0.05 -0.275,-0.25 l -0.9,-1.55 q -0.1,-0.2 -0.025,-0.35 0.1,-0.175 0.275,-0.225 1.875,-0.7 3.275,-1.5 1.425,-0.825 2.4,-1.875 1,-1.05 1.55,-2.4 0.575,-1.35 0.75,-3.125 0.025,-0.175 0.1,-0.35 0.1,-0.175 0.3,-0.15 l 2.175,0.1 q 0.425,0.025 0.4,0.55 -0.025,0.65 -0.15,1.225 0.3,1.2 1.05,2.3 0.75,1.1 1.825,2.025 1.1,0.9 2.425,1.6 1.325,0.7 2.75,1.1 0.175,0.05 0.2,0.225 0.05,0.15 0,0.275 l -0.85,1.6 q -0.2,0.375 -0.6,0.275 -1.15,-0.3 -2.325,-0.85 -1.15,-0.55 -2.225,-1.275 -1.075,-0.75 -1.975,-1.65 -0.9,-0.925 -1.525,-1.975 -1.25,2.2 -3.4,3.75 -2.125,1.55 -4.925,2.475 z m 19.075,4.2 q 0.125,0 0.25,0.125 0.125,0.125 0.125,0.275 l 0,1.625 q 0,0.125 -0.125,0.25 -0.125,0.125 -0.25,0.125 l -21.775,0 q -0.15,0 -0.25,-0.125 -0.1,-0.125 -0.1,-0.25 l 0,-1.625 q 0,-0.4 0.35,-0.4 l 21.775,0 z"
         style="font-style:normal;font-variant:normal;font-weight:600;font-stretch:normal;font-size:25px;font-family:NanumGothic;-inkscape-font-specification:'NanumGothic Semi-Bold';text-align:center;text-anchor:middle"
         id="path4272" />
    </g>
  </g>
</svg>
