<?xml version="1.0" encoding="UTF-8" standalone="no"?>
<svg
   xmlns:dc="http://purl.org/dc/elements/1.1/"
   xmlns:cc="http://creativecommons.org/ns#"
   xmlns:rdf="http://www.w3.org/1999/02/22-rdf-syntax-ns#"
   xmlns:svg="http://www.w3.org/2000/svg"
   xmlns="http://www.w3.org/2000/svg"
   version="1.1"
   id="svg4739"
   viewBox="0 0 120 120"
   height="120"
   width="120">
  <defs
     id="defs4741" />
  <metadata
     id="metadata4744">
    <rdf:RDF>
      <cc:Work
         rdf:about="">
        <dc:format>image/svg+xml</dc:format>
        <dc:type
           rdf:resource="http://purl.org/dc/dcmitype/StillImage" />
        <dc:title></dc:title>
      </cc:Work>
    </rdf:RDF>
  </metadata>
  <g
     transform="translate(-37.142853,41.923515)"
     id="layer1">
    <g
       id="g4220">
      <circle
         r="50"
         cy="18.076485"
         cx="97.142853"
         id="path4162"
         style="color:#000000;clip-rule:nonzero;display:inline;overflow:visible;visibility:visible;opacity:1;isolation:auto;mix-blend-mode:normal;color-interpolation:sRGB;color-interpolation-filters:linearRGB;solid-color:#000000;solid-opacity:1;fill:#75614c;fill-opacity:1;fill-rule:nonzero;stroke:none;stroke-width:0;stroke-linecap:butt;stroke-linejoin:miter;stroke-miterlimit:4;stroke-dasharray:none;stroke-dashoffset:0;stroke-opacity:1;color-rendering:auto;image-rendering:auto;shape-rendering:auto;text-rendering:auto;enable-background:accumulate" />
      <rect
         style="color:#000000;clip-rule:nonzero;display:inline;overflow:visible;visibility:visible;opacity:1;isolation:auto;mix-blend-mode:normal;color-interpolation:sRGB;color-interpolation-filters:linearRGB;solid-color:#000000;solid-opacity:1;fill:#e85c41;fill-opacity:0;fill-rule:nonzero;stroke:none;stroke-width:0;stroke-linecap:butt;stroke-linejoin:miter;stroke-miterlimit:4;stroke-dasharray:none;stroke-dashoffset:0;stroke-opacity:1;color-rendering:auto;image-rendering:auto;shape-rendering:auto;text-rendering:auto;enable-background:accumulate"
         id="rect9899-1-2-6-8-8-9-2-2-95"
         width="120"
         height="120"
         x="37.142853"
         y="-41.923515"
         ry="5.9030401e-05" />
      <circle
         r="45"
         cy="18.076485"
         cx="97.142853"
         id="path4162-2"
         style="color:#000000;clip-rule:nonzero;display:inline;overflow:visible;visibility:visible;opacity:1;isolation:auto;mix-blend-mode:normal;color-interpolation:sRGB;color-interpolation-filters:linearRGB;solid-color:#000000;solid-opacity:1;fill:#ffffff;fill-opacity:1;fill-rule:nonzero;stroke:none;stroke-width:0;stroke-linecap:butt;stroke-linejoin:miter;stroke-miterlimit:4;stroke-dasharray:none;stroke-dashoffset:0;stroke-opacity:1;color-rendering:auto;image-rendering:auto;shape-rendering:auto;text-rendering:auto;enable-background:accumulate" />
      <g
         style="font-style:normal;font-weight:normal;font-size:40px;line-height:125%;font-family:sans-serif;letter-spacing:0px;word-spacing:0px;fill:#75614c;fill-opacity:1;stroke:none;stroke-width:1px;stroke-linecap:butt;stroke-linejoin:miter;stroke-opacity:1"
         id="text4205">
        <path
           d="m 87.403196,-8.6035146 q 0,2.31 -0.48,4.77 -0.45,2.43 -1.38,4.83000004 -0.93,2.36999996 -2.31,4.58999996 -1.38,2.22 -3.18,4.05 -0.15,0.15 -0.45,0.21 -0.27,0.06 -0.48,-0.12 l -1.5,-1.29 q -0.21,-0.18 -0.15,-0.48 0.09,-0.3 0.21,-0.42 1.38,-1.44 2.52,-3.24 1.17,-1.8 2.01,-3.71999996 0.84,-1.95000004 1.29,-3.90000004 0.48,-1.98 0.48,-3.69 0,-0.6 -0.12,-0.78 -0.09,-0.21 -0.6,-0.21 l -2.82,0 q -0.42,0 -0.42,-0.42 l 0,-1.8600004 q 0,-0.36 0.42,-0.36 l 4.86,0 q 1.17,0 1.62,0.45 0.48,0.4500004 0.48,1.5900004 z m 10.41,9.18000004 q 0,0.15 -0.15,0.27 -0.12,0.12 -0.27,0.12 l -4.08,0 0,14.15999956 q 0,0.39 -0.39,0.39 l -2.55,0 q -0.39,0 -0.39,-0.39 l 0,-27.69 q 0,-0.39 0.39,-0.39 l 2.55,0 q 0.39,0 0.39,0.39 l 0,10.6500004 4.08,0 q 0.15,0 0.27,0.12 0.15,0.09 0.15,0.24 l 0,2.13000004 z m -18.6,-9.06000004 q 0,1.86 -0.42,3.84 -0.42,1.98 -1.26,3.93000004 -0.81,1.91999996 -2.01,3.74999996 -1.2,1.83 -2.76,3.39 -0.21,0.21 -0.51,0.27 -0.3,0.03 -0.51,-0.18 l -1.32,-1.17 q -0.18,-0.21 -0.15,-0.45 0.03,-0.27 0.18,-0.42 1.23,-1.17 2.22,-2.67 1.02,-1.52999996 1.74,-3.09 0.72,-1.59 1.11,-3.06 0.42,-1.5 0.42,-2.67 0,-0.6 -0.12,-0.78 -0.09,-0.21 -0.63,-0.21 l -3.54,0 q -0.39,0 -0.39,-0.42 l 0,-1.8600004 q 0,-0.36 0.39,-0.36 l 5.43,0 q 1.2,0 1.65,0.51 0.48,0.5100004 0.48,1.6500004 z"
           style="font-style:normal;font-variant:normal;font-weight:600;font-stretch:normal;font-size:30px;font-family:NanumGothic;-inkscape-font-specification:'NanumGothic Semi-Bold';fill:#75614c;fill-opacity:1"
           id="path4212" />
        <path
           d="m 98.69679,4.9564854 q 0,-0.42 0.42,-0.42 l 2.1,0 0,-12.12 -1.86,0 q -0.15,0 -0.33,-0.15 -0.15,-0.15 -0.15,-0.33 l 0,-1.86 q 0,-0.1500004 0.15,-0.3000004 0.18,-0.18 0.33,-0.18 l 12.9,0 q 0.18,0 0.3,0.15 0.15,0.12 0.15,0.3300004 l 0,1.89 q -0.06,0.12 -0.15,0.24 -0.15,0.21 -0.3,0.21 l -1.92,0 0,11.82 q 0.69,-0.06 1.29,-0.15 0.63,-0.09 1.2,-0.18 0.15,-0.03 0.3,0.06 0.18,0.06 0.21,0.21 l 0.27,1.86 q 0.06,0.24 -0.09,0.39 -0.12,0.12 -0.27,0.15 -1.35,0.27 -3.06,0.45 -1.68,0.15 -3.54,0.24 -1.86,0.09 -3.78,0.12 -1.92,0 -3.75,-0.06 -0.18,0 -0.3,-0.12 -0.12,-0.15 -0.12,-0.33 l 0,-1.92 z m 16.62,-17.0100004 q 0,-0.39 0.42,-0.39 l 2.43,0 q 0.42,0 0.42,0.39 l 0,26.19 q 0,0.42 -0.42,0.42 l -2.43,0 q -0.42,0 -0.42,-0.42 l 0,-14.60999956 -2.97,0 q -0.18,0 -0.33,-0.12 -0.12,-0.12 -0.12,-0.27 l 0,-2.07000004 q 0,-0.15 0.12,-0.24 0.15,-0.12 0.33,-0.12 l 2.97,0 0,-8.7600004 z m 8.7,27.24 q 0,0.39 -0.39,0.39 l -2.61,0 q -0.39,0 -0.39,-0.39 l 0,-27.75 q 0,-0.39 0.42,-0.39 l 2.58,0 q 0.39,0 0.39,0.39 l 0,27.75 z m -19.65,-10.6799996 q 0.75,-0.03 1.44,-0.03 0.69,0 1.38,-0.06 l 0,-12 -2.82,0 0,12.09 z"
           style="font-style:normal;font-variant:normal;font-weight:600;font-stretch:normal;font-size:30px;font-family:NanumGothic;-inkscape-font-specification:'NanumGothic Semi-Bold';fill:#75614c;fill-opacity:1"
           id="path4214" />
        <path
           d="m 83.653196,42.756485 q 0,0.99 -0.48,1.5 -0.48,0.51 -1.8,0.51 l -7.29,0 q -1.35,0 -1.83,-0.45 -0.48,-0.45 -0.48,-1.65 l 0,-15.9 q 0,-0.15 0.12,-0.24 0.12,-0.12 0.27,-0.12 l 2.52,0 q 0.15,0 0.27,0.12 0.15,0.09 0.15,0.24 l 0,6.51 5.22,0 0,-6.54 q 0,-0.15 0.12,-0.27 0.12,-0.12 0.27,-0.12 l 2.55,0 q 0.15,0 0.27,0.12 0.12,0.12 0.12,0.27 l 0,7.71 3.09,0 0,-9.03 q 0,-0.39 0.42,-0.39 l 2.46,0 q 0.39,0 0.39,0.39 l 0,26.22 q 0,0.42 -0.39,0.42 l -2.46,0 q -0.42,0 -0.42,-0.42 l 0,-14.31 -3.09,0 0,5.43 z m 12.18,9.93 q 0,0.39 -0.39,0.39 l -2.61,0 q -0.39,0 -0.39,-0.39 l 0,-27.75 q 0,-0.39 0.42,-0.39 l 2.58,0 q 0.39,0 0.39,0.39 l 0,27.75 z m -15.51,-16.68 -5.22,0 0,5.49 q 0,0.51 0.57,0.51 l 4.08,0 q 0.57,0 0.57,-0.51 l 0,-5.49 z"
           style="font-style:normal;font-variant:normal;font-weight:600;font-stretch:normal;font-size:30px;font-family:NanumGothic;-inkscape-font-specification:'NanumGothic Semi-Bold';fill:#75614c;fill-opacity:1"
           id="path4216" />
        <path
           d="m 118.19679,51.636485 q 0,0.42 -0.39,0.42 l -2.46,0 q -0.42,0 -0.42,-0.42 l 0,-15.24 -5.85,0 q -0.15,0 -0.3,-0.12 -0.12,-0.12 -0.12,-0.27 l 0,-2.1 q 0,-0.15 0.12,-0.24 0.15,-0.12 0.3,-0.12 l 5.85,0 0,-8.1 q 0,-0.39 0.42,-0.39 l 2.46,0 q 0.39,0 0.39,0.39 l 0,26.19 z m 5.82,1.05 q 0,0.39 -0.42,0.39 l -2.58,0 q -0.15,0 -0.3,-0.12 -0.12,-0.12 -0.12,-0.27 l 0,-27.75 q 0,-0.15 0.12,-0.27 0.15,-0.12 0.33,-0.12 l 2.55,0 q 0.42,0 0.42,0.39 l 0,27.75 z m -10.62,-9.27 q 0.03,0.21 -0.12,0.33 -0.15,0.09 -0.36,0.15 -1.08,0.3 -2.37,0.51 -1.26,0.18 -2.61,0.3 -1.32,0.09 -2.64,0.12 -1.32,0 -2.49,-0.06 -1.08,-0.06 -1.65,-0.63 -0.57,-0.6 -0.57,-1.62 l 0,-15.51 q 0,-0.15 0.12,-0.27 0.15,-0.15 0.33,-0.15 l 2.49,0 q 0.18,0 0.33,0.15 0.15,0.12 0.15,0.27 l 0,14.37 q 0,0.45 0.54,0.48 0.72,0.06 1.71,0.06 0.99,-0.03 2.07,-0.09 1.08,-0.09 2.16,-0.24 1.11,-0.15 2.01,-0.36 0.15,-0.03 0.33,0.03 0.21,0.06 0.27,0.27 l 0.3,1.89 z"
           style="font-style:normal;font-variant:normal;font-weight:600;font-stretch:normal;font-size:30px;font-family:NanumGothic;-inkscape-font-specification:'NanumGothic Semi-Bold';fill:#75614c;fill-opacity:1"
           id="path4218" />
      </g>
    </g>
  </g>
</svg>
