<?xml version="1.0" encoding="UTF-8" standalone="no"?>
<!-- Created with Inkscape (http://www.inkscape.org/) -->

<svg
   xmlns:dc="http://purl.org/dc/elements/1.1/"
   xmlns:cc="http://creativecommons.org/ns#"
   xmlns:rdf="http://www.w3.org/1999/02/22-rdf-syntax-ns#"
   xmlns:svg="http://www.w3.org/2000/svg"
   xmlns="http://www.w3.org/2000/svg"
   xmlns:sodipodi="http://sodipodi.sourceforge.net/DTD/sodipodi-0.dtd"
   xmlns:inkscape="http://www.inkscape.org/namespaces/inkscape"
   width="197.55556mm"
   height="197.55556mm"
   viewBox="0 0 700.00001 700"
   id="svg4739"
   version="1.1"
   inkscape:version="0.91 r13725"
   sodipodi:docname="cafebene_inkscape.svg">
  <defs
     id="defs4741" />
  <sodipodi:namedview
     id="base"
     pagecolor="#ffffff"
     bordercolor="#666666"
     borderopacity="1.0"
     inkscape:pageopacity="0.0"
     inkscape:pageshadow="2"
     inkscape:zoom="0.35"
     inkscape:cx="-79.28571"
     inkscape:cy="351.42857"
     inkscape:document-units="px"
     inkscape:current-layer="layer1"
     showgrid="false"
     fit-margin-top="0"
     fit-margin-left="0"
     fit-margin-right="0"
     fit-margin-bottom="0"
     inkscape:window-width="1280"
     inkscape:window-height="756"
     inkscape:window-x="55"
     inkscape:window-y="1"
     inkscape:window-maximized="1" />
  <metadata
     id="metadata4744">
    <rdf:RDF>
      <cc:Work
         rdf:about="">
        <dc:format>image/svg+xml</dc:format>
        <dc:type
           rdf:resource="http://purl.org/dc/dcmitype/StillImage" />
        <dc:title></dc:title>
      </cc:Work>
    </rdf:RDF>
  </metadata>
  <g
     inkscape:label="Layer 1"
     inkscape:groupmode="layer"
     id="layer1"
     transform="translate(-37.142853,-183.79077)">
    <g
       id="g5339">
      <circle
         r="350"
         cy="533.79077"
         cx="387.14285"
         id="path5337"
         style="color:#000000;clip-rule:nonzero;display:inline;overflow:visible;visibility:visible;opacity:1;isolation:auto;mix-blend-mode:normal;color-interpolation:sRGB;color-interpolation-filters:linearRGB;solid-color:#000000;solid-opacity:1;fill:#ffffff;fill-opacity:1;fill-rule:nonzero;stroke:none;stroke-width:0;stroke-linecap:butt;stroke-linejoin:miter;stroke-miterlimit:4;stroke-dasharray:none;stroke-dashoffset:0;stroke-opacity:1;color-rendering:auto;image-rendering:auto;shape-rendering:auto;text-rendering:auto;enable-background:accumulate" />
      <g
         id="g4684"
         transform="matrix(1.25,0,0,-1.25,-119.69657,747.93897)">
        <path
           inkscape:connector-curvature="0"
           id="path26"
           style="fill:#75614c;fill-opacity:1;fill-rule:nonzero;stroke:none"
           d="m 421.9102,193.3086 0.008,0 -0.008,0 z m 2.582,56.393 c -0.957,-2.493 -1.273,-9.532 -1.264,-9.555 -0.088,-1.699 -0.22,-4.149 -0.332,-6.197 2.662,6.277 2.94,12.761 2.935,15.009 0,0.373 -0.007,0.621 -0.011,0.743 -0.25,0.918 -0.478,0.859 -0.508,0.869 -0.006,0.002 -0.012,0.002 -0.02,0.002 -0.134,0 -0.592,-0.282 -0.8,-0.871 m 25.109,-21.454 c 3.618,4.065 6.454,7.43 6.887,7.944 0.297,0.543 0.852,1.185 0.873,1.263 0.504,0.932 0.832,1.653 1.031,2.163 -0.402,-0.319 -0.863,-0.746 -1.296,-1.174 -0.913,-0.897 -1.694,-1.785 -1.67,-1.756 -0.647,-0.809 -3.227,-4.588 -5.825,-8.44 m -20.861,0.916 c -0.123,-2.964 -0.178,-5.515 -0.189,-7.697 0.721,1.432 1.393,3.428 1.683,5.371 0.277,1.662 0.351,3.336 0.351,4.594 0,1.213 -0.066,2.025 -0.063,2.047 -0.085,0.428 -0.19,0.73 -0.278,0.912 -0.018,0.037 -0.033,0.066 -0.047,0.09 -0.064,-0.057 -0.146,-0.145 -0.229,-0.258 -0.244,-0.324 -0.509,-0.848 -0.703,-1.434 -0.48,-1.404 -0.528,-3.248 -0.525,-3.541 l 0,-0.005 0,-0.024 0,-0.055 z m -12.437,-9.974 c -0.24,5.463 -0.924,10.512 -0.926,10.525 -0.608,4.201 -1.68,4.215 -1.801,4.201 -0.057,0 -0.107,-0.009 -0.146,-0.021 -1.418,-1.361 -1.931,-3.629 -1.924,-5.988 -0.007,-3.664 1.2,-7.28 1.203,-7.28 0.823,-2.388 1.642,-2.82 1.908,-2.765 0.32,-0.088 1.011,0.47 1.686,1.328 m 18.494,-2.24 3.07,6.316 c 1.646,3.52 2.16,5.727 2.154,6.971 -0.111,1.814 -0.661,1.521 -1.146,1.658 -0.165,0 -0.233,-0.018 -0.314,-0.031 -0.272,0.013 -0.911,-0.543 -1.429,-1.717 -0.529,-1.133 -0.971,-2.697 -1.305,-4.258 -0.667,-3.094 -0.932,-6.15 -0.934,-6.16 -0.02,-1.049 -0.053,-1.971 -0.096,-2.779 m 13.231,2.24 c -1.084,-1.369 -2.085,-2.733 -2.895,-3.877 1.156,0.629 2.58,1.625 3.798,2.652 2.094,1.703 3.821,3.41 3.834,3.422 2.459,2.715 3.014,4.205 2.967,4.529 0.004,0.016 0.006,0.026 0.006,0.034 -0.043,0.015 -0.148,0.033 -0.191,0.031 l 0,0.318 -0.004,-0.318 -0.023,0 c -1.403,0 -4.88,-3.371 -7.492,-6.791 m -20.389,-16.381 c 1.425,1.123 2.937,2.139 4.314,2.711 0,0.008 1.977,0.814 4.194,2.211 2.222,1.385 4.617,3.383 5.433,5.447 l 0.029,0.074 0.045,0.071 c 0,0.002 0.033,0.052 0.095,0.148 -0.057,0.055 -0.11,0.115 -0.16,0.18 -0.414,0.531 -0.556,1.195 -0.556,1.969 10e-4,0.312 0.024,0.648 0.072,1.011 -0.558,-0.551 -1.105,-1.078 -1.636,-1.576 -2.344,-2.158 -4.211,-3.758 -5.745,-4.32 l -0.948,-1.949 c -0.012,-0.032 -0.246,-0.637 -0.657,-1.299 -0.429,-0.614 -0.935,-1.477 -2.135,-1.561 -0.222,0 -0.422,0.045 -0.623,0.121 -0.226,0.055 -0.849,0.385 -1.066,0.907 -0.236,0.476 -0.401,1.07 -0.779,2.324 -0.029,0.101 -0.55,2.056 -0.69,8.138 -0.102,-0.017 -0.207,-0.027 -0.321,-0.029 -1.089,0.01 -2.12,0.822 -2.991,2.641 -0.663,1.369 -1.319,3.392 -1.936,6.431 l -1.148,-3.119 c -0.01,-0.023 -0.627,-1.717 -1.595,-3.453 -0.241,-0.402 -0.489,-0.818 -0.756,-1.221 0.036,-0.984 0.059,-1.98 0.059,-2.959 0,-0.046 -10e-4,-0.093 -10e-4,-0.138 0.384,0.181 0.817,0.31 1.298,0.34 0.948,0.023 1.885,-0.651 2.387,-1.778 0.535,-1.134 0.869,-2.795 0.988,-5.281 0.003,-0.023 0.051,-0.469 0.051,-1.184 10e-4,-0.937 -0.081,-2.396 -0.502,-3.978 0.653,0.129 1.31,0.209 1.951,0.215 l 0.021,0 c 1.172,0 2.37,-0.278 3.308,-1.094 m -12.934,4.574 c -1.14,-2.324 -1.697,-4.131 -1.756,-4.988 0.029,0.035 0.06,0.074 0.09,0.115 0.236,0.311 0.504,0.752 0.746,1.188 0.481,0.873 0.863,1.726 0.91,1.816 0.334,0.541 0.865,2.193 1.242,4.422 -0.686,-1.357 -1.226,-2.541 -1.232,-2.553 m 0.441,-9.178 c 0.099,0.02 0.2,0.04 0.291,0.061 0.225,0.055 0.401,0.106 0.38,0.102 1.421,0.539 2.466,1.388 3.233,2.379 -1.389,-0.62 -2.372,-1.206 -2.382,-1.208 -0.729,-0.546 -1.227,-1.009 -1.522,-1.334 m 6.772,-4.896 c 0.021,0 0.018,0 0,0 0.219,0.002 0.694,0.182 1.055,0.4 0.37,0.207 0.629,0.411 0.592,0.383 2.988,2.606 3.581,4.494 3.583,5.621 0,0.133 -0.008,0.262 -0.023,0.379 -0.224,-0.195 -0.444,-0.392 -0.657,-0.584 -1.921,-1.736 -3.341,-3.265 -3.318,-3.234 -1.23,-1.449 -1.544,-2.41 -1.523,-2.731 0.047,-0.285 -0.018,-0.154 0.26,-0.234 l 0.023,0 0.008,0 z m -0.031,-1.752 c -0.45,0 -0.938,0.121 -1.35,0.465 -0.417,0.34 -0.674,0.922 -0.664,1.521 0.02,1.075 0.598,2.245 1.967,3.891 0.033,0.018 1.955,2.115 4.412,4.23 -0.496,0.331 -1.143,0.485 -1.942,0.485 -0.814,0.006 -1.737,-0.17 -2.653,-0.434 -0.913,-1.992 -2.501,-3.912 -5.246,-5 -0.044,-0.006 -0.85,-0.297 -1.687,-0.306 -0.198,0 -0.396,0.015 -0.623,0.08 -0.431,0.082 -1.068,0.603 -1.041,1.3 0.121,1.184 0.923,1.84 2.626,3.202 0.048,0.011 2.111,1.297 4.665,2.154 0.625,1.709 0.754,3.434 0.756,4.521 0,0.637 -0.041,0.995 -0.047,1.053 -0.107,2.41 -0.452,3.891 -0.823,4.654 -0.403,0.774 -0.606,0.758 -0.802,0.784 -0.259,0.023 -0.816,-0.272 -1.241,-0.662 -0.04,-0.034 -0.077,-0.069 -0.114,-0.104 -0.236,-4.17 -1.115,-7.424 -1.828,-8.676 -0.006,-0.013 -0.405,-0.914 -0.934,-1.867 -0.613,-0.961 -0.974,-1.949 -2.133,-2.41 -0.156,-0.041 -0.314,-0.065 -0.486,-0.065 -0.445,-0.023 -0.977,0.25 -1.211,0.651 -0.242,0.389 -0.293,0.787 -0.296,1.197 0.017,1.361 0.671,3.291 1.925,5.906 0.01,0.022 1.607,3.537 2.927,5.618 l 0.293,-0.188 0.003,0.053 -0.256,0.195 c 0.025,0.006 0.119,0.133 0.277,0.324 0.009,0.237 0.014,0.477 0.016,0.717 0.004,0.295 0.008,0.58 0.008,0.861 0,0.348 -0.004,0.698 -0.009,1.047 -0.507,-0.361 -1.083,-0.599 -1.759,-0.646 -1.607,0.056 -2.693,1.428 -3.57,3.955 -0.014,0.047 -1.291,3.809 -1.298,7.844 0.007,2.627 0.536,5.461 2.586,7.369 l 0.06,0.056 0.068,0.041 c 0.081,0.047 0.472,0.293 1.113,0.297 1.463,-0.015 3.014,-1.381 3.539,-5.722 0.003,-0.014 0.491,-3.596 0.792,-8.037 0.542,1.127 0.875,2.033 0.878,2.035 l 2.185,5.945 c -0.008,0.053 -0.016,0.106 -0.025,0.158 l -0.014,0.084 0.004,0.098 c 0.004,0.012 0.362,6.558 0.539,9.996 0.018,0.051 0.244,6.992 1.376,10.088 0.421,1.092 1.271,1.969 2.462,2.01 1.122,0.005 1.989,-0.981 2.239,-2.313 l 0.016,-0.072 0.003,-0.074 c 0,-0.014 0.014,-0.334 0.014,-0.907 -0.006,-2.783 -0.356,-11.439 -4.732,-19.035 l -0.077,-0.209 c 0.742,-4.668 1.58,-7.414 2.317,-8.922 0.793,-1.601 1.33,-1.664 1.413,-1.654 0.074,0 0.159,0.033 0.24,0.088 0.022,0.014 0.038,0.027 0.052,0.037 -0.003,0.418 -0.006,0.848 -0.006,1.299 0,2.385 0.055,5.234 0.193,8.611 l 0,0.045 c 0.007,0.246 0.003,2.281 0.617,4.131 0.563,1.4 1.076,2.762 2.653,2.963 1.248,-0.098 1.709,-1.16 2.006,-2.59 0,-0.019 0.078,-0.926 0.078,-2.291 0,-1.326 -0.074,-3.082 -0.371,-4.883 -0.592,-3.261 -1.703,-6.486 -3.405,-8.082 0.047,-3.07 0.188,-5.17 0.327,-6.541 0.167,-1.66 0.316,-2.183 0.313,-2.166 0.37,-1.263 0.585,-1.881 0.664,-2.021 0.019,-0.01 0.053,-0.026 0.12,-0.053 0.006,0.012 0.037,0 0.167,0.121 0.149,0.131 0.327,0.363 0.48,0.609 0.309,0.493 0.507,1.006 0.539,1.071 l 0.349,0.72 -0.225,-0.048 0.932,1.502 0.223,0.459 c 0.055,0.187 0.133,0.502 0.214,0.982 0.192,1.121 0.411,3.15 0.478,6.715 0.015,0.051 0.574,7.084 2.394,11.068 0.627,1.307 1.39,2.483 2.715,2.701 0.047,0.012 0.275,0.063 0.623,0.063 0.463,0 1.189,-0.09 1.842,-0.637 0.653,-0.541 1.068,-1.494 1.057,-2.775 -0.007,-1.688 -0.62,-4.065 -2.323,-7.727 l -4.319,-8.881 c 0.91,0.692 1.999,1.623 3.135,2.707 1.149,1.077 2.385,2.305 3.656,3.61 l 0.004,0.011 0.07,0.102 c 0.017,0.023 10.495,15.76 12.087,17.754 0.007,0.008 0.815,0.932 1.779,1.881 1.047,0.949 1.889,1.931 3.056,2.162 0.056,0.01 0.131,0.016 0.218,0.016 0.216,0.003 0.571,-0.04 0.88,-0.323 0.311,-0.291 0.402,-0.691 0.399,-1.004 -0.031,-0.863 -0.436,-1.863 -1.508,-3.912 -0.223,-0.39 -0.725,-0.994 -0.869,-1.258 l -0.004,0 -0.051,-0.13 -0.094,-0.112 c -0.011,-0.011 -7.564,-9.027 -14.417,-16.109 -0.491,-1.561 -0.69,-2.695 -0.687,-3.404 0.025,-0.219 0.045,-0.387 0.063,-0.514 0.915,1.328 2.274,3.24 3.801,5.172 2.852,3.49 5.897,7.101 8.721,7.445 0.031,0.006 0.092,0.01 0.176,0.01 0.199,-0.004 0.584,-0.01 1.038,-0.244 0.463,-0.211 0.931,-0.852 0.901,-1.573 -0.048,-1.306 -0.888,-2.828 -3.449,-5.736 -0.01,-0.012 -1.801,-1.783 -3.998,-3.574 -2.17,-1.713 -4.507,-3.508 -6.56,-3.701 -0.161,-0.241 -0.269,-0.408 -0.318,-0.485 -2.33,-5.279 -10.486,-8.443 -10.544,-8.523 -1.172,-0.473 -2.613,-1.453 -4.004,-2.561 0.164,-0.437 0.287,-0.98 0.289,-1.623 0,-1.799 -0.98,-4.162 -4.218,-6.974 -0.081,-0.024 -1.247,-1.075 -2.741,-1.184 -0.056,0 -0.056,0.002 -0.056,0.002" />
        <path
           inkscape:connector-curvature="0"
           id="path30"
           style="fill:#75614c;fill-opacity:1;fill-rule:nonzero;stroke:none"
           d="m 432.8613,201.5625 c -0.436,0.609 -0.523,1.285 -0.525,1.869 0.002,1.088 0.332,1.998 0.345,2.047 l 0.004,-0.002 1.655,-0.576 c 0.013,-0.006 -0.256,-0.762 -0.252,-1.469 0.124,-0.832 0.009,-1.027 0.949,-1.105 0.687,-0.006 2.002,0.34 3.955,1.394 0.004,0.004 1.871,1.153 3.73,2.613 1.887,1.387 3.621,3.403 3.477,3.915 -0.027,0.123 0.031,0.127 -0.252,0.312 l -0.011,-0.004 c -0.091,0.018 -0.273,0.047 -0.576,0.047 -0.684,0 -1.961,-0.141 -4.087,-0.828 l -0.539,1.672 c 2.254,0.724 3.703,0.908 4.626,0.908 0.822,0.006 1.23,-0.15 1.401,-0.238 0.715,-0.362 1.217,-1.116 1.19,-1.869 -0.145,-2.065 -2.221,-3.69 -4.147,-5.295 -1.951,-1.532 -3.875,-2.717 -3.939,-2.752 -2.133,-1.141 -3.629,-1.619 -4.828,-1.627 l -0.07,0 c -0.901,0 -1.682,0.383 -2.106,0.988" />
        <path
           inkscape:connector-curvature="0"
           id="path34"
           style="fill:#75614c;fill-opacity:1;fill-rule:nonzero;stroke:none"
           d="m 427.7344,210.2344 1.145,0.949 c 0.269,-0.31 0.492,-0.386 0.832,-0.396 0.591,-0.02 1.517,0.451 2.221,0.978 0.714,0.524 1.216,1.039 1.216,1.041 l 0.004,-0.002 1.066,-1.031 c -0.08,-0.018 -2.148,-2.389 -4.507,-2.475 l -0.035,0 c -0.69,0 -1.432,0.303 -1.942,0.936" />
        <path
           inkscape:connector-curvature="0"
           id="path38"
           style="fill:#75614c;fill-opacity:1;fill-rule:nonzero;stroke:none"
           d="m 413.0947,222.8203 -0.608,3.838 c -0.065,0.404 0.211,0.785 0.615,0.851 0.406,0.065 0.787,-0.214 0.851,-0.619 l 0.608,-3.838 c 0.068,-0.406 -0.211,-0.787 -0.615,-0.851 -0.04,-0.006 -0.081,-0.01 -0.122,-0.01 -0.358,0 -0.671,0.262 -0.729,0.629" />
        <path
           inkscape:connector-curvature="0"
           id="path42"
           style="fill:#75614c;fill-opacity:1;fill-rule:nonzero;stroke:none"
           d="m 424.2559,241.248 c -0.309,0.029 -0.537,0.297 -0.514,0.602 l 0.211,2.652 c 0.025,0.307 0.293,0.535 0.602,0.512 0.306,-0.024 0.535,-0.291 0.511,-0.598 l -0.212,-2.652 c -0.022,-0.293 -0.268,-0.518 -0.555,-0.518 -0.014,0 -0.027,0.002 -0.043,0.002" />
        <path
           inkscape:connector-curvature="0"
           id="path46"
           style="fill:#75614c;fill-opacity:1;fill-rule:nonzero;stroke:none"
           d="m 413.6895,204.0645 c -0.191,0.078 -0.286,0.293 -0.212,0.482 l 0.806,2.061 c 0.078,0.191 0.293,0.285 0.481,0.211 0.193,-0.076 0.286,-0.291 0.212,-0.481 l -0.805,-2.06 c -0.059,-0.149 -0.201,-0.238 -0.348,-0.238 -0.044,0 -0.09,0.007 -0.134,0.025" />
        <path
           inkscape:connector-curvature="0"
           id="path50"
           style="fill:#75614c;fill-opacity:1;fill-rule:nonzero;stroke:none"
           d="m 449.3818,219.1113 c -0.296,0.285 -0.306,0.756 -0.021,1.053 l 1.975,2.051 c 0.283,0.296 0.754,0.306 1.051,0.021 0.296,-0.285 0.306,-0.758 0.019,-1.053 l -1.97,-2.052 c -0.147,-0.153 -0.343,-0.229 -0.539,-0.229 -0.185,0 -0.37,0.068 -0.515,0.209" />
        <path
           inkscape:connector-curvature="0"
           id="path54"
           style="fill:#75614c;fill-opacity:1;fill-rule:nonzero;stroke:none"
           d="m 436.5781,223.8789 c -0.395,0.113 -0.626,0.523 -0.515,0.916 l 1.197,4.24 c 0.111,0.395 0.525,0.627 0.919,0.516 0.397,-0.115 0.625,-0.526 0.514,-0.918 l -1.197,-4.238 c -0.092,-0.328 -0.389,-0.543 -0.713,-0.543 -0.068,0 -0.137,0.007 -0.205,0.027" />
        <path
           inkscape:connector-curvature="0"
           id="path58"
           style="fill:#75614c;fill-opacity:1;fill-rule:nonzero;stroke:none"
           d="m 429.3047,226.6113 c -0.305,0.033 -0.527,0.309 -0.494,0.615 l 0.289,2.655 c 0.034,0.304 0.309,0.527 0.615,0.492 0.307,-0.032 0.528,-0.309 0.495,-0.616 l -0.29,-2.652 c -0.031,-0.285 -0.272,-0.498 -0.553,-0.498 -0.021,0 -0.041,0.002 -0.062,0.004" />
        <path
           inkscape:connector-curvature="0"
           id="path62"
           style="fill:#75614c;fill-opacity:1;fill-rule:nonzero;stroke:none"
           d="m 453.7715,233.4707 c -0.245,0.188 -0.293,0.539 -0.107,0.783 l 1.606,2.131 c 0.189,0.246 0.538,0.295 0.784,0.109 0.244,-0.183 0.295,-0.535 0.11,-0.779 l -1.61,-2.133 c -0.109,-0.146 -0.277,-0.222 -0.448,-0.222 -0.116,0 -0.235,0.035 -0.335,0.111" />
        <path
           inkscape:connector-curvature="0"
           id="path66"
           style="fill:#75614c;fill-opacity:1;fill-rule:nonzero;stroke:none"
           d="m 437.627,204.5918 c -0.253,0.324 -0.192,0.793 0.135,1.043 l 3.404,2.637 c 0.324,0.252 0.792,0.191 1.045,-0.133 0.249,-0.326 0.191,-0.793 -0.135,-1.043 l -3.406,-2.637 c -0.135,-0.107 -0.295,-0.156 -0.454,-0.156 -0.222,0 -0.443,0.098 -0.589,0.289" />
        <path
           inkscape:connector-curvature="0"
           id="path70"
           style="fill:#75614c;fill-opacity:1;fill-rule:nonzero;stroke:none"
           d="m 425.7002,194.7207 c -0.253,0.223 -0.28,0.609 -0.054,0.863 l 1.995,2.272 c 0.222,0.254 0.611,0.279 0.864,0.054 0.253,-0.222 0.279,-0.609 0.053,-0.861 l -1.996,-2.273 c -0.119,-0.137 -0.289,-0.209 -0.459,-0.209 -0.144,0 -0.287,0.05 -0.403,0.154" />
        <path
           inkscape:connector-curvature="0"
           id="path170"
           style="fill:#75614c;fill-opacity:1;fill-rule:nonzero;stroke:none"
           d="m 176.3096,177.0957 3.771,0 c 0,0 4.073,-0.314 5.286,-1.012 1.752,-1.078 2.242,-2.541 2.122,-3.568 -0.104,-0.885 -0.304,-3.031 -5.253,-2.83 0,0 -17.239,4.01 -20.269,-10.334 0,0 -1.415,-18.99 4.04,-22.424 0,0 6.263,-6.264 15.96,1.01 0,0 5.286,5.521 9.495,5.656 0,0 6.027,-2.693 -3.03,-9.092 0,0 -11.314,-10.302 -22.223,-5.857 0,0 -11.313,2.625 -11.92,19.596 0,0 -1.379,15.556 4.075,20.808 0,0 4.343,6.295 13.502,7.508 l 4.444,0.539 z" />
        <path
           inkscape:connector-curvature="0"
           id="path174"
           style="fill:#75614c;fill-opacity:1;fill-rule:nonzero;stroke:none"
           d="m 258.0283,155.4785 c 0,0 -15.219,1.818 -15.421,-3.434 0,0 0.202,-3.705 6.263,-3.3 l 10.033,0.267 c 0,0 0.27,-20.402 5.321,-22.221 0,0 6.06,-2.626 4.242,4.85 0,0 -1.212,9.899 -1.414,16.768 0,0 6.242,0.222 9.629,1.252 2.807,0.853 2.932,2.341 2.425,3.964 -0.101,0.327 -0.671,1.315 -3.258,1.592 -3.855,0.414 -10.21,0.061 -10.21,0.061 0,0 -1.414,17.172 2.02,20.404 0,0 6.061,4.443 10.91,0.201 0,0 4.848,-4.445 6.666,-1.414 0,0 2.222,1.414 -4.242,6.465 0,0 -7.071,6.666 -15.96,0.809 0,0 -5.859,-3.84 -7.071,-11.92 l 0.202,-13.334 -0.135,-1.01 z" />
        <path
           inkscape:connector-curvature="0"
           id="path178"
           style="fill:#75614c;fill-opacity:1;fill-rule:nonzero;stroke:none"
           d="m 298.4331,156.2871 c 0,0 -15.219,1.818 -15.421,-3.436 0,0 0.202,-3.703 6.263,-3.298 l 10.033,0.267 c 0,0 0.27,-20.402 5.321,-22.221 0,0 6.06,-2.626 4.242,4.848 0,0 -1.212,9.901 -1.414,16.768 0,0 6.242,0.224 9.629,1.254 2.807,0.851 2.932,2.339 2.425,3.964 -0.101,0.325 -0.671,1.313 -3.258,1.592 -3.855,0.414 -10.21,0.059 -10.21,0.059 0,0 -1.414,17.172 2.02,20.404 0,0 6.061,4.445 10.909,0.203 0,0 4.849,-4.445 6.667,-1.414 0,0 2.222,1.414 -4.243,6.465 0,0 -7.07,6.666 -15.959,0.807 0,0 -5.859,-3.838 -7.071,-11.918 l 0.202,-13.334 -0.135,-1.01 z" />
        <path
           inkscape:connector-curvature="0"
           id="path182"
           style="fill:#75614c;fill-opacity:1;fill-rule:nonzero;stroke:none"
           d="m 383.5522,231.1035 c 0,0 -13.496,-0.479 -7.624,-9.264 0,0 2.896,-3.232 2.896,-6.261 l 0.082,-35.184 c 0,0 -2.829,-2.221 -1.819,-5.252 0,0 -0.202,-1.615 2.828,-3.031 l 0.606,-32.322 c 0,0 1.01,-5.86 6.667,-5.659 0,0 8.283,0.809 5.657,7.073 l -0.606,30.707 c 0,0 16.565,8.283 30.505,3.636 0,0 16.364,-4.242 15.152,-14.949 0,0 0.121,-14.383 -17.051,-22.463 l -15.07,-6.898 c 0,0 -5.487,-1.315 -11.058,-3.002 -3.623,-1.096 -6.734,-2.221 -7.542,-3.838 0,0 -4.849,-8.484 6.464,-8.484 l 12.944,2.798 c 0,0 37.374,14.614 42.425,33.401 0,0 7.273,17.98 -6.061,28.687 0,0 -15.923,13.535 -48.359,6.032 -0.243,-0.057 -0.488,-0.114 -0.733,-0.172 0,0 -2.828,-1.01 -2.828,4.041 l -1.159,34.304 c 0,0 -1.064,5.897 -6.316,6.1" />
        <path
           inkscape:connector-curvature="0"
           id="path186"
           style="fill:#75614c;fill-opacity:1;fill-rule:nonzero;stroke:none"
           d="m 515.0693,168.3418 c -0.776,-4.551 7.787,-7.232 9.966,-3.098 0,0 4.244,9.227 7.744,10.573 0,0 8.89,2.693 9.428,-4.914 l -0.607,-35.557 c 0,0 0.136,-5.557 8.722,-3.84 0,0 2.965,0.301 3.03,4.545 0,0 -1.852,23.537 5.622,33.639 0,0 4.379,6.429 7.712,6.732 0,0 7.844,1.955 9.057,-7.945 l 0.201,-10.504 -0.201,-25.658 c 0,0 -0.335,-4.379 6.534,-3.842 0,0 4.532,-0.322 4.78,3.84 0.069,1.127 -0.538,41.215 -0.538,41.215 0,0 -0.136,11.582 -13.806,14.546 0,0 -14.142,1.414 -21.415,-9.091 0,0 -5.859,9.697 -16.566,8.283 0,0 -11.38,0.066 -17.037,-10.44 0,0 -1.684,-2.963 -2.626,-8.484" />
        <path
           inkscape:connector-curvature="0"
           id="path190"
           style="fill:#75614c;fill-opacity:1;fill-rule:nonzero;stroke:none"
           d="m 220.4253,146.8418 c -1.927,-7.357 -6.057,-12.652 -9.223,-11.822 -3.169,0.83 -4.173,7.467 -2.246,14.826 1.927,7.359 6.057,12.652 9.223,11.822 3.168,-0.83 4.173,-7.465 2.246,-14.826 m 21.584,-9.199 c -1.919,2.726 -6.921,6.879 -8.889,9.722 -1.389,2.004 -3.273,5.29 -4.445,7.778 -1.394,2.961 -2.241,6.531 -3.56,8.711 -3.266,5.396 -12.357,5.32 -16.263,0.859 0,0 -8.889,-8.08 -7.475,-25.051 0,0 1.212,-9.445 7.071,-10.656 0,0 8.283,-3.082 14.142,5.959 l 4.731,8.797 11.077,-8.822 c 0,0 1.392,-0.961 2.222,-0.606 0.222,0.094 0.531,0.287 0.758,0.481 0.184,0.156 0.86,0.767 0.985,0.984 0.296,0.512 0.212,1.039 -0.354,1.844" />
        <path
           inkscape:connector-curvature="0"
           id="path194"
           style="fill:#75614c;fill-opacity:1;fill-rule:nonzero;stroke:none"
           d="m 484.0918,182.4688 c 6.5,2.482 13.196,0.777 14.945,-3.811 1.747,-4.585 -2.105,-10.318 -8.609,-12.796 -6.502,-2.483 -13.193,-0.774 -14.94,3.814 -1.75,4.584 2.103,10.313 8.604,12.793 m 27.407,-38.1 c 0,0 -7.566,-7.293 -16.987,-9.896 -3.482,-0.963 -7.239,-1.527 -10.553,-0.609 -1.818,0.505 -3.504,1.457 -4.936,3.035 0,0 -6.667,7.398 -5.161,17.556 0,0 18.15,-0.189 26.425,4.231 0,0 18.528,7.619 6.018,25.205 -0.292,0.416 -12.695,15.707 -31.692,2.162 0,0 -17.582,-9.885 -10.809,-43.365 0,0 1.446,-6.475 5.926,-11.178 4.479,-4.701 11.264,-9.5 26.619,-6.873 0,0 3.501,0.674 7.606,2.449 4.311,1.865 8.149,5.006 10.509,6.842 2.424,1.889 3.696,3.527 4.444,5.119 2.155,4.578 -2.704,8.459 -7.409,5.322" />
        <path
           inkscape:connector-curvature="0"
           id="path198"
           style="fill:#75614c;fill-opacity:1;fill-rule:nonzero;stroke:none"
           d="m 342.3931,163.123 c 4.173,1.596 8.474,0.5 9.597,-2.447 1.122,-2.944 -1.352,-6.625 -5.529,-8.217 -4.174,-1.594 -8.472,-0.496 -9.594,2.449 -1.123,2.944 1.35,6.623 5.526,8.215 m 17.6,-24.467 c 0,0 -4.859,-4.681 -10.909,-6.353 -2.236,-0.619 -4.649,-0.983 -6.776,-0.391 -1.168,0.324 -2.251,0.936 -3.171,1.949 0,0 -4.282,4.75 -3.314,11.274 0,0 11.655,-0.121 16.969,2.715 0,0 11.898,4.894 3.865,16.187 -0.187,0.268 -8.153,10.088 -20.352,1.389 0,0 -11.289,-6.348 -6.941,-27.848 0,0 0.929,-4.158 3.805,-7.178 2.877,-3.019 7.234,-6.101 17.095,-4.414 0,0 2.248,0.432 4.884,1.574 2.767,1.196 5.233,3.213 6.748,4.393 1.557,1.211 2.374,2.266 2.853,3.287 1.385,2.94 -1.735,5.432 -4.756,3.416" />
        <path
           inkscape:connector-curvature="0"
           id="path202"
           style="fill:#75614c;fill-opacity:1;fill-rule:nonzero;stroke:none"
           d="m 621.4678,182.4688 c 6.5,2.482 13.196,0.777 14.945,-3.811 1.747,-4.585 -2.105,-10.318 -8.609,-12.796 -6.501,-2.483 -13.193,-0.774 -14.94,3.814 -1.75,4.584 2.103,10.313 8.604,12.793 m 27.407,-38.1 c 0,0 -7.566,-7.293 -16.987,-9.896 -3.483,-0.963 -7.239,-1.527 -10.553,-0.609 -1.819,0.505 -3.505,1.457 -4.936,3.035 0,0 -6.667,7.398 -5.161,17.556 0,0 18.15,-0.189 26.425,4.231 0,0 18.528,7.619 6.018,25.205 -0.291,0.416 -12.695,15.707 -31.692,2.162 0,0 -17.581,-9.885 -10.81,-43.365 0,0 1.447,-6.475 5.927,-11.178 4.479,-4.701 11.264,-9.5 26.62,-6.873 0,0 3.5,0.674 7.605,2.449 4.311,1.865 8.149,5.006 10.509,6.842 2.424,1.889 3.696,3.527 4.444,5.119 2.155,4.578 -2.704,8.459 -7.409,5.322" />
        <path
           inkscape:connector-curvature="0"
           id="path206"
           style="fill:#75614c;fill-opacity:1;fill-rule:nonzero;stroke:none"
           d="m 335.6045,169.8906 c 0,0 -2.693,-0.27 0.539,5.117 0,0 8.35,12.123 12.122,11.584 0,0 5.387,-2.424 -1.078,-7.812 0,0 -9.698,-8.35 -11.583,-8.889" />
      </g>
    </g>
  </g>
</svg>
