<?xml version="1.0" encoding="UTF-8" standalone="no"?>
<svg
   xmlns:dc="http://purl.org/dc/elements/1.1/"
   xmlns:cc="http://creativecommons.org/ns#"
   xmlns:rdf="http://www.w3.org/1999/02/22-rdf-syntax-ns#"
   xmlns:svg="http://www.w3.org/2000/svg"
   xmlns="http://www.w3.org/2000/svg"
   version="1.1"
   id="svg6210"
   viewBox="0 0 281.03249 281.035"
   height="79.314323mm"
   width="79.313614mm">
  <defs
     id="defs6212" />
  <metadata
     id="metadata6215">
    <rdf:RDF>
      <cc:Work
         rdf:about="">
        <dc:format>image/svg+xml</dc:format>
        <dc:type
           rdf:resource="http://purl.org/dc/dcmitype/StillImage" />
        <dc:title></dc:title>
      </cc:Work>
    </rdf:RDF>
  </metadata>
  <g
     transform="translate(-13.769464,-526.13043)"
     id="layer1">
    <g
       id="g6049"
       transform="matrix(1.25,0,0,-1.25,-35.343286,1422.3053)">
      <g
         id="g20"
         transform="translate(264.1162,604.5239)">
        <path
           d="m 0,0 c 0,-62.083 -50.32,-112.412 -112.408,-112.412 -62.091,0 -112.418,50.329 -112.418,112.412 0,62.086 50.327,112.416 112.418,112.416 C -50.32,112.416 0,62.086 0,0"
           style="fill:#812990;fill-opacity:1;fill-rule:nonzero;stroke:none"
           id="path22" />
      </g>
      <g
         id="g24"
         transform="translate(137.2593,504.106)">
        <path
           d="m 0,0 c -55.047,7.922 -93.212,59.295 -85.23,114.753 7.976,55.461 59.073,94.004 114.124,86.081 55.044,-7.917 93.21,-59.291 85.224,-114.757 C 106.146,30.624 55.048,-7.925 0,0"
           style="fill:#ffffff;fill-opacity:1;fill-rule:nonzero;stroke:none"
           id="path26" />
      </g>
      <g
         id="g28"
         transform="translate(151.4419,681.6729)">
        <path
           d="m 0,0 c 25.947,17.469 52.232,0.178 52.232,0.178 24.847,-16.732 41.189,-45.12 41.189,-77.327 0,-51.448 -41.71,-93.157 -93.16,-93.157 -51.447,0 -93.154,41.709 -93.154,93.157 0,31.978 16.111,60.191 40.659,76.97 0,0 27.824,-16.259 52.234,0.179"
           style="fill:#812990;fill-opacity:1;fill-rule:nonzero;stroke:none"
           id="path30" />
      </g>
      <g
         id="g32"
         transform="translate(84.2788,601.1772)">
        <path
           d="m 0,0 -9.952,0 c -8.151,0 -12.227,5.653 -12.227,16.962 l 0,0.158 c 0.08,11.275 4.171,16.913 12.269,16.913 l 9.952,0 0,-7.225 -11.093,0 c -1.824,0 -3.182,-0.797 -4.079,-2.387 -0.897,-1.588 -1.346,-4.09 -1.346,-7.509 l 0,-0.416 c 0,-6.182 1.795,-9.272 5.384,-9.272 L 0,7.224 0,0 Z"
           style="fill:#ffffff;fill-opacity:1;fill-rule:nonzero;stroke:none"
           id="path34" />
      </g>
      <g
         id="g36"
         transform="translate(84.2788,609.1631)">
        <path
           d="m 0,0 -11.092,0 c -1.144,0 -4.623,0 -4.623,8.51 l 0,0.416 c 0,3.269 0.42,5.669 1.248,7.136 0.759,1.345 1.876,2 3.416,2 l 11.093,0 0.76,0 0,0.76 0,7.225 0,0.76 -0.76,0 -9.952,0 c -8.563,0 -12.946,-5.945 -13.029,-17.666 l 0,-0.164 c 0,-11.762 4.369,-17.725 12.987,-17.725 l 9.952,0 0.762,0 0,0.762 0,7.224 L 0.762,0 0,0 Z m 0,-7.228 -9.952,0 c -7.716,0 -11.467,5.301 -11.467,16.205 l 0,0.157 C -21.341,20 -17.577,25.286 -9.91,25.286 l 9.952,0 -0.76,0.761 0,-7.225 0.76,0.76 -11.093,0 c -2.107,0 -3.703,-0.933 -4.741,-2.771 -0.972,-1.722 -1.444,-4.301 -1.444,-7.885 l 0,-0.416 c 0,-6.657 2.068,-10.031 6.144,-10.031 l 11.092,0 -0.76,0.759 0,-7.224 0.76,0.758 z"
           style="fill:#ffffff;fill-opacity:1;fill-rule:nonzero;stroke:none"
           id="path38" />
      </g>
      <g
         id="g40"
         transform="translate(98.5806,627.9854)">
        <path
           d="m 0,0 c -1.835,0 -3.206,-0.797 -4.112,-2.387 -0.903,-1.588 -1.355,-4.09 -1.355,-7.509 0,-6.459 1.807,-9.688 5.425,-9.688 l 4.358,0 c 3.619,0 5.428,3.229 5.428,9.688 0,3.419 -0.455,5.921 -1.358,7.509 C 7.48,-0.797 6.11,0 4.275,0 L 0,0 Z m 1.155,7.225 1.967,0 c 8.134,0 12.243,-5.639 12.326,-16.913 l 0,-0.158 c 0,-11.309 -4.097,-16.962 -12.287,-16.962 l -2.047,0 c -8.191,0 -12.284,5.653 -12.284,16.962 l 0,0.158 c 0.026,5.516 1.063,9.688 3.11,12.516 2.103,2.929 5.175,4.397 9.215,4.397"
           style="fill:#ffffff;fill-opacity:1;fill-rule:nonzero;stroke:none"
           id="path42" />
      </g>
      <g
         id="g44"
         transform="translate(89.9038,631.2583)">
        <path
           d="m 0,0 c -2.131,-2.946 -3.228,-7.305 -3.254,-12.958 l 0,-0.161 c 0,-11.761 4.389,-17.724 13.045,-17.724 l 2.046,0 c 8.659,0 13.047,5.963 13.047,17.724 l 0,0.158 C 24.799,-1.233 20.397,4.711 11.799,4.711 l -1.967,0 C 5.552,4.711 2.245,3.125 0,0 m 9.832,3.19 1.967,0 c 7.701,0 11.484,-5.285 11.565,-16.157 l 0,-0.152 c 0,-10.903 -3.77,-16.204 -11.527,-16.204 l -2.046,0 c -7.754,0 -11.523,5.301 -11.523,16.204 l 0,0.158 c 0.024,5.323 1.023,9.386 2.965,12.069 1.973,2.749 4.785,4.082 8.599,4.082"
           style="fill:#ffffff;fill-opacity:1;fill-rule:nonzero;stroke:none"
           id="path46" />
      </g>
      <g
         id="g48"
         transform="translate(102.8555,627.2246)">
        <path
           d="m 0,0 c 1.553,0 2.682,-0.655 3.45,-2.002 0.836,-1.469 1.258,-3.869 1.258,-7.133 0,-8.927 -3.513,-8.927 -4.667,-8.927 l -4.358,0 c -1.154,0 -4.663,0 -4.663,8.927 0,3.268 0.421,5.668 1.254,7.133 C -6.958,-0.655 -5.83,0 -4.275,0 L 0,0 Z m -4.275,1.52 c -2.121,0 -3.726,-0.931 -4.772,-2.769 -0.979,-1.722 -1.454,-4.303 -1.454,-7.886 0,-6.933 2.081,-10.447 6.184,-10.447 l 4.358,0 c 4.105,0 6.189,3.514 6.189,10.447 0,3.581 -0.477,6.16 -1.458,7.885 C 3.726,0.589 2.119,1.52 0,1.52 l -4.275,0 z"
           style="fill:#ffffff;fill-opacity:1;fill-rule:nonzero;stroke:none"
           id="path50" />
      </g>
      <g
         id="g52"
         transform="translate(137.9277,635.21)">
        <path
           d="m 0,0 0,-7.225 -8.972,0 c -1.687,0 -3.06,-0.523 -4.121,-1.563 -1.059,-1.04 -1.699,-2.545 -1.915,-4.521 l 15.008,0 0,-7.226 -15.008,0 0,-13.498 -5.704,0 0,19.188 c 0,2.276 0.249,4.328 0.749,6.155 0.498,1.827 1.241,3.386 2.225,4.679 0.983,1.293 2.216,2.284 3.692,2.974 1.48,0.689 3.212,1.037 5.197,1.037 L 0,0 Z"
           style="fill:#ffffff;fill-opacity:1;fill-rule:nonzero;stroke:none"
           id="path54" />
      </g>
      <g
         id="g56"
         transform="translate(129.0786,635.9697)">
        <path
           d="m 0,0 c -2.083,0 -3.939,-0.373 -5.517,-1.108 -1.585,-0.739 -2.924,-1.816 -3.976,-3.202 -1.041,-1.366 -1.831,-3.029 -2.355,-4.939 -0.514,-1.884 -0.776,-4.022 -0.776,-6.356 l 0,-19.187 0,-0.763 0.761,0 5.704,0 0.761,0 0,0.763 0,13.498 -0.761,-0.761 15.008,0 0.76,0 0,0.761 0,7.225 0,0.76 -0.76,0 -15.008,0 0.756,-0.843 c 0.196,1.787 0.765,3.153 1.691,4.061 0.925,0.906 2.098,1.346 3.589,1.346 l 8.972,0 0.76,0 0,0.761 0,7.224 0,0.76 L 8.849,0 0,0 Z m 8.089,-0.76 0,-7.224 0.76,0.759 -8.972,0 c -1.881,0 -3.447,-0.598 -4.651,-1.779 -1.186,-1.162 -1.905,-2.837 -2.142,-4.981 l -0.091,-0.845 0.848,0 15.008,0 -0.76,0.761 0,-7.225 0.76,0.76 -15.008,0 -0.76,0 0,-0.76 0,-13.498 0.76,0.758 -5.704,0 0.76,-0.758 0,19.187 c 0,2.198 0.243,4.203 0.722,5.955 0.471,1.721 1.175,3.209 2.096,4.418 0.905,1.188 2.052,2.112 3.411,2.745 1.373,0.641 3.014,0.966 4.874,0.966 l 8.849,0 -0.76,0.761 z"
           style="fill:#ffffff;fill-opacity:1;fill-rule:nonzero;stroke:none"
           id="path58" />
      </g>
      <g
         id="g60"
         transform="translate(171.6309,649.0889)">
        <path
           d="m 0,0 0,-10.362 -12.779,0 c -2.401,0 -4.358,-0.734 -5.869,-2.196 -1.509,-1.461 -2.42,-3.582 -2.729,-6.359 l 21.377,0 0,-10.362 -21.473,0 0,-19.11 -8.175,0 0,27.283 c 0,3.234 0.362,6.151 1.085,8.751 0.724,2.6 1.799,4.815 3.225,6.654 1.429,1.839 3.201,3.25 5.317,4.23 C -17.905,-0.49 -15.433,0 -12.605,0 L 0,0 Z"
           style="fill:#ffffff;fill-opacity:1;fill-rule:nonzero;stroke:none"
           id="path62" />
      </g>
      <g
         id="g64"
         transform="translate(159.0259,649.8491)">
        <path
           d="m 0,0 c -2.927,0 -5.527,-0.518 -7.734,-1.54 -2.215,-1.026 -4.1,-2.523 -5.598,-4.455 -1.483,-1.909 -2.611,-4.235 -3.358,-6.916 -0.74,-2.658 -1.114,-5.671 -1.114,-8.956 l 0,-27.282 0,-0.758 0.761,0 8.175,0 0.762,0 0,0.758 0,19.11 -0.762,-0.761 21.473,0 0.761,0 0,0.761 0,10.361 0,0.761 -0.761,0 -21.377,0 0.756,-0.845 c 0.286,2.583 1.129,4.567 2.503,5.898 1.377,1.334 3.123,1.981 5.339,1.981 l 12.779,0 0.761,0 0,0.76 0,10.363 0,0.76 L 12.605,0 0,0 Z m 11.844,-0.76 0,-10.363 0.761,0.761 -12.779,0 c -2.594,0 -4.746,-0.81 -6.397,-2.409 -1.636,-1.583 -2.63,-3.879 -2.957,-6.823 l -0.094,-0.845 0.85,0 21.377,0 -0.761,0.761 0,-10.361 0.761,0.759 -21.473,0 -0.761,0 0,-0.759 0,-19.11 0.761,0.762 -8.175,0 0.761,-0.762 0,27.282 c 0,3.147 0.355,6.023 1.056,8.548 0.692,2.487 1.735,4.639 3.096,6.391 1.348,1.737 3.043,3.085 5.035,4.007 2.005,0.93 4.393,1.4 7.095,1.4 l 12.605,0 -0.761,0.761 z"
           style="fill:#ffffff;fill-opacity:1;fill-rule:nonzero;stroke:none"
           id="path66" />
      </g>
      <path
         d="m 175.461,635.21 5.705,0 0,-34.033 -5.705,0 0,34.033 z"
         style="fill:#ffffff;fill-opacity:1;fill-rule:nonzero;stroke:none"
         id="path68" />
      <g
         id="g70"
         transform="translate(181.9263,601.1772)">
        <path
           d="m 0,0 0,34.033 0,0.759 -0.761,0 -5.704,0 -0.759,0 0,-0.759 0,-34.033 0,-0.762 0.759,0 5.704,0 0.761,0 L 0,0 Z m -5.705,0 0,34.033 -0.76,-0.762 5.704,0 -0.76,0.762 0,-34.033 0.76,0.758 -5.704,0 L -5.705,0 Z"
           style="fill:#ffffff;fill-opacity:1;fill-rule:nonzero;stroke:none"
           id="path72" />
      </g>
      <g
         id="g74"
         transform="translate(211.8335,610.2705)">
        <path
           d="m 0,0 c 0,-1.307 -0.183,-2.502 -0.552,-3.582 -0.369,-1.085 -0.88,-2.004 -1.532,-2.761 -0.655,-0.758 -1.424,-1.341 -2.31,-1.753 -0.884,-0.413 -1.831,-0.618 -2.841,-0.618 -1.472,0 -2.8,0.586 -3.985,1.754 -1.184,1.169 -2.051,2.788 -2.594,4.854 l -4.947,18.582 c -0.111,0.858 -0.423,1.289 -0.938,1.289 -0.875,0 -1.309,-0.69 -1.309,-2.065 l 0,-24.793 -5.989,0 0,25.387 c 0,1.311 0.182,2.508 0.551,3.595 0.368,1.085 0.879,2.008 1.532,2.765 0.655,0.758 1.425,1.346 2.31,1.76 0.886,0.412 1.831,0.62 2.841,0.62 1.445,0 2.773,-0.585 3.985,-1.755 1.212,-1.171 2.078,-2.79 2.596,-4.855 l -0.042,0 4.988,-18.582 c 0.11,-0.863 0.422,-1.289 0.939,-1.289 0.872,0 1.309,0.685 1.309,2.065 l 0,24.701 5.988,0 L 0,0 Z"
           style="fill:#ffffff;fill-opacity:1;fill-rule:nonzero;stroke:none"
           id="path76" />
      </g>
      <g
         id="g78"
         transform="translate(211.8335,636.3506)">
        <path
           d="m 0,0 -5.988,0 -0.76,0 0,-0.761 0,-24.701 c 0,-1.305 -0.398,-1.305 -0.549,-1.305 -0.011,0 -0.014,0.002 -0.014,0.002 0.007,-0.002 0.017,-0.008 0.022,-0.011 0,0.001 -0.128,0.121 -0.191,0.632 l -0.007,0.054 -0.015,0.05 -4.987,18.581 -0.735,-0.958 0.975,0 c 0.042,0 -0.194,0.947 -0.194,0.947 -0.554,2.196 -1.496,3.949 -2.807,5.214 -1.353,1.309 -2.871,1.971 -4.513,1.971 -1.114,0 -2.178,-0.234 -3.16,-0.693 -0.981,-0.455 -1.844,-1.112 -2.566,-1.951 -0.714,-0.825 -1.278,-1.843 -1.678,-3.017 -0.393,-1.158 -0.592,-2.451 -0.592,-3.84 l 0,-25.387 0,-0.763 0.762,0 5.989,0 0.76,0 0,0.763 0,24.793 c 0,1.304 0.399,1.304 0.549,1.304 0.008,0 0.012,-0.002 0.012,-0.002 -0.006,0.002 -0.017,0.008 -0.024,0.013 0.002,-0.002 0.129,-0.123 0.196,-0.636 l 0.005,-0.051 0.014,-0.049 4.947,-18.582 c 0.576,-2.187 1.517,-3.935 2.794,-5.199 1.329,-1.309 2.85,-1.971 4.52,-1.971 1.12,0 2.184,0.232 3.164,0.688 0.984,0.457 1.844,1.111 2.563,1.948 0.715,0.827 1.279,1.839 1.676,3.008 0.395,1.157 0.593,2.444 0.593,3.829 l 0,25.319 L 0.761,0 0,0 Z m -0.76,-26.08 c 0,-1.219 -0.173,-2.341 -0.513,-3.338 -0.332,-0.984 -0.799,-1.828 -1.387,-2.509 -0.577,-0.669 -1.269,-1.192 -2.054,-1.56 -0.778,-0.363 -1.627,-0.545 -2.521,-0.545 -1.274,0 -2.404,0.5 -3.451,1.532 -1.081,1.069 -1.887,2.587 -2.394,4.507 0,0.003 -4.945,18.585 -4.945,18.585 l 0.02,-0.1 c -0.22,1.699 -1.156,1.954 -1.694,1.954 -0.625,0 -2.069,-0.276 -2.069,-2.826 l 0,-24.793 0.76,0.758 -5.989,0 0.761,-0.758 0,25.387 c 0,1.223 0.171,2.35 0.512,3.351 0.334,0.988 0.802,1.834 1.386,2.513 0.582,0.675 1.274,1.201 2.056,1.566 0.782,0.366 1.63,0.549 2.519,0.549 1.252,0 2.382,-0.504 3.456,-1.542 1.102,-1.065 1.907,-2.577 2.387,-4.492 l 0.738,0.946 -0.993,0 c -0.04,0 0.216,-0.958 0.216,-0.958 l 4.988,-18.583 -0.02,0.104 c 0.215,-1.702 1.153,-1.957 1.694,-1.957 0.622,0 2.069,0.275 2.069,2.827 l 0,24.701 -0.76,-0.76 5.988,0 -0.76,0.76 0,-25.319 z"
           style="fill:#ffffff;fill-opacity:1;fill-rule:nonzero;stroke:none"
           id="path80" />
      </g>
      <g
         id="g82"
         transform="translate(223.0586,614.6753)">
        <path
           d="m 0,0 c -0.625,0 -1.161,-0.303 -1.609,-0.909 -0.448,-0.606 -0.675,-1.347 -0.675,-2.227 0,-0.883 0.227,-1.624 0.675,-2.232 0.448,-0.606 0.997,-0.906 1.651,-0.906 l 14.03,0 0,-7.224 -13.378,0 c -1.603,0 -2.958,0.299 -4.057,0.903 -1.103,0.604 -2.001,1.396 -2.692,2.38 -0.695,0.98 -1.19,2.091 -1.489,3.333 -0.298,1.24 -0.448,2.487 -0.448,3.748 0,1.257 0.203,2.481 0.613,3.669 0.406,1.188 1.154,2.216 2.241,3.078 -1.196,0.897 -1.969,1.939 -2.323,3.132 -0.355,1.187 -0.531,2.646 -0.531,4.369 0,1.726 0.346,3.331 1.04,4.813 0.692,1.482 1.597,2.623 2.711,3.416 1.115,0.793 2.761,1.192 4.935,1.192 l 13.378,0 0,-7.225 -14.072,0 c -0.625,0 -1.161,-0.306 -1.609,-0.913 -0.448,-0.606 -0.675,-1.324 -0.675,-2.157 0,-0.831 0.212,-1.544 0.633,-2.133 C -1.23,7.52 -0.666,7.226 0.042,7.226 l 14.03,0 L 14.072,0 0,0 Z"
           style="fill:#ffffff;fill-opacity:1;fill-rule:nonzero;stroke:none"
           id="path84" />
      </g>
      <g
         id="g86"
         transform="translate(237.8896,614.6753)">
        <path
           d="m 0,0 0,7.226 0,0.759 -0.759,0 -14.03,0 c -0.463,0 -0.794,0.174 -1.076,0.565 -0.327,0.459 -0.488,1.012 -0.488,1.69 0,0.672 0.171,1.23 0.523,1.704 0.402,0.542 0.763,0.605 0.999,0.605 l 14.072,0 0.759,0 0,0.761 0,7.225 0,0.759 -0.759,0 -13.378,0 c -2.325,0 -4.132,-0.448 -5.375,-1.332 -1.218,-0.865 -2.213,-2.114 -2.96,-3.713 -0.737,-1.576 -1.111,-3.303 -1.111,-5.135 0,-1.79 0.187,-3.333 0.561,-4.587 0.4,-1.345 1.273,-2.531 2.597,-3.523 l -0.016,1.205 c -1.197,-0.95 -2.036,-2.102 -2.49,-3.428 -0.433,-1.26 -0.652,-2.577 -0.652,-3.915 0,-1.316 0.158,-2.637 0.469,-3.926 0.322,-1.331 0.862,-2.541 1.607,-3.596 0.757,-1.073 1.747,-1.949 2.947,-2.606 1.208,-0.663 2.695,-0.998 4.423,-0.998 l 13.378,0 0.759,0 0,0.762 0,7.224 0,0.762 -0.759,0 -14.03,0 c -0.257,0 -0.644,0.06 -1.041,0.597 -0.352,0.475 -0.523,1.058 -0.523,1.779 0,0.719 0.171,1.3 0.523,1.774 0.398,0.539 0.761,0.602 0.999,0.602 l 14.072,0 L 0,-0.76 0,0 Z m -14.831,0.761 c -0.602,0 -1.475,-0.211 -2.222,-1.217 -0.545,-0.738 -0.821,-1.639 -0.821,-2.68 0,-1.044 0.276,-1.947 0.821,-2.685 0.589,-0.793 1.371,-1.212 2.264,-1.212 l 14.03,0 -0.76,0.759 0,-7.224 0.76,0.758 -13.378,0 c -1.469,0 -2.711,0.276 -3.693,0.813 -0.995,0.544 -1.813,1.265 -2.433,2.148 -0.637,0.9 -1.098,1.932 -1.372,3.075 -0.283,1.173 -0.428,2.373 -0.428,3.57 0,1.17 0.191,2.321 0.571,3.423 0.357,1.044 1.029,1.962 1.997,2.728 l 0.773,0.612 -0.79,0.593 c -1.072,0.803 -1.743,1.699 -2.051,2.739 -0.332,1.112 -0.5,2.51 -0.5,4.153 0,1.607 0.326,3.117 0.969,4.49 0.634,1.357 1.464,2.406 2.464,3.12 0.978,0.695 2.492,1.049 4.493,1.049 l 13.378,0 -0.76,0.762 0,-7.225 0.76,0.759 -14.072,0 c -0.602,0 -1.475,-0.212 -2.222,-1.219 -0.545,-0.737 -0.821,-1.615 -0.821,-2.61 0,-0.993 0.261,-1.859 0.774,-2.575 0.564,-0.786 1.362,-1.2 2.311,-1.2 l 14.03,0 -0.76,0.761 0,-7.226 0.76,0.761 -14.072,0 z"
           style="fill:#ffffff;fill-opacity:1;fill-rule:nonzero;stroke:none"
           id="path88" />
      </g>
      <g
         id="g90"
         transform="translate(92.8457,553.6797)">
        <path
           d="m 0,0 c -5.097,0 -7.643,3.538 -7.643,10.614 l 0,0.101 c 0.051,7.054 2.611,10.58 7.683,10.58 l 6.238,0 0,-4.517 -6.956,0 c -1.142,0 -1.994,-0.496 -2.556,-1.489 -0.564,-0.996 -0.844,-2.565 -0.844,-4.705 l 0,-0.262 c 0,-3.87 1.12,-5.806 3.363,-5.806 L 2.65,4.549 c 0.375,0 0.693,0.194 0.957,0.586 0.263,0.393 0.395,0.85 0.395,1.37 0,0.52 -0.128,0.977 -0.384,1.37 C 3.362,8.264 3.039,8.462 2.646,8.462 l -2.94,0 0,4.514 3.068,0 c 0.682,0 1.312,-0.178 1.89,-0.531 C 5.241,12.087 5.747,11.614 6.179,11.017 6.611,10.426 6.951,9.755 7.198,9 7.443,8.242 7.567,7.465 7.567,6.666 l 0,-0.321 C 7.567,5.549 7.434,4.763 7.172,4.001 6.908,3.232 6.556,2.551 6.115,1.958 5.672,1.366 5.165,0.894 4.585,0.534 4.009,0.178 3.396,0 2.752,0 L 0,0 Z"
           style="fill:#ffffff;fill-opacity:1;fill-rule:nonzero;stroke:none"
           id="path92" />
      </g>
      <g
         id="g94"
         transform="translate(95.5977,553.3003)">
        <path
           d="m 0,0 c 0.715,0 1.398,0.198 2.033,0.59 0.612,0.377 1.162,0.89 1.635,1.522 0.461,0.621 0.835,1.342 1.112,2.14 0.276,0.811 0.416,1.639 0.416,2.472 l 0,0.321 c 0,0.83 -0.131,1.656 -0.387,2.452 -0.259,0.789 -0.622,1.506 -1.075,2.125 -0.459,0.631 -1.005,1.144 -1.623,1.525 -0.638,0.391 -1.34,0.589 -2.089,0.589 l -3.068,0 -0.381,0 0,-0.381 0,-4.514 0,-0.382 0.381,0 2.941,0 c 0.163,0 0.41,-0.043 0.652,-0.413 C 0.761,7.721 0.871,7.329 0.871,6.885 0.871,6.445 0.758,6.056 0.539,5.73 0.287,5.35 0.052,5.307 -0.102,5.307 c -0.002,0 -3.368,-0.03 -3.368,-0.03 -2.004,0 -2.979,1.772 -2.979,5.424 l 0,0.262 c 0,2.068 0.267,3.587 0.794,4.517 0.493,0.873 1.221,1.299 2.225,1.299 l 6.956,0 0.381,0 0,0.379 0,4.517 0,0.379 -0.381,0 -6.238,0 c -5.298,0 -8.011,-3.685 -8.063,-10.96 l 0,-0.1 C -10.775,3.7 -8.076,0 -2.752,0 L 0,0 Z m -2.752,0.758 c -4.887,0 -7.262,3.351 -7.262,10.236 l 0,0.1 c 0.049,6.863 2.437,10.2 7.302,10.2 l 6.238,0 -0.38,0.381 0,-4.517 0.38,0.38 -6.956,0 c -1.285,0 -2.256,-0.565 -2.887,-1.684 -0.6,-1.059 -0.893,-2.66 -0.893,-4.891 l 0,-0.262 c 0,-4.101 1.26,-6.186 3.743,-6.186 0.004,0 3.369,0.033 3.369,0.033 0.502,0 0.932,0.256 1.268,0.756 0.307,0.453 0.461,0.987 0.461,1.581 0,0.594 -0.15,1.124 -0.447,1.578 -0.411,0.628 -0.928,0.759 -1.289,0.759 l -2.941,0 0.379,-0.381 0,4.514 -0.379,-0.379 3.068,0 c 0.606,0 1.176,-0.161 1.691,-0.477 C 2.245,12.172 2.718,11.726 3.119,11.175 3.526,10.618 3.852,9.973 4.085,9.258 4.316,8.54 4.436,7.795 4.436,7.045 l 0,-0.321 C 4.436,5.975 4.31,5.227 4.061,4.502 3.81,3.776 3.473,3.122 3.057,2.564 2.645,2.011 2.164,1.564 1.635,1.239 1.12,0.919 0.57,0.758 0,0.758 l -2.752,0 z"
           style="fill:#ffffff;fill-opacity:1;fill-rule:nonzero;stroke:none"
           id="path96" />
      </g>
      <g
         id="g98"
         transform="translate(116.7515,561.8672)">
        <path
           d="m 0,0 c 0,-1.229 -0.147,-2.343 -0.444,-3.347 -0.301,-1.004 -0.743,-1.867 -1.33,-2.591 -0.589,-0.722 -1.326,-1.276 -2.211,-1.669 -0.886,-0.382 -1.926,-0.581 -3.118,-0.581 -1.157,0 -2.18,0.202 -3.067,0.602 -0.886,0.396 -1.632,0.953 -2.234,1.668 -0.607,0.708 -1.067,1.567 -1.382,2.571 -0.315,1.004 -0.473,2.109 -0.473,3.316 l 0,13.139 3.564,0 0,-13.087 c 0,-1.079 0.322,-1.965 0.963,-2.656 0.642,-0.689 1.526,-1.037 2.655,-1.037 l 0.078,0 c 1.144,0 2.003,0.342 2.577,1.024 0.573,0.681 0.858,1.571 0.858,2.669 l 0,13.087 3.564,0 L 0,0 Z"
           style="fill:#ffffff;fill-opacity:1;fill-rule:nonzero;stroke:none"
           id="path100" />
      </g>
      <g
         id="g102"
         transform="translate(116.7515,575.3545)">
        <path
           d="m 0,0 -3.564,0 -0.381,0 0,-0.379 0,-13.088 c 0,-1.004 -0.257,-1.82 -0.769,-2.424 -0.502,-0.597 -1.25,-0.886 -2.285,-0.886 l -0.078,0 c -1.025,0 -1.802,0.298 -2.377,0.913 -0.578,0.628 -0.859,1.41 -0.859,2.397 l 0,13.088 0,0.379 -0.382,0 -3.564,0 -0.38,0 0,-0.379 0,-13.139 c 0,-1.241 0.165,-2.394 0.49,-3.43 0.328,-1.051 0.819,-1.961 1.454,-2.705 0.636,-0.753 1.434,-1.347 2.37,-1.77 0.936,-0.419 2.021,-0.631 3.222,-0.631 1.235,0 2.336,0.205 3.269,0.614 0.938,0.413 1.73,1.01 2.355,1.772 0.616,0.766 1.087,1.68 1.398,2.723 0.307,1.037 0.462,2.198 0.462,3.458 l 0,13.108 L 0.381,0 0,0 Z m -0.379,-13.487 c 0,-1.185 -0.144,-2.277 -0.429,-3.239 -0.284,-0.948 -0.709,-1.777 -1.262,-2.461 -0.546,-0.668 -1.243,-1.195 -2.069,-1.558 -0.837,-0.362 -1.834,-0.551 -2.964,-0.551 -1.093,0 -2.072,0.192 -2.911,0.571 -0.832,0.373 -1.538,0.897 -2.101,1.561 -0.571,0.671 -1.01,1.49 -1.309,2.444 -0.302,0.964 -0.454,2.04 -0.454,3.202 l 0,13.139 -0.381,-0.381 3.564,0 -0.379,0.381 0,-13.088 c 0,-1.172 0.358,-2.152 1.064,-2.914 0.716,-0.769 1.701,-1.159 2.933,-1.159 l 0.078,0 c 1.254,0 2.22,0.39 2.868,1.159 0.628,0.745 0.947,1.726 0.947,2.914 l 0,13.088 -0.38,-0.381 3.564,0 -0.379,0.381 0,-13.108 z"
           style="fill:#ffffff;fill-opacity:1;fill-rule:nonzero;stroke:none"
           id="path104" />
      </g>
      <g
         id="g106"
         transform="translate(122.6235,570.458)">
        <path
           d="m 0,0 0,-3.803 5.236,0 c 0.412,0 0.758,0.185 1.041,0.555 0.282,0.369 0.424,0.822 0.424,1.366 0,0.497 -0.142,0.936 -0.424,1.315 C 5.994,-0.187 5.657,0 5.263,0 L 0,0 Z M 4.82,4.517 C 5.774,4.517 6.597,4.345 7.287,3.999 7.979,3.654 8.544,3.192 8.988,2.609 9.432,2.028 9.755,1.344 9.96,0.558 c 0.204,-0.788 0.306,-1.623 0.306,-2.505 0,-0.755 -0.09,-1.497 -0.268,-2.231 C 9.818,-4.911 9.523,-5.58 9.115,-6.184 8.706,-6.789 8.18,-7.282 7.542,-7.667 6.904,-8.058 5.953,-8.272 4.691,-8.316 l 5.717,-3.823 0,-5.444 L 0,-9.591 l 0,-7.187 -3.565,0 0,21.295 8.385,0 z"
           style="fill:#ffffff;fill-opacity:1;fill-rule:nonzero;stroke:none"
           id="path108" />
      </g>
      <g
         id="g110"
         transform="translate(118.6768,574.9751)">
        <path
           d="m 0,0 0,-21.295 0,-0.38 0.381,0 3.566,0 0.379,0 0,0.38 0,7.187 -0.611,-0.302 10.408,-7.993 0.612,-0.47 0,0.772 0,5.445 0,0.201 -0.17,0.115 -5.716,3.823 -0.198,-0.698 c 1.344,0.046 2.337,0.278 3.036,0.704 0.683,0.413 1.252,0.95 1.688,1.595 0.433,0.638 0.748,1.356 0.939,2.13 0.186,0.756 0.28,1.538 0.28,2.322 0,0.907 -0.108,1.783 -0.319,2.599 -0.216,0.832 -0.567,1.568 -1.037,2.189 -0.48,0.627 -1.096,1.131 -1.836,1.5 -0.738,0.369 -1.625,0.555 -2.635,0.555 l -8.386,0 L 0,0.379 0,0 Z m 8.767,-0.38 c 0.892,0 1.664,-0.162 2.296,-0.478 0.635,-0.315 1.162,-0.748 1.569,-1.28 0.41,-0.538 0.717,-1.185 0.906,-1.92 0.195,-0.751 0.294,-1.563 0.294,-2.406 0,-0.723 -0.085,-1.443 -0.259,-2.141 -0.167,-0.686 -0.444,-1.32 -0.826,-1.881 -0.377,-0.555 -0.865,-1.018 -1.455,-1.377 -0.578,-0.349 -1.475,-0.55 -2.667,-0.59 l -1.177,-0.044 0.979,-0.654 5.718,-3.824 -0.169,0.319 0,-5.445 0.61,0.303 -10.409,7.992 -0.612,0.47 0,-0.772 0,-7.187 0.382,0.378 -3.566,0 0.381,-0.378 0,21.295 -0.381,-0.38 8.386,0 z"
           style="fill:#ffffff;fill-opacity:1;fill-rule:nonzero;stroke:none"
           id="path112" />
      </g>
      <g
         id="g114"
         transform="translate(127.8867,570.0796)">
        <path
           d="m 0,0 c 0.171,0 0.431,-0.044 0.708,-0.417 0.235,-0.315 0.35,-0.671 0.35,-1.086 0,-0.461 -0.113,-0.83 -0.346,-1.136 -0.211,-0.277 -0.446,-0.404 -0.739,-0.404 l -5.236,0 0.379,-0.381 0,3.802 L -5.263,0 0,0 Z m -5.645,0.378 0,-3.802 0,-0.38 0.382,0 5.236,0 c 0.533,0 0.985,0.236 1.341,0.703 0.335,0.436 0.504,0.973 0.504,1.598 0,0.575 -0.168,1.095 -0.499,1.543 C 0.96,0.517 0.517,0.759 0,0.759 l -5.263,0 -0.382,0 0,-0.381 z"
           style="fill:#ffffff;fill-opacity:1;fill-rule:nonzero;stroke:none"
           id="path116" />
      </g>
      <g
         id="g118"
         transform="translate(149.1924,561.8672)">
        <path
           d="m 0,0 c 0,-1.229 -0.151,-2.343 -0.448,-3.347 -0.299,-1.004 -0.741,-1.867 -1.328,-2.591 -0.587,-0.722 -1.325,-1.276 -2.212,-1.669 -0.886,-0.382 -1.926,-0.581 -3.117,-0.581 -1.16,0 -2.18,0.202 -3.066,0.602 -0.888,0.396 -1.633,0.953 -2.238,1.668 -0.604,0.708 -1.065,1.567 -1.379,2.571 -0.315,1.004 -0.472,2.109 -0.472,3.316 l 0,13.139 3.565,0 0,-13.087 c 0,-1.079 0.318,-1.965 0.961,-2.656 0.641,-0.689 1.527,-1.037 2.656,-1.037 l 0.077,0 c 1.144,0 2.002,0.342 2.575,1.024 0.573,0.681 0.861,1.571 0.861,2.669 l 0,13.087 3.565,0 L 0,0 Z"
           style="fill:#ffffff;fill-opacity:1;fill-rule:nonzero;stroke:none"
           id="path120" />
      </g>
      <g
         id="g122"
         transform="translate(149.1924,575.3545)">
        <path
           d="m 0,0 -3.565,0 -0.382,0 0,-0.379 0,-13.088 c 0,-1.001 -0.259,-1.82 -0.77,-2.424 -0.501,-0.597 -1.249,-0.886 -2.284,-0.886 l -0.077,0 c -1.026,0 -1.804,0.298 -2.38,0.913 -0.576,0.624 -0.857,1.41 -0.857,2.397 l 0,13.088 0,0.379 -0.38,0 -3.565,0 -0.381,0 0,-0.379 0,-13.139 c 0,-1.241 0.165,-2.394 0.49,-3.43 0.329,-1.048 0.817,-1.961 1.453,-2.705 0.638,-0.753 1.437,-1.347 2.371,-1.77 0.933,-0.416 2.017,-0.631 3.222,-0.631 1.234,0 2.334,0.205 3.269,0.614 0.939,0.413 1.729,1.01 2.354,1.772 0.618,0.766 1.087,1.683 1.398,2.723 0.307,1.041 0.463,2.202 0.463,3.458 l 0,13.108 L 0.379,0 0,0 Z m -0.382,-13.487 c 0,-1.182 -0.145,-2.273 -0.431,-3.239 -0.282,-0.948 -0.704,-1.777 -1.259,-2.461 -0.546,-0.668 -1.242,-1.195 -2.068,-1.558 -0.838,-0.362 -1.837,-0.551 -2.965,-0.551 -1.096,0 -2.074,0.192 -2.91,0.567 -0.831,0.377 -1.539,0.901 -2.104,1.568 -0.569,0.668 -1.008,1.487 -1.306,2.441 -0.302,0.964 -0.456,2.04 -0.456,3.202 l 0,13.139 -0.379,-0.381 3.565,0 -0.381,0.381 0,-13.088 c 0,-1.172 0.359,-2.152 1.062,-2.914 0.716,-0.769 1.704,-1.159 2.936,-1.159 l 0.077,0 c 1.255,0 2.218,0.39 2.866,1.159 0.63,0.745 0.949,1.729 0.949,2.914 l 0,13.088 -0.379,-0.381 3.565,0 -0.382,0.381 0,-13.108 z"
           style="fill:#ffffff;fill-opacity:1;fill-rule:nonzero;stroke:none"
           id="path124" />
      </g>
      <g
         id="g126"
         transform="translate(168.415,559.3486)">
        <path
           d="m 0,0 c 0,-0.822 -0.114,-1.574 -0.342,-2.251 -0.232,-0.683 -0.551,-1.259 -0.961,-1.736 -0.412,-0.477 -0.894,-0.843 -1.45,-1.102 -0.555,-0.258 -1.148,-0.388 -1.779,-0.388 -0.923,0 -1.755,0.366 -2.497,1.101 -0.744,0.735 -1.285,1.748 -1.625,3.043 l -3.101,11.654 c -0.069,0.538 -0.266,0.809 -0.589,0.809 -0.548,0 -0.822,-0.433 -0.822,-1.296 l 0,-15.503 -3.754,0 0,15.879 c 0,0.818 0.115,1.568 0.346,2.247 0.23,0.68 0.552,1.254 0.962,1.731 0.409,0.472 0.89,0.839 1.445,1.098 0.557,0.261 1.15,0.388 1.782,0.388 0.905,0 1.738,-0.366 2.497,-1.1 0.761,-0.733 1.301,-1.748 1.627,-3.041 l -0.025,0 3.124,-11.653 c 0.07,-0.541 0.264,-0.809 0.589,-0.809 0.545,0 0.82,0.429 0.82,1.295 l 0,15.545 3.753,0 L 0,0 Z"
           style="fill:#ffffff;fill-opacity:1;fill-rule:nonzero;stroke:none"
           id="path128" />
      </g>
      <g
         id="g130"
         transform="translate(168.415,575.6396)">
        <path
           d="m 0,0 -3.753,0 -0.381,0 0,-0.38 0,-15.545 c 0,-0.915 -0.307,-0.915 -0.439,-0.915 -0.14,0 -0.197,0.362 -0.211,0.476 l -0.003,0.024 -0.006,0.023 -3.125,11.656 -0.368,-0.476 0.488,0 c 0.027,0 -0.094,0.473 -0.094,0.473 -0.343,1.36 -0.926,2.443 -1.732,3.22 -0.831,0.802 -1.759,1.206 -2.761,1.206 -0.686,0 -1.339,-0.142 -1.941,-0.422 -0.598,-0.278 -1.127,-0.68 -1.572,-1.195 -0.445,-0.509 -0.791,-1.137 -1.036,-1.859 -0.244,-0.715 -0.365,-1.511 -0.365,-2.367 l 0,-15.879 0,-0.379 0.379,0 3.754,0 0.382,0 0,0.379 0,15.503 c 0,0.914 0.307,0.914 0.44,0.914 0.14,0 0.197,-0.363 0.212,-0.474 l 0.002,-0.026 0.008,-0.027 3.099,-11.654 c 0.359,-1.356 0.939,-2.437 1.725,-3.215 0.815,-0.803 1.744,-1.212 2.766,-1.212 0.681,0 1.333,0.144 1.941,0.426 0.6,0.278 1.131,0.682 1.574,1.199 0.44,0.509 0.786,1.134 1.034,1.859 0.241,0.722 0.366,1.521 0.366,2.376 l 0,15.911 0,0.38 L 0,0 Z m -0.379,-16.291 c 0,-0.772 -0.11,-1.49 -0.326,-2.131 -0.214,-0.635 -0.513,-1.175 -0.886,-1.608 -0.376,-0.433 -0.819,-0.771 -1.321,-1.006 -0.505,-0.232 -1.048,-0.354 -1.62,-0.354 -0.825,0 -1.555,0.327 -2.23,0.994 -0.69,0.682 -1.202,1.646 -1.524,2.867 -0.002,0.003 -3.102,11.656 -3.102,11.656 l 0.011,-0.051 c -0.127,0.993 -0.661,1.142 -0.967,1.142 -0.448,0 -1.201,-0.217 -1.201,-1.675 l 0,-15.503 0.379,0.379 -3.754,0 0.38,-0.379 0,15.879 c 0,0.772 0.11,1.488 0.327,2.123 0.213,0.63 0.512,1.167 0.889,1.607 0.376,0.433 0.82,0.768 1.319,1.003 0.501,0.234 1.046,0.349 1.62,0.349 0.809,0 1.539,-0.324 2.232,-0.99 0.704,-0.678 1.217,-1.641 1.525,-2.864 l 0.367,0.475 -0.495,0 c -0.027,0 0.102,-0.48 0.102,-0.48 l 3.125,-11.653 -0.01,0.049 c 0.124,-0.99 0.658,-1.138 0.966,-1.138 0.448,0 1.199,0.219 1.199,1.675 l 0,15.545 -0.379,-0.38 3.753,0 -0.379,0.38 0,-15.911 z"
           style="fill:#ffffff;fill-opacity:1;fill-rule:nonzero;stroke:none"
           id="path132" />
      </g>
      <g
         id="g134"
         transform="translate(178.5293,570.3848)">
        <path
           d="m 0,0 c -0.085,0 -0.163,-0.107 -0.231,-0.322 l -2.532,-8.968 5.576,0 -2.43,8.807 C 0.23,-0.161 0.136,0 0.101,0 L 0,0 Z m 4.063,-13.805 -8.08,0 -0.767,-2.9 -3.81,0 5.167,18.35 c 0.29,1.014 0.741,1.759 1.352,2.236 C -1.459,4.353 -0.752,4.59 0.05,4.59 0.868,4.59 1.581,4.353 2.185,3.881 2.79,3.404 3.238,2.659 3.528,1.645 l 5.166,-18.35 -3.785,0 -0.846,2.9 z"
           style="fill:#ffffff;fill-opacity:1;fill-rule:nonzero;stroke:none"
           id="path136" />
      </g>
      <g
         id="g138"
         transform="translate(183.4385,553.3003)">
        <path
           d="M 0,0 3.785,0 4.287,0 4.149,0.483 -1.017,18.834 c -0.311,1.087 -0.806,1.905 -1.474,2.43 -0.67,0.525 -1.467,0.79 -2.368,0.79 -0.883,0 -1.675,-0.265 -2.357,-0.786 -0.674,-0.528 -1.172,-1.344 -1.486,-2.431 0,-0.003 -5.167,-18.354 -5.167,-18.354 L -14.006,0 l 0.503,0 3.81,0 0.293,0 0.074,0.282 0.768,2.9 -0.368,-0.281 8.08,0 -0.366,0.271 0.846,-2.9 L -0.285,0 0,0 Z m -0.846,3.659 -8.08,0 -0.292,0 -0.077,-0.282 -0.766,-2.9 0.368,0.281 -3.81,0 0.366,-0.479 5.165,18.35 c 0.267,0.926 0.68,1.613 1.223,2.036 0.549,0.421 1.17,0.629 1.89,0.629 0.727,0 1.366,-0.212 1.9,-0.629 0.539,-0.423 0.947,-1.11 1.212,-2.04 0,0.004 5.166,-18.346 5.166,-18.346 l 0.366,0.479 -3.785,0 0.364,-0.271 -0.844,2.9 -0.081,0.272 -0.285,0 z"
           style="fill:#ffffff;fill-opacity:1;fill-rule:nonzero;stroke:none"
           id="path140" />
      </g>
      <g
         id="g142"
         transform="translate(178.6299,570.0059)">
        <path
           d="m 0,0 c -0.143,0 -0.236,0.082 -0.262,0.114 0.006,-0.009 0.056,-0.077 0.201,-0.382 l -0.024,0.061 2.43,-8.804 0.367,0.479 -5.575,0 0.364,-0.483 2.531,8.967 C 0.063,0.043 0.084,0.077 0.087,0.077 0.067,0.05 -0.001,0 -0.101,0 L 0,0 Z m -0.101,0.758 c -0.271,0 -0.469,-0.198 -0.594,-0.587 -0.002,-0.01 -2.533,-8.978 -2.533,-8.978 l -0.139,-0.483 0.504,0 5.575,0 0.497,0 L 3.078,-8.81 0.649,-0.004 0.642,0.028 0.626,0.059 C 0.412,0.51 0.29,0.758 0,0.758 l -0.101,0 z"
           style="fill:#ffffff;fill-opacity:1;fill-rule:nonzero;stroke:none"
           id="path144" />
      </g>
      <g
         id="g146"
         transform="translate(192.3037,570.458)">
        <path
           d="m 0,0 0,-3.803 5.238,0 c 0.413,0 0.76,0.185 1.041,0.555 0.284,0.369 0.423,0.822 0.423,1.366 0,0.497 -0.139,0.936 -0.423,1.315 C 5.998,-0.187 5.66,0 5.266,0 L 0,0 Z M 4.822,4.517 C 5.775,4.517 6.598,4.345 7.289,3.999 7.979,3.654 8.548,3.192 8.99,2.609 9.433,2.028 9.757,1.344 9.961,0.558 10.167,-0.23 10.267,-1.065 10.267,-1.947 10.267,-2.702 10.178,-3.444 10,-4.178 9.821,-4.911 9.527,-5.58 9.117,-6.184 8.708,-6.789 8.184,-7.282 7.545,-7.667 6.905,-8.058 5.955,-8.272 4.694,-8.316 l 5.716,-3.823 0,-5.444 -10.41,7.992 0,-7.187 -3.564,0 0,21.295 8.386,0 z"
           style="fill:#ffffff;fill-opacity:1;fill-rule:nonzero;stroke:none"
           id="path148" />
      </g>
      <g
         id="g150"
         transform="translate(188.3599,574.9751)">
        <path
           d="m 0,0 0,-21.295 0,-0.38 0.379,0 3.565,0 0.381,0 0,0.38 0,7.187 -0.613,-0.302 10.41,-7.993 0.612,-0.47 0,0.772 0,5.445 0,0.201 -0.169,0.115 -5.717,3.823 -0.198,-0.698 c 1.345,0.046 2.337,0.278 3.037,0.704 0.68,0.409 1.249,0.95 1.689,1.595 0.434,0.638 0.748,1.356 0.937,2.13 0.185,0.76 0.279,1.54 0.279,2.322 0,0.913 -0.108,1.787 -0.319,2.599 -0.217,0.832 -0.566,1.568 -1.036,2.189 -0.478,0.624 -1.092,1.131 -1.834,1.5 -0.74,0.369 -1.628,0.555 -2.637,0.555 l -8.387,0 L 0,0.379 0,0 Z m 8.766,-0.38 c 0.892,0 1.665,-0.162 2.297,-0.478 0.637,-0.318 1.164,-0.748 1.569,-1.28 0.409,-0.538 0.717,-1.185 0.906,-1.92 0.193,-0.746 0.294,-1.558 0.294,-2.406 0,-0.721 -0.086,-1.441 -0.257,-2.145 -0.168,-0.682 -0.447,-1.316 -0.828,-1.877 -0.377,-0.558 -0.868,-1.021 -1.455,-1.377 -0.578,-0.349 -1.476,-0.55 -2.667,-0.59 l -1.176,-0.044 0.978,-0.654 5.717,-3.824 -0.17,0.319 0,-5.445 0.611,0.303 -10.409,7.992 -0.612,0.47 0,-0.772 0,-7.187 0.38,0.378 -3.565,0 0.381,-0.378 0,21.295 -0.381,-0.38 8.387,0 z"
           style="fill:#ffffff;fill-opacity:1;fill-rule:nonzero;stroke:none"
           id="path152" />
      </g>
      <g
         id="g154"
         transform="translate(197.5693,570.0796)">
        <path
           d="m 0,0 c 0.169,0 0.431,-0.044 0.709,-0.417 0.234,-0.315 0.348,-0.671 0.348,-1.086 0,-0.461 -0.112,-0.833 -0.344,-1.136 -0.212,-0.277 -0.446,-0.404 -0.74,-0.404 l -5.239,0 0.382,-0.381 0,3.802 L -5.266,0 0,0 Z m -5.645,0.378 0,-3.802 0,-0.38 0.379,0 5.239,0 c 0.533,0 0.986,0.236 1.343,0.703 0.332,0.436 0.501,0.971 0.501,1.598 0,0.576 -0.167,1.097 -0.498,1.543 C 0.962,0.517 0.517,0.759 0,0.759 l -5.266,0 -0.379,0 0,-0.381 z"
           style="fill:#ffffff;fill-opacity:1;fill-rule:nonzero;stroke:none"
           id="path156" />
      </g>
      <g
         id="g158"
         transform="translate(218.875,561.8672)">
        <path
           d="m 0,0 c 0,-1.229 -0.151,-2.343 -0.448,-3.347 -0.299,-1.004 -0.742,-1.867 -1.328,-2.591 -0.589,-0.722 -1.326,-1.276 -2.212,-1.669 -0.887,-0.382 -1.926,-0.581 -3.119,-0.581 -1.158,0 -2.18,0.202 -3.064,0.602 -0.888,0.396 -1.633,0.953 -2.237,1.668 -0.605,0.708 -1.066,1.567 -1.38,2.571 -0.316,1.004 -0.472,2.109 -0.472,3.316 l 0,13.139 3.565,0 0,-13.087 c 0,-1.079 0.318,-1.965 0.96,-2.656 0.641,-0.689 1.527,-1.037 2.657,-1.037 l 0.076,0 c 1.142,0 2.002,0.342 2.576,1.024 0.572,0.681 0.861,1.571 0.861,2.669 l 0,13.087 3.565,0 L 0,0 Z"
           style="fill:#ffffff;fill-opacity:1;fill-rule:nonzero;stroke:none"
           id="path160" />
      </g>
      <g
         id="g162"
         transform="translate(218.875,575.3545)">
        <path
           d="m 0,0 -3.565,0 -0.381,0 0,-0.379 0,-13.088 c 0,-1.001 -0.26,-1.82 -0.772,-2.424 -0.502,-0.597 -1.249,-0.886 -2.284,-0.886 l -0.076,0 c -1.029,0 -1.804,0.298 -2.38,0.913 -0.578,0.624 -0.857,1.41 -0.857,2.397 l 0,13.088 0,0.379 -0.38,0 -3.565,0 -0.381,0 0,-0.379 0,-13.139 c 0,-1.241 0.164,-2.394 0.49,-3.43 0.329,-1.048 0.816,-1.961 1.452,-2.705 0.64,-0.753 1.437,-1.347 2.372,-1.77 0.933,-0.416 2.017,-0.631 3.22,-0.631 1.236,0 2.335,0.205 3.27,0.614 0.938,0.413 1.731,1.01 2.355,1.772 0.618,0.766 1.087,1.683 1.398,2.723 0.307,1.041 0.463,2.202 0.463,3.458 l 0,13.108 L 0.379,0 0,0 Z m -0.381,-13.487 c 0,-1.182 -0.146,-2.273 -0.432,-3.239 -0.281,-0.948 -0.707,-1.777 -1.26,-2.461 -0.546,-0.668 -1.242,-1.195 -2.068,-1.558 -0.839,-0.362 -1.837,-0.551 -2.966,-0.551 -1.094,0 -2.072,0.192 -2.908,0.567 -0.831,0.377 -1.541,0.901 -2.105,1.568 -0.569,0.668 -1.006,1.487 -1.308,2.441 -0.3,0.964 -0.453,2.04 -0.453,3.202 l 0,13.139 -0.379,-0.381 3.565,0 -0.381,0.381 0,-13.088 c 0,-1.172 0.357,-2.152 1.063,-2.914 0.715,-0.769 1.703,-1.159 2.935,-1.159 l 0.076,0 c 1.255,0 2.218,0.39 2.866,1.159 0.63,0.745 0.95,1.729 0.95,2.914 l 0,13.088 -0.379,-0.381 3.565,0 -0.381,0.381 0,-13.108 z"
           style="fill:#ffffff;fill-opacity:1;fill-rule:nonzero;stroke:none"
           id="path164" />
      </g>
      <g
         id="g166"
         transform="translate(238.2827,584.1011)">
        <path
           d="m 0,0 c 0,0 -127.097,-3.968 -174.487,0 l 0,3.238 C -93.854,9.426 0,3.238 0,3.238 L 0,0 Z"
           style="fill:#ffffff;fill-opacity:1;fill-rule:nonzero;stroke:none"
           id="path168" />
      </g>
    </g>
  </g>
</svg>
