<?xml version="1.0" encoding="UTF-8" standalone="no"?>
<svg
   xmlns:dc="http://purl.org/dc/elements/1.1/"
   xmlns:cc="http://creativecommons.org/ns#"
   xmlns:rdf="http://www.w3.org/1999/02/22-rdf-syntax-ns#"
   xmlns:svg="http://www.w3.org/2000/svg"
   xmlns="http://www.w3.org/2000/svg"
   width="120"
   height="120"
   viewBox="0 0 120 120"
   id="svg6210"
   version="1.1">
  <defs
     id="defs6212" />
  <metadata
     id="metadata6215">
    <rdf:RDF>
      <cc:Work
         rdf:about="">
        <dc:format>image/svg+xml</dc:format>
        <dc:type
           rdf:resource="http://purl.org/dc/dcmitype/StillImage" />
        <dc:title></dc:title>
      </cc:Work>
    </rdf:RDF>
  </metadata>
  <g
     id="text4266"
     style="font-style:normal;font-weight:normal;font-size:37.65101242px;line-height:125%;font-family:sans-serif;letter-spacing:0px;word-spacing:0px;fill:#ffffff;fill-opacity:1;stroke:none;stroke-width:1px;stroke-linecap:butt;stroke-linejoin:miter;stroke-opacity:1">
    <g
       id="g4289">
      <circle
         r="50"
         cy="60"
         cx="60"
         id="path4162"
         style="color:#000000;clip-rule:nonzero;display:inline;overflow:visible;visibility:visible;opacity:1;isolation:auto;mix-blend-mode:normal;color-interpolation:sRGB;color-interpolation-filters:linearRGB;solid-color:#000000;solid-opacity:1;fill:#812990;fill-opacity:1;fill-rule:nonzero;stroke:none;stroke-width:0;stroke-linecap:butt;stroke-linejoin:miter;stroke-miterlimit:4;stroke-dasharray:none;stroke-dashoffset:0;stroke-opacity:1;color-rendering:auto;image-rendering:auto;shape-rendering:auto;text-rendering:auto;enable-background:accumulate" />
      <rect
         style="color:#000000;clip-rule:nonzero;display:inline;overflow:visible;visibility:visible;opacity:1;isolation:auto;mix-blend-mode:normal;color-interpolation:sRGB;color-interpolation-filters:linearRGB;solid-color:#000000;solid-opacity:1;fill:#e85c41;fill-opacity:0;fill-rule:nonzero;stroke:none;stroke-width:0;stroke-linecap:butt;stroke-linejoin:miter;stroke-miterlimit:4;stroke-dasharray:none;stroke-dashoffset:0;stroke-opacity:1;color-rendering:auto;image-rendering:auto;shape-rendering:auto;text-rendering:auto;enable-background:accumulate"
         id="rect9899-1-2-6-8-8-9-2-2-95"
         width="120"
         height="120"
         x="3.0463625e-13"
         y="1.9673428e-14"
         ry="5.9030401e-05" />
      <circle
         r="45"
         cy="60"
         cx="60"
         id="path4162-3"
         style="color:#000000;clip-rule:nonzero;display:inline;overflow:visible;visibility:visible;opacity:1;isolation:auto;mix-blend-mode:normal;color-interpolation:sRGB;color-interpolation-filters:linearRGB;solid-color:#000000;solid-opacity:1;fill:#ffffff;fill-opacity:1;fill-rule:nonzero;stroke:none;stroke-width:0;stroke-linecap:butt;stroke-linejoin:miter;stroke-miterlimit:4;stroke-dasharray:none;stroke-dashoffset:0;stroke-opacity:1;color-rendering:auto;image-rendering:auto;shape-rendering:auto;text-rendering:auto;enable-background:accumulate" />
      <circle
         r="40"
         cy="60"
         cx="60"
         id="path4162-3-2"
         style="color:#000000;clip-rule:nonzero;display:inline;overflow:visible;visibility:visible;opacity:1;isolation:auto;mix-blend-mode:normal;color-interpolation:sRGB;color-interpolation-filters:linearRGB;solid-color:#000000;solid-opacity:1;fill:#812990;fill-opacity:1;fill-rule:nonzero;stroke:none;stroke-width:0;stroke-linecap:butt;stroke-linejoin:miter;stroke-miterlimit:4;stroke-dasharray:none;stroke-dashoffset:0;stroke-opacity:1;color-rendering:auto;image-rendering:auto;shape-rendering:auto;text-rendering:auto;enable-background:accumulate" />
      <path
         d="m 43.645784,43.852779 q 0,-0.112953 0.09413,-0.188255 0.09413,-0.0753 0.150604,-0.0753 0.677718,0 1.411913,-0.01882 0.75302,-0.03765 1.487215,-0.05648 0.75302,-0.03765 1.449564,-0.0753 0.696544,-0.03765 1.29896,-0.09413 0.169429,-0.470638 0.301208,-0.941276 0.131778,-0.470637 0.225906,-0.9601 0.09413,-0.376511 -0.03765,-0.489464 -0.112953,-0.131778 -0.451812,-0.131778 l -5.233491,0 q -0.244732,0 -0.244732,-0.263557 l 0,-1.317786 q 0,-0.225906 0.244732,-0.225906 l 6.607753,0 q 0.847147,0 1.110705,0.357685 0.282382,0.338859 0.225906,1.054228 -0.320034,3.670974 -2.296712,6.457149 -1.976678,2.786175 -5.308793,4.744027 -0.150604,0.09413 -0.338859,0.0753 -0.16943,-0.03765 -0.263557,-0.188255 l -0.658893,-0.997751 q -0.09413,-0.150605 -0.05648,-0.282383 0.03765,-0.150604 0.188255,-0.225906 1.731946,-1.016577 2.993255,-2.240235 1.261309,-1.223658 2.108457,-2.616746 -1.167181,0.09413 -2.42849,0.150604 -1.242484,0.05648 -2.315538,0.0753 -0.0753,0 -0.169429,-0.0753 -0.09413,-0.0753 -0.09413,-0.225906 l 0,-1.223658 z m 14.326211,11.370606 q 0,0.244732 -0.263558,0.244732 l -1.656644,0 q -0.263557,0 -0.263557,-0.244732 l 0,-9.280974 -3.463893,0 q -0.09413,0 -0.188255,-0.05648 -0.0753,-0.0753 -0.0753,-0.16943 l 0,-1.336611 q 0,-0.09413 0.0753,-0.150604 0.09413,-0.0753 0.188255,-0.0753 l 3.463893,0 0,-6.306544 q 0,-0.244732 0.263557,-0.244732 l 1.656644,0 q 0.263558,0 0.263558,0.244732 l 0,17.375942 z"
         style="font-style:normal;font-variant:normal;font-weight:600;font-stretch:normal;font-size:18.82550621px;font-family:NanumGothic;-inkscape-font-specification:'NanumGothic Semi-Bold';text-align:center;text-anchor:middle;fill:#ffffff;fill-opacity:1"
         id="path4273" />
      <path
         d="m 60.860827,46.224793 q 0,-0.263557 0.263557,-0.263557 0.489463,0.01883 0.941275,0.01883 0.451813,0 0.884799,0 l 0,-5.384095 -1.618993,0 q -0.112953,0 -0.225906,-0.09413 -0.09413,-0.09413 -0.09413,-0.20708 l 0,-1.186007 q 0,-0.09413 0.09413,-0.188255 0.112953,-0.09413 0.225906,-0.09413 l 9.544531,0 q 0.112953,0 0.188255,0.09413 0.09413,0.0753 0.09413,0.188255 l 0,1.204832 q 0,0.112953 -0.09413,0.207081 -0.0753,0.0753 -0.188255,0.0753 l -1.167181,0 0,5.101712 q 0.470638,-0.03765 0.92245,-0.09413 0.451812,-0.05648 0.903624,-0.112953 0.09413,-0.01882 0.207081,0.03765 0.112953,0.03765 0.131778,0.131779 l 0.131779,1.110705 q 0.01882,0.169429 -0.09413,0.282382 -0.112953,0.112953 -0.20708,0.131779 -1.129531,0.169429 -2.409665,0.282383 -1.280135,0.09413 -2.635571,0.169429 -1.355437,0.05648 -2.767349,0.0753 -1.393088,0.01883 -2.76735,-0.01882 -0.112953,0 -0.188255,-0.0753 -0.0753,-0.09413 -0.0753,-0.207081 l 0,-1.186007 z m 15.079231,8.659733 q 0,0.112953 -0.09413,0.16943 -0.0753,0.05648 -0.16943,0.05648 l -9.808088,0 q -0.847148,0 -1.148356,-0.301208 -0.282383,-0.301208 -0.282383,-1.035403 l 0,-3.972182 q 0,-0.09413 0.0753,-0.188255 0.09413,-0.09413 0.188255,-0.09413 l 1.637819,0 q 0.112953,0 0.188255,0.09413 0.09413,0.0753 0.09413,0.188255 l 0,3.200336 q 0,0.188255 0.0753,0.244732 0.0753,0.05648 0.282383,0.05648 l 8.697383,0 q 0.09413,0 0.16943,0.05648 0.09413,0.0753 0.09413,0.16943 l 0,1.355436 z m -0.583591,-4.762853 q 0,0.244731 -0.244732,0.244731 l -1.67547,0 q -0.244731,0 -0.244731,-0.263557 l 0,-12.255404 q 0,-0.244732 0.244731,-0.244732 l 1.67547,0 q 0.244732,0 0.244732,0.244732 l 0,12.27423 z M 65.002438,45.961236 q 0.696544,-0.01882 1.355437,-0.03765 0.658893,-0.01882 1.29896,-0.0753 l 0,-5.252316 -2.654397,0 0,5.365269 z"
         style="font-style:normal;font-variant:normal;font-weight:600;font-stretch:normal;font-size:18.82550621px;font-family:NanumGothic;-inkscape-font-specification:'NanumGothic Semi-Bold';text-align:center;text-anchor:middle;fill:#ffffff;fill-opacity:1"
         id="path4275" />
      <path
         d="m 41.942958,75.554932 q 0,0.09413 -0.09413,0.188255 -0.09413,0.09413 -0.188255,0.09413 l -16.397016,0 q -0.112953,0 -0.188255,-0.09413 -0.0753,-0.09413 -0.0753,-0.188255 l 0,-1.242484 q 0,-0.112953 0.0753,-0.188255 0.0753,-0.09413 0.188255,-0.09413 l 11.35178,0 q 0.301208,-1.694296 0.451812,-4.028659 0.16943,-2.353188 0.16943,-5.02641 0,-0.320033 -0.0753,-0.451812 -0.0753,-0.150604 -0.395336,-0.150604 l -9.111545,0 q -0.09413,0 -0.169429,-0.0753 -0.0753,-0.09413 -0.0753,-0.188255 l 0,-1.242483 q 0,-0.09413 0.0753,-0.16943 0.0753,-0.09413 0.169429,-0.09413 l 10.485807,0 q 0.828322,0 1.054229,0.432986 0.244731,0.414161 0.244731,1.110705 0,2.522618 -0.150604,4.988759 -0.131778,2.466141 -0.54594,4.894632 l 2.917954,0 q 0.09413,0 0.188255,0.09413 0.09413,0.09413 0.09413,0.188255 l 0,1.242484 z"
         style="font-style:normal;font-variant:normal;font-weight:600;font-stretch:normal;font-size:18.82550621px;font-family:NanumGothic;-inkscape-font-specification:'NanumGothic Semi-Bold';text-align:center;text-anchor:middle;fill:#ffffff;fill-opacity:1"
         id="path4277" />
      <path
         d="m 59.628639,73.107616 q 0,0.09413 -0.09413,0.188255 -0.09413,0.09413 -0.188255,0.09413 l -7.07839,0 0,5.214665 q 0,0.263557 -0.263557,0.263557 l -1.637819,0 q -0.263557,0 -0.263557,-0.263557 l 0,-5.214665 -7.153693,0 q -0.112953,0 -0.188255,-0.09413 -0.0753,-0.09413 -0.0753,-0.188255 l 0,-1.223658 q 0,-0.112953 0.0753,-0.20708 0.0753,-0.09413 0.188255,-0.09413 l 16.397016,0 q 0.09413,0 0.188255,0.112953 0.09413,0.09413 0.09413,0.188255 l 0,1.223658 z m -2.164933,-3.52037 q 0,0.112953 -0.09413,0.207081 -0.09413,0.0753 -0.169429,0.0753 l -10.730539,0 q -0.734195,0 -0.997752,-0.263557 -0.263557,-0.282383 -0.263557,-0.884799 l 0,-2.748524 q 0,-0.602416 0.244732,-0.865973 0.263557,-0.282383 0.997751,-0.282383 l 8.264398,0 q 0.150604,0 0.188255,-0.112953 0.03765,-0.112953 0.03765,-0.282382 l 0,-0.941276 q 0,-0.150604 -0.03765,-0.169429 -0.03765,-0.03765 -0.207081,-0.03765 l -9.224498,0 q -0.09413,0 -0.188255,-0.05648 -0.0753,-0.0753 -0.0753,-0.169429 l 0,-1.29896 q 0,-0.09413 0.0753,-0.16943 0.09413,-0.0753 0.188255,-0.0753 l 10.297552,0 q 0.771846,0 1.016577,0.244732 0.263557,0.225906 0.263557,0.865973 l 0,2.786175 q 0,0.658893 -0.263557,0.884799 -0.244731,0.225906 -1.016577,0.225906 l -8.207921,0 q -0.150604,0 -0.188255,0.05648 -0.03765,0.03765 -0.03765,0.188255 l 0,1.110705 q 0,0.16943 0.03765,0.207081 0.03765,0.01883 0.207081,0.01883 l 9.601008,0 q 0.09413,0 0.188255,0.0753 0.09413,0.05648 0.09413,0.16943 l 0,1.242483 z"
         style="font-style:normal;font-variant:normal;font-weight:600;font-stretch:normal;font-size:18.82550621px;font-family:NanumGothic;-inkscape-font-specification:'NanumGothic Semi-Bold';text-align:center;text-anchor:middle;fill:#ffffff;fill-opacity:1"
         id="path4279" />
      <path
         d="m 71.723144,72.486374 q 0.03765,0.131779 -0.05648,0.244732 -0.09413,0.112953 -0.263557,0.150604 -0.696543,0.188255 -1.769597,0.37651 -1.073054,0.16943 -2.240236,0.301208 -1.167181,0.131779 -2.296711,0.188255 -1.110705,0.03765 -1.901376,-0.03765 -0.734195,-0.0753 -1.054229,-0.432986 -0.320033,-0.357685 -0.320033,-0.997752 l 0,-9.789264 q 0,-0.09413 0.0753,-0.169429 0.09413,-0.09413 0.188255,-0.09413 l 1.618993,0 q 0.112953,0 0.188255,0.09413 0.09413,0.0753 0.09413,0.169429 l 0,9.073894 q 0,0.188256 0.0753,0.244732 0.0753,0.03765 0.263557,0.05648 0.677718,0.05648 1.524866,0.03765 0.865973,-0.03765 1.769598,-0.131779 0.922449,-0.112953 1.807248,-0.263557 0.903624,-0.16943 1.67547,-0.357685 0.207081,-0.03765 0.282383,0.0753 0.09413,0.09413 0.131778,0.207081 l 0.207081,1.054228 z m 5.835907,-2.917953 q 0,0.112953 -0.09413,0.188255 -0.0753,0.0753 -0.169429,0.0753 l -2.560269,0 0,8.92329 q 0,0.244731 -0.244732,0.244731 l -1.67547,0 q -0.244731,0 -0.244731,-0.244731 l 0,-17.375942 q 0,-0.244732 0.244731,-0.244732 l 1.67547,0 q 0.244732,0 0.244732,0.244732 l 0,6.645403 2.560269,0 q 0.09413,0 0.169429,0.0753 0.09413,0.05648 0.09413,0.150604 l 0,1.317786 z"
         style="font-style:normal;font-variant:normal;font-weight:600;font-stretch:normal;font-size:18.82550621px;font-family:NanumGothic;-inkscape-font-specification:'NanumGothic Semi-Bold';text-align:center;text-anchor:middle;fill:#ffffff;fill-opacity:1"
         id="path4281" />
      <path
         d="m 95,73.107616 q 0,0.09413 -0.09413,0.188255 -0.09413,0.09413 -0.188255,0.09413 l -7.07839,0 0,5.214665 q 0,0.263557 -0.263557,0.263557 l -1.637819,0 q -0.263558,0 -0.263558,-0.263557 l 0,-5.214665 -7.153692,0 q -0.112953,0 -0.188255,-0.09413 -0.0753,-0.09413 -0.0753,-0.188255 l 0,-1.223658 q 0,-0.112953 0.0753,-0.20708 0.0753,-0.09413 0.188255,-0.09413 l 16.397016,0 q 0.09413,0 0.188255,0.112953 Q 95,71.789831 95,71.883958 l 0,1.223658 z m -2.164934,-3.52037 q 0,0.112953 -0.09413,0.207081 -0.09413,0.0753 -0.16943,0.0753 l -10.730538,0 q -0.734195,0 -0.997752,-0.263557 -0.263557,-0.282383 -0.263557,-0.884799 l 0,-2.748524 q 0,-0.602416 0.244731,-0.865973 0.263558,-0.282383 0.997752,-0.282383 l 8.264397,0 q 0.150605,0 0.188256,-0.112953 0.03765,-0.112953 0.03765,-0.282382 l 0,-0.941276 q 0,-0.150604 -0.03765,-0.169429 -0.03765,-0.03765 -0.207081,-0.03765 l -9.224498,0 q -0.09413,0 -0.188255,-0.05648 -0.0753,-0.0753 -0.0753,-0.169429 l 0,-1.29896 q 0,-0.09413 0.0753,-0.16943 0.09413,-0.0753 0.188255,-0.0753 l 10.297552,0 q 0.771846,0 1.016577,0.244732 0.263557,0.225906 0.263557,0.865973 l 0,2.786175 q 0,0.658893 -0.263557,0.884799 -0.244731,0.225906 -1.016577,0.225906 l -8.207921,0 q -0.150604,0 -0.188255,0.05648 -0.03765,0.03765 -0.03765,0.188255 l 0,1.110705 q 0,0.16943 0.03765,0.207081 0.03765,0.01883 0.207081,0.01883 l 9.601008,0 q 0.09413,0 0.188255,0.0753 0.09413,0.05648 0.09413,0.16943 l 0,1.242483 z"
         style="font-style:normal;font-variant:normal;font-weight:600;font-stretch:normal;font-size:18.82550621px;font-family:NanumGothic;-inkscape-font-specification:'NanumGothic Semi-Bold';text-align:center;text-anchor:middle;fill:#ffffff;fill-opacity:1"
         id="path4283" />
    </g>
  </g>
</svg>
