<?xml version="1.0" encoding="UTF-8" standalone="no"?>
<svg
   xmlns:dc="http://purl.org/dc/elements/1.1/"
   xmlns:cc="http://creativecommons.org/ns#"
   xmlns:rdf="http://www.w3.org/1999/02/22-rdf-syntax-ns#"
   xmlns:svg="http://www.w3.org/2000/svg"
   xmlns="http://www.w3.org/2000/svg"
   version="1.1"
   id="svg5103"
   viewBox="0 0 799.99998 799.99998"
   height="225.77777mm"
   width="225.77777mm">
  <defs
     id="defs5105" />
  <metadata
     id="metadata5108">
    <rdf:RDF>
      <cc:Work
         rdf:about="">
        <dc:format>image/svg+xml</dc:format>
        <dc:type
           rdf:resource="http://purl.org/dc/dcmitype/StillImage" />
        <dc:title></dc:title>
      </cc:Work>
    </rdf:RDF>
  </metadata>
  <g
     transform="translate(2,-52.361328)"
     style="display:inline"
     id="layer2">
    <g
       transform="translate(-802,0)"
       id="g8295">
      <circle
         style="color:#000000;clip-rule:nonzero;display:inline;overflow:visible;visibility:visible;opacity:1;isolation:auto;mix-blend-mode:normal;color-interpolation:sRGB;color-interpolation-filters:linearRGB;solid-color:#000000;solid-opacity:1;fill:#26231c;fill-opacity:1;fill-rule:nonzero;stroke:none;stroke-width:0;stroke-linecap:butt;stroke-linejoin:miter;stroke-miterlimit:4;stroke-dasharray:none;stroke-dashoffset:0;stroke-opacity:1;color-rendering:auto;image-rendering:auto;shape-rendering:auto;text-rendering:auto;enable-background:accumulate"
         id="path8069"
         cx="1200"
         cy="452.36133"
         r="400" />
      <path
         style="color:#000000;clip-rule:nonzero;display:inline;overflow:visible;visibility:visible;opacity:1;isolation:auto;mix-blend-mode:normal;color-interpolation:sRGB;color-interpolation-filters:linearRGB;solid-color:#000000;solid-opacity:1;fill:#cec2b2;fill-opacity:1;fill-rule:nonzero;stroke:none;stroke-width:0;stroke-linecap:butt;stroke-linejoin:miter;stroke-miterlimit:4;stroke-dasharray:none;stroke-dashoffset:0;stroke-opacity:1;color-rendering:auto;image-rendering:auto;shape-rendering:auto;text-rendering:auto;enable-background:accumulate"
         d="M 1199.8723,82.103105 C 1053.5109,81.02168 911.5543,176.2861 857.11441,312.14998 804.31086,439.91144 830.81666,596.7485 923.86812,699.24729 1014.396,800.77832 1163.5797,846.57098 1295.093,810.31209 1419.6855,776.91438 1524.4725,674.91477 1557.2375,549.61482 1588.7271,432.56765 1560.0732,299.92845 1478.9256,209.12857 1409.3628,130.13962 1305.516,81.296736 1199.8723,82.103105 Z"
         id="path8069-5" />
      <path
         style="color:#000000;clip-rule:nonzero;display:inline;overflow:visible;visibility:visible;opacity:1;isolation:auto;mix-blend-mode:normal;color-interpolation:sRGB;color-interpolation-filters:linearRGB;solid-color:#000000;solid-opacity:1;fill:#26231c;fill-opacity:1;fill-rule:nonzero;stroke:none;stroke-width:0;stroke-linecap:butt;stroke-linejoin:miter;stroke-miterlimit:4;stroke-dasharray:none;stroke-dashoffset:0;stroke-opacity:1;color-rendering:auto;image-rendering:auto;shape-rendering:auto;text-rendering:auto;enable-background:accumulate"
         d="m 1199.887,94.12153 c -142.5913,-1.142026 -281.1127,92.73011 -333.08984,225.70118 -49.92875,125.08723 -22.37939,276.95565 69.73809,375.77105 91.91605,99.44708 242.88725,141.01336 371.88305,98.36371 C 1429.988,754.83993 1528.5508,647.5447 1551.5337,521.15704 1573.2594,407.15865 1537.7609,282.1958 1454.2645,200.32389 1387.3592,133.97234 1294.4988,93.346822 1199.887,94.12153 Z"
         id="path8069-5-7" />
    </g>
    <g
       transform="translate(5.0493981,12.76617)"
       id="g8300">
      <path
         style="color:#000000;clip-rule:nonzero;display:inline;overflow:visible;visibility:visible;opacity:1;isolation:auto;mix-blend-mode:normal;color-interpolation:sRGB;color-interpolation-filters:linearRGB;solid-color:#000000;solid-opacity:1;fill:#cec2b2;fill-opacity:1;fill-rule:nonzero;stroke:none;stroke-width:0;stroke-linecap:butt;stroke-linejoin:miter;stroke-miterlimit:4;stroke-dasharray:none;stroke-dashoffset:0;stroke-opacity:1;color-rendering:auto;image-rendering:auto;shape-rendering:auto;text-rendering:auto;enable-background:accumulate"
         d="m 432.50821,269.57677 -0.0929,0.28273 -41.76318,-13.70538 -55.89302,122.45542 a 49.98529,96.344505 18.168231 0 1 14.93034,101.00124 l 8.20175,2.69155 37.19898,-107.80678 2.69644,0.88489 0.0927,-0.28274 2.69643,0.8849 -33.9126,108.88524 8.20175,2.69155 a 49.98529,96.344505 18.168231 0 1 71.87301,-72.51506 L 474.2713,283.28215 432.50812,269.57677 Z m -17.13353,52.20947 c 6.5533,2.1506 10.12239,9.20649 7.97181,15.75978 -0.24287,0.74005 -0.55938,1.45413 -0.93802,2.13479 -4.51305,10.56355 -11.22525,14.90349 -22.60972,29.5686 l -0.0927,0.28274 c -0.48132,-18.5591 -3.3168,-26.03229 -0.69313,-37.21587 0.0982,-0.77266 0.26644,-1.53544 0.50929,-2.27548 2.15059,-6.55329 9.20648,-10.12239 15.75977,-7.97181 l 0.0928,-0.28274 z"
         id="rect7873-2" />
      <text
         xml:space="preserve"
         style="font-style:normal;font-variant:normal;font-weight:normal;font-stretch:normal;font-size:51.83020401px;line-height:125%;font-family:'Arial Rounded MT Bold';-inkscape-font-specification:'Arial Rounded MT Bold, ';letter-spacing:0px;word-spacing:0px;fill:#cec2b2;fill-opacity:1;stroke:none;stroke-width:1px;stroke-linecap:butt;stroke-linejoin:miter;stroke-opacity:1"
         x="176.25328"
         y="622.4035"
         id="text7959"><tspan
           id="tspan7961"
           x="176.25328"
           y="622.4035"
           style="font-style:normal;font-variant:normal;font-weight:normal;font-stretch:normal;font-family:'Arial Rounded MT Bold';-inkscape-font-specification:'Arial Rounded MT Bold, ';fill:#cec2b2;fill-opacity:1">FROM THE BEAN</tspan></text>
    </g>
  </g>
</svg>
