<?xml version="1.0" encoding="UTF-8" standalone="no"?>
<svg
   xmlns:dc="http://purl.org/dc/elements/1.1/"
   xmlns:cc="http://creativecommons.org/ns#"
   xmlns:rdf="http://www.w3.org/1999/02/22-rdf-syntax-ns#"
   xmlns:svg="http://www.w3.org/2000/svg"
   xmlns="http://www.w3.org/2000/svg"
   width="120"
   height="120"
   viewBox="0 0 120 120"
   id="svg5103"
   version="1.1">
  <defs
     id="defs5105" />
  <metadata
     id="metadata5108">
    <rdf:RDF>
      <cc:Work
         rdf:about="">
        <dc:format>image/svg+xml</dc:format>
        <dc:type
           rdf:resource="http://purl.org/dc/dcmitype/StillImage" />
        <dc:title></dc:title>
      </cc:Work>
    </rdf:RDF>
  </metadata>
  <g
     id="text4198"
     style="font-style:normal;font-weight:normal;font-size:40px;line-height:125%;font-family:sans-serif;letter-spacing:0px;word-spacing:0px;fill:#cec2b2;fill-opacity:1;stroke:none;stroke-width:1px;stroke-linecap:butt;stroke-linejoin:miter;stroke-opacity:1">
    <g
       id="g4217">
      <circle
         r="50"
         cy="60"
         cx="60"
         id="path4162"
         style="color:#000000;clip-rule:nonzero;display:inline;overflow:visible;visibility:visible;opacity:1;isolation:auto;mix-blend-mode:normal;color-interpolation:sRGB;color-interpolation-filters:linearRGB;solid-color:#000000;solid-opacity:1;fill:#26231c;fill-opacity:1;fill-rule:nonzero;stroke:none;stroke-width:0;stroke-linecap:butt;stroke-linejoin:miter;stroke-miterlimit:4;stroke-dasharray:none;stroke-dashoffset:0;stroke-opacity:1;color-rendering:auto;image-rendering:auto;shape-rendering:auto;text-rendering:auto;enable-background:accumulate" />
      <rect
         style="color:#000000;clip-rule:nonzero;display:inline;overflow:visible;visibility:visible;opacity:1;isolation:auto;mix-blend-mode:normal;color-interpolation:sRGB;color-interpolation-filters:linearRGB;solid-color:#000000;solid-opacity:1;fill:#e85c41;fill-opacity:0;fill-rule:nonzero;stroke:none;stroke-width:0;stroke-linecap:butt;stroke-linejoin:miter;stroke-miterlimit:4;stroke-dasharray:none;stroke-dashoffset:0;stroke-opacity:1;color-rendering:auto;image-rendering:auto;shape-rendering:auto;text-rendering:auto;enable-background:accumulate"
         id="rect9899-1-2-6-8-8-9-2-2-95"
         width="120"
         height="120"
         x="3.0463625e-13"
         y="1.9673428e-14"
         ry="5.9030401e-05" />
      <circle
         r="45"
         cy="60"
         cx="60"
         id="path4162-3"
         style="color:#000000;clip-rule:nonzero;display:inline;overflow:visible;visibility:visible;opacity:1;isolation:auto;mix-blend-mode:normal;color-interpolation:sRGB;color-interpolation-filters:linearRGB;solid-color:#000000;solid-opacity:1;fill:#cec2b2;fill-opacity:1;fill-rule:nonzero;stroke:none;stroke-width:0;stroke-linecap:butt;stroke-linejoin:miter;stroke-miterlimit:4;stroke-dasharray:none;stroke-dashoffset:0;stroke-opacity:1;color-rendering:auto;image-rendering:auto;shape-rendering:auto;text-rendering:auto;enable-background:accumulate" />
      <circle
         r="40"
         cy="60"
         cx="60"
         id="path4162-3-1"
         style="color:#000000;clip-rule:nonzero;display:inline;overflow:visible;visibility:visible;opacity:1;isolation:auto;mix-blend-mode:normal;color-interpolation:sRGB;color-interpolation-filters:linearRGB;solid-color:#000000;solid-opacity:1;fill:#26231c;fill-opacity:1;fill-rule:nonzero;stroke:none;stroke-width:0;stroke-linecap:butt;stroke-linejoin:miter;stroke-miterlimit:4;stroke-dasharray:none;stroke-dashoffset:0;stroke-opacity:1;color-rendering:auto;image-rendering:auto;shape-rendering:auto;text-rendering:auto;enable-background:accumulate" />
      <path
         d="m 40.369334,36.462501 q -0.125,0 -0.275,-0.125 -0.15,-0.125 -0.15,-0.275 l 0,-1.525 q 0,-0.125 0.15,-0.25 0.15,-0.125 0.275,-0.125 l 15.775,0 q 0.15,0 0.25,0.125 0.125,0.1 0.125,0.25 l 0,1.55 q 0,0.15 -0.125,0.275 -0.1,0.1 -0.25,0.1 l -2.5,0 0,6.75 2.975,0 q 0.15,0 0.25,0.125 0.125,0.1 0.125,0.25 l 0,1.55 q 0,0.15 -0.125,0.275 -0.1,0.1 -0.25,0.1 l -16.725,0 q -0.125,0 -0.275,-0.125 -0.125,-0.125 -0.125,-0.275 l 0,-1.525 q 0,-0.125 0.125,-0.25 0.15,-0.125 0.275,-0.125 l 2.975,0 0,-6.75 -2.5,0 z m 19.15,15.025 q 0,0.125 -0.125,0.25 -0.125,0.125 -0.25,0.125 l -21.775,0 q -0.15,0 -0.25,-0.125 -0.1,-0.125 -0.1,-0.25 l 0,-1.65 q 0,-0.15 0.1,-0.25 0.1,-0.125 0.25,-0.125 l 21.775,0 q 0.125,0 0.25,0.125 0.125,0.125 0.125,0.25 l 0,1.65 z m -13.85,-15.025 0,6.75 5.175,0 0,-6.75 -5.175,0 z"
         style="font-style:normal;font-variant:normal;font-weight:600;font-stretch:normal;font-size:25px;font-family:NanumGothic;-inkscape-font-specification:'NanumGothic Semi-Bold';fill:#cec2b2;fill-opacity:1"
         id="path4205" />
      <path
         d="m 79.855663,42.012501 q 0,0.125 -0.125,0.25 -0.1,0.125 -0.2,0.125 l -6.35,0 0,2 9.425,0 q 0.125,0 0.25,0.125 0.125,0.1 0.125,0.225 l 0,1.625 q 0,0.125 -0.125,0.25 -0.125,0.125 -0.25,0.125 l -21.75,0 q -0.15,0 -0.25,-0.1 -0.1,-0.125 -0.1,-0.275 l 0,-1.625 q 0,-0.35 0.35,-0.35 l 9.45,0 0,-2 -4.475,0 q -0.975,0 -1.325,-0.35 -0.35,-0.375 -0.35,-1.175 l 0,-2.9 q 0,-0.8 0.325,-1.15 0.35,-0.35 1.325,-0.35 l 10.475,0 q 0.2,0 0.25,-0.05 0.05,-0.075 0.05,-0.3 l 0,-0.925 q 0,-0.2 -0.05,-0.225 -0.05,-0.05 -0.275,-0.05 l -11.675,0 q -0.125,0 -0.25,-0.1 -0.1,-0.1 -0.1,-0.225 l 0,-1.6 q 0,-0.125 0.1,-0.225 0.125,-0.1 0.25,-0.1 l 13.1,0 q 1.025,0 1.35,0.325 0.35,0.3 0.35,1.15 l 0,2.925 q 0,0.875 -0.35,1.2 -0.325,0.3 -1.35,0.3 l -10.375,0 q -0.225,0 -0.275,0.075 -0.05,0.05 -0.05,0.25 l 0,0.95 q 0,0.225 0.05,0.275 0.05,0.025 0.3,0.025 l 12.175,0 q 0.125,0 0.225,0.1 0.125,0.075 0.125,0.225 l 0,1.55 z m -0.425,12.075 q 0,0.95 -0.475,1.35 -0.475,0.4 -1.425,0.4 l -11.6,0 q -1.125,0 -1.525,-0.4 -0.375,-0.375 -0.375,-1.35 l 0,-3.975 q 0,-0.95 0.475,-1.35 0.475,-0.425 1.425,-0.425 l 11.6,0 q 1.125,0 1.5,0.4 0.4,0.375 0.4,1.375 l 0,3.975 z m -2.875,-3 q 0,-0.4 -0.325,-0.4 l -9,0 q -0.2,0 -0.275,0.1 -0.05,0.075 -0.05,0.275 l 0,2.1 q 0,0.225 0.05,0.275 0.075,0.05 0.275,0.05 l 9,0 q 0.2,0 0.25,-0.05 0.075,-0.05 0.075,-0.275 l 0,-2.075 z"
         style="font-style:normal;font-variant:normal;font-weight:600;font-stretch:normal;font-size:25px;font-family:NanumGothic;-inkscape-font-specification:'NanumGothic Semi-Bold';fill:#cec2b2;fill-opacity:1"
         id="path4207" />
      <path
         d="m 54.669334,63.937501 q 0,-0.325 0.325,-0.325 l 2.225,0 q 0.325,0 0.325,0.325 l 0,23.075 q 0,0.325 -0.325,0.325 l -2.225,0 q -0.325,0 -0.325,-0.325 l 0,-13.25 -5.925,0 q -0.1,0 -0.25,-0.1 -0.125,-0.1 -0.125,-0.3 l 0,-1.625 q 0,-0.175 0.125,-0.275 0.15,-0.1 0.25,-0.1 l 5.925,0 0,-7.425 z m -2.275,15.175 q 0.05,0.275 -0.075,0.375 -0.1,0.075 -0.225,0.125 -1,0.3 -2.5,0.525 -1.475,0.2 -3.075,0.325 -1.575,0.125 -3.1,0.175 -1.5,0.025 -2.525,-0.05 -0.925,-0.05 -1.375,-0.4 -0.425,-0.375 -0.425,-1.275 l 0,-11.85 q 0,-0.875 0.35,-1.225 0.375,-0.35 1.325,-0.35 l 8.825,0 q 0.35,0 0.35,0.325 l 0,1.75 q 0,0.325 -0.35,0.325 l -7.175,0 q -0.45,0 -0.45,0.425 l 0,9.125 q 0,0.4 0.125,0.525 0.15,0.1 0.625,0.15 0.775,0.05 1.85,0.025 1.075,-0.025 2.275,-0.125 1.225,-0.1 2.475,-0.25 1.25,-0.15 2.375,-0.35 0.375,-0.125 0.45,0.275 l 0.25,1.425 z"
         style="font-style:normal;font-variant:normal;font-weight:600;font-stretch:normal;font-size:25px;font-family:NanumGothic;-inkscape-font-specification:'NanumGothic Semi-Bold';fill:#cec2b2;fill-opacity:1"
         id="path4209" />
      <path
         d="m 81.155663,86.612501 q 0,0.15 -0.125,0.225 -0.1,0.075 -0.225,0.075 l -13.075,0 q -1.125,0 -1.525,-0.4 -0.4,-0.4 -0.4,-1.375 l 0,-5.45 q 0,-0.125 0.1,-0.225 0.125,-0.125 0.275,-0.125 l 2.15,0 q 0.15,0 0.275,0.125 0.125,0.1 0.125,0.225 l 0,4.425 q 0,0.25 0.1,0.325 0.1,0.075 0.35,0.075 l 11.625,0 q 0.125,0 0.225,0.1 0.125,0.1 0.125,0.225 l 0,1.775 z m -0.75,-6.45 q 0,0.325 -0.35,0.325 l -2.2,0 q -0.125,0 -0.25,-0.1 -0.1,-0.1 -0.1,-0.25 l 0,-16.2 q 0,-0.125 0.1,-0.225 0.125,-0.1 0.25,-0.1 l 2.2,0 q 0.35,0 0.35,0.325 l 0,16.225 z m -9.6,-9.05 -5.425,0 0,2.875 q 0,0.425 0.45,0.425 l 4.525,0 q 0.45,0 0.45,-0.425 l 0,-2.875 z m 2.85,3.975 q 0,0.85 -0.4,1.275 -0.4,0.4 -1.475,0.4 l -7.35,0 q -1.1,0 -1.5,-0.375 -0.4,-0.375 -0.4,-1.375 l 0,-10.05 q 0,-0.125 0.1,-0.2 0.1,-0.1 0.225,-0.1 l 2.175,0 q 0.125,0 0.225,0.1 0.125,0.075 0.125,0.2 l 0,3.825 5.425,0 0,-3.85 q 0,-0.125 0.1,-0.225 0.1,-0.1 0.225,-0.1 l 2.2,0 q 0.125,0 0.225,0.1 0.1,0.1 0.1,0.225 l 0,10.15 z"
         style="font-style:normal;font-variant:normal;font-weight:600;font-stretch:normal;font-size:25px;font-family:NanumGothic;-inkscape-font-specification:'NanumGothic Semi-Bold';fill:#cec2b2;fill-opacity:1"
         id="path4211" />
    </g>
  </g>
</svg>
