<?xml version="1.0" encoding="UTF-8" standalone="no"?>
<svg
   xmlns:dc="http://purl.org/dc/elements/1.1/"
   xmlns:cc="http://creativecommons.org/ns#"
   xmlns:rdf="http://www.w3.org/1999/02/22-rdf-syntax-ns#"
   xmlns:svg="http://www.w3.org/2000/svg"
   xmlns="http://www.w3.org/2000/svg"
   viewBox="0 0 587.84125 587.90503"
   height="587.90503"
   width="587.84125"
   xml:space="preserve"
   version="1.1"
   id="svg2"><metadata
     id="metadata8"><rdf:RDF><cc:Work
         rdf:about=""><dc:format>image/svg+xml</dc:format><dc:type
           rdf:resource="http://purl.org/dc/dcmitype/StillImage" /><dc:title></dc:title></cc:Work></rdf:RDF></metadata><defs
     id="defs6"><clipPath
       id="clipPath16"
       clipPathUnits="userSpaceOnUse"><path
         id="path18"
         d="m 0,630 595.275,0 0,-630 L 0,0 0,630 Z" /></clipPath></defs><g
     transform="matrix(1.25,0,0,-1.25,-78.126625,706.5085)"
     id="g10"><g
       id="g12"><g
         clip-path="url(#clipPath16)"
         id="g14"><g
           transform="translate(297.6543,94.8828)"
           id="g20"><path
             id="path22"
             style="fill:#b20d35;fill-opacity:1;fill-rule:nonzero;stroke:none"
             d="m 0,0 c 129.821,0 235.12,105.324 235.12,235.204 0,129.821 -105.299,235.12 -235.12,235.12 -129.888,0 -235.153,-105.299 -235.153,-235.12 C -235.153,105.324 -129.888,0 0,0" /></g><g
           transform="translate(297.6543,116.2998)"
           id="g24"><path
             id="path26"
             style="fill:none;stroke:#ffffff;stroke-width:1.04999995;stroke-linecap:butt;stroke-linejoin:miter;stroke-miterlimit:4;stroke-dasharray:none;stroke-opacity:1"
             d="m 0,0 c 118.043,0 213.763,95.686 213.763,213.787 0,118.043 -95.72,213.737 -213.763,213.737 -118.101,0 -213.795,-95.694 -213.795,-213.737 C -213.795,95.686 -118.101,0 0,0 Z" /></g><g
           transform="translate(169.7036,292.5166)"
           id="g28"><path
             id="path30"
             style="fill:#ffffff;fill-opacity:1;fill-rule:nonzero;stroke:none"
             d="m 0,0 c 0,-4.383 0.635,-7.26 2.869,-8.529 l -24.802,0 c 2.175,1.269 2.902,4.146 2.902,8.529 l 0,25.386 -23.925,0 0,-25.386 c 0,-4.383 0.668,-7.26 2.873,-8.529 l -24.772,0 c 2.183,1.269 2.876,4.146 2.876,8.529 l 0,65.038 c 0,4.383 -0.693,7.26 -2.876,8.529 l 24.772,0 c -2.205,-1.269 -2.873,-4.146 -2.873,-8.529 l 0,-21.925 23.925,0 0,21.925 c 0,4.383 -0.727,7.26 -2.902,8.529 l 24.802,0 C 0.635,72.298 0,69.421 0,65.038 L 0,0 Z" /></g><g
           transform="translate(223.876,348.9063)"
           id="g32"><path
             id="path34"
             style="fill:#ffffff;fill-opacity:1;fill-rule:nonzero;stroke:none"
             d="m 0,0 c 15.342,0 24.446,-11.771 24.446,-23.896 0,-12.1 -9.104,-23.863 -24.446,-23.863 -15.307,0 -24.446,11.763 -24.446,23.863 C -24.446,-11.771 -15.307,0 0,0 m 0,19.022 c -23.498,0 -44.247,-18.244 -44.247,-42.918 0,-24.658 20.749,-42.893 44.247,-42.893 23.499,0 44.281,18.235 44.281,42.893 C 44.281,0.778 23.499,19.022 0,19.022" /></g><g
           transform="translate(275.1123,283.9873)"
           id="g36"><path
             id="path38"
             style="fill:#ffffff;fill-opacity:1;fill-rule:nonzero;stroke:none"
             d="m 0,0 c 2.184,1.27 2.877,4.146 2.877,8.529 l 0,65.038 c 0,4.383 -0.693,7.26 -2.877,8.53 l 24.776,0 c -2.174,-1.27 -2.877,-4.147 -2.877,-8.53 l 0,-55.831 16.247,0 c 3.596,0 6.355,1.388 8.648,4.044 L 46.794,0 0,0 Z" /></g><g
           transform="translate(331.0107,283.9873)"
           id="g40"><path
             id="path42"
             style="fill:#ffffff;fill-opacity:1;fill-rule:nonzero;stroke:none"
             d="m 0,0 c 2.209,1.27 2.877,4.146 2.877,8.529 l 0,65.038 c 0,4.383 -0.668,7.26 -2.877,8.53 l 24.776,0 c -2.149,-1.27 -2.877,-4.147 -2.877,-8.53 l 0,-55.831 16.281,0 c 3.562,0 6.346,1.388 8.648,4.044 L 46.828,0 0,0 Z" /></g><g
           transform="translate(483.4082,344.2773)"
           id="g44"><path
             id="path46"
             style="fill:#ffffff;fill-opacity:1;fill-rule:nonzero;stroke:none"
             d="M 0,0 C -2.843,2.446 -6.354,5.864 -11.889,5.864 -16.492,5.864 -17.55,3.689 -17.668,1.6 -18.159,-7.59 8.377,-10.737 7.015,-35.514 6.109,-51.879 -5.636,-62.16 -23.27,-62.16 c -4.586,0 -8.461,1.422 -11.999,1.422 -1.844,0 -4.239,-0.822 -5.296,-1.422 l 1.514,27.467 c 3.986,-5.415 8.352,-9.68 15.274,-9.68 6.227,0 10.704,3.808 11.034,9.553 0.702,13.252 -25.919,15.552 -24.793,35.387 0.693,12.803 9.578,23.084 23.041,23.084 4.992,0 7.776,-1.422 11.228,-1.422 1.871,0 3.022,0.119 4.35,1.422 l 0.246,0 L 0,0 Z" /></g><g
           transform="translate(394.5088,284.0215)"
           id="g48"><path
             id="path50"
             style="fill:#ffffff;fill-opacity:1;fill-rule:nonzero;stroke:none"
             d="m 0,0 c 2.149,1.235 2.843,4.112 2.843,8.47 l 0,28.609 -17.906,28.711 c -3.299,5.391 -9.171,13.396 -10.923,15.908 l 28.372,0 C 1.27,80.675 0.448,79.676 0.448,78.043 c 0,-1.125 0.635,-2.514 2.057,-5.018 l 10.102,-18.277 0.247,0 9.621,18.599 c 1.15,2.182 1.751,3.452 1.751,4.696 0,1.633 -0.821,2.632 -1.972,3.655 l 29.287,0 C 50.06,80.463 48.545,78.736 46.912,76.342 L 21.78,37.079 21.78,8.47 C 21.78,4.112 22.475,1.235 24.649,0 L 0,0 Z" /></g><g
           transform="translate(207.7563,198.1504)"
           id="g52"><path
             id="path54"
             style="fill:#ffffff;fill-opacity:1;fill-rule:nonzero;stroke:none"
             d="M 0,0 C -0.237,0.152 -0.964,0.694 -1.54,0.694 -2.479,0.694 -5.602,0 -8.377,0 c -11.44,0 -19.479,8.166 -19.479,19.057 0,10.881 8.039,19.055 19.479,19.055 2.623,0 5.043,-1.032 6.194,-1.032 0.948,0 1.641,0.49 2.183,1.032 L 0,26.224 c -2.301,2.055 -4.722,3.418 -8.377,3.418 -6.059,0 -10.679,-3.875 -10.679,-10.585 0,-6.026 4.654,-10.595 10.679,-10.595 3.503,0 5.923,1.126 8.377,3.089 L 0,0 Z" /></g><g
           transform="translate(243.4141,227.792)"
           id="g56"><path
             id="path58"
             style="fill:#ffffff;fill-opacity:1;fill-rule:nonzero;stroke:none"
             d="M 0,0 C 6.838,0 10.865,-5.203 10.865,-10.585 10.865,-15.941 6.838,-21.18 0,-21.18 c -6.769,0 -10.856,5.239 -10.856,10.595 C -10.856,-5.203 -6.769,0 0,0 m 0,8.471 c -10.433,0 -19.665,-8.081 -19.665,-19.056 0,-10.95 9.232,-19.057 19.665,-19.057 10.468,0 19.666,8.107 19.666,19.057 C 19.666,0.39 10.468,8.471 0,8.471" /></g><g
           transform="translate(297.0791,225.7617)"
           id="g60"><path
             id="path62"
             style="fill:#ffffff;fill-opacity:1;fill-rule:nonzero;stroke:none"
             d="m 0,0 c -0.762,0.905 -1.396,1.785 -2.843,1.785 l -7.903,0 0,-6.38 5.754,0 c 1.422,0 2.081,0.88 2.877,1.785 l 0,-11.499 c -0.796,0.973 -1.455,1.82 -2.877,1.82 l -5.754,0 0,-10.502 c 0,-1.929 0.305,-3.233 1.277,-3.774 l -10.983,0 c 0.973,0.541 1.278,1.845 1.278,3.774 l 0,31.343 c 0,0.457 -0.161,0.939 -0.373,1.329 L 0,9.681 0,0 Z" /></g><g
           transform="translate(336.0713,225.7617)"
           id="g64"><path
             id="path66"
             style="fill:#ffffff;fill-opacity:1;fill-rule:nonzero;stroke:none"
             d="m 0,0 c -0.762,0.905 -1.43,1.785 -2.877,1.785 l -7.869,0 0,-6.38 5.72,0 c 1.422,0 2.082,0.88 2.842,1.785 l 0,-11.499 c -0.76,0.973 -1.42,1.82 -2.842,1.82 l -5.72,0 0,-10.502 c 0,-1.929 0.305,-3.233 1.268,-3.774 l -11,0 c 0.965,0.541 1.261,1.845 1.261,3.774 l 0,31.343 c 0,0.457 -0.143,0.939 -0.364,1.329 L 0,9.681 0,0 Z" /></g><g
           transform="translate(353.5195,231.6592)"
           id="g68"><path
             id="path70"
             style="fill:#ffffff;fill-opacity:1;fill-rule:nonzero;stroke:none"
             d="m 0,0 c 0,1.761 -0.271,2.996 -1.455,3.689 l 0,0.094 22.263,0 0,-9.68 c -1.024,1.184 -2.243,1.785 -3.842,1.785 l -8.529,0 0,-6.38 5.745,0 c 1.422,0 2.09,0.88 2.843,1.785 l 0,-11.499 c -0.753,0.973 -1.421,1.819 -2.843,1.819 l -5.745,0 0,-6.414 8.681,0 c 1.6,0 2.844,0.634 3.876,1.82 l 0,-9.681 -22.297,0 C -0.305,-32.121 0,-30.817 0,-28.889 L 0,0 Z" /></g><g
           transform="translate(398.1299,231.6592)"
           id="g72"><path
             id="path74"
             style="fill:#ffffff;fill-opacity:1;fill-rule:nonzero;stroke:none"
             d="m 0,0 c 0,1.761 -0.236,2.996 -1.421,3.689 l 0,0.094 22.272,0 0,-9.68 c -0.999,1.184 -2.277,1.785 -3.817,1.785 l -8.589,0 0,-6.38 5.754,0 c 1.413,0 2.115,0.88 2.868,1.785 l 0,-11.499 c -0.753,0.973 -1.455,1.819 -2.868,1.819 l -5.754,0 0,-6.414 8.742,0 c 1.573,0 2.784,0.634 3.841,1.82 l 0,-9.681 -22.297,0 C -0.305,-32.121 0,-30.817 0,-28.889 L 0,0 Z" /></g><g
           transform="translate(246.0205,483.0259)"
           id="g76"><path
             id="path78"
             style="fill:#ffffff;fill-opacity:1;fill-rule:nonzero;stroke:none"
             d="m 0,0 c 3.749,0 6.744,3.021 6.744,6.77 0,3.723 -2.995,6.752 -6.744,6.752 -3.723,0 -6.752,-3.029 -6.752,-6.752 C -6.752,3.021 -3.723,0 0,0" /></g><g
           transform="translate(351.0146,482.5352)"
           id="g80"><path
             id="path82"
             style="fill:#ffffff;fill-opacity:1;fill-rule:nonzero;stroke:none"
             d="m 0,0 c 3.715,0 6.736,3.063 6.736,6.778 0,3.723 -3.021,6.719 -6.736,6.719 -3.757,0 -6.786,-2.996 -6.786,-6.719 C -6.786,3.063 -3.757,0 0,0" /></g><g
           transform="translate(297.1299,484.5322)"
           id="g84"><path
             id="path86"
             style="fill:#ffffff;fill-opacity:1;fill-rule:nonzero;stroke:none"
             d="M 0,0 -9.73,-5.077 -7.853,5.695 -15.722,13.37 -4.865,14.943 0,24.776 4.849,14.943 15.672,13.37 7.845,5.695 9.689,-5.077 0,0 Z" /></g><g
           transform="translate(245.3779,474.3105)"
           id="g88"><path
             id="path90"
             style="fill:none;stroke:#ffffff;stroke-width:1.04999995;stroke-linecap:butt;stroke-linejoin:miter;stroke-miterlimit:4;stroke-dasharray:none;stroke-opacity:1"
             d="m 0,0 27.526,-23.592 24.446,19.962 26.672,-20.537 27.805,23.016 0,-72.738 L 0,-73.889 0,0 Z" /></g><g
           transform="translate(324.0215,450.1436)"
           id="g92"><path
             id="path94"
             style="fill:none;stroke:#ffffff;stroke-width:1.04999995;stroke-linecap:butt;stroke-linejoin:miter;stroke-miterlimit:4;stroke-dasharray:none;stroke-opacity:1"
             d="M 0,0 0,-48.969" /></g><g
           transform="translate(272.4551,450.1436)"
           id="g96"><path
             id="path98"
             style="fill:none;stroke:#ffffff;stroke-width:1.04999995;stroke-linecap:butt;stroke-linejoin:miter;stroke-miterlimit:4;stroke-dasharray:none;stroke-opacity:1"
             d="M 0,0 0,-48.969" /></g></g></g></g></svg>