<?xml version="1.0" encoding="UTF-8" standalone="no"?>
<svg
   xmlns:dc="http://purl.org/dc/elements/1.1/"
   xmlns:cc="http://creativecommons.org/ns#"
   xmlns:rdf="http://www.w3.org/1999/02/22-rdf-syntax-ns#"
   xmlns:svg="http://www.w3.org/2000/svg"
   xmlns="http://www.w3.org/2000/svg"
   id="svg2"
   version="1.1"
   xml:space="preserve"
   width="120"
   height="120"
   viewBox="0 0 120 120"><metadata
     id="metadata8"><rdf:RDF><cc:Work
         rdf:about=""><dc:format>image/svg+xml</dc:format><dc:type
           rdf:resource="http://purl.org/dc/dcmitype/StillImage" /><dc:title></dc:title></cc:Work></rdf:RDF></metadata><defs
     id="defs6"><clipPath
       clipPathUnits="userSpaceOnUse"
       id="clipPath16"><path
         d="m 0,630 595.275,0 0,-630 L 0,0 0,630 Z"
         id="path18" /></clipPath></defs><g
     id="text4277"
     style="font-style:normal;font-weight:normal;font-size:33.87895203px;line-height:125%;font-family:sans-serif;letter-spacing:0px;word-spacing:0px;fill:#000000;fill-opacity:1;stroke:none;stroke-width:1px;stroke-linecap:butt;stroke-linejoin:miter;stroke-opacity:1"><g
       id="g4357"><g
         style=""
         transform="translate(-4.5258788e-5,-2.6171874e-6)"
         id="g4155"><circle
           style="color:#000000;clip-rule:nonzero;display:inline;overflow:visible;visibility:visible;opacity:1;isolation:auto;mix-blend-mode:normal;color-interpolation:sRGB;color-interpolation-filters:linearRGB;solid-color:#000000;solid-opacity:1;fill:#ffdd55;fill-opacity:1;fill-rule:nonzero;stroke:none;stroke-width:0;stroke-linecap:butt;stroke-linejoin:miter;stroke-miterlimit:4;stroke-dasharray:none;stroke-dashoffset:0;stroke-opacity:1;color-rendering:auto;image-rendering:auto;shape-rendering:auto;text-rendering:auto;enable-background:accumulate"
           id="path4162"
           cx="60.000031"
           cy="60.000034"
           r="50" /><g
           style="font-style:normal;font-weight:normal;font-size:28.85059738px;line-height:125%;font-family:sans-serif;letter-spacing:0px;word-spacing:0px;fill:#808000;fill-opacity:1;stroke:none;stroke-width:1px;stroke-linecap:butt;stroke-linejoin:miter;stroke-opacity:1"
           id="text4462"><path
             d="m 36.964183,61.745484 q -3.981383,0.663564 -8.135869,0.836667 -4.154486,0.144253 -8.280121,0.08655 -0.346207,-0.02885 -0.46161,-0.173103 -0.08655,-0.144253 -0.08655,-0.46161 l 0,-2.019542 q 0,-0.317356 0.115402,-0.461609 0.115402,-0.144253 0.432759,-0.115403 1.586783,0.02885 3.144715,0.0577 1.557932,0 3.115865,-0.02885 l 0,-1.990691 q -2.163795,-0.46161 -3.490923,-1.875289 -1.327127,-1.413679 -1.327127,-3.433221 0,-1.125173 0.49046,-2.077243 0.519311,-0.980921 1.413679,-1.702185 0.894369,-0.721265 2.106094,-1.125174 1.240575,-0.432759 2.711956,-0.432759 1.47138,0 2.711956,0.432759 1.240576,0.403909 2.134944,1.125174 0.923219,0.721264 1.41368,1.702185 0.51931,0.95207 0.51931,2.077243 0,1.990691 -1.327127,3.40437 -1.298277,1.41368 -3.433221,1.90414 l 0,1.846438 q 2.885059,-0.173104 5.770119,-0.605863 0.403909,-0.0577 0.548162,0 0.144253,0.0577 0.201954,0.403909 l 0.230805,2.019542 q 0.0577,0.346207 -0.08655,0.461609 -0.144253,0.08655 -0.432759,0.144253 z m -3.577474,12.117251 q -2.077243,0 -3.779429,-0.375058 -1.673334,-0.375057 -2.856209,-1.067472 -1.182874,-0.663564 -1.817587,-1.586783 -0.634713,-0.923219 -0.634713,-2.048392 0,-1.096323 0.634713,-2.019542 0.634713,-0.95207 1.817587,-1.615633 1.182875,-0.692415 2.856209,-1.067472 1.702186,-0.375058 3.779429,-0.375058 2.077243,0 3.750577,0.375058 1.702186,0.375057 2.88506,1.067472 1.182875,0.663563 1.817588,1.615633 0.634713,0.923219 0.634713,2.019542 0,1.125173 -0.634713,2.048392 -0.634713,0.923219 -1.817588,1.586783 -1.182874,0.692415 -2.88506,1.067472 -1.673334,0.375058 -3.750577,0.375058 z m 12.261504,-16.964151 -3.404371,0 0,5.597016 q 0,0.577012 -0.548161,0.577012 l -2.913911,0 q -0.548161,0 -0.548161,-0.577012 l 0,-15.810128 q 0,-0.317356 0.115402,-0.432759 0.115403,-0.115402 0.432759,-0.115402 l 2.913911,0 q 0.317356,0 0.432759,0.115402 0.115402,0.115403 0.115402,0.432759 l 0,6.924144 3.404371,0 q 0.259655,0 0.403908,0.08655 0.173104,0.0577 0.173104,0.432759 l 0,2.221496 q 0,0.548162 -0.577012,0.548162 z m -12.261504,9.866904 q -2.538853,0 -3.808279,0.634713 -1.240576,0.634713 -1.240576,1.41368 0,0.807816 1.240576,1.413679 1.269426,0.634713 3.808279,0.634713 2.538852,0 3.808279,-0.634713 1.269426,-0.605863 1.269426,-1.413679 0,-0.778967 -1.269426,-1.41368 -1.269427,-0.634713 -3.808279,-0.634713 z M 28.712912,50.032142 q -1.298277,0 -2.134944,0.634713 -0.836668,0.634713 -0.836668,1.557932 0,0.98092 0.836668,1.644484 0.836667,0.634713 2.134944,0.634713 1.298277,0 2.163795,-0.634713 0.865518,-0.663564 0.865518,-1.644484 0,-0.923219 -0.865518,-1.557932 -0.836668,-0.634713 -2.163795,-0.634713 z"
             style="font-style:normal;font-variant:normal;font-weight:bold;font-stretch:normal;font-family:sans-serif;-inkscape-font-specification:'sans-serif Bold';fill:#808000;fill-opacity:1"
             id="path4149" /><path
             d="m 50.479336,62.726404 q -0.49046,0.115403 -0.605863,0 -0.115402,-0.115402 -0.230804,-0.432759 l -0.807817,-2.134944 q -0.173104,-0.548161 0.461609,-0.721265 4.039084,-1.009771 6.981845,-2.221496 2.971612,-1.240575 4.702647,-2.336898 0.46161,-0.288506 0.375058,-0.49046 -0.0577,-0.201954 -0.548161,-0.201954 l -9.376444,0 q -0.317357,0 -0.432759,-0.115403 -0.115403,-0.115402 -0.115403,-0.461609 l 0,-2.163795 q 0,-0.317357 0.115403,-0.403908 0.115402,-0.115403 0.432759,-0.115403 l 13.963689,0 q 1.47138,0 2.019542,0.577012 0.577012,0.548161 0.51931,1.240576 -0.08655,1.038621 -1.009771,2.221496 -0.923219,1.154024 -2.625404,2.308048 1.355978,0.49046 3.115865,0.952069 1.788737,0.46161 3.577474,0.836668 0.403908,0.08655 0.51931,0.259655 0.115403,0.144253 -0.02885,0.548161 l -0.692414,2.019542 q -0.144253,0.403908 -0.375058,0.46161 -0.201954,0.0577 -0.519311,0 -1.096323,-0.201954 -2.279197,-0.49046 -1.182875,-0.317357 -2.42345,-0.692415 -1.240576,-0.375058 -2.481152,-0.778966 -1.211725,-0.432759 -2.336898,-0.894368 -2.077243,0.952069 -4.558395,1.788737 -2.4523,0.836667 -5.33736,1.442529 z m 21.839902,6.520235 -24.782663,0 q -0.375058,0 -0.49046,-0.173103 -0.08655,-0.173104 -0.08655,-0.432759 l 0,-2.077243 q 0,-0.317357 0.08655,-0.46161 0.115402,-0.144253 0.49046,-0.144253 l 10.443916,0 0,-3.519773 q 0,-0.317356 0.115403,-0.432758 0.115402,-0.144253 0.461609,-0.144253 l 2.827359,0 q 0.346207,0 0.461609,0.144253 0.115403,0.115402 0.115403,0.432758 l 0,3.519773 10.357364,0 q 0.605863,0 0.605863,0.605863 l 0,2.077243 q 0,0.605862 -0.605863,0.605862 z m -8.68403,-19.762659 -8.135868,0 q -0.230805,0 -0.432759,-0.08655 -0.173104,-0.115402 -0.173104,-0.51931 l 0,-2.019542 q 0,-0.403908 0.173104,-0.49046 0.201954,-0.115403 0.432759,-0.115403 l 8.135868,0 q 0.634714,0 0.634714,0.634713 l 0,1.961841 q 0,0.634713 -0.634714,0.634713 z"
             style="font-style:normal;font-variant:normal;font-weight:bold;font-stretch:normal;font-family:sans-serif;-inkscape-font-specification:'sans-serif Bold';fill:#808000;fill-opacity:1"
             id="path4151" /><path
             d="m 93.768306,73.14147 -13.415528,0 q -0.692414,0 -1.125173,-0.08655 -0.432759,-0.08655 -0.692415,-0.317356 -0.230805,-0.201954 -0.346207,-0.605863 -0.08655,-0.403908 -0.08655,-1.067472 l 0,-8.914834 q 0,-0.519311 0.548162,-0.519311 l 2.856209,0 q 0.317356,0 0.461609,0.115402 0.144253,0.08655 0.144253,0.403909 l 0,2.308047 9.838054,0 0,-2.42345 q 0,-0.317356 0.144253,-0.432759 0.173104,-0.115402 0.432759,-0.115402 l 2.91391,0 q 0.259656,0 0.375058,0.115402 0.144253,0.115403 0.144253,0.432759 l 0,9.116789 q 0,1.125173 -0.432759,1.557932 -0.403908,0.432759 -1.759886,0.432759 z m 5.625866,-13.675183 -24.753812,0 q -0.403909,0 -0.490461,-0.144253 -0.08655,-0.144253 -0.08655,-0.46161 l 0,-2.019541 q 0,-0.346208 0.115402,-0.46161 0.115402,-0.144253 0.46161,-0.144253 l 17.252657,0 q 0.115402,-0.634713 0.201954,-1.44253 0.115402,-0.836667 0.201954,-1.586783 0.08655,-0.778966 0.115403,-1.384828 0.0577,-0.634713 0.0577,-0.894369 0,-0.432759 -0.115403,-0.605862 -0.115402,-0.201955 -0.663563,-0.201955 l -13.04047,0 q -0.288506,0 -0.46161,-0.0577 -0.144253,-0.08655 -0.144253,-0.461609 l 0,-2.250347 q 0,-0.317357 0.144253,-0.403908 0.173104,-0.08655 0.46161,-0.08655 l 15.723575,0 q 1.038622,0 1.529082,0.461609 0.49046,0.432759 0.49046,1.529082 0,1.529082 -0.144253,3.462072 -0.144253,1.904139 -0.548161,3.923681 l 3.692876,0 q 0.259656,0 0.432759,0.144253 0.173099,0.115402 0.173099,0.46161 l 0,2.019541 q 0,0.605863 -0.605858,0.605863 z m -7.443454,8.19357 -9.838054,0 0,1.96184 q 0,0.259656 0.259656,0.259656 l 9.318743,0 q 0.259655,0 0.259655,-0.259656 l 0,-1.96184 z"
             style="font-style:normal;font-variant:normal;font-weight:bold;font-stretch:normal;font-family:sans-serif;-inkscape-font-specification:'sans-serif Bold';fill:#808000;fill-opacity:1"
             id="path4153" /></g><rect
           ry="5.9030401e-05"
           y="2.6171874e-06"
           x="4.5258788e-05"
           height="120"
           width="120"
           id="rect9899-1-2-6-8-8-9-2-2-95"
           style="color:#000000;clip-rule:nonzero;display:inline;overflow:visible;visibility:visible;opacity:1;isolation:auto;mix-blend-mode:normal;color-interpolation:sRGB;color-interpolation-filters:linearRGB;solid-color:#000000;solid-opacity:1;fill:#e85c41;fill-opacity:0;fill-rule:nonzero;stroke:none;stroke-width:0;stroke-linecap:butt;stroke-linejoin:miter;stroke-miterlimit:4;stroke-dasharray:none;stroke-dashoffset:0;stroke-opacity:1;color-rendering:auto;image-rendering:auto;shape-rendering:auto;text-rendering:auto;enable-background:accumulate" /></g><g
         style=""
         id="g4198"
         transform="translate(-4.5258788e-5,-2.6171874e-6)"><circle
           r="50"
           cy="60.000034"
           cx="60.000031"
           id="circle4200"
           style="color:#000000;clip-rule:nonzero;display:inline;overflow:visible;visibility:visible;opacity:1;isolation:auto;mix-blend-mode:normal;color-interpolation:sRGB;color-interpolation-filters:linearRGB;solid-color:#000000;solid-opacity:1;fill:#ffdd55;fill-opacity:1;fill-rule:nonzero;stroke:none;stroke-width:0;stroke-linecap:butt;stroke-linejoin:miter;stroke-miterlimit:4;stroke-dasharray:none;stroke-dashoffset:0;stroke-opacity:1;color-rendering:auto;image-rendering:auto;shape-rendering:auto;text-rendering:auto;enable-background:accumulate" /><g
           id="g4202"
           style="font-style:normal;font-weight:normal;font-size:28.85059738px;line-height:125%;font-family:sans-serif;letter-spacing:0px;word-spacing:0px;fill:#808000;fill-opacity:1;stroke:none;stroke-width:1px;stroke-linecap:butt;stroke-linejoin:miter;stroke-opacity:1"><path
             id="path4204"
             style="font-style:normal;font-variant:normal;font-weight:bold;font-stretch:normal;font-family:sans-serif;-inkscape-font-specification:'sans-serif Bold';fill:#808000;fill-opacity:1"
             d="m 36.964183,61.745484 q -3.981383,0.663564 -8.135869,0.836667 -4.154486,0.144253 -8.280121,0.08655 -0.346207,-0.02885 -0.46161,-0.173103 -0.08655,-0.144253 -0.08655,-0.46161 l 0,-2.019542 q 0,-0.317356 0.115402,-0.461609 0.115402,-0.144253 0.432759,-0.115403 1.586783,0.02885 3.144715,0.0577 1.557932,0 3.115865,-0.02885 l 0,-1.990691 q -2.163795,-0.46161 -3.490923,-1.875289 -1.327127,-1.413679 -1.327127,-3.433221 0,-1.125173 0.49046,-2.077243 0.519311,-0.980921 1.413679,-1.702185 0.894369,-0.721265 2.106094,-1.125174 1.240575,-0.432759 2.711956,-0.432759 1.47138,0 2.711956,0.432759 1.240576,0.403909 2.134944,1.125174 0.923219,0.721264 1.41368,1.702185 0.51931,0.95207 0.51931,2.077243 0,1.990691 -1.327127,3.40437 -1.298277,1.41368 -3.433221,1.90414 l 0,1.846438 q 2.885059,-0.173104 5.770119,-0.605863 0.403909,-0.0577 0.548162,0 0.144253,0.0577 0.201954,0.403909 l 0.230805,2.019542 q 0.0577,0.346207 -0.08655,0.461609 -0.144253,0.08655 -0.432759,0.144253 z m -3.577474,12.117251 q -2.077243,0 -3.779429,-0.375058 -1.673334,-0.375057 -2.856209,-1.067472 -1.182874,-0.663564 -1.817587,-1.586783 -0.634713,-0.923219 -0.634713,-2.048392 0,-1.096323 0.634713,-2.019542 0.634713,-0.95207 1.817587,-1.615633 1.182875,-0.692415 2.856209,-1.067472 1.702186,-0.375058 3.779429,-0.375058 2.077243,0 3.750577,0.375058 1.702186,0.375057 2.88506,1.067472 1.182875,0.663563 1.817588,1.615633 0.634713,0.923219 0.634713,2.019542 0,1.125173 -0.634713,2.048392 -0.634713,0.923219 -1.817588,1.586783 -1.182874,0.692415 -2.88506,1.067472 -1.673334,0.375058 -3.750577,0.375058 z m 12.261504,-16.964151 -3.404371,0 0,5.597016 q 0,0.577012 -0.548161,0.577012 l -2.913911,0 q -0.548161,0 -0.548161,-0.577012 l 0,-15.810128 q 0,-0.317356 0.115402,-0.432759 0.115403,-0.115402 0.432759,-0.115402 l 2.913911,0 q 0.317356,0 0.432759,0.115402 0.115402,0.115403 0.115402,0.432759 l 0,6.924144 3.404371,0 q 0.259655,0 0.403908,0.08655 0.173104,0.0577 0.173104,0.432759 l 0,2.221496 q 0,0.548162 -0.577012,0.548162 z m -12.261504,9.866904 q -2.538853,0 -3.808279,0.634713 -1.240576,0.634713 -1.240576,1.41368 0,0.807816 1.240576,1.413679 1.269426,0.634713 3.808279,0.634713 2.538852,0 3.808279,-0.634713 1.269426,-0.605863 1.269426,-1.413679 0,-0.778967 -1.269426,-1.41368 -1.269427,-0.634713 -3.808279,-0.634713 z M 28.712912,50.032142 q -1.298277,0 -2.134944,0.634713 -0.836668,0.634713 -0.836668,1.557932 0,0.98092 0.836668,1.644484 0.836667,0.634713 2.134944,0.634713 1.298277,0 2.163795,-0.634713 0.865518,-0.663564 0.865518,-1.644484 0,-0.923219 -0.865518,-1.557932 -0.836668,-0.634713 -2.163795,-0.634713 z" /><path
             id="path4206"
             style="font-style:normal;font-variant:normal;font-weight:bold;font-stretch:normal;font-family:sans-serif;-inkscape-font-specification:'sans-serif Bold';fill:#808000;fill-opacity:1"
             d="m 50.479336,62.726404 q -0.49046,0.115403 -0.605863,0 -0.115402,-0.115402 -0.230804,-0.432759 l -0.807817,-2.134944 q -0.173104,-0.548161 0.461609,-0.721265 4.039084,-1.009771 6.981845,-2.221496 2.971612,-1.240575 4.702647,-2.336898 0.46161,-0.288506 0.375058,-0.49046 -0.0577,-0.201954 -0.548161,-0.201954 l -9.376444,0 q -0.317357,0 -0.432759,-0.115403 -0.115403,-0.115402 -0.115403,-0.461609 l 0,-2.163795 q 0,-0.317357 0.115403,-0.403908 0.115402,-0.115403 0.432759,-0.115403 l 13.963689,0 q 1.47138,0 2.019542,0.577012 0.577012,0.548161 0.51931,1.240576 -0.08655,1.038621 -1.009771,2.221496 -0.923219,1.154024 -2.625404,2.308048 1.355978,0.49046 3.115865,0.952069 1.788737,0.46161 3.577474,0.836668 0.403908,0.08655 0.51931,0.259655 0.115403,0.144253 -0.02885,0.548161 l -0.692414,2.019542 q -0.144253,0.403908 -0.375058,0.46161 -0.201954,0.0577 -0.519311,0 -1.096323,-0.201954 -2.279197,-0.49046 -1.182875,-0.317357 -2.42345,-0.692415 -1.240576,-0.375058 -2.481152,-0.778966 -1.211725,-0.432759 -2.336898,-0.894368 -2.077243,0.952069 -4.558395,1.788737 -2.4523,0.836667 -5.33736,1.442529 z m 21.839902,6.520235 -24.782663,0 q -0.375058,0 -0.49046,-0.173103 -0.08655,-0.173104 -0.08655,-0.432759 l 0,-2.077243 q 0,-0.317357 0.08655,-0.46161 0.115402,-0.144253 0.49046,-0.144253 l 10.443916,0 0,-3.519773 q 0,-0.317356 0.115403,-0.432758 0.115402,-0.144253 0.461609,-0.144253 l 2.827359,0 q 0.346207,0 0.461609,0.144253 0.115403,0.115402 0.115403,0.432758 l 0,3.519773 10.357364,0 q 0.605863,0 0.605863,0.605863 l 0,2.077243 q 0,0.605862 -0.605863,0.605862 z m -8.68403,-19.762659 -8.135868,0 q -0.230805,0 -0.432759,-0.08655 -0.173104,-0.115402 -0.173104,-0.51931 l 0,-2.019542 q 0,-0.403908 0.173104,-0.49046 0.201954,-0.115403 0.432759,-0.115403 l 8.135868,0 q 0.634714,0 0.634714,0.634713 l 0,1.961841 q 0,0.634713 -0.634714,0.634713 z" /><path
             id="path4208"
             style="font-style:normal;font-variant:normal;font-weight:bold;font-stretch:normal;font-family:sans-serif;-inkscape-font-specification:'sans-serif Bold';fill:#808000;fill-opacity:1"
             d="m 93.768306,73.14147 -13.415528,0 q -0.692414,0 -1.125173,-0.08655 -0.432759,-0.08655 -0.692415,-0.317356 -0.230805,-0.201954 -0.346207,-0.605863 -0.08655,-0.403908 -0.08655,-1.067472 l 0,-8.914834 q 0,-0.519311 0.548162,-0.519311 l 2.856209,0 q 0.317356,0 0.461609,0.115402 0.144253,0.08655 0.144253,0.403909 l 0,2.308047 9.838054,0 0,-2.42345 q 0,-0.317356 0.144253,-0.432759 0.173104,-0.115402 0.432759,-0.115402 l 2.91391,0 q 0.259656,0 0.375058,0.115402 0.144253,0.115403 0.144253,0.432759 l 0,9.116789 q 0,1.125173 -0.432759,1.557932 -0.403908,0.432759 -1.759886,0.432759 z m 5.625866,-13.675183 -24.753812,0 q -0.403909,0 -0.490461,-0.144253 -0.08655,-0.144253 -0.08655,-0.46161 l 0,-2.019541 q 0,-0.346208 0.115402,-0.46161 0.115402,-0.144253 0.46161,-0.144253 l 17.252657,0 q 0.115402,-0.634713 0.201954,-1.44253 0.115402,-0.836667 0.201954,-1.586783 0.08655,-0.778966 0.115403,-1.384828 0.0577,-0.634713 0.0577,-0.894369 0,-0.432759 -0.115403,-0.605862 -0.115402,-0.201955 -0.663563,-0.201955 l -13.04047,0 q -0.288506,0 -0.46161,-0.0577 -0.144253,-0.08655 -0.144253,-0.461609 l 0,-2.250347 q 0,-0.317357 0.144253,-0.403908 0.173104,-0.08655 0.46161,-0.08655 l 15.723575,0 q 1.038622,0 1.529082,0.461609 0.49046,0.432759 0.49046,1.529082 0,1.529082 -0.144253,3.462072 -0.144253,1.904139 -0.548161,3.923681 l 3.692876,0 q 0.259656,0 0.432759,0.144253 0.173099,0.115402 0.173099,0.46161 l 0,2.019541 q 0,0.605863 -0.605858,0.605863 z m -7.443454,8.19357 -9.838054,0 0,1.96184 q 0,0.259656 0.259656,0.259656 l 9.318743,0 q 0.259655,0 0.259655,-0.259656 l 0,-1.96184 z" /></g><rect
           style="color:#000000;clip-rule:nonzero;display:inline;overflow:visible;visibility:visible;opacity:1;isolation:auto;mix-blend-mode:normal;color-interpolation:sRGB;color-interpolation-filters:linearRGB;solid-color:#000000;solid-opacity:1;fill:#e85c41;fill-opacity:0;fill-rule:nonzero;stroke:none;stroke-width:0;stroke-linecap:butt;stroke-linejoin:miter;stroke-miterlimit:4;stroke-dasharray:none;stroke-dashoffset:0;stroke-opacity:1;color-rendering:auto;image-rendering:auto;shape-rendering:auto;text-rendering:auto;enable-background:accumulate"
           id="rect4210"
           width="120"
           height="120"
           x="4.5258788e-05"
           y="2.6171874e-06"
           ry="5.9030401e-05" /></g><g
         style=""
         transform="translate(-4.5258788e-5,-2.6171874e-6)"
         id="g4212"><circle
           style="color:#000000;clip-rule:nonzero;display:inline;overflow:visible;visibility:visible;opacity:1;isolation:auto;mix-blend-mode:normal;color-interpolation:sRGB;color-interpolation-filters:linearRGB;solid-color:#000000;solid-opacity:1;fill:#ffdd55;fill-opacity:1;fill-rule:nonzero;stroke:none;stroke-width:0;stroke-linecap:butt;stroke-linejoin:miter;stroke-miterlimit:4;stroke-dasharray:none;stroke-dashoffset:0;stroke-opacity:1;color-rendering:auto;image-rendering:auto;shape-rendering:auto;text-rendering:auto;enable-background:accumulate"
           id="circle4214"
           cx="60.000031"
           cy="60.000034"
           r="50" /><g
           style="font-style:normal;font-weight:normal;font-size:28.85059738px;line-height:125%;font-family:sans-serif;letter-spacing:0px;word-spacing:0px;fill:#808000;fill-opacity:1;stroke:none;stroke-width:1px;stroke-linecap:butt;stroke-linejoin:miter;stroke-opacity:1"
           id="g4216"><path
             d="m 36.964183,61.745484 q -3.981383,0.663564 -8.135869,0.836667 -4.154486,0.144253 -8.280121,0.08655 -0.346207,-0.02885 -0.46161,-0.173103 -0.08655,-0.144253 -0.08655,-0.46161 l 0,-2.019542 q 0,-0.317356 0.115402,-0.461609 0.115402,-0.144253 0.432759,-0.115403 1.586783,0.02885 3.144715,0.0577 1.557932,0 3.115865,-0.02885 l 0,-1.990691 q -2.163795,-0.46161 -3.490923,-1.875289 -1.327127,-1.413679 -1.327127,-3.433221 0,-1.125173 0.49046,-2.077243 0.519311,-0.980921 1.413679,-1.702185 0.894369,-0.721265 2.106094,-1.125174 1.240575,-0.432759 2.711956,-0.432759 1.47138,0 2.711956,0.432759 1.240576,0.403909 2.134944,1.125174 0.923219,0.721264 1.41368,1.702185 0.51931,0.95207 0.51931,2.077243 0,1.990691 -1.327127,3.40437 -1.298277,1.41368 -3.433221,1.90414 l 0,1.846438 q 2.885059,-0.173104 5.770119,-0.605863 0.403909,-0.0577 0.548162,0 0.144253,0.0577 0.201954,0.403909 l 0.230805,2.019542 q 0.0577,0.346207 -0.08655,0.461609 -0.144253,0.08655 -0.432759,0.144253 z m -3.577474,12.117251 q -2.077243,0 -3.779429,-0.375058 -1.673334,-0.375057 -2.856209,-1.067472 -1.182874,-0.663564 -1.817587,-1.586783 -0.634713,-0.923219 -0.634713,-2.048392 0,-1.096323 0.634713,-2.019542 0.634713,-0.95207 1.817587,-1.615633 1.182875,-0.692415 2.856209,-1.067472 1.702186,-0.375058 3.779429,-0.375058 2.077243,0 3.750577,0.375058 1.702186,0.375057 2.88506,1.067472 1.182875,0.663563 1.817588,1.615633 0.634713,0.923219 0.634713,2.019542 0,1.125173 -0.634713,2.048392 -0.634713,0.923219 -1.817588,1.586783 -1.182874,0.692415 -2.88506,1.067472 -1.673334,0.375058 -3.750577,0.375058 z m 12.261504,-16.964151 -3.404371,0 0,5.597016 q 0,0.577012 -0.548161,0.577012 l -2.913911,0 q -0.548161,0 -0.548161,-0.577012 l 0,-15.810128 q 0,-0.317356 0.115402,-0.432759 0.115403,-0.115402 0.432759,-0.115402 l 2.913911,0 q 0.317356,0 0.432759,0.115402 0.115402,0.115403 0.115402,0.432759 l 0,6.924144 3.404371,0 q 0.259655,0 0.403908,0.08655 0.173104,0.0577 0.173104,0.432759 l 0,2.221496 q 0,0.548162 -0.577012,0.548162 z m -12.261504,9.866904 q -2.538853,0 -3.808279,0.634713 -1.240576,0.634713 -1.240576,1.41368 0,0.807816 1.240576,1.413679 1.269426,0.634713 3.808279,0.634713 2.538852,0 3.808279,-0.634713 1.269426,-0.605863 1.269426,-1.413679 0,-0.778967 -1.269426,-1.41368 -1.269427,-0.634713 -3.808279,-0.634713 z M 28.712912,50.032142 q -1.298277,0 -2.134944,0.634713 -0.836668,0.634713 -0.836668,1.557932 0,0.98092 0.836668,1.644484 0.836667,0.634713 2.134944,0.634713 1.298277,0 2.163795,-0.634713 0.865518,-0.663564 0.865518,-1.644484 0,-0.923219 -0.865518,-1.557932 -0.836668,-0.634713 -2.163795,-0.634713 z"
             style="font-style:normal;font-variant:normal;font-weight:bold;font-stretch:normal;font-family:sans-serif;-inkscape-font-specification:'sans-serif Bold';fill:#808000;fill-opacity:1"
             id="path4218" /><path
             d="m 50.479336,62.726404 q -0.49046,0.115403 -0.605863,0 -0.115402,-0.115402 -0.230804,-0.432759 l -0.807817,-2.134944 q -0.173104,-0.548161 0.461609,-0.721265 4.039084,-1.009771 6.981845,-2.221496 2.971612,-1.240575 4.702647,-2.336898 0.46161,-0.288506 0.375058,-0.49046 -0.0577,-0.201954 -0.548161,-0.201954 l -9.376444,0 q -0.317357,0 -0.432759,-0.115403 -0.115403,-0.115402 -0.115403,-0.461609 l 0,-2.163795 q 0,-0.317357 0.115403,-0.403908 0.115402,-0.115403 0.432759,-0.115403 l 13.963689,0 q 1.47138,0 2.019542,0.577012 0.577012,0.548161 0.51931,1.240576 -0.08655,1.038621 -1.009771,2.221496 -0.923219,1.154024 -2.625404,2.308048 1.355978,0.49046 3.115865,0.952069 1.788737,0.46161 3.577474,0.836668 0.403908,0.08655 0.51931,0.259655 0.115403,0.144253 -0.02885,0.548161 l -0.692414,2.019542 q -0.144253,0.403908 -0.375058,0.46161 -0.201954,0.0577 -0.519311,0 -1.096323,-0.201954 -2.279197,-0.49046 -1.182875,-0.317357 -2.42345,-0.692415 -1.240576,-0.375058 -2.481152,-0.778966 -1.211725,-0.432759 -2.336898,-0.894368 -2.077243,0.952069 -4.558395,1.788737 -2.4523,0.836667 -5.33736,1.442529 z m 21.839902,6.520235 -24.782663,0 q -0.375058,0 -0.49046,-0.173103 -0.08655,-0.173104 -0.08655,-0.432759 l 0,-2.077243 q 0,-0.317357 0.08655,-0.46161 0.115402,-0.144253 0.49046,-0.144253 l 10.443916,0 0,-3.519773 q 0,-0.317356 0.115403,-0.432758 0.115402,-0.144253 0.461609,-0.144253 l 2.827359,0 q 0.346207,0 0.461609,0.144253 0.115403,0.115402 0.115403,0.432758 l 0,3.519773 10.357364,0 q 0.605863,0 0.605863,0.605863 l 0,2.077243 q 0,0.605862 -0.605863,0.605862 z m -8.68403,-19.762659 -8.135868,0 q -0.230805,0 -0.432759,-0.08655 -0.173104,-0.115402 -0.173104,-0.51931 l 0,-2.019542 q 0,-0.403908 0.173104,-0.49046 0.201954,-0.115403 0.432759,-0.115403 l 8.135868,0 q 0.634714,0 0.634714,0.634713 l 0,1.961841 q 0,0.634713 -0.634714,0.634713 z"
             style="font-style:normal;font-variant:normal;font-weight:bold;font-stretch:normal;font-family:sans-serif;-inkscape-font-specification:'sans-serif Bold';fill:#808000;fill-opacity:1"
             id="path4220" /><path
             d="m 93.768306,73.14147 -13.415528,0 q -0.692414,0 -1.125173,-0.08655 -0.432759,-0.08655 -0.692415,-0.317356 -0.230805,-0.201954 -0.346207,-0.605863 -0.08655,-0.403908 -0.08655,-1.067472 l 0,-8.914834 q 0,-0.519311 0.548162,-0.519311 l 2.856209,0 q 0.317356,0 0.461609,0.115402 0.144253,0.08655 0.144253,0.403909 l 0,2.308047 9.838054,0 0,-2.42345 q 0,-0.317356 0.144253,-0.432759 0.173104,-0.115402 0.432759,-0.115402 l 2.91391,0 q 0.259656,0 0.375058,0.115402 0.144253,0.115403 0.144253,0.432759 l 0,9.116789 q 0,1.125173 -0.432759,1.557932 -0.403908,0.432759 -1.759886,0.432759 z m 5.625866,-13.675183 -24.753812,0 q -0.403909,0 -0.490461,-0.144253 -0.08655,-0.144253 -0.08655,-0.46161 l 0,-2.019541 q 0,-0.346208 0.115402,-0.46161 0.115402,-0.144253 0.46161,-0.144253 l 17.252657,0 q 0.115402,-0.634713 0.201954,-1.44253 0.115402,-0.836667 0.201954,-1.586783 0.08655,-0.778966 0.115403,-1.384828 0.0577,-0.634713 0.0577,-0.894369 0,-0.432759 -0.115403,-0.605862 -0.115402,-0.201955 -0.663563,-0.201955 l -13.04047,0 q -0.288506,0 -0.46161,-0.0577 -0.144253,-0.08655 -0.144253,-0.461609 l 0,-2.250347 q 0,-0.317357 0.144253,-0.403908 0.173104,-0.08655 0.46161,-0.08655 l 15.723575,0 q 1.038622,0 1.529082,0.461609 0.49046,0.432759 0.49046,1.529082 0,1.529082 -0.144253,3.462072 -0.144253,1.904139 -0.548161,3.923681 l 3.692876,0 q 0.259656,0 0.432759,0.144253 0.173099,0.115402 0.173099,0.46161 l 0,2.019541 q 0,0.605863 -0.605858,0.605863 z m -7.443454,8.19357 -9.838054,0 0,1.96184 q 0,0.259656 0.259656,0.259656 l 9.318743,0 q 0.259655,0 0.259655,-0.259656 l 0,-1.96184 z"
             style="font-style:normal;font-variant:normal;font-weight:bold;font-stretch:normal;font-family:sans-serif;-inkscape-font-specification:'sans-serif Bold';fill:#808000;fill-opacity:1"
             id="path4222" /></g><rect
           ry="5.9030401e-05"
           y="2.6171874e-06"
           x="4.5258788e-05"
           height="120"
           width="120"
           id="rect4224"
           style="color:#000000;clip-rule:nonzero;display:inline;overflow:visible;visibility:visible;opacity:1;isolation:auto;mix-blend-mode:normal;color-interpolation:sRGB;color-interpolation-filters:linearRGB;solid-color:#000000;solid-opacity:1;fill:#e85c41;fill-opacity:0;fill-rule:nonzero;stroke:none;stroke-width:0;stroke-linecap:butt;stroke-linejoin:miter;stroke-miterlimit:4;stroke-dasharray:none;stroke-dashoffset:0;stroke-opacity:1;color-rendering:auto;image-rendering:auto;shape-rendering:auto;text-rendering:auto;enable-background:accumulate" /></g><g
         style=""
         id="g4226"
         transform="translate(-4.5258788e-5,-2.6171874e-6)"><circle
           r="50"
           cy="60.000034"
           cx="60.000031"
           id="circle4228"
           style="color:#000000;clip-rule:nonzero;display:inline;overflow:visible;visibility:visible;opacity:1;isolation:auto;mix-blend-mode:normal;color-interpolation:sRGB;color-interpolation-filters:linearRGB;solid-color:#000000;solid-opacity:1;fill:#ffdd55;fill-opacity:1;fill-rule:nonzero;stroke:none;stroke-width:0;stroke-linecap:butt;stroke-linejoin:miter;stroke-miterlimit:4;stroke-dasharray:none;stroke-dashoffset:0;stroke-opacity:1;color-rendering:auto;image-rendering:auto;shape-rendering:auto;text-rendering:auto;enable-background:accumulate" /><g
           id="g4230"
           style="font-style:normal;font-weight:normal;font-size:28.85059738px;line-height:125%;font-family:sans-serif;letter-spacing:0px;word-spacing:0px;fill:#808000;fill-opacity:1;stroke:none;stroke-width:1px;stroke-linecap:butt;stroke-linejoin:miter;stroke-opacity:1"><path
             id="path4232"
             style="font-style:normal;font-variant:normal;font-weight:bold;font-stretch:normal;font-family:sans-serif;-inkscape-font-specification:'sans-serif Bold';fill:#808000;fill-opacity:1"
             d="m 36.964183,61.745484 q -3.981383,0.663564 -8.135869,0.836667 -4.154486,0.144253 -8.280121,0.08655 -0.346207,-0.02885 -0.46161,-0.173103 -0.08655,-0.144253 -0.08655,-0.46161 l 0,-2.019542 q 0,-0.317356 0.115402,-0.461609 0.115402,-0.144253 0.432759,-0.115403 1.586783,0.02885 3.144715,0.0577 1.557932,0 3.115865,-0.02885 l 0,-1.990691 q -2.163795,-0.46161 -3.490923,-1.875289 -1.327127,-1.413679 -1.327127,-3.433221 0,-1.125173 0.49046,-2.077243 0.519311,-0.980921 1.413679,-1.702185 0.894369,-0.721265 2.106094,-1.125174 1.240575,-0.432759 2.711956,-0.432759 1.47138,0 2.711956,0.432759 1.240576,0.403909 2.134944,1.125174 0.923219,0.721264 1.41368,1.702185 0.51931,0.95207 0.51931,2.077243 0,1.990691 -1.327127,3.40437 -1.298277,1.41368 -3.433221,1.90414 l 0,1.846438 q 2.885059,-0.173104 5.770119,-0.605863 0.403909,-0.0577 0.548162,0 0.144253,0.0577 0.201954,0.403909 l 0.230805,2.019542 q 0.0577,0.346207 -0.08655,0.461609 -0.144253,0.08655 -0.432759,0.144253 z m -3.577474,12.117251 q -2.077243,0 -3.779429,-0.375058 -1.673334,-0.375057 -2.856209,-1.067472 -1.182874,-0.663564 -1.817587,-1.586783 -0.634713,-0.923219 -0.634713,-2.048392 0,-1.096323 0.634713,-2.019542 0.634713,-0.95207 1.817587,-1.615633 1.182875,-0.692415 2.856209,-1.067472 1.702186,-0.375058 3.779429,-0.375058 2.077243,0 3.750577,0.375058 1.702186,0.375057 2.88506,1.067472 1.182875,0.663563 1.817588,1.615633 0.634713,0.923219 0.634713,2.019542 0,1.125173 -0.634713,2.048392 -0.634713,0.923219 -1.817588,1.586783 -1.182874,0.692415 -2.88506,1.067472 -1.673334,0.375058 -3.750577,0.375058 z m 12.261504,-16.964151 -3.404371,0 0,5.597016 q 0,0.577012 -0.548161,0.577012 l -2.913911,0 q -0.548161,0 -0.548161,-0.577012 l 0,-15.810128 q 0,-0.317356 0.115402,-0.432759 0.115403,-0.115402 0.432759,-0.115402 l 2.913911,0 q 0.317356,0 0.432759,0.115402 0.115402,0.115403 0.115402,0.432759 l 0,6.924144 3.404371,0 q 0.259655,0 0.403908,0.08655 0.173104,0.0577 0.173104,0.432759 l 0,2.221496 q 0,0.548162 -0.577012,0.548162 z m -12.261504,9.866904 q -2.538853,0 -3.808279,0.634713 -1.240576,0.634713 -1.240576,1.41368 0,0.807816 1.240576,1.413679 1.269426,0.634713 3.808279,0.634713 2.538852,0 3.808279,-0.634713 1.269426,-0.605863 1.269426,-1.413679 0,-0.778967 -1.269426,-1.41368 -1.269427,-0.634713 -3.808279,-0.634713 z M 28.712912,50.032142 q -1.298277,0 -2.134944,0.634713 -0.836668,0.634713 -0.836668,1.557932 0,0.98092 0.836668,1.644484 0.836667,0.634713 2.134944,0.634713 1.298277,0 2.163795,-0.634713 0.865518,-0.663564 0.865518,-1.644484 0,-0.923219 -0.865518,-1.557932 -0.836668,-0.634713 -2.163795,-0.634713 z" /><path
             id="path4234"
             style="font-style:normal;font-variant:normal;font-weight:bold;font-stretch:normal;font-family:sans-serif;-inkscape-font-specification:'sans-serif Bold';fill:#808000;fill-opacity:1"
             d="m 50.479336,62.726404 q -0.49046,0.115403 -0.605863,0 -0.115402,-0.115402 -0.230804,-0.432759 l -0.807817,-2.134944 q -0.173104,-0.548161 0.461609,-0.721265 4.039084,-1.009771 6.981845,-2.221496 2.971612,-1.240575 4.702647,-2.336898 0.46161,-0.288506 0.375058,-0.49046 -0.0577,-0.201954 -0.548161,-0.201954 l -9.376444,0 q -0.317357,0 -0.432759,-0.115403 -0.115403,-0.115402 -0.115403,-0.461609 l 0,-2.163795 q 0,-0.317357 0.115403,-0.403908 0.115402,-0.115403 0.432759,-0.115403 l 13.963689,0 q 1.47138,0 2.019542,0.577012 0.577012,0.548161 0.51931,1.240576 -0.08655,1.038621 -1.009771,2.221496 -0.923219,1.154024 -2.625404,2.308048 1.355978,0.49046 3.115865,0.952069 1.788737,0.46161 3.577474,0.836668 0.403908,0.08655 0.51931,0.259655 0.115403,0.144253 -0.02885,0.548161 l -0.692414,2.019542 q -0.144253,0.403908 -0.375058,0.46161 -0.201954,0.0577 -0.519311,0 -1.096323,-0.201954 -2.279197,-0.49046 -1.182875,-0.317357 -2.42345,-0.692415 -1.240576,-0.375058 -2.481152,-0.778966 -1.211725,-0.432759 -2.336898,-0.894368 -2.077243,0.952069 -4.558395,1.788737 -2.4523,0.836667 -5.33736,1.442529 z m 21.839902,6.520235 -24.782663,0 q -0.375058,0 -0.49046,-0.173103 -0.08655,-0.173104 -0.08655,-0.432759 l 0,-2.077243 q 0,-0.317357 0.08655,-0.46161 0.115402,-0.144253 0.49046,-0.144253 l 10.443916,0 0,-3.519773 q 0,-0.317356 0.115403,-0.432758 0.115402,-0.144253 0.461609,-0.144253 l 2.827359,0 q 0.346207,0 0.461609,0.144253 0.115403,0.115402 0.115403,0.432758 l 0,3.519773 10.357364,0 q 0.605863,0 0.605863,0.605863 l 0,2.077243 q 0,0.605862 -0.605863,0.605862 z m -8.68403,-19.762659 -8.135868,0 q -0.230805,0 -0.432759,-0.08655 -0.173104,-0.115402 -0.173104,-0.51931 l 0,-2.019542 q 0,-0.403908 0.173104,-0.49046 0.201954,-0.115403 0.432759,-0.115403 l 8.135868,0 q 0.634714,0 0.634714,0.634713 l 0,1.961841 q 0,0.634713 -0.634714,0.634713 z" /><path
             id="path4236"
             style="font-style:normal;font-variant:normal;font-weight:bold;font-stretch:normal;font-family:sans-serif;-inkscape-font-specification:'sans-serif Bold';fill:#808000;fill-opacity:1"
             d="m 93.768306,73.14147 -13.415528,0 q -0.692414,0 -1.125173,-0.08655 -0.432759,-0.08655 -0.692415,-0.317356 -0.230805,-0.201954 -0.346207,-0.605863 -0.08655,-0.403908 -0.08655,-1.067472 l 0,-8.914834 q 0,-0.519311 0.548162,-0.519311 l 2.856209,0 q 0.317356,0 0.461609,0.115402 0.144253,0.08655 0.144253,0.403909 l 0,2.308047 9.838054,0 0,-2.42345 q 0,-0.317356 0.144253,-0.432759 0.173104,-0.115402 0.432759,-0.115402 l 2.91391,0 q 0.259656,0 0.375058,0.115402 0.144253,0.115403 0.144253,0.432759 l 0,9.116789 q 0,1.125173 -0.432759,1.557932 -0.403908,0.432759 -1.759886,0.432759 z m 5.625866,-13.675183 -24.753812,0 q -0.403909,0 -0.490461,-0.144253 -0.08655,-0.144253 -0.08655,-0.46161 l 0,-2.019541 q 0,-0.346208 0.115402,-0.46161 0.115402,-0.144253 0.46161,-0.144253 l 17.252657,0 q 0.115402,-0.634713 0.201954,-1.44253 0.115402,-0.836667 0.201954,-1.586783 0.08655,-0.778966 0.115403,-1.384828 0.0577,-0.634713 0.0577,-0.894369 0,-0.432759 -0.115403,-0.605862 -0.115402,-0.201955 -0.663563,-0.201955 l -13.04047,0 q -0.288506,0 -0.46161,-0.0577 -0.144253,-0.08655 -0.144253,-0.461609 l 0,-2.250347 q 0,-0.317357 0.144253,-0.403908 0.173104,-0.08655 0.46161,-0.08655 l 15.723575,0 q 1.038622,0 1.529082,0.461609 0.49046,0.432759 0.49046,1.529082 0,1.529082 -0.144253,3.462072 -0.144253,1.904139 -0.548161,3.923681 l 3.692876,0 q 0.259656,0 0.432759,0.144253 0.173099,0.115402 0.173099,0.46161 l 0,2.019541 q 0,0.605863 -0.605858,0.605863 z m -7.443454,8.19357 -9.838054,0 0,1.96184 q 0,0.259656 0.259656,0.259656 l 9.318743,0 q 0.259655,0 0.259655,-0.259656 l 0,-1.96184 z" /></g><rect
           style="color:#000000;clip-rule:nonzero;display:inline;overflow:visible;visibility:visible;opacity:1;isolation:auto;mix-blend-mode:normal;color-interpolation:sRGB;color-interpolation-filters:linearRGB;solid-color:#000000;solid-opacity:1;fill:#e85c41;fill-opacity:0;fill-rule:nonzero;stroke:none;stroke-width:0;stroke-linecap:butt;stroke-linejoin:miter;stroke-miterlimit:4;stroke-dasharray:none;stroke-dashoffset:0;stroke-opacity:1;color-rendering:auto;image-rendering:auto;shape-rendering:auto;text-rendering:auto;enable-background:accumulate"
           id="rect4238"
           width="120"
           height="120"
           x="4.5258788e-05"
           y="2.6171874e-06"
           ry="5.9030401e-05" /></g><g
         style=""
         transform="translate(-4.5258788e-5,-2.6171874e-6)"
         id="g4240"><circle
           style="color:#000000;clip-rule:nonzero;display:inline;overflow:visible;visibility:visible;opacity:1;isolation:auto;mix-blend-mode:normal;color-interpolation:sRGB;color-interpolation-filters:linearRGB;solid-color:#000000;solid-opacity:1;fill:#ffdd55;fill-opacity:1;fill-rule:nonzero;stroke:none;stroke-width:0;stroke-linecap:butt;stroke-linejoin:miter;stroke-miterlimit:4;stroke-dasharray:none;stroke-dashoffset:0;stroke-opacity:1;color-rendering:auto;image-rendering:auto;shape-rendering:auto;text-rendering:auto;enable-background:accumulate"
           id="circle4242"
           cx="60.000031"
           cy="60.000034"
           r="50" /><g
           style="font-style:normal;font-weight:normal;font-size:28.85059738px;line-height:125%;font-family:sans-serif;letter-spacing:0px;word-spacing:0px;fill:#808000;fill-opacity:1;stroke:none;stroke-width:1px;stroke-linecap:butt;stroke-linejoin:miter;stroke-opacity:1"
           id="g4244"><path
             d="m 36.964183,61.745484 q -3.981383,0.663564 -8.135869,0.836667 -4.154486,0.144253 -8.280121,0.08655 -0.346207,-0.02885 -0.46161,-0.173103 -0.08655,-0.144253 -0.08655,-0.46161 l 0,-2.019542 q 0,-0.317356 0.115402,-0.461609 0.115402,-0.144253 0.432759,-0.115403 1.586783,0.02885 3.144715,0.0577 1.557932,0 3.115865,-0.02885 l 0,-1.990691 q -2.163795,-0.46161 -3.490923,-1.875289 -1.327127,-1.413679 -1.327127,-3.433221 0,-1.125173 0.49046,-2.077243 0.519311,-0.980921 1.413679,-1.702185 0.894369,-0.721265 2.106094,-1.125174 1.240575,-0.432759 2.711956,-0.432759 1.47138,0 2.711956,0.432759 1.240576,0.403909 2.134944,1.125174 0.923219,0.721264 1.41368,1.702185 0.51931,0.95207 0.51931,2.077243 0,1.990691 -1.327127,3.40437 -1.298277,1.41368 -3.433221,1.90414 l 0,1.846438 q 2.885059,-0.173104 5.770119,-0.605863 0.403909,-0.0577 0.548162,0 0.144253,0.0577 0.201954,0.403909 l 0.230805,2.019542 q 0.0577,0.346207 -0.08655,0.461609 -0.144253,0.08655 -0.432759,0.144253 z m -3.577474,12.117251 q -2.077243,0 -3.779429,-0.375058 -1.673334,-0.375057 -2.856209,-1.067472 -1.182874,-0.663564 -1.817587,-1.586783 -0.634713,-0.923219 -0.634713,-2.048392 0,-1.096323 0.634713,-2.019542 0.634713,-0.95207 1.817587,-1.615633 1.182875,-0.692415 2.856209,-1.067472 1.702186,-0.375058 3.779429,-0.375058 2.077243,0 3.750577,0.375058 1.702186,0.375057 2.88506,1.067472 1.182875,0.663563 1.817588,1.615633 0.634713,0.923219 0.634713,2.019542 0,1.125173 -0.634713,2.048392 -0.634713,0.923219 -1.817588,1.586783 -1.182874,0.692415 -2.88506,1.067472 -1.673334,0.375058 -3.750577,0.375058 z m 12.261504,-16.964151 -3.404371,0 0,5.597016 q 0,0.577012 -0.548161,0.577012 l -2.913911,0 q -0.548161,0 -0.548161,-0.577012 l 0,-15.810128 q 0,-0.317356 0.115402,-0.432759 0.115403,-0.115402 0.432759,-0.115402 l 2.913911,0 q 0.317356,0 0.432759,0.115402 0.115402,0.115403 0.115402,0.432759 l 0,6.924144 3.404371,0 q 0.259655,0 0.403908,0.08655 0.173104,0.0577 0.173104,0.432759 l 0,2.221496 q 0,0.548162 -0.577012,0.548162 z m -12.261504,9.866904 q -2.538853,0 -3.808279,0.634713 -1.240576,0.634713 -1.240576,1.41368 0,0.807816 1.240576,1.413679 1.269426,0.634713 3.808279,0.634713 2.538852,0 3.808279,-0.634713 1.269426,-0.605863 1.269426,-1.413679 0,-0.778967 -1.269426,-1.41368 -1.269427,-0.634713 -3.808279,-0.634713 z M 28.712912,50.032142 q -1.298277,0 -2.134944,0.634713 -0.836668,0.634713 -0.836668,1.557932 0,0.98092 0.836668,1.644484 0.836667,0.634713 2.134944,0.634713 1.298277,0 2.163795,-0.634713 0.865518,-0.663564 0.865518,-1.644484 0,-0.923219 -0.865518,-1.557932 -0.836668,-0.634713 -2.163795,-0.634713 z"
             style="font-style:normal;font-variant:normal;font-weight:bold;font-stretch:normal;font-family:sans-serif;-inkscape-font-specification:'sans-serif Bold';fill:#808000;fill-opacity:1"
             id="path4246" /><path
             d="m 50.479336,62.726404 q -0.49046,0.115403 -0.605863,0 -0.115402,-0.115402 -0.230804,-0.432759 l -0.807817,-2.134944 q -0.173104,-0.548161 0.461609,-0.721265 4.039084,-1.009771 6.981845,-2.221496 2.971612,-1.240575 4.702647,-2.336898 0.46161,-0.288506 0.375058,-0.49046 -0.0577,-0.201954 -0.548161,-0.201954 l -9.376444,0 q -0.317357,0 -0.432759,-0.115403 -0.115403,-0.115402 -0.115403,-0.461609 l 0,-2.163795 q 0,-0.317357 0.115403,-0.403908 0.115402,-0.115403 0.432759,-0.115403 l 13.963689,0 q 1.47138,0 2.019542,0.577012 0.577012,0.548161 0.51931,1.240576 -0.08655,1.038621 -1.009771,2.221496 -0.923219,1.154024 -2.625404,2.308048 1.355978,0.49046 3.115865,0.952069 1.788737,0.46161 3.577474,0.836668 0.403908,0.08655 0.51931,0.259655 0.115403,0.144253 -0.02885,0.548161 l -0.692414,2.019542 q -0.144253,0.403908 -0.375058,0.46161 -0.201954,0.0577 -0.519311,0 -1.096323,-0.201954 -2.279197,-0.49046 -1.182875,-0.317357 -2.42345,-0.692415 -1.240576,-0.375058 -2.481152,-0.778966 -1.211725,-0.432759 -2.336898,-0.894368 -2.077243,0.952069 -4.558395,1.788737 -2.4523,0.836667 -5.33736,1.442529 z m 21.839902,6.520235 -24.782663,0 q -0.375058,0 -0.49046,-0.173103 -0.08655,-0.173104 -0.08655,-0.432759 l 0,-2.077243 q 0,-0.317357 0.08655,-0.46161 0.115402,-0.144253 0.49046,-0.144253 l 10.443916,0 0,-3.519773 q 0,-0.317356 0.115403,-0.432758 0.115402,-0.144253 0.461609,-0.144253 l 2.827359,0 q 0.346207,0 0.461609,0.144253 0.115403,0.115402 0.115403,0.432758 l 0,3.519773 10.357364,0 q 0.605863,0 0.605863,0.605863 l 0,2.077243 q 0,0.605862 -0.605863,0.605862 z m -8.68403,-19.762659 -8.135868,0 q -0.230805,0 -0.432759,-0.08655 -0.173104,-0.115402 -0.173104,-0.51931 l 0,-2.019542 q 0,-0.403908 0.173104,-0.49046 0.201954,-0.115403 0.432759,-0.115403 l 8.135868,0 q 0.634714,0 0.634714,0.634713 l 0,1.961841 q 0,0.634713 -0.634714,0.634713 z"
             style="font-style:normal;font-variant:normal;font-weight:bold;font-stretch:normal;font-family:sans-serif;-inkscape-font-specification:'sans-serif Bold';fill:#808000;fill-opacity:1"
             id="path4248" /><path
             d="m 93.768306,73.14147 -13.415528,0 q -0.692414,0 -1.125173,-0.08655 -0.432759,-0.08655 -0.692415,-0.317356 -0.230805,-0.201954 -0.346207,-0.605863 -0.08655,-0.403908 -0.08655,-1.067472 l 0,-8.914834 q 0,-0.519311 0.548162,-0.519311 l 2.856209,0 q 0.317356,0 0.461609,0.115402 0.144253,0.08655 0.144253,0.403909 l 0,2.308047 9.838054,0 0,-2.42345 q 0,-0.317356 0.144253,-0.432759 0.173104,-0.115402 0.432759,-0.115402 l 2.91391,0 q 0.259656,0 0.375058,0.115402 0.144253,0.115403 0.144253,0.432759 l 0,9.116789 q 0,1.125173 -0.432759,1.557932 -0.403908,0.432759 -1.759886,0.432759 z m 5.625866,-13.675183 -24.753812,0 q -0.403909,0 -0.490461,-0.144253 -0.08655,-0.144253 -0.08655,-0.46161 l 0,-2.019541 q 0,-0.346208 0.115402,-0.46161 0.115402,-0.144253 0.46161,-0.144253 l 17.252657,0 q 0.115402,-0.634713 0.201954,-1.44253 0.115402,-0.836667 0.201954,-1.586783 0.08655,-0.778966 0.115403,-1.384828 0.0577,-0.634713 0.0577,-0.894369 0,-0.432759 -0.115403,-0.605862 -0.115402,-0.201955 -0.663563,-0.201955 l -13.04047,0 q -0.288506,0 -0.46161,-0.0577 -0.144253,-0.08655 -0.144253,-0.461609 l 0,-2.250347 q 0,-0.317357 0.144253,-0.403908 0.173104,-0.08655 0.46161,-0.08655 l 15.723575,0 q 1.038622,0 1.529082,0.461609 0.49046,0.432759 0.49046,1.529082 0,1.529082 -0.144253,3.462072 -0.144253,1.904139 -0.548161,3.923681 l 3.692876,0 q 0.259656,0 0.432759,0.144253 0.173099,0.115402 0.173099,0.46161 l 0,2.019541 q 0,0.605863 -0.605858,0.605863 z m -7.443454,8.19357 -9.838054,0 0,1.96184 q 0,0.259656 0.259656,0.259656 l 9.318743,0 q 0.259655,0 0.259655,-0.259656 l 0,-1.96184 z"
             style="font-style:normal;font-variant:normal;font-weight:bold;font-stretch:normal;font-family:sans-serif;-inkscape-font-specification:'sans-serif Bold';fill:#808000;fill-opacity:1"
             id="path4250" /></g><rect
           ry="5.9030401e-05"
           y="2.6171874e-06"
           x="4.5258788e-05"
           height="120"
           width="120"
           id="rect4252"
           style="color:#000000;clip-rule:nonzero;display:inline;overflow:visible;visibility:visible;opacity:1;isolation:auto;mix-blend-mode:normal;color-interpolation:sRGB;color-interpolation-filters:linearRGB;solid-color:#000000;solid-opacity:1;fill:#e85c41;fill-opacity:0;fill-rule:nonzero;stroke:none;stroke-width:0;stroke-linecap:butt;stroke-linejoin:miter;stroke-miterlimit:4;stroke-dasharray:none;stroke-dashoffset:0;stroke-opacity:1;color-rendering:auto;image-rendering:auto;shape-rendering:auto;text-rendering:auto;enable-background:accumulate" /></g><circle
         style="color:#000000;clip-rule:nonzero;display:inline;overflow:visible;visibility:visible;opacity:1;isolation:auto;mix-blend-mode:normal;color-interpolation:sRGB;color-interpolation-filters:linearRGB;solid-color:#000000;solid-opacity:1;fill:#b20d35;fill-opacity:1;fill-rule:nonzero;stroke:none;stroke-width:0;stroke-linecap:butt;stroke-linejoin:miter;stroke-miterlimit:4;stroke-dasharray:none;stroke-dashoffset:0;stroke-opacity:1;color-rendering:auto;image-rendering:auto;shape-rendering:auto;text-rendering:auto;enable-background:accumulate"
         id="circle4256"
         cx="60"
         cy="60"
         r="50" /><rect
         ry="5.9030401e-05"
         y="1.9673428e-14"
         x="3.0463625e-13"
         height="120"
         width="120"
         id="rect4266"
         style="color:#000000;clip-rule:nonzero;display:inline;overflow:visible;visibility:visible;opacity:1;isolation:auto;mix-blend-mode:normal;color-interpolation:sRGB;color-interpolation-filters:linearRGB;solid-color:#000000;solid-opacity:1;fill:#e85c41;fill-opacity:0;fill-rule:nonzero;stroke:none;stroke-width:0;stroke-linecap:butt;stroke-linejoin:miter;stroke-miterlimit:4;stroke-dasharray:none;stroke-dashoffset:0;stroke-opacity:1;color-rendering:auto;image-rendering:auto;shape-rendering:auto;text-rendering:auto;enable-background:accumulate" /><circle
         style="color:#000000;clip-rule:nonzero;display:inline;overflow:visible;visibility:visible;opacity:1;isolation:auto;mix-blend-mode:normal;color-interpolation:sRGB;color-interpolation-filters:linearRGB;solid-color:#000000;solid-opacity:1;fill:#ffffff;fill-opacity:1;fill-rule:nonzero;stroke:none;stroke-width:0;stroke-linecap:butt;stroke-linejoin:miter;stroke-miterlimit:4;stroke-dasharray:none;stroke-dashoffset:0;stroke-opacity:1;color-rendering:auto;image-rendering:auto;shape-rendering:auto;text-rendering:auto;enable-background:accumulate"
         id="circle4256-3"
         cx="60"
         cy="60"
         r="45" /><circle
         style="color:#000000;clip-rule:nonzero;display:inline;overflow:visible;visibility:visible;opacity:1;isolation:auto;mix-blend-mode:normal;color-interpolation:sRGB;color-interpolation-filters:linearRGB;solid-color:#000000;solid-opacity:1;fill:#b20d35;fill-opacity:1;fill-rule:nonzero;stroke:none;stroke-width:0;stroke-linecap:butt;stroke-linejoin:miter;stroke-miterlimit:4;stroke-dasharray:none;stroke-dashoffset:0;stroke-opacity:1;color-rendering:auto;image-rendering:auto;shape-rendering:auto;text-rendering:auto;enable-background:accumulate"
         id="circle4256-31"
         cx="60"
         cy="60"
         r="40" /><path
         d="m 32.317852,56.150503 q -1.194233,0 -1.981919,0.508184 -0.762276,0.508184 -0.762276,1.270461 0,0.813095 0.762276,1.346688 0.787686,0.533594 1.981919,0.533594 1.219642,0 1.981919,-0.533594 0.762276,-0.533593 0.762276,-1.346688 0,-0.762277 -0.762276,-1.270461 -0.762277,-0.508184 -1.981919,-0.508184 z m 0,-2.159783 q 1.143415,0 2.134374,0.279501 1.016368,0.279501 1.753236,0.813095 0.762276,0.508184 1.168823,1.245051 0.431957,0.711458 0.431957,1.600781 0,0.914732 -0.431957,1.651599 -0.431956,0.736867 -1.168823,1.270461 -0.736868,0.508184 -1.753236,0.813094 -0.990959,0.279502 -2.159783,0.279502 -1.143415,0 -2.134374,-0.279502 -0.99096,-0.30491 -1.727827,-0.813094 -0.736867,-0.533594 -1.168824,-1.270461 -0.406547,-0.736867 -0.406547,-1.651599 0,-0.889323 0.406547,-1.600781 0.431957,-0.736867 1.168824,-1.245051 0.762277,-0.533594 1.753236,-0.813095 0.990959,-0.279501 2.134374,-0.279501 z m 6.860488,-1.194233 q 0,0.177864 -0.127046,0.30491 -0.101637,0.101637 -0.254093,0.101637 l -13.390655,0 q -0.152456,0 -0.279502,-0.127046 -0.127046,-0.127046 -0.127046,-0.304911 l 0,-1.321279 q 0,-0.127046 0.127046,-0.254092 0.152456,-0.127046 0.304911,-0.127046 l 13.365246,0 q 0.152456,0 0.254093,0.127046 0.127046,0.101637 0.127046,0.254092 l 0,1.346689 z m -3.277789,-3.099924 q 0,0.152455 -0.127046,0.279501 -0.101637,0.127046 -0.304911,0.127046 l -6.580986,0 q -0.101637,0 -0.254092,-0.101637 -0.127046,-0.101637 -0.127046,-0.279501 l 0,-1.346689 q 0,-0.177864 0.127046,-0.279501 0.152455,-0.101637 0.254092,-0.101637 l 6.580986,0 q 0.177865,0 0.304911,0.127046 0.127046,0.127046 0.127046,0.279502 l 0,1.29587 z m 11.713648,6.428531 q 0,0.127046 -0.127046,0.228683 -0.101637,0.101636 -0.254092,0.101636 l -3.430244,0 0,5.234299 q 0,0.127046 -0.101637,0.254092 -0.101637,0.101637 -0.228683,0.101637 l -2.26142,0 q -0.127046,0 -0.228683,-0.101637 -0.101637,-0.127046 -0.101637,-0.279502 l 0,-13.390655 q 0,-0.33032 0.33032,-0.33032 l 2.26142,0 q 0.33032,0 0.33032,0.33032 l 0,5.742482 3.430244,0 q 0.152455,0 0.254092,0.101637 0.127046,0.101637 0.127046,0.228683 l 0,1.778645 z m -3.176152,15.550439 q 0,0.127046 -0.127046,0.228683 -0.101637,0.127046 -0.203274,0.127046 l -13.543111,0 q -0.990959,0 -1.372097,-0.381139 Q 28.83679,71.268985 28.83679,70.45589 l 0,-2.439284 q 0,-0.813095 0.355729,-1.168824 0.355729,-0.355729 1.346688,-0.355729 l 10.087458,0 q 0.228683,0 0.279501,-0.05082 0.05082,-0.07623 0.05082,-0.304911 l 0,-0.457366 q 0,-0.279501 -0.05082,-0.33032 -0.05082,-0.05082 -0.30491,-0.05082 l -11.459556,0 q -0.127046,0 -0.254092,-0.07623 -0.101637,-0.101637 -0.101637,-0.228683 l 0,-1.575371 q 0,-0.127046 0.101637,-0.228683 0.127046,-0.127046 0.254092,-0.127046 l 12.907881,0 q 1.067187,0 1.397507,0.355729 0.355729,0.33032 0.355729,1.219642 l 0,2.363057 q 0,0.889323 -0.355729,1.219643 -0.33032,0.355729 -1.397507,0.355729 l -10.01123,0 q -0.228683,0 -0.279502,0.05082 -0.05082,0.07623 -0.05082,0.279501 l 0,0.584412 q 0,0.254092 0.05082,0.279502 0.05082,0.05082 0.304911,0.05082 l 12.018558,0 q 0.127046,0 0.228683,0.07623 0.127046,0.101637 0.127046,0.254092 l 0,1.524553 z"
         style="font-style:normal;font-variant:normal;font-weight:600;font-stretch:normal;font-size:25.40921402px;font-family:NanumGothic;-inkscape-font-specification:'NanumGothic Semi-Bold';fill:#ffffff;fill-opacity:1"
         id="path4312" /><path
         d="m 68.71536,71.726351 q 0,0.33032 -0.33032,0.33032 l -2.26142,0 q -0.33032,0 -0.33032,-0.33032 l 0,-23.452704 q 0,-0.33032 0.33032,-0.33032 l 2.26142,0 q 0.33032,0 0.33032,0.33032 l 0,23.452704 z m -4.624477,-6.885897 q 0.05082,0.203274 -0.101637,0.33032 -0.152455,0.101637 -0.355729,0.152455 -0.736867,0.177865 -1.702417,0.33032 -0.940141,0.127046 -2.007328,0.228683 -1.067187,0.101637 -2.159783,0.177864 -1.092596,0.07623 -2.108965,0.101637 -1.016368,0.02541 -1.880282,0.02541 -0.838504,0 -1.397507,-0.05082 -1.118005,-0.101637 -1.549962,-0.482775 -0.406547,-0.381138 -0.406547,-1.346688 l 0,-6.098212 q 0,-0.914731 0.431957,-1.321279 0.457365,-0.406547 1.346688,-0.406547 l 6.047393,0 q 0.203274,0 0.279501,-0.05082 0.07623,-0.07623 0.07623,-0.33032 l 0,-3.557289 q 0,-0.203274 -0.05082,-0.279502 -0.05082,-0.07623 -0.30491,-0.07623 l -7.317854,0 q -0.127046,0 -0.254092,-0.101637 -0.101637,-0.101637 -0.101637,-0.228683 l 0,-1.753236 q 0,-0.127046 0.101637,-0.203274 0.127046,-0.101637 0.254092,-0.101637 l 8.842407,0 q 1.092596,0 1.397507,0.406548 0.330319,0.406547 0.330319,1.321279 l 0,5.640845 q 0,0.965551 -0.406547,1.32128 -0.381138,0.355729 -1.372098,0.355729 l -6.021983,0 q -0.355729,0 -0.355729,0.355729 l 0,4.014655 q 0,0.279502 0.101636,0.381139 0.101637,0.07623 0.381139,0.07623 1.118005,0.05082 2.337647,0.02541 1.245052,-0.05082 2.490103,-0.127046 1.245052,-0.101636 2.413876,-0.254092 1.194233,-0.152455 2.23601,-0.355729 0.177865,-0.05082 0.33032,0.05082 0.177865,0.07623 0.228683,0.30491 l 0.228683,1.524553 z"
         style="font-style:normal;font-variant:normal;font-weight:600;font-stretch:normal;font-size:25.40921402px;font-family:NanumGothic;-inkscape-font-specification:'NanumGothic Semi-Bold';fill:#ffffff;fill-opacity:1"
         id="path4314" /><path
         d="m 75.231633,61.054481 q -0.127046,0.05082 -0.304911,0.02541 -0.152455,-0.05082 -0.279501,-0.254092 l -0.914732,-1.575371 q -0.101637,-0.203274 -0.02541,-0.355729 0.101637,-0.177864 0.279501,-0.228683 1.905691,-0.711458 3.328607,-1.524553 1.448325,-0.838504 2.439285,-1.905691 1.016368,-1.067187 1.575371,-2.439284 0.584412,-1.372098 0.762276,-3.176152 0.02541,-0.177865 0.101637,-0.355729 0.101637,-0.177865 0.304911,-0.152455 l 2.210601,0.101636 q 0.431957,0.02541 0.406548,0.559003 -0.02541,0.66064 -0.152455,1.245052 0.30491,1.219642 1.067187,2.337647 0.762276,1.118006 1.854872,2.058147 1.118006,0.914731 2.464694,1.626189 1.346688,0.711458 2.795013,1.118006 0.177865,0.05082 0.203274,0.228683 0.05082,0.152455 0,0.279501 l -0.863913,1.62619 q -0.203274,0.381138 -0.609821,0.279501 -1.168824,-0.30491 -2.363057,-0.863913 -1.168824,-0.559003 -2.26142,-1.29587 -1.092596,-0.762276 -2.007328,-1.677008 -0.914732,-0.940141 -1.549962,-2.007328 -1.270461,2.236011 -3.455653,3.811382 -2.159783,1.575371 -5.005615,2.515512 z m 19.38723,4.268748 q 0.127046,0 0.254092,0.127046 0.127046,0.127046 0.127046,0.279502 l 0,1.651599 q 0,0.127046 -0.127046,0.254092 -0.127046,0.127046 -0.254092,0.127046 l -22.131426,0 q -0.152455,0 -0.254092,-0.127046 -0.101637,-0.127046 -0.101637,-0.254092 l 0,-1.651599 q 0,-0.406548 0.355729,-0.406548 l 22.131426,0 z"
         style="font-style:normal;font-variant:normal;font-weight:600;font-stretch:normal;font-size:25.40921402px;font-family:NanumGothic;-inkscape-font-specification:'NanumGothic Semi-Bold';fill:#ffffff;fill-opacity:1"
         id="path4316" /></g></g></svg>