<?xml version="1.0" encoding="UTF-8" standalone="no"?>
<svg
   xmlns:dc="http://purl.org/dc/elements/1.1/"
   xmlns:cc="http://creativecommons.org/ns#"
   xmlns:rdf="http://www.w3.org/1999/02/22-rdf-syntax-ns#"
   xmlns:svg="http://www.w3.org/2000/svg"
   xmlns="http://www.w3.org/2000/svg"
   version="1.1"
   id="svg4230"
   viewBox="0 0 120 120"
   height="120"
   width="120">
  <defs
     id="defs4232" />
  <metadata
     id="metadata4235">
    <rdf:RDF>
      <cc:Work
         rdf:about="">
        <dc:format>image/svg+xml</dc:format>
        <dc:type
           rdf:resource="http://purl.org/dc/dcmitype/StillImage" />
        <dc:title></dc:title>
      </cc:Work>
    </rdf:RDF>
  </metadata>
  <g
     transform="translate(-137.14286,61.923509)"
     id="layer1">
    <g
       id="text4802"
       style="font-style:normal;font-weight:normal;font-size:40px;line-height:125%;font-family:sans-serif;letter-spacing:0px;word-spacing:0px;fill:#000000;fill-opacity:1;stroke:none;stroke-width:1px;stroke-linecap:butt;stroke-linejoin:miter;stroke-opacity:1">
      <g
         id="g4823">
        <circle
           r="50"
           cy="-1.9235077"
           cx="197.14285"
           id="path4162"
           style="color:#000000;clip-rule:nonzero;display:inline;overflow:visible;visibility:visible;opacity:1;isolation:auto;mix-blend-mode:normal;color-interpolation:sRGB;color-interpolation-filters:linearRGB;solid-color:#000000;solid-opacity:1;fill:#2a2720;fill-opacity:1;fill-rule:nonzero;stroke:none;stroke-width:0;stroke-linecap:butt;stroke-linejoin:miter;stroke-miterlimit:4;stroke-dasharray:none;stroke-dashoffset:0;stroke-opacity:1;color-rendering:auto;image-rendering:auto;shape-rendering:auto;text-rendering:auto;enable-background:accumulate" />
        <rect
           style="color:#000000;clip-rule:nonzero;display:inline;overflow:visible;visibility:visible;opacity:1;isolation:auto;mix-blend-mode:normal;color-interpolation:sRGB;color-interpolation-filters:linearRGB;solid-color:#000000;solid-opacity:1;fill:#e85c41;fill-opacity:0;fill-rule:nonzero;stroke:none;stroke-width:0;stroke-linecap:butt;stroke-linejoin:miter;stroke-miterlimit:4;stroke-dasharray:none;stroke-dashoffset:0;stroke-opacity:1;color-rendering:auto;image-rendering:auto;shape-rendering:auto;text-rendering:auto;enable-background:accumulate"
           id="rect9899-1-2-6-8-8-9-2-2-95"
           width="120"
           height="120"
           x="137.14285"
           y="-61.923508"
           ry="5.9030401e-05" />
        <path
           d="m 180.48556,-6.2660079 q 0,0.315 -0.2925,0.315 l -1.845,0 q -0.3375,0 -0.3375,-0.315 l 0,-11.1150001 -3.375,0 q -0.1125,0 -0.225,-0.09 -0.09,-0.09 -0.09,-0.225 l 0,-1.53 q 0,-0.1125 0.09,-0.18 0.1125,-0.09 0.225,-0.09 l 3.375,0 0,-6.435 q 0,-0.2925 0.3375,-0.2925 l 1.845,0 q 0.2925,0 0.2925,0.2925 l 0,19.6650001 z m -12.6,-4.0725001 q -0.36,0.3600001 -0.72,0 l -1.0125,-0.99 q -0.3375,-0.315 0.0225,-0.675 1.215,-1.1475 2.025,-2.52 0.81,-1.3725 1.305,-2.9925 0.495,-1.62 0.6975,-3.4875 0.225,-1.8675 0.225,-4.005 0,-0.3375 0.2925,-0.3375 l 1.8675,0.0675 q 0.1125,0 0.225,0.1125 0.1125,0.09 0.1125,0.225 0,1.6875 -0.1125,3.1275 -0.09,1.4175 -0.3375,2.6775 0.225,0.945 0.675,1.935 0.45,0.99 1.0125,1.89 0.5625,0.8775 1.17,1.62 0.6075,0.7425 1.17,1.215 0.3375,0.2925 0.0675,0.585 l -1.035,1.0575 q -0.315,0.36 -0.675,0.0225 -0.4725,-0.3375 -0.9675,-0.855 -0.4725,-0.5175 -0.945,-1.125 -0.45,-0.6075 -0.855,-1.2825 -0.3825,-0.6975 -0.6525,-1.395 -0.6075,1.4625 -1.485,2.7 -0.8775,1.2375 -2.07,2.43 z m 16.965,4.8600001 q 0,0.2925 -0.2925,0.2925 l -1.9575,0 q -0.2925,0 -0.2925,-0.2925 l 0,-20.8125001 q 0,-0.2925 0.315,-0.2925 l 1.935,0 q 0.2925,0 0.2925,0.2925 l 0,20.8125001 z"
           style="font-style:normal;font-variant:normal;font-weight:600;font-stretch:normal;font-size:22.5px;font-family:NanumGothic;-inkscape-font-specification:'NanumGothic Semi-Bold';fill:#e9dece;fill-opacity:1"
           id="path4809" />
        <path
           d="m 205.51576,-5.9285079 q 0,0.135 -0.1125,0.2025 -0.1125,0.0675 -0.225,0.0675 l -11.655,0 q -1.0125,0 -1.3725,-0.36 -0.3375,-0.36 -0.3375,-1.2375 l 0,-5.0850001 q 0,-0.1125 0.09,-0.2025 0.1125,-0.1125 0.225,-0.1125 l 1.9575,0 q 0.135,0 0.225,0.1125 0.1125,0.09 0.1125,0.2025 l 0,4.1625001 q 0,0.225 0.09,0.2925 0.09,0.0675 0.315,0.0675 l 10.35,0 q 0.1125,0 0.225,0.0675 0.1125,0.09 0.1125,0.2025 l 0,1.62 z m -0.6975,-5.7825001 q 0,0.2925 -0.2925,0.2925 l -2.0025,0 q -0.2925,0 -0.2925,-0.315 l 0,-14.5575 q 0,-0.2925 0.2925,-0.2925 l 2.0025,0 q 0.2925,0 0.2925,0.2925 l 0,14.58 z m -5.7825,-8.5275 q 0,1.125 -0.405,2.115 -0.405,0.99 -1.1475,1.7325 -0.72,0.72 -1.7325,1.1475 -1.0125,0.4275 -2.2275,0.4275 -1.215,0 -2.205,-0.4275 -0.99,-0.4275 -1.71,-1.1475 -0.72,-0.7425 -1.125,-1.7325 -0.3825,-0.99 -0.3825,-2.115 0,-1.08 0.3825,-2.0475 0.405,-0.99 1.125,-1.7325 0.72,-0.765 1.71,-1.1925 0.99,-0.45 2.205,-0.45 1.215,0 2.2275,0.45 1.0125,0.4275 1.7325,1.1925 0.7425,0.7425 1.1475,1.7325 0.405,0.9675 0.405,2.0475 z m -2.565,0.045 q 0,-0.6525 -0.225,-1.215 -0.2025,-0.585 -0.6075,-1.0125 -0.3825,-0.4275 -0.9225,-0.675 -0.54,-0.2475 -1.1925,-0.2475 -0.6525,0 -1.1925,0.2475 -0.5175,0.2475 -0.9,0.675 -0.3825,0.4275 -0.6075,1.0125 -0.2025,0.5625 -0.2025,1.215 0,0.675 0.2025,1.26 0.225,0.585 0.6075,1.0125 0.3825,0.4275 0.9,0.675 0.54,0.2475 1.1925,0.2475 0.6525,0 1.1925,-0.2475 0.54,-0.2475 0.9225,-0.675 0.405,-0.4275 0.6075,-1.0125 0.225,-0.585 0.225,-1.26 z"
           style="font-style:normal;font-variant:normal;font-weight:600;font-stretch:normal;font-size:22.5px;font-family:NanumGothic;-inkscape-font-specification:'NanumGothic Semi-Bold';fill:#e9dece;fill-opacity:1"
           id="path4811" />
        <path
           d="m 225.43845,-14.816008 q 0,0.18 -0.09,0.27 -0.0675,0.0675 -0.18,0.0675 l -12.555,0 q -0.9,0 -1.26,-0.405 -0.36,-0.405 -0.36,-1.1925 l 0,-7.785 q 0,-0.855 0.3825,-1.1475 0.3825,-0.315 1.2375,-0.315 l 12.3525,0 q 0.315,0 0.315,0.2925 l 0,1.5075 q 0,0.315 -0.315,0.315 l -10.98,0 q -0.405,0 -0.405,0.3825 l 0,1.8675 11.0925,0 q 0.1125,0 0.2025,0.09 0.1125,0.09 0.1125,0.2025 l 0,1.4625 q 0,0.135 -0.1125,0.225 -0.09,0.09 -0.2025,0.09 l -11.0925,0 0,1.9125 q 0,0.2475 0.0675,0.3375 0.09,0.0675 0.3375,0.0675 l 11.0925,0 q 0.18,0 0.27,0.045 0.09,0.045 0.09,0.225 l 0,1.485 z m 2.52,3.6675 q 0.1125,0 0.225,0.1125 0.1125,0.1125 0.1125,0.2475 l 0,1.4175001 q 0,0.1125 -0.1125,0.225 -0.1125,0.1125 -0.225,0.1125 l -19.5975,0 q -0.135,0 -0.225,-0.1125 -0.09,-0.1125 -0.09,-0.225 l 0,-1.4175001 q 0,-0.36 0.315,-0.36 l 19.5975,0 z"
           style="font-style:normal;font-variant:normal;font-weight:600;font-stretch:normal;font-size:22.5px;font-family:NanumGothic;-inkscape-font-specification:'NanumGothic Semi-Bold';fill:#e9dece;fill-opacity:1"
           id="path4813" />
        <path
           d="m 182.30806,1.8339921 q 0,-0.2925 0.315,-0.2925 l 1.935,0 q 0.2925,0 0.2925,0.2925 l 0,14.2874999 q 0,0.2925 -0.2925,0.2925 l -1.9575,0 q -0.2925,0 -0.2925,-0.2925 l 0,-6.1649999 -2.025,0 0,5.6474999 q 0,0.2925 -0.2925,0.2925 l -1.845,0 q -0.315,0 -0.315,-0.2925 l 0,-13.4099999 q 0,-0.2925 0.315,-0.2925 l 1.845,0 q 0.2925,0 0.2925,0.2925 l 0,5.6025 2.025,0 0,-5.9625 z m 3.0825,20.4074999 q 0,0.135 -0.1125,0.2025 -0.09,0.0675 -0.2025,0.0675 l -12.5775,0 q -1.0125,0 -1.3725,-0.36 -0.3375,-0.36 -0.3375,-1.2375 l 0,-4.9275 q 0,-0.1125 0.09,-0.2025 0.1125,-0.1125 0.225,-0.1125 l 1.935,0 q 0.135,0 0.225,0.1125 0.1125,0.09 0.1125,0.2025 l 0,4.005 q 0,0.225 0.09,0.2925 0.09,0.0675 0.315,0.0675 l 11.295,0 q 0.1125,0 0.2025,0.09 0.1125,0.09 0.1125,0.2025 l 0,1.5975 z m -9.0675,-14.1749999 q 0,1.215 -0.3825,2.2274999 -0.3825,1.0125 -1.0575,1.7325 -0.675,0.72 -1.62,1.125 -0.9225,0.3825 -2.025,0.3825 -1.08,0 -2.0025,-0.3825 -0.9225,-0.405 -1.62,-1.125 -0.675,-0.72 -1.0575,-1.7325 -0.3825,-1.0124999 -0.3825,-2.2274999 0,-1.1925 0.3825,-2.1825 0.3825,-0.99 1.0575,-1.6875 0.6975,-0.72 1.62,-1.1025 0.9225,-0.405 2.0025,-0.405 1.1025,0 2.025,0.405 0.945,0.3825 1.62,1.1025 0.675,0.6975 1.0575,1.6875 0.3825,0.99 0.3825,2.1825 z m -2.4975,0.045 q 0,-0.6975 -0.2025,-1.2825 -0.18,-0.585 -0.54,-1.0125 -0.3375,-0.4275 -0.81,-0.675 -0.4725,-0.2475 -1.035,-0.2475 -0.54,0 -1.0125,0.2475 -0.4725,0.2475 -0.8325,0.675 -0.3375,0.4275 -0.54,1.0125 -0.18,0.585 -0.18,1.2825 0,0.6975 0.18,1.2825 0.2025,0.585 0.54,1.0124999 0.36,0.4275 0.8325,0.675 0.4725,0.2475 1.0125,0.2475 0.5625,0 1.035,-0.2475 0.4725,-0.2475 0.81,-0.675 0.36,-0.4274999 0.54,-1.0124999 0.2025,-0.585 0.2025,-1.2825 z"
           style="font-style:normal;font-variant:normal;font-weight:600;font-stretch:normal;font-size:22.5px;font-family:NanumGothic;-inkscape-font-specification:'NanumGothic Semi-Bold';fill:#e9dece;fill-opacity:1"
           id="path4815" />
        <path
           d="m 206.82076,16.931492 q 0.1125,0 0.225,0.1125 0.1125,0.1125 0.1125,0.225 l 0,1.485 q 0,0.1125 -0.1125,0.225 -0.1125,0.1125 -0.225,0.1125 l -19.5975,0 q -0.135,0 -0.225,-0.1125 -0.09,-0.1125 -0.09,-0.225 l 0,-1.485 q 0,-0.135 0.09,-0.225 0.09,-0.1125 0.225,-0.1125 l 19.5975,0 z m -2.52,-4.545 q 0,0.18 -0.09,0.27 -0.0675,0.0675 -0.18,0.0675 l -12.465,0 q -0.9,0 -1.305,-0.45 -0.405,-0.45 -0.405,-1.2375 l 0,-6.5249999 q 0,-0.855 0.3825,-1.1475 0.3825,-0.315 1.2375,-0.315 l 12.3525,0 q 0.315,0 0.315,0.2925 l 0,1.575 q 0,0.2925 -0.315,0.2925 l -10.98,0 q -0.405,0 -0.405,0.3825 l 0,4.5899999 q 0,0.2025 0.0675,0.315 0.09,0.09 0.3375,0.09 l 11.0925,0 q 0.18,0 0.27,0.045 0.09,0.045 0.09,0.225 l 0,1.53 z"
           style="font-style:normal;font-variant:normal;font-weight:600;font-stretch:normal;font-size:22.5px;font-family:NanumGothic;-inkscape-font-specification:'NanumGothic Semi-Bold';fill:#e9dece;fill-opacity:1"
           id="path4817" />
        <path
           d="m 225.70845,11.643992 q 0,0.135 -0.1125,0.2475 -0.1125,0.09 -0.2025,0.09 l -12.825,0 q -0.8775,0 -1.1925,-0.315 -0.315,-0.3375 -0.315,-1.0575 l 0,-3.2849999 q 0,-0.72 0.2925,-1.035 0.315,-0.3375 1.1925,-0.3375 l 9.8775,0 q 0.18,0 0.225,-0.135 0.045,-0.135 0.045,-0.3375 l 0,-1.125 q 0,-0.18 -0.045,-0.2025 -0.045,-0.045 -0.2475,-0.045 l -11.025,0 q -0.1125,0 -0.225,-0.0675 -0.09,-0.09 -0.09,-0.2025 l 0,-1.5525 q 0,-0.1125 0.09,-0.2025 0.1125,-0.09 0.225,-0.09 l 12.3075,0 q 0.9225,0 1.215,0.2925 0.315,0.27 0.315,1.035 l 0,3.33 q 0,0.7875 -0.315,1.0575 -0.2925,0.27 -1.215,0.27 l -9.81,0 q -0.18,0 -0.225,0.0675 -0.045,0.045 -0.045,0.225 l 0,1.3275 q 0,0.2025 0.045,0.2475 0.045,0.0225 0.2475,0.0225 l 11.475,0 q 0.1125,0 0.225,0.09 0.1125,0.0675 0.1125,0.2024999 l 0,1.485 z m 2.5875,4.2075 q 0,0.1125 -0.1125,0.225 -0.1125,0.1125 -0.225,0.1125 l -4.86,0 0,6.2325 q 0,0.315 -0.315,0.315 l -1.9575,0 q -0.315,0 -0.315,-0.315 l 0,-6.2325 -4.7025,0 0,6.2325 q 0,0.315 -0.315,0.315 l -1.9575,0 q -0.315,0 -0.315,-0.315 l 0,-6.2325 -4.86,0 q -0.135,0 -0.225,-0.1125 -0.09,-0.1125 -0.09,-0.225 l 0,-1.4625 q 0,-0.135 0.09,-0.2475 0.09,-0.1125 0.225,-0.1125 l 19.5975,0 q 0.1125,0 0.225,0.135 0.1125,0.1125 0.1125,0.225 l 0,1.4625 z"
           style="font-style:normal;font-variant:normal;font-weight:600;font-stretch:normal;font-size:22.5px;font-family:NanumGothic;-inkscape-font-specification:'NanumGothic Semi-Bold';fill:#e9dece;fill-opacity:1"
           id="path4819" />
      </g>
    </g>
  </g>
</svg>
