<?xml version="1.0" encoding="UTF-8" standalone="no"?>
<svg
   xmlns:dc="http://purl.org/dc/elements/1.1/"
   xmlns:cc="http://creativecommons.org/ns#"
   xmlns:rdf="http://www.w3.org/1999/02/22-rdf-syntax-ns#"
   xmlns:svg="http://www.w3.org/2000/svg"
   xmlns="http://www.w3.org/2000/svg"
   id="svg2"
   version="1.1"
   xml:space="preserve"
   width="120"
   height="120"
   viewBox="0 0 120 120"><metadata
     id="metadata8"><rdf:RDF><cc:Work
         rdf:about=""><dc:format>image/svg+xml</dc:format><dc:type
           rdf:resource="http://purl.org/dc/dcmitype/StillImage" /><dc:title></dc:title></cc:Work></rdf:RDF></metadata><defs
     id="defs6"><clipPath
       clipPathUnits="userSpaceOnUse"
       id="clipPath16"><path
         d="m 0,841.89 595.28,0 L 595.28,0 0,0 0,841.89 Z"
         id="path18" /></clipPath></defs><g
     transform="translate(-4.5258788e-5,-2.6171874e-6)"
     style="font-style:normal;font-weight:normal;font-size:28.85059738px;line-height:125%;font-family:sans-serif;letter-spacing:0px;word-spacing:0px;fill:#808000;fill-opacity:1;stroke:none;stroke-width:1px;stroke-linecap:butt;stroke-linejoin:miter;stroke-opacity:1"
     id="text4462" /><g
     id="text4246"
     style="font-style:normal;font-variant:normal;font-weight:normal;font-stretch:normal;font-size:40px;line-height:125%;font-family:NanumGothic;-inkscape-font-specification:NanumGothic;letter-spacing:0px;word-spacing:0px;fill:#ffffff;fill-opacity:1;stroke:none;stroke-width:1px;stroke-linecap:butt;stroke-linejoin:miter;stroke-opacity:1"><g
       id="g4280"><circle
         r="50"
         cy="60"
         cx="60"
         id="path4162"
         style="color:#000000;clip-rule:nonzero;display:inline;overflow:visible;visibility:visible;opacity:1;isolation:auto;mix-blend-mode:normal;color-interpolation:sRGB;color-interpolation-filters:linearRGB;solid-color:#000000;solid-opacity:1;fill:#007755;fill-opacity:1;fill-rule:nonzero;stroke:none;stroke-width:0;stroke-linecap:butt;stroke-linejoin:miter;stroke-miterlimit:4;stroke-dasharray:none;stroke-dashoffset:0;stroke-opacity:1;color-rendering:auto;image-rendering:auto;shape-rendering:auto;text-rendering:auto;enable-background:accumulate" /><rect
         style="color:#000000;clip-rule:nonzero;display:inline;overflow:visible;visibility:visible;opacity:1;isolation:auto;mix-blend-mode:normal;color-interpolation:sRGB;color-interpolation-filters:linearRGB;solid-color:#000000;solid-opacity:1;fill:#e85c41;fill-opacity:0;fill-rule:nonzero;stroke:none;stroke-width:0;stroke-linecap:butt;stroke-linejoin:miter;stroke-miterlimit:4;stroke-dasharray:none;stroke-dashoffset:0;stroke-opacity:1;color-rendering:auto;image-rendering:auto;shape-rendering:auto;text-rendering:auto;enable-background:accumulate"
         id="rect9899-1-2-6-8-8-9-2-2-95"
         width="120"
         height="120"
         x="3.0463625e-13"
         y="1.9673428e-14"
         ry="5.9030401e-05" /><circle
         r="45"
         cy="60"
         cx="60"
         id="path4162-5"
         style="color:#000000;clip-rule:nonzero;display:inline;overflow:visible;visibility:visible;opacity:1;isolation:auto;mix-blend-mode:normal;color-interpolation:sRGB;color-interpolation-filters:linearRGB;solid-color:#000000;solid-opacity:1;fill:#ffffff;fill-opacity:1;fill-rule:nonzero;stroke:none;stroke-width:0;stroke-linecap:butt;stroke-linejoin:miter;stroke-miterlimit:4;stroke-dasharray:none;stroke-dashoffset:0;stroke-opacity:1;color-rendering:auto;image-rendering:auto;shape-rendering:auto;text-rendering:auto;enable-background:accumulate" /><circle
         r="40"
         cy="60"
         cx="60"
         id="path4162-1"
         style="color:#000000;clip-rule:nonzero;display:inline;overflow:visible;visibility:visible;opacity:1;isolation:auto;mix-blend-mode:normal;color-interpolation:sRGB;color-interpolation-filters:linearRGB;solid-color:#000000;solid-opacity:1;fill:#000000;fill-opacity:1;fill-rule:nonzero;stroke:none;stroke-width:0;stroke-linecap:butt;stroke-linejoin:miter;stroke-miterlimit:4;stroke-dasharray:none;stroke-dashoffset:0;stroke-opacity:1;color-rendering:auto;image-rendering:auto;shape-rendering:auto;text-rendering:auto;enable-background:accumulate" /><path
         d="m 33.79457,61.767503 q -0.49,0.175 -0.665,0.105 -0.175,-0.07 -0.385,-0.42 l -1.365,-2.45 q -0.455,-0.805 0.175,-1.05 2.555,-0.945 4.48,-2.17 1.96,-1.225 3.325,-2.765 1.365,-1.54 2.135,-3.43 0.805,-1.89 1.05,-4.235 0.07,-0.385 0.21,-0.56 0.14,-0.175 0.63,-0.14 l 3.325,0.21 q 0.63,0.07 0.735,0.245 0.14,0.14 0.07,0.63 -0.07,0.98 -0.21,1.855 0.49,1.75 1.54,3.255 1.085,1.505 2.555,2.73 1.47,1.225 3.22,2.17 1.75,0.91 3.64,1.47 0.455,0.14 0.49,0.35 0.035,0.21 -0.175,0.595 l -1.26,2.59 q -0.14,0.21 -0.175,0.315 -0.07,0.14 -0.14,0.14 -0.14,0.105 -0.56,0 -1.54,-0.35 -3.15,-1.085 -1.575,-0.77 -3.08,-1.785 -1.505,-1.015 -2.8,-2.31 -1.295,-1.295 -2.24,-2.765 -1.82,2.975 -4.795,5.145 -2.975,2.135 -6.58,3.36 z m 26.355,9.1 -30.065,0 q -0.455,0 -0.595,-0.21 -0.105,-0.21 -0.105,-0.525 l 0,-2.52 q 0,-0.385 0.105,-0.56 0.14,-0.175 0.595,-0.175 l 30.065,0 q 0.735,0 0.735,0.735 l 0,2.52 q 0,0.735 -0.735,0.735 z"
         style="font-style:normal;font-variant:normal;font-weight:bold;font-stretch:normal;font-size:35px;font-family:NanumGothic;-inkscape-font-specification:'NanumGothic Bold';fill:#ffffff;fill-opacity:1"
         id="path4272" /><path
         d="m 78.01543,60.717503 -10.57,0 q -0.84,0 -1.4,-0.105 -0.525,-0.105 -0.84,-0.35 -0.28,-0.28 -0.385,-0.77 -0.105,-0.49 -0.105,-1.26 l 0,-13.055 q 0,-0.665 0.63,-0.665 l 3.535,0 q 0.7,0 0.7,0.665 l 0,3.815 6.265,0 0,-3.85 q 0,-0.7 0.665,-0.7 l 3.5,0 q 0.7,0 0.7,0.7 l 0,5.18 5.075,0 0,-6.405 q 0,-0.455 0.175,-0.56 0.21,-0.105 0.525,-0.105 l 3.535,0 q 0.455,0 0.525,0.21 0.07,0.175 0.07,0.455 l 0,17.78 q 0,0.385 -0.14,0.525 -0.14,0.14 -0.525,0.14 l -3.5,0 q -0.385,0 -0.525,-0.105 -0.14,-0.14 -0.14,-0.525 l 0,-7.175 -5.075,0 0,3.78 q 0,1.33 -0.56,1.855 -0.525,0.525 -2.135,0.525 z m 11.935,16.03 -3.465,0 q -0.735,0 -0.735,-0.7 l 0,-7.28 q 0,-0.525 -0.525,-0.525 l -15.575,0 q -0.28,0 -0.49,-0.105 -0.175,-0.105 -0.175,-0.49 l 0,-2.73 q 0,-0.49 0.175,-0.56 0.21,-0.105 0.49,-0.105 l 18.48,0 q 0.77,0 1.26,0.14 0.49,0.105 0.735,0.42 0.28,0.315 0.385,0.84 0.105,0.49 0.105,1.225 l 0,9.17 q 0,0.7 -0.665,0.7 z m -14.105,-23.87 -6.265,0 0,3.43 q 0,0.49 0.525,0.49 l 5.215,0 q 0.525,0 0.525,-0.49 l 0,-3.43 z"
         style="font-style:normal;font-variant:normal;font-weight:bold;font-stretch:normal;font-size:35px;font-family:NanumGothic;-inkscape-font-specification:'NanumGothic Bold';fill:#ffffff;fill-opacity:1"
         id="path4274" /></g></g></svg>