<?xml version="1.0" encoding="UTF-8" standalone="no"?>
<!-- Created with Inkscape (http://www.inkscape.org/) -->

<svg
   xmlns:dc="http://purl.org/dc/elements/1.1/"
   xmlns:cc="http://creativecommons.org/ns#"
   xmlns:rdf="http://www.w3.org/1999/02/22-rdf-syntax-ns#"
   xmlns:svg="http://www.w3.org/2000/svg"
   xmlns="http://www.w3.org/2000/svg"
   xmlns:sodipodi="http://sodipodi.sourceforge.net/DTD/sodipodi-0.dtd"
   xmlns:inkscape="http://www.inkscape.org/namespaces/inkscape"
   id="svg2"
   version="1.1"
   inkscape:version="0.91 r13725"
   xml:space="preserve"
   width="257.07999"
   height="257.08124"
   viewBox="0 0 257.07999 257.08123"
   sodipodi:docname="starbucks_single.svg"><metadata
     id="metadata8"><rdf:RDF><cc:Work
         rdf:about=""><dc:format>image/svg+xml</dc:format><dc:type
           rdf:resource="http://purl.org/dc/dcmitype/StillImage" /><dc:title></dc:title></cc:Work></rdf:RDF></metadata><defs
     id="defs6"><clipPath
       clipPathUnits="userSpaceOnUse"
       id="clipPath16"><path
         d="m 0,841.89 595.28,0 L 595.28,0 0,0 0,841.89 Z"
         id="path18"
         inkscape:connector-curvature="0" /></clipPath></defs><sodipodi:namedview
     pagecolor="#ffffff"
     bordercolor="#666666"
     borderopacity="1"
     objecttolerance="10"
     gridtolerance="10"
     guidetolerance="10"
     inkscape:pageopacity="0"
     inkscape:pageshadow="2"
     inkscape:window-width="1865"
     inkscape:window-height="1035"
     id="namedview4"
     showgrid="false"
     inkscape:zoom="0.89702928"
     inkscape:cx="279.22774"
     inkscape:cy="-130.05965"
     inkscape:window-x="55"
     inkscape:window-y="1"
     inkscape:window-maximized="1"
     inkscape:current-layer="g10"
     fit-margin-top="0"
     fit-margin-left="0"
     fit-margin-right="0"
     fit-margin-bottom="0" /><g
     id="g10"
     inkscape:groupmode="layer"
     inkscape:label="starbucks"
     transform="matrix(1.25,0,0,-1.25,-92.82225,913.32212)"><g
       id="g236"
       transform="translate(74.2578,627.8257)"><path
         d="m 0,0 c 0,56.79 46.039,102.832 102.834,102.832 56.792,0 102.83,-46.042 102.83,-102.832 0,-56.795 -46.038,-102.833 -102.83,-102.833 C 46.039,-102.833 0,-56.795 0,0"
         style="fill:#007755;fill-opacity:1;fill-rule:nonzero;stroke:none"
         id="path238"
         inkscape:connector-curvature="0" /></g><g
       id="g240"
       transform="translate(77.29,627.8257)"><path
         d="m 0,0 c 0,55.114 44.681,99.797 99.802,99.797 55.116,0 99.802,-44.683 99.802,-99.797 0,-55.117 -44.686,-99.802 -99.802,-99.802 C 44.681,-99.802 0,-55.117 0,0"
         style="fill:#ffffff;fill-opacity:1;fill-rule:nonzero;stroke:none"
         id="path242"
         inkscape:connector-curvature="0" /></g><g
       id="g244"
       transform="translate(80.5396,627.8257)"><path
         d="m 0,0 c 0,53.319 43.228,96.545 96.552,96.545 53.322,0 96.549,-43.226 96.549,-96.545 0,-53.324 -43.227,-96.548 -96.549,-96.548 C 43.228,-96.548 0,-53.324 0,0"
         style="fill:#007755;fill-opacity:1;fill-rule:nonzero;stroke:none"
         id="path246"
         inkscape:connector-curvature="0" /></g><g
       id="g248"
       transform="translate(117.4106,628.2319)"><path
         d="m 0,0 c 0,32.839 26.619,59.459 59.456,59.459 32.836,0 59.456,-26.62 59.456,-59.459 0,-32.835 -26.62,-59.451 -59.456,-59.451 C 26.619,-59.451 0,-32.835 0,0"
         style="fill:#ffffff;fill-opacity:1;fill-rule:nonzero;stroke:none"
         id="path250"
         inkscape:connector-curvature="0" /></g><g
       id="g252"
       transform="translate(186.2671,715.8701)"><path
         d="m 0,0 c 1.63,-1.461 2.091,-3.384 2.006,-5.515 -0.46,-1.506 -1.294,-2.966 -2.634,-4.014 1.633,-1.212 3.262,-2.467 3.512,-4.638 0.463,-2.132 -0.167,-4.054 -1.38,-5.642 -2.546,-2.881 -6.6,-2.133 -10.281,-2.253 l -9.713,-0.256 -0.066,0.884 -1,22.059 -0.041,0.483 C -13.203,1.148 -5.684,2.803 0,0"
         style="fill:#ffffff;fill-opacity:1;fill-rule:nonzero;stroke:none"
         id="path254"
         inkscape:connector-curvature="0" /></g><g
       id="g256"
       transform="translate(204.3652,712.7588)"><path
         d="m 0,0 c -1.715,-4.953 -3.969,-9.844 -5.187,-15.066 -0.122,-1.3 0.649,-2.634 2.134,-3.009 1.027,-0.565 2.488,-0.671 3.258,0 3.304,4.637 4.872,10.406 6.942,15.609 2.63,-0.922 4.681,-2.235 7.231,-3.198 -2.72,-5.769 -4.392,-12.56 -8.154,-17.301 -2.715,-2.383 -7.019,-1.796 -10.278,-1 -3.718,1.334 -7.772,3.715 -8.902,7.895 -0.875,2.862 3.094,12.682 5.266,18.553 L 0,0"
         style="fill:#ffffff;fill-opacity:1;fill-rule:nonzero;stroke:none"
         id="path258"
         inkscape:connector-curvature="0" /></g><g
       id="g260"
       transform="translate(144.1436,685.2764)"><path
         d="m 0,0 -5.517,-3.629 c -2.058,1.084 -3.261,1.816 -4.764,2.504 l -6.108,-5.142 c 0.628,-1.506 1.428,-3.343 2.098,-5.015 l -5.454,-6.098 -0.439,0.962 -9.655,22.939 8.818,7.585 0.709,-0.439 C -13.393,9.443 -6.282,4.463 0.726,0.476 L 0,0"
         style="fill:#ffffff;fill-opacity:1;fill-rule:nonzero;stroke:none"
         id="path262"
         inkscape:connector-curvature="0" /></g><g
       id="g264"
       transform="translate(145.522,686.1157)"><path
         d="m 0,0 c -2.897,7.064 -6.444,15.314 -9.068,21.942 6.646,2.674 16.258,9.254 22.191,3.132 1.502,-1.673 1.713,-4.011 1.753,-6.142 -0.372,-1.378 -0.711,-2.76 -1.627,-3.889 1.982,-2.442 5.664,-5.213 8.212,-7.637 L 21.148,7.302 13.625,5.643 C 10.951,7.792 9.435,9.312 7.106,10.906 6.103,10.786 5.413,10.196 4.47,9.78 L 7.062,3.844 0,0"
         style="fill:#ffffff;fill-opacity:1;fill-rule:nonzero;stroke:none"
         id="path266"
         inkscape:connector-curvature="0" /></g><g
       id="g268"
       transform="translate(179.75,711.9839)"><path
         d="m 0,0 c 0.585,-0.625 0.462,-1.922 0.123,-2.633 -1.084,-1.255 -3.09,-1.212 -4.762,-1 0.123,1.419 -0.401,2.8 -0.296,4.26 C -3.515,0.419 -1.045,1.13 0,0"
         style="fill:#007755;fill-opacity:1;fill-rule:nonzero;stroke:none"
         id="path270"
         inkscape:connector-curvature="0" /></g><g
       id="g272"
       transform="translate(152.1685,706.2188)"><path
         d="M 0,0 C 0.415,-1.046 0.439,-2.745 -0.452,-3.366 L -4.588,-5.12 c -1.034,1.898 -1.47,3.199 -2.181,4.743 C -4.848,0.332 -1.549,3.216 0,0"
         style="fill:#007755;fill-opacity:1;fill-rule:nonzero;stroke:none"
         id="path274"
         inkscape:connector-curvature="0" /></g><g
       id="g276"
       transform="translate(181.1284,702.4575)"><path
         d="M 0,0 C 0.331,-1.464 -0.335,-2.969 -1.757,-3.263 -3.093,-3.47 -4.095,-3.346 -5.519,-3.388 -5.727,-1.881 -5.849,0.125 -5.727,1.378 -3.805,1.128 -0.917,2.171 0,0"
         style="fill:#007755;fill-opacity:1;fill-rule:nonzero;stroke:none"
         id="path278"
         inkscape:connector-curvature="0" /></g><g
       id="g280"
       transform="translate(237.5405,694.3066)"><path
         d="M 0,0 C 1.423,-1.754 2.389,-3.927 3.014,-6.142 1.256,-7.083 -0.08,-8.151 -1.752,-8.9 c -0.413,2.591 -1.837,5.223 -4.385,6.519 -1.213,0.71 -3.012,0.836 -4.389,0.375 -2.133,-0.791 -3.969,-2.633 -4.763,-4.764 -0.71,-2.047 0.081,-4.052 1.256,-5.639 1.627,-1.84 3.804,-2.804 6.262,-2.888 -1.104,-1.817 -1.708,-2.964 -2.755,-4.387 -4.098,0.588 -7.942,2.842 -10.281,6.647 -2.004,3.215 -2.129,8.146 -0.373,11.533 1.838,3.72 5.475,6.103 9.399,6.647 C -7.059,5.309 -2.796,3.426 0,0"
         style="fill:#ffffff;fill-opacity:1;fill-rule:nonzero;stroke:none"
         id="path282"
         inkscape:connector-curvature="0" /></g><g
       id="g284"
       transform="translate(128.9731,687.2866)"><path
         d="M 0,0 C -1.125,-1.048 -2.381,-2.046 -3.759,-3.007 -4.762,-0.626 -5.726,1.507 -6.768,4.138 -4.369,2.86 -2.258,1.38 0,0"
         style="fill:#007755;fill-opacity:1;fill-rule:nonzero;stroke:none"
         id="path286"
         inkscape:connector-curvature="0" /></g><g
       id="g288"
       transform="translate(250.083,679.5122)"><path
         d="m 0,0 c -1.921,-1.92 -4.469,-3.553 -6.521,-5.391 3.261,-0.71 6.935,-0.583 10.282,-1.126 1.503,-2.176 2.296,-4.265 3.761,-6.897 l -12.287,0.876 c -2.716,-4.262 -5.18,-8.606 -7.524,-13.036 -1.46,2.131 -2.587,4.887 -4.011,7.268 1.592,3.219 3.658,6.627 5.249,9.845 -2.737,-1.694 -5.14,-3.888 -7.926,-5.641 l -4.34,5.829 c 5.849,5.015 12.16,9.486 18.304,14.037 L -4.516,5.944 0,0"
         style="fill:#ffffff;fill-opacity:1;fill-rule:nonzero;stroke:none"
         id="path290"
         inkscape:connector-curvature="0" /></g><g
       id="g292"
       transform="translate(112.1323,681.0571)"><path
         d="M 0,0 C -1.11,-2.297 -2.57,-3.864 -3.593,-6.059 L 10.7,-15.461 C 9.947,-17.59 8.318,-19.684 6.937,-21.729 l -14.667,9.154 c -1.317,-1.734 -2.26,-3.512 -3.576,-5.727 -1.922,1.273 -3.281,2.111 -4.826,3.215 3.637,6.064 7.085,11.746 11.096,18.038 L 0,0"
         style="fill:#ffffff;fill-opacity:1;fill-rule:nonzero;stroke:none"
         id="path294"
         inkscape:connector-curvature="0" /></g><g
       id="g296"
       transform="translate(152.3389,625.1646)"><path
         d="m 0,0 c 0.019,-0.977 -0.062,-1.958 -0.299,-2.947 -2.216,-4.472 -5.808,-8.397 -6.389,-13.542 -2.551,-1.625 -4.643,-4.468 -8.275,-3.509 -0.127,-0.959 0.166,-2.419 0.498,-3.506 -2.88,0.122 -4.848,-2.006 -7.272,-3.01 -1.294,0.415 -1.629,2.089 -2.127,3.258 2.839,0.959 4.885,3.801 8.146,3.757 0.377,1.05 -0.211,2.009 -0.376,3.01 -4.055,1.801 -10.491,-8.899 -11.031,0.378 4.054,0.25 6.643,4.011 10.658,4.387 l 0.121,3.01 c -4.553,0.461 -7.48,-4.22 -12.033,-3.76 l -1.005,4.009 c 5.265,-0.332 8.401,4.388 13.416,4.642 0.666,0.876 0.749,2.174 0.878,3.385 -5.475,0.71 -9.234,-5.351 -15.044,-3.51 0,0 -0.198,2.524 -0.306,3.948 L 0,0"
         style="fill:#231f20;fill-opacity:1;fill-rule:nonzero;stroke:none"
         id="path298"
         inkscape:connector-curvature="0" /></g><g
       id="g300"
       transform="translate(158.7622,625.1646)"><path
         d="m 0,0 c 0.185,-2.225 -0.36,-4.448 -2.458,-6.71 -3.009,-3.549 -6.058,-8.021 -3.886,-12.789 2.3,-5.262 9.528,-9.357 6.393,-15.918 -1.711,-4.137 -5.809,-7.274 -5.641,-12.162 -1.085,0.461 -2.211,0.922 -3.133,1.756 0,6.225 8.854,10.112 4.635,16.674 -0.373,-1.293 -0.457,-3.049 -0.749,-4.514 -1.466,-3.803 -4.598,-6.851 -5.769,-10.787 -1.961,0.758 -4.011,2.344 -5.642,4.015 l 2.259,1.383 c -0.251,0.836 -0.921,1.544 -1.506,2.256 -1.465,0.207 -2.425,-0.753 -3.635,-1.129 -1.045,0.921 -2.05,1.757 -2.883,2.884 0.751,2.135 6.602,0.374 3.633,3.885 -2.006,1.254 -4.01,-0.542 -5.764,-1.38 l -2.382,3.011 c 2.048,1.252 4.094,3.011 6.64,2.508 0.628,-1.13 0.674,-2.798 1.883,-3.388 4.305,0.085 7.356,3.346 10.657,5.896 -2.3,3.423 -4.177,8.149 -2.133,12.286 1.635,4.147 5.906,7.636 6.099,12.223 L 0,0"
         style="fill:#231f20;fill-opacity:1;fill-rule:nonzero;stroke:none"
         id="path302"
         inkscape:connector-curvature="0" /></g><g
       id="g304"
       transform="translate(164.8862,625.1646)"><path
         d="m 0,0 c 0.213,-1.913 -0.1,-3.874 -1.436,-5.954 -2.713,-3.684 -6.267,-7.565 -4.639,-12.412 1.547,-4.89 7.649,-7.856 7.272,-13.542 -0.042,-6.725 -7.857,-10.908 -5.642,-18.428 l -3.887,1.255 c -1.542,6.684 5.56,10.108 5.644,16.294 1.004,7.109 -8.07,9.742 -7.526,16.676 -0.038,5.266 4.6,8.609 6.647,13.039 0.352,1.078 0.47,2.095 0.423,3.072 L 0,0"
         style="fill:#231f20;fill-opacity:1;fill-rule:nonzero;stroke:none"
         id="path306"
         inkscape:connector-curvature="0" /></g><g
       id="g308"
       transform="translate(186.3691,625.1646)"><path
         d="m 0,0 c -0.227,-1.623 -0.034,-3.307 0.903,-5.078 2.716,-4.301 7.482,-8.86 4.51,-14.421 -3.131,-4.591 -8.356,-9.066 -6.267,-15.039 2.298,-5.227 7.104,-10.197 4.512,-16.679 l -3.885,-0.876 c 3.09,6.315 -1.544,12.576 -4.26,18.052 -3.303,7.857 7.102,11.624 7.269,18.807 -0.039,4.638 -4.971,7.271 -6.015,11.535 -2.132,1.798 -4.347,-0.712 -6.898,-0.249 -1.881,-0.38 -4.763,2.591 -5.89,-0.628 -1.338,-4.721 -7.442,-8.191 -4.764,-13.79 2.551,-4.975 8.691,-8.609 6.642,-15.048 -1.837,-6.015 -7.898,-11.743 -4.137,-18.679 -1.546,0.501 -4.429,-0.459 -4.388,2.006 -2.382,8.401 7.774,13.291 4.638,21.689 -1.461,5.142 -8.108,7.984 -6.645,14.171 1.083,5.088 6.789,8.65 5.987,14.227 L 0,0"
         style="fill:#231f20;fill-opacity:1;fill-rule:nonzero;stroke:none"
         id="path310"
         inkscape:connector-curvature="0" /></g><g
       id="g312"
       transform="translate(192.4116,625.1646)"><path
         d="m 0,0 c -0.082,-1.431 0.207,-2.85 1.128,-4.199 2.884,-4.682 7.898,-9.823 5.016,-15.926 -3.258,-4.885 -8.942,-9.861 -5.769,-16.296 2.298,-3.846 5.854,-7.686 4.893,-12.413 l -3.764,-1.253 c 2.508,8.817 -9.779,14.003 -4.637,22.818 3.176,4.725 8.857,9.155 5.643,15.423 -1.924,3.883 -5.894,6.181 -5.77,11.033 L -3.125,0 0,0"
         style="fill:#231f20;fill-opacity:1;fill-rule:nonzero;stroke:none"
         id="path314"
         inkscape:connector-curvature="0" /></g><g
       id="g316"
       transform="translate(198.6357,625.1646)"><path
         d="m 0,0 c -0.01,-1.186 0.24,-2.374 0.919,-3.571 2.719,-4.894 7.609,-9.53 5.77,-15.671 -0.505,-1.883 -2.004,-3.349 -2.382,-5.267 3.179,-2.633 6.187,-5.599 10.406,-5.766 1.503,0.959 0.668,5.222 3.761,3.258 l 4.512,-2.261 c -0.331,-1.209 -1.336,-2.298 -2.254,-3.134 -1.713,0.836 -3.383,1.84 -5.518,1.759 -0.63,-0.67 -1.174,-1.422 -1.125,-2.383 1.503,-0.247 2.878,-0.875 4.134,-1.754 -0.584,-1.256 -1.715,-2.047 -2.761,-3.01 l -3.508,1.256 c -0.583,-0.837 -1.799,-1.716 -1.375,-2.635 0.792,-0.338 1.671,-0.795 2.254,-1.381 -1.547,-1.67 -3.509,-2.752 -5.394,-3.89 -1.625,5.31 -6.979,9.033 -6.52,15.172 l -0.247,0.252 c -1.255,-1.416 -0.833,-3.677 -0.752,-5.512 1.506,-3.846 5.099,-6.816 5.643,-11.035 -0.628,-1.084 -2.049,-1.294 -3.138,-1.754 0.127,7.605 -11.406,13.369 -4.009,21.061 2.467,3.766 6.603,7.356 5.137,12.54 C 2.05,-8.72 -3.273,-5.612 -3.229,0 L 0,0"
         style="fill:#231f20;fill-opacity:1;fill-rule:nonzero;stroke:none"
         id="path318"
         inkscape:connector-curvature="0" /></g><g
       id="g320"
       transform="translate(232.0322,625.1646)"><path
         d="m 0,0 c 0.042,-1.414 0.172,-2.628 -0.38,-4.077 -5.726,-1.63 -9.486,4.431 -15.041,3.515 l 0.625,-3.137 c 5.138,-0.169 8.357,-5.098 13.665,-4.885 -0.754,-1.507 0.335,-5.477 -3.007,-3.89 -3.469,0.833 -5.978,3.89 -9.78,3.89 -0.459,-0.841 -0.168,-2.012 -0.249,-3.011 4.009,-0.628 6.893,-4.014 10.902,-4.643 -0.376,-1.377 -0.754,-2.921 -1.88,-3.76 -3.262,0.794 -5.81,3.722 -9.28,3.638 l -0.621,-2.882 c 3.299,-0.084 5.433,-3.01 8.399,-3.885 0.079,-1.218 -1.004,-2.303 -1.631,-3.387 -2.631,0.79 -4.638,3.049 -7.646,2.88 -0.043,1.134 0.626,2.425 0.372,3.636 -3.38,-1.005 -5.641,2.13 -8.144,4.015 -0.073,6.163 -6.558,10.21 -6.903,15.983 L 0,0"
         style="fill:#231f20;fill-opacity:1;fill-rule:nonzero;stroke:none"
         id="path322"
         inkscape:connector-curvature="0" /></g><g
       id="g324"
       transform="translate(121.8984,625.1646)"><path
         d="m 0,0 c -0.04,0.556 -0.071,0.943 -0.071,0.943 5.181,-2.009 9.734,1.711 14.166,3.631 1.126,0.338 2.881,-0.251 3.387,1.004 -0.045,0.961 1.712,2.09 0.25,2.758 C 11.253,9.218 6.949,1.398 0.307,4.951 l -0.505,1.007 c 1.382,18.886 12.036,37.146 29.714,46.133 15.797,9.03 40.036,8.273 54.913,-2.258 7.9,-4.846 15.463,-12.829 19.563,-20.937 3.923,-7.103 5.721,-15.083 6.262,-23.567 C 103.398,0.147 98.803,10.214 91.822,7.961 92.2,6.874 92.41,5.745 93.207,4.826 99.393,4.868 103.653,-1.612 110.129,0.943 L 110.134,0 79.535,0 c -0.065,1.151 0.11,2.377 0.633,3.695 2.132,4.933 1.461,11.329 -0.878,15.927 -0.711,1.212 -1.965,2.171 -3.136,2.883 1.716,-3.639 3.802,-7.942 2.758,-12.413 C 78.792,6.641 76.761,3.328 76.737,0 l -3.228,0 0.013,0.437 c 1.21,5.854 4.891,12.08 1.881,18.305 -0.836,2.508 -2.713,5.35 -5.264,6.395 C 73.941,20.789 75.443,13.685 73.27,7.832 72.173,5.504 70.663,2.737 70.513,0 l -3.124,0 c 1.293,6.883 6.531,13.391 2.872,20.748 -0.961,2.172 -2.881,4.389 -5.013,5.645 L 65.119,26.264 C 69.385,22.126 70.679,15.313 68.379,9.841 67.304,6.631 64.949,3.44 64.471,0 L 45.783,0 c -0.066,0.466 -0.18,0.946 -0.343,1.439 -2.13,6.02 -6.48,12.037 -3.888,19.06 0.711,2.006 2.134,3.72 3.383,5.514 C 40.798,23.799 38.708,19.117 38.793,14.353 38.614,9.176 42.443,4.738 42.988,0 L 39.844,0 C 39.592,4.898 35.18,8.72 35.912,14.229 36.16,18.284 37.539,21.836 40.17,24.886 36.537,23.425 35.034,19.244 34.028,15.734 32.287,10.104 36.446,5.043 36.864,0 l -3.383,0 c 0.043,1.043 -0.122,2.141 -0.579,3.325 -2.254,5.808 -3.049,13.66 1.254,18.801 C 31.814,21.498 30.437,18.579 29.642,16.362 27.055,10.692 30.328,5.436 30.44,0 L 0,0"
         style="fill:#231f20;fill-opacity:1;fill-rule:nonzero;stroke:none"
         id="path326"
         inkscape:connector-curvature="0" /></g><g
       id="g328"
       transform="translate(179.8726,673.6216)"><path
         d="M 0,0 6.772,-0.377 6.646,-1.005 1.632,-5.768 c 0.877,-2.133 1.755,-4.266 2.632,-6.392 3.802,2.211 7.44,4.971 12.037,5.265 -0.419,-2.426 -2.258,-4.976 -2.009,-7.398 2.842,0.793 5.438,2.549 8.529,2.383 -1.925,-3.553 -4.725,-7.108 -4.893,-11.535 -4.22,1.586 -8.568,3.511 -13.286,4.263 -10.072,1.713 -19.77,-0.501 -28.087,-4.516 -0.71,4.22 -2.756,7.901 -5.264,11.408 1.504,0.502 3.341,-0.33 4.891,-0.753 1.297,-0.373 2.381,-1.25 3.76,-1.503 0.249,2.508 -1.211,4.973 -2.254,7.272 0.71,0.546 1.838,0.128 2.633,-0.127 3.299,-1.251 6.267,-3.213 9.277,-5.015 1.544,1.802 2.128,4.391 2.756,6.774 l -5.138,4.637 0,0.5 6.769,0.38 c 1.125,2.13 1.878,4.387 3.009,6.517 C -1.628,4.51 -1.168,2.045 0,0"
         style="fill:#ffffff;fill-opacity:1;fill-rule:nonzero;stroke:none"
         id="path330"
         inkscape:connector-curvature="0" /></g><g
       id="g332"
       transform="translate(182.2554,659.9556)"><path
         d="m 0,0 -0.624,-0.627 c -3.135,0.333 -6.435,-0.081 -9.405,-0.128 -0.334,0.336 -1.001,0.838 -0.38,1.255 l 4.766,3.639 C -3.676,3.004 -1.588,1.544 0,0"
         style="fill:#231f20;fill-opacity:1;fill-rule:nonzero;stroke:none"
         id="path334"
         inkscape:connector-curvature="0" /></g><g
       id="g336"
       transform="translate(98.6333,658.2021)"><path
         d="m 0,0 c -2.593,-2.011 -4.43,-4.938 -3.886,-8.278 0.293,-0.5 0.583,-1.251 1.253,-1.378 2.089,0 2.8,2.254 3.759,3.636 1.129,2.506 3.305,5.227 6.27,5.516 2.551,0.165 4.726,-0.501 6.396,-2.506 2.549,-3.054 2.09,-7.984 0.879,-11.538 -1.132,-2.633 -2.888,-5.304 -5.393,-7.02 l -4.515,2.759 c 2.466,1.711 5.061,4.514 5.392,7.648 0,1.127 -0.249,2.631 -1.633,2.758 -2.88,-0.836 -3.173,-4.303 -5.135,-6.268 -1.504,-1.548 -3.387,-2.715 -5.769,-2.38 -2.215,0.126 -4.097,1.502 -5.392,3.257 -2.467,3.76 -1.255,9.28 0.251,12.161 C -6.602,0 -5.514,1.626 -4.01,2.882 -2.759,2.172 -1.293,1.084 0,0"
         style="fill:#ffffff;fill-opacity:1;fill-rule:nonzero;stroke:none"
         id="path338"
         inkscape:connector-curvature="0" /></g><g
       id="g340"
       transform="translate(262.3687,654.936)"><path
         d="m 0,0 c 2.172,-3.508 3.013,-8.145 1.88,-12.409 l -4.64,0.25 c 0.629,2.802 1.09,6.311 -0.878,8.651 -0.58,0.71 -1.629,1.132 -2.381,0.755 -2.549,-2.844 0.215,-6.942 -1.375,-10.158 -0.755,-1.464 -1.881,-3.218 -3.513,-3.882 -2.635,-1.006 -5.895,-0.504 -7.9,1.502 -3.925,4.098 -5.767,10.451 -3.256,15.797 l 4.887,0 c -0.835,-2.092 -1.417,-5.057 -0.625,-7.524 0.416,-1.043 0.918,-2.38 2.134,-2.757 4.011,-0.144 1.292,5.6 2.253,8.277 0.378,2.004 1.463,4.094 3.509,5.014 C -6.145,5.353 -1.753,3.266 0,0"
         style="fill:#ffffff;fill-opacity:1;fill-rule:nonzero;stroke:none"
         id="path342"
         inkscape:connector-curvature="0" /></g><g
       id="g344"
       transform="translate(139.3809,647.0415)"><path
         d="M 0,0 C 4.053,1.548 9.568,4.22 13.915,1.376 12.994,0.083 11.2,-0.627 9.9,-1.757 7.772,-3.844 5.181,-6.392 3.636,-9.025 c -5.224,1.046 -9.405,-2.011 -13.792,-3.764 -1.671,-0.331 -3.888,-0.499 -5.265,0.627 4.137,6.814 9.984,13.082 8.525,22.066 0.459,0.796 1.252,0.125 1.755,-0.126 C -1.922,7.273 -0.378,3.804 0,0"
         style="fill:#ffffff;fill-opacity:1;fill-rule:nonzero;stroke:none"
         id="path346"
         inkscape:connector-curvature="0" /></g><g
       id="g348"
       transform="translate(221.874,655.9434)"><path
         d="m 0,0 c -1.627,-8.524 4.22,-14.545 8.149,-21.063 -4.511,-3.009 -8.778,1.631 -13.037,2.759 -1.881,0.289 -4.094,0.544 -5.897,0.25 -2.585,4.01 -6.055,7.774 -10.278,10.029 0.25,1.378 2.171,1.465 3.512,1.633 3.718,0.372 6.979,-1.172 10.029,-2.76 0.586,1.377 0.835,2.924 1.251,4.386 1.008,2.466 2.973,4.975 5.521,6.02 C -0.208,1.169 0.168,0.583 0,0"
         style="fill:#ffffff;fill-opacity:1;fill-rule:nonzero;stroke:none"
         id="path350"
         inkscape:connector-curvature="0" /></g><g
       id="g352"
       transform="translate(187.0176,648.168)"><path
         d="m 0,0 c 0.129,-0.71 0.838,-1.338 0.379,-2.132 -2.466,0.756 -5.264,0.337 -7.647,-0.623 -2.133,-1.587 -1.798,-4.852 -1.253,-7.146 l 0.627,-0.503 c 1.042,0.253 1.088,1.587 2.005,1.881 1.547,-0.377 3.678,-0.923 5.139,0 1.295,-0.043 1.257,-1.838 1.378,-2.758 -0.918,-4.849 -2.965,-10.114 -7.896,-12.412 -2.048,-1.004 -4.683,-0.331 -6.648,0.377 -4.847,2.883 -7.562,8.609 -7.019,13.788 0.378,0.795 0.965,1.423 1.884,0.878 1.96,-1.334 4.092,1.043 5.891,-0.623 2.172,0.962 0.878,3.632 0.878,5.636 -1.756,2.261 -4.764,1.927 -7.397,1.76 -1.171,0.71 0.085,1.839 0.373,2.634 2.842,4.007 8.28,4.093 13.037,3.508 C -3.841,3.637 -1.167,2.593 0,0"
         style="fill:#ffffff;fill-opacity:1;fill-rule:nonzero;stroke:none"
         id="path354"
         inkscape:connector-curvature="0" /></g><g
       id="g356"
       transform="translate(172.4746,642.4028)"><path
         d="m 0,0 0,-0.504 c -1.42,0.127 -3.715,1.549 -5.013,-0.25 -0.834,-0.371 -0.96,0.59 -0.875,1.129 -0.167,0.626 0.209,1.129 0.752,1.252 C -3.175,2.087 -0.959,1.504 0,0"
         style="fill:#ffffff;fill-opacity:1;fill-rule:nonzero;stroke:none"
         id="path358"
         inkscape:connector-curvature="0" /></g><g
       id="g360"
       transform="translate(187.397,643.0303)"><path
         d="M 0,0 C -0.042,-0.503 0.083,-1.088 -0.501,-1.381 -2.09,-0.754 -4.306,0.125 -5.892,-1.131 -6.813,0.834 -4.261,0.418 -3.385,1 -2.09,1.046 -0.584,1.084 0,0"
         style="fill:#ffffff;fill-opacity:1;fill-rule:nonzero;stroke:none"
         id="path362"
         inkscape:connector-curvature="0" /></g><g
       id="g364"
       transform="translate(179.3711,635.0059)"><path
         d="m 0,0 c -0.75,-1.586 -3.174,-0.585 -4.515,-0.876 -0.453,0.168 -0.167,0.666 -0.25,1 C -3.426,1.045 -1.042,1.168 0,0"
         style="fill:#231f20;fill-opacity:1;fill-rule:nonzero;stroke:none"
         id="path366"
         inkscape:connector-curvature="0" /></g><g
       id="g368"
       transform="translate(181.3755,631.4922)"><path
         d="m 0,0 c -0.998,-1.502 -2.503,-3.379 -4.509,-3.26 -2.26,-0.166 -2.759,1.673 -4.392,2.76 L -9.024,0.257 C -6.012,-0.205 -2.712,0.379 0,0"
         style="fill:#231f20;fill-opacity:1;fill-rule:nonzero;stroke:none"
         id="path370"
         inkscape:connector-curvature="0" /></g><g
       id="g372"
       transform="translate(103.271,611.938)"><path
         d="M 0,0 C 2.532,0.012 4.961,-0.085 7.576,-0.023 L 1.759,-4.888 C 2.32,-6.935 2.804,-9.29 3.512,-12.037 l -5.768,4.013 c -2.424,-1.107 -3.886,-2.467 -6.392,-3.76 l 2.005,6.896 c -1.904,1.558 -4.032,3.035 -5.831,4.622 2.624,0.069 4.922,-0.037 7.46,0.014 1.171,2.193 1.693,4.705 2.758,6.897 L 0,0"
         style="fill:#ffffff;fill-opacity:1;fill-rule:nonzero;stroke:none"
         id="path374"
         inkscape:connector-curvature="0" /></g><g
       id="g376"
       transform="translate(132.9844,578.9639)"><path
         d="m 0,0 c 0.503,-1.211 1.231,-2.171 1.541,-3.986 -1.337,-0.84 -3.024,-1.529 -4.552,-2.283 -0.372,2.761 -2.799,5.435 -5.513,6.147 -2.255,0.56 -4.721,-0.505 -6.393,-2.511 -1.381,-1.626 -1.798,-3.97 -1.381,-6.017 1.088,-2.837 4.097,-4.982 7.146,-4.982 l 0.877,-0.025 c -0.834,-2.009 -1.377,-3.018 -2.254,-4.524 -5.06,0.171 -10.157,3.139 -12.039,8.029 -1.628,3.968 -0.917,9.11 1.633,12.413 3.093,3.926 8.024,5.014 12.789,4.008 C -4.932,5.391 -1.923,2.969 0,0"
         style="fill:#ffffff;fill-opacity:1;fill-rule:nonzero;stroke:none"
         id="path378"
         inkscape:connector-curvature="0" /></g><g
       id="g380"
       transform="translate(230.3965,581.5947)"><path
         d="m 0,0 0.317,-0.31 -7.523,-7.002 2.506,-3.027 c 2.13,1.672 4.43,3.449 6.709,5.577 1.17,-0.983 2.113,-2.128 3.217,-3.427 -2.253,-2.15 -4.597,-3.614 -6.559,-5.663 0.835,-1.044 1.482,-2.234 2.755,-3.49 l 8.111,6.688 3.464,-3.574 C 8.4,-18.594 3.387,-23.089 -1.375,-26.575 l -14.17,18.304 c 4.517,3.763 8.317,7.189 12.289,11.159 C -2.044,2.092 -1.166,1.051 0,0"
         style="fill:#ffffff;fill-opacity:1;fill-rule:nonzero;stroke:none"
         id="path382"
         inkscape:connector-curvature="0" /></g><g
       id="g384"
       transform="translate(150.6626,566.1753)"><path
         d="m 0,0 c 2.548,-3.258 2.589,-8.313 1,-12.032 -1.771,-3.783 -5.18,-6.187 -8.901,-7.022 -4.509,-0.709 -8.774,0.75 -12.034,3.882 -2.88,3.179 -4.469,7.735 -3.009,12.161 1.295,4.809 5.976,8.317 10.783,8.904 C -7.188,6.186 -2.592,3.886 0,0"
         style="fill:#ffffff;fill-opacity:1;fill-rule:nonzero;stroke:none"
         id="path386"
         inkscape:connector-curvature="0" /></g><g
       id="g388"
       transform="translate(145.3994,563.1646)"><path
         d="m 0,0 c 1.416,-3.3 -0.212,-6.558 -2.511,-8.899 -1.46,-1.168 -3.375,-1.905 -5.296,-1.194 -1.21,0.585 -2.704,1.655 -3.038,2.953 -0.921,3.342 0.607,6.474 2.944,8.774 1.422,1.171 3.469,1.837 5.263,1.004 C -1.549,2.304 -0.337,1.088 0,0"
         style="fill:#007755;fill-opacity:1;fill-rule:nonzero;stroke:none"
         id="path390"
         inkscape:connector-curvature="0" /></g><g
       id="g392"
       transform="translate(195.2974,557.8623)"><path
         d="m 0,0 c -3.515,-0.504 -6.875,-0.925 -10.222,-1.468 0.338,-1.649 0.187,-2.753 0.44,-4.008 3.136,0.062 5.873,0.617 8.799,0.994 l 0.854,-5.361 c -2.863,-0.524 -5.982,-1.001 -8.987,-1.297 0.082,-2.421 0.406,-5.387 0.366,-8.063 -2.464,-0.375 -5.126,-0.648 -7.675,-0.479 l -1.503,22.857 -0.021,0.479 c 5.66,0.545 11.406,1.275 16.816,2.154 C -0.9,4.092 -0.376,2.113 0,0"
         style="fill:#ffffff;fill-opacity:1;fill-rule:nonzero;stroke:none"
         id="path394"
         inkscape:connector-curvature="0" /></g><g
       id="g396"
       transform="translate(214.4712,568.1362)"><path
         d="m 0,0 0.21,-0.393 -9.181,-4.605 1.555,-3.608 c 2.801,1.069 5.22,2.064 8.004,3.471 0.848,-1.275 1.431,-2.637 2.129,-4.193 -2.524,-1.345 -5.137,-2.388 -7.888,-3.595 0.51,-1.237 0.769,-2.137 1.665,-4.121 l 9.663,4.142 2.326,-4.407 c -5.638,-2.897 -11.71,-5.801 -17.264,-7.814 l -8.462,21.543 c 5.388,2.344 10.004,4.567 14.925,7.261 C -1.375,2.58 -0.826,1.331 0,0"
         style="fill:#ffffff;fill-opacity:1;fill-rule:nonzero;stroke:none"
         id="path398"
         inkscape:connector-curvature="0" /></g><g
       id="g400"
       transform="translate(173.9229,555.2656)"><path
         d="m 0,0 c -3.496,0.583 -6.831,1.209 -10.18,1.712 -0.187,-1.675 -0.66,-2.686 -0.8,-3.955 3.006,-0.895 5.781,-1.196 8.682,-1.729 l -0.816,-5.372 c -2.886,0.373 -6.002,0.867 -8.959,1.503 -0.656,-2.332 -1.246,-5.258 -2.096,-7.795 -2.467,0.392 -5.086,0.948 -7.464,1.884 l 5.516,22.228 0.131,0.46 C -10.427,7.735 -4.734,6.685 0.688,5.875 0.387,4.17 0.281,2.12 0,0"
         style="fill:#ffffff;fill-opacity:1;fill-rule:nonzero;stroke:none"
         id="path402"
         inkscape:connector-curvature="0" /></g><g
       id="g404"
       transform="translate(255.1704,611.9014)"><path
         d="M 0,0 C 2.527,0.011 4.786,-0.058 7.571,-0.024 L 1.759,-4.89 c 0.565,-2.044 1.044,-4.398 1.75,-7.149 l -5.762,4.016 c -2.43,-1.104 -3.889,-2.466 -6.396,-3.76 l 2.006,6.893 c -1.903,1.555 -4.036,3.038 -5.827,4.627 2.618,0.068 4.919,-0.039 7.454,0.013 1.025,2.282 1.756,4.475 2.763,6.896 L 0,0"
         style="fill:#ffffff;fill-opacity:1;fill-rule:nonzero;stroke:none"
         id="path406"
         inkscape:connector-curvature="0" /></g></g></svg>