<?xml version="1.0" encoding="UTF-8" standalone="no"?>
<!-- Created with Inkscape (http://www.inkscape.org/) -->

<svg
   xmlns:dc="http://purl.org/dc/elements/1.1/"
   xmlns:cc="http://creativecommons.org/ns#"
   xmlns:rdf="http://www.w3.org/1999/02/22-rdf-syntax-ns#"
   xmlns:svg="http://www.w3.org/2000/svg"
   xmlns="http://www.w3.org/2000/svg"
   xmlns:sodipodi="http://sodipodi.sourceforge.net/DTD/sodipodi-0.dtd"
   xmlns:inkscape="http://www.inkscape.org/namespaces/inkscape"
   id="svg3371"
   version="1.1"
   inkscape:version="0.91 r13725"
   xml:space="preserve"
   width="142.60374"
   height="142.60625"
   viewBox="0 0 142.60374 142.60625"
   sodipodi:docname="tomntoms.svg"><metadata
     id="metadata3377"><rdf:RDF><cc:Work
         rdf:about=""><dc:format>image/svg+xml</dc:format><dc:type
           rdf:resource="http://purl.org/dc/dcmitype/StillImage" /><dc:title></dc:title></cc:Work></rdf:RDF></metadata><defs
     id="defs3375"><clipPath
       clipPathUnits="userSpaceOnUse"
       id="clipPath3387"><path
         d="m 0,363.503 922.332,0 L 922.332,0 0,0 0,363.503 Z"
         id="path3389"
         inkscape:connector-curvature="0" /></clipPath></defs><sodipodi:namedview
     pagecolor="#ffffff"
     bordercolor="#666666"
     borderopacity="1"
     objecttolerance="10"
     gridtolerance="10"
     guidetolerance="10"
     inkscape:pageopacity="0"
     inkscape:pageshadow="2"
     inkscape:window-width="1864"
     inkscape:window-height="1155"
     id="namedview3373"
     showgrid="false"
     fit-margin-top="0"
     fit-margin-left="0"
     fit-margin-right="0"
     fit-margin-bottom="0"
     inkscape:zoom="1.2169153"
     inkscape:cx="104.43476"
     inkscape:cy="76.991853"
     inkscape:window-x="56"
     inkscape:window-y="1"
     inkscape:window-maximized="1"
     inkscape:current-layer="g3379" /><g
     id="g3379"
     inkscape:groupmode="layer"
     inkscape:label="tomntoms"
     transform="matrix(1.25,0,0,-1.25,-472.02276,292.80377)"><g
       id="g4568"
       transform="translate(-23.008996,-71.656584)"><g
         transform="translate(419.9102,211.0996)"
         id="g3799"><path
           inkscape:connector-curvature="0"
           id="path3801"
           style="fill:#ffffff;fill-opacity:1;fill-rule:nonzero;stroke:none"
           d="m 0,0 c -9.664,9.677 -15.639,23.012 -15.639,37.771 0,14.751 5.975,28.083 15.639,37.752 9.675,9.673 23.014,15.648 37.763,15.648 14.738,0 28.083,-5.975 37.754,-15.648 C 85.176,65.854 91.153,52.522 91.153,37.771 91.153,23.012 85.176,9.677 75.517,0 65.846,-9.664 52.501,-15.634 37.763,-15.634 23.014,-15.634 9.675,-9.664 0,0 m 37.763,94.8 c -31.502,0 -57.046,-25.535 -57.046,-57.029 0,-31.52 25.544,-57.056 57.046,-57.056 31.494,0 57.037,25.536 57.037,57.056 C 94.8,69.265 69.257,94.8 37.763,94.8" /></g><g
         transform="translate(419.9082,211.0996)"
         id="g3803"><path
           inkscape:connector-curvature="0"
           id="path3805"
           style="fill:#571f1c;fill-opacity:1;fill-rule:nonzero;stroke:none"
           d="m 0,0 c -9.663,9.677 -15.639,23.012 -15.639,37.771 0,14.751 5.976,28.083 15.639,37.752 9.675,9.673 23.014,15.648 37.764,15.648 14.737,0 28.082,-5.975 37.753,-15.648 C 85.178,65.854 91.155,52.522 91.155,37.771 91.155,23.012 85.178,9.677 75.517,0 65.846,-9.664 52.501,-15.634 37.764,-15.634 23.014,-15.634 9.675,-9.664 0,0" /></g><g
         transform="translate(457.6729,222.0615)"
         id="g3807"><path
           inkscape:connector-curvature="0"
           id="path3809"
           style="fill:#ffffff;fill-opacity:1;fill-rule:nonzero;stroke:none"
           d="M 0,0 C -14.804,0.039 -26.771,12.012 -26.788,26.809 -26.771,41.579 -14.804,53.568 0,53.568 14.782,53.568 26.752,41.579 26.785,26.809 26.752,12.012 14.782,0.039 0,0 m 0,57.198 c -16.788,0 -30.394,-13.604 -30.394,-30.389 0,-16.813 13.606,-30.411 30.394,-30.411 16.795,0 30.39,13.598 30.39,30.411 0,16.785 -13.595,30.389 -30.39,30.389" /></g><g
         transform="translate(457.6729,222.0615)"
         id="g3811"><path
           inkscape:connector-curvature="0"
           id="path3813"
           style="fill:#103d2d;fill-opacity:1;fill-rule:nonzero;stroke:none"
           d="M 0,0 C -14.804,0.039 -26.771,12.012 -26.788,26.809 -26.771,41.579 -14.804,53.568 0,53.568 14.782,53.568 26.752,41.579 26.785,26.809 26.752,12.012 14.782,0.039 0,0" /></g><g
         transform="translate(451.373,243.2246)"
         id="g3823"><path
           inkscape:connector-curvature="0"
           id="path3825"
           style="fill:#ffffff;fill-opacity:1;fill-rule:nonzero;stroke:none"
           d="M 0,0 12.417,-17.731 25.991,-8.226 13.576,9.505 22.607,15.83 13.598,28.696 -18.039,6.543 -9.031,-6.323 0,0 Z" /></g><g
         transform="translate(412.1689,254.7822)"
         id="g3827"><path
           inkscape:connector-curvature="0"
           id="path3829"
           style="fill:#ffffff;fill-opacity:1;fill-rule:nonzero;stroke:none"
           d="m 0,0 0.427,5.047 -3.403,0.284 -1.186,-14.12 3.4,-0.287 0.425,5.047 11.578,-0.972 0.338,4.028 L 0,0 Z" /></g><g
         transform="translate(423.4355,264.168)"
         id="g3831"><path
           inkscape:connector-curvature="0"
           id="path3833"
           style="fill:#ffffff;fill-opacity:1;fill-rule:nonzero;stroke:none"
           d="m 0,0 c -0.785,-1.755 -2.622,-2.617 -5.5,-1.33 -2.877,1.288 -3.458,3.23 -2.674,4.985 0.786,1.757 2.623,2.618 5.5,1.331 C 0.204,3.698 0.785,1.755 0,0 m -11.281,5.048 c -1.694,-3.785 -0.415,-8.019 4.136,-10.055 4.552,-2.035 8.559,-0.169 10.252,3.617 1.694,3.786 0.415,8.018 -4.136,10.053 -4.55,2.036 -8.56,0.17 -10.252,-3.615" /></g><g
         transform="translate(427.7393,287.833)"
         id="g3835"><path
           inkscape:connector-curvature="0"
           id="path3837"
           style="fill:#ffffff;fill-opacity:1;fill-rule:nonzero;stroke:none"
           d="m 0,0 2.278,-7.438 -7.068,3.248 -3.449,-3.017 9.895,-11.315 2.841,2.483 -5.148,5.885 0.302,0.264 5.208,-2.209 1.694,1.484 -1.496,5.454 0.303,0.265 5.148,-5.883 2.839,2.481 L 3.45,3.017 0,0 Z" /></g><g
         transform="translate(463.3613,298.2588)"
         id="g3839"><path
           inkscape:connector-curvature="0"
           id="path3841"
           style="fill:#ffffff;fill-opacity:1;fill-rule:nonzero;stroke:none"
           d="m 0,0 -0.877,-3.3 4.895,-1.3 -2.981,-11.228 3.905,-1.039 2.983,11.231 4.895,-1.3 0.874,3.3 L 0,0 Z" /></g><g
         transform="translate(478.584,279.8428)"
         id="g3843"><path
           inkscape:connector-curvature="0"
           id="path3845"
           style="fill:#ffffff;fill-opacity:1;fill-rule:nonzero;stroke:none"
           d="M 0,0 C -1.592,1.078 -2.123,3.036 -0.355,5.646 1.41,8.258 3.425,8.493 5.019,7.415 6.608,6.338 7.141,4.38 5.376,1.77 3.609,-0.842 1.593,-1.078 0,0 M 6.926,10.236 C 3.492,12.561 -0.898,12.034 -3.692,7.904 -6.486,3.772 -5.342,-0.497 -1.908,-2.82 1.527,-5.145 5.915,-4.619 8.711,-0.489 11.504,3.642 10.36,7.913 6.926,10.236" /></g><g
         transform="translate(501.2344,271.5674)"
         id="g3847"><path
           inkscape:connector-curvature="0"
           id="path3849"
           style="fill:#ffffff;fill-opacity:1;fill-rule:nonzero;stroke:none"
           d="m 0,0 -7.723,-0.943 4.433,6.391 -2.366,3.926 -12.872,-7.767 1.949,-3.231 6.692,4.041 0.21,-0.346 -3.088,-4.741 1.166,-1.928 5.631,0.521 0.208,-0.347 -6.692,-4.037 1.948,-3.23 L 2.365,-3.926 0,0 Z" /></g><g
         transform="translate(451.3164,297.6934)"
         id="g3851"><path
           inkscape:connector-curvature="0"
           id="path3853"
           style="fill:#ffffff;fill-opacity:1;fill-rule:nonzero;stroke:none"
           d="m 0,0 1.731,-9.072 -7.031,8.059 0,0.002 -4.221,-0.806 2.816,-14.746 3.698,0.706 -1.741,9.114 7.062,-8.097 4.201,0.802 L 3.697,0.708 0,0 Z" /></g><g
         transform="translate(507.0527,248.0967)"
         id="g3855"><path
           inkscape:connector-curvature="0"
           id="path3857"
           style="fill:#ffffff;fill-opacity:1;fill-rule:nonzero;stroke:none"
           d="m 0,0 c 0.505,1.577 0.571,4.479 0.223,6.511 -0.735,4.29 -3.105,6.076 -5.715,5.631 -2.578,-0.441 -3.159,-2.914 -3.462,-5.405 -0.307,-2.549 -0.273,-5.075 -1.37,-5.262 -0.838,-0.145 -1.474,0.838 -1.812,2.809 -0.399,2.336 -0.171,4.56 0.631,5.828 l -0.198,1.15 -3.514,-0.6 c -0.48,-1.502 -0.822,-4.22 -0.308,-7.223 0.744,-4.349 3.084,-6.476 5.906,-5.994 2.898,0.496 3.517,3.191 3.797,5.758 0.267,2.44 0.254,4.775 1.161,4.928 0.669,0.115 1.22,-0.818 1.495,-2.407 0.27,-1.59 0.28,-4.048 -0.54,-5.194 L -3.512,-0.601 0,0 Z" /></g><g
         transform="translate(429.3213,230.21)"
         id="g3859"><path
           inkscape:connector-curvature="0"
           id="path3861"
           style="fill:#ffffff;fill-opacity:1;fill-rule:nonzero;stroke:none"
           d="m 0,0 c -2.716,4.283 -7.171,5.346 -11.2,2.788 -0.012,-0.006 -0.012,-0.006 -0.022,-0.012 -3.299,-2.094 -5.134,-6.802 -2.166,-11.484 0.962,-1.517 2.323,-2.829 4.039,-3.751 l 3.121,1.98 -0.695,1.094 c -1.534,0.5 -2.435,0.781 -3.545,2.528 -1.148,1.81 -0.82,4.733 1.462,6.182 2.411,1.531 4.863,0.732 6.079,-1.182 0,-0.002 -0.004,0.004 0,0 1.324,-2.087 0.843,-3.677 0.414,-4.732 l 0.696,-1.093 3.032,1.922 C 1.733,-3.6 0.757,-1.189 0,0" /></g><g
         transform="translate(431.0879,210.8271)"
         id="g3863"><path
           inkscape:connector-curvature="0"
           id="path3865"
           style="fill:#ffffff;fill-opacity:1;fill-rule:nonzero;stroke:none"
           d="M 0,0 C -1.593,1.111 -2.154,3.063 -0.293,5.722 1.562,8.382 3.586,8.529 5.182,7.418 6.773,6.307 7.333,4.354 5.476,1.695 3.619,-0.965 1.594,-1.113 0,0 M 7.155,10.246 C 3.714,12.648 -0.753,12.193 -3.639,8.058 -6.524,3.922 -5.413,-0.428 -1.976,-2.829 1.465,-5.23 5.93,-4.775 8.818,-0.639 11.706,3.496 10.594,7.845 7.155,10.246" /></g><g
         transform="translate(455.0977,210.9463)"
         id="g3867"><path
           inkscape:connector-curvature="0"
           id="path3869"
           style="fill:#ffffff;fill-opacity:1;fill-rule:nonzero;stroke:none"
           d="m 0,0 0.764,3.363 -10.79,2.45 -3.367,-14.819 3.983,-0.903 1.33,5.863 6.255,-1.421 0.765,3.364 -6.257,1.42 0.505,2.228 L 0,0 Z" /></g><g
         transform="translate(469.9102,212.9844)"
         id="g3871"><path
           inkscape:connector-curvature="0"
           id="path3873"
           style="fill:#ffffff;fill-opacity:1;fill-rule:nonzero;stroke:none"
           d="m 0,0 -0.641,3.388 -10.873,-2.065 2.834,-14.929 4.012,0.762 -1.121,5.908 6.3,1.196 -0.642,3.389 -6.302,-1.198 -0.426,2.245 L 0,0 Z" /></g><g
         transform="translate(480.0146,204.5693)"
         id="g3875"><path
           inkscape:connector-curvature="0"
           id="path3877"
           style="fill:#ffffff;fill-opacity:1;fill-rule:nonzero;stroke:none"
           d="M 0,0 0,0 3.409,2.255 9.684,6.407 7.78,9.283 1.505,5.13 0.16,7.165 5.963,11.001 4.061,13.876 -1.741,10.039 -3.071,12.052 3.11,16.144 1.21,19.02 -8.382,12.675 0,0 Z" /></g><g
         transform="translate(495.4648,216.708)"
         id="g3879"><path
           inkscape:connector-curvature="0"
           id="path3881"
           style="fill:#ffffff;fill-opacity:1;fill-rule:nonzero;stroke:none"
           d="M 0,0 0.002,0 2.255,3.406 6.407,9.682 3.531,11.587 -0.621,5.311 -2.651,6.654 1.188,12.455 -1.69,14.36 -5.527,8.557 -7.541,9.89 -3.447,16.075 -6.324,17.979 -12.673,8.386 0,0 Z" /></g></g></g></svg>