<?xml version="1.0" encoding="UTF-8" standalone="no"?>
<svg
   xmlns:dc="http://purl.org/dc/elements/1.1/"
   xmlns:cc="http://creativecommons.org/ns#"
   xmlns:rdf="http://www.w3.org/1999/02/22-rdf-syntax-ns#"
   xmlns:svg="http://www.w3.org/2000/svg"
   xmlns="http://www.w3.org/2000/svg"
   viewBox="0 0 120 120"
   height="120"
   width="120"
   xml:space="preserve"
   version="1.1"
   id="svg3371"><metadata
     id="metadata3377"><rdf:RDF><cc:Work
         rdf:about=""><dc:format>image/svg+xml</dc:format><dc:type
           rdf:resource="http://purl.org/dc/dcmitype/StillImage" /><dc:title></dc:title></cc:Work></rdf:RDF></metadata><defs
     id="defs3375"><clipPath
       id="clipPath3387"
       clipPathUnits="userSpaceOnUse"><path
         id="path3389"
         d="m 0,363.503 922.332,0 L 922.332,0 0,0 0,363.503 Z" /></clipPath></defs><g
     transform="matrix(1.25,0,0,-1.25,-472.02281,470.19752)"
     id="g3379"><g
       id="g4245"><circle
         r="40"
         cy="-328.15802"
         cx="425.61826"
         id="path4162"
         style="color:#000000;clip-rule:nonzero;display:inline;overflow:visible;visibility:visible;opacity:1;isolation:auto;mix-blend-mode:normal;color-interpolation:sRGB;color-interpolation-filters:linearRGB;solid-color:#000000;solid-opacity:1;fill:#571f1c;fill-opacity:1;fill-rule:nonzero;stroke:none;stroke-width:0;stroke-linecap:butt;stroke-linejoin:miter;stroke-miterlimit:4;stroke-dasharray:none;stroke-dashoffset:0;stroke-opacity:1;color-rendering:auto;image-rendering:auto;shape-rendering:auto;text-rendering:auto;enable-background:accumulate"
         transform="scale(1,-1)" /><rect
         style="color:#000000;clip-rule:nonzero;display:inline;overflow:visible;visibility:visible;opacity:1;isolation:auto;mix-blend-mode:normal;color-interpolation:sRGB;color-interpolation-filters:linearRGB;solid-color:#000000;solid-opacity:1;fill:#e85c41;fill-opacity:0;fill-rule:nonzero;stroke:none;stroke-width:0;stroke-linecap:butt;stroke-linejoin:miter;stroke-miterlimit:4;stroke-dasharray:none;stroke-dashoffset:0;stroke-opacity:1;color-rendering:auto;image-rendering:auto;shape-rendering:auto;text-rendering:auto;enable-background:accumulate"
         id="rect9899-1-2-6-8-8-9-2-2-95"
         width="96"
         height="96"
         x="377.61826"
         y="-376.15802"
         ry="4.7224319e-05"
         transform="scale(1,-1)" /><circle
         r="32"
         cy="-328.15802"
         cx="425.61826"
         id="path4162-8"
         style="color:#000000;clip-rule:nonzero;display:inline;overflow:visible;visibility:visible;opacity:1;isolation:auto;mix-blend-mode:normal;color-interpolation:sRGB;color-interpolation-filters:linearRGB;solid-color:#000000;solid-opacity:1;fill:#ffffff;fill-opacity:1;fill-rule:nonzero;stroke:none;stroke-width:0;stroke-linecap:butt;stroke-linejoin:miter;stroke-miterlimit:4;stroke-dasharray:none;stroke-dashoffset:0;stroke-opacity:1;color-rendering:auto;image-rendering:auto;shape-rendering:auto;text-rendering:auto;enable-background:accumulate"
         transform="scale(1,-1)" /><circle
         r="30"
         cy="-328.15802"
         cx="425.61826"
         id="path4162-8-1"
         style="color:#000000;clip-rule:nonzero;display:inline;overflow:visible;visibility:visible;opacity:1;isolation:auto;mix-blend-mode:normal;color-interpolation:sRGB;color-interpolation-filters:linearRGB;solid-color:#000000;solid-opacity:1;fill:#103d2d;fill-opacity:1;fill-rule:nonzero;stroke:none;stroke-width:0;stroke-linecap:butt;stroke-linejoin:miter;stroke-miterlimit:4;stroke-dasharray:none;stroke-dashoffset:0;stroke-opacity:1;color-rendering:auto;image-rendering:auto;shape-rendering:auto;text-rendering:auto;enable-background:accumulate"
         transform="scale(1,-1)" /><g
         transform="scale(1,-1)"
         style="font-style:normal;font-weight:normal;font-size:29.71065521px;line-height:125%;font-family:sans-serif;letter-spacing:0px;word-spacing:0px;fill:#000000;fill-opacity:1;stroke:none;stroke-width:1px;stroke-linecap:butt;stroke-linejoin:miter;stroke-opacity:1"
         id="text4230"><path
           d="m 421.65097,-332.81517 q 0,0.77619 -0.34725,1.10301 -0.32682,0.32681 -1.10301,0.32681 l -9.0079,0 q -0.91917,0 -1.24599,-0.32681 -0.30639,-0.32682 -0.30639,-1.12344 l 0,-3.67669 q 0,-0.77619 0.32682,-1.10301 0.34724,-0.34724 1.12343,-0.34724 l 9.0079,0 q 0.91918,0 1.22557,0.32682 0.32682,0.32681 0.32682,1.14386 l 0,3.67669 z m -3.84011,-8.04787 q 0.0409,0.20426 -0.0817,0.30639 -0.12256,0.0817 -0.22469,0.10213 -0.77619,0.18383 -1.83834,0.32681 -1.06216,0.12256 -2.20602,0.20426 -1.14386,0.0613 -2.28772,0.0817 -1.14386,0.0204 -2.08346,-0.0408 -0.67406,-0.0409 -1.08258,-0.42895 -0.3881,-0.3881 -0.3881,-1.04173 l 0,-6.98572 q 0,-0.71491 0.28597,-1.00088 0.30639,-0.28596 1.08258,-0.28596 l 6.98572,0 q 0.28596,0 0.28596,0.26554 l 0,1.36855 q 0,0.26553 -0.28596,0.26553 l -5.6376,0 q -0.36767,0 -0.36767,0.36767 l 0,1.59324 q 1.45025,0 2.92093,0 1.47068,-0.0204 2.69624,-0.10213 0.10213,0 0.20426,0.0409 0.12256,0.0408 0.12256,0.14298 l 0,1.3277 q 0,0.34724 -0.22469,0.34724 -1.30727,0.10213 -2.8188,0.12256 -1.4911,0 -2.9005,0 l 0,1.4911 q 0,0.32682 0.10213,0.42895 0.12256,0.0817 0.51065,0.12255 0.44938,0.0409 1.24599,0.0409 0.79662,0 1.73622,-0.0613 0.9396,-0.0613 1.8792,-0.14298 0.96002,-0.10214 1.71579,-0.24512 0.14298,-0.0408 0.26554,0 0.12255,0.0409 0.16341,0.20426 l 0.22468,1.18472 z m 6.88359,-3.02306 q 0,0.10213 -0.10213,0.18383 -0.0817,0.0817 -0.18383,0.0817 l -2.77795,0 0,4.37118 q 0,0.26553 -0.26554,0.26553 l -1.81792,0 q -0.26554,0 -0.26554,-0.28596 l 0,-10.92795 q 0,-0.26554 0.26554,-0.26554 l 1.81792,0 q 0.26554,0 0.26554,0.26554 l 0,4.63672 2.77795,0 q 0.10213,0 0.18383,0.0817 0.10213,0.0613 0.10213,0.16341 l 0,1.42983 z m -5.37206,8.0683 q 0,-0.16341 -0.0613,-0.20426 -0.0408,-0.0613 -0.20426,-0.0613 l -6.82231,0 q -0.1634,0 -0.22468,0.0409 -0.0408,0.0408 -0.0408,0.20426 l 0,2.30815 q 0,0.18383 0.0408,0.22468 0.0613,0.0409 0.22468,0.0409 l 6.82231,0 q 0.16341,0 0.20426,-0.0409 0.0613,-0.0408 0.0613,-0.22468 l 0,-2.28772 z"
           style="font-style:normal;font-variant:normal;font-weight:600;font-stretch:normal;font-size:20.42607498px;font-family:NanumGothic;-inkscape-font-specification:'NanumGothic Semi-Bold';fill:#ffffff;fill-opacity:1"
           id="path4237" /><path
           d="m 440.24795,-350.19776 q 0,-0.26554 0.28596,-0.26554 l 1.75665,0 q 0.26554,0 0.26554,0.26554 l 0,12.97056 q 0,0.26554 -0.26554,0.26554 l -1.77707,0 q -0.26554,0 -0.26554,-0.26554 l 0,-5.59675 -1.83835,0 0,5.12695 q 0,0.26554 -0.26554,0.26554 l -1.67493,0 q -0.28597,0 -0.28597,-0.26554 l 0,-12.17394 q 0,-0.26554 0.28597,-0.26554 l 1.67493,0 q 0.26554,0 0.26554,0.26554 l 0,5.08609 1.83835,0 0,-5.41291 z m 2.79837,18.52645 q 0,0.12256 -0.10213,0.18383 -0.0817,0.0613 -0.18383,0.0613 l -11.41818,0 q -0.91917,0 -1.24599,-0.32682 -0.30639,-0.32681 -0.30639,-1.12343 l 0,-4.47331 q 0,-0.10213 0.0817,-0.18383 0.10213,-0.10213 0.20426,-0.10213 l 1.75665,0 q 0.12255,0 0.20426,0.10213 0.10213,0.0817 0.10213,0.18383 l 0,3.63584 q 0,0.20426 0.0817,0.26554 0.0817,0.0613 0.28597,0.0613 l 10.25389,0 q 0.10213,0 0.18383,0.0817 0.10213,0.0817 0.10213,0.18384 l 0,1.45025 z m -8.23171,-12.86843 q 0,1.10301 -0.34724,2.02218 -0.34724,0.91918 -0.96002,1.57281 -0.61279,0.65364 -1.47068,1.0213 -0.83747,0.34725 -1.83835,0.34725 -0.98045,0 -1.81792,-0.34725 -0.83747,-0.36766 -1.47068,-1.0213 -0.61278,-0.65363 -0.96002,-1.57281 -0.34725,-0.91917 -0.34725,-2.02218 0,-1.08258 0.34725,-1.98133 0.34724,-0.89874 0.96002,-1.53195 0.63321,-0.65364 1.47068,-1.00088 0.83747,-0.36767 1.81792,-0.36767 1.00088,0 1.83835,0.36767 0.85789,0.34724 1.47068,1.00088 0.61278,0.63321 0.96002,1.53195 0.34724,0.89875 0.34724,1.98133 z m -2.26729,0.0408 q 0,-0.6332 -0.18384,-1.16428 -0.1634,-0.53108 -0.49022,-0.91918 -0.30639,-0.38809 -0.73534,-0.61278 -0.42895,-0.22468 -0.9396,-0.22468 -0.49022,0 -0.91917,0.22468 -0.42895,0.22469 -0.75577,0.61278 -0.30639,0.3881 -0.49022,0.91918 -0.16341,0.53108 -0.16341,1.16428 0,0.63321 0.16341,1.16429 0.18383,0.53108 0.49022,0.91917 0.32682,0.3881 0.75577,0.61279 0.42895,0.22468 0.91917,0.22468 0.51065,0 0.9396,-0.22468 0.42895,-0.22469 0.73534,-0.61279 0.32682,-0.38809 0.49022,-0.91917 0.18384,-0.53108 0.18384,-1.16429 z"
           style="font-style:normal;font-variant:normal;font-weight:600;font-stretch:normal;font-size:20.42607498px;font-family:NanumGothic;-inkscape-font-specification:'NanumGothic Semi-Bold';fill:#ffffff;fill-opacity:1"
           id="path4239" /><path
           d="m 421.65097,-307.28258 q 0,0.77619 -0.34725,1.10301 -0.32682,0.32682 -1.10301,0.32682 l -9.0079,0 q -0.91917,0 -1.24599,-0.32682 -0.30639,-0.32682 -0.30639,-1.12343 l 0,-3.6767 q 0,-0.77619 0.32682,-1.103 0.34724,-0.34725 1.12343,-0.34725 l 9.0079,0 q 0.91918,0 1.22557,0.32682 0.32682,0.32682 0.32682,1.14386 l 0,3.67669 z m -3.84011,-8.04787 q 0.0409,0.20426 -0.0817,0.30639 -0.12256,0.0817 -0.22469,0.10213 -0.77619,0.18384 -1.83834,0.32682 -1.06216,0.12255 -2.20602,0.20426 -1.14386,0.0613 -2.28772,0.0817 -1.14386,0.0204 -2.08346,-0.0409 -0.67406,-0.0408 -1.08258,-0.42895 -0.3881,-0.38809 -0.3881,-1.04173 l 0,-6.98571 q 0,-0.71492 0.28597,-1.00088 0.30639,-0.28597 1.08258,-0.28597 l 6.98572,0 q 0.28596,0 0.28596,0.26554 l 0,1.36855 q 0,0.26554 -0.28596,0.26554 l -5.6376,0 q -0.36767,0 -0.36767,0.36767 l 0,1.59323 q 1.45025,0 2.92093,0 1.47068,-0.0204 2.69624,-0.10213 0.10213,0 0.20426,0.0408 0.12256,0.0409 0.12256,0.14299 l 0,1.32769 q 0,0.34724 -0.22469,0.34724 -1.30727,0.10213 -2.8188,0.12256 -1.4911,0 -2.9005,0 l 0,1.4911 q 0,0.32682 0.10213,0.42895 0.12256,0.0817 0.51065,0.12256 0.44938,0.0408 1.24599,0.0408 0.79662,0 1.73622,-0.0613 0.9396,-0.0613 1.8792,-0.14298 0.96002,-0.10213 1.71579,-0.24511 0.14298,-0.0409 0.26554,0 0.12255,0.0409 0.16341,0.20426 l 0.22468,1.18471 z m 6.88359,-3.02306 q 0,0.10213 -0.10213,0.18383 -0.0817,0.0817 -0.18383,0.0817 l -2.77795,0 0,4.37118 q 0,0.26554 -0.26554,0.26554 l -1.81792,0 q -0.26554,0 -0.26554,-0.28597 l 0,-10.92795 q 0,-0.26554 0.26554,-0.26554 l 1.81792,0 q 0.26554,0 0.26554,0.26554 l 0,4.63672 2.77795,0 q 0.10213,0 0.18383,0.0817 0.10213,0.0613 0.10213,0.1634 l 0,1.42983 z m -5.37206,8.0683 q 0,-0.16341 -0.0613,-0.20426 -0.0408,-0.0613 -0.20426,-0.0613 l -6.82231,0 q -0.1634,0 -0.22468,0.0408 -0.0408,0.0409 -0.0408,0.20426 l 0,2.30815 q 0,0.18383 0.0408,0.22469 0.0613,0.0409 0.22468,0.0409 l 6.82231,0 q 0.16341,0 0.20426,-0.0409 0.0613,-0.0409 0.0613,-0.22469 l 0,-2.28772 z"
           style="font-style:normal;font-variant:normal;font-weight:600;font-stretch:normal;font-size:20.42607498px;font-family:NanumGothic;-inkscape-font-specification:'NanumGothic Semi-Bold';fill:#ffffff;fill-opacity:1"
           id="path4241" /><path
           d="m 427.72677,-314.39085 q -0.10213,0.0408 -0.24512,0.0204 -0.12255,-0.0408 -0.22468,-0.20426 l -0.73534,-1.26641 q -0.0817,-0.16341 -0.0204,-0.28597 0.0817,-0.14298 0.22469,-0.18383 1.53195,-0.57193 2.67581,-1.22557 1.16429,-0.67406 1.96091,-1.53195 0.81704,-0.8579 1.26641,-1.96091 0.4698,-1.103 0.61279,-2.55326 0.0204,-0.14298 0.0817,-0.28596 0.0817,-0.14298 0.24511,-0.12256 l 1.77707,0.0817 q 0.34725,0.0204 0.32682,0.44937 -0.0204,0.53108 -0.12256,1.00088 0.24512,0.98045 0.8579,1.8792 0.61278,0.89875 1.4911,1.65451 0.89875,0.73534 1.98133,1.30727 1.08258,0.57193 2.24687,0.89875 0.14298,0.0409 0.16341,0.18383 0.0408,0.12256 0,0.22469 l -0.69449,1.30727 q -0.16341,0.30639 -0.49023,0.22468 -0.93959,-0.24511 -1.89962,-0.69448 -0.9396,-0.44938 -1.81792,-1.04173 -0.87832,-0.61279 -1.61366,-1.34812 -0.73534,-0.75577 -1.24599,-1.61366 -1.0213,1.79749 -2.77795,3.06391 -1.73621,1.26641 -4.02393,2.02218 z m 15.58509,3.43158 q 0.10213,0 0.20426,0.10213 0.10213,0.10213 0.10213,0.22469 l 0,1.32769 q 0,0.10213 -0.10213,0.20426 -0.10213,0.10213 -0.20426,0.10213 l -17.79111,0 q -0.12256,0 -0.20426,-0.10213 -0.0817,-0.10213 -0.0817,-0.20426 l 0,-1.32769 q 0,-0.32682 0.28597,-0.32682 l 17.79111,0 z"
           style="font-style:normal;font-variant:normal;font-weight:600;font-stretch:normal;font-size:20.42607498px;font-family:NanumGothic;-inkscape-font-specification:'NanumGothic Semi-Bold';fill:#ffffff;fill-opacity:1"
           id="path4243" /></g></g></g></svg>