<?xml version="1.0" encoding="UTF-8" standalone="no"?>
<svg
   xmlns:dc="http://purl.org/dc/elements/1.1/"
   xmlns:cc="http://creativecommons.org/ns#"
   xmlns:rdf="http://www.w3.org/1999/02/22-rdf-syntax-ns#"
   xmlns:svg="http://www.w3.org/2000/svg"
   xmlns="http://www.w3.org/2000/svg"
   version="1.1"
   id="svg8281"
   viewBox="0 0 399.99999 400.00001"
   height="112.88889mm"
   width="112.88889mm">
  <defs
     id="defs8283" />
  <metadata
     id="metadata8286">
    <rdf:RDF>
      <cc:Work
         rdf:about="">
        <dc:format>image/svg+xml</dc:format>
        <dc:type
           rdf:resource="http://purl.org/dc/dcmitype/StillImage" />
        <dc:title></dc:title>
      </cc:Work>
    </rdf:RDF>
  </metadata>
  <g
     transform="translate(-200,-602.36223)"
     id="layer1">
    <g
       transform="matrix(4,0,0,3.9999635,-600,-1807.0611)"
       id="g9579">
      <circle
         style="color:#000000;clip-rule:nonzero;display:inline;overflow:visible;visibility:visible;opacity:1;isolation:auto;mix-blend-mode:normal;color-interpolation:sRGB;color-interpolation-filters:linearRGB;solid-color:#000000;solid-opacity:1;fill:#a91938;fill-opacity:1;fill-rule:nonzero;stroke:none;stroke-width:0;stroke-linecap:butt;stroke-linejoin:miter;stroke-miterlimit:4;stroke-dasharray:none;stroke-dashoffset:0;stroke-opacity:1;color-rendering:auto;image-rendering:auto;shape-rendering:auto;text-rendering:auto;enable-background:accumulate"
         id="path9544-2"
         cx="250"
         cy="652.36224"
         r="50" />
      <path
         style="color:#000000;clip-rule:nonzero;display:inline;overflow:visible;visibility:visible;opacity:1;isolation:auto;mix-blend-mode:normal;color-interpolation:sRGB;color-interpolation-filters:linearRGB;solid-color:#000000;solid-opacity:1;fill:#514e4f;fill-opacity:1;fill-rule:nonzero;stroke:none;stroke-width:0;stroke-linecap:butt;stroke-linejoin:miter;stroke-miterlimit:4;stroke-dasharray:none;stroke-dashoffset:0;stroke-opacity:1;color-rendering:auto;image-rendering:auto;shape-rendering:auto;text-rendering:auto;enable-background:accumulate"
         d="m 250,602.36133 a 50,50 0 0 0 -50,50 l 50,0 0,-50 z"
         id="rect9497" />
      <path
         style="color:#000000;clip-rule:nonzero;display:inline;overflow:visible;visibility:visible;opacity:1;isolation:auto;mix-blend-mode:normal;color-interpolation:sRGB;color-interpolation-filters:linearRGB;solid-color:#000000;solid-opacity:1;fill:#514e4f;fill-opacity:1;fill-rule:nonzero;stroke:none;stroke-width:0;stroke-linecap:butt;stroke-linejoin:miter;stroke-miterlimit:4;stroke-dasharray:none;stroke-dashoffset:0;stroke-opacity:1;color-rendering:auto;image-rendering:auto;shape-rendering:auto;text-rendering:auto;enable-background:accumulate"
         d="m 250,652.36133 0,50 a 50,50 0 0 0 50,-50 l -50,0 z"
         id="rect9497-6" />
    </g>
    <g
       transform="matrix(1.3121937,0,0,1.3121937,-111.4602,175.05951)"
       id="g9584">
      <path
         d="m 530.43679,500.91899 -281.32375,0 0,-45.725 281.32375,0 0,45.725 z"
         style="fill:#231f20;fill-opacity:1;fill-rule:nonzero;stroke:none"
         id="path4533" />
      <path
         d="m 527.95179,498.74649 -276.3475,0 0,-41.3825 276.3475,0 0,41.3825 z"
         style="fill:none;stroke:#ffffff;stroke-width:0.85375005;stroke-linecap:butt;stroke-linejoin:miter;stroke-miterlimit:4;stroke-dasharray:none;stroke-opacity:1"
         id="path4535" />
      <g
         id="g4537"
         transform="matrix(1.25,0,0,-1.25,294.76029,483.54762)">
        <path
           d="m 0,0 c 0,-0.289 0.215,-0.436 0.527,-0.436 l 0,-0.431 -3.273,0 0,0.431 c 0.219,0 0.433,0.147 0.433,0.436 l 0,10.016 -4.205,0 c -0.289,0 -0.626,-0.145 -0.626,-0.578 l -0.434,0 0,2.934 0.434,0 c 0,-0.434 0.337,-0.576 0.626,-0.576 l 10.723,0 c 0.287,0 0.625,0.142 0.625,0.576 l 0.434,0 0,-2.934 -0.434,0 c 0,0.433 -0.338,0.578 -0.625,0.578 L 0,10.016 0,0 Z"
           style="fill:#ffffff;fill-opacity:1;fill-rule:nonzero;stroke:none"
           id="path4539" />
      </g>
      <g
         id="g4541"
         transform="matrix(1.25,0,0,-1.25,307.50204,471.39061)">
        <path
           d="m 0,0 0,-0.437 c -0.217,0 -0.313,-0.143 -0.313,-0.334 0,-0.145 0.145,-0.506 0.338,-1.012 l 2.117,-5.849 0.049,0 2.045,5.729 c 0.168,0.457 0.337,0.89 0.337,1.132 0,0.241 -0.12,0.334 -0.385,0.334 l 0,0.437 3.443,0 0,-0.437 c -0.289,0 -0.434,-0.071 -0.434,-0.287 0,-0.215 0.217,-0.722 0.362,-1.107 l 2.118,-5.801 2.237,5.849 c 0.172,0.457 0.289,0.794 0.289,1.012 0,0.263 -0.167,0.334 -0.384,0.334 l 0,0.437 3.056,0 0,-0.437 c -0.287,0 -0.504,-0.261 -0.721,-0.889 l -2.769,-7.341 c -0.193,-0.529 -0.433,-1.012 -0.433,-1.18 0,-0.192 0.144,-0.314 0.337,-0.314 l 0,-0.432 -3.369,0 0,0.432 c 0.24,0.024 0.289,0.073 0.289,0.339 0,0.288 -1.301,3.587 -2.336,6.813 l -0.047,0 c -0.217,-0.868 -2.625,-6.55 -2.625,-6.813 0,-0.266 0.072,-0.339 0.36,-0.339 l 0,-0.432 -2.958,0 0,0.432 c 0.121,0 0.241,0 0.241,0.194 0,0.193 -0.146,0.554 -0.218,0.724 l -3.177,8.35 c -0.095,0.267 -0.24,0.41 -0.506,0.456 L -3.057,0 0,0 Z"
           style="fill:#ffffff;fill-opacity:1;fill-rule:nonzero;stroke:none"
           id="path4543" />
      </g>
      <g
         id="g4545"
         transform="matrix(1.25,0,0,-1.25,335.78566,471.21124)">
        <path
           d="m 0,0 c -3.516,0 -6.402,-1.757 -6.402,-5.44 0,-3.683 2.886,-5.442 6.402,-5.442 3.513,0 6.404,1.759 6.404,5.442 C 6.404,-1.757 3.513,0 0,0 m 0,-1.783 c 2.067,0 4.092,-1.369 4.092,-3.657 0,-2.287 -2.025,-3.66 -4.092,-3.66 -2.069,0 -4.092,1.373 -4.092,3.66 0,2.288 2.023,3.657 4.092,3.657"
           style="fill:#ffffff;fill-opacity:1;fill-rule:nonzero;stroke:none"
           id="path4547" />
      </g>
      <g
         id="g4549"
         transform="matrix(1.25,0,0,-1.25,348.96317,479.87824)">
        <path
           d="m 0,0 0.458,-0.121 c 0,-0.119 -0.024,-0.287 -0.024,-0.433 0,-0.962 2.864,-1.612 3.829,-1.612 0.865,0 2.958,0.193 2.958,1.42 0,2.094 -7.992,0.217 -7.992,4.309 0,2.045 1.83,3.371 4.863,3.371 2.959,0 4.262,-1.157 4.717,-1.157 0.266,0 0.337,0.097 0.532,0.193 L 9.606,5.707 8.4,3.443 7.967,3.587 C 7.944,3.781 7.944,3.971 7.704,4.164 7.051,4.719 5.61,5.15 3.948,5.15 2.673,5.15 1.54,4.837 1.54,3.948 c 0,-2.069 7.993,-0.144 7.993,-4.405 0,-2.792 -3.058,-3.491 -5.247,-3.491 -2.166,0 -4.503,1.155 -4.765,1.155 -0.122,0 -0.22,-0.046 -0.292,-0.143 L -1.107,-2.696 0,0 Z"
           style="fill:#ffffff;fill-opacity:1;fill-rule:nonzero;stroke:none"
           id="path4551" />
      </g>
      <g
         id="g4553"
         transform="matrix(1.25,0,0,-1.25,372.70704,471.21124)">
        <path
           d="m 0,0 c -3.516,0 -6.404,-1.757 -6.404,-5.44 0,-3.683 2.888,-5.442 6.404,-5.442 3.512,0 6.401,1.759 6.401,5.442 C 6.401,-1.757 3.512,0 0,0 m 0,-1.783 c 2.067,0 4.089,-1.369 4.089,-3.657 0,-2.287 -2.022,-3.66 -4.089,-3.66 -2.072,0 -4.096,1.373 -4.096,3.66 0,2.288 2.024,3.657 4.096,3.657"
           style="fill:#ffffff;fill-opacity:1;fill-rule:nonzero;stroke:none"
           id="path4555" />
      </g>
      <g
         id="g4557"
         transform="matrix(1.25,0,0,-1.25,384.70779,484.63161)">
        <path
           d="m 0,0 0,0.432 c 0.169,0.024 0.29,0.073 0.29,0.435 l 0,8.81 c 0,0.432 -0.073,0.479 -0.29,0.479 l 0,0.437 3.346,0 0,-0.437 c -0.118,0 -0.24,-0.071 -0.24,-0.215 0,-0.12 0.122,-0.313 0.338,-0.697 L 6.379,3.827 9.341,9.221 C 9.558,9.604 9.7,9.846 9.7,9.941 c 0,0.144 -0.096,0.215 -0.191,0.215 l 0,0.437 3.395,0 0,-0.437 c -0.145,0 -0.338,-0.071 -0.338,-0.31 l 0,-9.051 c 0,-0.241 0.193,-0.363 0.338,-0.363 l 0,-0.432 -2.795,0 0,0.432 c 0.313,0 0.483,0.122 0.437,0.363 l 0,6.762 -0.047,0 L 6.404,0 6.209,0 2.338,7.557 l 0.021,0 -0.046,0 0,-6.762 C 2.313,0.554 2.481,0.432 2.72,0.432 L 2.72,0 0,0 Z"
           style="fill:#ffffff;fill-opacity:1;fill-rule:nonzero;stroke:none"
           id="path4559" />
      </g>
      <g
         id="g4561"
         transform="matrix(1.25,0,0,-1.25,417.65579,474.18974)">
        <path
           d="m 0,0 -0.434,0 c 0,0.336 -0.238,0.456 -0.746,0.456 l -5.874,0 0,-2.406 3.706,0 c 0.555,0 0.794,0.049 0.794,0.385 l 0.437,0 0,-2.553 -0.483,0 c 0.098,0.339 -0.312,0.387 -0.939,0.387 l -3.515,0 0,-2.841 6.162,0 c 0.388,0 0.675,0.194 0.675,0.48 l 0.434,0 0,-2.597 -0.434,0 c 0,0.287 -0.287,0.335 -0.675,0.335 l -8.833,0 0,0.432 c 0.167,0 0.359,0.122 0.359,0.363 l 0,9.002 c 0,0.24 -0.192,0.36 -0.359,0.36 l 0,0.436 8.545,0 c 0.508,0 0.746,0.192 0.746,0.433 L 0,2.672 0,0 Z"
           style="fill:#ffffff;fill-opacity:1;fill-rule:nonzero;stroke:none"
           id="path4563" />
      </g>
      <g
         id="g4565"
         transform="matrix(1.25,0,0,-1.25,434.44041,484.09211)">
        <path
           d="m 0,0 c -0.553,0 -0.771,0.146 -0.771,0.436 l 0,4.283 4.839,0 c 3.082,0 4.958,1.012 4.958,3.756 0,2.744 -1.876,3.756 -4.958,3.756 l -8.05,0 0,-0.434 c 0.529,0 0.89,-0.145 0.89,-0.433 l 0,-10.928 C -3.092,0.146 -3.357,0 -3.982,0 l 0,-0.432 3.982,0 L 0,0 Z m -0.771,10.439 5.535,0 c 1.058,0 1.924,-0.761 1.924,-1.964 0,-1.204 -0.866,-1.968 -1.924,-1.968 l -5.535,0 0,3.932 z"
           style="fill:#ffffff;fill-opacity:1;fill-rule:nonzero;stroke:none"
           id="path4567" />
      </g>
      <g
         id="g4569"
         transform="matrix(1.25,0,0,-1.25,448.51517,471.39061)">
        <path
           d="m 0,0 3.49,0 0,-0.437 c -0.361,0 -0.552,-0.12 -0.552,-0.359 l 0,-8.016 6.496,0 c 0.386,0 0.674,0.195 0.674,0.506 l 0.434,0 0,-2.6 -0.434,0 c 0,0.264 -0.288,0.313 -0.674,0.313 l -9.434,0 0,0.432 c 0.434,0 0.625,0.122 0.625,0.363 l 0,9.002 c 0,0.239 -0.191,0.359 -0.625,0.359 L 0,0 Z"
           style="fill:#ffffff;fill-opacity:1;fill-rule:nonzero;stroke:none"
           id="path4571" />
      </g>
      <g
         id="g4573"
         transform="matrix(1.25,0,0,-1.25,468.53104,484.63161)">
        <path
           d="m 0,0 0,0.432 c -0.288,0 -0.456,0.049 -0.456,0.29 0,0.168 0.096,0.362 0.214,0.628 l 0.676,1.298 5.15,0 0.651,-1.37 C 6.331,1.034 6.403,0.89 6.403,0.697 6.403,0.456 6.161,0.362 6.019,0.362 l 0,-0.362 3.415,0 0,0.432 C 9.22,0.481 9.003,0.602 8.858,0.89 L 4.959,9.075 C 4.79,9.436 4.621,9.7 4.621,9.895 c 0,0.214 0.146,0.214 0.241,0.261 l 0,0.437 -3.634,0 0,-0.437 C 1.323,10.109 1.421,10.085 1.421,9.895 1.421,9.653 1.301,9.388 1.106,8.953 L -2.479,1.131 C -2.6,0.867 -2.839,0.481 -3.226,0.432 L -3.226,0 0,0 Z m 2.863,8.473 1.95,-4.043 -3.659,0 1.709,4.043 z"
           style="fill:#ffffff;fill-opacity:1;fill-rule:nonzero;stroke:none"
           id="path4575" />
      </g>
      <g
         id="g4577"
         transform="matrix(1.25,0,0,-1.25,268.31491,484.63161)">
        <path
           d="m 0,0 0,0.432 c -0.289,0 -0.457,0.049 -0.457,0.29 0,0.168 0.097,0.362 0.215,0.628 l 0.676,1.298 5.15,0 0.65,-1.37 C 6.331,1.034 6.402,0.89 6.402,0.697 6.402,0.456 6.164,0.362 6.02,0.362 l 0,-0.362 3.416,0 0,0.432 C 9.22,0.481 9.004,0.602 8.859,0.89 L 4.958,9.075 C 4.791,9.436 4.621,9.7 4.621,9.895 c 0,0.214 0.146,0.214 0.241,0.261 l 0,0.437 -3.633,0 0,-0.437 C 1.325,10.109 1.422,10.085 1.422,9.895 1.422,9.653 1.3,9.388 1.107,8.953 L -2.479,1.131 C -2.599,0.867 -2.84,0.481 -3.225,0.432 L -3.225,0 0,0 Z m 2.865,8.473 1.949,-4.043 -3.658,0 1.709,4.043 z"
           style="fill:#ffffff;fill-opacity:1;fill-rule:nonzero;stroke:none"
           id="path4579" />
      </g>
      <g
         id="g4581"
         transform="matrix(1.25,0,0,-1.25,494.61866,475.42511)">
        <path
           d="m 0,0 -0.264,0.191 c 0,0.075 -0.025,0.122 -0.025,0.217 0,0.338 -1.373,1.18 -3.298,1.18 -2.288,0 -3.923,-1.25 -3.923,-3.586 0,-2.311 1.877,-3.731 3.753,-3.731 1.712,0 3.806,0.989 3.806,1.541 0,0.12 0,0.241 -0.024,0.434 L 0.287,-3.515 2.07,-6.064 1.83,-6.186 c -0.146,0.073 -0.267,0.122 -0.413,0.122 -0.526,0 -2.331,-1.447 -5.222,-1.447 -2.959,0 -6.017,1.878 -6.017,5.465 0,3.587 3.058,5.417 6.21,5.417 1.253,0 2.263,-0.289 2.987,-0.555 0.746,-0.263 1.396,-0.553 1.541,-0.553 0.166,0 0.264,0.12 0.383,0.193 L 1.589,2.288 0,0 Z"
           style="fill:#ffffff;fill-opacity:1;fill-rule:nonzero;stroke:none"
           id="path4583" />
      </g>
      <g
         id="g4585"
         transform="matrix(1.25,0,0,-1.25,513.33329,474.18974)">
        <path
           d="m 0,0 -0.435,0 c 0,0.336 -0.24,0.456 -0.746,0.456 l -5.871,0 0,-2.406 3.706,0 c 0.554,0 0.796,0.049 0.796,0.385 l 0.432,0 0,-2.553 -0.483,0 c 0.097,0.339 -0.312,0.387 -0.937,0.387 l -3.514,0 0,-2.841 6.162,0 c 0.385,0 0.673,0.194 0.673,0.48 l 0.434,0 0,-2.597 -0.434,0 c 0,0.287 -0.288,0.335 -0.673,0.335 l -8.836,0 0,0.432 c 0.17,0 0.364,0.122 0.364,0.363 l 0,9.002 c 0,0.24 -0.194,0.36 -0.364,0.36 l 0,0.436 8.545,0 c 0.506,0 0.746,0.192 0.746,0.433 L 0,2.672 0,0 Z"
           style="fill:#ffffff;fill-opacity:1;fill-rule:nonzero;stroke:none"
           id="path4587" />
      </g>
    </g>
  </g>
</svg>
